<svg height="1470" viewBox="0 0 800 1470" width="800" xmlns="http://www.w3.org/2000/svg">
    <g stroke-width="1.72789">
        <path
            d="m119.63952 7.5404027c-5.63922 13.6317063-8.76917 28.5652773-8.76917 44.2348623l-20.656389 368.135235c-9.195199 163.90931-9.89821 328.18483-2.100878 492.16674l20.769417 436.85926 176.66637 21.268c9.47888 1.1409 18.97028 2.1394 28.47154 2.995 9.50126.8558 19.0141 1.5704 28.53134 2.1408 9.51726.5705 19.04109.998 28.56794 1.2831 9.52681.2852 19.05453.4255 28.58454.4255 9.53 0 19.0611-.1403 28.58786-.4255 9.52676-.2851 19.05082-.7126 28.56792-1.2831 9.51711-.5704 19.02699-1.285 28.52804-2.1408 9.50106-.8556 18.99293-1.8541 28.47152-2.995l177.14174-21.3245 20.76943-436.80276c7.79275-163.98191 7.09326-328.25743-2.10422-492.16674l-20.65639-368.135235c0-15.669585-3.12769-30.603156-8.76917-44.2348623z"
            fill="#212b35" />
        <path
            d="m637.20303 168.00013h-474.52435c-14.44636 0-26.1605 11.71185-26.1605 26.16049v318.04928c0 14.44863 11.71414 26.16049 26.1605 26.16049h474.52435c14.44864 0 26.16278-11.71186 26.16278-26.16049v-318.04928c0-14.44864-11.71414-26.16049-26.16278-26.16049"
            fill="#1d1e1f" />
        <path
            d="m628.35049 192.73777h-456.81699c-5.67553 0-10.27539 4.59986-10.27539 10.27539v300.3442c0 5.67551 4.59986 10.27765 10.27539 10.27765h456.81699c5.67553 0 10.27539-4.60214 10.27539-10.27765v-300.3442c0-5.67553-4.59986-10.27539-10.27539-10.27539"
            fill="#365941" />
        <path
            d="m622.62278 200.83237h-445.36383c-8.83666 0-16.00084 7.16418-16.00084 16.0031v280.79644c0 8.83666 7.16418 16.0031 16.00084 16.0031h445.36383c8.83892 0 16.0031-7.16644 16.0031-16.0031v-280.79644c0-8.83892-7.16418-16.0031-16.0031-16.0031"
            fill="#4b7e5c" />
    </g>
</svg>