<svg height="1470" viewBox="0 0 800 1470" width="800" xmlns="http://www.w3.org/2000/svg"><g stroke-width="1.72789"><path d="m758.35191 65.463991c0-31.99024-25.93129-57.9239339-57.92388-57.9239339h-601.405487c-31.990327 0-57.9239 25.9336939-57.9239 57.9239339l-23.180898 359.902039c-12.0431835 187.00625-12.0726786 374.5957-.090714 561.60876l23.271681 363.17881c0 44.8868 33.533458 82.6979 78.097968 88.0625l176.22019 21.2134c69.28856 8.342 139.32825 8.342 208.61681 0l176.22026-21.2134c44.56679-5.3646 78.09797-43.1757 78.09797-88.0625l23.27168-363.17881c11.98191-187.01306 11.95468-374.60251-.09071-561.60876l-23.18092-359.902039" fill="#303c4d"/><path d="m688.74751 1395.5912-180.67199 21.7501c-17.99499 2.1666-36.0396 3.7899-54.10754 4.8732-18.06792 1.0833-36.15832 1.6254-54.25046 1.6254-18.09213 0-36.18614-.5421-54.25379-1.6254-18.06764-1.0833-36.1098-2.7066-54.10419-4.8732l-180.22325-21.6936c.64344 15.1982 4.07419 29.6717 10.02236 42.8054l174.25969 20.9755c69.28856 8.3419 139.32643 8.3419 208.61499 0l174.71508-21.032c5.94055-13.1383 9.36353-27.6071 9.9991-42.8054z" fill="#212b35"/><path d="m691.00131 1348.88-177.14174 21.3245c-9.47859 1.1409-18.97046 2.1394-28.47152 2.995-9.50105.8558-19.01093 1.5704-28.52804 2.1408-9.5171.5705-19.04116.998-28.56792 1.2831-9.52676.2852-19.05786.4255-28.58786.4255-9.53001 0-19.05773-.1403-28.58454-.4255-9.52685-.2851-19.05068-.7126-28.56794-1.2831-9.51724-.5704-19.03008-1.285-28.53134-2.1408-9.50126-.8556-18.99266-1.8541-28.47154-2.995l-176.66637-21.268 1.98785 41.808c0 1.6572.19652 3.2632.26594 4.9032l180.22325 21.6936c17.99439 2.1666 36.03655 3.7899 54.10419 4.8732 18.06765 1.0833 36.16166 1.6254 54.25379 1.6254 18.09214 0 36.18254-.5421 54.25046-1.6254 18.06794-1.0833 36.11255-2.7066 54.10754-4.8732l180.67199-21.7501c.0677-1.6211.26262-3.2087.26262-4.8467z"/></g></svg>