<svg height="380" viewBox="0 0 510 380" width="510" xmlns="http://www.w3.org/2000/svg">
    <path
        d="m502.40461 9.5780603-4.32684 4.3268387c-1.88194 1.884275-4.93399 1.884275-6.81594 0l-9.14684-9.1421881c-1.87962-1.8842744-4.93167-1.8842744-6.81128 0l-9.14685 9.1421881c-1.88193 1.884275-4.93166 1.884275-6.81361 0l-9.14451-9.1421881c-1.88426-1.8842744-4.93166-1.8842744-6.81592 0l-9.14685 9.1421881c-1.87961 1.884275-4.93166 1.884275-6.81127 0l-9.14685-9.1421881c-1.88195-1.8842744-4.93165-1.8842744-6.81593 0l-9.14451 9.1421881c-1.88195 1.884275-4.93167 1.884275-6.81362 0l-9.14684-9.1421881c-1.87961-1.8842744-4.93166-1.8842744-6.81359 0l-9.14685 9.1421881c-1.88194 1.884275-4.93166 1.884275-6.81361 0l-9.14683-9.1421881c-1.87961-1.8842744-4.93168-1.8842744-6.81129 0l-9.14917 9.1421881c-1.87961 1.884275-4.93165 1.884275-6.8136 0l-9.14452-9.1421881c-1.88195-1.8842744-4.93166-1.8842744-6.8136 0l-9.14452 9.1421881c-1.88195 1.884275-4.93399 1.884275-6.81594 0l-9.14683-9.1421881c-1.87961-1.8842744-4.93167-1.8842744-6.81361 0l-9.14451 9.1421881c-1.88195 1.884275-4.93167 1.884275-6.81362 0l-9.14683-9.1421881c-1.88195-1.8842744-4.93165-1.8842744-6.8136 0l-9.14685 9.1421881c-1.88194 1.884275-4.93166 1.884275-6.81127 0l-9.14917-9.1421881c-1.87961-1.8842744-4.93168-1.8842744-6.81361 0l-9.14685 9.1421881c-1.87961 1.884275-4.92934 1.884275-6.81127 0l-9.14685-9.1421881c-1.88195-1.8842744-4.93166-1.8842744-6.8136 0l-9.14683 9.1421881c-1.88195 1.884275-4.93167 1.884275-6.81362 0l-9.14684-9.1421881c-1.88195-1.8842744-4.93167-1.8842744-6.81361 0l-9.1445 9.1421881c-1.88196 1.884275-4.934 1.884275-6.81594 0l-9.14452-9.1421881c-1.88194-1.8842744-4.93166-1.8842744-6.8136 0l-9.14683 9.1421881c-1.88195 1.884275-4.93168 1.884275-6.81363 0l-9.146832-9.1421881c-1.881947-1.8842744-4.931677-1.8842744-6.813604 0l-9.146853 9.1421881c-1.87961 1.884275-4.931657 1.884275-6.811267 0l-9.146852-9.1421881c-1.881928-1.8842744-4.933995-1.8842744-6.813605 0l-9.146832 9.1421881c-1.881948 1.884275-4.931667 1.884275-6.813615 0l-9.146842-9.1421881c-1.881948-1.8842744-4.931667-1.8842744-6.813595 0l-9.146852 9.1421881c-1.881937 1.884275-4.931657 1.884275-6.813605 0l-4.3268382-4.3268387c-3.035768-3.0240716-8.2256371-.8840348-8.2256371 3.4196057v365.582934h510.7180393v-365.582934c0-4.3036405-5.18989-6.4436773-8.22564-3.4196057"
        fill="#ececec" stroke-width="1.77126" />
</svg>