<svg id="Layer_1" enable-background="new 0 0 512 512" height="512" viewBox="0 0 512 512" width="512" xmlns="http://www.w3.org/2000/svg"><path id="XMLID_644_" d="m403.292 220.654c-84.864-101.9-65.523-181.585-52.015-211.21 2.305-5.056-2.243-10.545-7.647-9.253-72.941 17.436-116.201 54.864-141.202 98.138-4.764-21.073-6.401-41.831-6.954-54.8-.244-5.726-7.106-8.516-11.265-4.573-40.965 38.841-108.902 162.018-111.076 284.144-1.841 103.394 80.728 189.6 184.136 188.891 100.428-.689 181.628-82.314 181.628-182.904 0-40.592-11.478-79.463-35.605-108.433z" fill="#ec6264"/><path id="XMLID_645_" d="m438.897 329.088c0 100.586-81.198 182.217-181.63 182.907-7.108.052-14.124-.319-21.016-1.071 91.623-9.962 162.932-87.575 162.932-181.836 0-40.589-11.476-79.467-35.603-108.436-84.494-101.451-65.683-180.898-52.188-210.814 10.044-3.667 20.768-6.902 32.234-9.643 5.408-1.298 9.952 4.193 7.654 9.251-13.516 29.617-32.852 109.312 52.013 211.206 24.128 28.969 35.604 67.848 35.604 108.436z" fill="#e64649"/><path id="XMLID_646_" d="m351.862 359.543c0 52.943-42.919 95.862-95.862 95.862s-95.862-42.919-95.862-95.862c0-43.734 65.412-121.13 88.169-146.733 4.096-4.608 11.29-4.608 15.386 0 22.757 25.603 88.169 102.999 88.169 146.733z" fill="#fcc16d"/><path id="XMLID_647_" d="m351.857 359.54c0 52.94-42.917 95.868-95.857 95.868-6.397 0-12.661-.629-18.708-1.823 43.978-8.705 77.15-47.501 77.15-94.044 0-37.952-49.273-101.266-77.15-134.066 4.255-4.996 8.004-9.282 11.013-12.661 4.1-4.615 11.291-4.615 15.391 0 22.756 25.599 88.161 102.995 88.161 146.726z" fill="#fcb44d"/></svg>