<?xml version="1.0" encoding="UTF-8" standalone="no"?>
<svg
   xmlns:dc="http://purl.org/dc/elements/1.1/"
   xmlns:cc="http://creativecommons.org/ns#"
   xmlns:rdf="http://www.w3.org/1999/02/22-rdf-syntax-ns#"
   xmlns:svg="http://www.w3.org/2000/svg"
   xmlns="http://www.w3.org/2000/svg"
   xmlns:sodipodi="http://sodipodi.sourceforge.net/DTD/sodipodi-0.dtd"
   xmlns:inkscape="http://www.inkscape.org/namespaces/inkscape"
   height="512"
   viewBox="0 0 64 64"
   width="512"
   version="1.1"
   id="svg858"
   sodipodi:docname="free.svg"
   inkscape:version="1.0.1 (c497b03c, 2020-09-10)">
  <metadata
     id="metadata864">
    <rdf:RDF>
      <cc:Work
         rdf:about="">
        <dc:format>image/svg+xml</dc:format>
        <dc:type
           rdf:resource="http://purl.org/dc/dcmitype/StillImage" />
      </cc:Work>
    </rdf:RDF>
  </metadata>
  <defs
     id="defs862" />
  <sodipodi:namedview
     pagecolor="#ffffff"
     bordercolor="#666666"
     borderopacity="1"
     objecttolerance="10"
     gridtolerance="10"
     guidetolerance="10"
     inkscape:pageopacity="0"
     inkscape:pageshadow="2"
     inkscape:window-width="1792"
     inkscape:window-height="994"
     id="namedview860"
     showgrid="false"
     inkscape:zoom="1.0488282"
     inkscape:cx="256"
     inkscape:cy="256"
     inkscape:window-x="0"
     inkscape:window-y="-256"
     inkscape:window-maximized="0"
     inkscape:current-layer="svg858"
     inkscape:document-rotation="0" />
  <path
     d="M 58.076384,1.068778 45.716405,3.5198111 A 9.6461053,9.6461053 0 0 0 40.749837,6.1643468 L 17.174769,29.739415 a 3.2314936,3.2314936 0 0 0 0,4.563437 l 11.400529,11.400529 a 3.2314936,3.2314936 0 0 0 4.563437,0 L 56.729928,22.112187 a 9.6122423,9.6122423 0 0 0 2.636473,-4.918191 l 0.999764,-4.926254 1.491583,-7.3934126 A 3.2250436,3.2250436 0 0 0 58.076384,1.068778 Z m -0.70951,7.3934124 a 2.4131388,2.4131388 0 1 1 -0.620821,-2.330094 2.4244265,2.4244265 0 0 1 0.620821,2.330094 z"
     fill="#ffcd00"
     id="path833"
     style="stroke-width:0.806261" />
  <path
     d="m 60.027535,1.2929185 a 3.1855368,3.1855368 0 0 1 0.217691,1.9688891 L 58.753643,10.65522 57.75388,15.581474 a 9.6122423,9.6122423 0 0 1 -2.636474,4.918191 L 31.526213,44.090859 a 3.2314936,3.2314936 0 0 1 -4.563437,0 l -9.788007,-9.788007 11.400529,11.400529 a 3.2314936,3.2314936 0 0 0 4.563437,0 L 56.729928,22.112187 a 9.6122423,9.6122423 0 0 0 2.636473,-4.918191 l 0.999764,-4.926254 1.491583,-7.3934126 A 3.2193997,3.2193997 0 0 0 60.027535,1.2929185 Z"
     fill="#ddb200"
     id="path835"
     style="stroke-width:0.806261" />
  <g
     fill="#d80027"
     id="g843"
     transform="matrix(0.80626089,0,0,0.80626089,13.917475,-2.6400221)">
    <path
       d="m 14.322,50.678 a 1,1 0 0 1 -0.707,-1.707 l 0.707,-0.707 a 1,1 0 0 1 1.414,1.414 l -0.707,0.707 a 1,1 0 0 1 -0.707,0.293 z"
       id="path837" />
    <path
       d="m 18.565,45.435 2.122,-2.122 A 1,1 0 1 0 19.272,41.9 l -2.121,2.122 -2.122,-2.122 2.828,-2.828 a 1,1 0 0 0 -1.414,-1.414 l -3.535,3.535 a 1,1 0 0 0 0,1.414 l 3.534,3.535 4.949,4.949 a 1,1 0 0 0 1.414,-1.414 z"
       id="path839" />
    <path
       d="m 45.436,25.636 -2.83,2.829 -2.828,-2.829 2.122,-2.121 A 1.0005561,1.0005561 0 0 0 40.485,22.1 l -2.121,2.121 -2.829,-2.828 2.829,-2.829 A 1,1 0 0 0 36.95,17.15 l -3.536,3.536 a 1,1 0 0 0 0,1.414 l 8.486,8.486 a 1,1 0 0 0 1.414,0 L 46.85,27.05 a 1,1 0 0 0 -1.414,-1.414 z"
       id="path841" />
  </g>
  <path
     d="m 56.729928,22.112187 -8.712455,8.712455 c 0.853024,7.469201 3.713638,13.137215 6.995926,13.137215 0.0081,0 0.01532,0.004 0.02338,0.0048 0.0081,8.06e-4 0.01532,-0.0048 0.02338,-0.0048 3.933747,0 7.256348,-8.123078 7.256348,-17.737739 A 33.409839,33.409839 0 0 0 60.090424,13.625485 l -0.725635,3.569317 a 9.6122423,9.6122423 0 0 1 -2.634861,4.917385 z"
     fill="none"
     id="path845"
     style="stroke-width:0.806261" />
  <path
     d="m 54.253901,7.6801173 a 0.80626089,0.80626089 0 0 1 0.806261,-0.8062609 4.6763132,4.6763132 0 0 1 2.349444,0.6708091 2.367182,2.367182 0 0 0 -0.663553,-1.4117629 2.4187827,2.4187827 0 1 0 0,3.4185462 2.2454366,2.2454366 0 0 0 0.266067,-0.352336 3.3395326,3.3395326 0 0 0 -1.951958,-0.7127346 0.80626089,0.80626089 0 0 1 -0.806261,-0.8062609 z"
     fill="none"
     id="path847"
     style="stroke-width:0.806261" />
  <path
     id="path864"
     style="fill:#006df0;fill-opacity:1;stroke-width:0.806261"
     d="m 55.060263,6.8730469 a 0.80627445,0.80627445 0 0 0 0,1.6125489 3.3395326,3.3395326 0 0 1 1.951903,0.7126465 9.2720003,9.2720003 0 0 1 2.632325,3.4282227 c 0.15722,0.315248 0.301724,0.657241 0.446044,0.998291 a 33.409839,33.409839 0 0 1 2.226075,12.599365 c 0,9.614661 -3.322601,17.737793 -7.256347,17.737793 -0.0081,0 -0.01538,0.0038 -0.02344,0.0046 -0.0081,8.07e-4 -0.01538,-0.0046 -0.02344,-0.0046 -0.005,0 -0.0099,-0.0017 -0.01489,-0.0017 v 1.613037 c 0.0048,1.5e-5 0.0094,0.0012 0.01416,0.0012 0.0081,0 0.01538,-0.0049 0.02344,-0.0049 0.0081,0 0.01513,0.0049 0.02319,0.0049 4.973018,0 8.868898,-8.499683 8.868898,-19.350342 C 63.928989,20.747191 62.893069,15.52895 61.08785,11.907227 60.935468,11.601654 60.774981,11.322009 60.613729,11.042236 A 9.255875,9.255875 0 0 0 57.409628,7.5439452 4.6763132,4.6763132 0 0 0 55.060263,6.8730469 Z" />
  <path
     d="m 45.418894,23.160326 -2.280912,2.280912 -2.280106,-2.280912 1.71008,-1.710885 a 0.80626089,0.80626089 0 1 0 -1.140053,-1.140053 l -1.71008,1.710885 -2.280105,-2.280912 2.280105,-2.280105 a 0.80626089,0.80626089 0 0 0 -1.140052,-1.140053 l -2.850133,2.850132 a 0.80626089,0.80626089 0 0 0 0,1.140053 l 6.840318,6.84193 a 0.80626089,0.80626089 0 0 0 1.140053,0 l 2.850938,-2.850939 a 0.80626089,0.80626089 0 0 0 -1.140053,-1.140053 z"
     fill="#d80027"
     id="path851"
     style="stroke-width:0.806261" />
  <path
     d="m 49.979912,13.704499 a 0.80626089,0.80626089 0 0 0 0.570027,-0.236235 l 0.570026,-0.570026 a 0.80626089,0.80626089 0 1 0 -1.140053,-1.140053 l -0.570026,0.570026 a 0.80626089,0.80626089 0 0 0 0.570026,1.376288 z"
     fill="#d80027"
     id="path853"
     style="stroke-width:0.806261" />
  <path
     d="m 40.494253,28.652576 -4.968986,-1.315012 a 2.8025629,2.8025629 0 0 0 -0.08063,-3.891821 2.8888328,2.8888328 0 0 0 -3.990185,0 l -1.995496,1.995495 a 0.80626089,0.80626089 0 0 0 0,1.140053 l 2.835619,2.83562 0.01532,0.01451 0.01451,0.01532 3.976479,3.975672 a 0.80626089,0.80626089 0 0 0 1.140053,-1.140053 l -3.420965,-3.420965 0.200759,-0.200759 5.863935,1.55044 a 0.80626089,0.80626089 0 1 0 0.412806,-1.558502 z m -9.327633,-2.641311 1.424663,-1.425469 a 1.2376105,1.2376105 0 0 1 1.71008,0 1.2093913,1.2093913 0 0 1 0,1.710079 L 32.8767,27.721344 Z"
     fill="#d80027"
     id="path855"
     style="stroke-width:0.806261" />
</svg>
