<svg height="100" viewBox="0 0 200 99.999997" width="200" xmlns="http://www.w3.org/2000/svg" xmlns:xlink="http://www.w3.org/1999/xlink"><linearGradient id="a" gradientUnits="userSpaceOnUse" x1="97.514023" x2="97.256001" y1="11.572316" y2="89.430435"><stop offset="0" stop-color="#082c39"/><stop offset="1" stop-color="#065e76"/></linearGradient><path d="m15.393536 10.417711-7.060691 7.060285v17.65151h.845909l1.911989 1.912395.66216 25.005624-2.316738 2.463653h-.441567l-.661753 16.952525 7.060691 7.09711h165.332944l6.43534-7.354936v-16.694699h-.44117l-2.31918-2.316729v-25.410365l2.31918-2.316737 1.1009.662159-.65973-17.357265-6.43534-7.35453z" fill="url(#a)" opacity=".392283" stroke="#000" stroke-width=".303555"/><g transform="matrix(1.3333333 0 0 -1.3333333 0 1026.0267)"><path d="m8.814676 722.98439v-.11018l-.08288-.0553-1.572109-1.59943-.08253-.0829h-.1105006-.2206816v-12.52103l5.0195822-5.01988h123.585053l5.02079 5.01988v12.52103h-.24891-.0819l-.082.0829-1.59973 1.59943-.0576.0553v.11018 18.8371.11049l.0576.0829 1.59973 1.57211.082.0825h.0819.24891v12.52133l-5.02079 5.04721h-123.58508l-5.0195816-5.04721v-12.52131h.2206815.1104951l.08253-.0825 1.572108-1.5721.08289-.0829v-.11049-18.8371m129.984287.11049 1.43277-1.46192h.13963.49481v-.49631-12.63182-.0825l-.082-.0829-5.15739-5.15738-.082-.0825h-.0819-123.807545-.110195l-.05526.0825-5.157397 5.15738-.082885.0829v.0825 12.63182.49631h.4963107.1381146l1.4339937 1.46192v18.64373l-1.4339937 1.4343h-.1381432-.4963107v.49661 12.63153.11049l.082885.0549 5.1573966 5.18502.05526.0553h.110195 123.807544.0819l.082-.0553 5.15739-5.18502.082-.0549v-.11049-12.63153-.49661h-.49481-.13963l-1.43277-1.4343v-18.64374" fill="#26b0e9"/><path d="m20.425648 763.66499 2.427224 2.42691" fill="#d1e1ed"/><path d="m143.37656 706.32592.085.0555v-.91036l-6.15307-6.15027v-1.21364l-1.18385-1.18574h-9.24022v1.02033l2.01257 2.01342h8.13831zm-139.6367132 0-.082885.0555v-.91036l6.1503272-6.15027v-1.21364l1.185993-1.18574h9.211667v1.02033l-1.985552 2.01342h-8.136179zm139.6367132 52.18167.085-.0829v.93767l-6.15307 6.1227v1.21361l-1.18385 1.18599h-9.24022v-1.02055l2.01257-2.01348h8.13831zm-79.540153-1.43429h-20.82264l-1.185992 1.18598v1.18599l-.744621.74462h-29.317624v.49661h28.848633.910054l.579487-.57948h19.719532l2.013171-2.01317zm19.416583 0h20.85057l1.18568 1.18598v1.18599l.74462.74462h29.31672v.49661h-28.84772-.91006l-.57919-.57948h-19.747448l-2.013172-2.01317zm-19.416583-49.31309h-20.82264l-1.185992-1.18568v-1.21361l-.744621-.74462h-29.317624v-.4687h28.848633.910054l.579487.57888h19.719532l2.013171 2.01348zm19.416583 0h20.85057l1.18568-1.18568v-1.21361l.74462-.74462h29.31672v-.4687h-28.84772-.91006l-.57919.57888h-19.747448l-2.013172 2.01348zm-79.5131432 50.74738-.082885-.0829v.93767l6.1503272 6.1227v1.21361l1.185993 1.18599h9.211667v-1.02055l-1.985552-2.01348h-8.136179l-6.3433803-6.34308" fill="#9dd8ff"/><path d="m79.833136 755.61168 4.385157 4.49534h-21.319569l4.385457-4.49534z" fill="#0ff"/><path d="m79.722641 698.63144-1.020241-1.02059h-10.315102l-.992922 1.02059v2.28911l.992922 1.02057h10.315102l1.020241-1.02057zm-.744621 3.72304-.0549.0829h-10.72884l-.08289-.0829-1.158064-1.158-.05552-.0556v-.11016-2.50943-.0829l.05552-.0826 1.158064-1.1586.08289-.0825h.110186 10.507855.110796l.0549.0825 1.158373 1.1586.08253.0826v.0829 2.50943.11016l-.08253.0556-1.158373 1.158" fill="#d1e1ed"/><path d="m79.722641 763.88567-1.020241-1.02055h-10.315102l-.992922 1.02055v2.28911l.992922 1.02055h10.315102l1.020241-1.02055zm-.744621 3.7231-.0549.0829h-10.72884l-.08289-.0829-1.158064-1.15806-.05552-.0553v-.11049-2.48217-.11019l.05552-.0829 1.158064-1.15836.08289-.0553h.110186 10.507855.110796l.0549.0553 1.158373 1.15836.08253.0829v.11019 2.48217.11049l-.08253.0553-1.158373 1.15806" fill="#d1e1ed"/><g fill="#0ff"><path d="m79.833136 709.22182 4.385157-4.49534h-21.319569l4.385457 4.49534z"/><path d="m125.97408 764.1616h.19305l-1.43398 1.43369h-.68938l1.4343-1.43369z"/><path d="m124.78839 764.1616-1.43399 1.43369h-.68968l1.43429-1.43369z"/><path d="m123.38172 764.1616-1.43399 1.43369h-.68969l1.43431-1.43369z"/><path d="m121.97535 764.1616-1.4343 1.43369h-.68937l1.43399-1.43369z"/><path d="m120.5963 764.1616-1.4343 1.43369h-.68938l1.434-1.43369z"/><path d="m119.18963 764.1616-1.4343 1.43369h-.68937l1.43399-1.43369z"/><path d="m117.81058 764.1616-1.4343 1.43369h-.68938l1.434-1.43369z"/><path d="m116.40391 764.1616-1.434 1.43369h-.68968l1.4343-1.43369z"/><path d="m114.99723 764.1616-1.43399 1.43369h-.68968l1.4343-1.43369z"/><path d="m113.61849 764.1616-1.434 1.43369h-.68967l1.43398-1.43369z"/><path d="m112.21211 764.1616-1.43429 1.43369h-.68968l1.4343-1.43369z"/><path d="m110.83306 764.1616-1.43429 1.43369h-.68937l1.43399-1.43369z"/><path d="m109.42639 764.1616-1.43429 1.43369h-.68938l1.434-1.43369z"/><path d="m108.01972 764.1616-1.4343 1.43369h-.68937l1.43429-1.43369z"/><path d="m106.64067 764.1616-1.43429 1.43369h-.68938l1.4343-1.43369z"/><path d="m105.234 764.1616-1.434 1.43369h-.68967l1.43429-1.43369z"/><path d="m103.85495 764.1616-1.43399 1.43369h-.68938l1.4343-1.43369z"/><path d="m102.44858 764.1616-1.434 1.43369h-.68967l1.43429-1.43369z"/><path d="m101.04221 764.1616-1.4343 1.43369h-.68937l1.43399-1.43369z"/><path d="m99.66316 764.1616-1.4343 1.43369h-.68937l1.43399-1.43369z"/><path d="m98.25649 764.1616-1.434302 1.43369h-.689373l1.433995-1.43369z"/><path d="m96.877436 764.1616-1.434294 1.43369h-.689373l1.433994-1.43369z"/><path d="m95.470761 764.1616-1.433995 1.43369h-.689673l1.434296-1.43369z"/><path d="m94.064085 764.1616-1.433984 1.43369h-.689682l1.434294-1.43369z"/><path d="m92.685039 764.1616-1.433993 1.43369h-.689673l1.434294-1.43369z"/><path d="m91.278674 764.1616-1.434302 1.43369h-.689064l1.433993-1.43369z"/><path d="m89.899619 764.1616-1.433993 1.43369h-.689373l1.433993-1.43369z"/><path d="m88.493254 764.1616-1.434294 1.43369h-.689373l1.433985-1.43369z"/><path d="m87.08658 764.1616-1.434294 1.43369h-.689373l1.434294-1.43369z"/><path d="m85.707534 764.1616-1.434303 1.43369h-.689373l1.434303-1.43369z"/><path d="m84.30086 764.1616-1.433994 1.43369h-.689682l1.434303-1.43369z"/><path d="m82.921805 764.1616-1.240932 1.24093v-.68967l.551559-.55126z"/><path d="m64.884585 764.1616.551559.55126v.68967l-1.240932-1.24093z"/><path d="m125.47807 700.64486-1.4343-1.4343h.68938l1.43398 1.4343h-.19305z"/><path d="m124.09901 700.64486-1.43429-1.4343h.68968l1.43399 1.4343z"/><path d="m122.69235 700.64486-1.43431-1.4343h.68969l1.43399 1.4343z"/><path d="m121.28567 700.64486-1.43399-1.4343h.68937l1.4343 1.4343z"/><path d="m119.90662 700.64486-1.434-1.4343h.68938l1.4343 1.4343z"/><path d="m118.49995 700.64486-1.43399-1.4343h.68937l1.4343 1.4343z"/><path d="m117.1209 700.64486-1.434-1.4343h.68938l1.4343 1.4343z"/><path d="m115.71453 700.64486-1.4343-1.4343h.68968l1.434 1.4343z"/><path d="m114.30786 700.64486-1.4343-1.4343h.68968l1.43399 1.4343z"/><path d="m112.9288 700.64486-1.43398-1.4343h.68967l1.434 1.4343z"/><path d="m111.52244 700.64486-1.4343-1.4343h.68968l1.43429 1.4343z"/><path d="m110.14339 700.64486-1.43399-1.4343h.68937l1.43429 1.4343z"/><path d="m108.73672 700.64486-1.434-1.4343h.68938l1.43429 1.4343z"/><path d="m107.33034 700.64486-1.43429-1.4343h.68937l1.4343 1.4343z"/><path d="m105.9513 700.64486-1.4343-1.4343h.68938l1.43429 1.4343z"/><path d="m104.54462 700.64486-1.43429-1.4343h.68967l1.434 1.4343z"/><path d="m103.16588 700.64486-1.4343-1.4343h.68938l1.43399 1.4343z"/><path d="m101.7592 700.64486-1.43429-1.4343h.68967l1.434 1.4343z"/><path d="m100.35253 700.64486-1.43399-1.4343h.68937l1.4343 1.4343z"/><path d="m98.97348 700.64486-1.43399-1.4343h.68937l1.4343 1.4343z"/><path d="m97.56681 700.64486-1.433995-1.4343h.689373l1.434302 1.4343z"/><path d="m96.187763 700.64486-1.433994-1.4343h.689373l1.434294 1.4343z"/><path d="m94.781389 700.64486-1.434296-1.4343h.689673l1.433995 1.4343z"/><path d="m93.374713 700.64486-1.434294-1.4343h.689682l1.433984 1.4343z"/><path d="m91.995667 700.64486-1.434294-1.4343h.689673l1.433993 1.4343z"/><path d="m90.589301 700.64486-1.433993-1.4343h.689064l1.434302 1.4343z"/><path d="m89.210246 700.64486-1.433993-1.4343h.689373l1.433993 1.4343z"/><path d="m87.803572 700.64486-1.433985-1.4343h.689373l1.434294 1.4343z"/><path d="m86.397207 700.64486-1.434294-1.4343h.689373l1.434294 1.4343z"/><path d="m85.018161 700.64486-1.434303-1.4343h.689373l1.434303 1.4343z"/><path d="m83.611487 700.64486-1.434303-1.4343h.689682l1.433994 1.4343z"/><path d="m82.232432 700.64486-.551559-.55186v-.66176l1.240932 1.21362z"/><path d="m21.142941 700.64486h-.193054l1.433994-1.4343h.661745l-1.406366 1.4343z"/><path d="m22.328633 700.64486 1.434294-1.4343h.689373l-1.433994 1.4343z"/><path d="m23.735299 700.64486 1.433993-1.4343h.689682l-1.434302 1.4343z"/><path d="m25.114354 700.64486 1.433993-1.4343h.689673l-1.434293 1.4343z"/><path d="m26.521028 700.64486 1.433993-1.4343h.689673l-1.434293 1.4343z"/><path d="m27.927393 700.64486 1.434294-1.4343h.662053l-1.406665 1.4343z"/><path d="m29.306448 700.64486 1.434294-1.4343h.689373l-1.433994 1.4343z"/><path d="m30.713113 700.64486 1.434303-1.4343h.689064l-1.433685 1.4343z"/><path d="m32.091859 700.64486 1.434303-1.4343h.689373l-1.433694 1.4343z"/><path d="m33.498534 700.64486 1.434302-1.4343h.689373l-1.434303 1.4343z"/><path d="m34.905208 700.64486 1.433993-1.4343h.662054l-1.406674 1.4343z"/><path d="m36.284254 700.64486 1.433993-1.4343h.689682l-1.434302 1.4343z"/><path d="m37.690628 700.64486 1.434294-1.4343h.689681l-1.434302 1.4343z"/><path d="m39.069674 700.64486 1.434302-1.4343h.689673l-1.434293 1.4343z"/><path d="m40.476348 700.64486 1.434294-1.4343h.689373l-1.433985 1.4343z"/><path d="m41.883022 700.64486 1.434294-1.4343h.661754l-1.406675 1.4343z"/><path d="m43.262068 700.64486 1.434303-1.4343h.689064l-1.433994 1.4343z"/><path d="m44.668443 700.64486 1.433993-1.4343h.689673l-1.434294 1.4343z"/><path d="m46.047489 700.64486 1.433993-1.4343h.689673l-1.434294 1.4343z"/><path d="m47.454163 700.64486 1.433993-1.4343h.689673l-1.434293 1.4343z"/><path d="m48.860528 700.64486 1.434303-1.4343h.662053l-1.406674 1.4343z"/><path d="m50.239583 700.64486 1.434294-1.4343h.689373l-1.433994 1.4343z"/><path d="m51.646257 700.64486 1.434294-1.4343h.689373l-1.433994 1.4343z"/><path d="m53.025303 700.64486 1.434294-1.4343h.689373l-1.433994 1.4343z"/><path d="m54.431977 700.64486 1.433994-1.4343h.689373l-1.433994 1.4343z"/><path d="m55.838343 700.64486 1.434302-1.4343h.661745l-1.406365 1.4343z"/><path d="m57.217398 700.64486 1.433993-1.4343h.689673l-1.434293 1.4343z"/><path d="m58.623763 700.64486 1.434302-1.4343h.689673l-1.434293 1.4343z"/><path d="m60.002818 700.64486 1.434293-1.4343h.689373l-1.433993 1.4343z"/><path d="m61.409483 700.64486 1.434303-1.4343h.689373l-1.433994 1.4343z"/><path d="m62.816157 700.64486 1.434303-1.4343h.661745l-1.406675 1.4343z"/><path d="m64.195212 700.64486 1.240932-1.21362v.66176l-.551559.55186z"/><path d="m21.63926 764.1616 1.406366 1.43369h-.661745l-1.433994-1.43369h.193054z"/><path d="m23.018306 764.1616 1.433994 1.43369h-.689373l-1.434294-1.43369z"/><path d="m24.424672 764.1616 1.434302 1.43369h-.689682l-1.433993-1.43369z"/><path d="m25.803727 764.1616 1.434293 1.43369h-.689673l-1.433993-1.43369z"/><path d="m27.210401 764.1616 1.434293 1.43369h-.689673l-1.433993-1.43369z"/><path d="m28.617075 764.1616 1.406665 1.43369h-.662053l-1.434294-1.43369z"/><path d="m29.996121 764.1616 1.433994 1.43369h-.689373l-1.434294-1.43369z"/><path d="m31.402795 764.1616 1.433685 1.43369h-.689064l-1.434303-1.43369z"/><path d="m32.781841 764.1616 1.433694 1.43369h-.689373l-1.434303-1.43369z"/><path d="m34.187906 764.1616 1.434303 1.43369h-.689373l-1.434302-1.43369z"/><path d="m35.594581 764.1616 1.406674 1.43369h-.662054l-1.433993-1.43369z"/><path d="m36.973627 764.1616 1.434302 1.43369h-.689682l-1.433993-1.43369z"/><path d="m38.380301 764.1616 1.434302 1.43369h-.689681l-1.434294-1.43369z"/><path d="m39.759356 764.1616 1.434293 1.43369h-.689673l-1.434302-1.43369z"/><path d="m41.16603 764.1616 1.433985 1.43369h-.689373l-1.434294-1.43369z"/><path d="m42.572395 764.1616 1.406675 1.43369h-.661754l-1.434294-1.43369z"/><path d="m43.951441 764.1616 1.433994 1.43369h-.689064l-1.434303-1.43369z"/><path d="m45.357815 764.1616 1.434294 1.43369h-.689673l-1.433993-1.43369z"/><path d="m46.736861 764.1616 1.434294 1.43369h-.689673l-1.433993-1.43369z"/><path d="m48.143536 764.1616 1.434293 1.43369h-.689673l-1.433993-1.43369z"/><path d="m49.55021 764.1616 1.406674 1.43369h-.662053l-1.434303-1.43369z"/><path d="m50.929256 764.1616 1.433994 1.43369h-.689373l-1.434294-1.43369z"/><path d="m52.33593 764.1616 1.433994 1.43369h-.689373l-1.434294-1.43369z"/><path d="m53.714976 764.1616 1.433994 1.43369h-.689373l-1.434294-1.43369z"/><path d="m55.12135 764.1616 1.433994 1.43369h-.689373l-1.433994-1.43369z"/><path d="m56.528025 764.1616 1.406365 1.43369h-.661745l-1.434302-1.43369z"/><path d="m57.906771 764.1616 1.434293 1.43369h-.689673l-1.433993-1.43369z"/><path d="m59.313445 764.1616 1.434293 1.43369h-.689673l-1.434302-1.43369z"/><path d="m60.692491 764.1616 1.433993 1.43369h-.689373l-1.434293-1.43369z"/><path d="m62.099165 764.1616 1.433994 1.43369h-.689373l-1.434303-1.43369z"/><path d="m63.50553 764.1616 1.406675 1.43369h-.661745l-1.434303-1.43369z"/></g></g><path d="m22.806219-30.046289h18.462177v12.308119h-18.462177z" fill="#9dd8ff" stroke-linecap="round" stroke-width="2"/></svg>