<svg width="200" height="100" viewBox="0 0 200 100" fill="none" xmlns="http://www.w3.org/2000/svg">
    <g clip-path="url(#clip0_916_2)">
        <path opacity="0.9" d="M15.3937 10.4177L8.33301 17.478V35.1295H9.17892L11.0909 37.0419L11.7531 62.0475L9.43633 64.5112H8.99476L8.33301 81.4637L15.3937 88.5608H180.727L187.162 81.2059V64.5112H186.721L184.402 62.1945V36.7841L186.721 34.4674L187.822 35.1295L187.162 17.7723L180.727 10.4177H15.3937Z" fill="url(#paint0_linear_916_2)" stroke="black" stroke-width="0.303555"/>
        <path d="M11.7527 62.0475V62.1944L11.6422 62.2681L9.54604 64.4007L9.436 64.5112H9.28866H8.99442V81.206L15.6872 87.8992H180.467L187.162 81.206V64.5112H186.83H186.721L186.611 64.4007L184.478 62.2681L184.401 62.1944V62.0475V36.9314V36.784L184.478 36.6735L186.611 34.5774L186.721 34.4674H186.83H187.162V17.7723L180.467 11.0426H15.6872L8.99438 17.7723V34.4674H9.28863H9.43595L9.54599 34.5773L11.6421 36.6735L11.7527 36.784V36.9313V62.0474L11.7527 62.0475ZM185.065 61.9001L186.975 63.8494H187.162H187.821V64.5112V81.3535V81.4635L187.712 81.5741L180.835 88.4506L180.726 88.5605H180.617H15.5402H15.3933L15.3196 88.4506L8.44307 81.5741L8.33256 81.4635V81.3535V64.5112V63.8494H8.99431H9.17846L11.0904 61.9001V37.0418L9.17846 35.1295H8.99427H8.33252V34.4673V17.6252V17.478L8.44303 17.4047L15.3196 10.4914L15.3932 10.4176H15.5402H180.617H180.726L180.835 10.4914L187.712 17.4047L187.821 17.478V17.6252V34.4673V35.1295H187.162H186.975L185.065 37.0418V61.9001" fill="#26B0E9"/>
        <path d="M27.2344 7.80676L30.4707 4.57084Z" fill="#D1E1ED"/>
        <path d="M191.169 84.2588L191.282 84.1849V85.3986L183.078 93.599V95.2172L181.5 96.7982H169.179V95.4378L171.863 92.7532H182.714L191.169 84.2588ZM4.98649 84.2588L4.87598 84.1849V85.3986L13.0764 93.599V95.2172L14.6577 96.7982H26.94V95.4378L24.2926 92.7532H13.4443L4.98649 84.2588ZM191.169 14.6833L191.282 14.7938V13.5436L183.078 5.38V3.76184L181.5 2.18054H169.179V3.54122L171.863 6.22587H182.714L191.169 14.6833ZM85.1152 16.5957H57.3517L55.7704 15.0144V13.4331L54.7776 12.4402H15.6874V11.778H54.1522H55.3656L56.1383 12.5507H82.431L85.1152 15.2349V16.5957ZM111.004 16.5957H138.805L140.386 15.0144V13.4331L141.379 12.4402H180.467V11.778H142.004H140.79L140.018 12.5507H113.688L111.004 15.2349V16.5957ZM85.1152 82.3465H57.3517L55.7704 83.9274V85.5455L54.7776 86.5384H15.6874V87.1633H54.1522H55.3656L56.1383 86.3914H82.431L85.1152 83.7067V82.3465ZM111.004 82.3465H138.805L140.386 83.9274V85.5455L141.379 86.5384H180.467V87.1633H142.004H140.79L140.018 86.3914H113.688L111.004 83.7067V82.3465ZM4.98649 14.6833L4.87598 14.7938V13.5436L13.0764 5.38V3.76184L14.6577 2.18054H26.94V3.54122L24.2926 6.22587H13.4443L4.98648 14.6833" fill="#9DD8FF"/>
        <path d="M106.444 18.5444L112.291 12.5507H83.8652L89.7125 18.5444H106.444Z" fill="#00FFFF"/>
        <path d="M106.297 94.5181L104.937 95.879H91.1833L89.8594 94.5181V91.4661L91.1833 90.1053H104.937L106.297 91.4661V94.5181ZM105.304 89.5541L105.231 89.4436H90.9259L90.8154 89.5541L89.2713 91.0981L89.1973 91.1723V91.3192V94.665V94.7756L89.2713 94.8857L90.8154 96.4305L90.9259 96.5405H91.0728H105.083H105.231L105.304 96.4305L106.849 94.8857L106.959 94.7756V94.665V91.3192V91.1723L106.849 91.0981L105.304 89.5541" fill="#D1E1ED"/>
        <path d="M106.297 7.51253L104.937 8.87329H91.1833L89.8594 7.51253V4.46037L91.1833 3.09969H104.937L106.297 4.46037V7.51253ZM105.304 2.54842L105.231 2.43791H90.9259L90.8154 2.54842L89.2713 4.09253L89.1973 4.16626V4.31356V7.62313V7.77002L89.2713 7.88053L90.8154 9.42505L90.9259 9.49878H91.0728H105.083H105.231L105.304 9.42505L106.849 7.88053L106.959 7.77002V7.62313V4.31356V4.16626L106.849 4.09253L105.304 2.54842" fill="#D1E1ED"/>
        <path d="M106.444 80.3976L112.291 86.3914H83.8647L89.712 80.3976H106.444Z" fill="#00FFFF"/>
        <path d="M167.965 7.14453H168.223L166.311 5.23299H165.392L167.304 7.14453H167.965Z" fill="#00FFFF"/>
        <path d="M166.384 7.14453L164.472 5.23299H163.553L165.465 7.14453H166.384Z" fill="#00FFFF"/>
        <path d="M164.509 7.14453L162.597 5.23299H161.677L163.59 7.14453H164.509Z" fill="#00FFFF"/>
        <path d="M162.634 7.14453L160.721 5.23299H159.802L161.714 7.14453H162.634Z" fill="#00FFFF"/>
        <path d="M160.795 7.14453L158.883 5.23299H157.963L159.875 7.14453H160.795Z" fill="#00FFFF"/>
        <path d="M158.919 7.14453L157.007 5.23299H156.088L158 7.14453H158.919Z" fill="#00FFFF"/>
        <path d="M157.081 7.14453L155.168 5.23299H154.249L156.161 7.14453H157.081Z" fill="#00FFFF"/>
        <path d="M155.205 7.14453L153.293 5.23299H152.374L154.286 7.14453H155.205Z" fill="#00FFFF"/>
        <path d="M153.33 7.14453L151.418 5.23299H150.498L152.41 7.14453H153.33Z" fill="#00FFFF"/>
        <path d="M151.491 7.14453L149.579 5.23299H148.66L150.572 7.14453H151.491Z" fill="#00FFFF"/>
        <path d="M149.616 7.14453L147.704 5.23299H146.784L148.697 7.14453H149.616Z" fill="#00FFFF"/>
        <path d="M147.777 7.14453L145.865 5.23299H144.946L146.858 7.14453H147.777Z" fill="#00FFFF"/>
        <path d="M145.902 7.14453L143.989 5.23299H143.07L144.982 7.14453H145.902Z" fill="#00FFFF"/>
        <path d="M144.026 7.14453L142.114 5.23299H141.195L143.107 7.14453H144.026Z" fill="#00FFFF"/>
        <path d="M142.188 7.14453L140.275 5.23299H139.356L141.268 7.14453H142.188Z" fill="#00FFFF"/>
        <path d="M140.312 7.14453L138.4 5.23299H137.48L139.393 7.14453H140.312Z" fill="#00FFFF"/>
        <path d="M138.473 7.14453L136.561 5.23299H135.642L137.554 7.14453H138.473Z" fill="#00FFFF"/>
        <path d="M136.598 7.14453L134.686 5.23299H133.767L135.679 7.14453H136.598Z" fill="#00FFFF"/>
        <path d="M134.723 7.14453L132.81 5.23299H131.891L133.803 7.14453H134.723Z" fill="#00FFFF"/>
        <path d="M132.884 7.14453L130.972 5.23299H130.053L131.965 7.14453H132.884Z" fill="#00FFFF"/>
        <path d="M131.008 7.14453L129.096 5.23299H128.177L130.089 7.14453H131.008Z" fill="#00FFFF"/>
        <path d="M129.17 7.14453L127.258 5.23299H126.338L128.25 7.14453H129.17Z" fill="#00FFFF"/>
        <path d="M127.294 7.14453L125.382 5.23299H124.463L126.375 7.14453H127.294Z" fill="#00FFFF"/>
        <path d="M125.418 7.14453L123.506 5.23299H122.587L124.499 7.14453H125.418Z" fill="#00FFFF"/>
        <path d="M123.58 7.14453L121.668 5.23299H120.749L122.661 7.14453H123.58Z" fill="#00FFFF"/>
        <path d="M121.705 7.14453L119.792 5.23299H118.874L120.786 7.14453H121.705Z" fill="#00FFFF"/>
        <path d="M119.866 7.14453L117.954 5.23299H117.035L118.947 7.14453H119.866Z" fill="#00FFFF"/>
        <path d="M117.991 7.14453L116.078 5.23299H115.159L117.071 7.14453H117.991Z" fill="#00FFFF"/>
        <path d="M116.115 7.14453L114.203 5.23299H113.284L115.196 7.14453H116.115Z" fill="#00FFFF"/>
        <path d="M114.276 7.14453L112.364 5.23299H111.445L113.357 7.14453H114.276Z" fill="#00FFFF"/>
        <path d="M112.401 7.14453L110.489 5.23299H109.569L111.482 7.14453H112.401Z" fill="#00FFFF"/>
        <path d="M110.562 7.14453L108.908 5.48999V6.40959L109.643 7.14453H110.562Z" fill="#00FFFF"/>
        <path d="M86.5129 7.14453L87.2483 6.40959V5.48999L85.5938 7.14453H86.5129Z" fill="#00FFFF"/>
        <path d="M167.304 91.8336L165.392 93.746H166.311L168.223 91.8336H167.965H167.304Z" fill="#00FFFF"/>
        <path d="M165.465 91.8336L163.553 93.746H164.472L166.384 91.8336H165.465Z" fill="#00FFFF"/>
        <path d="M163.59 91.8336L161.677 93.746H162.597L164.509 91.8336H163.59Z" fill="#00FFFF"/>
        <path d="M161.714 91.8336L159.802 93.746H160.721L162.634 91.8336H161.714Z" fill="#00FFFF"/>
        <path d="M159.875 91.8336L157.963 93.746H158.883L160.795 91.8336H159.875Z" fill="#00FFFF"/>
        <path d="M158 91.8336L156.088 93.746H157.007L158.919 91.8336H158Z" fill="#00FFFF"/>
        <path d="M156.161 91.8336L154.249 93.746H155.168L157.081 91.8336H156.161Z" fill="#00FFFF"/>
        <path d="M154.286 91.8336L152.374 93.746H153.293L155.205 91.8336H154.286Z" fill="#00FFFF"/>
        <path d="M152.41 91.8336L150.498 93.746H151.418L153.33 91.8336H152.41Z" fill="#00FFFF"/>
        <path d="M150.572 91.8336L148.66 93.746H149.579L151.491 91.8336H150.572Z" fill="#00FFFF"/>
        <path d="M148.697 91.8336L146.784 93.746H147.704L149.616 91.8336H148.697Z" fill="#00FFFF"/>
        <path d="M146.858 91.8336L144.946 93.746H145.865L147.777 91.8336H146.858Z" fill="#00FFFF"/>
        <path d="M144.982 91.8336L143.07 93.746H143.989L145.902 91.8336H144.982Z" fill="#00FFFF"/>
        <path d="M143.107 91.8336L141.195 93.746H142.114L144.026 91.8336H143.107Z" fill="#00FFFF"/>
        <path d="M141.268 91.8336L139.356 93.746H140.275L142.188 91.8336H141.268Z" fill="#00FFFF"/>
        <path d="M139.393 91.8336L137.48 93.746H138.4L140.312 91.8336H139.393Z" fill="#00FFFF"/>
        <path d="M137.554 91.8336L135.642 93.746H136.561L138.473 91.8336H137.554Z" fill="#00FFFF"/>
        <path d="M135.679 91.8336L133.767 93.746H134.686L136.598 91.8336H135.679Z" fill="#00FFFF"/>
        <path d="M133.803 91.8336L131.891 93.746H132.81L134.723 91.8336H133.803Z" fill="#00FFFF"/>
        <path d="M131.965 91.8336L130.053 93.746H130.972L132.884 91.8336H131.965Z" fill="#00FFFF"/>
        <path d="M130.089 91.8336L128.177 93.746H129.096L131.008 91.8336H130.089Z" fill="#00FFFF"/>
        <path d="M128.25 91.8336L126.338 93.746H127.258L129.17 91.8336H128.25Z" fill="#00FFFF"/>
        <path d="M126.375 91.8336L124.463 93.746H125.382L127.294 91.8336H126.375Z" fill="#00FFFF"/>
        <path d="M124.499 91.8336L122.587 93.746H123.506L125.418 91.8336H124.499Z" fill="#00FFFF"/>
        <path d="M122.661 91.8336L120.749 93.746H121.668L123.58 91.8336H122.661Z" fill="#00FFFF"/>
        <path d="M120.786 91.8336L118.874 93.746H119.792L121.705 91.8336H120.786Z" fill="#00FFFF"/>
        <path d="M118.947 91.8336L117.035 93.746H117.954L119.866 91.8336H118.947Z" fill="#00FFFF"/>
        <path d="M117.071 91.8336L115.159 93.746H116.078L117.991 91.8336H117.071Z" fill="#00FFFF"/>
        <path d="M115.196 91.8336L113.284 93.746H114.203L116.115 91.8336H115.196Z" fill="#00FFFF"/>
        <path d="M113.357 91.8336L111.445 93.746H112.364L114.276 91.8336H113.357Z" fill="#00FFFF"/>
        <path d="M111.482 91.8336L109.569 93.746H110.489L112.401 91.8336H111.482Z" fill="#00FFFF"/>
        <path d="M109.643 91.8336L108.908 92.5694V93.4518L110.562 91.8336H109.643Z" fill="#00FFFF"/>
        <path d="M28.1905 91.8336H27.9331L29.8451 93.746H30.7274L28.8523 91.8336H28.1905Z" fill="#00FFFF"/>
        <path d="M29.7715 91.8336L31.6839 93.746H32.603L30.6911 91.8336H29.7715Z" fill="#00FFFF"/>
        <path d="M31.647 91.8336L33.559 93.746H34.4785L32.5661 91.8336H31.647Z" fill="#00FFFF"/>
        <path d="M33.4858 91.8336L35.3978 93.746H36.3174L34.405 91.8336H33.4858Z" fill="#00FFFF"/>
        <path d="M35.3613 91.8336L37.2733 93.746H38.1929L36.2805 91.8336H35.3613Z" fill="#00FFFF"/>
        <path d="M37.2363 91.8336L39.1487 93.746H40.0315L38.1559 91.8336H37.2363Z" fill="#00FFFF"/>
        <path d="M39.0752 91.8336L40.9876 93.746H41.9068L39.9948 91.8336H39.0752Z" fill="#00FFFF"/>
        <path d="M40.9507 91.8336L42.8631 93.746H43.7818L41.8703 91.8336H40.9507Z" fill="#00FFFF"/>
        <path d="M42.7891 91.8336L44.7015 93.746H45.6206L43.709 91.8336H42.7891Z" fill="#00FFFF"/>
        <path d="M44.6646 91.8336L46.5769 93.746H47.4961L45.5837 91.8336H44.6646Z" fill="#00FFFF"/>
        <path d="M46.54 91.8336L48.452 93.746H49.3348L47.4592 91.8336H46.54Z" fill="#00FFFF"/>
        <path d="M48.3789 91.8336L50.2909 93.746H51.2105L49.2981 91.8336H48.3789Z" fill="#00FFFF"/>
        <path d="M50.2539 91.8336L52.1663 93.746H53.0859L51.1735 91.8336H50.2539Z" fill="#00FFFF"/>
        <path d="M52.0928 91.8336L54.0052 93.746H54.9247L53.0123 91.8336H52.0928Z" fill="#00FFFF"/>
        <path d="M53.9683 91.8336L55.8807 93.746H56.7998L54.8878 91.8336H53.9683Z" fill="#00FFFF"/>
        <path d="M55.8438 91.8336L57.7561 93.746H58.6385L56.7629 91.8336H55.8438Z" fill="#00FFFF"/>
        <path d="M57.6826 91.8336L59.595 93.746H60.5138L58.6018 91.8336H57.6826Z" fill="#00FFFF"/>
        <path d="M59.5576 91.8336L61.4696 93.746H62.3892L60.4768 91.8336H59.5576Z" fill="#00FFFF"/>
        <path d="M61.3965 91.8336L63.3085 93.746H64.228L62.3156 91.8336H61.3965Z" fill="#00FFFF"/>
        <path d="M63.272 91.8336L65.184 93.746H66.1035L64.1911 91.8336H63.272Z" fill="#00FFFF"/>
        <path d="M65.1475 91.8336L67.0599 93.746H67.9426L66.067 91.8336H65.1475Z" fill="#00FFFF"/>
        <path d="M66.9858 91.8336L68.8982 93.746H69.8174L67.9054 91.8336H66.9858Z" fill="#00FFFF"/>
        <path d="M68.8618 91.8336L70.7742 93.746H71.6934L69.7814 91.8336H68.8618Z" fill="#00FFFF"/>
        <path d="M70.7002 91.8336L72.6126 93.746H73.5318L71.6198 91.8336H70.7002Z" fill="#00FFFF"/>
        <path d="M72.5757 91.8336L74.4877 93.746H75.4068L73.4948 91.8336H72.5757Z" fill="#00FFFF"/>
        <path d="M74.4512 91.8336L76.3636 93.746H77.2459L75.3707 91.8336H74.4512Z" fill="#00FFFF"/>
        <path d="M76.2896 91.8336L78.2015 93.746H79.1211L77.2087 91.8336H76.2896Z" fill="#00FFFF"/>
        <path d="M78.165 91.8336L80.0774 93.746H80.997L79.0846 91.8336H78.165Z" fill="#00FFFF"/>
        <path d="M80.0039 91.8336L81.9163 93.746H82.8355L80.9235 91.8336H80.0039Z" fill="#00FFFF"/>
        <path d="M81.8794 91.8336L83.7918 93.746H84.711L82.799 91.8336H81.8794Z" fill="#00FFFF"/>
        <path d="M83.7549 91.8336L85.6673 93.746H86.5496L84.674 91.8336H83.7549Z" fill="#00FFFF"/>
        <path d="M85.5938 91.8336L87.2483 93.4518V92.5694L86.5129 91.8336H85.5938Z" fill="#00FFFF"/>
        <path d="M28.8523 7.14453L30.7274 5.23299H29.8451L27.9331 7.14453H28.1905H28.8523Z" fill="#00FFFF"/>
        <path d="M30.6911 7.14453L32.603 5.23299H31.6839L29.7715 7.14453H30.6911Z" fill="#00FFFF"/>
        <path d="M32.5661 7.14453L34.4785 5.23299H33.559L31.647 7.14453H32.5661Z" fill="#00FFFF"/>
        <path d="M34.405 7.14453L36.3174 5.23299H35.3978L33.4858 7.14453H34.405Z" fill="#00FFFF"/>
        <path d="M36.2805 7.14453L38.1929 5.23299H37.2733L35.3613 7.14453H36.2805Z" fill="#00FFFF"/>
        <path d="M38.1559 7.14453L40.0315 5.23299H39.1487L37.2363 7.14453H38.1559Z" fill="#00FFFF"/>
        <path d="M39.9948 7.14453L41.9068 5.23299H40.9876L39.0752 7.14453H39.9948Z" fill="#00FFFF"/>
        <path d="M41.8703 7.14453L43.7818 5.23299H42.8631L40.9507 7.14453H41.8703Z" fill="#00FFFF"/>
        <path d="M43.709 7.14453L45.6206 5.23299H44.7015L42.7891 7.14453H43.709Z" fill="#00FFFF"/>
        <path d="M45.5837 7.14453L47.4961 5.23299H46.5769L44.6646 7.14453H45.5837Z" fill="#00FFFF"/>
        <path d="M47.4592 7.14453L49.3348 5.23299H48.452L46.54 7.14453H47.4592Z" fill="#00FFFF"/>
        <path d="M49.2981 7.14453L51.2105 5.23299H50.2909L48.3789 7.14453H49.2981Z" fill="#00FFFF"/>
        <path d="M51.1735 7.14453L53.0859 5.23299H52.1663L50.2539 7.14453H51.1735Z" fill="#00FFFF"/>
        <path d="M53.0123 7.14453L54.9247 5.23299H54.0052L52.0928 7.14453H53.0123Z" fill="#00FFFF"/>
        <path d="M54.8878 7.14453L56.7998 5.23299H55.8807L53.9683 7.14453H54.8878Z" fill="#00FFFF"/>
        <path d="M56.7629 7.14453L58.6385 5.23299H57.7561L55.8438 7.14453H56.7629Z" fill="#00FFFF"/>
        <path d="M58.6018 7.14453L60.5138 5.23299H59.595L57.6826 7.14453H58.6018Z" fill="#00FFFF"/>
        <path d="M60.4768 7.14453L62.3892 5.23299H61.4696L59.5576 7.14453H60.4768Z" fill="#00FFFF"/>
        <path d="M62.3156 7.14453L64.228 5.23299H63.3085L61.3965 7.14453H62.3156Z" fill="#00FFFF"/>
        <path d="M64.1911 7.14453L66.1035 5.23299H65.184L63.272 7.14453H64.1911Z" fill="#00FFFF"/>
        <path d="M66.067 7.14453L67.9426 5.23299H67.0599L65.1475 7.14453H66.067Z" fill="#00FFFF"/>
        <path d="M67.9054 7.14453L69.8174 5.23299H68.8982L66.9858 7.14453H67.9054Z" fill="#00FFFF"/>
        <path d="M69.7814 7.14453L71.6934 5.23299H70.7742L68.8618 7.14453H69.7814Z" fill="#00FFFF"/>
        <path d="M71.6198 7.14453L73.5318 5.23299H72.6126L70.7002 7.14453H71.6198Z" fill="#00FFFF"/>
        <path d="M73.4948 7.14453L75.4068 5.23299H74.4877L72.5757 7.14453H73.4948Z" fill="#00FFFF"/>
        <path d="M75.3707 7.14453L77.2459 5.23299H76.3636L74.4512 7.14453H75.3707Z" fill="#00FFFF"/>
        <path d="M77.2087 7.14453L79.1211 5.23299H78.2015L76.2896 7.14453H77.2087Z" fill="#00FFFF"/>
        <path d="M79.0846 7.14453L80.997 5.23299H80.0774L78.165 7.14453H79.0846Z" fill="#00FFFF"/>
        <path d="M80.9235 7.14453L82.8355 5.23299H81.9163L80.0039 7.14453H80.9235Z" fill="#00FFFF"/>
        <path d="M82.799 7.14453L84.711 5.23299H83.7918L81.8794 7.14453H82.799Z" fill="#00FFFF"/>
        <path d="M84.674 7.14453L86.5496 5.23299H85.6673L83.7549 7.14453H84.674Z" fill="#00FFFF"/>
    </g>
    <defs>
        <linearGradient id="paint0_linear_916_2" x1="97.5142" y1="11.5723" x2="97.2562" y2="89.4305" gradientUnits="userSpaceOnUse">
            <stop stop-color="#021116"/>
            <stop offset="1" stop-color="#065E76"/>
        </linearGradient>
        <clipPath id="clip0_916_2">
            <rect width="200" height="100" fill="white"/>
        </clipPath>
    </defs>
</svg>
