<?xml version="1.0" encoding="iso-8859-1"?>
<!-- Generator: Adobe Illustrator 19.0.0, SVG Export Plug-In . SVG Version: 6.00 Build 0)  -->
<svg version="1.1" id="Layer_1" xmlns="http://www.w3.org/2000/svg" xmlns:xlink="http://www.w3.org/1999/xlink" x="0px" y="0px"
	 viewBox="0 0 500 500" style="enable-background:new 0 0 500 500;" xml:space="preserve">
<path style="fill:#EDC654;" d="M4,58.4v304c0,7.6,6.4,14,14,14h464c7.6,0,14-6.4,14-14v-302c0-8.8-7.2-16-16-16H18
	C10.4,44.4,4,50.4,4,58.4z"/>
<rect x="28" y="72.4" style="fill:#CDEEF9;" width="444" height="280"/>
<path style="fill:#3C8E51;" d="M200,139.2l-73.2,73.6L92,179.2l-62.4,58.4c-0.4,0.4,0,110.8,0,110.8H476v-94l-75.6-75.6l-77.2,76.8
	L200,139.2z"/>
<path style="fill:#54B265;" d="M200,139.2l-73.2,73.6l138.4,135.6h157.6L200,139.2z"/>
<path style="fill:#E8BB85;" d="M92,178.8l-62.4,58.4c-0.4,0.4,0,110.8,0,110.8h237.6L92,178.8z"/>
<circle style="fill:#E9B526;" cx="316.4" cy="136" r="26.4"/>
<path style="fill:#FFC52F;" d="M369.2,422.8L270,263.6c-4.8-8-11.2-12-18-12s-13.6,4.4-18.8,12.4l-98.4,158.8
	c-4.8,8-6,15.6-2.8,21.2s10,8.8,19.2,8.8h201.6c9.2,0,16.4-3.2,19.2-8.8C375.2,438.4,374,430.8,369.2,422.8z"/>
<g>
	<path style="fill:#F4EFEF;" d="M268,372c0,6.8-5.2,12.4-12,12.4s-12-5.6-12-12.4v-58.8c0-6.8,5.2-12.4,12-12.4s12,5.6,12,12.4V372z
		"/>
	<circle style="fill:#F4EFEF;" cx="251.2" cy="411.6" r="12"/>
</g>
<path d="M482,384.4H346c-2.4,0-4-1.6-4-4s1.6-4,4-4h136c6.4,0,10-3.6,10-10v-306c0-6.8-5.2-12-12-12H18c-6.8,0-10,3.2-10,10v308
	c0,6.4,3.6,10,10,10h140c2.4,0,4,1.6,4,4s-1.6,4-4,4H18c-10.8,0-18-7.2-18-18v-308c0-10.8,7.2-18,18-18h462c11.2,0,20,8.8,20,20v306
	C500,377.2,492.8,384.4,482,384.4z"/>
<path d="M176,356.4H28c-2.4,0-4-1.6-4-4v-280c0-2.4,1.6-4,4-4h388c2.4,0,4,1.6,4,4s-1.6,4-4,4H32v272h144c2.4,0,4,1.6,4,4
	S178.4,356.4,176,356.4z"/>
<path d="M472,356.4H332c-2.4,0-4-1.6-4-4s1.6-4,4-4h136v-272h-16c-2.4,0-4-1.6-4-4s1.6-4,4-4h20c2.4,0,4,1.6,4,4v280
	C476,354.4,474.4,356.4,472,356.4z"/>
<path d="M28,244.4c-1.2,0-2-0.4-2.8-1.2c-1.6-1.6-1.6-4,0-5.6l64-64.4c1.6-1.6,4-1.6,5.6,0s1.6,4,0,5.6l-64,64.4
	C30,244,29.2,244.4,28,244.4z"/>
<path d="M184,272.4c-1.2,0-2-0.4-2.8-1.2l-92-92c-1.6-1.6-1.6-4,0-5.6s4-1.6,5.6,0l92,92c1.6,1.6,1.6,4,0,5.6
	C186,272,185.2,272.4,184,272.4z"/>
<path d="M140,204.4c-1.2,0-2-0.4-2.8-1.2c-1.6-1.6-1.6-4,0-5.6l64-64c1.6-1.6,4-1.6,5.6,0s1.6,4,0,5.6l-64,64
	C142,204.4,141.2,204.4,140,204.4z"/>
<path d="M336,244.4c-1.2,0-2-0.4-2.8-1.2c-1.6-1.6-1.6-4,0-5.6l64.4-64.4c1.6-1.6,4-1.6,5.6,0s1.6,4,0,5.6l-64.4,64.4
	C338,244,337.2,244.4,336,244.4z"/>
<path d="M356.4,292.8c-1.2,0-2-0.4-2.8-1.2L201.2,139.2c-1.6-1.6-1.6-4,0-5.6s4-1.6,5.6,0L359.2,286c1.6,1.6,1.6,4,0,5.6
	C358.4,292.4,357.6,292.8,356.4,292.8z"/>
<path d="M470.8,254c-1.2,0-2-0.4-2.8-1.2l-70-74c-1.6-1.6-1.6-4,0-5.6s4-1.6,5.6,0l70,74c1.6,1.6,1.6,4,0,5.6
	C472.8,253.6,471.6,254,470.8,254z"/>
<path d="M316,164.8c-15.6,0-28-12.8-28-28c0-15.6,12.8-28,28-28c6,0,11.6,1.6,16.4,5.2c2,1.2,2.4,3.6,0.8,5.6
	c-1.2,2-3.6,2.4-5.6,0.8c-3.6-2.4-7.6-3.6-11.6-3.6c-11.2,0-20,9.2-20,20c0,11.2,9.2,20,20,20s20-9.2,20-20c0-2.4,1.6-4,4-4
	s4,1.6,4,4C344.4,152,331.6,164.8,316,164.8z"/>
<path d="M352.8,459.6H151.2c-11.2,0-20-4.4-24.4-12c-4.4-8-3.2-18,2.8-28L228,260.4c6.4-10,14.8-15.6,24-15.6l0,0
	c8.8,0,17.2,5.2,22.8,14.8l24.4,38.8L374,420c6.4,10,7.2,20,2.8,28C372.8,455.2,364,459.6,352.8,459.6z M252.4,252.4L252.4,252.4
	c-6.4,0-12.4,4.4-17.2,12l-98.4,159.2c-4.8,7.6-5.6,14.8-2.8,20s9.2,8,17.6,8h201.6c8.4,0,14.8-2.8,17.6-8s2-12.4-2.8-20L293.2,302
	l-24.4-38.8l0,0C264,256.4,258.4,252.4,252.4,252.4z"/>
<path d="M252,388.8c-8.8,0-16-7.6-16-16.4v-58.8c0-9.2,7.2-16.4,16-16.4s16,7.6,16,16.4v58.8C268,381.2,260.8,388.8,252,388.8z
	 M252,304.8c-4.4,0-8,4-8,8.4V372c0,4.8,3.6,8.4,8,8.4s8-4,8-8.4v-58.8C260,308.8,256.4,304.8,252,304.8z"/>
<path d="M251.2,427.6c-8.8,0-16-7.2-16-16s7.2-16,16-16s16,7.2,16,16S260,427.6,251.2,427.6z M251.2,403.6c-4.4,0-8,3.6-8,8
	s3.6,8,8,8s8-3.6,8-8S255.6,403.6,251.2,403.6z"/>
<g>
</g>
<g>
</g>
<g>
</g>
<g>
</g>
<g>
</g>
<g>
</g>
<g>
</g>
<g>
</g>
<g>
</g>
<g>
</g>
<g>
</g>
<g>
</g>
<g>
</g>
<g>
</g>
<g>
</g>
</svg>
