<?xml version="1.0" encoding="UTF-8" standalone="no"?>
<svg
   xmlns:dc="http://purl.org/dc/elements/1.1/"
   xmlns:cc="http://creativecommons.org/ns#"
   xmlns:rdf="http://www.w3.org/1999/02/22-rdf-syntax-ns#"
   xmlns:svg="http://www.w3.org/2000/svg"
   xmlns="http://www.w3.org/2000/svg"
   xmlns:sodipodi="http://sodipodi.sourceforge.net/DTD/sodipodi-0.dtd"
   xmlns:inkscape="http://www.inkscape.org/namespaces/inkscape"
   version="1.1"
   width="512"
   height="512"
   x="0"
   y="0"
   viewBox="0 0 512 512"
   style="enable-background:new 0 0 512 512"
   xml:space="preserve"
   class=""
   id="svg137"
   sodipodi:docname="like_outline.svg"
   inkscape:version="1.0.1 (c497b03c, 2020-09-10)"><metadata
     id="metadata143"><rdf:RDF><cc:Work
         rdf:about=""><dc:format>image/svg+xml</dc:format><dc:type
           rdf:resource="http://purl.org/dc/dcmitype/StillImage" /></cc:Work></rdf:RDF></metadata><defs
     id="defs141" /><sodipodi:namedview
     pagecolor="#ffffff"
     bordercolor="#666666"
     borderopacity="1"
     objecttolerance="10"
     gridtolerance="10"
     guidetolerance="10"
     inkscape:pageopacity="0"
     inkscape:pageshadow="2"
     inkscape:window-width="1299"
     inkscape:window-height="848"
     id="namedview139"
     showgrid="false"
     inkscape:snap-global="false"
     inkscape:zoom="0.71777344"
     inkscape:cx="256"
     inkscape:cy="256"
     inkscape:window-x="0"
     inkscape:window-y="23"
     inkscape:window-maximized="0"
     inkscape:current-layer="svg137"
     inkscape:document-rotation="0" /><g
     id="g135">
<g
   id="g103">
	<g
   id="g101">
		<path
   d="M511.812,167.165c-1.702-36.088-16.232-70.306-40.914-96.353c-25.567-26.981-59.251-41.993-94.847-42.272    c-34.009-0.257-63.948,12.15-88.992,36.905c-14.257,14.091-24.699,30.11-32.057,44.104c-7.358-13.994-17.8-30.013-32.057-44.104    c-25.047-24.754-55.004-37.158-88.993-36.905c-35.545,0.278-68.917,15.336-93.967,42.4C16.029,96.82,1.896,130.993,0.19,167.165    c-4.464,94.635,70.036,158.12,182.806,254.216c19.824,16.893,40.324,34.362,62.129,53.441l9.877,8.643l9.877-8.643    c23.121-20.23,44.813-38.641,65.789-56.445C442.411,323.538,516.232,260.884,511.812,167.165z M439.818,275.475    c-29.97,36.353-73.478,73.279-128.562,120.03c-18.057,15.325-36.642,31.099-56.253,48.129    c-18.29-15.892-35.664-30.698-52.55-45.087c-55.77-47.524-99.819-85.061-130.02-121.835    c-30.986-37.731-44.024-71.079-42.276-108.133c2.89-61.271,48.585-109.605,104.029-110.039c0.271-0.002,0.533-0.003,0.803-0.003    c57.965,0,87.525,49.314,100.005,78.802c3.424,8.09,11.278,13.318,20.007,13.318c8.729,0,16.583-5.228,20.007-13.318    c12.48-29.49,42.033-78.801,100.004-78.801c0.267,0,0.535,0.001,0.803,0.003c55.624,0.435,103.188,49.799,106.029,110.039    C483.57,205.158,470.609,238.125,439.818,275.475z"
   fill="#666666"
   data-original="#000000"
   class=""
   id="path99"
   style="" />
	</g>
</g>
<g
   id="g105">
</g>
<g
   id="g107">
</g>
<g
   id="g109">
</g>
<g
   id="g111">
</g>
<g
   id="g113">
</g>
<g
   id="g115">
</g>
<g
   id="g117">
</g>
<g
   id="g119">
</g>
<g
   id="g121">
</g>
<g
   id="g123">
</g>
<g
   id="g125">
</g>
<g
   id="g127">
</g>
<g
   id="g129">
</g>
<g
   id="g131">
</g>
<g
   id="g133">
</g>
</g><g
     id="g181"
     transform="matrix(0.91427104,0,0,0.91427104,21.946614,21.946661)">
<g
   id="g149">
	<g
   id="g147">
		<path
   d="M 511.812,167.165 C 510.11,131.077 495.58,96.859 470.898,70.812 445.331,43.831 411.647,28.819 376.051,28.54 342.042,28.283 312.103,40.69 287.059,65.445 272.802,79.536 262.36,95.555 255.002,109.549 247.644,95.555 237.202,79.536 222.945,65.445 197.898,40.691 167.941,28.287 133.952,28.54 98.407,28.818 65.035,43.876 39.985,70.94 16.029,96.82 1.896,130.993 0.19,167.165 c -4.464,94.635 70.036,158.12 182.806,254.216 19.824,16.893 40.324,34.362 62.129,53.441 l 9.877,8.643 9.877,-8.643 C 288,454.592 309.692,436.181 330.668,418.377 442.411,323.538 516.232,260.884 511.812,167.165 Z m -71.994,108.31 c -29.97,36.353 -73.478,73.279 -128.562,120.03 -18.057,15.325 -36.642,31.099 -56.253,48.129 -18.29,-15.892 -35.664,-30.698 -52.55,-45.087 C 146.683,351.023 102.634,313.486 72.433,276.712 41.447,238.981 28.409,205.633 30.157,168.579 33.047,107.308 78.742,58.974 134.186,58.54 c 0.271,-0.002 0.533,-0.003 0.803,-0.003 57.965,0 87.525,49.314 100.005,78.802 3.424,8.09 11.278,13.318 20.007,13.318 8.729,0 16.583,-5.228 20.007,-13.318 12.48,-29.49 42.033,-78.801 100.004,-78.801 0.267,0 0.535,0.001 0.803,0.003 55.624,0.435 103.188,49.799 106.029,110.039 1.726,36.578 -11.235,69.545 -42.026,106.895 z"
   fill="#666666"
   data-original="#000000"
   class=""
   id="path145" />
	</g>
</g>
<g
   id="g151">
</g>
<g
   id="g153">
</g>
<g
   id="g155">
</g>
<g
   id="g157">
</g>
<g
   id="g159">
</g>
<g
   id="g161">
</g>
<g
   id="g163">
</g>
<g
   id="g165">
</g>
<g
   id="g167">
</g>
<g
   id="g169">
</g>
<g
   id="g171">
</g>
<g
   id="g173">
</g>
<g
   id="g175">
</g>
<g
   id="g177">
</g>
<g
   id="g179">
</g>
</g></svg>