<svg id="Capa_1" enable-background="new 0 0 512 512" height="512" viewBox="0 0 512 512" width="512" xmlns="http://www.w3.org/2000/svg"><g><path d="m406 0h-300c-24.813 0-45 20.187-45 45v422c0 24.813 20.187 45 45 45h300c24.813 0 45-20.187 45-45v-422c0-24.813-20.187-45-45-45z" fill="#00429b"/><path d="m91 192h150v130h-150z" fill="#fff16b"/><path d="m91 467v-115h150v130h-135c-8.271 0-15-6.729-15-15z" fill="#fff16b"/><path d="m406 0h-150v512h150c24.813 0 45-20.187 45-45v-422c0-24.813-20.187-45-45-45z" fill="#002659"/><path d="m106 30h300c8.271 0 15 6.729 15 15v117h-165-165v-117c0-8.271 6.729-15 15-15z" fill="#d8f1fb"/><path d="m406 30h-150v132h165v-117c0-8.271-6.729-15-15-15z" fill="#9ddff6"/><path d="m271 192h150v130h-150z" fill="#ffb454"/><path d="m421 467c0 8.271-6.729 15-15 15h-135v-130h150z" fill="#ff405c"/><path d="m376 272h-60c-8.284 0-15-6.716-15-15s6.716-15 15-15h60c8.284 0 15 6.716 15 15s-6.716 15-15 15z" fill="#002659"/><path d="m376 462h-60c-8.284 0-15-6.716-15-15s6.716-15 15-15h60c8.284 0 15 6.716 15 15s-6.716 15-15 15z" fill="#ffb454"/><path d="m376 402h-60c-8.284 0-15-6.716-15-15s6.716-15 15-15h60c8.284 0 15 6.716 15 15s-6.716 15-15 15z" fill="#ffb454"/><g fill="#00429b"><path d="m196 242h-15v-15c0-8.284-6.716-15-15-15s-15 6.716-15 15v15h-15c-8.284 0-15 6.716-15 15s6.716 15 15 15h15v15c0 8.284 6.716 15 15 15s15-6.716 15-15v-15h15c8.284 0 15-6.716 15-15s-6.716-15-15-15z"/><path d="m187.213 417 10.606-10.606c5.858-5.857 5.858-15.355 0-21.213-5.857-5.857-15.355-5.857-21.213 0l-10.606 10.606-10.606-10.606c-5.857-5.857-15.355-5.857-21.213 0s-5.858 15.355 0 21.213l10.606 10.606-10.606 10.606c-5.858 5.857-5.858 15.355 0 21.213 2.929 2.929 6.768 4.394 10.606 4.394s7.678-1.465 10.606-4.394l10.607-10.606 10.606 10.606c2.929 2.929 6.768 4.394 10.606 4.394s7.678-1.465 10.606-4.394c5.858-5.857 5.858-15.355 0-21.213z"/></g></g></svg>