<svg xmlns="http://www.w3.org/2000/svg" xmlns:xlink="http://www.w3.org/1999/xlink" width="512" height="512" viewBox="0 0 512 512"><defs><clipPath id="b"><rect width="512" height="512"/></clipPath></defs><g id="a" clip-path="url(#b)"><rect width="512" height="512" fill="#fff"/><g transform="translate(50.941 43.941)"><g transform="translate(145.725)"><path d="M338.165,216.242a107.068,107.068,0,0,1-92.342-52.218,103,103,0,0,0-55.55-44.487,12.235,12.235,0,0,1-7.72-15.4c1.994-6.054,6.945-7.837,11.744-9.561,9.961-3.6,33.295-12.025,51.444-42.211C265.169,20.038,287.413,0,338.165,0a108.121,108.121,0,0,1,0,216.242Z" transform="translate(-181.952)" fill="#ebdadb"/></g><path d="M485.121,108.121A108.24,108.24,0,0,0,377,0V216.242A108.24,108.24,0,0,0,485.121,108.121Z" transform="translate(-75.062)" fill="#ebdadb"/><g transform="translate(0 193.817)"><path d="M108.121,458.242a108.121,108.121,0,1,1,0-216.242,107.026,107.026,0,0,1,92.423,52.371,101.957,101.957,0,0,0,55.163,44.217,12.284,12.284,0,0,1,8.4,11.462,11.922,11.922,0,0,1-8.025,11.462,103.051,103.051,0,0,0-55.621,44.511A107.067,107.067,0,0,1,108.121,458.242Z" transform="translate(0 -242)" fill="#ebdadb"/></g><path d="M227.342,406.023a103.051,103.051,0,0,1,55.621-44.511,11.922,11.922,0,0,0,8.025-11.462,12.284,12.284,0,0,0-8.4-11.462,101.957,101.957,0,0,1-55.163-44.217A107.029,107.029,0,0,0,135,242V458.242a107.068,107.068,0,0,0,92.342-52.218Z" transform="translate(-26.879 -48.183)" fill="#ebdadb"/><g transform="translate(24.027)" opacity="0.499"><path d="M78.054,96.107a48.054,48.054,0,1,1,48.054-48.054A48.1,48.1,0,0,1,78.054,96.107Z" transform="translate(-30)" fill="#ffe6b3"/></g><g transform="translate(0 96.107)"><path d="M132.148,192.081H12.013A12.007,12.007,0,0,1,0,180.067,60.137,60.137,0,0,1,60.067,120H84.094a60.137,60.137,0,0,1,60.067,60.067A12.007,12.007,0,0,1,132.148,192.081Z" transform="translate(0 -120)" fill="#ebdadb"/></g><g transform="translate(252.43 70.626)"><path d="M352.679,161.719a11.972,11.972,0,0,1-8.494-3.52L318.7,132.718a12.012,12.012,0,1,1,16.988-16.988l16.987,16.988L393.694,91.7a12.012,12.012,0,0,1,16.988,16.988L361.173,158.2a11.975,11.975,0,0,1-8.494,3.52Z" transform="translate(-315.185 -88.184)" fill="#474f54"/></g><g transform="translate(72.081 241.87)"><path d="M162.081,338.04a36.087,36.087,0,0,1-23.787,33.877c0,6.728-5.525,13.216-12.254,13.216-6.488,0-12.013-4.325-12.013-11.053,0-10.09,4.565-18.5,12.013-22.826a21.416,21.416,0,0,1,4.084-1.923,12.011,12.011,0,1,0-16.1-11.292,12.013,12.013,0,1,1-24.027,0,36.04,36.04,0,1,1,72.081,0Z" transform="translate(-90 -301.999)" fill="#474f54"/></g><g transform="translate(96.224 338.061)"><circle cx="12" cy="12" r="12" transform="translate(-0.165 -0.003)" fill="#474f54"/></g><path d="M147.013,434.013A12.014,12.014,0,0,0,135,422v24.027A12.014,12.014,0,0,0,147.013,434.013Z" transform="translate(-26.879 -84.022)" fill="#32393f"/><path d="M171.04,338.04a36.087,36.087,0,0,1-23.787,33.877c0,6.728-5.525,13.216-12.254,13.216V351.255a21.415,21.415,0,0,1,4.084-1.923A12.01,12.01,0,0,0,135,326.027V302a35.991,35.991,0,0,1,36.04,36.04Z" transform="translate(-26.879 -60.13)" fill="#32393f"/><path d="M90,120v72.081h60.067a12.007,12.007,0,0,0,12.013-12.013A60.137,60.137,0,0,0,102.013,120Z" transform="translate(-17.919 -23.893)" fill="#9a2427"/><path d="M138.054,48.054A48.1,48.1,0,0,0,90,0V96.107A48.1,48.1,0,0,0,138.054,48.054Z" transform="translate(-17.919)" fill="#ffca80" opacity="0.502"/><g transform="translate(289.924 241.87)" opacity="0.5"><path d="M410.054,398.107a48.054,48.054,0,1,1,48.054-48.054A48.1,48.1,0,0,1,410.054,398.107Z" transform="translate(-362 -302)" fill="#ffe6b3"/></g><g transform="translate(265.897 337.978)"><path d="M464.148,494.081H344.013A12.007,12.007,0,0,1,332,482.067,60.137,60.137,0,0,1,392.067,422h24.027a60.137,60.137,0,0,1,60.067,60.067A12.007,12.007,0,0,1,464.148,494.081Z" transform="translate(-332 -422)" fill="#ebdadb"/></g><path d="M422,422v72.081h60.067a12.007,12.007,0,0,0,12.013-12.013A60.137,60.137,0,0,0,434.013,422Z" transform="translate(-84.022 -84.022)" fill="#9a2427"/><path d="M470.054,350.054A48.1,48.1,0,0,0,422,302v96.107A48.1,48.1,0,0,0,470.054,350.054Z" transform="translate(-84.022 -60.13)" fill="#ffca80" opacity="0.505"/><path d="M377,154.68l45.989-45.989A12.012,12.012,0,0,0,406,91.7l-29,29Z" transform="translate(-75.062 -17.558)" fill="#32393f"/></g></g></svg>