<svg height="512" viewBox="0 0 64 64" width="512" xmlns="http://www.w3.org/2000/svg"><g id="flat"><path d="m43 18.459v-14.459h-6v14.459a10 10 0 1 0 6 0z" fill="#cc3e3e"/><path d="m45.219 25.521a4 4 0 0 1 -4.438 0l-1.724-1.15a4 4 0 0 0 -4.2-.144l-4.795 2.739a10 10 0 1 0 19.938 1.034 9.941 9.941 0 0 0 -1.251-4.833z" fill="#ea4747"/><path d="m20 40.807v-9.807h-10v9.807a.985.985 0 0 1 -.072.372l-7.379 18.45a1 1 0 0 0 .928 1.371h23.046a1 1 0 0 0 .928-1.371l-7.379-18.45a.985.985 0 0 1 -.072-.372z" fill="#1493cc"/><path d="m27 57v-55h-2v55h-6v4h14v-4z" fill="#dd7b58"/><path d="m26.52 61h-23.04a1 1 0 0 1 -.93-1.37l4.25-10.63h.2l4.04-2.02a4 4 0 0 1 3.84.15l.81.49a4.026 4.026 0 0 0 4.46-.23l1.85-1.39 3 7.5 2.45 6.13a1 1 0 0 1 -.93 1.37z" fill="#3cb8ef"/><path d="m7 30h16v2h-16z" fill="#3cb8ef"/><path d="m59 31v26a4 4 0 0 1 -4 4h-14a4 4 0 0 1 -4-4v-26z" fill="#e6af00"/><path d="m55 61h-14a3.935 3.935 0 0 1 -4-4v-7l5.418-2.955a4 4 0 0 1 3.831 0l3.5 1.91a4 4 0 0 0 3.831 0l5.42-2.955v11a3.935 3.935 0 0 1 -4 4z" fill="#ffc200"/><path d="m22 7h25v4h-25z" fill="#bc6549"/><path d="m7 56h2v2h-2z" fill="#1493cc"/><path d="m9 52h2v2h-2z" fill="#1493cc"/><path d="m14 52h2v2h-2z" fill="#1493cc"/><path d="m19 52h2v2h-2z" fill="#1493cc"/><g fill="#e6af00"><path d="m40 56h2v2h-2z"/><path d="m44 56h11v2h-11z"/><path d="m42 52h2v2h-2z"/><path d="m47 52h2v2h-2z"/><path d="m52 52h2v2h-2z"/></g><circle cx="20" cy="18" fill="#2f9bcc" r="2"/><circle cx="12" cy="24" fill="#2f9bcc" r="2"/><circle cx="52" cy="16" fill="#e6af00" r="2"/><circle cx="56" cy="24" fill="#e6af00" r="2"/><path d="m49.54 31a10.011 10.011 0 0 1 -9.54 7 9.908 9.908 0 0 1 -3-.46v-6.54z" fill="#e6c65a"/><path d="m34 30h28v2h-28z" fill="#ffc200"/><path d="m26.52 61h-7.52v-4h6v-3.5l2.45 6.13a1 1 0 0 1 -.93 1.37z" fill="#339dcc"/><path d="m12 56h11v2h-11z" fill="#1493cc"/></g></svg>