<?xml version="1.0" encoding="UTF-8" standalone="no"?>
<svg
   xmlns:dc="http://purl.org/dc/elements/1.1/"
   xmlns:cc="http://creativecommons.org/ns#"
   xmlns:rdf="http://www.w3.org/1999/02/22-rdf-syntax-ns#"
   xmlns:svg="http://www.w3.org/2000/svg"
   xmlns="http://www.w3.org/2000/svg"
   xmlns:sodipodi="http://sodipodi.sourceforge.net/DTD/sodipodi-0.dtd"
   xmlns:inkscape="http://www.inkscape.org/namespaces/inkscape"
   width="200mm"
   height="200mm"
   viewBox="0 0 200 200"
   version="1.1"
   id="svg8"
   inkscape:version="1.0.1 (c497b03c, 2020-09-10)"
   sodipodi:docname="stars_4.svg">
  <defs
     id="defs2" />
  <sodipodi:namedview
     id="base"
     pagecolor="#ffffff"
     bordercolor="#666666"
     borderopacity="1.0"
     inkscape:pageopacity="0.0"
     inkscape:pageshadow="2"
     inkscape:zoom="0.49497475"
     inkscape:cx="393.57143"
     inkscape:cy="425"
     inkscape:document-units="mm"
     inkscape:current-layer="layer5"
     inkscape:document-rotation="0"
     showgrid="false"
     inkscape:snap-global="false"
     inkscape:window-width="1252"
     inkscape:window-height="943"
     inkscape:window-x="511"
     inkscape:window-y="23"
     inkscape:window-maximized="0" />
  <metadata
     id="metadata5">
    <rdf:RDF>
      <cc:Work
         rdf:about="">
        <dc:format>image/svg+xml</dc:format>
        <dc:type
           rdf:resource="http://purl.org/dc/dcmitype/StillImage" />
        <dc:title />
      </cc:Work>
    </rdf:RDF>
  </metadata>
  <g
     inkscape:groupmode="layer"
     id="layer5"
     inkscape:label="Layer 4"
     style="display:inline">
    <path
       style="fill:#ffffff;stroke:none;stroke-width:0.0390532px;stroke-linecap:butt;stroke-linejoin:miter;stroke-opacity:1"
       d="m 109.13857,35.846141 c 0,0 2.65085,4.897621 4.49186,5.442914 1.68048,0.497741 4.9927,-2.40923 4.9927,-2.40923 0,0 -4.10934,2.744113 -4.1245,3.918253 -0.0211,1.632421 2.84231,5.60212 2.84231,5.60212 0,0 -2.48526,-4.312178 -3.93816,-4.838443 -1.24411,-0.45063 -6.3306,3.306379 -6.3306,3.306379 0,0 5.41414,-3.403653 5.34802,-4.703386 -0.0744,-1.461745 -3.28163,-6.318607 -3.28163,-6.318607 z"
       id="use1490"
       sodipodi:nodetypes="cscscscsc" />
    <path
       style="fill:#ffffff;stroke:none;stroke-width:0.039237px;stroke-linecap:butt;stroke-linejoin:miter;stroke-opacity:1"
       d="m 36.1434,178.27449 c 0,0 -3.006434,4.71887 -2.586436,6.6017 0.38338,1.71866 4.553126,3.2079 4.553126,3.2079 0,0 -4.415911,-2.26871 -5.454334,-1.70878 -1.443735,0.77848 -3.531584,5.23095 -3.531584,5.23095 0,0 2.573195,-4.28764 2.325972,-5.82038 -0.2117,-1.31247 -5.994108,-3.94469 -5.994108,-3.94469 0,0 5.632088,3.09245 6.741114,2.39983 1.247253,-0.77898 3.94625,-5.96653 3.94625,-5.96653 z"
       id="use1496"
       sodipodi:nodetypes="cscscscsc" />
    <path
       style="fill:#ffffff;stroke:none;stroke-width:0.039503px;stroke-linecap:butt;stroke-linejoin:miter;stroke-opacity:1"
       d="m 19.630276,149.84092 c 0,0 -3.315596,-4.55402 -5.234567,-4.85338 -1.751645,-0.27326 -4.6818185,3.08613 -4.6818185,3.08613 0,0 3.7512075,-3.3032 3.6086645,-4.48238 -0.19817,-1.63943 -3.6021862,-5.23461 -3.6021862,-5.23461 0,0 3.0709272,3.98934 4.5982422,4.32176 1.307835,0.28464 5.902605,-4.16531 5.902605,-4.16531 0,0 -4.970733,4.13972 -4.729828,5.43389 0.270948,1.45549 4.138888,5.8939 4.138888,5.8939 z"
       id="use1443"
       sodipodi:nodetypes="cscscscsc" />
    <path
       style="fill:#ffffff;stroke:none;stroke-width:0.0395034px;stroke-linecap:butt;stroke-linejoin:miter;stroke-opacity:1"
       d="m 51.057276,127.75686 c 0,0 -3.574079,-4.35419 -5.507199,-4.54179 -1.764559,-0.17125 -4.49507,3.3524 -4.49507,3.3524 0,0 3.553431,-3.51515 3.342761,-4.6841 -0.292887,-1.6252 -3.899648,-5.01702 -3.899648,-5.01702 0,0 3.297081,3.80463 4.841116,4.04795 1.322151,0.20834 5.651249,-4.50056 5.651249,-4.50056 0,0 -4.722419,4.42098 -4.406885,5.69902 0.354878,1.43735 4.473676,5.6441 4.473676,5.6441 z"
       id="use1449"
       sodipodi:nodetypes="cscscscsc" />
  </g>
</svg>
