<?xml version="1.0" encoding="UTF-8" standalone="no"?>
<svg
   xmlns:dc="http://purl.org/dc/elements/1.1/"
   xmlns:cc="http://creativecommons.org/ns#"
   xmlns:rdf="http://www.w3.org/1999/02/22-rdf-syntax-ns#"
   xmlns:svg="http://www.w3.org/2000/svg"
   xmlns="http://www.w3.org/2000/svg"
   xmlns:xlink="http://www.w3.org/1999/xlink"
   xmlns:sodipodi="http://sodipodi.sourceforge.net/DTD/sodipodi-0.dtd"
   xmlns:inkscape="http://www.inkscape.org/namespaces/inkscape"
   width="200mm"
   height="200mm"
   viewBox="0 0 200 200"
   version="1.1"
   id="svg8"
   inkscape:version="1.0.1 (c497b03c, 2020-09-10)"
   sodipodi:docname="stars_2.svg">
  <defs
     id="defs2" />
  <sodipodi:namedview
     id="base"
     pagecolor="#ffffff"
     bordercolor="#666666"
     borderopacity="1.0"
     inkscape:pageopacity="0.0"
     inkscape:pageshadow="2"
     inkscape:zoom="0.49497475"
     inkscape:cx="393.57143"
     inkscape:cy="425"
     inkscape:document-units="mm"
     inkscape:current-layer="layer3"
     inkscape:document-rotation="0"
     showgrid="false"
     inkscape:snap-global="false"
     inkscape:window-width="1252"
     inkscape:window-height="943"
     inkscape:window-x="511"
     inkscape:window-y="23"
     inkscape:window-maximized="0" />
  <metadata
     id="metadata5">
    <rdf:RDF>
      <cc:Work
         rdf:about="">
        <dc:format>image/svg+xml</dc:format>
        <dc:type
           rdf:resource="http://purl.org/dc/dcmitype/StillImage" />
        <dc:title />
      </cc:Work>
    </rdf:RDF>
  </metadata>
  <g
     inkscape:groupmode="layer"
     id="layer3"
     inkscape:label="Layer 2"
     style="display:inline">
    <path
       style="fill:#ffffff;stroke:none;stroke-width:0.0393057px;stroke-linecap:butt;stroke-linejoin:miter;stroke-opacity:1"
       d="m 57.368591,66.034113 c 0,0 -5.333907,-1.722086 -7.052944,-0.839245 -1.569141,0.805863 -1.959252,5.224141 -1.959252,5.224141 0,0 1.083505,-4.853839 0.278362,-5.718981 -1.119396,-1.202822 -5.962981,-2.101769 -5.962981,-2.101769 0,0 4.806426,1.411071 6.229748,0.784166 1.218777,-0.536818 2.309409,-6.807139 2.309409,-6.807139 0,0 -1.57474,6.240885 -0.623135,7.140943 1.070241,1.012232 6.780793,2.317884 6.780793,2.317884 z"
       id="use1488"
       sodipodi:nodetypes="cscscscsc" />
    <path
       style="fill:#ffffff;stroke:none;stroke-width:0.0390567px;stroke-linecap:butt;stroke-linejoin:miter;stroke-opacity:1"
       d="m 159.52564,54.369647 c 0,0 -2.94978,4.724206 -2.51469,6.594507 0.39716,1.707214 4.56106,3.151811 4.56106,3.151811 0,0 -4.41598,-2.218222 -5.44452,-1.651487 -1.43,0.787935 -3.46787,5.238665 -3.46787,5.238665 0,0 2.52246,-4.291054 2.26251,-5.814448 -0.2226,-1.304469 -6.00203,-3.872153 -6.00203,-3.872153 0,0 5.63398,3.027138 6.73159,2.32769 1.23442,-0.786657 3.87395,-5.974585 3.87395,-5.974585 z"
       id="use1494"
       sodipodi:nodetypes="cscscscsc" />
    <path
       style="fill:#ffffff;stroke:none;stroke-width:0.039122px;stroke-linecap:butt;stroke-linejoin:miter;stroke-opacity:1"
       d="m 4.8264321,101.51003 c 0,0 -2.3026985,5.0814 -1.6228606,6.8807 0.6205621,1.64241 4.9461884,2.52491 4.9461884,2.52491 0,0 -4.6784262,-1.61721 -5.6245271,-0.91821 -1.3153791,0.97181 -2.7489082,5.66084 -2.7489082,5.66084 0,0 1.9358201,-4.59471 1.4758472,-6.07279 -0.39387616,-1.26566 -6.4723389,-3.04915 -6.4723389,-3.04915 0,0 5.99492936,2.25894 6.9920253,1.41903 1.1213674,-0.94463 3.0545739,-6.44533 3.0545739,-6.44533 z"
       id="use1498"
       sodipodi:nodetypes="cscscscsc" />
    <path
       style="fill:#ffffff;stroke:none;stroke-width:0.0388944px;stroke-linecap:butt;stroke-linejoin:miter;stroke-opacity:1"
       d="m 19.395722,40.289119 c 0,0 -2.445904,-4.977911 -4.256615,-5.592784 -1.652824,-0.561253 -5.063061,2.201724 -5.063061,2.201724 0,0 4.19711,-2.569638 4.258254,-3.737503 0.08501,-1.623696 -2.608805,-5.686512 -2.608805,-5.686512 0,0 2.304084,4.388805 3.729309,4.969516 1.22041,0.497254 6.429668,-3.04205 6.429668,-3.04205 0,0 -5.521459,3.174804 -5.506645,4.470843 0.01669,1.45759 3.017895,6.416766 3.017895,6.416766 z"
       id="use1502"
       sodipodi:nodetypes="cscscscsc" />
    <path
       style="fill:#ffffff;stroke:none;stroke-width:0.0393587px;stroke-linecap:butt;stroke-linejoin:miter;stroke-opacity:1"
       d="m 79.863033,123.62463 c 0,0 5.594937,-0.44452 6.848615,-1.91858 1.144359,-1.34553 -0.183059,-5.58398 -0.183059,-5.58398 0,0 0.852096,4.90657 1.927923,5.39961 1.495733,0.68549 6.32228,-0.3335 6.32228,-0.3335 0,0 -4.987868,0.53079 -6.065654,1.65496 -0.922894,0.96263 0.463927,7.18295 0.463927,7.18295 0,0 -0.927504,-6.37809 -2.152232,-6.84747 -1.377402,-0.52788 -7.1618,0.44601 -7.1618,0.44601 z"
       id="use1512"
       sodipodi:nodetypes="cscscscsc" />
    <path
       style="fill:#ffffff;stroke:none;stroke-width:0.0394165px;stroke-linecap:butt;stroke-linejoin:miter;stroke-opacity:1"
       d="m 51.317756,15.651664 c 0,0 -1.137997,5.504392 -0.07133,7.122349 0.97366,1.476874 5.420698,1.386345 5.420698,1.386345 0,0 -4.956504,-0.553472 -5.73162,0.343078 -1.077658,1.24648 -1.448251,6.172734 -1.448251,6.172734 0,0 0.885176,-4.944782 0.105748,-6.295705 -0.667422,-1.15678 -7.03683,-1.56365 -7.03683,-1.56365 0,0 6.392594,0.892684 7.186626,-0.153666 0.892987,-1.176794 1.574959,-7.011485 1.574959,-7.011485 z"
       id="use1514"
       sodipodi:nodetypes="cscscscsc" />
    <use
       id="use1455"
       inkscape:spray-origin="#path852"
       xlink:href="#use1512"
       transform="matrix(0.99512742,-0.12665209,0.12665209,0.99512742,40.858252,-77.599487)"
       x="0"
       y="0"
       width="100%"
       height="100%" />
  </g>
</svg>
