<?xml version="1.0" encoding="UTF-8" standalone="no"?>
<svg
   xmlns:dc="http://purl.org/dc/elements/1.1/"
   xmlns:cc="http://creativecommons.org/ns#"
   xmlns:rdf="http://www.w3.org/1999/02/22-rdf-syntax-ns#"
   xmlns:svg="http://www.w3.org/2000/svg"
   xmlns="http://www.w3.org/2000/svg"
   xmlns:sodipodi="http://sodipodi.sourceforge.net/DTD/sodipodi-0.dtd"
   xmlns:inkscape="http://www.inkscape.org/namespaces/inkscape"
   version="1.1"
   id="Capa_1"
   x="0px"
   y="0px"
   viewBox="0 0 512.001 512.001"
   style="enable-background:new 0 0 512.001 512.001;"
   xml:space="preserve"
   sodipodi:docname="star.svg"
   inkscape:version="1.0.1 (c497b03c, 2020-09-10)"><metadata
   id="metadata1483"><rdf:RDF><cc:Work
       rdf:about=""><dc:format>image/svg+xml</dc:format><dc:type
         rdf:resource="http://purl.org/dc/dcmitype/StillImage" /></cc:Work></rdf:RDF></metadata><defs
   id="defs1481" /><sodipodi:namedview
   pagecolor="#ffffff"
   bordercolor="#666666"
   borderopacity="1"
   objecttolerance="10"
   gridtolerance="10"
   guidetolerance="10"
   inkscape:pageopacity="0"
   inkscape:pageshadow="2"
   inkscape:window-width="1440"
   inkscape:window-height="775"
   id="namedview1479"
   showgrid="false"
   inkscape:zoom="0.40741426"
   inkscape:cx="256.00049"
   inkscape:cy="256.00049"
   inkscape:window-x="0"
   inkscape:window-y="23"
   inkscape:window-maximized="0"
   inkscape:current-layer="Capa_1" />
<path
   style="fill:#ffcc5b;fill-opacity:1"
   d="M499.92,188.26l-165.839-15.381L268.205,19.91c-4.612-10.711-19.799-10.711-24.411,0l-65.875,152.97  L12.08,188.26c-11.612,1.077-16.305,15.52-7.544,23.216l125.126,109.922L93.044,483.874c-2.564,11.376,9.722,20.302,19.749,14.348  L256,413.188l143.207,85.034c10.027,5.954,22.314-2.972,19.75-14.348l-36.619-162.476l125.126-109.922  C516.225,203.78,511.532,189.337,499.92,188.26z"
   id="path1444" />
<path
   style="fill:#ffb835;fill-opacity:1"
   d="M268.205,19.91c-4.612-10.711-19.799-10.711-24.411,0l-65.875,152.97L12.08,188.26  c-11.612,1.077-16.305,15.52-7.544,23.216l125.126,109.922L93.044,483.874c-2.564,11.376,9.722,20.302,19.749,14.348l31.963-18.979  c4.424-182.101,89.034-310.338,156.022-383.697L268.205,19.91z"
   id="path1446" />
<g
   id="g1448">
</g>
<g
   id="g1450">
</g>
<g
   id="g1452">
</g>
<g
   id="g1454">
</g>
<g
   id="g1456">
</g>
<g
   id="g1458">
</g>
<g
   id="g1460">
</g>
<g
   id="g1462">
</g>
<g
   id="g1464">
</g>
<g
   id="g1466">
</g>
<g
   id="g1468">
</g>
<g
   id="g1470">
</g>
<g
   id="g1472">
</g>
<g
   id="g1474">
</g>
<g
   id="g1476">
</g>
</svg>
