<?xml version="1.0" encoding="UTF-8" standalone="no"?>
<svg
   xmlns:dc="http://purl.org/dc/elements/1.1/"
   xmlns:cc="http://creativecommons.org/ns#"
   xmlns:rdf="http://www.w3.org/1999/02/22-rdf-syntax-ns#"
   xmlns:svg="http://www.w3.org/2000/svg"
   xmlns="http://www.w3.org/2000/svg"
   xmlns:sodipodi="http://sodipodi.sourceforge.net/DTD/sodipodi-0.dtd"
   xmlns:inkscape="http://www.inkscape.org/namespaces/inkscape"
   width="200mm"
   height="200mm"
   viewBox="0 0 200 200"
   version="1.1"
   id="svg8"
   inkscape:version="1.0.1 (c497b03c, 2020-09-10)"
   sodipodi:docname="stars_1.svg">
  <defs
     id="defs2" />
  <sodipodi:namedview
     id="base"
     pagecolor="#ffffff"
     bordercolor="#666666"
     borderopacity="1.0"
     inkscape:pageopacity="0.0"
     inkscape:pageshadow="2"
     inkscape:zoom="0.49497475"
     inkscape:cx="393.57143"
     inkscape:cy="425"
     inkscape:document-units="mm"
     inkscape:current-layer="layer1"
     inkscape:document-rotation="0"
     showgrid="false"
     inkscape:snap-global="false"
     inkscape:window-width="1252"
     inkscape:window-height="943"
     inkscape:window-x="511"
     inkscape:window-y="23"
     inkscape:window-maximized="0" />
  <metadata
     id="metadata5">
    <rdf:RDF>
      <cc:Work
         rdf:about="">
        <dc:format>image/svg+xml</dc:format>
        <dc:type
           rdf:resource="http://purl.org/dc/dcmitype/StillImage" />
        <dc:title />
      </cc:Work>
    </rdf:RDF>
  </metadata>
  <g
     inkscape:label="Layer 1"
     inkscape:groupmode="layer"
     id="layer1">
    <path
       style="fill:#ffffff;stroke:none;stroke-width:0.0390372px;stroke-linecap:butt;stroke-linejoin:miter;stroke-opacity:1"
       d="m 146.17042,58.785263 c 0,0 2.21736,-5.106029 1.51074,-6.890494 -0.64501,-1.628863 -4.97462,-2.441195 -4.97462,-2.441195 0,0 4.69317,1.539792 5.62609,0.827497 1.29706,-0.990308 2.65343,-5.691173 2.65343,-5.691173 0,0 -1.859,4.614674 -1.3768,6.082117 0.41292,1.256558 6.50554,2.9402 6.50554,2.9402 0,0 -6.01677,-2.15932 -6.99835,-1.305626 -1.10392,0.960127 -2.94603,6.478674 -2.94603,6.478674 z"
       id="use1492"
       sodipodi:nodetypes="cscscscsc" />
    <path
       style="fill:#ffffff;stroke:none;stroke-width:0.0389531px;stroke-linecap:butt;stroke-linejoin:miter;stroke-opacity:1"
       d="m 111.98269,59.328743 c 0,0 -2.87149,4.754938 -2.40983,6.613608 0.4214,1.696598 4.59523,3.07538 4.59523,3.07538 0,0 -4.43669,-2.146527 -5.45398,-1.566087 -1.41434,0.806986 -3.3805,5.275666 -3.3805,5.275666 0,0 2.45178,-4.31664 2.16993,-5.831963 -0.24135,-1.297556 -6.04292,-3.772336 -6.04292,-3.772336 0,0 5.66334,2.935123 6.74753,2.221313 1.21933,-0.802809 3.77454,-6.015581 3.77454,-6.015581 z"
       id="use1504"
       sodipodi:nodetypes="cscscscsc" />
    <path
       style="fill:#ffffff;stroke:none;stroke-width:0.0390126px;stroke-linecap:butt;stroke-linejoin:miter;stroke-opacity:1"
       d="m 186.86271,137.02015 c 0,0 4.87532,-2.67965 5.40815,-4.52223 0.48637,-1.68192 -2.4389,-4.97187 -2.4389,-4.97187 0,0 2.76773,4.08728 3.94072,4.09484 1.63083,0.0105 5.57784,-2.87546 5.57784,-2.87546 0,0 -4.29157,2.51047 -4.80789,3.96522 -0.44213,1.2457 3.34374,6.30255 3.34374,6.30255 0,0 -3.435,-5.38643 -4.73293,-5.31199 -1.45972,0.0837 -6.29073,3.31894 -6.29073,3.31894 z"
       id="use1508"
       sodipodi:nodetypes="cscscscsc" />
    <path
       style="fill:#ffffff;stroke:none;stroke-width:0.0390146px;stroke-linecap:butt;stroke-linejoin:miter;stroke-opacity:1"
       d="m 99.076246,197.11847 c 0,0 5.058044,-2.31702 5.723894,-4.11592 0.60778,-1.64204 -2.06986,-5.13678 -2.06986,-5.13678 0,0 2.46235,4.27849 3.63173,4.3716 1.6258,0.12945 5.77301,-2.46107 5.77301,-2.46107 0,0 -4.46348,2.19085 -5.08457,3.60414 -0.53184,1.2102 2.87526,6.52999 2.87526,6.52999 0,0 -3.03311,-5.62292 -4.33307,-5.64335 -1.46201,-0.023 -6.516394,2.85139 -6.516394,2.85139 z"
       id="use1510"
       sodipodi:nodetypes="cscscscsc" />
    <path
       style="fill:#ffffff;stroke:none;stroke-width:0.039305px;stroke-linecap:butt;stroke-linejoin:miter;stroke-opacity:1"
       d="m 37.20335,162.0423 c 0,0 5.498731,-1.08578 6.572439,-2.69249 0.980081,-1.46661 -0.825167,-5.518 -0.825167,-5.518 0,0 1.410752,4.76892 2.534757,5.13401 1.562715,0.50759 6.233021,-1.0595 6.233021,-1.0595 0,0 -4.886597,1.10141 -5.826153,2.34076 -0.80453,1.06126 1.288066,7.07174 1.288066,7.07174 0,0 -1.655153,-6.21992 -2.924136,-6.54438 -1.42717,-0.36487 -7.052827,1.26786 -7.052827,1.26786 z"
       id="use1445"
       sodipodi:nodetypes="cscscscsc" />
    <path
       style="fill:#ffffff;stroke:none;stroke-width:0.0391252px;stroke-linecap:butt;stroke-linejoin:miter;stroke-opacity:1"
       d="m 79.803053,83.335525 c 0,0 5.24608,1.899161 6.986962,1.080874 1.58908,-0.746939 2.131264,-5.128613 2.131264,-5.128613 0,0 -1.247161,4.790783 -0.476384,5.679504 1.071617,1.235604 5.858637,2.29881 5.858637,2.29881 0,0 -4.732193,-1.571368 -6.169972,-0.99737 -1.231155,0.491515 -2.534811,6.691158 -2.534811,6.691158 0,0 1.784217,-6.153476 0.868958,-7.08204 -1.029366,-1.044291 -6.664654,-2.542323 -6.664654,-2.542323 z"
       id="use1451"
       sodipodi:nodetypes="cscscscsc" />
  </g>
</svg>
