<?xml version="1.0" standalone="no"?>
<!DOCTYPE svg PUBLIC "-//W3C//DTD SVG 20010904//EN"
 "http://www.w3.org/TR/2001/REC-SVG-20010904/DTD/svg10.dtd">
<svg version="1.0" xmlns="http://www.w3.org/2000/svg"
 width="200.000000pt" height="200.000000pt" viewBox="0 0 200.000000 200.000000"
 preserveAspectRatio="xMidYMid meet">
<metadata>
Created by potrace 1.16, written by Peter Selinger 2001-2019
</metadata>
<g transform="translate(0.000000,200.000000) scale(0.100000,-0.100000)"
fill="#000000" stroke="none">
<path d="M1431 1376 c-32 -33 -23 -65 36 -127 l47 -50 -135 -135 c-73 -73
-139 -134 -145 -134 -6 0 -63 55 -127 121 -102 108 -118 121 -141 115 -31 -8
-736 -442 -754 -464 -6 -9 -12 -25 -12 -37 0 -27 39 -65 67 -65 15 0 631 372
678 410 6 5 63 -42 140 -115 92 -88 137 -124 154 -125 19 0 67 42 198 172
l173 172 53 -51 c64 -62 89 -71 116 -44 20 20 21 33 21 185 0 209 13 196 -195
196 -148 0 -152 -1 -174 -24z"/>
</g>
</svg>
