<?xml version="1.0" encoding="UTF-8" standalone="no"?>
<svg
   xmlns:dc="http://purl.org/dc/elements/1.1/"
   xmlns:cc="http://creativecommons.org/ns#"
   xmlns:rdf="http://www.w3.org/1999/02/22-rdf-syntax-ns#"
   xmlns:svg="http://www.w3.org/2000/svg"
   xmlns="http://www.w3.org/2000/svg"
   xmlns:sodipodi="http://sodipodi.sourceforge.net/DTD/sodipodi-0.dtd"
   xmlns:inkscape="http://www.inkscape.org/namespaces/inkscape"
   height="100px"
   width="100px"
   fill="#bdbdbd"
   viewBox="0 0 64 64"
   x="0px"
   y="0px"
   version="1.1"
   id="svg16"
   sodipodi:docname="write_answer.svg"
   inkscape:version="0.92.2 5c3e80d, 2017-08-06">
  <metadata
     id="metadata22">
    <rdf:RDF>
      <cc:Work
         rdf:about="">
        <dc:format>image/svg+xml</dc:format>
        <dc:type
           rdf:resource="http://purl.org/dc/dcmitype/StillImage" />
      </cc:Work>
    </rdf:RDF>
  </metadata>
  <defs
     id="defs20" />
  <sodipodi:namedview
     pagecolor="#ffffff"
     bordercolor="#666666"
     borderopacity="1"
     objecttolerance="10"
     gridtolerance="10"
     guidetolerance="10"
     inkscape:pageopacity="0"
     inkscape:pageshadow="2"
     inkscape:window-width="1350"
     inkscape:window-height="822"
     id="namedview18"
     showgrid="false"
     inkscape:zoom="2.36"
     inkscape:cx="-43.220339"
     inkscape:cy="16.101695"
     inkscape:window-x="0"
     inkscape:window-y="0"
     inkscape:window-maximized="0"
     inkscape:current-layer="svg16" />
  <title
     id="title2">Pen</title>
  <path
     inkscape:connector-curvature="0"
     id="path4"
     d="m 51.42,18.61 a 1.32,1.32 0 0 0 -0.34,-0.9 L 46.34,13 a 1.34,1.34 0 0 0 -1,-0.39 1.36,1.36 0 0 0 -1,0.39 L 25.37,32.05 a 1.33,1.33 0 0 0 0,1.9 l 4.68,4.68 a 1.33,1.33 0 0 0 1.9,0 L 51,19.56 a 1.36,1.36 0 0 0 0.42,-0.95 z"
     style="fill:#891010;fill-opacity:1" />
  <path
     inkscape:connector-curvature="0"
     id="path6"
     d="m 14.51,44.91 a 1.53,1.53 0 0 0 0,2.18 l 2.4,2.4 a 1.55,1.55 0 0 0 2.18,0 L 28.58,40 24,35.42 Z"
     style="fill:#891010;fill-opacity:1" />
  <path
     inkscape:connector-curvature="0"
     id="path8"
     d="m 13,48.42 a 3.43,3.43 0 0 1 -0.85,-1.56 10,10 0 0 0 -2.25,4 l -1.4,4.64 4.69,-1.41 a 10,10 0 0 0 4,-2.25 A 3.43,3.43 0 0 1 15.58,51 Z"
     style="fill:#891010;fill-opacity:1" />
  <path
     inkscape:connector-curvature="0"
     id="path10"
     d="m 54.84,9.26 a 2.6,2.6 0 0 0 -3.68,0 L 48.31,12.11 52,15.8 54.84,13 a 2.61,2.61 0 0 0 0,-3.74 z"
     style="fill:#891010;fill-opacity:1" />
  <path
     inkscape:connector-curvature="0"
     id="path12"
     d="m 52,21.41 -1,1 V 26.7 L 43.52,34.18 40.68,37 a 1,1 0 0 0 0.71,1.71 1,1 0 0 0 0.71,-0.3 L 52.7,27.81 A 1,1 0 0 0 53,27.1 v -6.87 a 3.35,3.35 0 0 1 -0.56,0.74 z"
     style="fill:#891010;fill-opacity:1" />
  <path
     style="fill:none;stroke:#891010;stroke-width:1.28;stroke-linecap:round;stroke-linejoin:miter;stroke-miterlimit:4;stroke-dasharray:none;stroke-opacity:1"
     d="m 18.169492,55.050847 h 43.38983"
     id="path834"
     inkscape:connector-curvature="0" />
</svg>
