<?xml version="1.0" encoding="utf-8"?>
<!-- Generator: Adobe Illustrator 19.0.0, SVG Export Plug-In . SVG Version: 6.00 Build 0)  -->
<svg version="1.1" id="Capa_1" xmlns="http://www.w3.org/2000/svg" xmlns:xlink="http://www.w3.org/1999/xlink" x="0px" y="0px"
	 viewBox="-139 51 512 512" style="enable-background:new -139 51 512 512;" xml:space="preserve">
<style type="text/css">
	.st0{fill:#C59191;}
	.st1{display:none;fill:#FFFFFF;}
	.st2{fill:#FFCEBF;}
	.st3{fill:#8795DE;}
	.st4{fill:#FFB09E;}
	.st5{fill:#7A6D79;}
	.st6{fill:#685E68;}
	.st7{fill:#B98080;}
	.st8{fill:#EFEDEF;}
	.st9{fill:#E5E1E5;}
	.st10{fill:#C9BFC8;}
</style>
<g>
	<g>
		<g>
			<path class="st0" d="M208.5,351.4h-183c-45.7,0-70.7-53.3-41.5-88.4l1.6-2c12.9-15.5,19.9-35,19.9-55.1v-35.3
				c0-61.8,50.1-112,112-112s112,50.1,112,112v36.5c0,20.3,7.2,40,20.3,55.6C279.3,297.7,254.4,351.4,208.5,351.4z"/>
			<path class="st1" d="M304.7,442v121H-70.7V442.9c0-27.2,16.3-51.7,41.3-62.3l60.6-26.3l20.4-8.9c15.5-6.7,25.5-22,25.5-38.9v-7.8
				h79.7v7.4c0,16.9,10.1,32.3,25.7,39l81.9,35.1C288.9,391.1,304.7,415.3,304.7,442L304.7,442z"/>
			<path class="st2" d="M31.3,383.2c20.7,6.2,51.1,12.8,88.2,12.1c34.8-0.6,63.4-7.4,83.3-13.7l9.9-23.5l-30.1-12.9
				c-15.6-6.7-25.7-22-25.7-39v-7.4H77.2v7.8c0,16.9-10,32.1-25.5,38.9l-24.4,10.6L31.3,383.2z"/>
			<g>
				<path class="st3" d="M264.5,380.3l-61.7-26.5l0,0V563h101.9V442C304.7,415.3,288.9,391.1,264.5,380.3L264.5,380.3z"/>
				<path class="st3" d="M31.3,354.4V563H-70.7V443c0-27.2,16.3-51.7,41.3-62.3L31.3,354.4z"/>
			</g>
		</g>
		<g>
			<path class="st4" d="M144.6,342.5c9.2,0,17.9-1.8,25.9-5.2c-8.5-7.9-13.6-19.1-13.6-31.2v-7.4H77.2v7.8c0,6.1-1.3,12-3.7,17.3
				c12.1,11.5,28.4,18.6,46.4,18.6L144.6,342.5L144.6,342.5z"/>
			<path class="st2" d="M196.6,178.9v65.9c0,37.1-30.1,67.2-67.2,67.2h-24.8c-37.1,0-67.2-30.1-67.2-67.2v-65.9
				c0-24.2,19.6-43.7,43.7-43.7h71.8C177.1,135.2,196.6,154.7,196.6,178.9L196.6,178.9z"/>
			<path class="st5" d="M196.6,213.2c0,0.1-0.1,0.2-0.1,0.3c-2.4,8.4-8.8,24.3-24.2,36.1c-7.2,5.5-15.4,9.5-24.3,11.9
				c-4.1,1.1-6.5,5.2-5.4,9.3c0.9,3.4,4,5.7,7.4,5.7c0.6,0,1.3-0.1,1.9-0.3c11-2.9,21-7.8,29.8-14.6c6.1-4.7,11-9.9,15-15.1
				c0-0.6,0-1.2,0-1.8L196.6,213.2L196.6,213.2z"/>
			<path class="st6" d="M139.6,282.5h-17.8c-8.1,0-14.7-6.6-14.7-14.7c0-8.1,6.6-14.7,14.7-14.7h17.8c8.1,0,14.7,6.6,14.7,14.7
				C154.3,276,147.8,282.5,139.6,282.5z"/>
			<g>
				<path class="st7" d="M132.9,117.7c1.7-21.5,22.3-35.8,42.1-43.2c32.6,19.6,54.5,55.3,54.5,96.1v7.7c-1.8,0.4-3.6,0.7-5.4,1
					c-10.9,1.6-20.1,0.9-26.5,0C156.9,173.8,130.8,143.7,132.9,117.7z"/>
				<path class="st0" d="M117.5,58.6c25.3,0,48.6,8.4,67.4,22.5c-9.4,16.3-30.8,48.4-71.1,72.3c-29.9,17.7-58.1,23.6-75.4,25.9H5.5
					v-8.7C5.5,108.7,55.6,58.6,117.5,58.6z"/>
			</g>
		</g>
	</g>
	<path class="st8" d="M238.8,563H-4.8l-13.4-126.8c-1-9,6.1-16.8,15.1-16.8h240.3c9,0,16.1,7.8,15.1,16.8L238.8,563z"/>
	<path class="st9" d="M124.6,419.4H94.2c9,0,16.1,7.8,15.1,16.8L95.9,563h30.4l13.4-126.8C140.7,427.2,133.7,419.4,124.6,419.4z"/>
	<circle class="st10" cx="117" cy="491.2" r="21.3"/>
</g>
</svg>
