<?xml version="1.0" encoding="UTF-8" standalone="no"?>
<svg
   xmlns:dc="http://purl.org/dc/elements/1.1/"
   xmlns:cc="http://creativecommons.org/ns#"
   xmlns:rdf="http://www.w3.org/1999/02/22-rdf-syntax-ns#"
   xmlns:svg="http://www.w3.org/2000/svg"
   xmlns="http://www.w3.org/2000/svg"
   xmlns:sodipodi="http://sodipodi.sourceforge.net/DTD/sodipodi-0.dtd"
   xmlns:inkscape="http://www.inkscape.org/namespaces/inkscape"
   width="200"
   height="50"
   viewBox="0 0 52.916666 13.229167"
   version="1.1"
   id="svg8"
   inkscape:version="1.0.1 (c497b03c, 2020-09-10)"
   sodipodi:docname="member_since.svg">
  <defs
     id="defs2" />
  <sodipodi:namedview
     id="base"
     pagecolor="#ffffff"
     bordercolor="#666666"
     borderopacity="1.0"
     inkscape:pageopacity="0.0"
     inkscape:pageshadow="2"
     inkscape:zoom="1.4"
     inkscape:cx="69.010965"
     inkscape:cy="34.830138"
     inkscape:document-units="mm"
     inkscape:current-layer="g968"
     inkscape:document-rotation="0"
     showgrid="false"
     inkscape:snap-global="false"
     units="px"
     inkscape:window-width="1792"
     inkscape:window-height="995"
     inkscape:window-x="0"
     inkscape:window-y="23"
     inkscape:window-maximized="1" />
  <metadata
     id="metadata5">
    <rdf:RDF>
      <cc:Work
         rdf:about="">
        <dc:format>image/svg+xml</dc:format>
        <dc:type
           rdf:resource="http://purl.org/dc/dcmitype/StillImage" />
        <dc:title />
      </cc:Work>
    </rdf:RDF>
  </metadata>
  <g
     inkscape:label="Layer 1"
     inkscape:groupmode="layer"
     id="layer1">
    <g
       id="g968"
       transform="matrix(0.778203,0,0,0.778203,-73.955591,-37.671304)">
      <g
         id="g959"
         transform="matrix(0.99820904,0.05380015,-0.05795912,1.0753745,-6.8435849,6.8144539)">
        <path
           style="fill:none;stroke:#000000;stroke-width:0.5;stroke-linecap:butt;stroke-linejoin:miter;stroke-miterlimit:4;stroke-dasharray:none;stroke-opacity:1"
           d="m 110.57773,35.915954 -2.14968,5.958019 c 0,0 7.08649,3.114616 10.63444,3.105194 6.31751,-0.01678 11.82558,-5.424626 18.14286,-5.480654 6.48099,-0.05748 12.24367,4.849555 18.70982,5.291666 3.17311,0.216955 6.4868,-0.165912 9.44941,-1.322916 0.92781,-0.362342 2.45684,-1.700893 2.45684,-1.700893 l -2.5223,-5.443237 c 0,0 -6.11362,2.762944 -9.38395,2.608415 -5.31602,-0.251192 -9.64273,-3.68772 -14.79074,-4.97222 -1.4691,-0.366561 -2.62393,-0.363251 -4.71826,-0.393794 -2.79936,-0.04082 -2.9732,0.248207 -4.40571,0.631315 -4.09169,1.094278 -7.75186,4.512583 -11.99303,4.734699 -3.18922,0.167024 -9.4297,-3.015594 -9.4297,-3.015594 z"
           id="path919"
           sodipodi:nodetypes="ccssssccsssssc" />
        <path
           style="fill:none;stroke:#000000;stroke-width:0.5;stroke-linecap:butt;stroke-linejoin:miter;stroke-miterlimit:4;stroke-dasharray:none;stroke-opacity:1"
           d="m 110.18006,34.547025 -3.02381,7.937499 c 0,0 7.5423,3.520942 12.23326,3.50574 6.26546,-0.0203 12.09247,-5.421687 18.35771,-5.36509 6.10029,0.05511 12.64243,5.325983 18.73493,5.639112 2.81355,0.144605 5.68807,-0.495171 8.31547,-1.511905 1.66276,-0.643442 4.36394,-2.26852 4.36394,-2.26852 l -3.419,-7.747848 c 0,0 -5.95738,2.56261 -8.59895,2.834822 -2.7408,0.282437 -5.62432,-0.920795 -8.12649,-1.984375 -4.00747,-1.703427 -7.07966,-3.062075 -11.43378,-3.118304 -3.42301,-0.0442 -6.60541,0.474386 -9.73289,1.795387 -2.95733,1.249134 -5.86243,3.399317 -9.07143,3.307292 -2.86774,-0.08224 -8.59896,-3.02381 -8.59896,-3.02381 z"
           id="path927"
           sodipodi:nodetypes="ccssssccsssssc" />
      </g>
      <g
         aria-label="MEMBER SINCE"
         transform="rotate(0.48730548,109.7584,166.61264)"
         id="text929"
         style="font-style:normal;font-variant:normal;font-weight:normal;font-stretch:normal;font-size:5.62607px;line-height:1.25;font-family:sans-serif;-inkscape-font-specification:sans-serif;letter-spacing:1.32292px;white-space:pre;fill:#000000;fill-opacity:1;stroke:none">
        <path
           d="m 103.09748,59.121486 -0.47054,-0.272853 1.76803,-3.049002 -2.18688,1.504142 -0.28043,-0.16261 0.22631,-2.641028 -1.76803,3.049001 -0.439647,-0.254938 2.051907,-3.538553 0.64165,0.372072 -0.19895,2.517172 2.05496,-1.440918 0.65353,0.378962 z"
           style="font-style:normal;font-variant:normal;font-weight:normal;font-stretch:normal;font-family:sans-serif;-inkscape-font-specification:sans-serif;fill:#000000"
           id="path995" />
        <path
           d="m 107.95213,60.756839 -2.60584,-0.687123 1.04294,-3.955244 2.60584,0.687123 -0.12328,0.46751 -2.07989,-0.548437 -0.28577,1.083774 2.07989,0.548437 -0.12328,0.467511 -2.07989,-0.548438 -0.38734,1.468939 2.07989,0.548438 z"
           style="font-style:normal;font-variant:normal;font-weight:normal;font-stretch:normal;font-family:sans-serif;-inkscape-font-specification:sans-serif;fill:#000000"
           id="path997" />
        <path
           d="m 113.68652,59.906774 -0.52529,0.141157 -0.91467,-3.403781 -0.47596,2.611203 -0.31306,0.08412 -1.71275,-2.023048 0.91467,3.403781 -0.4908,0.131889 -1.06153,-3.950296 0.7163,-0.192487 1.64425,1.916298 0.42774,-2.473085 0.72957,-0.196052 z"
           style="font-style:normal;font-variant:normal;font-weight:normal;font-stretch:normal;font-family:sans-serif;-inkscape-font-specification:sans-serif;fill:#000000"
           id="path999" />
        <path
           d="m 118.14252,56.370925 q 0.12815,0.276692 0.12159,0.537063 -0.007,0.260372 -0.12005,0.479442 -0.13319,0.2615 -0.35263,0.447902 -0.21694,0.185248 -0.60331,0.364199 l -1.31616,0.609585 -1.71908,-3.711665 1.09929,-0.509143 q 0.40632,-0.188186 0.62208,-0.251789 0.21576,-0.0636 0.4441,-0.05432 0.25405,0.01252 0.42478,0.139305 0.16959,0.124295 0.27811,0.358611 0.12238,0.264229 0.0744,0.513527 -0.0492,0.246806 -0.22156,0.462885 l 0.009,0.01994 q 0.4122,-0.09706 0.74682,0.05676 0.33348,0.151322 0.51243,0.537694 z m -1.60476,-1.288163 q -0.0624,-0.134607 -0.14993,-0.206057 -0.0876,-0.07145 -0.21385,-0.0826 -0.14833,-0.01304 -0.32227,0.04936 -0.17509,0.0599 -0.42187,0.174201 l -0.58829,0.272467 0.49645,1.071871 0.63813,-0.295557 q 0.23183,-0.10737 0.35854,-0.193303 0.12555,-0.08843 0.20807,-0.21747 0.0825,-0.129044 0.0756,-0.268138 -0.006,-0.142741 -0.0806,-0.304768 z m 1.10049,1.545935 q -0.1039,-0.224345 -0.2324,-0.325287 -0.12849,-0.100942 -0.34819,-0.111202 -0.14851,-0.0069 -0.32859,0.05531 -0.17875,0.05857 -0.42303,0.171708 l -0.77524,0.359056 0.6396,1.380968 0.6531,-0.302483 q 0.32405,-0.150088 0.51594,-0.278318 0.19073,-0.130723 0.28128,-0.281651 0.0946,-0.161869 0.10165,-0.316523 0.007,-0.154653 -0.0841,-0.351579 z"
           style="font-style:normal;font-variant:normal;font-weight:normal;font-stretch:normal;font-family:sans-serif;-inkscape-font-specification:sans-serif;fill:#000000"
           id="path1001" />
        <path
           d="m 123.15054,55.828004 -2.56997,0.811031 -1.23102,-3.900807 2.56998,-0.811031 0.1455,0.461076 -2.05126,0.647337 0.33731,1.068857 2.05126,-0.647336 0.14551,0.461076 -2.05126,0.647336 0.45718,1.448722 2.05127,-0.647337 z"
           style="font-style:normal;font-variant:normal;font-weight:normal;font-stretch:normal;font-family:sans-serif;-inkscape-font-specification:sans-serif;fill:#000000"
           id="path1003" />
        <path
           d="m 128.69253,56.161674 -0.69837,-0.103563 -1.1147,-1.809373 -0.75815,-0.112429 -0.23856,1.608694 -0.53804,-0.07979 0.60002,-4.046191 1.13315,0.168038 q 0.36685,0.0544 0.60416,0.139582 0.23771,0.08246 0.41523,0.233759 0.19956,0.171227 0.29041,0.401317 0.094,0.227775 0.046,0.551145 -0.0649,0.437499 -0.32891,0.701054 -0.26363,0.260837 -0.67166,0.353072 z m -0.82697,-3.094181 q 0.0258,-0.173912 -0.017,-0.316333 -0.0396,-0.144734 -0.16723,-0.25808 -0.10517,-0.09613 -0.26106,-0.149799 -0.15549,-0.05638 -0.37288,-0.08862 l -0.63315,-0.09389 -0.22647,1.527172 0.54348,0.08059 q 0.25543,0.03788 0.4521,0.02261 0.19706,-0.01799 0.34835,-0.120525 0.13921,-0.096 0.21803,-0.234273 0.082,-0.140591 0.1158,-0.368852 z"
           style="font-style:normal;font-variant:normal;font-weight:normal;font-stretch:normal;font-family:sans-serif;-inkscape-font-specification:sans-serif;fill:#000000"
           id="path1005" />
        <path
           d="m 136.76549,57.738884 q -0.1006,0.216794 -0.30105,0.381196 -0.19797,0.165558 -0.4481,0.228168 -0.27335,0.06697 -0.58161,0.03296 -0.30577,-0.03286 -0.67955,-0.206309 -0.4012,-0.186168 -0.68796,-0.410089 -0.28427,-0.222766 -0.54747,-0.523578 l 0.28676,-0.617988 0.0349,0.01619 q 0.17289,0.364902 0.48272,0.663123 0.30982,0.298222 0.63377,0.448543 0.45851,0.212763 0.79247,0.158767 0.33645,-0.05284 0.46942,-0.339407 0.11448,-0.246697 0.0467,-0.420475 -0.0653,-0.172622 -0.28189,-0.351887 -0.16377,-0.136562 -0.36802,-0.270712 -0.20176,-0.132994 -0.42284,-0.296151 -0.44483,-0.333611 -0.56727,-0.696298 -0.11878,-0.364023 0.0697,-0.770201 0.21623,-0.465983 0.74755,-0.57982 0.53248,-0.116328 1.13801,0.164657 0.39122,0.181542 0.68297,0.407777 0.29175,0.226234 0.49255,0.452665 l -0.27058,0.583102 -0.0349,-0.01619 q -0.12856,-0.277703 -0.42058,-0.55555 -0.28838,-0.279183 -0.64971,-0.446849 -0.39621,-0.183855 -0.71424,-0.131553 -0.31553,0.05346 -0.43579,0.312615 -0.10754,0.231745 -0.0492,0.419319 0.0583,0.187573 0.32746,0.397261 0.1433,0.10889 0.41421,0.295174 0.27092,0.186283 0.45097,0.333431 0.36278,0.301592 0.46918,0.620501 0.10641,0.318909 -0.0786,0.717611 z"
           style="font-style:normal;font-variant:normal;font-weight:normal;font-stretch:normal;font-family:sans-serif;-inkscape-font-specification:sans-serif;fill:#000000"
           id="path1007" />
        <path
           d="m 139.71433,60.006009 -1.51284,-0.566151 0.14636,-0.391072 0.5017,0.187754 1.14097,-3.048819 -0.50171,-0.187754 0.14635,-0.391072 1.51284,0.566151 -0.14636,0.391072 -0.5017,-0.187754 -1.14097,3.048819 0.50171,0.187754 z"
           style="font-style:normal;font-variant:normal;font-weight:normal;font-stretch:normal;font-family:sans-serif;-inkscape-font-specification:sans-serif;fill:#000000"
           id="path1009" />
        <path
           d="m 144.83487,61.634588 -0.64822,-0.18111 -0.88327,-4.046065 -0.98465,3.524175 -0.48946,-0.136756 1.1007,-3.939562 0.81225,0.226941 0.80499,3.693324 0.89889,-3.217265 0.48947,0.136756 z"
           style="font-style:normal;font-variant:normal;font-weight:normal;font-stretch:normal;font-family:sans-serif;-inkscape-font-specification:sans-serif;fill:#000000"
           id="path1011" />
        <path
           d="m 150.37247,61.501043 q -0.1475,0.07362 -0.26798,0.137598 -0.11775,0.06383 -0.31202,0.137116 -0.16467,0.06075 -0.36036,0.106599 -0.19281,0.04845 -0.42874,0.06061 -0.44444,0.02291 -0.81569,-0.08174 -0.36864,-0.107533 -0.65122,-0.35979 -0.2768,-0.247053 -0.4456,-0.639962 -0.16893,-0.395653 -0.19637,-0.927884 -0.026,-0.504797 0.0961,-0.909953 0.12215,-0.405155 0.37687,-0.69336 0.24691,-0.27955 0.60732,-0.438417 0.36316,-0.159007 0.81309,-0.182199 0.32921,-0.01697 0.65979,0.04576 0.33331,0.06259 0.74418,0.242217 l 0.0332,0.644714 -0.0411,0.0021 q -0.35201,-0.265183 -0.69061,-0.377014 -0.33861,-0.111832 -0.71721,-0.09232 -0.31001,0.01598 -0.55443,0.130357 -0.24182,0.111492 -0.42572,0.332779 -0.17869,0.215517 -0.26942,0.536531 -0.0881,0.318128 -0.0669,0.729647 0.0222,0.430724 0.1534,0.734796 0.13395,0.30393 0.32781,0.489241 0.2025,0.193117 0.46274,0.278731 0.26283,0.08273 0.54815,0.06802 0.39232,-0.02022 0.72832,-0.172329 0.336,-0.152107 0.62118,-0.43638 l 0.0384,-0.002 z"
           style="font-style:normal;font-variant:normal;font-weight:normal;font-stretch:normal;font-family:sans-serif;-inkscape-font-specification:sans-serif;fill:#000000"
           id="path1013" />
        <path
           d="m 155.02962,60.585722 -2.55967,0.842996 -1.27953,-3.885163 2.55967,-0.842995 0.15124,0.459226 -2.04304,0.67285 0.35061,1.064571 2.04303,-0.67285 0.15124,0.459227 -2.04303,0.67285 0.4752,1.442911 2.04304,-0.67285 z"
           style="font-style:normal;font-variant:normal;font-weight:normal;font-stretch:normal;font-family:sans-serif;-inkscape-font-specification:sans-serif;fill:#000000"
           id="path1015" />
      </g>
      <path
         style="fill:none;stroke:none;stroke-width:0.264583px;stroke-linecap:butt;stroke-linejoin:miter;stroke-opacity:1"
         d="m 99.823643,54.955445 c 0,0 6.057827,5.051544 10.989517,4.386238 3.8978,-0.52583 8.62413,-3.385234 12.50344,-4.033495 3.24056,-0.54152 4.90977,0.834473 8.17779,1.172722 1.59045,0.164619 2.08471,1.0752 3.68924,1.807081 3.11104,1.419037 7.07877,3.29105 9.78173,4.0078 2.76773,0.73393 5.21068,0.463511 8.04129,0.0315 3.23352,-0.493496 8.78147,-4.844455 8.78147,-4.844455"
         id="path948"
         sodipodi:nodetypes="cssssssc" />
    </g>
  </g>
</svg>
