<?xml version="1.0" encoding="iso-8859-1"?>
<!-- Generator: Adobe Illustrator 19.0.0, SVG Export Plug-In . SVG Version: 6.00 Build 0)  -->
<svg version="1.1" id="Layer_1" xmlns="http://www.w3.org/2000/svg" xmlns:xlink="http://www.w3.org/1999/xlink" x="0px" y="0px"
	 viewBox="0 0 512 512" style="enable-background:new 0 0 512 512;" xml:space="preserve">
<rect x="46.545" y="80.873" style="fill:#074761;" width="63.418" height="57.6"/>
<path style="fill:#73DCE6;" d="M465.455,115.782h-77.966C351.515,86.69,305.761,69.236,256,69.236s-95.515,17.453-131.489,46.545
	H46.545C20.945,115.782,0,136.727,0,162.327v233.891c0,25.6,20.945,46.545,46.545,46.545h418.909
	c25.6,0,46.545-20.945,46.545-46.545V162.327C512,136.727,491.055,115.782,465.455,115.782z"/>
<circle style="fill:#1D9DBD;" cx="256" cy="278.691" r="128"/>
<circle style="fill:#FFFFFF;" cx="256" cy="278.691" r="81.455"/>
<g>
	<path style="fill:#A8F7FF;" d="M257.204,334.437c-14.154,0-28.308-5.388-39.084-16.163c-3.408-3.408-3.408-8.933,0-12.342
		c3.409-3.408,8.934-3.408,12.343,0c14.746,14.746,38.739,14.744,53.484,0c10.93-10.93,14.094-27.222,8.063-41.506
		c-1.875-4.44,0.205-9.56,4.644-11.435c4.439-1.873,9.559,0.204,11.435,4.644c8.809,20.859,4.177,44.662-11.8,60.639
		C285.513,329.048,271.359,334.437,257.204,334.437z"/>
	<path style="fill:#A8F7FF;" d="M224.292,255.005c-2.234,0-4.467-0.852-6.172-2.557c-3.408-3.408-3.408-8.934,0.001-12.343
		c15.977-15.978,39.781-20.611,60.638-11.8c4.44,1.876,6.52,6.995,4.644,11.435c-1.875,4.442-7.002,6.52-11.435,4.644
		c-14.281-6.032-30.575-2.867-41.507,8.064C228.759,254.152,226.525,255.005,224.292,255.005z"/>
</g>
<circle style="fill:#074761;" cx="442.182" cy="185.6" r="23.273"/>
<g>
</g>
<g>
</g>
<g>
</g>
<g>
</g>
<g>
</g>
<g>
</g>
<g>
</g>
<g>
</g>
<g>
</g>
<g>
</g>
<g>
</g>
<g>
</g>
<g>
</g>
<g>
</g>
<g>
</g>
</svg>
