<svg height="200" viewBox="0 0 200 200" width="200" xmlns="http://www.w3.org/2000/svg"><g fill-rule="evenodd"><path d="m4369.43 16249.4c-1146.95-50.6-2036.98-1025.8-1986.24-2176.4 50.74-1150.5 1023.16-2043.6 2170.1-1993.1 1146.95 50.6 2036.95 1025.8 1986.22 2176.4s-1023.13 2043.7-2170.08 1993.1z" fill="#8d37a0" transform="matrix(-.04397190327 0 0 -.04397190327 298.53260369427 723.65714857524)"/><path d="m2859.34 16268.6c215.79-364.9 558.46-702.1 900.58-948.8 116.5-84 237.71-159.5 364.57-227 43.68-23.2 88.68-43.5 133.02-65.2 11.44-5.6 23.04-11.1 34.38-16.9 9.32-4.7 38.03-15.8 27.63-14.7-58.27 5.7-116.94 30.2-171.4 50.1-36.89 13.4-73.87 26.7-110.58 40.7-33.42 12.7-66.28 26.9-99.6 39.8-13.56 5.3-27.07 10.5-40.54 15.9-5.56 2.2-20.03 11.5-16.79 6.5 49.05-76.7 196.61-130.8 275.38-166.9 77.75-35.7 111.09-51.1 111.08-52.2-.02-4.1-81.41 8.9-87.31 10.2-93.13 20.7-184.6 52-275.44 80.8-20.65 6.6-41.29 13.1-62.27 18.8-9.86 2.7-35.12 17-29.48 8.4 45.44-69 185.84-116.7 257.31-152.8 25.73-13 52.34-24.8 78.74-36.4 33.76-14.7 44.33-20.5 44.27-20.5-98.65-14.9-208.71 28.2-297.73 66.7-35.13 15.2-70.39 30.3-105.43 45.9-.22 0-32.16 15.8-32.79 14.8-7.02-11 52.18-67.4 59.4-74.1 62.82-58.2 139.51-99.2 216.84-134.7 23.23-10.7 46.6-21 69.97-31.3 13.91-6.2 42.11-17.6 40.06-18.2-75.91-25.3-174.56 23.9-245.05 48.2-27.92 9.7-73.69 28.5-74.88 27.1-5.59-6.8 55.81-65.8 63.11-71.9 75.05-61.7 162.18-113.9 252.07-150.8 28.43-11.7 57.6-21.5 86.17-32.9 11.93-4.8 46.12-10.2 34.89-16.4-46.15-25.9-143.24 3.2-189.46 16.9-17.99 5.3-35.7 11.1-53.59 16.7-9.77 3-31.78 19.2-29.36 9.2 7.08-28.4 68.25-62.3 90.39-77.7 94.39-65.7 198.47-105.5 301.72-153.9 10.01-4.7-21.8-3.7-32.8-4.8-26.28-2.6-53.55-1.9-79.91-.4-29.29 1.6-58.44 7.5-87.56 8.9-1.52.1 29.6-21.8 30.94-22.7 16.15-10.8 32.76-21.4 49.88-30.6 62.85-34.1 127.63-64.7 190.9-98 18.24-9.6 36.13-19.8 54.12-29.8 7.95-4.4 29.48-7.2 23.37-13.9-34.01-37.8-189.64-6.3-233.79 4.2-194.51 46.5-368.54 162-533.99 270-200.95 131-377.88 276-526.1 466.5-188.53 242.3-309.35 567.4-390.29 860.9-45.87 166.1-133.94 392.1-70.29 567.7" fill="#60247f" transform="matrix(-.03805618751 0 0 -.03805618751 298.53260369427 723.65714857524)"/><path d="m3191.56 16300c63.95-132.7 173.46-239.1 277.35-341.3 265.76-261.3 581.69-466.2 915.4-631.9 144.36-71.6 285.46-148.5 439.7-197.8 54.81-17.5 110.04-31.8 165.91-45.4 17.51-4.3 35.09-8.1 52.64-12.3 8.54-2.1 34.37-5.7 25.61-6.2-205.66-10.9-431.09 56.2-624.03 118.4-59.84 19.3-118.88 44-176.62 69-17.37 7.5-46.82 28.1-66.63 27.6-9.57-.2 11.3-15.4 17.34-22.8 9.13-11.1 18.75-21.8 29.47-31.4 41.29-37.3 87.65-66.8 136.35-93.3 137.36-74.4 278.1-109 425.56-155.5 6.46-2-13.38-1.5-20.11-2-18.83-1.2-38.14-.8-57-.3-47.91 1.3-95.4 8-142.39 17.3-149.4 29.5-298.66 77.5-440.64 132.3-50.21 19.4-100.84 39.4-149.74 62-16.09 7.5-32.19 15.1-48.24 22.7-9.11 4.2-33.36 21.3-26.93 13.5 106.13-128.2 351.67-235 504.86-289.5 48.62-17.4 99.45-30.2 149.61-42 20.37-4.8 40.96-8.3 61.52-12.2 8.29-1.6 33.25-1.9 25.04-3.8-58.7-14.2-135.88.2-194.24 7.2-143.76 17.3-284.56 61.6-422.38 103.6-62.71 19.1-124.65 42-186.32 64.2-21.11 7.6-42.25 15.2-63.39 22.7-10.27 3.6-28.26 21.1-30.9 10.5-2.5-9.7 91.54-88.5 105.24-98.5 118.12-86.5 262.29-147.3 397.74-201.1 46.7-18.5 94.26-35.4 141.41-52.7 13.82-5.1 27.89-9.6 41.75-14.5 7.29-2.7 29.54-6.5 21.9-7.5-83.84-11.2-194.33 41.3-270.67 69.6-168.26 62.4-345.66 148-525.65 170.3-77.63 9.7-227.5 28.4-286.2-44.6-55.97-69.6-20.57-165 34.15-222.2 2.87-3 6.18 5.5 9.46 8 11.89 8.8 25.55 15.8 39.61 20.3 39.27 12.7 80.86 14.3 121.68 10.2 111.17-11.2 213.61-80.3 295.62-151.9 63.32-55.3 258.5-260.3 103.78-322-127.68-51-277.51-22.3-404.43 14.5-103.35 29.8-201.51 90.6-291.72 148-200.92 127.6-380.32 285.1-542.84 458.2-100.12 106.5-204.99 202.8-198.7 357.8 11.72 287.7 208.59 594.1 380.36 817.2 50.49 65.5 129.34 122.5 170.32 193.6" fill="#60247f" transform="matrix(-.04199049486 0 0 -.04199049486 298.53260369427 723.65714857524)"/><path d="m3634.57 15514.1c138.7-127 299.2-236.5 464.14-326.6 50.2-27.5 188.56-76.3 192.66-95.5 2.76-12.7-25.42 5.7-37.97 9.2-20.02 5.5-39.62 11.9-59.2 18.9-61.43 22.1-120.4 48.5-179.7 75.7-17.43 7.9-34.44 16.9-51.73 25.2-7.55 3.5-26.5 18.2-22.55 10.8 34.24-64.2 134.79-106.6 195.36-139.3 20.57-11.1 41.19-22 61.9-32.8 11.43-6 45.72-15 33.52-19.2-32.74-11.3-86.79 3-119.25 9.8-97.29 20.3-194.05 53-284.65 93.8-313.22 140.5-697.87 397.3-921.73 662.9-92.4 109.5-141.63 207.2-159.95 351.3-2.81 22.1-27.74 105.4-12.82 124.1 14.01 17.6 83.17-46 90.97-53.9 81.22-83.5 150.75-179.4 228.69-266.2 179.16-199.7 426.78-383.3 667.46-499.8" fill="#60247f" transform="matrix(-.03887689078 0 0 -.03887689078 298.53260369427 723.65714857524)"/><path d="m4613.91 16256.3c162.88-88.2 332.81-163 486.24-268.1 166.83-114.3 308.02-260.9 433.79-418.4 78.44-98.1 215.67-276 116.87-404.8-53.17-69.4-166.95-79.7-246.49-83.3-203.8-9.4-416.44 44.4-602.96 124-76.59 32.7-195.1 81.7-216.75 173.6-15.39 65.4 27.39 125.1 81.2 157.5 95.27 57.3 218.87 70.1 326.84 50.2 50.91-9.4 102.71-24.5 148.81-48.3 15.93-8.3 31.51-16.6 46.98-25.7 7.92-4.6 32.2-17.1 23.42-14.4-69.67 21.4-133.37 67.8-200.18 97-169.77 74.2-451.56 138.6-611.76 2-82.69-70.5-43.6-209.7 5.85-287.2 17.21-26.9 39.31-51.1 62.52-73 7.62-7.2 15.51-14.1 23.45-21 5.3-4.6 22.98-14.4 16.03-13.6-73.34 8.4-201.29 132-251.75 184.5-20.68 21.5-73.93 95.1-81.16 94.5-1.26-.1 2.66-31.7 2.91-33.2 6.29-36.2 19.35-70.5 35.42-103.4 61.63-126.4 194.83-187 293.37-278.8 4.19-3.8-11.24 2.3-16.73 4-10.99 3.4-21.89 7.2-32.63 11.3-31.59 12.1-61.51 29.5-91.23 45.3-85 45.5-158.84 106.1-231.05 169.4-23.71 20.8-47.03 42-69.48 64.1-7.51 7.4-15.05 14.8-22.47 22.3-4.91 4.9-14.09 21.8-14.87 14.8-3.66-33.5 39.04-82.9 57.9-108.3 65.35-88 146.74-168.5 233.2-235.5 32.47-25.2 66.17-49.3 99.59-73.3 9.65-7 19.76-13.2 29.49-20 3.77-2.7 14.6-4.6 11.4-8-2.8-2.9-98.02 29.7-114.02 36.3-117.04 48.5-224.47 124.7-328.86 195.3-36.14 24.4-72.02 49-107.7 74.1-12.3 8.7-24.3 17.7-35.73 27.4-4.46 3.8-16.74 16.1-13.15 11.5 91.4-116.8 217.84-221.9 336.75-309.7 48.05-35.4 99.49-66.9 151.51-96.1 3.19-1.8 47-25.1 46.4-26.8-1.9-4.9-48.72 4.7-53.7 5.8-53.01 11-103.66 31.6-152.71 54.2-132.76 61-264.89 128.2-390.96 202.1-51.88 30.4-116.81 60.7-159.06 104.8-6.24 6.5 14.65-10.7 21.88-16.1 12.14-9.1 24.15-18.5 36.25-27.7 40.17-30.8 79.56-62.3 121.22-91.1 115.8-79.9 232.39-164 357.05-229.7 41.03-21.6 84.67-38.9 127.62-56.1 17.14-6.9 34.16-14.1 51.09-21.3 6.94-3 25.46-4.3 20.38-9.9-4.13-4.6-11.9-3.4-18-4.4-108.44-18.5-239.27 44.7-334.28 90.9-141.96 69.1-271.72 159.4-403.21 246-112.77 74.4-227.98 141.6-334.9 224.6-69.91 54.4-136.15 114.4-198.32 177.3-24.76 25.1-59.43 49-53.49 88.3 14.26 94 117.04 180.8 183.7 239.1 218.49 191.1 480.22 283 757.98 357.2 215.01 57.4 479.65 101.5 693.5 16.3" fill="#60247f" transform="matrix(-.04390986876 0 0 -.04390986876 298.53260369427 723.65714857524)"/><path d="m5209.75 16285c70.56 15 138.89-28.3 194.3-66.9 36.18-25.2 69.2-56.4 100.46-87.3 20.07-19.8 39.93-42.1 56.89-64.7 15.7-20.9 86.94-99.3 30.07-119.1-9.8-3.4-21.31-5.2-31.79-5-13.05.2-27.04 3.2-39.4 6.8-7.32 2.2-35.53 12.6-42.75 15.7-88.52 37.9-164.33 98.6-223.61 173.9-16.22 20.6-50.19 61.9-47.18 91.5" fill="#60247f" transform="matrix(-.042214611 0 0 -.042214611 298.53260369427 723.65714857524)"/><path d="m7450.68 16300c-52.06-74.2-99.69-143.1-173.59-198-216.25-160.5-538.16-168.6-793.8-162.3-115.21 2.9-230.26 16.4-343.51 37.4-38.27 7.1-76.67 14.4-115.12 20.4-12.17 2-24.29 4.1-36.49 5.7-6.25.8-25 2.2-18.69 2.5 53.21 2.5 108.94-7.9 162.5-8.2 102.4-.5 204.91 5.5 307.2 10 45.99 1.9 101.87-8 146.89 2.7 5.07 1.2-10.26 1.7-15.36 2.6-9.5 1.6-18.91 3.8-28.36 5.5-23.07 4-46.31 6.7-69.19 11.7-75.73 16.6-159.73 30.3-232.49 57.7-3.56 1.3 7.66-.3 11.47-.4 5.75-.2 16.52-.4 22.91-.5 19.96-.1 39.81-.5 59.8-.9 79.68-1.8 159.47.3 239.02-2.5 27.59-.9 55.19-.6 82.71-1.4 10.71-.4 21.41-.5 32.06-.5 4.6 0 17.59-2.5 13.74 0-22.98 15.3-61.1 18.8-87.39 26.8-62.26 18.9-127.39 32.4-188.96 52.8-10.86 3.5 22.75-.9 34.15-1.2 24.53-.4 49.03-1.7 73.54-1.9 73.58-.7 147.12-2.8 220.67-3.7 223.64-3 423.16 34.6 628.28 122.9" fill="#c748ab" transform="matrix(-.03445581057 0 0 -.03445581057 298.53260369427 723.65714857524)"/><path d="m5560.17 16277.5c225.97-85.3 440.36-176.1 683.64-199.7 116.62-11.3 236.2-16.5 353.35-13.2 34.93.9 69.65 2.8 104.38 6.8 11.67 1.3 35.01 9.9 46.8 7.2 6.24-1.5-10.96-6.8-16.71-9.7-8.64-4.4-17.53-8.5-26.43-12.3-28.93-12.7-59.52-21.5-89.81-30.3-85.64-24.8-172.7-42.7-259.71-61.9-255.54-56.2-516.16-61.3-776.45-45.8-63.65 3.8-126.49 12.1-189.27 23.2-5.7.9-52.44 4.6-54.93 10.2-3.79 8.7 18.21 5.2 27.43 7.3 36.09 8.1 73.33 12.7 110.17 15.9 87.15 7.8 174.95 12.9 262.37 17.4 28.73 1.6 57.52 2.9 86.31 4.2 8.4.4 16.81.8 25.21 1.2 4.76.2 18.07-2.5 14.4.6-11.99 10.1-60.67 7.2-76.89 9.3-64.79 8.3-129 19.5-193.12 31.6-26.95 5-53.76 10.6-80.55 16-8.26 1.7-16.63 3.1-24.88 4.8-4.87.9-19.52 3.3-14.55 2.9 91.06-6 181.59-18.7 272.93-21.8 30.07-.9 60.16-2.2 90.23-3.3 10.91-.3 21.74-.3 32.66-.9 5.97-.3 23.24-3.4 17.88-.8-75.18 37.2-171.19 51.3-251.72 74.8-20.4 6-40.86 11.8-61.36 17.4-2.26.6-20.87 3.5-21.99 6-1.88 4 8.86.8 13.26 1.1 12.04.7 23.99.7 36.06.9 36 .6 72.45-.7 108.42-3.1 9.8-.6 19.6-1.4 29.37-2.4 4.73-.5 15.85-5.7 14.24-1.2-4.24 12-59.54 26.9-71.91 32.3-68.02 29.8-133.97 64.5-198.7 100.8-7 4-58.25 23.2-60.22 30.4-1.82 6.6 13.54 1.5 20.36 1.9 25.55 1.3 119.73-17.8 119.73-17.8z" fill="#c748ab" transform="matrix(-.03365569748 0 0 -.03365569748 298.53260369427 723.65714857524)"/><path d="m6668.63 14309.7c-82.13-41.6-170.38-63.6-257.61-90.9-120.44-37.6-242.31-74.9-367.8-90.7-234.81-29.4-482.4 3.2-712.49 50.2-111.57 22.8-221.64 48.5-330.27 83-24.19 7.7-91.42 21.1-104.48 43.3-3.78 6.4 14.79-.2 22.19-.3 8.83-.2 17.72-.5 26.57-1 31.17-1.7 62.35-4.4 93.5-6.7 86.34-6.4 172.62-13.6 258.96-19.8 235.73-17.1 477.64-38.2 712.51-2.4 64.88 9.9 128.47 24.1 190.34 46.4 16.54 5.9 53.68 15.5 64.66 30.3 3.59 4.7-11.81-.5-17.76-.7-7.38-.3-14.82-.5-22.2-.7-23.68-.8-47.4-1.5-71.1-1.8-68.17-1.1-136.51 1.6-204.55 5.4-153.67 8.5-307.4 25-459.69 47-72.13 10.5-162.35 18.7-218.16 71.5-7.56 7.2 20.74 1.3 31.15 1.1 19.34-.4 38.58-1.8 57.89-2.7 65.39-2.9 130.84-6 196.26-8.6 169.13-7 338.41-17.4 507.27.8 48.76 5.3 143.25 9.8 180.9 43.6 7.78 6.9-20.84.9-31.3 1.2-22.22.7-44.57 1.3-66.82 1.8-57.83 1.2-115.61 2.7-173.32 6.9-206.86 15.2-413.11 41.2-616.13 83.7-52.19 10.9-106.77 22.3-155.01 45.6-2.22 1.1-33.16 16.4-32.71 19.7.1 1.1 20.48-.7 21.77-.7 23.85-2 47.66-3.3 71.47-5.5 93.73-8.7 187.55-15.9 281.54-21.1 204.31-11.2 410.38-10.9 613.29 17.6 51.68 7.3 102.97 17.8 153.94 29 20.5 4.5 53.59 6.4 71.59 17.5 2.59 1.6-6.04-.7-9.09-.9-7.36-.5-14.79-1-22.16-1.6-22.25-1.7-44.3-2.3-66.62-2.6-57.94-.6-115.76 1.6-173.54 5.4-207.83 13.7-411.98 51.4-616.71 87.8-71.89 12.7-143.34 26.9-214.09 45-24.82 6.4-49.31 14-73.05 23.6-8.69 3.6-33.8 7.6-25.46 11.8 15.23 7.8 59.79-5.7 75.78-7.2 63.96-6.3 128.13-12.9 191.99-20.1 218.11-24.6 432.2-47.2 651.79-29.3 71.94 5.9 144.77 16.5 213.63 38.9 18.76 6.1 49.27 1.7 55.54 20.4 3.26 9.8-20.6 1-30.89 1.8-22.36 1.8-44.69 3.2-67.07 5.3-62.61 6-125 13.5-187.45 21.1-157.3 19.3-314.43 40.3-469.56 73-61.25 13-150.34 23.7-200.59 65.4-7.93 6.6 20.65.1 30.97-.2 20.87-.5 41.5-2.3 62.28-4 65.6-5.5 131-13.2 196.59-18.4 155.76-12.2 312.29-18.4 466.66 10.7 42.19 8 99.87 15.5 136.9 40.8 3.65 2.5-8.87.1-13.31.2-7.4.2-14.76.5-22.16.8-22.24 1-44.49 1.6-66.76 2.6-60.9 2.7-121.98 6.4-182.77 11.1-215.86 17.1-438.97 54.5-641.94 131.4-40.05 15.2-79.82 32.8-116.3 55.3-5.78 3.6-41.26 22.3-41.27 30.5-.01 9 17.64-3.4 26.49-5.1 21.18-4.1 41.95-10.1 63.09-14.4 60.89-12.6 122.95-19.4 184.58-27.7 205.77-27.6 413.37-29.5 620.38-18 48.78 2.8 97.64 5.7 146.07 11.9 8.72 1.1 43.17 1.3 44.59 4.8 3.34 8.3-17.76-.7-26.67-1-13.33-.5-26.67-1-39.96-1.5-50.35-1.7-100.67-2.8-151.03-2.1-163.79 2.2-323.89 13.5-485.55 41-40.62 6.9-82.22 16.9-119.66 34.4-4.89 2.3-34.61 13.5-35.77 19.8-1.31 7.2 14.75-.5 22.12-.9 17.83-.8 35.56-2.7 53.36-4 47.72-3.6 95.26-6.4 143.17-7.3 150.11-2.6 303.96-.8 452.27 24.9 53.18 9.2 105.5 20.9 156.99 37 21.63 6.9 42.66 14 63.45 23.2 7.64 3.3 30.62 7.5 22.81 10.4-10.62 3.8-42.33-7-53.39-8.9-44.19-7.3-88.72-10.1-133.36-13.8-123.31-10.4-250.92-5.9-373.31 12-38.2 5.5-142.14 15.2-164.66 54.2-3.9 6.7 15.36 1.6 23.12 2.1 16.16 1.2 32.63 1 48.84 1.3 47.48.8 94.9.7 142.33 1.5 100 1.6 197.89 3.7 297.01 18.3 54.07 7.9 124.29 17.4 171.9 47.6 7.48 4.8-17.74-1.2-26.59-1.8-17.79-1.3-35.48-3.3-53.27-4.6-47.22-3.3-94.86-3.9-142.16-5.6-99.46-3.4-198.88-2.3-297.83 9.2-41.21 4.8-94.22 8.5-131.58 28.5-5.4 2.9 12.21.5 18.31.8 16.28.6 32.55.6 48.85.9 43.04 1 86 .2 129.06.9 109.88 1.9 223.55 4 330.38 32.6 26.16 7 89.63 18.8 106.93 42.1 3.54 4.8-11.86-.5-17.75-.8-10.39-.4-20.77-.9-31.1-1.3-35.57-1.5-71.09-3.1-106.61-4.6-106.86-4.5-217.15-15.2-323.8-3.1-39.93 4.5-78.49 10.3-116.76 23.2-12.61 4.2-24.67 9.4-36.47 15.5-.95.5-15.98 9.1-15.14 9.1 398.45-20.8 805.82 64.5 1070 381.7 62.58 75.1 117.47 140.7 144.98 237.3 189.36-418.9 143.14-896.8 65.33-1334.1-27.91-157-68.74-306.3-133.94-452.1-27.58-61.7-52.73-128.3-94.81-181.9" fill="#c748ab" transform="matrix(-.04020442914 0 0 -.04020442914 298.53260369427 723.65714857524)"/><path d="m5885.36 16300c139.15-165.3 252.63-355.2 228.9-580.9-6.98-66.3-27.07-128.8-74.07-177.3-17.43-17.9-36.57-34-56.8-48.7-9.46-6.8-34.5-9-29.09-19.3 3.27-6.3 53.84 13.2 59.43 15.6 61.42 25.5 105.83 73.4 157.22 113.5 3.89 3-4.33-8.8-6.47-13.2-5.44-11-11.47-21.6-18.98-31.5-22.57-29.4-49.12-54.3-79.18-76-62.12-44.8-134.65-73.6-209.62-88.4-25.94-5.1-51.91-10.4-78.02-14.8-9.46-1.6-18.96-3.1-28.41-4.8-6.22-1-24.58-1.9-18.53-3.6 21.04-5.8 51.29 1 72.78 2.1 69.87 3.3 140.09 7.3 207.73 26.4 26.39 7.4 52.07 18.2 76.72 30.1 8.55 4.2 17.14 8.6 25.48 13.2 4.66 2.5 18.1 11.1 14 7.7-114.9-95.5-274.85-125-417.94-149-44.7-7.5-89.65-12.4-134.82-15.5-14.35-1.1-28.56-2.9-42.84-4.3-7.3-.7-25.64 3.2-21.81-3.1 10.43-17.3 80.78-18.4 98.7-20.2 121.3-12.5 236.42 7.3 353.52 38.1 33.3 8.7 66.38 17.9 99.39 27.8 2.85.9 24.52 9.5 27.64 7.6 8.7-5.5-14.93-14.2-22.86-20.7-29.52-24.4-64.81-40.9-100.01-55.2-132.02-53.7-281.31-78.1-422.23-94.1-35.6-4-71.34-7.2-106.93-11.4-11.81-1.4-23.62-2.5-35.48-3.6-6.15-.6-23.77.8-18.41-2.2 53.66-30.4 133.59-36.9 193.44-46.8 113.45-18.6 204.04 4.3 311.27 40.7 169.92 57.7 314.86 136.2 409.42 294 34.03 56.8 72.24 117.3 77.4 184.9 6.04 78.3-28.12 151.3-61.6 219.7-81.64 166.9-216.08 300-360.93 413.4" fill="#c748ab" transform="matrix(-.0424244724 0 0 -.0424244724 298.53260369427 723.65714857524)"/><path d="m4409.74 16154c-17.39-.8-34.75-1.7-52.12-2.8-607.98-40.4-1169.82-362-1515.62-850.4-311.83-440.3-434.69-1007.8-336.81-1536.7 104.66-565.4 462.58-1073.1 953.23-1366 444.8-265.6 993.88-349.2 1497.21-231.1 504.86 118.4 957.53 440.6 1237.88 876.8 294.67 458.5 391.03 1037.3 263.41 1566.4-97.98 406.3-325.99 777.9-640.89 1051.1-385.74 334.6-900.56 512.6-1406.29 492.7zm-19.82 143.2c41.57 1.9 83.43 2.8 125.2 2.4 636.12-6.3 1246.26-304.1 1644.85-784.7 363.37-438.2 541.45-1023 487.63-1588.1-59.1-619.9-397.75-1197.2-898.8-1555.3-451.96-322.9-1029.76-460.4-1578.72-378.2-543.17 81.3-1049.23 379.4-1386.26 811.7-358.98 460.3-518.31 1068.3-433.83 1645.1 49.05 334.8 178.78 657.6 374.47 934 382.14 539.7 1012.37 881.2 1665.46 913.1z" fill="#0c0d16" transform="matrix(-.04399513321 0 0 -.04399513321 298.53260369427 723.65714857524)"/><path d="m3125.66 16298.2c-7.13-2.1-7.09-2.2-14.33-3.7l-23.33-17.2-7.69-12.6-3.98-5.9c2.67-4.2 5.39-8.4 8.12-12.6 9.41-14.4 23.45-34.9 23.45-34.9 175.48-215.7 407.16-379.6 635.51-538.3 428.51-297.9 895.42-544.5 1411.05-633.7 363.1-62.8 750.4-55 1065.82 168.4 149.58 106 268.18 262.9 298.88 444 19.26 113.8 1.75 230.3-39.89 340.6-12.63 33.5-26.76 66.7-42.89 99.1l-.56 1.3c-12.32 19.5-25.32 38.7-39.02 57.2l-28.63 28.5c-34.7 27.9-68.27 56.8-103.29 85 0 0-4.87 4 1.57-1.6 40.14-35.5 61.89-87.5 76.9-138.4 0 0 13.63-31.6 23.94-62.5 0 0 14.01-32.3 23.45-58 27.57-75 54.21-149.5 56.08-232.8 2.32-101.8-25.13-203.2-78.9-290.9-102.91-167.8-282.33-276.3-464.51-334.2-131.78-41.9-271.32-53.8-410.34-51.6-654.22 10.2-1276.62 340.7-1798.78 715.4-188.65 135.3-379.57 274.4-525.72 452-2.85 3-5.71 6-8.56 9-9.31 9.9-18.43 19.9-27.39 30.2 0 0-4.37-.9-6.96-1.8" fill="#0c0d16" transform="matrix(-.04222147439 0 0 -.04222147439 298.53260369427 723.65714857524)"/><path d="m2695.68 16298.6 1.2-7.5c-1.15-7.8-4.21-7.4.91-15.9 25.56-43.4 49.91-87.5 69.73-134 0 0 35.61-65.8 61.54-112.9 21.38-38.6 43.66-76.6 68.84-112.8l.51-.7c84.7-112.6 192.84-206.6 294.74-302.5 174.97-163.2 390.56-286.3 585.25-416.6 364.7-243 777.3-418.1 1193.23-535.4 169.41-47.8 342.69-85 518.07-99.8 433.8-36.8 877.14-31.8 1287.77 112.3 198.69 69.7 388.48 174.4 516.04 348l.96 1.2c13.86 22.4 26.28 45.7 37.74 69.4 0 0 5.77 25.9 9.47 44 1.44 7.3 3.02 14.4 4.53 21.6 8.17 38.2 17.36 76.2 29.5 113.3 5.43 16.5 10.02 26.6 18.19 48.8-14.07-29.7-5.35-15.1-21.96-47.2-26.97-52.1-61.89-100.9-106.56-139.3 0 0-22.16-31.7-43.5-56 0 0-24.91-32.1-46.87-55.4-125.29-133-298.27-215.9-468.57-271.3-272.2-88.5-561.52-116.9-848.99-110.3-210.34 5.2-421.55 11.4-628.12 53.5-459.92 94-905.7 275.3-1298.08 512.6-146.17 88.4-288.08 184.1-428.8 278.5-131.17 88.1-249.69 192.1-365.57 301.3-121.15 114.6-219.54 251.1-310.38 390.8-28.69 35.1-58.1 70-89.6 102.2-8.68 8.9-22.45 19.5-22.45 19.5l-10.83-1c-7.93 1.2-7.85 3-7.94 1.6z" fill="#0c0d16" transform="matrix(-.03847142271 0 0 -.03847142271 298.53260369427 723.65714857524)"/><path d="m5120.46 16243.1c114.31-58 227.91-117.1 340.07-178.8l1.31-.7c27.73-13.3 65.58-31 65.58-31 53.73-25.1 112.75-40 173.29-57.6 60.7-17.7 121.92-33.6 183.57-47.9l5.5-1.2c462.21-95.3 955.73-88 1386.92 67.3 125.79 45.3 238.33 118 351.38 192.4 0 0 33.43 29.5 72.34 50.7l-1.45 9-7.21 24.3-10.47 21s1.2 9.4-9.93 6c-29.83-9.1-58.58-21.6-86.69-35.3l-2.95-1.5c-64.55-40.9-124.5-87.7-194.5-121.7-224.76-109.5-477.23-157.7-724.3-173.7-251.03-16.2-505.52 6.3-750.72 57 0 0-64.87 12.3-118.5 24.4-78.55 17.8-156.39 38-233.31 60.9 0 0-49.22 12-86.52 18.8-122.62 23.2-240.98 62.9-353.42 117.7 0 0-.17.1.01-.1z" fill="#0c0d16" transform="matrix(-.03422509502 0 0 -.03422509502 298.53260369427 723.65714857524)"/><path d="m2705.88 16295.8-6.84-11.7c2.35-14.6 5.61-35.7 5.61-35.7 11.56-42.6 24.71-84.7 39.25-126.4l.17-.3c13.58-30.2 28.2-59.8 43.86-89 31.48-58.5 67.05-115.2 107.17-168.6 11.47-15.3 18.37-23.2 26.74-33.3 268.1-324.7 638.39-545.8 1015.52-719.6 141.29-65.1 289.5-131.7 443.72-127.6 84.11 2.3 172.97 45.4 188.76 139 14.75 87.6-30.28 172.2-74.69 242.6-159.47 253.3-396.59 478.1-688.46 536.5-90.35 18.1-200.06 14.4-239.62-72.1-11.5-25.1-9.88-61.6.8-92.3 0 0 15.84-28.6 32.77-49 71.85-86.9 176.37-155.3 274.99-225.8l8.84-6.2-8.65 6.4c-76.64 57.1-150.58 119.2-200.05 200.6-2.07 3.3-31.04 48.5-31.65 95.4l2.9 33.8c25.79 42.9 108.88 31.7 171.34 16.1 215.38-54.1 394.08-218.4 535.43-398.2 55.13-70.2 112.36-144.4 127.24-232.5.48-3 .91-6 1.25-9 3.55-31.4-8.09-67.2-39.07-82.7-53.04-26.4-120.05-12.9-181.38 1.2-144.02 33.3-279.37 98.6-411.63 165-335.13 168.2-659.79 376.9-886.97 665.2-2.12 2.6-4.3 5.2-6.43 7.7-58.52 70.3-111 145.5-154.7 225.2-23.32 34.8-44.19 71.1-62.73 108.7 0 0-10.09 16.2-18.48 31.3 0 0-12.93 9.5-15.01 5.3z" fill="#0c0d16" transform="matrix(-.03930030926 0 0 -.03930030926 298.53260369427 723.65714857524)"/><path d="m4473.12 16287.6c-2.43-19.7 2.23-14.7 5.84-15.6 25.63-6.2 50.82-13.9 75.5-23.1 0 0 46.85-12.1 89.71-27 159.02-55.2 303.93-140.8 444.1-222.4 208.02-121.2 409.34-261.5 561.85-443.7 87.16-104.2 157.89-236.7 149.06-362.1-8.61-122.7-166.06-170.6-301.79-179.2-219.7-13.9-442.88 43.2-645.75 127.4-114.67 47.6-226.41 108.7-304.19 208.4-36.6 47-64.36 108.6-34.16 163.7 34.79 63.7 116.4 91.6 187.78 104.2 246.28 43.4 508.6-60.8 712.27-186.9 0 0-18.64 11.8-34.28 21.2-152.63 91.6-317.36 167.6-489.22 208.7l-1.01.2c-76.42 15.5-155.33 22-231.82 10.1-88.46-13.8-180.87-61.9-215.96-147.6-34.44-84.1 11.65-183.3 70.63-249 107.25-119.2 262.28-189.4 413.55-242 241.86-84.2 503.45-134.9 753.2-65.9 84.97 23.5 162.67 77.4 187.93 167.4 28.08 100.1-5.09 206.8-48.22 297.3-97.3 204.2-281.69 360.2-459.97 484.1-130.81 90.9-269.55 170.9-410.22 243.6-119.82 61.9-247.03 106.9-382.21 130.7l-.72.1c-29.46 1.8-58.98 3.1-88.51 3.7 0 0-.86 6.1-3.39-6.3z" fill="#0c0d16" transform="matrix(-.04385205789 0 0 -.04385205789 298.53260369427 723.65714857524)"/><path d="m3724.02 16298.7c-30.43-1.4-53.93-30-52.43-63.8 1.48-33.8 27.4-60.2 57.83-58.9 30.49 1.4 53.98 30 52.48 63.8-1.48 33.8-27.4 60.2-57.88 58.9z" fill="#0c0d16" transform="matrix(-.03971105686 0 0 -.03971105686 298.53260369427 723.65714857524)"/><path d="m6456.93 16294.7c-119.93-5.3-213.88-88.1-209.62-184.8 4.27-96.7 105.14-170.9 225.07-165.6 119.97 5.3 213.92 88.1 209.66 184.8-4.27 96.7-105.14 170.9-225.11 165.6z" fill="#0c0d16" transform="matrix(-.0375213709 0 0 -.0375213709 298.53260369427 723.65714857524)"/><path d="m6243.54 16297.8c-51.12-2.3-90.7-47.2-88.36-100.2s45.71-94.2 96.83-91.9c51.11 2.2 90.74 47.1 88.4 100.1s-45.76 94.2-96.87 92z" fill="#0c0d16" transform="matrix(-.03548267957 0 0 -.03548267957 298.53260369427 723.65714857524)"/><path d="m4558.56 16298.5c-34.8-1.6-61.22-43.6-59.01-93.8 2.22-50.2 32.23-89.8 67.04-88.3 34.75 1.6 61.16 43.6 58.95 93.8-2.21 50.3-32.22 89.8-66.98 88.3z" fill="#0c0d16" transform="matrix(-.03477179057 0 0 -.03477179057 298.53260369427 723.65714857524)"/><path d="m5461.42 16298.3c-38.35-1.7-68.57-24.4-67.42-50.6 1.16-26.3 33.26-46.2 71.62-44.5 38.41 1.7 68.63 24.3 67.47 50.6-1.16 26.2-33.26 46.2-71.67 44.5z" fill="#0c0d16" transform="matrix(-.03326369221 0 0 -.03326369221 298.53260369427 723.65714857524)"/><path d="m4872.47 16298.8c-26.65-1.1-47.42-21-46.4-44.3s23.47-41.3 50.13-40.1c26.6 1.1 47.37 21.1 46.34 44.3-1.02 23.3-23.47 41.3-50.07 40.1z" fill="#0c0d16" transform="matrix(-.04036651077 0 0 -.04036651077 298.53260369427 723.65714857524)"/><path d="m4586.64 16298.1c-43.51-1.9-77.16-41.3-75.1-88 2.05-46.6 39.05-82.9 82.55-80.9 43.51 1.9 77.16 41.3 75.11 87.9s-39.05 82.9-82.56 81z" fill="#0c0d16" transform="matrix(-.04323118491 0 0 -.04323118491 298.53260369427 723.65714857524)"/><path d="m6998.89 16298.9c-23.98-1-42.77-18.6-41.82-39.1.87-20.6 21.07-36.4 45.12-35.4 23.97 1.1 42.69 18.6 41.82 39.2-.95 20.6-21.15 36.4-45.12 35.3z" fill="#0c0d16" transform="matrix(-.03919947019 0 0 -.03919947019 298.53260369427 723.65714857524)"/></g><path d="m8770.94 16288.2c-.31-.4-.62-.7-.92-1.1 5.27 3.4 10.47 6.8 15.75 10.1-5.05-1-9.79-3-14.14-6-3.06-2.6-6.2-5.2-9.33-7.9-4.44-4.5-7.5-9.7-9.18-15.7-2.75-5.8-3.83-12-3.29-18.6.08-6.6 1.68-12.6 4.9-18.2 2.21-5.8 5.73-10.8 10.55-14.9 4.51-4.4 9.79-7.5 15.75-9.2 5.81-2.7 12.01-3.8 18.58-3.3 4.21.8 8.41 1.6 12.62 2.3 7.95 2.6 14.76 7 20.49 13.2 2.37 3.3 4.67 6.6 7.04 10 3.97 7.6 5.81 15.7 5.43 24.3-.77 4.2-1.53 8.4-2.3 12.6-1.68 6.2-4.82 11.4-9.17 15.9-3.6 5-8.26 8.9-13.92 11.6-4.67 2.7-9.48 4.2-14.61 4.8 5.51-2.9 11.01-5.8 16.52-8.7-.38.3-.69.7-.99 1-3.37 3.3-7.27 5.5-11.63 6.8-4.36 2-8.87 2.8-13.68 2.4-3.14-.6-6.2-1.1-9.33-1.7-5.89-1.9-10.94-5.1-15.14-9.7z" fill="#9fadb1" transform="matrix(-.03452154075 0 0 -.03452154075 298.53260369427 723.65714857524)"/><path d="m8571.31 16270c-.32-.3-.64-.6-.96-.9 5.79 4.9 11.66 9.9 17.44 14.8-2.06-1.7-4.28-3.2-6.42-4.8-18.94-13.8-33.12-31.7-38.51-55-3.01-12.8-2.62-22.1-1.27-34 10.3 14.9 20.68 29.8 30.98 44.7-5.78-2.7-11.57-5.2-16.95-8.7-3.73-2.3-6.18-3.6-9.75-7.6-2.46-2.8-2.85-2.3 3.96 2.7 5.23 1.7 10.38 3.4 15.61 5-5.46-1-11.17-1-16.56-2.6-6.66-2.2-14.02-7.9-16.4-14.3-1.98-5.4-2.06-13.4-.08-18.9 2.53-7.3 7.92-13 13.31-18.4-2.85 4.5-5.78 8.9-8.64 13.4.4-1 .48-2.1.8-3.1 2.06-7.2 6.89-12.5 11.72-18 4.44-5 9.99-8.8 15.93-11.9-5.62 5.1-11.25 10.2-16.8 15.4 4.2-11.4 11.02-21.2 20.29-29.3 11.49-10.4 24.8-17.4 39.86-20.9 8-2.2 16.24-3 24.72-2.4 12.28.1 23.62 3.1 34 9.2 6.74 3.1 12.44 5.7 18.22 10 13.08 8.6 23.3 19.7 30.67 33.5 2.7 7.2 5.39 14.5 8 21.7 3.57 16.1 2.86 31.9-2.05 47.5-3.25 11.5-9.04 21.4-17.36 29.7-6.74 9.5-15.37 16.8-26.07 21.9-10.54 6.1-21.79 9.1-33.68 9.2-11.97 2.1-23.85 1-35.58-3.2-14.9-4.9-27.73-13.2-38.43-24.7z" fill="#fff" transform="matrix(-.03331199993 0 0 -.03331199993 298.53260369427 723.65714857524)"/></svg>