<svg height="200" viewBox="0 0 200 200" width="200" xmlns="http://www.w3.org/2000/svg"><path d="m16245.8 4839.04c-53.7 298.27-185 571.14-379.6 789.04-160.5 179.59-366.2 323.89-595.1 417.24-227.7 92.95-474.3 133.9-713.8 118.56l-10.3-.72c-224.3-16.53-446.4-80.58-642.2-185.12-190.6-101.77-364-247-501.8-420-137.6-172.94-240.1-374.38-296.3-582.54-52.7-194.86-66.7-397.68-41.8-602.88 24-197.36 82.7-387.15 174.4-564.23 6.5-18.24 14.9-33.78 26.6-49.25 95.1-169.38 216.5-316.71 360.8-437.97 309.2-259.7 716-392.09 1117.6-374.38 113.5 5 226.5 21.99 336.8 51.48 480.5 128.63 894.2 496.5 1079.6 960.01 109.9 274.85 139.3 579.38 85.1 880.76" fill="#0c0d16" transform="matrix(-.05807573734 0 0 -.05807573734 952.26657612563 364.56434705188)"/><path d="m16247 4220.2c-91.2-370.3-327.9-706.03-655.2-901.87-497.9-298.03-1128.7-296.57-1619 14-234.2 148.33-471.8 410.79-578.6 666.62-69.8 167.43-96 349.8-107.1 530.83-13.8 225.9-3.4 460.23 91.8 665.56 78.3 168.82 208.6 307.25 340.9 438.19 122.2 120.91 249.8 239.63 401 321.52 114.3 61.85 239.9 101.34 367.6 125.23 320 59.99 658.9 21.77 954.7-114.41 500.3-230.41 801.3-698.33 843.8-1242.04 13.1-168.56.6-339.32-39.9-503.63" fill="#385eb4" transform="matrix(-.0576104555 0 0 -.0576104555 952.26657612563 364.56434705188)"/><path d="m16188.2 3853.1c-44.4-45.42-88.8-90.77-133.2-136.18 52.9 36.11 105.9 72.36 162.4 102.55-41-39.08-82-78.09-123-117.16 47.4 26.39 94.8 52.86 142.3 79.25 1.8.97 3.9 2.07 5.9 1.45s3-3.86 1-4.76c-34.4-26.32-68.8-52.58-103.1-78.91 54.5 23.02 107.7 48.94 159.5 77.6-14.8 10.14-32.8 14-49.8 19.51-17 5.58-16.3 33.7-25.2 49.21-8.9 15.5 8.8 47.28 25.6 53.34" fill="#2a3b89" transform="matrix(-.0554740587 0 0 -.0554740587 952.26657612563 364.56434705188)"/><path d="m16270.3 4737.59c-4 15.9-11.4 34.2-27.4 37.92-17.9 4.11-33.3-12.47-43-27.98-31.2-49.72-50-106.01-73.9-159.65-13.2-29.77-28-58.68-44.1-86.92l101.1 137.18c-9.5-10.88-101.7-303.26-401.3-625.35-127.2-136.64-234.9-226.27-316.9-284.42 6.2 3.05 11.2 5.57 14.5 7.16-58.4-47.41-119.8-91.03-183.7-130.48 84.5 36.93 169.1 73.86 253.7 110.79-57.3-41.84-114.6-83.67-171.9-125.44 94.7 52.84 189.4 105.75 284.1 158.65 16.2 9.02 35.5 18.3 52.4 10.68 16.5-7.36 22.9-28.71 18.8-46.28s-16.2-32.09-28.4-45.35c-55.1-59.93-121-109.92-193.5-146.72 63.5 25.92 127.2 51.78 190.8 77.64-41.5-30.63-83-61.26-124.4-91.89 41.8 14.25 83.6 28.51 125.4 42.76-66.1-95.6-157.1-170.66-246.9-244.51-35.7-29.37-71.4-58.75-107.2-88.12 245 78.44 456.2 246.7 608.2 454.16 152.1 207.45 247.6 452.69 301.5 704.23 25.4 119.08 41.8 243.79 12.1 361.94" fill="#2a3b89" transform="matrix(-.05766512707 0 0 -.05766512707 952.26657612563 364.56434705188)"/><path d="m14882 3534.01c522.5 292.94 949.2 753.78 1201.1 1297.25 57.3 123.5 106.4 254.25 110.2 390.32 98.7-153.75 106.7-363.27 21.9-525.19-43.6-83.16-108.5-152.82-162-229.99-46.6-67.2-84.4-140.12-129.4-208.59-111.8-170.3-265.8-309.62-433.2-425.75-167.4-116.05-344.9-193.43-525.8-287.22" fill="#2a3b89" transform="matrix(-.05751640511 0 0 -.05751640511 952.26657612563 364.56434705188)"/><path d="m16300 5203.26c-2.8-16.05-6-31.96-9.6-47.8 1.4-3.88 2.7-7.69 4-11.5z" fill="#2a3b89" transform="matrix(-.05718493481 0 0 -.05718493481 952.26657612563 364.56434705188)"/><path d="m16017.4 5637.92c-116.7 139.01-254 267.72-423.5 332.54-5.2 1.94-10.6 3.95-16.2 3.62-21.5-1.21-26.5-30.44-25.9-51.98 1.5-53.18-2.8-106.43-12.1-158.75l61.6 122.02s42.9-295.95-271-610.89c-282.1-283.11-749.7-451.69-841.3-482.86 276.5 91.11 545.7 196.08 792.2 351.07-191.7-137.54-388.6-255.94-603-354.55 262.4 110.38 518.1 236.75 765.1 378.23-188.2-146.23-377.9-293.4-590.7-400.57 234 84.96 456.2 202.23 658.5 347.46-125.2-142.49-275.3-263.04-441.5-354.48 203 74.79 392.1 187.37 554.5 330.2-76.5-105.83-166.9-201.63-268.1-284.18 119.1 67.63 233.7 143.16 342.9 225.77-29.5 14.59-37.8 50.11-34.3 85.57 3.6 36.52 27.6 75.46 68.1 76.93 28.9 1.07 51.7-19.41 54.9-47.9 2-16.86-6.6-33.65-19.8-44.15 3.8-6.36 6.5-13.72 7.5-22.35 2.8-25.55-20.9-56.19-48-54.99-8.4.34-15.7 1.95-22.3 4.29-37.6-76.93-92.6-145.3-159.9-198.15 89.8 65.89 177.6 134.53 263.2 205.84-48.5-104.43-114.4-200.69-194.3-283.64 108.5 79.94 203.7 177.74 280.8 288.19-35.8-128.98-99.5-250.19-185.5-352.81 79.4 75.59 153.7 156.53 222.3 242.03-43.4-152.66-119.6-295.95-222-417.3 96.6 99.01 186.1 204.84 267.9 316.42-66.2-166.91-161.9-322.04-281.3-456.1 95 92.32 190 184.63 285 276.95-114.3-167.84-236.1-330.46-364.9-487.4 155 145.76 307.2 296.08 432.8 467.8 116 158.61 208.8 337.16 250.9 528.68-58.5 177.14-162.6 336.49-282.6 479.44" fill="#2a3b89" transform="matrix(-.05715129076 0 0 -.05715129076 952.26657612563 364.56434705188)"/><path d="m14777.5 5122.35c213.6 37.02 417.3 117.35 614.9 206.64 87 39.33 173.7 80.76 252.5 134.57 131 89.44 237.5 211.13 325.8 342.97 104.2 155.91 186.5 336.32 178.2 523.72 43.7 23.02 84.8-25.41 120.9-59.06 8.8-8.19 17.7-16.59 23-27.37 6-12.24 6.7-26.31 6.8-39.95.4-187.97-104.5-358.92-216.8-509.59-57-76.41-117.4-151.15-189.9-212.87-62.7-53.26-133.5-96.01-205.7-135.27-250.2-135.76-522.1-231.49-802.2-282.36" fill="#2a3b89" transform="matrix(-.05463372223 0 0 -.05463372223 952.26657612563 364.56434705188)"/><path d="m16178.5 6371.21c-194.1 82.91-412.1 109.02-620.2 74.32-208.3-34.69-406-130.05-562.8-271.36 107.1 86.2 244.4 123.22 377.5 158.06-147.8-80.65-289.4-172.35-423.4-274.18 159.9 100.42 320.9 185.01 490.6 242.79-186.9-100.28-351.4-210.21-513.1-372.98 157.7 138.42 347.5 239.55 544.9 315.62-193.5-98.38-372.3-225.41-528.9-375.72 132 119.28 286.5 209.92 445.8 287.47-171.2-108.72-328.8-238.71-468.2-386.07 166 151.59 350.6 300.36 572 338.78-16-6.4-31.6-13.51-46.9-21.04l24-2.81s-250.9-178.89-352.9-318.94c-66.1-90.92-78.7-144.83-63.6-192.9 15.1-48.06 91-66.43 310.1 3.73 219.1 70.1 442.4 191.49 442.4 191.49s-96.5-83.18-216.7-162.63c106 59.39 202.9 134.83 285.4 224.07-130.8-217.04-357.9-358.14-590.1-459.4 220.8 56.65 447.4 142.71 620.2 291.41 51.8 44.62 100.5 92.69 147.8 142.02 122.2 127.59 220.9 295.57 247.6 470.31z" fill="#2a3b89" transform="matrix(-.05432633801 0 0 -.05432633801 952.26657612563 364.56434705188)"/><path d="m16300 6409.97c-9.6-6.12-19.1-12.47-28.6-19.03 13.4 7.54 24 14.18 28.6 19.03" fill="#2a3b89" transform="matrix(-.05122993899 0 0 -.05122993899 952.26657612563 364.56434705188)"/><path d="m16197.1 5825.8c-89.8 4.28-180.8 22.4-264.4 56.31 59.4-4.67 120.3 7.93 178.9 8.56-66.8-.7-133.7 21.31-187.1 61.44 58-12.83 118-16.56 177.2-11.04-56.8 17.97-110.5 45.73-157.9 81.67 53.9-13.3 109.6-18.98 165.1-16.72-58.7 20.07-111.9 55.92-152.5 102.82 49.6-25.2 105.3-38.42 161-38.03-48.6 23.34-94 53.2-134.7 88.52 47.3-9.42 94.6-18.83 141.9-28.32-36.7 24.19-76.7 53.13-84.3 96.45-3.2 17.81-.3 36.09 3.2 53.83 6 30.49 14 60.51 23.5 90.07 30.5 58.96 72.4 124.84 92 187.61-188.6-192.12-329.8-430.37-408-687.9 173.5-77.09 363.6-102.29 549-61.45-29.4 6.92-72.8 14.78-102.9 16.18" fill="#52ace4" transform="matrix(-.04915241926 0 0 -.04915241926 952.26657612563 364.56434705188)"/><path d="m15757.4 5339.32c12.6-10.67 15.6-27.39 10.7-41.89 1.2-5.14 1.4-10.43.3-15.57-4.3-21.48-16.8-45.56-32.3-60.98-13-12.96-30.4-21.4-49.3-17.49-19.6 4.07-32.9 20.33-39.4 38.43-19.7 55.39 54.7 144.29 110 97.5zm396.4-627.93c-142.4-.85-284.9 13.5-424.3 42.8 129-4.45 258.5 7.13 384.6 34.37-136.8-1.62-273.7 16.26-405.4 53.08 131.4 3.14 262.4 20.25 390.2 50.93-140.5-9.43-282.7 7.29-417.2 49.02 205.8-19.72 414.1-13.43 618.3 18.79-197.1 10.82-393.8 27.54-589.9 50.17 149.1-4.3 298.6 11.96 443.2 48.25-152.8-19.72-308.9-12.2-459.1 22.09 120.1 24.39 241.6 49.25 352.1 102.4-108.2-27.15-221.1-35.21-332.1-23.63 85.8 33.76 175.5 57.61 266.7 70.81-74.1-11.2-150.6-6.21-222.6 14.5 79.8 18.41 158.6 41.26 235.9 68.49-95.3.16-190.5 17.49-279.7 50.86 86.7 4.99 172.9 20.02 256.1 44.8-128.6.31-257.2 20.02-380.1 58.15 93.8.07 187.7.07 281.5.07-146.6 6.52-263.7 29.92-393.9 97.65-85.6-364.74 28.9-768 196.5-1109.65 136-70.73 272.2-106.17 425-118.75-107.2 22.48-211 61.29-306.6 114.6 69.8-25.08 143.9-38.27 218.2-38.81-100.2 28.84-195.4 74.56-280.5 134.55 90.2-23.09 182.5-37.59 275.5-43.27l-271.1 110.15c90.4-17.41 183.2-21.78 274.9-13.11-102 20.17-201.5 52.85-295.4 97.11 145.9-17.8 294.6-13.19 439.2 13.58" fill="#52ace4" transform="matrix(-.04984097521 0 0 -.04984097521 952.26657612563 364.56434705188)"/><path d="m16300 4022.13c-159.2-20.75-319.6-32.48-480.2-35.18-39.2-.6-79.2-.68-116.6 11.43-37.3 12.02-72.2 38.18-84.8 75.32 116-32.62 230.8-53.37 351.2-49.76 106.5 3.23 225.5 17.44 330.4-1.81" fill="#52ace4" transform="matrix(-.050855649 0 0 -.050855649 952.26657612563 364.56434705188)"/><path d="m16300 3465.31c-291.5-85.85-609.9-38.44-890.9 77.03-50.3 20.58-100.1 43.68-142.8 77.32 232.9 8.39 469.1 40.02 698.6 80.68-101.3-48.77-213.7-68.56-324.5-87.93 111.2 1.01 222.3 14.56 330.5 40.24-97.6-38.59-199.8-65.41-303.8-79.76 103.5 6.32 206.7 17.65 309.2 34.07-32.5-17.07-68.5-25.82-104.2-34.42-58.8-14.21-117.6-28.41-176.4-42.61 127.8 8.04 255.4 19.73 382.6 35.08-80.8-30.05-163.2-55.66-245.4-81.34 116.5 12.91 233.1 25.82 349.6 38.73-73.2-19.36-146.4-38.87-219.5-58.31 112.9 3.59 224.1-2.29 337 1.22" fill="#52ace4" transform="matrix(-.05330592944 0 0 -.05330592944 952.26657612563 364.56434705188)"/><g fill="#0c0d16" fill-rule="evenodd"><path d="m14541.5 6000.36c-592.3-43.6-1139.4-479.09-1299.4-1071.41-121.6-449.96-11.7-954.03 290.3-1313.31 294.1-349.75 757.4-547.6 1213.8-516.11 452 31.17 883.7 286.56 1129.2 674.12 286.1 451.93 299.4 1063.71 12.5 1533.2-273.9 448.11-808.5 728.09-1337 694.16-3.2-.19-6.3-.39-9.4-.65zm3.2 93.96c466.3 29.98 941.9-162.28 1256.4-514.4 378.1-423.39 498.9-1062.46 282.7-1603.02-177.8-444.57-572.5-797.47-1036.4-921.69-478.1-127.89-1014.9-10.32-1396.3 310.04-444.3 373.22-656.1 1007.88-499.3 1588.17 110 407.01 393.6 763.4 766.3 962.51 190.2 101.59 402.2 161.89 616.6 177.73 3.3.2 6.7.46 10 .66z" transform="matrix(-.05814340775 0 0 -.05814340775 952.26657612563 364.56434705188)"/><path d="m16139.3 5299.91c-59.4-5.15-91.8-109.1-14.7-133.13 37.9-11.74 83.7 16.68 88.2 57.67 4.3 38.45-29.3 76.83-70.2 75.66-1.1 0-2.2-.07-3.3-.2zm-.9 46c88.4 4.6 161.6-118.64 88.3-193.69-51.2-52.59-155.9-38.93-187.1 35.57-27.4 65.5 20 151.25 96 157.98 1.4.07 1.4.07 2.8.14z" transform="matrix(-.05568395165 0 0 -.05568395165 952.26657612563 364.56434705188)"/><path d="m16184.1 4452.03c-67.5-6.01-124.9-113.96-59.7-130.74 43.6-11.18 97.5 30.02 105.9 79.35 4.2 24.14-13 52.53-43.1 51.61-.9-.08-2-.15-3.1-.22zm-1.2 47.43c39.5 2.12 79.9-20.03 91.8-60.38 25.3-84.94-73.1-188.07-163.4-163.37-27 7.43-49.7 28.31-58.3 55.85-23.1 73.47 45.6 162.31 129.9 167.9z" transform="matrix(-.05401207205 0 0 -.05401207205 952.26657612563 364.56434705188)"/><path d="m16210.3 3865.4c-31.6-2.73-62.2-30.61-64.1-63.61-.7-11.71 9.1-23.49 23.6-22.67 31.7 1.78 63.2 30.75 65.1 63.69.7 11.43-8.7 23.08-22.6 22.73-.7-.07-1.3-.14-2-.14zm-1.6 45.82c29.6 1.5 59.8-14.45 69-45.06 22.3-73.55-78.2-166.54-147.9-122.65-4.4 2.74-8.4 6.03-12 9.73-2.7 2.94-5.2 6.16-7.4 9.59-1.7 2.73-3.2 5.61-4.5 8.55-25.4 58.83 36.3 135.73 102.8 139.84z" transform="matrix(-.05583037971 0 0 -.05583037971 952.26657612563 364.56434705188)"/><path d="m16173.9 5058.81c-41.8-3.44-75.1-47.41-73.8-90.86 1.6-51.99 65.8-108.24 121.8-51.91 43.4 43.75 33.6 144.12-44.4 142.92-1.2 0-2.4-.07-3.6-.15zm-.6 50.19c65.2 2.77 123.8-56.33 125.1-125.02 1.6-82.7-84.6-163.75-167.2-134.54-49.7 17.46-82.7 71.09-81.2 125.03 1.7 64.94 52.2 127.86 118.6 134.24 1.6.07 3.2.22 4.7.29z" transform="matrix(-.05103801501 0 0 -.05103801501 952.26657612563 364.56434705188)"/><path d="m16194 5488.59c-45.1-3.72-70.2-83.32-14.1-102.76 43.3-15.02 93.5 51.85 51.6 89.95-10.2 9.25-22.8 13.91-37.5 12.81zm-.8 39.76c43.5 1.98 85.4-31.15 93.4-74.47 13.4-71.85-84.9-144.1-148.8-88.69-52.6 45.54-31.4 154.7 52 162.92 1.2.08 2.3.16 3.4.24z" transform="matrix(-.04836484277 0 0 -.04836484277 952.26657612563 364.56434705188)"/><path d="m16265.6 4946.53 15.3-5.71 11.8-11.09 6.8-14.81.5-16.27c-13.8-84.2-44.2-165.61-78-244.7-206.7-485.9-639.9-863.22-1125.6-1062.24-399.4-163.62-839.6-226.31-1271.8-181.42-14.5 1.46-35.7 4.25-35.7 4.25l-15.3 5.38-12.2 10.89-7 14.61-.9 16.2 5.4 15.41 10.9 12.08 14.7 7.04 16.2.87c3-.47 6.1-.87 9.1-1.2 171.8-21.12 348.3-17.86 522.5-1.79 422.4 39.05 837.1 175.71 1181.6 425.13 311.5 225.58 569.7 536.23 681.4 903.66 8.9 29.28 17.2 58.96 22.4 89.05l5.8 15.54 11.1 11.82 14.8 6.77c5.4.13 10.8.33 16.2.53z" transform="matrix(-.05757260595 0 0 -.05757260595 952.26657612563 364.56434705188)"/><path d="m16239.3 6323.42c46.2-4.33 52.5-74.96 53.9-136.78 6.8-272.01-158.8-528.59-381.7-704.9-256.1-202.72-573.2-329.85-881.7-397.89-324.5-71.6-677.9-73.13-972.9 77.33-21.6 11.04-43 22.77-62.9 36.61 0 0-32.6 39.39-6.8 66.36 29.1 30.52 79.8-10.97 127.9-33.95 358.3-170.59 807.1-109.95 1165.9 17.25 226 80.12 444 184.9 626.2 344.66 136.2 119.52 248.3 274.46 285.6 454.33 15.1 72.93 21.5 149.84 3.1 221.65 0 0-2.2 40.1 25.1 51.76 10.7 4.61 14.2 3.43 18.3 3.57z" transform="matrix(-.05473083118 0 0 -.05473083118 952.26657612563 364.56434705188)"/><path d="m16276.3 6435.75 23.7-2.76c0-16.06-1.3-39.61-1.3-39.61-51-329.79-290.3-606.73-560.1-762-152.6-87.79-315.3-166.17-481.4-182.79-111.9-11.11-254.2 27.8-255.9 169.98-1.1 94.44 61.1 173.53 129 251.06 104.3 119.19 232.6 221.76 371.8 281.25 82 35.09 190.3 57.44 228.3-30.91 35.6-82.69-22.5-185.12-78.8-251.76-26.9-31.9-56.5-61.54-89.6-87.29-88.2-68.69-219.5-87.08-336.2-118.84l16.2 4.74s73 21.15 126.4 48.6c58.2 29.78 108.5 71.16 153.6 114.31 0 0 31.3 25.68 53.9 49.17 54.9 57.15 112.6 127.11 100.5 200.82-1.9 11.75-6.5 23.7-15.8 30.99-22.1 17.61-53.3 7.07-76.6 1.41-99.3-23.84-188.6-86.58-264.1-148.2-97.4-79.36-193.7-170.27-239.4-285.36-1.4-3.39-2.7-6.86-3.9-10.32-15.8-46.34-6.5-104.42 46.9-134.91 63.2-36.07 142.2-17.18 210.6-1.13 162 38.27 315 119.48 452.6 210.31 131.2 86.58 249.4 197.36 329.3 332.69 3.8 6.36 7.5 12.8 11.2 19.24 4.4 7.64 8.6 15.42 12.9 23.2 47.2 88.78 84.4 183.71 103.7 282.53 0 0 5.4 19.38 9.2 37.56 7.7-.64 15.5-1.34 23.3-1.98z" transform="matrix(-.05404648073 0 0 -.05404648073 952.26657612563 364.56434705188)"/><path d="m15660.2 4485.18c153.2 9.33 307.9-15.97 453-64.59 79.9-26.83 175.1-64.01 181.8-160.6 5-71.37-59.2-132.83-127.5-173.51-96.6-57.52-211.2-79.83-317.4-100.38-311.1-60.07-638.9-43.09-924.1 90.98-51.1 23.98-101.1 51.54-143.7 88.21 0 0-21 20.19-33.4 35.79-16.4 20.49-22.1 36.45-28.2 58.54 0 0 6.1 10.21 10.8 18.38l18.3 5.02c9.9-1.23 11.4 3.72 18.1-4.15 7.7-8.68 20.3-19.32 20.3-19.32 44.5-55.99 183.8-129.47 301.1-167.31 269-86.82 568.2-65.03 838.4 1.1 87.6 21.43 176.3 48.04 243.6 108.62 20.4 18.44 39.3 44.76 26.2 64.66-30.8 47.53-93.7 60.73-144.9 76.04-201.5 60.87-419.9 91.42-618.9 10.13-33.7-13.85-77.4-31.71-85.4-58.32 0 0 .3-10.28 6.6-16.99 31.1-32.8 89.2-33.97 127.1-35.72 13.2-.51 26.4-.95 39.6-1.38l17.6-.51 18.4-3.07c23.4-3.57 44-6.77 67.6-9.69 54.5-6.63 54.6-6.42 107.3-11.23 0 0 65-5.39 116.9-7.14 17-.66 42.4-1.24 42.4-1.24-41.9.51-83.5-.73-125.1-3.57-16.6-1.1-20.8-1.46-34.2-2.63l-45.9-3.93c-31.6-3.43-63.1-6.71-94.6-11.01-24.7-3.36-31.7-4.45-53.1-7.8-70.8-1.83-143.4-5.98-206.5 27.99-42.7 23.04-70.7 77.71-49.5 123.28 34.8 74.79 137.6 107.96 219.9 129.98 51.3 13.78 104.5 21.87 157.4 25.37z" transform="matrix(-.05244341849 0 0 -.05244341849 952.26657612563 364.56434705188)"/><path d="m16296.5 5222.32c-15.3-26.83-53.2-54.82-85.2-45.38-32.9 9.73-31.5 68.27-21.8 92.75 14 35.04 75 90.34 100.1 33.73 10.4-23.59 4.4-54-2.2-77.86" transform="matrix(-.05544156161 0 0 -.05544156161 952.26657612563 364.56434705188)"/><path d="m16300 4401.9c-14.1-40.53-47.6-58.78-86-72.97-9.8-3.7-52.4-21.44-48.5 3.69 5.5 35.84 60.1 86.74 95.7 95.05 31 7.38 19.6-42.59 12.7-55.3" transform="matrix(-.05385685066 0 0 -.05385685066 952.26657612563 364.56434705188)"/><path d="m16291 3812.93c-7.7-8.92-43.8-42.85-57.6-26.71-18.2 21.43 4.6 59.34 18.7 76.72 12.9 15.66 41.7 30.08 45.6-1.24 2.3-18.82-9.8-42.44-21.3-56.73" transform="matrix(-.05566330645 0 0 -.05566330645 952.26657612563 364.56434705188)"/><path d="m16268.6 5080.13c31.4-32.81 24.4-93.9 10.6-132.86-8-22.52-25.5-46.31-52.8-37.68-55.8 17.64-53.5 127.9-14.1 160.48 30.5 25.22 70.9-14.19 79.4-41.81 4.2-14.18 3.3-28 .9-42.26" transform="matrix(-.05093517128 0 0 -.05093517128 952.26657612563 364.56434705188)"/><path d="m16277.6 5417.17c-16.8-48.18-98.9-51.03-82 9.25 13.3 47 104.4 60.6 78.9-3" transform="matrix(-.0483266109 0 0 -.0483266109 952.26657612563 364.56434705188)"/></g><path d="m16107.6 6137.44c1.4-1.82 2.8-3.55 4.2-5.29.7-1.04 1.6-2.08 2.4-3.12.2-.34.6-.69.8-1.04 6.6-11.09 15.4-19.84 26.3-26.26 5.1-3.55 9.8-7.28 15.3-9.96.7-.35 1.3-.61 1.9-.79 7.7-2.86 15.4-5.71 23.1-8.57 1.1-.26 2.4-.35 3.6-.53 16.5-3.72 33-3.03 49.2 2.17 15.5 5.12 28.8 13.61 39.9 25.65 11 12.05 18.2 26 22 41.95 3.7 16.56 2.9 33.03-2.2 49.23-.3 1.21-.4 2.43-.7 3.56-.2.43-.3.78-.5 1.12-3.6 7.46-7.1 14.91-10.7 22.36-3.3 5.81-6.8 9.71-11.4 15.26-4.7 7.1-10.8 12.65-18.3 16.64-3.7 2.69-7.5 5.29-11.3 7.97-.8.61-1.8 1.3-2.6 1.91-2 1.39-4 2.77-6 4.16-7.7 2.86-15.5 5.8-23.3 8.67-12.9 3.37-25.5 3.37-38.2 0-8.6-.44-16.5-2.95-23.7-7.54-11.7-4.43-21.7-11.45-29.9-21.15-4.7-6.68-9.4-13.35-14.2-20.02-2.8-7.71-5.7-15.52-8.5-23.23-3.5-12.83-3.5-25.57 0-38.14 1.1-12.74 5.3-24.35 12.8-35.01z" fill="#fff" transform="matrix(-.04411192973 0 0 -.04411192973 952.26657612563 364.56434705188)"/></svg>