<svg height="200" viewBox="0 0 200 200" width="200" xmlns="http://www.w3.org/2000/svg"><g fill-rule="evenodd"><path d="m5387.03 16283.6c-262.58 16.4-533.72-26.6-778.17-124.3-246.41-98.6-473.13-243.3-657.07-436.3-227.22-238.6-430.2-501.2-515.44-826.8-55.4-211.7-58.23-412.5-45.65-629.4 9.65-166.7 15.52-331.9 64.43-492.9 232.24-764.6 873.31-1271 1664.79-1344.4 404.38-37.4 655.9 31.5 1004.78 221.9 64.26 35.1 133.28 59.2 195.68 98.1 240.69 150 431.15 392 586.06 626.1 109.79 166 239.41 342.4 280.19 541.2 33.46 163.4 10.96 342.7-2.79 507.1-75.34 899.9-702.98 1715.5-1627.92 1834.2" fill="#f77724" transform="matrix(.0468413 0 0 -.0468413 -144.051423 775.373014)"/><path d="m8066.5 16216.8c-73.38-157.2-194.12-279.7-308.29-408.3-190.39-214.3-384.18-406.7-638.57-546.1-153.98-84.4-315.51-157.5-475.4-230-45.65-20.6-90.75-41.7-137.45-59.8-9.67-3.7-44-10.3-50.23-18.9-6.23-8.5 20.75 3.7 31.13 5.5 15.41 2.7 30.66 6.1 45.87 9.7 48.12 11.7 96.25 24 144.45 35.2 150.84 35 296.69 76.2 437.96 141.2 37.84 17.4 74.56 36.6 111.62 55.7 13.24 6.7 26.49 13.3 39.67 20.2 7.28 3.8 28.07 16.9 21.71 11.7-69.52-55.7-151.63-96.6-231.5-135-49.84-24-100.28-45.9-151.82-65.9-50.11-19.4-100.21-38.5-150.19-58.2-18.68-7.3-37.24-14.8-55.67-22.8-9.51-4.2-38.43-11.5-28.2-13.3 131.42-22.9 358.99 79.3 479.27 132.8 50.95 22.8 102.5 44.4 153.91 66.1 2.43 1 48.73 22.2 49.58 20.7.99-1.8-26.36-19.2-28-20.3-37.97-25.3-77.91-45.1-119.09-64.6-93.46-44-191.17-80.8-287.45-118.2-34.82-13.5-69.58-26.9-104.27-40.7-11.81-4.7-23.41-9.6-35.22-14.3-4.06-1.6-16.46-4.2-12.13-5 45.58-8.6 99.62 5.3 144.02 15.4 35.34 8.1 70.82 15.7 105.71 25.7 55.09 15.7 110.9 29.1 165.27 47.1 11.28 3.8 52.53 24.3 64.73 20.3.13-.1-20.79-17.4-42.63-33-34.96-24.9-72.99-45.3-110.44-66.3-100.21-56.4-207.11-102.9-314-145-31.81-12.6-63.81-24.8-95.36-38.1-12.26-5.3-24.4-10.8-36.59-16.1-5.45-2.4-22.11-6-16.27-7.3 47.29-10.7 115.88 12.3 160.68 25.3 118.04 34.1 234.58 75.8 347.25 124.8 17.25 7.5 140.47 75.5 152.41 73.7 11.08-1.8-16.07-15.5-24.27-23-13.9-12.6-28.33-25.1-42.88-37-48.27-39.7-103.69-72.5-157.14-104.7-149.13-89.9-312.82-149-472.58-216-1.96-.9 14.89 1.4 41.06 5.8 34.56 5.9 68.27 15.2 101.91 24.8 102.83 29.6 201.27 70.8 300.69 109.8 31.87 12.5 63.55 25.5 95.36 38.2 9.77 3.9 19.6 7.6 29.44 11.1 6.43 2.3 23.81 11.9 19.28 6.9-29.64-32.7-81.97-54.6-119.29-76.7-105.65-62.5-221.01-107.3-334.14-154.2-48.07-20-96.01-40.6-144.34-60.2-16.07-6.4-32.3-12.5-48.57-18.3-8.99-3.3-36.37-9.7-26.86-9.9 130.39-4 265.62 60.4 387.92 98.5 33.84 10.5 81.72 37.1 118.12 35.6 5.9-.2-10.3-5.8-15.55-8.5-15.87-8.2-31.93-15.9-48-23.6-40.33-19-80.08-39.1-120.28-58.4-121.13-58.1-247.44-106.5-374.97-148.6-34.4-11.3-69.21-22-103.98-32.1-12.75-3.7-25.58-7-38.45-10.2-5.09-1.2-20.43-4-15.22-3.9 122.27 1.6 255.97 48.2 373.32 78 666.11 169.1 1128.13 591.1 1381.54 1219.7 71.35 177 116.54 342.1 123.16 533.5 2.17 62.3 9.38 142.3-9.64 202.7" fill="#ba4323" transform="matrix(.04142402 0 0 -.04142402 -144.051423 775.373014)"/><path d="m6798.94 16300c-201-340.2-409.98-547.9-748.46-757.3-100.33-62.1-203.34-121.9-311.07-170.4-37.24-16.7-74.48-34.1-112.24-49.5-10.68-4.4-21.26-9.1-31.95-13.5-7.57-3.2-29.02-3.9-22.8-9.2 6.94-5.8 124.77 21.7 139.39 25.5 148.12 38.4 291.94 101.7 425.53 175.9 47.14 26.2 92.97 54.6 138.43 83.6 14.58 9.3 29.04 18.8 43.25 28.5 8.4 5.7 31.49 24.8 25.32 16.8-29.82-38.5-80.14-68.7-118.77-97.3-131.78-97.9-281.61-176.6-431.27-243.3-60.33-26.9-121.76-53.4-184.19-75-20.89-7.2-41.77-14.5-62.89-21.1-7.38-2.3-14.77-4.4-22.19-6.6-4.62-1.3-18.61-3.7-13.8-4.1 76.19-5.2 149.09 33.6 223.23 52.1 126.93 31.6 251.65 76.8 372.23 127.3 57.64 24.2 112.76 49.4 167.17 80.2 17.81 10.1 35.57 20.9 52.72 32 8.16 5.3 26.27 25.7 24.11 16.3-8.75-38.7-87.99-87.8-117.32-111-118.65-93.7-256.33-156.4-393.28-218.1-52.04-23.5-105.18-45.7-158.24-66.8-15.23-6.1-30.41-12.1-45.53-18.4-8.13-3.3-28.27-2.2-24.37-10.1 1.35-2.7 31.13 3.6 34.95 4.3 41.51 7.9 81.55 21 121.27 35.1 175.57 62.8 350.09 135.2 517.92 216.4 48.29 23.3 96.81 46.8 143.18 74 14.76 8.7 29.39 17.9 43.67 27.5 8.04 5.4 27.83 25.5 23.75 16.7-30.95-67-141.26-131.9-177.31-160.2-98.19-77.2-212.76-132.2-324.98-185.6-57.18-27.2-116.43-50.6-175.53-73.4-17.89-6.9-35.85-13.8-54.04-20-7.76-2.6-31.42-6.8-23.28-7.7 83.84-9.4 193.9 44.2 269.04 73.6 189.55 74.4 367.57 170.2 553.64 250.3.24.1-16.91-21-17.99-22.3-11.4-12.9-24.24-24.2-37.37-35.3-37.13-31.3-77.5-57.5-117.99-84.2-128-84.2-266.5-159.1-408.37-217.1-42.29-17.3-84.89-33.9-127.31-50.9-15.18-6.1-30.48-11.9-45.82-17.6-8.21-3.1-33.37-10.2-24.6-9.7 88.57 4.7 184.09 57.6 263.78 92.1 178.63 77.3 360.5 167.6 551.36 210.2 57.94 13 240.95 48.5 286.72-6.7 25.01-30.3 10.61-87.1-.78-119.8-37.25-106.8-146.9-183.9-241.13-236.7-22.44-12.6-81.04-60.2-107.73-57.9-3 .2 4.02 4.5 6.12 6.7 8.22 8.4 16.49 16.8 24.83 25.1 30.71 30.4 62.26 59.4 90.63 92 1.5 1.8 27.47 31.8 25.14 33.4-23.16 15.8-57.95 9.9-82.72 2.7-114.75-33.6-225.47-122-309.51-205.2-42.83-42.4-95.73-104.2-12.12-132.9 75.22-25.8 170-6 246.71 3.1 245.63 29.3 488.32 137.3 676.48 297.4 50.87 43.3 189.31 178.1 192.25 245 3.18 73.3-16.68 149.5-32.63 220.5-76.24 338.6-265.55 603.4-529.11 824.6" fill="#ba4323" transform="matrix(.0452909 0 0 -.0452909 -144.051423 775.373014)"/><path d="m7929.45 16300c-88.67-155.1-224.39-272.7-360.3-385.7-166.09-138.1-339.68-270.8-532-370.8-101.01-52.6-204.42-98.3-307.69-146-37.68-17.4-106.44-31.3-137.14-59.7-8.27-7.6 21.91 4.7 32.83 7.3 14.67 3.6 29.4 6.7 44.08 10.2 52.54 12.6 104.69 30.1 155.1 49.4 143.54 54.8 288.88 108.9 426.02 178.5 36 18.3 72.71 35.9 106.7 57.7 11.82 7.6 23.97 14.8 35.48 22.9 6.46 4.6 25.07 19.2 18.93 14.2-145.67-117.9-302.64-212.1-471.51-293.8-54.74-26.5-108.9-53.8-163.12-81.3-18.36-9.3-36.77-18.3-54.74-28.2-9.11-4.9-37.55-13.5-27.27-15.1 99.59-15.3 291.85 85.4 385.24 124.5 30.7 12.9 114.45 50.4 114.65 50.1 1.93-2.8-65.6-56.8-89.58-73.2-82.01-56.4-170.29-107.4-258.89-152.8-12.35-6.3-92.68-32.8-97.01-46.7 0-.2 27.34 6.5 48.8 12.8 30.18 9 59.52 21 89.44 31 89.38 29.9 176.88 67.9 262.51 107.4 277.58 128.2 525.68 386 720.98 617.7 51.7 61.2 118.33 127.7 148.32 203.3 38.45 96.8-7.88 122.9-104.7 85" fill="#ba4323" transform="matrix(.04203608 0 0 -.04203608 -144.051423 775.373014)"/><path d="m5055.93 16229c-226.7-85-443.43-227-618.49-393.9-57.18-54.5-106.54-115.6-153.58-178.9-15.02-20.2-28.9-41.2-43.09-62-6.84-10.1-31.03-36-20.24-30.4 37.98 19.7 72.5 71.5 104.22 100.5 83.54 76.3 168.42 148.1 261.67 212.4 48.17 33.2 97.35 64.6 147.86 94 15.72 9.2 31.83 17.8 47.98 26.2 7.21 3.8 27.85 16.4 21.77 11-98.61-88.3-213.08-156.1-305.31-252.2-31.15-32.5-61.17-66.1-91.81-99.1-10.97-11.8-21.58-23.9-32.37-35.8-4.42-4.9-18.87-17.7-12.81-15 58.44 25.5 113.3 79.3 163.28 117.9 78.04 60.3 161 113.5 248.16 159.7 47.55 25.2 96.8 46 146.7 66.1 17.75 7.1 35.93 13.2 53.93 19.7 9.52 3.4 36.68 16.5 28.42 10.6-109.61-77.2-227.52-138.9-333.62-221.9-33.58-26.2-68.09-52.8-99.09-82.1-10.9-10.3-22.01-20.4-32.52-31-6.04-6.2-26.32-18.8-17.7-18.9 48.38-.5 103.89 30.6 151.77 39.9 110.81 21.7 231.83 34.4 344.45 21.4 54-6.2 129.9-9.8 160.21-62.9 45.34-79.6-11.44-148.1-68.44-200.2-111.25-101.7-226.84-189.3-369.01-244-55.95-21.4-112.63-41.3-170.71-56.2-18.18-4.6-36.32-9.2-54.5-13.8-9.27-2.3-37.3-6.1-27.78-7.1 59.97-5.9 132.61 17.7 190.66 29.6 169.37 34.9 332.11 83.4 487.25 161.5 68.62 34.6 135.15 73.6 199.32 115.9 23.21 15.3 47.43 28.9 71.34 43 21.22 12.7 32.33 21.1 29.98 16.8-24.95-45.1-106.1-82.3-148.73-106.8-89.99-51.9-184-95.2-279.13-136.8-50.73-22.2-116.46-39.1-161.8-71.9-8.58-6.2 21.22-1.5 31.84-1.3 15.35.2 30.78 1.8 45.98 4 56.17 8.1 112.12 25.9 166.05 43.2 162.44 52 318.66 115.3 471.85 190.1 42.55 20.8 85.46 41.2 127.5 63 12.64 6.6 25.32 13.2 37.78 20.1 6.58 3.6 26.03 15.1 19.66 11.1-165.06-105.1-336.13-192-519.15-262.1-69.35-26.5-138.37-54.1-208.56-78.3-14.51-5.1-56.88-9.6-66.99-21.6-7.6-9.1 23.68 1.6 35.42 3.2 19.95 2.7 39.8 6.3 59.6 9.9 54.07 10 107.67 23.9 160.43 39.3 152.75 44.4 305.85 93.8 452.52 155.7 40.56 17.1 80.17 36.2 119.93 55.1 15.35 7.2 30.76 14.1 45.88 21.9 5.97 3.1 23.23 13.7 17.96 9.4-135.36-110.1-329.86-177.1-492.42-233.9-59.71-20.8-119.68-41-180.85-57.3-18.06-4.9-36.25-9.5-54.35-14.3-9.23-2.4-37.19-5.6-27.77-7.3 64.93-11.9 136.81 6.6 199.96 20 128.27 27.3 252.95 66.4 378.61 103.4 58.41 17.1 115.65 37.5 173.28 57.1 19.53 6.6 38.93 13.5 58.51 19.9 9.09 3 32.09 17.3 27.28 9.1-20.56-35.2-95.23-65.2-129.64-83.3-125.41-66.1-260.3-113.5-394.87-156.9-58.41-18.8-117.55-35.2-176.43-52.4-17.96-5.3-36.1-10-54.14-15-11.7-3.3-36.64-8.1-31.9-8.8 45.15-6.8 102.55 11.6 145.72 23 95.86 25.6 191.21 53.4 286.26 81.8 44.04 13.2 88.21 26 132.18 39.4 13.76 4.2 27.38 8.7 41.14 12.8 8.8 2.6 32.93 13.8 26.44 7.3-27.6-27.7-81.56-44.5-116.87-59.9-74.01-32.3-148.25-64-222.81-95-35.82-14.9-71.85-29.3-108.06-43.3-13.91-5.4-27.74-10.9-41.54-16.6-6.27-2.6-25.57-7-18.83-7.5 89.15-7.9 198.92 37.3 282.07 64.1 109.17 35.2 219.73 69.4 321.62 123.1 153.21 81 286.5 201.5 415.32 315.7 20.04 17.8 39.79 35.9 59.37 54.2 53.12 49.8 188.09 141 173.08 228.9-18.82 111-235.52 208.8-321.6 254.4-340.36 180.3-709.65 320.3-1101.69 267.5" fill="#ba4323" transform="matrix(.04689943 0 0 -.04689943 -144.051423 775.373014)"/><path d="m4313.08 16300c-9.72-22.7-15.28-47.9-18.45-72.3-19.19-146.7 102.08-204.5 233.64-206.3 180.8-2.4 347.97 69.4 499.44 161.6 41.09 25 88.68 46.5 126.09 77 6.51 5.3-16.19-4.4-24.15-7-19.69-6.5-38.95-14.5-58.09-22.4-57.13-23.4-115.79-46.5-175.49-62.4-118.96-31.8-231.72-76.4-354.1-65.8-44.45 3.8-102.53 12-140.02 39.2-31.81 23.1-88.87 158.4-88.87 158.4" fill="#f2b54d" transform="matrix(.0443561 0 0 -.0443561 -144.051423 775.373014)"/><path d="m4205.02 16300c-107.79-100.6-193.37-215.6-273.22-338.9-23.05-35.7-72.63-93.8-73.23-138.4-.57-38.5 27.03-69.5 50.53-96.9 55.04-64.3 117.12-116.4 191.93-156.1 82.64-43.9 173.6-70.3 264.72-90.1 182.11-39.7 365.42-51.9 551.38-36 64.45 5.4 127.56 19.8 191.22 30.6 3.5.6-7.16 0-10.73 0-5.16.1-10.31.1-15.48.1-15.43.1-30.98-1.3-46.46-1.6-49.84-1-99.73-.8-149.58-.8-130.49-.1-262.98 8.7-390.46 38.1-30.46 7-61.26 13.4-91.08 22.8-4.97 1.6-26.62 4.6-29.63 9.5-2.33 3.8 8.93.8 13.41 1.2 6.81.5 13.66.9 20.52 1.2 21.5 1 42.99 2 64.49 3.3 65.59 3.7 131.09 12.4 196.34 19.6 18.11 2 36.26 4.3 54.25 7.2 5.28.9 10.62 1.9 15.82 3.1 2.86.6 10.5.1 8.46 2.1-5.3 5.5-32.63 3.2-40.2 3.5-42.92 2-85.99-2-128.91-.6-107.9 3.6-219.12 5.8-325.67 24-49.96 8.6-106.89 21.5-145.45 56.5-80.41 73.2-89.49 182.5-57.11 282.6 10.92 33.8 23.46 66.8 38.14 99.2 4.93 10.8 10.05 21.6 15.63 32.1 2.33 4.4 10.69 16.6 6.92 13.3-44.99-39.5-78.04-110.4-103.53-163.5-8.85-18.5-17.17-37-25.22-55.9-2.46-5.6-4.94-11.4-6.94-17.3-1.31-3.9-4.44-15.8-3.5-11.8 20.33 89.3 55.8 174 99.85 254.1 40.66 73.9 132.79 203.8 132.79 203.8" fill="#f2b54d" transform="matrix(.0451097 0 0 -.0451097 -144.051423 775.373014)"/><path d="m4099.66 14499.2c-73.89 87.3-118.66 206.1-162.42 310.3-143.63 342.1-172.91 692.9-133.22 1059.5 11.91 110.1 28.41 221.4 56.53 328.7 3.08 11.8 16.73 91.3 30.07 97.4 10.49 4.9 39.76-13.6 47.97-18.5 44.5-26.7 82.84-61.7 129.35-85.4 176.19-89.7 357.38-177.5 551.91-218.3 104.24-21.8 210.52-36.2 317.19-30 36.61 2.1 72.95 5.4 109.28 10.2 11.83 1.5 23.63 3.2 35.38 5.1 5.92.9 23.63 3.7 17.75 2.5-189.2-39.7-379.43-41.4-572.5-29.4-61.66 3.9-123.24 11.1-184.11 21.6-19.45 3.3-38.71 7.6-57.72 12.8-8.83 2.4-34.48 11.9-26.51 7.4 214.77-122.8 556.53-118.1 796.07-111.1 70.02 2 139.85 7.3 209.52 14.4 3.39.3 68.65 10.4 69.87 7.4.71-1.6-38.82-17.4-43.51-19.1-43.48-15.1-88.57-25.8-133.27-36.8-199.22-49.1-403.61-75.3-608.68-55.9-53.97 5.1-107.86 11.7-161.59 19-17.52 2.4-34.99 5.1-52.51 7.4-10.46 1.4-37.16 13.5-31.2 4.9 5.48-7.9 39.92-15.1 48.52-18 42.41-14.3 85.65-25.7 129.12-36.2 199.31-48.1 418.1-44.5 621.74-36.3 74.44 3 148.57 5.7 222.66 14.2 23.39 2.7 46.87 6.3 70.11 10.1 8.95 1.4 17.98 2.9 26.9 4.7 4.46.9 17.12 5.4 13.41 2.8-29.35-20.9-83.71-29.9-117.95-40.1-86.68-26-172.91-51.1-260.85-72.6-96.42-23.5-196.03-30.6-294.7-37.3-150.66-10.2-295.71 19.9-444.88 27.8-10.73.6 20-7.9 30.22-11.1 23.67-7.5 48.21-13.3 72.31-19.1 69.55-16.9 141.31-29.4 212.25-38.4 220.17-27.9 441.64-39 662.68-14.6 62.69 6.9 125.62 12.7 187.91 22.8 23.35 3.9 46.71 7.6 69.99 12 8.95 1.7 35.27 9 26.7 5.9-253.38-93.2-535.77-162.1-804.2-184.6-86.27-7.2-174.88-8.7-261.4-5.1-27.65 1.1-55.31 1-82.88 3.3-10.18.9-20.48 1.9-30.65 3-5.89.6-20.87 7.2-17.64 2.2 6.35-9.8 49.63-17.8 60.04-21 50.62-15.4 102.5-27.9 154.77-35.8 230.39-35.2 459.28-19.6 688.88 11.9 78.83 10.9 157.65 22.4 235.88 36.8 26.03 4.7 52.27 9.6 78.43 13.5 8.75 1.4 17.44 2.8 26.19 4.2 2.84.5 11.01 2.8 8.49 1.3-117.21-66.7-282-79.2-411.79-104.4-109.87-21.4-220.06-39.8-330.91-55.4-60.4-8.5-121.67-15.4-182.62-18.5-57.99-2.9-116.3-4.2-174.33-1.2-17.52.9-35.19 2-52.66 3.7-10.22 1-36.15 11.7-30.66 3 16.65-26.7 146.01-50.2 175.87-54.8 183.21-28.2 382.16-11.9 566.08 2.3 52.46 4 104.65 11.4 157.09 15.7 9.55.7 48.32 9.7 56.49 4.1 9.23-6.4-21.54-6.4-32.43-9-20.04-4.8-39.88-9.3-60.16-12.9-64.74-11.7-130.42-17.8-195.79-25-189.88-20.7-379.59-36.9-570.74-38.2-52.34-.4-104.7-.8-157.01 1.9-18.97 1-38.06 2.4-56.92 4.6-7.54.9-15.03 2.2-22.49 3.7-3.83.8-15.23 3.3-11.4 2.7 110.15-17.3 215.4-53.6 326.88-65.9 202.27-22.2 412.7-7.9 614.61 11.5 102.68 9.9 204.11 26.4 305.81 43.5 35.2 5.9 69.99 13.1 104.95 20.2 10.09 2 20.15 4 30.25 5.8 4.5.8 16.22 6.3 13.38 2.7-30.34-38.6-191.38-75.7-234.14-85.4-206.96-47-414.98-92.2-626.39-114.1-86.99-8.9-173.91-18.5-261.41-21.2-27.57-.9-55.19-1.3-82.8-1.6-8.72-.1-17.44-.4-26.16-.3-4.38.1-16.76 3.2-13.17.7 35.18-24.1 174.56-31.1 218.39-34.5 220.96-16.8 452.57 10.6 671.8 38.2 91.81 11.6 183.42 24.5 275.02 37.2 29.15 4.1 58.15 8.4 87.26 13 8.72 1.3 17.44 2.9 26.15 4.2 4.27.6 16.65 3.8 12.83 1.8-86.95-45.9-199.62-63.6-294.31-86.1-183.25-43.6-364.52-90.9-552.5-108.9-98.27-9.4-197.57-12.5-296.27-13.6-29.08-.3-58.27-1.1-87.31.2-10.18.5-20.32.9-30.49 1.2-5.88.2-22.53 4.1-17.64.8 49.75-33.7 139.58-39 197.02-47 154.05-21.2 311.3-17.2 466.14-7.1 71.45 4.7 142.82 14.2 213.95 22.6 22.01 2.6 44.02 5.8 65.92 9.2 20.43 3.2 39.57 4.5 31.17 5.5-64.86 7.2-143.37-14.2-207.2-24.3-139.77-22.1-278.71-48.4-418.65-69.8-70.89-10.9-142.02-20.8-213.39-28.2-26-2.7-52.15-5-78.23-7-8.67-.6-17.27-.6-25.95-.6-2.97 0-11.28 1.7-8.88 0 55.27-38.2 132.32-51 197.05-60.7 171.93-25.7 349.85-21 522.72-8.7 77.21 5.6 154.26 12.2 231.34 19.1 21.74 2 43.55 3.7 65.33 5.4 8.68.6 17.36 1.2 26.04 1.7 4.34.2 16.57 3.2 13.05.6-51.79-37.1-154.04-39.8-214.64-51.5-155.2-29.9-309.97-65.3-466.58-87.4-66.4-9.3-133.15-17.2-199.98-22.4-23.16-1.8-46.35-2.7-69.55-3.4-8.84-.3-17.39-.2-26.2.1-4.57.1-18.3 1.7-13.8.7 116.22-27.2 240.37-19 358.52-11.8 22.69 1.4 143.29 12.1 162.18-1.6 2.21-1.6-5.24-1.4-7.89-2.1-9.86-2.6-19.88-4.7-29.82-7-22.8-5.2-45.84-9.2-68.8-13.5-68.84-12.8-126.95-11.4-196.78-16.8-127.74-10-261.71 4.5-387.45 22.5-82.64 11.8-194.88 26.2-269.84 66.1" fill="#f2b54d" transform="matrix(.04305075 0 0 -.04305075 -144.051423 775.373014)"/><path d="m4893.41 16298.9c67.01-26.8 140.71-32.4 211.55-42.5 187.42-26.7 376.68-28.2 565.32-10.9 83.74 7.7 166.31 22.7 249.66 33.2 26.9 3.4 53.62 8.4 80.47 12 8.74 1.2 17.47 2.6 26.21 3.8 4.6.7 16.43 5.5 13.9 1.6-7.3-11.2-34.72-19.9-46.45-24.5-57.97-22.8-119.11-35.1-179.78-48.6-80.35-17.8-162.18-27.5-243.13-42.1-157.79-28.5-315.14-56.6-474.63-74.3-71.83-8-150.97-18.7-222.2-.4-27.06 7-60.74 18.8-71.22 47.6" fill="#f2b54d" transform="matrix(.03908254 0 0 -.03908254 -144.051423 775.373014)"/><path d="m6512.92 16300c-243.11-64.8-494.31-82.3-744.3-98.3-110.41-7.1-220.54-19.3-331.17-22.7-111.58-3.5-224.95 4.8-335.45 20-43.46 6-86.71 13.4-130.18 19.1-11.42 1.5-38.71 12.4-37.41-3.7 3.51-44.3 38.76-87.7 65.5-120.8 30.12-37.4 61.82-74.3 103.49-99.3 146.19-87.4 355.45-52.3 516.42-51.7 64.42.2 129.43 1.7 193.71 6.6 76.06 5.9 151.67 12.8 227.33 22.8 108.25 14.3 217.75 24.5 324.43 48.4 35.33 7.9 70.98 17.5 105.5 28.4 11.24 3.6 22.57 6.7 33.81 10.3 4.85 1.6 19.28 2.6 14.56 4.6-33.22 14.2-109.14-4.6-144.21-7.6-107.79-9.3-215.78-18.5-323.66-26.8-48.33-3.7-96.61-6.9-144.97-10-17.4-1.1-34.71-2.6-52.11-3.4-6.2-.2-12.41-.5-18.6-.6-2.48-.1-9.76-1.1-7.43-.3 74.67 25.9 168.13 24 246.17 35.3 51.3 7.5 101.91 18.4 152.88 27.7 47.17 8.5 94.77 15 141.66 24.9 15.01 3.2 29.89 6.8 44.9 10 6.48 1.4 25.99 3.5 19.38 4.3-72.6 9.3-153.47-5.1-225.76-12-101.55-9.8-202.88-18.2-304.83-23.2-43.43-2.1-86.67-4.2-130.18-4.6-15.29-.2-41.27-5.7-55.92-.2-5.4 2 11.1 3 16.72 4.3 14.47 3.4 29 6 43.65 8.5 33.35 5.7 66.67 11.9 100.2 16.6 127.98 18 256.01 37 383.5 58 43.46 7.2 86.94 14.3 130.32 22.1 15.06 2.7 30.12 5.4 45.13 8.5 6.2 1.2 23.83-.2 18.66 3.5-4.68 3.4-21.86 1.4-27.43 1.7-31.02 1.5-62.03-.2-93.01-1.7-114.4-5.5-228.13-26.3-342.67-30-6.89-.2 13.48 2.8 20.23 4.2 11.23 2.3 22.43 4.6 33.62 6.9 36.95 7.5 74.18 13.6 111.17 21 112.12 22.4 220.59 54.8 329.24 89.6" fill="#f2b54d" transform="matrix(.03778045 0 0 -.03778045 -144.051423 775.373014)"/><path d="m6840.04 16300c-240.23-90.1-505.57-117.9-760.61-129.4-80.02-3.6-159.71-9.4-239.82-10.4-23.4-.3-46.81-.4-70.22-.5-2.82 0-18.01 2-20.45-.1-2.41-1.9 36.15-30.1 39.1-32 47.18-29.7 101.81-50.4 155.41-65 225.4-61.3 445.5-107.1 680.14-107.7 60.9-.1 120.92 1.6 181.59 7.2 20.54 1.9 41.13 4.5 61.54 7.5 5.87.9 11.78 1.9 17.59 2.8 3.97.6 15.61.7 11.82 2-23.45 8.1-54.98 6.2-79.64 8.8-80.29 8.5-163.58 9.7-242.95 24.8-3.1.6 6.19.7 9.28.9 6.79.6 13.62.9 20.36 1.5 15.65 1.4 31.3 2.7 46.95 4.2 58.97 5.5 116.5 16.7 173.79 31.5 17.45 4.5 34.86 8.6 52.36 12.8 6.92 1.7 13.81 3.4 20.68 5.1 3.93.9 15.61 1.5 11.78 2.7-22.76 7-57.49-2.4-80.66-4.6-71.2-6.9-142.16-15.4-213.45-21.3-29.13-2.4-58.45-3.4-87.63-4.8-10.71-.5-21.42-.8-32.13-1.1-5.87-.1-22.91-2.8-17.6-.3 37.86 17.7 83.11 23.5 123.74 31.5 63.62 12.7 127.75 26 190.68 41.6 32.83 8.2 66.12 14.5 99.04 22.4 14.92 3.5 55.59.3 44.74 11.2-11.13 11.1-60.76 4.4-74.93 4.2-75.36-.9-150.2-11.4-225.36-15.5-29.18-1.5-58.45-3.3-87.68-4.1-8.86-.3-17.59-.7-26.41-1.3-4.85-.3-18.61-3.6-14.59-.8 18.6 12.5 58.32 14.6 80.24 19.7 53.93 12.6 107.16 27.8 160.95 40.7 26.51 6.3 52.63 13.7 79 20.4 7.81 2 15.56 4.1 23.37 6.1 5.03 1.3 19.62 1.7 15.04 4.2-10.01 5.5-36.98.1-48.52-.7-39.06-2.6-78.12-6.5-117.08-10.3-17.55-1.7-35.09-3.8-52.69-5.2-5.91-.6-11.77-1.2-17.68-1.8-2.91-.4-11.26-2.3-8.68-.9 23.32 11.8 55.68 13.6 80.94 21.4 54.52 16.9 138.65 82.6 138.65 82.6" fill="#f2b54d" transform="matrix(.0367848 0 0 -.0367848 -144.051423 775.373014)"/><g fill="#030b19"><path d="m5247.36 16173.3c-477.36-1.2-950.03-192.8-1293.43-526-263.29-255.6-449.42-590.7-525.32-949.6-107.54-508.5 7.42-1058.4 316.58-1482.1 275.42-377.5 695.67-645.3 1152.84-732.9 473.52-90.8 982.1 10.7 1383.75 278.5 389.43 259.8 676.61 670.3 782.86 1129.8 116.2 502.4 13.37 1051.9-283.13 1479.5-337.21 486.4-907.17 797.4-1516.09 802.7-6 0-12.05.1-18.06.1zm6.23 126.7c509.5-1.3 1015.39-206.4 1381.49-561.8 382.83-371.8 607.25-898.4 603.89-1439.7-3.19-523.2-222.22-1041.4-599.66-1409.9-272.36-266-622.07-451.7-994.47-526.8-509.29-102.6-1057.6 3.4-1491.17 290.7-429.44 284.6-741.89 739.6-849 1246.2-93.79 443.6-31.27 918.6 177.55 1323 307.74 596.2 927.83 1020.1 1615.29 1072.5 51.9 3.9 103.88 5.8 156.08 5.8" transform="matrix(.04692035 0 0 -.04692035 -144.051423 775.373014)"/><path d="m6770.63 16295.2 10.41-2.7 7.59-6.3 12.43-8.2c-4.78-15.2-9.8-30.2-15.12-45.3l-.42-1.1c-28.04-54.4-61.81-105.7-98.34-154.9l-.54-.7c-94.69-111.4-200.5-209.5-315.34-306.7-345.77-292.9-788.21-469-1218.71-552.9-166.72-32.5-336.24-60.9-508.98-51-30.35 1.8-60.66 4.2-90.93 7.2-219.42 21.2-438.2 80.1-624.84 199.7-116.15 74.5-221.21 180.9-248.12 318.5-18.2 93.2 1.98 192.3 61.14 272.9l17.49 16.6c38.01 23.1 74.68 48.1 103.64 81.9 0 0-45.82-62.6-54.11-115.5l-5.91-18.8c-.9-1.6-1.72-3.3-2.58-4.9-12.29-24.4-21.08-50.2-26.16-77.8 0 0-11.92-44.4-10.96-85.8 3.22-138.7 130.25-252.6 236.51-317.2 212.27-129 465.89-179 707.13-183.2 148.49-2.6 296.18 25.5 442.95 54 445.89 86.8 875.23 265.7 1219.81 575.5 86.68 78.2 173.84 156.9 250 245.4 39.7 40.4 76.7 83.9 108.5 130.8 0 0 16.74 18.9 29.24 35.3 0 0 8.66-2.7 14.22-4.8" transform="matrix(.04544358 0 0 -.04544358 -144.051423 775.373014)"/><path d="m8104.49 16290.4-.33-8.1c.46-3.9 2.15-9.3-.52-16-21.56-55-46.58-108.9-69.9-163.5l-.78-1.8c-20-37.1-40.65-73.9-63.38-109.4-.91-1.4-.91-1.7-3.84-5.9-69.18-97.3-157.06-181.9-245.26-265-367.91-346.6-809.31-618-1292.26-772.7-366.35-117.3-751.61-183.5-1131.07-233.9-318.14-42.2-645.03-29.9-958.48 51.2l-2.04.5c-69.92 21.3-140.09 43.3-205.5 75.1l-.48.2c-25.41 17.9-53.92 36.5-68.62 59.8-18.49 29.3-38.09 57.9-61.78 83.2-1.67 1.8-6.39 6.7-1.96 2.3 27.53-26.6 63.57-43.4 101.45-46.8 0 0 19.91-7.6 35.3-12 12.63-3.6 30.87-7.3 30.87-7.3 2.25-.9 4.53-1.8 6.76-2.7 60.4-22.7 124.74-37.1 188.03-50.6 0 0 53.1-13.3 97.04-22.5 290.32-60.6 589.44-56.4 885.51-14 411.31 59.3 821.73 128.4 1219.55 278.6 474.68 179.2 908 476.9 1253.57 844 26.05 27.6 50.35 56.7 72.7 87.5 0 0 20.97 26.8 37.19 49.6 40.13 56.4 82.6 112.6 125.53 168.1 0 0 14.46 14.8 27.23 28.1l7.88 3.1c6.71 2.2 9.12 3.6 11.59 4.9 0 0 4.04 5.6 6-4" transform="matrix(.04170438 0 0 -.04170438 -144.051423 775.373014)"/><path d="m7397.12 16300c-192.62-110.8-396.62-199.6-606.49-282.1l-5.87-2.3c-111.16-37-225.53-67.3-340.89-92.6-262.77-57.4-538.17-78-808.38-76.5-129.85.8-259.15 11.2-385.03 38.3-87.19 18.7-173.18 48.1-253.74 89.8l3.43 14 5.15 17.2c7.4 14.8 7.59 14.7 17.33 28.1l7.63 11.9c2.98-1.4 5.96-2.8 8.93-4.1 71.9-32.1 147.19-54.6 223.37-70 285.47-58 579.51-39.9 883.61-6 94.42 10.5 188.57 24 282.08 39.4 114.14 19 226.84 40 339.76 67.1 0 0 62.24 11.8 110.94 23.5 177.15 42.4 347.08 108.7 506.91 197.9 1.88 1.1 3.76 2.2 5.63 3.2 2.24 1.3 5.63 3.2 5.63 3.2" transform="matrix(.03763022 0 0 -.03763022 -144.051423 775.373014)"/><path d="m7981.7 16296.8 2.31-5.8c-9.45-27.6-19.99-54.8-31.04-81.7 0 0-25.64-41.9-48.97-72.9l-1.03-1.4c-83.42-96.4-182.07-178.7-279.82-257.2-263.56-211.7-565.1-388.8-891.96-453.4-75.06-14.8-152.18-26.5-227.25-11.8-50.13 9.9-100.32 40.1-116.47 91.2-25.15 79.8 29.01 168 84.6 239.3 155.97 200 378.72 349.7 614.58 431.1 74.1 25.5 155.21 45 225.32 29.8 47.37-10.2 90.62-50.9 81.24-104.2-6.17-35.3-29.89-66.3-54.37-93.1-26.42-28.8-55.6-56-89.01-75-124.36-70.3-252.12-126.3-380.21-197.4l-.06.1c91.19 52.3 162.98 95.6 232.32 156.8 12.86 11.3 26.42 22 39.66 33.1l6.62 5.5c23.77 20.1 47.23 40.5 69.02 62.6 0 0 96.01 72.6 98.26 123 .65 14.2-36.44 14.5-65.23 12.8-63.82-3.6-125.58-24.5-185.6-48.6-206.56-83.2-396.59-219.3-529.05-392.7-29.11-38.1-57.71-79.2-66.96-124.6-7.72-37.7 25.57-70.4 105.59-70 159.32.7 318.18 58 459.25 118.9 232.65 100.5 442.99 247.2 637.08 407.9l1.35 1.1c63.04 49.9 126.09 99.7 181.68 157.3 0 0 20.5 18.8 36.5 35.5 13.31 13.9 25.77 27 25.77 27 19.99 17.4 38.12 36.9 53.41 58.5 0 0 6.04 1.5 12.47-1.7" transform="matrix(.04227135 0 0 -.04227135 -144.051423 775.373014)"/><path d="m5131.59 15524.9s-.73 1.2 0 0zm53.02 775.1c12.45 0 24.9-.2 37.32-.6 0 0 20.24-6.1 36.86-9.6 7.88-1.6 15.79-2.9 23.74-4.1l1.96-1.9s-33.28-7.2-59.01-20.7c-18.69-4-37.16-9-55.38-14.7 0 0-27.95-6.2-50.99-12.6-11.69-3.2-23.27-6.6-34.81-10.2 0 0-11.46-3.2-23.41-6.6-164.62-48.4-320.83-132.6-459.24-218.8-112.73-70.1-221.65-148-319.6-236.5-126.16-113.9-229.96-263.3-254.56-415.8-8.17-50.5-4.14-106 33.35-142.9 52.85-51.9 133.99-55.4 203.28-55.8 246.86-1.7 490.57 79.7 704.41 211.9 55.09 34 112.4 70 148.21 120.9 10.24 14.5 20.11 33.8 14.52 43.4-1.81 3.1 2.69-2.5-2.57 3.5-20.58 23.2-58.65 29.3-92.15 35.3-120.38 21.7-245.63 8.5-362.75-18.9 0 0-47.54-9.1-84.31-19.1-22.39-6-44.6-12.8-66.52-20.4 0 0-36.72-11.6-65.69-23.2-71.64-28.4-139.48-66.8-200.08-113.9 0 0 26.89 21 48.16 36.4 65.11 46.8 133.34 88.5 203.86 126.1l1.12.6c47.87 23.5 97.01 44.3 147.24 62.5l.87.3c52.52 15.8 106.12 28.1 160.52 36.1l1.49.2c104.52 12.4 213.98 16.8 311.51-26.8 38.36-17.2 74.46-53 65.54-101.8-15.82-86.4-107.97-147.7-192.5-200.1-237.06-147.1-515.97-238.7-787.55-222.4-110.95 6.6-228.14 47.8-257.83 164.5-20.58 80.8 3.85 165.5 34.62 240.2 28.06 68.1 68.38 130.2 113.46 190.2 139.8 185.9 342.35 323.1 539.64 435.9 130.07 74.4 272.88 137.9 419.18 174.1l1.63.4c30.2 6.1 60.65 11 91.28 14.5 0 0 12.84.4 25.18.4" transform="matrix(.0467962 0 0 -.0467962 -144.051423 775.373014)"/><path d="m4798.26 16300c52.59 0 95.3-39 95.3-87.1s-42.71-87.1-95.3-87.1-95.3 39-95.3 87.1 42.71 87.1 95.3 87.1" transform="matrix(.04159436 0 0 -.04159436 -144.051423 775.373014)"/><path d="m6838.19 16300c20.16 0 36.46-18.7 36.46-41.7 0-22.9-16.3-41.6-36.46-41.6-20.11 0-36.4 18.7-36.4 41.6 0 23 16.29 41.7 36.4 41.7" transform="matrix(.04351204 0 0 -.04351204 -144.051423 775.373014)"/><path d="m7806 16300c41.83 0 75.82-37.9 75.82-84.5 0-46.7-33.99-84.6-75.82-84.6-41.82 0-75.81 37.9-75.81 84.6 0 46.6 33.99 84.5 75.81 84.5" transform="matrix(.03884293 0 0 -.03884293 -144.051423 775.373014)"/><path d="m5925.88 16300c33.7 0 61.08-16.9 61.08-37.8 0-20.8-27.38-37.8-61.08-37.8-33.66 0-61.04 17-61.04 37.8 0 20.9 27.38 37.8 61.04 37.8" transform="matrix(.03895405 0 0 -.03895405 -144.051423 775.373014)"/><path d="m5441.79 16300c34.09 0 61.77-26.6 61.77-59.3s-27.68-59.3-61.77-59.3-61.77 26.6-61.77 59.3 27.68 59.3 61.77 59.3" transform="matrix(.04583287 0 0 -.04583287 -144.051423 775.373014)"/></g></g></svg>