<svg xmlns="http://www.w3.org/2000/svg" xmlns:xlink="http://www.w3.org/1999/xlink" width="366.133" height="177.513" viewBox="0 0 366.133 177.513">
  <defs>
    <linearGradient id="linear-gradient" x1="0.379" y1="0.112" x2="0.5" y2="1" gradientUnits="objectBoundingBox">
      <stop offset="0" stop-color="#d10b0b"/>
      <stop offset="0.546" stop-color="#fedeb8"/>
      <stop offset="1" stop-color="#feefc5"/>
    </linearGradient>
  </defs>
  <path id="proMaskBg" d="M562.656,357.8a16.935,16.935,0,0,0-1.287-1.35c-.7-.649-1.013-.732-2.093-1.65-.487-.414-.533-.485-.886-.751a17.5,17.5,0,0,0-1.529-.975c-.829-.512-.732-.485-1.529-.975-.777-.478-1.166-.717-1.53-.9s-.812-.391-1.439-.773c-.132-.08-.135-.085-.3-.184,0,0-.618-.377-1.264-.712a28.537,28.537,0,0,0-3.76-1.483,37.533,37.533,0,0,0-4.265-1.051c-.435-.082-.962-.173-4.186-.6-1.647-.218-2.471-.327-3.461-.45-2.474-.306-105.89-14.385-330.639-45.017,7.738,84.956,14.535,147.087,16.5,154.407.717,2.671,3.569,8.4,6.519,11.029a17.15,17.15,0,0,0,4.346,2.814,28.21,28.21,0,0,0,3.139,1.013c1.507.425,2.7.677,3.26.788a44.53,44.53,0,0,0,4.708.675c1.806.164,1.965.068,3.984.225.292.022,1.518.121,2.656.112.095,0,.2,0,.362,0,1.05.013,1.808.133,1.811.113s-.35-.066-.348-.079.464.051,1.072.079c1.063.049,1.2.008,3.743,0,1.474,0,1.9.009,2.55.007.363,0,.628-.005.71-.007.437-.005.8-.011,1.219-.014,1.29-.01,1.936-.021,4.214.014,1.752.027,86.71-6.017,272.3-19.4,21.935-53.561,30.007-74.343,30.092-76.147,0-.07.058-1.143.132-2.629.042-.861.1-1.965.19-3.373a16.02,16.02,0,0,0,0-2.4,14.437,14.437,0,0,0-2.254-6.6A29.147,29.147,0,0,0,562.656,357.8Z" transform="matrix(1, -0.017, 0.017, 1, -209.711, -290.971)" fill="url(#linear-gradient)"/>
</svg>
