<svg xmlns="http://www.w3.org/2000/svg" width="190" height="110" viewBox="0 0 386.771 138.431">
  <path id="proMask" d="M392.226,52.362a17.632,17.632,0,0,0-2-2.266,22.434,22.434,0,0,0-2.6-2.175,25.5,25.5,0,0,0-3.4-2.085,31.938,31.938,0,0,0-4.3-1.722,27.027,27.027,0,0,0-5.1-1.178,38.763,38.763,0,0,0-4.9-.363c-3.7,0-144-6.888-358.8-17.492Q22.676,83,34.226,141c.2.725.4,1.722.8,2.81q.3.952.9,2.447a19.154,19.154,0,0,0,2.3,3.716,35.964,35.964,0,0,0,4.1,4.622,36.291,36.291,0,0,0,2.7,2.538,22.854,22.854,0,0,0,5.8,3.172,34.855,34.855,0,0,0,9.5,1.994,27.649,27.649,0,0,0,3.5.181h319.4c4.4-29.818,8.8-59.546,13.2-89.364a47.656,47.656,0,0,0,.3-8.066,41.768,41.768,0,0,0-.6-4.532,26.519,26.519,0,0,0-1.6-4.441A26.951,26.951,0,0,0,392.226,52.362Z" transform="translate(-10.51 -24.55)" fill="#fff" stroke="#000" stroke-miterlimit="10" stroke-width="1"/>
</svg>
