<?xml version="1.0" encoding="UTF-8" standalone="no"?>
<svg
   xmlns:dc="http://purl.org/dc/elements/1.1/"
   xmlns:cc="http://creativecommons.org/ns#"
   xmlns:rdf="http://www.w3.org/1999/02/22-rdf-syntax-ns#"
   xmlns:svg="http://www.w3.org/2000/svg"
   xmlns="http://www.w3.org/2000/svg"
   xmlns:sodipodi="http://sodipodi.sourceforge.net/DTD/sodipodi-0.dtd"
   xmlns:inkscape="http://www.inkscape.org/namespaces/inkscape"
   height="512"
   viewBox="0 0 32 32"
   width="512"
   version="1.1"
   id="svg836"
   sodipodi:docname="setting.svg"
   inkscape:version="1.0.1 (c497b03c, 2020-09-10)">
  <metadata
     id="metadata842">
    <rdf:RDF>
      <cc:Work
         rdf:about="">
        <dc:format>image/svg+xml</dc:format>
        <dc:type
           rdf:resource="http://purl.org/dc/dcmitype/StillImage" />
      </cc:Work>
    </rdf:RDF>
  </metadata>
  <defs
     id="defs840" />
  <sodipodi:namedview
     pagecolor="#ffffff"
     bordercolor="#666666"
     borderopacity="1"
     objecttolerance="10"
     gridtolerance="10"
     guidetolerance="10"
     inkscape:pageopacity="0"
     inkscape:pageshadow="2"
     inkscape:window-width="1659"
     inkscape:window-height="994"
     id="namedview838"
     showgrid="false"
     inkscape:zoom="1.5312073"
     inkscape:cx="256"
     inkscape:cy="256"
     inkscape:window-x="0"
     inkscape:window-y="23"
     inkscape:window-maximized="0"
     inkscape:current-layer="svg836" />
  <g
     id="Layer_2"
     data-name="Layer 2"
     transform="matrix(0.87929689,0,0,0.87929689,1.9312484,1.9321074)">
    <path
       d="M 29.21,11.84 A 3.92,3.92 0 0 1 26.12,6.54 1.84,1.84 0 0 0 25.57,4.47 14.75,14.75 0 0 0 21.17,1.92 1.85,1.85 0 0 0 19.08,2.5 3.91,3.91 0 0 1 12.92,2.5 1.85,1.85 0 0 0 10.83,1.92 14.82,14.82 0 0 0 6.73,4.22 1.86,1.86 0 0 0 6.15,6.35 3.9,3.9 0 0 1 2.9,11.71 1.85,1.85 0 0 0 1.28,13.2 14.14,14.14 0 0 0 1,16 14.32,14.32 0 0 0 1.19,18.35 1.85,1.85 0 0 0 2.82,19.9 3.9,3.9 0 0 1 6,25.41 a 1.82,1.82 0 0 0 0.51,2.18 14.86,14.86 0 0 0 4.36,2.51 2,2 0 0 0 0.63,0.11 1.84,1.84 0 0 0 1.5,-0.78 3.87,3.87 0 0 1 3.2,-1.68 3.92,3.92 0 0 1 3.14,1.58 1.84,1.84 0 0 0 2.16,0.61 15,15 0 0 0 4,-2.39 1.85,1.85 0 0 0 0.54,-2.11 3.9,3.9 0 0 1 3.13,-5.39 1.85,1.85 0 0 0 1.57,-1.52 A 14.5,14.5 0 0 0 31,16 14.35,14.35 0 0 0 30.75,13.33 1.83,1.83 0 0 0 29.21,11.84 Z M 21,16 a 5,5 0 1 1 -5,-5 5,5 0 0 1 5,5 z"
       id="path833" />
  </g>
</svg>
