<?xml version="1.0" encoding="UTF-8" standalone="no"?>
<svg
   xmlns:dc="http://purl.org/dc/elements/1.1/"
   xmlns:cc="http://creativecommons.org/ns#"
   xmlns:rdf="http://www.w3.org/1999/02/22-rdf-syntax-ns#"
   xmlns:svg="http://www.w3.org/2000/svg"
   xmlns="http://www.w3.org/2000/svg"
   xmlns:sodipodi="http://sodipodi.sourceforge.net/DTD/sodipodi-0.dtd"
   xmlns:inkscape="http://www.inkscape.org/namespaces/inkscape"
   width="140"
   height="100"
   viewBox="0 0 37.041667 26.458334"
   version="1.1"
   id="svg8"
   inkscape:version="1.0.1 (c497b03c, 2020-09-10)"
   sodipodi:docname="sim_silver.svg"
   inkscape:export-filename="/Users/mlu/Documents/pustack-app/sim.png"
   inkscape:export-xdpi="96"
   inkscape:export-ydpi="96">
  <defs
     id="defs2" />
  <sodipodi:namedview
     id="base"
     pagecolor="#ffffff"
     bordercolor="#666666"
     borderopacity="1.0"
     inkscape:pageopacity="0.0"
     inkscape:pageshadow="2"
     inkscape:zoom="3.7379192"
     inkscape:cx="22.305029"
     inkscape:cy="61.499811"
     inkscape:document-units="mm"
     inkscape:current-layer="layer1"
     inkscape:document-rotation="0"
     showgrid="false"
     units="px"
     inkscape:window-width="1772"
     inkscape:window-height="994"
     inkscape:window-x="107"
     inkscape:window-y="23"
     inkscape:window-maximized="0"
     inkscape:snap-global="false" />
  <metadata
     id="metadata5">
    <rdf:RDF>
      <cc:Work
         rdf:about="">
        <dc:format>image/svg+xml</dc:format>
        <dc:type
           rdf:resource="http://purl.org/dc/dcmitype/StillImage" />
        <dc:title />
      </cc:Work>
    </rdf:RDF>
  </metadata>
  <g
     inkscape:label="Layer 1"
     inkscape:groupmode="layer"
     id="layer1">
    <g
       id="g849"
       transform="translate(0.0408545)">
      <path
         id="rect5044"
         style="fill:#dedede;fill-opacity:1;stroke-width:0.671391;stroke-linecap:round"
         d="m 17.204972,0.50283497 h -6.851355 v 0.0175409 H 5.4349326 c -0.6774554,0 -1.3237107,0.1064021 -1.9114988,0.29822007 C 2.935649,1.0104116 2.4062739,1.287375 1.961288,1.630093 1.5162953,1.9728147 1.1556751,2.3813089 0.9066231,2.8340187 0.78209373,3.0603743 0.68571219,3.2973283 0.62012762,3.5435101 0.55454644,3.7896952 0.51955897,4.0447303 0.51955897,4.3056281 V 10.59749 Z" />
      <path
         id="path5066"
         style="fill:#ececec;fill-opacity:1;stroke-width:0.671391;stroke-linecap:round"
         d="m 36.759949,11.021106 -22.25185,15.076688 h 3.115034 v -0.05653 h 0.323545 v 0.05653 h 1.38615 v -0.05653 h 0.323546 v 0.05653 h 9.81421 l 6.378938,-4.932653 0.910427,-0.317062 z" />
      <path
         id="path5072"
         style="opacity:1;fill:#e1e1e1;fill-opacity:1;stroke-width:0.671391;stroke-linecap:round"
         d="M 36.759949,5.7720414 5.279447,26.073753 c 0.05467,0.0013 0.1003891,0.02405 0.1554856,0.02405 h 9.0731664 l 22.25185,-15.076698 z" />
      <path
         id="path5069"
         style="fill:#e6e6e6;fill-opacity:1;stroke-width:0.671391;stroke-linecap:round"
         d="M 17.204972,0.50283497 0.51955897,10.597491 v 11.717 c 0,0.260728 0.0349773,0.515422 0.10056865,0.761468 0.0655812,0.246045 0.16196272,0.483245 0.28649548,0.709491 0.2490486,0.452492 0.6096722,0.860031 1.0546649,1.202626 0.4449859,0.342592 0.974361,0.620385 1.5621458,0.812148 0.5399852,0.176167 1.1384817,0.257841 1.7560132,0.273529 L 36.759949,5.7720414 V 4.3056295 c 0,-0.2608978 -0.03433,-0.5159329 -0.09991,-0.7621181 C 36.59446,3.2973296 36.497401,3.0603756 36.372885,2.8340201 36.123854,2.3813103 35.763869,1.972816 35.318881,1.6300943 34.873895,1.2873763 34.343938,1.0104129 33.756071,0.81859728 33.168204,0.6267823 32.522246,0.52037721 31.844573,0.52037721 H 28.47282 V 0.5028363 Z" />
      <path
         d="m 24.670813,5.3967502 -0.0024,-0.00667 -0.04473,-0.1080003 -0.0048,-0.012196 -0.02786,-0.067076 -0.03289,-0.078894 c -0.03923,-0.085218 -0.08312,-0.168762 -0.134161,-0.2653789 l -0.03038,-0.059067 -0.0519,-0.098721 C 24.262742,4.5627879 24.177554,4.427355 24.085992,4.29783 l -0.0574,-0.076367 C 23.95053,4.1137895 23.870396,4.0083151 23.783486,3.9049467 l -0.08479,-0.096195 c -0.08312,-0.093667 -0.167495,-0.1852171 -0.256941,-0.27466 l -0.0903,-0.086916 c -0.07725,-0.074255 -0.158639,-0.1451338 -0.240059,-0.215593 l -0.01937,-0.017287 -0.03252,-0.029106 -0.08229,-0.06876 c -0.07175,-0.057798 -0.154407,-0.11645 -0.233304,-0.1746696 l -0.07845,-0.059067 -0.05275,-0.03924 -0.03803,-0.026579 -0.10668,-0.063706 C 22.319483,2.6561311 22.167178,2.5645747 22.009384,2.4789289 21.954125,2.448553 21.900906,2.4177497 21.844844,2.3899009 21.642751,2.2873698 21.434321,2.1932925 21.218738,2.1105987 21.174482,2.0933112 21.129281,2.0797954 21.084563,2.0637651 20.903149,1.9979464 20.717082,1.9401495 20.527655,1.8895175 20.464746,1.8726445 20.402342,1.8561876 20.339483,1.8409996 20.107432,1.7857297 19.872426,1.7380536 19.630258,1.705568 V 0.46389597 H 31.59805 c 2.661815,0 4.826613,1.69775093 4.826613,3.78534533 V 5.3968282 Z M 36.423861,10.646996 H 23.676376 c 0.07546,-0.120284 0.145561,-0.244748 0.234156,-0.358282 0.719774,-0.9197992 1.09949,-1.9955753 1.09949,-3.1115177 v -0.00126 -8.437e-4 l -8.38e-4,-0.00554 c 0,-0.2177043 -0.01938,-0.4316102 -0.04855,-0.6434078 -0.0084,-0.062864 -0.01853,-0.125313 -0.0299,-0.1881694 -0.03086,-0.1759362 -0.07044,-0.3484965 -0.119818,-0.5189459 l -0.02404,-0.1046308 h 11.637029 z m 0,5.40534 H 23.662874 c -0.425282,-0.675851 -0.64974,-1.463466 -0.64974,-2.284202 v -0.840352 c 0,-0.219055 0.02069,-0.434099 0.05227,-0.645898 0.0084,-0.0557 0.01818,-0.111093 0.0287,-0.166274 0.03169,-0.167116 0.07296,-0.331281 0.123202,-0.492448 0.01435,-0.04599 0.02536,-0.09279 0.04174,-0.138259 0.06242,-0.178509 0.140918,-0.351871 0.227411,-0.520632 H 36.4238 Z m 0,4.739361 h -11.91675 l -0.03541,0.110931 c -0.56241,1.777449 -2.141598,3.138604 -4.138904,3.632699 -0.285629,0.07036 -0.579283,0.123112 -0.880103,0.157371 l -0.140907,0.01518 v 1.333605 h -1.361919 v -1.342507 -8.43e-4 l -0.02739,-0.0038 -0.224874,-0.03295 -0.110502,-0.01764 -0.04975,-0.0088 c -0.117329,-0.01945 -0.235422,-0.0389 -0.349337,-0.0646 l -0.006,-0.0013 c -0.0397,-0.0087 -0.07845,-0.02013 -0.118524,-0.02982 -0.49363,-0.118688 -0.961106,-0.292043 -1.396086,-0.509746 l -0.08647,-0.04684 c -0.170447,-0.08865 -0.334568,-0.186062 -0.493631,-0.288543 -0.04521,-0.0292 -0.09197,-0.05788 -0.137115,-0.08817 -0.167075,-0.114714 -0.327824,-0.237493 -0.480559,-0.366217 -0.05992,-0.0511 -0.115645,-0.106315 -0.17382,-0.159522 -0.09111,-0.08391 -0.178457,-0.170398 -0.26325,-0.259083 -0.06661,-0.07038 -0.133326,-0.140916 -0.196197,-0.214245 -0.08431,-0.09952 -0.162423,-0.202894 -0.239634,-0.307189 -0.08097,-0.110929 -0.157376,-0.225635 -0.229517,-0.342167 -0.05526,-0.08983 -0.109307,-0.180618 -0.158643,-0.273733 -0.04425,-0.08324 -0.08647,-0.166779 -0.126149,-0.252299 -0.06709,-0.146529 -0.127837,-0.295842 -0.17931,-0.448614 l -0.02571,-0.08058 c -0.0696,-0.217578 -0.119818,-0.436251 -0.156945,-0.654292 l -0.01304,-0.08357 c -0.03289,-0.217198 -0.05227,-0.4341 -0.05227,-0.648513 8.38e-4,-1.047171 0.359457,-2.057131 1.039157,-2.921702 l 0.05142,-0.07877 c 0.03588,-0.0478 0.07044,-0.09591 0.103813,-0.145178 h 0.0084 l 0.04772,-0.07053 0.02404,-0.04383 0.13543,-0.202895 h -0.01518 c 0.04257,-0.07299 0.08097,-0.146822 0.119001,-0.222006 0.05944,-0.118474 0.11015,-0.239939 0.159911,-0.362713 0.03888,-0.09958 0.08097,-0.197115 0.113495,-0.299132 0.04426,-0.138934 0.07546,-0.28099 0.106315,-0.424565 0.01938,-0.09063 0.04509,-0.178466 0.05992,-0.269934 0.03671,-0.238294 0.05824,-0.479751 0.05824,-0.725302 V 13.7485 12.947722 c 0,-0.231247 -0.02189,-0.459499 -0.05574,-0.685135 -0.01194,-0.08108 -0.02907,-0.159523 -0.04425,-0.238799 -0.02955,-0.147331 -0.06578,-0.2912 -0.108831,-0.433762 -0.02488,-0.08274 -0.04938,-0.164966 -0.07929,-0.246394 -0.04724,-0.129524 -0.103813,-0.254452 -0.162853,-0.379209 h 0.02069 l -0.121088,-0.220699 -0.0023,-0.0043 -0.006,-0.01006 -0.01195,-0.0173 -0.03589,-0.06493 h -0.0072 C 13.942404,10.455373 13.825089,10.268975 13.69303,10.099748 13.012914,9.2345015 12.653875,8.2235721 12.653444,7.1759779 l 4.31e-4,-0.00465 c 8.38e-4,-0.2328952 0.02487,-0.462834 0.06028,-0.6919305 0.0084,-0.054842 0.01603,-0.1092702 0.02703,-0.1641215 0.03923,-0.2054683 0.09496,-0.4079834 0.162853,-0.6088112 0.374658,-1.0906283 1.154769,-2.0411844 2.194761,-2.7124371 0.105837,-0.067931 0.21222,-0.1345881 0.322345,-0.1957647 0.08646,-0.049361 0.174669,-0.097037 0.264533,-0.1413383 0.162016,-0.081007 0.327393,-0.1565276 0.497003,-0.2240334 0.08061,-0.032061 0.164122,-0.059909 0.247241,-0.089443 0.151466,-0.053158 0.305876,-0.1012613 0.462834,-0.143448 0.08396,-0.023197 0.169179,-0.044721 0.254821,-0.064549 0.17552,-0.040069 0.352724,-0.07257 0.531603,-0.098307 0.04342,-0.00667 0.08612,-0.016043 0.130372,-0.021953 l 0.139232,-0.017287 v -0.00251 -1.53152224 h 1.361919 V 1.9882218 1.988643 l 0.140907,0.016043 0.03205,0.00465 c 0.226573,0.026579 0.450182,0.067076 0.669998,0.1160217 0.0641,0.013503 0.126987,0.029106 0.189859,0.045149 0.204616,0.051058 0.405439,0.1101125 0.602055,0.1797319 l 0.07642,0.025322 c 0.216014,0.078894 0.425283,0.1734026 0.629062,0.274239 0.05526,0.027006 0.108829,0.056113 0.162865,0.084389 0.175925,0.09451 0.347222,0.1953435 0.512192,0.3046162 0.873346,0.5818098 1.557252,1.3623365 1.958914,2.259731 l 0.02153,0.051473 c 0.04689,0.1088552 0.08898,0.2206563 0.128255,0.3328836 0.07127,0.2096878 0.129102,0.4214853 0.170028,0.6370786 0.0096,0.050203 0.01686,0.1016762 0.02452,0.1527305 0.03624,0.2307825 0.06112,0.4640971 0.06159,0.6986778 v 0.00465 c 0,1.0433748 -0.356934,2.0509297 -1.031142,2.9140227 -0.13586,0.173531 -0.253986,0.363727 -0.363689,0.557044 h -0.0072 l -0.03456,0.06363 -0.01304,0.01945 -0.125715,0.2342 h 0.01938 c -0.05992,0.127373 -0.116839,0.254789 -0.163691,0.386466 -0.02272,0.06277 -0.04174,0.12771 -0.06159,0.191841 -0.05059,0.163319 -0.09149,0.328285 -0.124044,0.497049 -0.01219,0.06329 -0.02536,0.126572 -0.03504,0.190701 -0.03372,0.228716 -0.05574,0.459962 -0.05574,0.697454 v 0.840352 9.71e-4 c 0,0.912035 0.257776,1.78669 0.747198,2.530132 l 0.04689,0.07088 H 36.42292 Z m -0.893593,0.31643 -6.264056,4.933352 h -9.636758 v -1.050631 c 0.302924,-0.04037 0.598265,-0.09822 0.886419,-0.174543 2.011656,-0.531643 3.607732,-1.909633 4.222022,-3.706997 H 35.296949 Z M 17.63215,26.041479 H 5.6635014 c -2.6609692,0 -4.82619935,-1.697836 -4.82619935,-3.784122 V 21.109308 H 12.604278 c 0.01818,0.0524 0.04521,0.100834 0.06541,0.153278 0.04389,0.114677 0.09197,0.226438 0.143874,0.337822 0.0409,0.08785 0.08145,0.176018 0.127417,0.26175 0.08396,0.153913 0.173821,0.30487 0.272129,0.450892 0.0586,0.08654 0.123628,0.168762 0.186904,0.251836 0.06541,0.08535 0.13164,0.168761 0.201674,0.251498 0.06578,0.07645 0.131208,0.153278 0.201674,0.226605 0.130371,0.137121 0.26622,0.270444 0.41093,0.395707 0.04604,0.04005 0.09531,0.07645 0.142606,0.115179 0.133326,0.108944 0.27171,0.212599 0.415164,0.311325 0.05059,0.0346 0.101299,0.06924 0.152724,0.102519 0.394904,0.255295 0.825257,0.470847 1.283858,0.642226 l 0.06159,0.02228 c 0.432026,0.156233 0.88643,0.276054 1.361918,0.345246 z M 0.83730205,16.370116 H 13.459915 l -0.01651,0.02156 c -0.723997,0.922289 -1.106667,2.001441 -1.106667,3.121139 l 4.31e-4,0.0035 -4.31e-4,0.0021 c 0,0.203695 0.01734,0.403764 0.04222,0.602355 l 0.01304,0.08324 c 0.02739,0.189015 0.06578,0.374612 0.114338,0.557718 l 0.0072,0.02996 H 0.83766031 Z m 0,-5.405845 H 13.866206 c 0.08946,0.17121 0.167493,0.347229 0.23205,0.529028 0.01818,0.05025 0.03122,0.10253 0.04724,0.153573 0.0494,0.157751 0.08982,0.317612 0.120247,0.481438 0.01081,0.05734 0.02284,0.114211 0.03086,0.172518 0.03122,0.211798 0.05227,0.426885 0.05227,0.646741 v 0.800778 c 0,0.226607 -0.02021,0.448951 -0.05441,0.667457 -0.01219,0.08144 -0.03337,0.159564 -0.05059,0.238841 -0.02786,0.135432 -0.0586,0.269599 -0.09998,0.399967 -0.02822,0.09063 -0.06327,0.178804 -0.09783,0.267489 -0.04508,0.116537 -0.09496,0.231542 -0.15063,0.344275 -0.04257,0.0857 -0.08815,0.170071 -0.137116,0.253144 -0.02656,0.04598 -0.05908,0.08817 -0.0873,0.133323 H 0.83742143 Z m 0,-5.2498251 H 12.5604 c -0.01387,0.045149 -0.01901,0.091983 -0.03157,0.1375414 -0.04556,0.1577935 -0.0818,0.3176956 -0.111345,0.4797074 -0.01195,0.067503 -0.02272,0.1341655 -0.03205,0.201249 -0.02822,0.2101102 -0.04772,0.4214852 -0.04808,0.6366573 l -4.32e-4,0.00554 v 8.437e-4 0.00126 c 0,1.1205843 0.382671,2.1993138 1.106668,3.1212623 0.08695,0.110578 0.154841,0.231206 0.229516,0.348538 H 0.83743401 Z m 0,-1.4652813 c 0,-2.0875944 2.16523015,-3.7853466 4.82619935,-3.7853466 H 17.63215 v 1.2522202 c -0.04855,0.00716 -0.09412,0.021097 -0.14177,0.029106 -0.178041,0.029961 -0.353548,0.064562 -0.525263,0.106743 -0.08694,0.021953 -0.172565,0.045564 -0.258207,0.07003 -0.158643,0.045564 -0.313484,0.096622 -0.46537,0.1531517 -0.06579,0.023197 -0.132057,0.043879 -0.196602,0.070458 -0.202093,0.081007 -0.39744,0.1721367 -0.58688,0.2704409 -0.07594,0.039655 -0.1502,0.083119 -0.224875,0.125313 -0.120661,0.06876 -0.238378,0.1413396 -0.35313,0.217283 -0.06123,0.039655 -0.125731,0.072156 -0.185218,0.1134946 -0.128685,0.090713 -0.252299,0.1860598 -0.368749,0.2818331 l -0.05357,0.043464 c -0.111822,0.094925 -0.220234,0.1936553 -0.346384,0.3168524 l -0.03289,0.031646 c -0.103813,0.1046308 -0.20336,0.2130636 -0.298713,0.3240248 l -0.04007,0.045564 c -0.210537,0.2531432 -0.397441,0.5210543 -0.554805,0.7982467 -0.02153,0.036285 -0.0409,0.074255 -0.05992,0.1126523 l -0.03373,0.065819 c -0.04222,0.081006 -0.0836,0.1607467 -0.12109,0.243018 -0.02404,0.054013 -0.04593,0.108013 -0.06793,0.1628568 l -0.0409,0.098721 H 0.83737368 Z M 31.597248,0.14570116 H 5.6635014 c -2.8360693,0 -5.14389254,1.84120024 -5.14389254,4.10346344 v 1.1475856 0.3176957 4.9325501 0.317275 5.088572 0.317273 4.421581 0.317611 1.148049 c 0,2.262305 2.30782324,4.101861 5.14389254,4.101861 h 11.9686486 0.317693 1.361918 0.317693 9.69963 l 7.412471,-5.706751 V 16.370116 16.052336 10.964271 10.646996 5.7144459 5.3967502 4.2491646 c 0,-2.2622632 -2.307823,-4.10346344 -5.144307,-4.10346344"
         style="fill:#999999;fill-opacity:1;fill-rule:nonzero;stroke:none;stroke-width:0.0421906"
         id="path8265" />
    </g>
    <path
       d="m 36.304251,20.791487 -0.893595,0.316766 -6.264056,4.933016 h -9.637187 v -0.05653 h -0.317694 v 0.05653 h -1.361487 v -0.05653 h -0.317693 v 0.05653 H 5.543892 c -2.66097,0 -4.826199,-1.697838 -4.826199,-3.783657 V 4.2489533 c 0,-2.087172 2.165229,-3.78534544 4.826199,-3.78534544 h 4.829987 v -0.017728 h 17.793054 v 0.017728 h 3.310704 c 2.661814,0 4.826614,1.69817344 4.826614,3.78534544 z M 31.477637,0.14591226 H 5.543892 C 2.707404,0.14591226 0.4,1.9871125 0.4,4.2489533 V 22.257612 c 0,2.261839 2.307404,4.101395 5.143892,4.101395 h 23.66558 l 7.412473,-5.70675 V 4.2489533 c 0,-2.2618408 -2.307824,-4.10304104 -5.144308,-4.10304104"
       style="fill:#666666;fill-opacity:1;fill-rule:nonzero;stroke:none;stroke-width:0.86;stroke-miterlimit:4;stroke-dasharray:none"
       id="path8267" />
  </g>
</svg>
