<?xml version="1.0" encoding="UTF-8" standalone="no"?>
<svg
   xmlns:dc="http://purl.org/dc/elements/1.1/"
   xmlns:cc="http://creativecommons.org/ns#"
   xmlns:rdf="http://www.w3.org/1999/02/22-rdf-syntax-ns#"
   xmlns:svg="http://www.w3.org/2000/svg"
   xmlns="http://www.w3.org/2000/svg"
   xmlns:sodipodi="http://sodipodi.sourceforge.net/DTD/sodipodi-0.dtd"
   xmlns:inkscape="http://www.inkscape.org/namespaces/inkscape"
   height="500pt"
   viewBox="-36 0 500 500.00021"
   width="500pt"
   version="1.1"
   id="svg877"
   sodipodi:docname="smartphone.svg"
   inkscape:version="1.0.1 (c497b03c, 2020-09-10)">
  <metadata
     id="metadata883">
    <rdf:RDF>
      <cc:Work
         rdf:about="">
        <dc:format>image/svg+xml</dc:format>
        <dc:type
           rdf:resource="http://purl.org/dc/dcmitype/StillImage" />
        <dc:title></dc:title>
      </cc:Work>
    </rdf:RDF>
  </metadata>
  <defs
     id="defs881" />
  <sodipodi:namedview
     pagecolor="#ffffff"
     bordercolor="#666666"
     borderopacity="1"
     objecttolerance="10"
     gridtolerance="10"
     guidetolerance="10"
     inkscape:pageopacity="0"
     inkscape:pageshadow="2"
     inkscape:window-width="1618"
     inkscape:window-height="994"
     id="namedview879"
     showgrid="false"
     inkscape:zoom="0.57420274"
     inkscape:cx="341.33333"
     inkscape:cy="341.33333"
     inkscape:window-x="309"
     inkscape:window-y="23"
     inkscape:window-maximized="0"
     inkscape:current-layer="svg877"
     inkscape:snap-global="false" />
  <path
     d="m 380.49546,429.7893 -180.76092,65.79017 c -25.44831,9.2621 -53.58682,-3.8592 -62.85267,-29.30751 L 17.789631,139.06337 C 8.5275267,113.61506 21.648841,85.472801 47.09715,76.210696 l 180.76092,-65.79017 c 25.45205,-9.2621054 53.59057,3.859211 62.85267,29.307519 L 409.80672,366.93663 c 9.26211,25.44831 -3.86295,53.59057 -29.31126,62.85267 z m 0,0"
     fill="#495059"
     id="path833"
     style="fill:#000000;stroke-width:0.959182" />
  <path
     d="M 199.73454,495.57947 317.27559,452.79844 C 142.24729,380.09542 106.73506,170.84752 87.86615,61.373344 l -40.769,14.837352 C 21.648841,85.472801 8.5275267,113.61506 17.789631,139.06337 L 136.88187,466.27196 c 9.26585,25.44831 37.40436,38.56961 62.85267,29.30751 z m 0,0"
     fill="#41464f"
     id="path835"
     style="fill:#889911;fill-opacity:0;stroke-width:0.959182" />
  <path
     d="m 235.13811,40.597304 -40.45426,14.721201 c -3.89294,1.42004 -6.56067,5.035708 -6.7555,9.179675 l -0.55078,11.596365 c -0.23604,4.912063 -3.3946,9.202156 -8.01442,10.888219 l -45.90212,16.703266 c -4.61981,1.68231 -9.80165,0.42713 -13.1363,-3.18854 l -7.87953,-8.527726 c -2.81011,-3.046154 -7.17889,-4.1065 -11.07557,-2.686461 L 60.91912,104.0045 c -11.24791,4.09526 -17.047971,16.53092 -12.95646,27.77883 l 116.71301,320.66666 c 4.09526,11.24791 16.53092,17.04797 27.77883,12.95271 l 174.22274,-63.4072 c 11.24791,-4.09526 17.04422,-16.53092 12.9527,-27.77883 L 262.91694,53.550013 C 258.82168,42.302101 246.38602,36.502044 235.13811,40.597304 Z m 0,0"
     fill="#7e9bde"
     id="path837"
     style="fill:#e93e3e;fill-opacity:1;stroke-width:0.959182" />
  <path
     d="m 192.4545,465.4027 86.93339,-31.63804 C 150.39285,356.64416 112.26909,196.8054 93.28028,92.228293 L 60.91912,104.00825 c -11.24791,4.09151 -17.047971,16.52717 -12.95646,27.77883 l 116.71301,320.66291 c 4.09526,11.24791 16.53466,17.04797 27.77883,12.95271 z m 0,0"
     fill="#5a7ccc"
     id="path839"
     style="fill:#891010;fill-opacity:1;stroke-width:0.959182" />
  <path
     d="m 185.42174,349.62263 -17.0105,6.18973 c -5.66892,2.06449 -11.93358,-0.85802 -13.99432,-6.52319 l -6.19347,-17.01424 c -2.0645,-5.66892 0.85802,-11.93358 6.52319,-13.99433 l 17.01424,-6.19347 c 5.66893,-2.06073 11.93359,0.86177 13.99432,6.52694 l 6.19348,17.01425 c 2.06074,5.66517 -0.85803,11.92983 -6.52694,13.99431 z m 0,0"
     fill="#f2d073"
     id="path841"
     style="stroke-width:0.959182" />
  <path
     d="m 187.80096,348.39743 c -7.95822,-11.02685 -15.26074,-22.45086 -21.96753,-34.15214 l -11.08304,4.03531 c -5.66892,2.06075 -8.59144,8.32541 -6.52694,13.99433 l 6.19347,17.01424 c 2.06074,5.66517 8.3254,8.58768 13.99432,6.52319 l 17.01424,-6.18973 c 0.85803,-0.31472 1.6486,-0.73437 2.37548,-1.2252 z m 0,0"
     fill="#e3a554"
     id="path843"
     style="stroke-width:0.959182" />
  <path
     d="m 250.03916,326.10393 -17.01425,6.19347 c -5.66517,2.06075 -11.93357,-0.86176 -13.99432,-6.52693 l -6.19347,-17.01424 c -2.06074,-5.66517 0.86177,-11.92983 6.52694,-13.99433 l 17.01425,-6.18972 c 5.66517,-2.0645 11.92983,0.85802 13.99431,6.52319 l 6.18973,17.01424 c 2.06449,5.66518 -0.85802,11.92984 -6.52319,13.99432 z m 0,0"
     fill="#aad7ef"
     id="path845"
     style="stroke-width:0.959182" />
  <path
     d="m 314.65284,302.58523 -17.01425,6.19347 c -5.66517,2.06075 -11.92983,-0.85802 -13.99433,-6.52693 l -6.19347,-17.01425 c -2.06074,-5.66518 0.86177,-11.92984 6.52694,-13.99432 l 17.01425,-6.18972 c 5.66517,-2.0645 11.93358,0.85802 13.99432,6.52319 l 6.19346,17.01424 c 2.06075,5.66892 -0.85801,11.93358 -6.52692,13.99432 z m 0,0"
     fill="#f8eed1"
     id="path847"
     style="stroke-width:0.959182" />
  <path
     d="m 208.70814,413.59186 -17.01425,6.19347 c -5.66892,2.06074 -11.93358,-0.86177 -13.99431,-6.52694 l -6.19347,-17.01425 c -2.06075,-5.66517 0.85801,-11.93357 6.52318,-13.99431 l 17.01425,-6.19347 c 5.66891,-2.06075 11.93357,0.86176 13.99432,6.52694 l 6.19347,17.01424 c 2.06449,5.66517 -0.85802,11.92983 -6.52319,13.99432 z m 0,0"
     fill="#97d1c2"
     id="path849"
     style="stroke-width:0.959182" />
  <path
     d="m 273.32181,390.07316 -17.01425,6.19347 c -5.66891,2.06074 -11.93357,-0.86177 -13.99431,-6.52694 l -6.19347,-17.01425 c -2.06075,-5.66517 0.85801,-11.92983 6.52693,-13.99431 l 17.01425,-6.19347 c 5.66517,-2.06075 11.92983,0.86175 13.99432,6.52692 l 6.18972,17.01426 c 2.06449,5.66517 -0.85802,11.93357 -6.52319,13.99432 z m 0,0"
     fill="#f19a87"
     id="path851"
     style="stroke-width:0.959182" />
  <path
     d="m 337.93548,366.55446 -17.01424,6.19347 c -5.66517,2.06074 -11.92983,-0.86177 -13.99432,-6.52694 l -6.18973,-17.01425 c -2.06449,-5.66517 0.85803,-11.92983 6.5232,-13.99432 l 17.01424,-6.18972 c 5.66517,-2.06449 11.93358,0.85801 13.99432,6.52318 l 6.19347,17.01426 c 2.06075,5.66891 -0.86177,11.93357 -6.52694,13.99432 z m 0,0"
     fill="#97d1c2"
     id="path853"
     style="stroke-width:0.959182" />
  <path
     d="m 155.18876,229.61244 c -4.14022,-11.37531 -19.07874,-16.38478 -33.36156,-11.18422 -14.28657,5.19682 -22.51081,18.63286 -18.3706,30.00817 4.14023,11.37905 19.07875,16.38478 33.36157,11.18421 14.28657,-5.19682 22.51081,-18.63286 18.37059,-30.00816 z m 0,0"
     fill="#f19a87"
     id="path855"
     style="stroke-width:0.959182" />
  <path
     d="m 243.65835,197.40115 c 4.14022,11.3753 19.07499,16.38103 33.36156,11.18421 14.28283,-5.20057 22.50707,-18.63662 18.36685,-30.01192 -4.14023,-11.37531 -19.075,-16.38478 -33.36157,-11.18422 -14.28283,5.20057 -22.50706,18.63662 -18.36684,30.01193 z m 0,0"
     fill="#f19a87"
     id="path857"
     style="stroke-width:0.959182" />
  <g
     fill="#495059"
     id="g873"
     style="fill:#000000"
     transform="matrix(0.95918239,0,0,0.95918239,2.3865092,7.4493084)">
    <path
       d="m 140.25781,221.78516 c -3.0625,0 -5.9375,-1.89063 -7.04687,-4.9375 l -3.46485,-9.52344 c -1.41797,-3.89063 0.58985,-8.19531 4.48047,-9.60938 3.89063,-1.41797 8.19531,0.58985 9.61328,4.48047 l 3.46875,9.52344 c 1.41407,3.89062 -0.58984,8.19531 -4.48437,9.61328 -0.84766,0.30859 -1.71485,0.45313 -2.56641,0.45313 z m 0,0"
       id="path859"
       style="fill:#000000" />
    <path
       d="m 254.98828,180.02734 c -3.0625,0 -5.9375,-1.89062 -7.04687,-4.9375 l -3.46485,-9.52343 c -1.41797,-3.89063 0.58985,-8.19532 4.48047,-9.60938 3.89453,-1.41797 8.19531,0.58984 9.61328,4.48047 l 3.46485,9.52344 c 1.41797,3.89062 -0.58985,8.19531 -4.48047,9.60937 -0.84766,0.3125 -1.71485,0.45703 -2.56641,0.45703 z m 0,0"
       id="path861"
       style="fill:#000000" />
    <path
       d="m 192.99609,209.50391 c -4.82812,0 -9.64062,-1.21485 -13.97265,-3.60938 -3.625,-2.00391 -4.9375,-6.56641 -2.9336,-10.19141 2.00391,-3.625 6.56641,-4.9375 10.19141,-2.93359 3.51172,1.94141 7.67969,2.26953 11.4375,0.89844 3.75781,-1.36719 6.74219,-4.29688 8.18359,-8.04297 1.48828,-3.86328 5.83203,-5.78906 9.69532,-4.30078 3.86328,1.48828 5.78906,5.82812 4.30078,9.69531 -3.00391,7.78906 -9.21485,13.89453 -17.05078,16.74609 -3.19141,1.16016 -6.52735,1.73829 -9.85157,1.73829 z m 0,0"
       id="path863"
       style="fill:#000000" />
    <path
       d="m 399.75391,238.42969 c -0.32422,0 -0.64844,-0.0234 -0.97266,-0.0625 -4.10938,-0.53125 -7.00781,-4.29297 -6.47656,-8.39844 1.53906,-11.91797 0.21875,-23.73047 -3.92188,-35.10547 -4.14062,-11.37891 -10.72265,-21.27344 -19.5625,-29.41406 -3.04687,-2.80469 -3.24219,-7.55078 -0.4375,-10.59766 2.80469,-3.04297 7.55078,-3.24219 10.59766,-0.4375 10.47265,9.64453 18.59765,21.85547 23.49609,35.31641 4.90235,13.46094 6.52735,28.03906 4.70313,42.16015 -0.48828,3.78125 -3.71485,6.53907 -7.42578,6.53907 z m 0,0"
       id="path865"
       style="fill:#000000" />
    <path
       d="m 432.29687,248.49609 c -0.32031,0 -0.64453,-0.0195 -0.97265,-0.0625 -4.10547,-0.53125 -7.00781,-4.29297 -6.47656,-8.39843 2.46484,-19.07032 0.35547,-37.96485 -6.26953,-56.16407 -6.6211,-18.19922 -17.15235,-34.03125 -31.29688,-47.05468 -3.04687,-2.80469 -3.24219,-7.54688 -0.4375,-10.59766 2.80469,-3.04297 7.54688,-3.24219 10.59766,-0.4375 15.70312,14.45703 27.88671,32.77344 35.23437,52.95703 7.34766,20.19141 9.78516,42.04688 7.04688,63.21875 -0.48828,3.78125 -3.71485,6.53906 -7.42579,6.53906 z m 0,0"
       id="path867"
       style="fill:#000000" />
    <path
       d="m 66.910156,359.56641 c -1.816406,0 -3.636718,-0.65625 -5.078125,-1.98047 -10.472656,-9.64063 -18.597656,-21.85547 -23.496093,-35.31641 -4.902344,-13.46094 -6.527344,-28.03906 -4.703126,-42.15625 0.53125,-4.10937 4.289063,-7.0039 8.398438,-6.48047 4.109375,0.53125 7.011719,4.29297 6.480469,8.39844 -1.542969,11.91797 -0.222657,23.73047 3.917969,35.10937 4.140624,11.375 10.722656,21.26954 19.5625,29.41016 3.046874,2.80469 3.242187,7.54688 0.4375,10.59766 -1.480469,1.60547 -3.496094,2.41797 -5.519532,2.41797 z m 0,0"
       id="path869"
       style="fill:#000000" />
    <path
       d="m 48.453125,388.19922 c -1.816406,0 -3.636719,-0.65625 -5.078125,-1.98047 C 27.671875,371.76172 15.488281,353.44922 8.140625,333.25781 0.792969,313.07031 -1.644531,291.21094 1.089844,270.04297 c 0.53125,-4.10938 4.285156,-7.00781 8.398437,-6.47656 4.109375,0.53125 7.007813,4.28906 6.476563,8.39843 -2.460938,19.06641 -0.355469,37.96485 6.269531,56.16407 6.625,18.19921 17.15625,34.03125 31.296875,47.05078 3.050781,2.80859 3.246094,7.55078 0.4375,10.59765 -1.476562,1.60938 -3.492188,2.42188 -5.515625,2.42188 z m 0,0"
       id="path871"
       style="fill:#000000" />
  </g>
  <path
     d="m 155.94937,74.869339 c 0,3.855465 -3.12859,6.984047 -6.9878,6.984047 -3.85921,0 -6.98405,-3.128582 -6.98405,-6.984047 0,-3.85921 3.12484,-6.987793 6.98405,-6.987793 3.85921,0 6.9878,3.128583 6.9878,6.987793 z m 0,0"
     fill="#f8eed1"
     id="path875"
     style="stroke-width:0.959182" />
</svg>
