<?xml version="1.0" encoding="UTF-8" standalone="no"?>
<svg
   xmlns:dc="http://purl.org/dc/elements/1.1/"
   xmlns:cc="http://creativecommons.org/ns#"
   xmlns:rdf="http://www.w3.org/1999/02/22-rdf-syntax-ns#"
   xmlns:svg="http://www.w3.org/2000/svg"
   xmlns="http://www.w3.org/2000/svg"
   xmlns:sodipodi="http://sodipodi.sourceforge.net/DTD/sodipodi-0.dtd"
   xmlns:inkscape="http://www.inkscape.org/namespaces/inkscape"
   width="800"
   height="200"
   viewBox="0 0 211.66666 52.916668"
   version="1.1"
   id="svg8"
   inkscape:version="1.0.1 (c497b03c, 2020-09-10)"
   sodipodi:docname="comet.svg">
  <defs
     id="defs2" />
  <sodipodi:namedview
     id="base"
     pagecolor="#ffffff"
     bordercolor="#666666"
     borderopacity="1.0"
     inkscape:pageopacity="0.0"
     inkscape:pageshadow="2"
     inkscape:zoom="0.35"
     inkscape:cx="516.76921"
     inkscape:cy="26.771339"
     inkscape:document-units="mm"
     inkscape:current-layer="layer1"
     inkscape:document-rotation="0"
     showgrid="false"
     inkscape:window-width="1252"
     inkscape:window-height="943"
     inkscape:window-x="540"
     inkscape:window-y="23"
     inkscape:window-maximized="0"
     units="px"
     inkscape:snap-global="false" />
  <metadata
     id="metadata5">
    <rdf:RDF>
      <cc:Work
         rdf:about="">
        <dc:format>image/svg+xml</dc:format>
        <dc:type
           rdf:resource="http://purl.org/dc/dcmitype/StillImage" />
        <dc:title />
      </cc:Work>
    </rdf:RDF>
  </metadata>
  <g
     inkscape:groupmode="layer"
     id="layer3"
     inkscape:label="back"
     style="opacity:1" />
  <g
     inkscape:label="Layer 1"
     inkscape:groupmode="layer"
     id="layer1"
     style="display:inline;opacity:1">
    <path
       id="rect1994"
       style="fill:#00ffff;fill-opacity:0.380567;stroke-width:0.891623;stroke-linecap:round"
       d="m 44.476688,14.161255 c -0.740939,0 -1.337121,0.596644 -1.337121,1.337583 0,0.740938 0.596182,1.337582 1.337121,1.337582 H 57.89905 c 0.740939,0 1.337582,-0.596644 1.337582,-1.337582 0,-0.740939 -0.596643,-1.337583 -1.337582,-1.337583 z m 19.597913,0 c -0.74094,0 -1.337585,0.596644 -1.337585,1.337583 0,0.740938 0.596645,1.337582 1.337585,1.337582 h 57.156549 c 0.152,0.05723 0.3159,0.08985 0.4884,0.08985 h 1.03671 11.07019 c 0.76562,0 1.38182,0.616655 1.38182,1.382276 0,0.688258 -0.49826,1.255706 -1.15513,1.363385 h -12.33359 c -0.76562,0 -1.38181,0.616199 -1.38181,1.381815 0,0.765616 0.61619,1.381816 1.38181,1.381815 h 1.03671 v 0.01889 h 5.06743 c 0.76562,0 1.38181,0.616199 1.38181,1.381815 0,0.688258 -0.49826,1.2557 -1.15512,1.363386 h -6.33083 -72.557408 c -0.740937,0 -1.337582,0.596644 -1.337582,1.337582 0,0.740939 0.596645,1.337581 1.337582,1.337581 h 72.072238 c 0.15112,0.05648 0.31388,0.08893 0.48517,0.08893 h 1.03671 v 0.01842 h 11.07019 c 0.76562,0 1.38182,0.616659 1.38182,1.382277 0,0.765622 -0.6162,1.381815 -1.38182,1.381815 h -11.07019 -6.70266 c -0.76562,0 -1.3818,0.61666 -1.38181,1.382275 1e-5,0.765614 0.61619,1.381815 1.38181,1.381815 h 10.23945 c 0.76322,0.0025 1.37675,0.617919 1.37675,1.381817 0,0.765615 -0.61621,1.381815 -1.38182,1.381815 h -3.53172 -1.03671 c -0.1718,0 -0.33506,0.03259 -0.48656,0.08939 H 97.753678 c -0.533045,0 -0.962064,0.429024 -0.962064,0.962063 v 0.750576 c 0,0.53304 0.429019,0.962065 0.962064,0.962065 h 23.965872 19.86424 7.31454 34.38908 c 0.10176,0 0.2034,-0.0012 0.30457,-0.0037 0.0303,-7.08e-4 0.0601,-0.0019 0.0903,-0.0032 0.0686,-0.0019 0.13719,-0.0045 0.2055,-0.0078 0.0418,-0.0019 0.0833,-0.0039 0.12486,-0.0064 0.057,-0.0031 0.1142,-0.007 0.17094,-0.01107 0.0437,-0.0031 0.0873,-0.0062 0.13086,-0.0097 0.0593,-0.005 0.11875,-0.01048 0.17785,-0.01614 0.0377,-0.0037 0.0752,-0.007 0.11289,-0.01107 0.0635,-0.0067 0.12663,-0.01369 0.18983,-0.02121 0.0361,-0.0044 0.0723,-0.0084 0.10828,-0.0129 0.0709,-0.0091 0.14144,-0.01968 0.21195,-0.02995 0.0269,-0.0037 0.0541,-0.0074 0.0811,-0.01151 0.0926,-0.01418 0.1846,-0.02897 0.27645,-0.04515 0.0475,-0.0084 0.0946,-0.01781 0.14191,-0.02672 0.0466,-0.0087 0.0936,-0.01743 0.14008,-0.02672 0.0526,-0.01048 0.10482,-0.02156 0.15711,-0.03271 0.0408,-0.0087 0.0815,-0.01717 0.12211,-0.02626 0.0528,-0.0118 0.10552,-0.02438 0.15804,-0.03686 0.0403,-0.0096 0.0805,-0.01953 0.12072,-0.02949 0.0534,-0.01323 0.10678,-0.02662 0.15987,-0.04055 0.0375,-0.0099 0.0746,-0.01979 0.11197,-0.02995 0.054,-0.01468 0.10803,-0.02933 0.16173,-0.0447 0.0336,-0.0096 0.067,-0.01998 0.10045,-0.02995 0.2097,-0.0621 0.41717,-0.129605 0.62202,-0.202272 0.0191,-0.0068 0.038,-0.01337 0.0571,-0.02027 0.06,-0.02163 0.11964,-0.04384 0.17923,-0.06635 0.0283,-0.01066 0.0567,-0.0214 0.0848,-0.03225 0.0585,-0.02258 0.11663,-0.04567 0.17463,-0.06911 0.0271,-0.01092 0.0541,-0.02209 0.0811,-0.03318 0.0592,-0.0244 0.11818,-0.04892 0.17693,-0.07418 0.0226,-0.0097 0.0451,-0.0201 0.0678,-0.02995 0.0632,-0.02766 0.12622,-0.05516 0.1889,-0.08386 0.0136,-0.0062 0.027,-0.01269 0.0406,-0.01889 0.30291,-0.139952 0.59933,-0.291786 0.88834,-0.45477 0.003,-0.0012 0.004,-0.0024 0.007,-0.0037 7.1e-4,-2.35e-4 8.9e-4,-7.07e-4 0.002,-0.0014 0.0726,-0.04102 0.14445,-0.08246 0.21609,-0.124867 0.002,-0.0012 0.004,-0.0029 0.006,-0.0042 8.9e-4,-7.08e-4 0.003,-9.81e-4 0.004,-0.0023 0.0704,-0.04177 0.14015,-0.08404 0.20965,-0.127171 0.005,-0.0037 0.0114,-0.0071 0.017,-0.01059 0.0701,-0.04359 0.13958,-0.08819 0.20872,-0.133159 1.414,-0.91993 2.62746,-2.119362 3.56305,-3.52204 0.002,-0.0025 0.004,-0.006 0.005,-0.0087 0.0617,-0.09259 0.12186,-0.185808 0.18108,-0.280141 0.009,-0.01369 0.0172,-0.02773 0.0258,-0.04147 0.0534,-0.08581 0.10532,-0.172206 0.15666,-0.259407 0.009,-0.016 0.0192,-0.03186 0.0285,-0.04792 0.0579,-0.09926 0.11443,-0.199423 0.16956,-0.300415 0.0585,-0.10719 0.11598,-0.214823 0.17141,-0.323914 0.0513,-0.101031 0.10065,-0.203326 0.14928,-0.305943 0.0117,-0.02459 0.023,-0.04945 0.0345,-0.07418 0.0367,-0.07885 0.0727,-0.158009 0.10782,-0.237751 0.0135,-0.03055 0.0273,-0.06101 0.0406,-0.09169 0.035,-0.0813 0.0689,-0.162936 0.10229,-0.245124 0.0101,-0.0249 0.0205,-0.04964 0.0304,-0.07465 0.0414,-0.103889 0.0811,-0.208512 0.1198,-0.313777 8.9e-4,-0.0031 0.003,-0.0063 0.004,-0.0092 0.4894,-1.33777 0.75656,-2.784262 0.75656,-4.295652 0,-0.0044 1e-5,-0.0083 0,-0.01243 2e-5,-0.0019 0,-0.0045 0,-0.0064 0,-0.0065 -4.7e-4,-0.01283 -4.7e-4,-0.01935 -0.004,-1.503506 -0.27315,-2.942636 -0.76209,-4.273538 0.002,-0.0012 0.004,-0.002 0.005,-0.0032 -0.33985,-0.928988 -0.78738,-1.804864 -1.32699,-2.613885 h -0.0124 c -0.69432,-1.03693 -1.54084,-1.96257 -2.50791,-2.745661 -0.33373,-0.270242 -0.68151,-0.523424 -1.0427,-0.758408 -0.0691,-0.04497 -0.1391,-0.08907 -0.20918,-0.132699 -0.005,-0.0037 -0.0113,-0.007 -0.017,-0.0106 -0.0669,-0.04152 -0.13408,-0.08231 -0.20181,-0.122563 -0.01,-0.0056 -0.0194,-0.0118 -0.0291,-0.01751 -0.0678,-0.04002 -0.13596,-0.07965 -0.20457,-0.118415 -7.2e-4,-5.19e-4 -9e-4,-3.06e-4 -0.002,-8.91e-4 -0.003,-0.0012 -0.004,-0.0029 -0.007,-0.0042 -0.29159,-0.164438 -0.59045,-0.317014 -0.89618,-0.457994 -0.0103,-0.005 -0.0201,-0.0096 -0.0304,-0.01428 -0.0632,-0.02898 -0.12694,-0.0573 -0.19076,-0.08524 -0.0225,-0.0098 -0.0451,-0.01977 -0.0678,-0.02949 -0.0588,-0.02528 -0.11772,-0.05027 -0.17693,-0.07465 -0.0269,-0.0111 -0.0545,-0.0218 -0.0816,-0.03271 -0.058,-0.02346 -0.11572,-0.047 -0.17416,-0.06957 -0.0281,-0.01085 -0.0565,-0.02113 -0.0848,-0.03179 -0.0596,-0.02251 -0.1192,-0.04518 -0.17924,-0.06681 -0.0191,-0.0069 -0.0385,-0.01297 -0.0576,-0.01981 -0.14094,-0.04999 -0.28293,-0.09827 -0.4262,-0.143296 -0.008,-0.0025 -0.0149,-0.005 -0.0226,-0.0074 -2.4e-4,-8.2e-5 -7.1e-4,7.6e-5 -8.9e-4,0 -0.0537,-0.01675 -0.10775,-0.03279 -0.16173,-0.04884 -0.0369,-0.01098 -0.0735,-0.02205 -0.11058,-0.03271 -0.0537,-0.01543 -0.10773,-0.03002 -0.16172,-0.0447 -0.0373,-0.01016 -0.0746,-0.0201 -0.11197,-0.02995 -0.0531,-0.01393 -0.10651,-0.02777 -0.15988,-0.04101 -0.0412,-0.01023 -0.0822,-0.02016 -0.12349,-0.02995 -0.0491,-0.01167 -0.0985,-0.02299 -0.1479,-0.0341 -0.0489,-0.01098 -0.0978,-0.02184 -0.14698,-0.03225 -0.044,-0.0093 -0.088,-0.01881 -0.13224,-0.02765 -0.0602,-0.01205 -0.12098,-0.02333 -0.18154,-0.03456 -0.0339,-0.0062 -0.0674,-0.01293 -0.10136,-0.01889 -0.0959,-0.01693 -0.19226,-0.03279 -0.2889,-0.04746 -0.0128,-0.0019 -0.0259,-0.0037 -0.0387,-0.0055 -0.0825,-0.0123 -0.16529,-0.0239 -0.24835,-0.03456 -0.0377,-0.005 -0.0754,-0.0093 -0.11334,-0.01382 -0.0589,-0.007 -0.11819,-0.01361 -0.17739,-0.01981 -0.0436,-0.0044 -0.0871,-0.0088 -0.13086,-0.0129 -0.0557,-0.005 -0.11172,-0.01024 -0.16772,-0.01475 -0.0409,-0.0031 -0.082,-0.0067 -0.12301,-0.0097 -0.0623,-0.0044 -0.12493,-0.0085 -0.18754,-0.01197 -0.0383,-0.0019 -0.0768,-0.0041 -0.11519,-0.006 -0.0619,-0.0031 -0.12359,-0.0049 -0.18569,-0.007 -0.0391,-0.0012 -0.0784,-0.0036 -0.11749,-0.0042 -0.099,-0.0025 -0.19811,-0.0037 -0.29765,-0.0037 h -0.73808 -59.79256 z M 15.730414,25.199652 c -0.740938,0 -1.337582,0.596644 -1.337582,1.337582 0,0.740939 0.596644,1.337582 1.337582,1.337582 h 26.245274 c 0.740939,0 1.337585,-0.596643 1.337585,-1.337582 0,-0.740938 -0.596646,-1.337582 -1.337585,-1.337582 z m 61.099831,11.163724 c -0.740939,0 -1.337583,0.596183 -1.337583,1.337119 0,0.74094 0.596644,1.337585 1.337583,1.337585 h 13.422317 c 0.740933,0 1.337114,-0.596645 1.337114,-1.337585 0,-0.740936 -0.596181,-1.337119 -1.337114,-1.337119 z"
       sodipodi:nodetypes="ssssssscsscscsscsssccssccssscsccssscssscsscscsssscccsccccccccccccscssssscsscscssscscsccccscccccccccccsscsccscccssscccccsscccccccccccscscscsscssscssssscccccsccccccccscccssssssssssssss" />
  </g>
  <g
     inkscape:groupmode="layer"
     id="layer2"
     inkscape:label="Layer 2"
     style="display:inline"
     sodipodi:insensitive="true">
    <path
       id="path2004"
       style="opacity:1;fill:#00ffff;fill-opacity:0.611336;stroke-width:0.26116;stroke-linecap:round"
       d="m 122.75626,14.161255 -1.03671,0.0014 c -0.76562,0 -1.38181,0.616195 -1.38181,1.381816 0,0.765616 0.61619,1.381815 1.38181,1.381815 h 1.03671 11.07019 c 0.76562,0 1.38182,0.616655 1.38182,1.382276 0,0.688258 -0.49826,1.255706 -1.15513,1.363386 h -12.33359 c -0.76562,0 -1.38181,0.616199 -1.38181,1.381815 0,0.765616 0.61619,1.381816 1.38181,1.381815 h 1.03671 v 0.01889 h 5.06743 c 0.76562,0 1.38181,0.616199 1.38181,1.381815 0,0.688258 -0.49826,1.2557 -1.15512,1.363385 h -6.33083 c -0.76562,0 -1.38181,0.616655 -1.38181,1.382276 0,0.765609 0.61619,1.381817 1.38181,1.381817 h 1.03671 v 0.01842 h 11.07019 c 0.76562,0 1.38182,0.616659 1.38182,1.382277 0,0.765622 -0.6162,1.381815 -1.38182,1.381815 h -11.07019 -6.70266 c -0.76562,0 -1.3818,0.616659 -1.38181,1.382274 1e-5,0.765616 0.61619,1.381816 1.38181,1.381816 h 10.23945 c 0.76322,0.0025 1.37675,0.61792 1.37675,1.381817 0,0.765615 -0.61621,1.381815 -1.38182,1.381815 h -3.53172 -1.03671 c -0.76562,0 -1.38181,0.61666 -1.38181,1.382275 0,0.765615 0.61619,1.381817 1.38181,1.381817 h 1.03671 26.14207 34.13612 c 0.10176,0 0.2034,-0.0012 0.30456,-0.0037 0.0303,-7.08e-4 0.0601,-0.0019 0.0903,-0.0032 0.0686,-0.0019 0.13719,-0.0045 0.2055,-0.0078 0.0418,-0.0019 0.0833,-0.0039 0.12486,-0.0064 0.057,-0.0031 0.1142,-0.007 0.17094,-0.01107 0.0437,-0.0031 0.0873,-0.0062 0.13086,-0.0097 0.0593,-0.005 0.11875,-0.01048 0.17785,-0.01614 0.0377,-0.0037 0.0753,-0.007 0.11289,-0.01107 0.0635,-0.0067 0.12662,-0.01369 0.18983,-0.02121 0.0361,-0.0044 0.0723,-0.0084 0.10828,-0.0129 0.0709,-0.0091 0.14144,-0.01968 0.21195,-0.02995 0.0269,-0.0037 0.0542,-0.0074 0.0811,-0.01151 0.0926,-0.01418 0.1846,-0.02897 0.27645,-0.04515 0.0475,-0.0084 0.0946,-0.01781 0.14191,-0.02672 0.0466,-0.0087 0.0936,-0.01743 0.14008,-0.02672 0.0526,-0.01048 0.10482,-0.02156 0.15711,-0.03271 0.0408,-0.0087 0.0815,-0.01717 0.12211,-0.02626 0.0528,-0.0118 0.10552,-0.02438 0.15803,-0.03686 0.0403,-0.0096 0.0805,-0.01954 0.12072,-0.02949 0.0534,-0.01323 0.10679,-0.02662 0.15988,-0.04055 0.0374,-0.0099 0.0746,-0.01979 0.11197,-0.02995 0.054,-0.01468 0.10803,-0.02933 0.16172,-0.0447 0.0336,-0.0096 0.067,-0.01998 0.10045,-0.02995 0.20971,-0.0621 0.41718,-0.129605 0.62203,-0.202273 0.0191,-0.0068 0.038,-0.01337 0.0572,-0.02027 0.06,-0.02163 0.11964,-0.04384 0.17923,-0.06635 0.0283,-0.01066 0.0567,-0.0214 0.0848,-0.03225 0.0585,-0.02258 0.11663,-0.04567 0.17463,-0.06912 0.0271,-0.01092 0.0541,-0.02208 0.0811,-0.03318 0.0592,-0.0244 0.11818,-0.04892 0.17692,-0.07418 0.0226,-0.0097 0.0451,-0.0201 0.0678,-0.02995 0.0632,-0.02766 0.12622,-0.05516 0.1889,-0.08386 0.0136,-0.0062 0.027,-0.01269 0.0406,-0.01889 0.30291,-0.139953 0.59933,-0.291786 0.88835,-0.45477 0.003,-0.0012 0.004,-0.0024 0.007,-0.0037 7.1e-4,-2.35e-4 8.9e-4,-7.07e-4 0.002,-0.0014 0.0726,-0.04102 0.14445,-0.08246 0.2161,-0.124867 0.002,-0.0012 0.004,-0.0029 0.006,-0.0042 8.9e-4,-7.07e-4 0.003,-9.8e-4 0.004,-0.0023 0.0704,-0.04177 0.14015,-0.08404 0.20965,-0.127171 0.005,-0.0037 0.0114,-0.0071 0.017,-0.01059 0.0701,-0.04359 0.13958,-0.08819 0.20872,-0.133159 1.414,-0.91993 2.62746,-2.119362 3.56305,-3.52204 0.002,-0.0025 0.004,-0.006 0.005,-0.0087 0.0617,-0.09259 0.12187,-0.185809 0.18108,-0.280142 0.009,-0.01369 0.0172,-0.02773 0.0258,-0.04147 0.0534,-0.08581 0.10531,-0.172205 0.15665,-0.259407 0.009,-0.016 0.0192,-0.03186 0.0285,-0.04792 0.0579,-0.09926 0.11442,-0.199423 0.16956,-0.300415 0.0585,-0.10719 0.11596,-0.214823 0.1714,-0.323914 0.0513,-0.101031 0.10065,-0.203325 0.14929,-0.305943 0.0117,-0.02459 0.023,-0.04945 0.0345,-0.07418 0.0367,-0.07885 0.0727,-0.15801 0.10783,-0.237751 0.0135,-0.03055 0.0273,-0.06101 0.0406,-0.09169 0.035,-0.0813 0.0689,-0.162935 0.10229,-0.245123 0.0101,-0.0249 0.0205,-0.04963 0.0304,-0.07465 0.0414,-0.103889 0.0811,-0.208512 0.11979,-0.313777 9e-4,-0.0031 0.003,-0.0063 0.004,-0.0092 0.4894,-1.33777 0.75656,-2.784262 0.75656,-4.295652 0,-0.0044 1e-5,-0.0083 0,-0.01243 2e-5,-0.0019 0,-0.0045 0,-0.0064 0,-0.0065 -4.7e-4,-0.01283 -4.7e-4,-0.01935 -0.004,-1.503506 -0.27315,-2.942636 -0.76209,-4.273538 0.002,-0.0012 0.004,-0.002 0.005,-0.0032 -0.33985,-0.928987 -0.78738,-1.804863 -1.32698,-2.613884 h -0.0124 c -0.69431,-1.03693 -1.54083,-1.96257 -2.5079,-2.745661 -0.33373,-0.270242 -0.68151,-0.523424 -1.0427,-0.758408 -0.0691,-0.04497 -0.1391,-0.08907 -0.20918,-0.132699 -0.005,-0.0037 -0.0113,-0.007 -0.017,-0.01059 -0.0669,-0.04152 -0.13408,-0.08231 -0.20181,-0.122563 -0.01,-0.0056 -0.0194,-0.0118 -0.0291,-0.01751 -0.0678,-0.04002 -0.13596,-0.07965 -0.20457,-0.118416 -7.2e-4,-5.19e-4 -9e-4,-3.06e-4 -0.002,-8.91e-4 -0.003,-0.0012 -0.004,-0.0029 -0.007,-0.0042 -0.29159,-0.164438 -0.59045,-0.317015 -0.89618,-0.457994 -0.0102,-0.005 -0.0201,-0.0096 -0.0304,-0.01428 -0.0632,-0.02898 -0.12694,-0.0573 -0.19076,-0.08524 -0.0225,-0.0098 -0.0451,-0.01977 -0.0678,-0.02949 -0.0588,-0.02528 -0.11772,-0.05027 -0.17693,-0.07465 -0.0269,-0.0111 -0.0545,-0.0218 -0.0816,-0.03271 -0.058,-0.02346 -0.11572,-0.047 -0.17416,-0.06957 -0.0281,-0.01085 -0.0565,-0.02113 -0.0848,-0.03179 -0.0596,-0.02251 -0.1192,-0.04518 -0.17924,-0.06681 -0.0191,-0.0069 -0.0385,-0.01297 -0.0576,-0.01981 -0.14095,-0.04999 -0.28293,-0.09827 -0.4262,-0.143297 -0.008,-0.0025 -0.0149,-0.005 -0.0226,-0.0074 -2.4e-4,-8.2e-5 -7.1e-4,7.6e-5 -8.9e-4,0 -0.0537,-0.01675 -0.10775,-0.03279 -0.16173,-0.04884 -0.0369,-0.01098 -0.0735,-0.02205 -0.11058,-0.03271 -0.0537,-0.01543 -0.10773,-0.03002 -0.16172,-0.0447 -0.0373,-0.01016 -0.0746,-0.0201 -0.11197,-0.02995 -0.0531,-0.01393 -0.10651,-0.02777 -0.15988,-0.04101 -0.0412,-0.01023 -0.0822,-0.02016 -0.12349,-0.02995 -0.0491,-0.01167 -0.0985,-0.02299 -0.1479,-0.0341 -0.049,-0.01098 -0.0978,-0.02184 -0.14699,-0.03225 -0.044,-0.0093 -0.088,-0.01881 -0.13223,-0.02765 -0.0602,-0.01205 -0.12098,-0.02333 -0.18154,-0.03456 -0.0339,-0.0062 -0.0674,-0.01293 -0.10136,-0.01889 -0.0959,-0.01693 -0.19226,-0.03279 -0.2889,-0.04746 -0.0128,-0.0019 -0.0259,-0.0037 -0.0387,-0.0055 -0.0825,-0.0123 -0.16529,-0.0239 -0.24835,-0.03456 -0.0377,-0.005 -0.0754,-0.0093 -0.11334,-0.01382 -0.0589,-0.007 -0.11819,-0.01361 -0.17739,-0.01981 -0.0436,-0.0044 -0.0871,-0.0088 -0.13086,-0.0129 -0.0557,-0.005 -0.11172,-0.01024 -0.16772,-0.01475 -0.0409,-0.0031 -0.082,-0.0067 -0.12301,-0.0097 -0.0623,-0.0044 -0.12493,-0.0085 -0.18754,-0.01198 -0.0383,-0.0019 -0.0768,-0.0041 -0.11519,-0.006 -0.0619,-0.0031 -0.12359,-0.0049 -0.18569,-0.007 -0.0391,-0.0012 -0.0784,-0.0035 -0.11749,-0.0042 -0.099,-0.0025 -0.19811,-0.0037 -0.29765,-0.0037 h -34.13566 z m -17.54753,0.0014 c -0.76562,0 -1.38181,0.615684 -1.38181,1.380434 0,0.76475 0.61619,1.380433 1.38181,1.380433 h 5.46875 c 0.76561,0 1.38181,-0.615683 1.38181,-1.380433 0,-0.76475 -0.6162,-1.380434 -1.38181,-1.380434 z m 10.04914,0 c -0.76561,0 -1.38227,0.615684 -1.38227,1.380434 0,0.76475 0.61666,1.380433 1.38227,1.380433 h 1.04639 c 0.76561,0 1.38182,-0.615683 1.38182,-1.380433 0,-0.76475 -0.61621,-1.380434 -1.38182,-1.380434 z m -7.10904,11.037006 c -0.76561,0 -1.38181,0.615682 -1.38181,1.380432 0,0.764752 0.6162,1.380432 1.38181,1.380432 h 2.42866 c 0.76561,0 1.38181,-0.61568 1.38181,-1.380432 0,-0.76475 -0.6162,-1.380432 -1.38181,-1.380432 z m 7.20627,0 c -0.76563,0 -1.38182,0.615682 -1.38182,1.380432 0,0.764752 0.61619,1.380432 1.38182,1.380432 h 1.04638 c 0.76562,0 1.38181,-0.61568 1.38181,-1.380432 0,-0.76475 -0.61619,-1.380432 -1.38181,-1.380432 z"
       sodipodi:nodetypes="ccsscsscsssccsscsssccssscssscsscsssccscccccccsccccscscsssscscssssccscsccscccccsccccccsscscscscccssscccccsscccccccccscscscscsscssscssssscccccsccccccccsccssssssssssssssssssssssssssss" />
    <path
       style="opacity:1;fill:#ffffff;fill-opacity:1;stroke-width:0.261014;stroke-linecap:round"
       d="m 164.57048,33.491611 c -0.76561,0 -1.38198,0.615604 -1.38198,1.380354 0,0.764756 0.61637,1.380498 1.38198,1.380498 h 1.04647 c 0.76561,0 1.38198,-0.615742 1.38198,-1.380498 0,-0.76475 -0.61637,-1.380354 -1.38198,-1.380354 z"
       id="path2033" />
    <path
       style="opacity:1;fill:#ffffff;fill-opacity:1;stroke-width:0.261014;stroke-linecap:round"
       d="m 154.06744,33.491611 c -0.76561,0 -1.38197,0.615604 -1.38197,1.380354 0,0.764756 0.61636,1.380498 1.38197,1.380498 h 5.46881 c 0.76561,0 1.38198,-0.615742 1.38198,-1.380498 0,-0.76475 -0.61637,-1.380354 -1.38198,-1.380354 z"
       id="path2031" />
    <path
       style="opacity:1;fill:#ffffff;fill-opacity:1;stroke-width:0.261014;stroke-linecap:round"
       d="m 163.1294,22.435778 c -0.76563,0 -1.38198,0.61561 -1.38198,1.38036 0,0.76475 0.61635,1.380491 1.38198,1.380491 h 1.04633 c 0.76561,0 1.38197,-0.615741 1.38197,-1.380491 0,-0.76475 -0.61636,-1.38036 -1.38197,-1.38036 z"
       id="path2029" />
    <path
       style="opacity:1;fill:#ffffff;fill-opacity:1;stroke-width:0.261014;stroke-linecap:round"
       d="m 157.30524,22.435778 c -0.76561,0 -1.38198,0.61561 -1.38198,1.38036 0,0.76475 0.61637,1.380491 1.38198,1.380491 h 1.04647 c 0.76562,0 1.38198,-0.615741 1.38198,-1.380491 0,-0.76475 -0.61636,-1.38036 -1.38198,-1.38036 z"
       id="path2027" />
    <path
       style="opacity:1;fill:#ffffff;fill-opacity:1;stroke-width:0.261014;stroke-linecap:round"
       d="m 162.46796,16.931882 c -0.76561,0 -1.38198,0.615741 -1.38198,1.380497 0,0.76475 0.61637,1.38036 1.38198,1.38036 h 15.05372 c 0.76562,0 1.38199,0.616363 1.38199,1.381979 0,0.683911 -0.492,1.248294 -1.14269,1.36106 h -8.55088 c -0.76562,0 -1.38198,0.61561 -1.38198,1.38036 0,0.76475 0.61636,1.380491 1.38198,1.380491 h 5.68583 c 0.76561,0 1.38198,0.616363 1.38198,1.381979 0,0.765622 -0.61637,1.381978 -1.38198,1.381978 h -2.04828 a 9.6629712,9.6629712 0 0 0 3.9e-4,0.0031 h -14.12127 c -0.76563,0 -1.38198,0.615603 -1.38198,1.380359 0,0.764751 0.61635,1.380492 1.38198,1.380492 h 18.79491 c 0.76562,0 1.38199,0.616363 1.38199,1.381979 0,0.765622 -0.61637,1.381978 -1.38199,1.381978 h -1.87944 a 9.6629712,9.6629712 0 0 0 0.004,0.0031 h -5.44829 c -0.76562,0 -1.38198,0.61561 -1.38198,1.38036 0,0.764756 0.61636,1.380492 1.38198,1.380492 h 10.9966 c 0.1086,0 0.21374,-0.01368 0.315,-0.03714 a 9.6629712,9.6629712 0 0 0 0.9049,0.04253 9.6629712,9.6629712 0 0 0 9.66291,-9.662916 9.6629712,9.6629712 0 0 0 -9.66291,-9.663059 9.6629712,9.6629712 0 0 0 -0.28018,0.0037 c -0.0333,-0.0025 -0.0668,-0.0037 -0.10068,-0.0037 z"
       id="path866" />
    <path
       style="opacity:1;fill:#ffffff;fill-opacity:1;stroke-width:0.261014;stroke-linecap:round"
       d="m 138.57042,22.152325 c -0.76561,0 -1.38197,0.615604 -1.38197,1.380354 0,0.764756 0.61636,1.380498 1.38197,1.380498 h 5.46881 c 0.76561,0 1.38198,-0.615742 1.38198,-1.380498 0,-0.76475 -0.61637,-1.380354 -1.38198,-1.380354 z"
       id="path2035" />
    <path
       style="opacity:1;fill:#ffffff;fill-opacity:1;stroke-width:0.261014;stroke-linecap:round"
       d="m 142.72816,27.63298 c -0.76561,0 -1.38197,0.615604 -1.38197,1.380354 0,0.764756 0.61636,1.380498 1.38197,1.380498 h 5.46881 c 0.76561,0 1.38198,-0.615742 1.38198,-1.380498 0,-0.76475 -0.61637,-1.380354 -1.38198,-1.380354 z"
       id="path2037" />
  </g>
</svg>
