<?xml version="1.0" encoding="UTF-8" standalone="no"?>
<svg
   xmlns:dc="http://purl.org/dc/elements/1.1/"
   xmlns:cc="http://creativecommons.org/ns#"
   xmlns:rdf="http://www.w3.org/1999/02/22-rdf-syntax-ns#"
   xmlns:svg="http://www.w3.org/2000/svg"
   xmlns="http://www.w3.org/2000/svg"
   xmlns:xlink="http://www.w3.org/1999/xlink"
   xmlns:sodipodi="http://sodipodi.sourceforge.net/DTD/sodipodi-0.dtd"
   xmlns:inkscape="http://www.inkscape.org/namespaces/inkscape"
   width="210mm"
   height="297mm"
   viewBox="0 0 210 297"
   version="1.1"
   id="svg8"
   inkscape:version="1.0.1 (c497b03c, 2020-09-10)"
   sodipodi:docname="control_room.svg"
   inkscape:export-filename="/Users/mlu/Documents/pustack-app/images/control_room.png"
   inkscape:export-xdpi="96"
   inkscape:export-ydpi="96">
  <defs
     id="defs2">
    <linearGradient
       inkscape:collect="always"
       id="linearGradient1306">
      <stop
         style="stop-color:#ffffff;stop-opacity:0.27530363"
         offset="0"
         id="stop1302" />
      <stop
         style="stop-color:#ffffff;stop-opacity:0;"
         offset="1"
         id="stop1304" />
    </linearGradient>
    <linearGradient
       inkscape:collect="always"
       xlink:href="#linearGradient1306"
       id="linearGradient1308"
       x1="47.758778"
       y1="181.3379"
       x2="133.33669"
       y2="181.3379"
       gradientUnits="userSpaceOnUse"
       gradientTransform="translate(0,15.301429)" />
    <linearGradient
       inkscape:collect="always"
       xlink:href="#linearGradient1306"
       id="linearGradient2417"
       x1="58.910576"
       y1="155.27664"
       x2="204.12634"
       y2="155.27664"
       gradientUnits="userSpaceOnUse"
       gradientTransform="translate(0,-4.2333335)" />
  </defs>
  <sodipodi:namedview
     id="base"
     pagecolor="#ffffff"
     bordercolor="#666666"
     borderopacity="1.0"
     inkscape:pageopacity="0.0"
     inkscape:pageshadow="2"
     inkscape:zoom="0.50128183"
     inkscape:cx="171.85759"
     inkscape:cy="1097.9003"
     inkscape:document-units="mm"
     inkscape:current-layer="layer4"
     inkscape:document-rotation="0"
     showgrid="false"
     inkscape:snap-global="false"
     inkscape:window-width="1792"
     inkscape:window-height="995"
     inkscape:window-x="0"
     inkscape:window-y="38"
     inkscape:window-maximized="0" />
  <metadata
     id="metadata5">
    <rdf:RDF>
      <cc:Work
         rdf:about="">
        <dc:format>image/svg+xml</dc:format>
        <dc:type
           rdf:resource="http://purl.org/dc/dcmitype/StillImage" />
        <dc:title />
      </cc:Work>
    </rdf:RDF>
  </metadata>
  <g
     inkscape:groupmode="layer"
     id="layer4"
     inkscape:label="panel"
     style="display:inline"
     sodipodi:insensitive="true">
    <path
       style="display:inline;opacity:1;fill:#000000;stroke:#000000;stroke-width:0.264583px;stroke-linecap:butt;stroke-linejoin:miter;stroke-opacity:1"
       d="m -32.485666,260.74301 14.54582,65.94104 243.884936,-2.90914 14.30339,-63.27434 -71.0321,-20.849 -7.27291,29.57649 -116.851425,-1.21213 -8.000201,-27.39464 z"
       id="path2407"
       inkscape:export-xdpi="96"
       inkscape:export-ydpi="96" />
    <path
       style="fill:none;stroke:#000000;stroke-width:0.264583px;stroke-linecap:butt;stroke-linejoin:miter;stroke-opacity:1"
       d="M 99.597428,283.67349 H 105.083"
       id="path3366" />
    <path
       style="fill:none;stroke:#000000;stroke-width:0.264583px;stroke-linecap:butt;stroke-linejoin:miter;stroke-opacity:1"
       d="m 105.68299,283.67349 5.22843,-0.25715"
       id="path3368" />
  </g>
  <g
     inkscape:label="Layer 1"
     inkscape:groupmode="layer"
     id="layer1"
     style="display:inline;opacity:1">
    <path
       style="fill:#21242b;fill-opacity:1;stroke:#000000;stroke-width:0.323719px;stroke-linecap:butt;stroke-linejoin:miter;stroke-opacity:1"
       d="M 71.948812,290.38305 H 24.903421 l 16.224996,-14.67423 39.098049,0.23705 z"
       id="path2419"
       sodipodi:nodetypes="ccccc" />
    <path
       id="path2423"
       style="fill:#737f9c;fill-opacity:1;stroke:none;stroke-width:0.462682;stroke-linecap:round"
       d="m 29.735939,289.02627 c -0.98191,0 -1.905981,0.15531 -2.064699,0.34914 -0.159626,0.19383 0.514109,0.35171 1.505553,0.35171 0.476154,0 0.962025,-0.0372 1.350194,-0.10397 0.387443,-0.0655 0.645315,-0.15532 0.717228,-0.24774 0.07173,-0.0924 -0.04731,-0.18227 -0.330602,-0.24774 -0.28266,-0.0642 -0.70615,-0.1014 -1.177674,-0.1014 z" />
    <path
       id="ellipse2425"
       style="fill:#737f9c;fill-opacity:1;stroke:none;stroke-width:0.462129;stroke-linecap:round"
       d="m 68.978421,289.02627 c -0.980108,0 -1.846988,0.15531 -1.936665,0.34914 -0.09058,0.19383 0.637705,0.35171 1.625966,0.35171 0.47556,0 0.946593,-0.0372 1.310736,-0.10397 0.363238,-0.0655 0.58879,-0.15532 0.62774,-0.24774 0.03895,-0.0924 -0.111416,-0.18227 -0.416681,-0.24774 -0.305265,-0.0642 -0.74097,-0.1014 -1.211096,-0.1014 z" />
    <path
       id="ellipse2427"
       style="fill:#737f9c;fill-opacity:1;stroke:none;stroke-width:0.52436;stroke-linecap:round"
       d="m 44.273571,277.86782 c -0.511969,0 -1.030119,0.0257 -1.44086,0.0719 -0.411325,0.0475 -0.68177,0.11039 -0.751277,0.17714 -0.06974,0.0655 0.06787,0.12965 0.383102,0.17714 0.315812,0.0475 0.783348,0.0732 1.299631,0.0732 1.075018,0 2.057672,-0.11296 2.194236,-0.25031 0.135981,-0.13863 -0.618561,-0.24902 -1.684832,-0.24902 z" />
    <path
       id="ellipse2429"
       style="fill:#737f9c;fill-opacity:1;stroke:none;stroke-width:0.52436;stroke-linecap:round"
       d="m 72.053771,277.86782 c -0.511969,0 -1.018107,0.0257 -1.407623,0.0719 -0.390682,0.0475 -0.632089,0.11039 -0.67174,0.17714 -0.03965,0.0655 0.127117,0.12965 0.464154,0.17714 0.337036,0.0475 0.816351,0.0732 1.332985,0.0732 1.075251,0 2.005891,-0.11296 2.080529,-0.25031 0.07231,-0.13863 -0.732383,-0.24902 -1.798305,-0.24902 z" />
    <path
       id="path1114"
       style="display:inline;fill:#737c9d;fill-opacity:1;stroke:none;stroke-width:0.264583px;stroke-linecap:butt;stroke-linejoin:miter;stroke-opacity:1"
       d="m -52.653697,125.27945 -2.620621,4.93375 110.790825,37.33424 -19.879405,70.06277 -73.698861,20.84899 6.545855,5.81825 67.395367,-21.3341 6.545648,28.84947 122.669919,-0.72715 6.06062,-29.33409 86.66634,27.27736 -1.02837,-7.8853 -85.36946,-23.65644 -19.24089,-69.98249 89.86759,-30.81497 -2.13298,-4.43264 -91.50596,31.55935 -88.756131,0.30107 z m 112.309486,42.93255 87.768801,0.68523 17.82837,68.56997 -5.48545,28.11353 L 46.970259,265.2376 41.82742,237.80982 Z"
       sodipodi:nodetypes="cccccccccccccccccccccccccc" />
    <path
       id="path1123"
       style="fill:#515b7e;fill-opacity:1;stroke:none;stroke-width:0.264583px;stroke-linecap:butt;stroke-linejoin:miter;stroke-opacity:1"
       d="m 18.182352,151.06266 39.031208,15.03061 -19.39468,72.0018 -68.365335,20.36413 68.122971,-18.18235 7.03058,28.60652 118.063594,-0.24236 6.06061,-27.87944 65.94119,18.42472 -65.45595,-20.36413 -19.39468,-71.75945 43.15292,-16.00005 -44.60761,14.06064 H 58.668253 Z m 41.473437,17.14934 87.768801,0.68523 17.82837,68.56997 -5.48545,28.11353 L 46.970259,265.2376 41.82742,237.80982 Z" />
    <g
       id="g2405"
       transform="translate(-29.091642,-72.356265)">
      <path
         id="rect1935"
         style="fill:#808080;fill-opacity:1;stroke:none;stroke-width:1;stroke-linecap:round"
         d="m 100.04844,359.95109 4.76601,-8.962 c 0.09,-0.169 -0.0619,-1.43588 -0.55058,-1.41826 l -30.900729,1.11426 c -0.489382,0.0177 -1.0485,0.135 -1.2544,0.304 l -11.708109,8.01917 c -0.2932,0.24 0.715609,1.37783 1.305809,1.37783 h 37.045 c 0.59,0 1.169002,-0.195 1.296999,-0.435 z"
         sodipodi:nodetypes="ccssccssc" />
      <path
         id="rect1937"
         style="fill:#000000;fill-opacity:1;stroke:none;stroke-width:1;stroke-linecap:round"
         d="m 99.34794,359.21158 3.97518,-7.81676 1.02382,-2.01324 h -32.6927 l -11.7664,9.83 z"
         sodipodi:nodetypes="cccccc" />
      <path
         id="rect1939"
         style="fill:#294c22;fill-opacity:1;stroke:none;stroke-width:0.865673;stroke-linecap:round"
         d="m 97.88894,358.23958 4.437,-8.169 h -29.825 l -9.4959,8.169 z" />
      <g
         id="g2148"
         transform="matrix(0.66442195,0,0,0.66442195,52.034937,122.23073)">
        <g
           id="g1999"
           transform="matrix(0.0628103,0,0,0.0628103,114.146,378.303)">
          <path
             style="fill:#294c22"
             d="m -774.272,-461.733 c -23.705,46.536 -190.19,88.304 -369.348,88.304 -179.12,0 -273.37,-41.767 -216.58,-88.304 51.02,-41.813 208.33,-72.719 355.85,-72.719 147.539,-10e-4 251.378,30.906 230.078,72.719 z"
             id="path1941" />
          <path
             style="fill:#3a682e"
             d="m -1005.7,-534.448 c 0.45,-10e-4 0.9,-0.005 1.35,-0.005 0.28,0 0.55,0.003 0.83,0.003 l -3.4,3.926 h 48.146 l 2.258,-2.823 c 0.702,0.033 1.4,0.069 2.098,0.104 l -2.168,2.719 h 39.842 c 1.813,0.174 3.61,0.355 5.394,0.54 h -45.667 l -9.749,12.23 h 48.968 l 8.79,-11.984 c 0.671,0.072 1.336,0.147 2.005,0.221 l -8.593,11.763 h 48.98 l 3.523,-5.284 c 0.651,0.124 1.29,0.251 1.935,0.378 l -3.257,4.906 h 25.102 c 0.717,0.185 1.423,0.372 2.13,0.559 h -27.602 l -8.399,12.651 h 49.822 l 4.311,-7.182 c 0.616,0.212 1.23,0.425 1.836,0.64 l -3.907,6.542 h 19.865 c 0.404,0.193 0.816,0.384 1.213,0.578 h -21.424 l -7.82,13.094 h 48.865 c 0.205,0.2 0.414,0.398 0.611,0.599 h -49.835 l -8.097,13.557 h 51.596 l 6.914,-12.959 c 0.5,0.529 0.981,1.061 1.435,1.597 l -6.03,11.362 h 11.908 c 0.043,0.209 0.089,0.417 0.126,0.627 h -12.366 l -7.454,14.046 h 17.487 c -0.051,0.103 -0.091,0.206 -0.143,0.31 -0.058,0.114 -0.13,0.226 -0.189,0.339 h -17.499 l -7.729,14.565 h 12.793 c -0.267,0.225 -0.54,0.449 -0.813,0.674 h -12.336 l -6.669,12.567 c -1.114,0.613 -2.257,1.222 -3.419,1.83 l 7.681,-14.396 h -53.546 l -9.028,15.116 h 53.5 c -0.452,0.232 -0.914,0.462 -1.372,0.693 h -52.543 l -9.377,15.7 h 23.799 c -0.703,0.241 -1.423,0.479 -2.134,0.719 h -22.094 l -4.934,8.262 c -1.001,0.277 -2.009,0.553 -3.019,0.827 l 5.455,-9.09 h -55.601 l -10.831,16.315 h 31.771 c -1.11,0.25 -2.221,0.5 -3.341,0.747 h -28.927 l -4.403,6.632 c -0.971,0.173 -1.938,0.349 -2.914,0.52 l 4.769,-7.152 h -56.689 l -11.88,16.262 c -0.94,0.106 -1.88,0.214 -2.83,0.317 l 12.16,-16.579 h -56.67 l -13.52,16.965 h 54.44 c -2.51,0.267 -5.03,0.526 -7.55,0.778 h -47.51 l -3.13,3.916 c -0.92,0.051 -1.84,0.103 -2.76,0.152 l 3.26,-4.068 h -57.79 l -4.92,5.689 c -0.33,0 -0.67,0.004 -1,0.004 -0.55,0 -1.09,-0.006 -1.64,-0.007 l 4.93,-5.686 h -57.79 l -3.75,4.031 c -0.84,-0.049 -1.67,-0.1 -2.5,-0.152 l 3.62,-3.879 h -46.87 c -2.08,-0.252 -4.15,-0.511 -6.2,-0.778 h 53.8 l 15.83,-16.965 h -56.66 l -16.45,16.503 c -0.78,-0.105 -1.54,-0.214 -2.31,-0.321 l 16.18,-16.181 h -56.66 l -7.47,7.029 c -0.69,-0.175 -1.35,-0.355 -2.03,-0.532 l 6.93,-6.497 h -28.28 c -0.69,-0.247 -1.37,-0.498 -2.05,-0.748 h 31.12 l 17.4,-16.314 h -55.58 l -10.04,8.883 c -0.53,-0.275 -1.07,-0.549 -1.59,-0.827 l 9.13,-8.057 h -21.47 c -0.3,-0.24 -0.61,-0.477 -0.89,-0.719 h 23.17 l 17.8,-15.7 h -51.94 c -0.05,-0.231 -0.12,-0.461 -0.17,-0.692 h 52.89 l 17.13,-15.117 h -53.54 l -16.69,13.944 c -0.1,-0.618 -0.17,-1.239 -0.22,-1.863 l 14.5,-12.081 h -11.74 c 0.12,-0.225 0.23,-0.449 0.35,-0.674 h 12.2 l 17.47,-14.565 h -16.91 c 0.14,-0.113 0.26,-0.225 0.4,-0.339 0.13,-0.104 0.27,-0.207 0.39,-0.31 h 16.9 l 16.85,-14.046 h -11.79 c 0.4,-0.21 0.81,-0.418 1.21,-0.627 h 11.33 l 13.13,-10.936 c 1.39,-0.547 2.8,-1.09 4.23,-1.629 l -15.04,12.566 h 51.6 l 15.36,-13.558 h -49.26 c 0.54,-0.2 1.09,-0.399 1.64,-0.598 h 48.3 l 14.84,-13.094 h -20.87 c 0.74,-0.195 1.48,-0.386 2.22,-0.578 h 19.3 l 7.24,-6.383 c 0.97,-0.215 1.96,-0.427 2.94,-0.64 l -7.94,7.022 h 49.81 l 13.5,-12.651 h -27.04 c 1.03,-0.187 2.06,-0.374 3.09,-0.559 h 24.54 l 5.13,-4.808 c 0.88,-0.129 1.75,-0.26 2.62,-0.387 l -5.52,5.195 h 48.95 l 11.71,-11.707 c 0.8,-0.075 1.61,-0.15 2.42,-0.223 l -11.9,11.931 h 48.96 l 11.41,-12.23 h -45.13 c 2.11,-0.186 4.21,-0.366 6.33,-0.541 h 39.3 l 2.52,-2.694 c 0.76,-0.035 1.52,-0.07 2.28,-0.104 l -2.61,2.798 h 48.14 z m -175.9,137.583 -15.79,16.965 h 57.74 l 14.71,-16.965 z m 59.23,0 -14.65,16.965 h 57.74 l 13.57,-16.965 z m -159.56,-17.062 -17.35,16.315 h 56.61 l 16.31,-16.315 z m 58.1,0 -16.26,16.315 h 56.61 l 15.22,-16.315 z m 58.1,0 -15.18,16.315 h 56.61 l 14.14,-16.315 z m 58.1,0 -14.09,16.315 h 56.61 l 13.05,-16.315 z m 58.1,0 -13,16.315 h 56.62 l 11.967,-16.315 z m 58.085,0 -11.915,16.315 h 56.637 l 10.878,-16.315 z m -330.035,-16.419 -17.75,15.701 h 55.54 l 16.75,-15.701 z m 57.02,0 -16.7,15.701 h 55.52 l 15.7,-15.701 z m 57,0 -15.65,15.701 h 55.52 l 14.66,-15.701 z m 57.01,0 -14.61,15.701 h 55.53 l 13.6,-15.701 z m 57,0 -13.56,15.701 h 55.53 l 12.56,-15.701 z m 57.01,0 -12.52,15.701 h 55.544 l 11.515,-15.701 z m 56.989,0 -11.469,15.701 h 55.555 l 10.468,-15.701 z m 57.006,0 -10.424,15.701 h 55.555 l 9.422,-15.701 z m -381.165,-15.809 -17.09,15.117 h 54.5 l 16.12,-15.117 z m 55.96,0 -16.08,15.117 h 54.49 l 15.11,-15.117 z m 55.95,0 -15.07,15.117 h 54.48 l 14.11,-15.117 z m 55.96,0 -14.07,15.117 h 54.48 l 13.1,-15.117 z m 55.95,0 -13.06,15.117 h 54.48 l 12.1,-15.117 z m 55.95,0 -12.05,15.117 h 54.497 l 11.086,-15.117 z m 55.939,0 -11.044,15.117 h 54.51 l 10.079,-15.117 z m 55.952,0 -10.036,15.117 h 54.509 l 9.072,-15.117 z m -429.381,-15.239 -17.43,14.565 h 53.5 l 16.51,-14.565 z m 54.94,0 -16.46,14.565 h 53.49 l 15.53,-14.565 z m 54.95,0 -15.49,14.565 h 53.47 l 14.57,-14.565 z m 54.94,0 -14.52,14.565 h 53.47 l 13.59,-14.565 z m 54.94,0 -13.56,14.565 h 53.48 l 12.62,-14.565 z m 54.93,0 -12.58,14.565 h 53.48 l 11.65,-14.565 z m 54.94,0 -11.61,14.565 h 53.487 l 10.682,-14.565 z m 54.921,0 -10.64,14.565 h 53.502 l 9.712,-14.565 z m 54.936,0 -9.669,14.565 H -858 l 8.741,-14.565 z m 54.937,0 -8.699,14.565 h 53.502 l 7.771,-14.565 z m -476.844,-14.695 -16.81,14.046 h 52.53 l 15.92,-14.046 z m 53.96,0 -15.88,14.046 h 52.52 l 14.99,-14.046 z m 53.97,0 -14.94,14.046 h 52.51 l 14.04,-14.046 z m 53.96,0 -14,14.046 h 52.5 l 13.11,-14.046 z m 53.96,0 -13.07,14.046 h 52.5 l 12.18,-14.046 z m 53.96,0 -12.14,14.046 h 52.51 l 11.24,-14.046 z m 53.953,0 -11.193,14.046 h 52.515 l 10.302,-14.046 z m 53.943,0 -10.261,14.046 h 52.533 l 9.365,-14.046 z m 53.958,0 -9.325,14.046 h 52.532 l 8.429,-14.046 z m 53.957,0 -8.389,14.046 h 52.532 l 7.494,-14.046 z m -415.631,-14.184 -15.32,13.557 h 51.58 l 14.46,-13.557 z m 53.03,0 -14.42,13.557 h 51.57 l 13.56,-13.557 z m 53.01,0 -13.52,13.557 h 51.57 l 12.66,-13.557 z m 53.01,0 -12.61,13.557 h 51.57 l 11.75,-13.557 z m 53.02,0 -11.71,13.557 h 51.57 l 10.843,-13.557 z m 53.009,0 -10.807,13.557 h 51.584 l 9.943,-13.557 z m 52.999,0 -9.904,13.557 h 51.597 l 9.039,-13.557 z m 53.012,0 -9,13.557 h 51.596 l 8.137,-13.557 z m -355.61,-13.692 -14.8,13.093 h 50.68 l 13.97,-13.093 z m 52.11,0 -13.92,13.093 h 50.66 l 13.1,-13.093 z m 52.1,0 -13.05,13.093 h 50.67 l 12.22,-13.093 z m 52.1,0 -12.18,13.093 h 50.67 l 11.35,-13.093 z m 52.1,0 -11.31,13.093 h 50.672 l 10.475,-13.093 z m 52.104,0 -10.438,13.093 h 50.682 l 9.603,-13.093 z m 52.087,0 -9.566,13.093 h 50.694 l 8.731,-13.093 z m 52.1,0 -8.693,13.093 h 50.694 l 7.858,-13.093 z m -298.521,-13.23 -13.45,12.651 h 49.8 l 12.65,-12.651 z m 51.22,0 -12.61,12.651 h 49.8 l 11.8,-12.651 z m 51.22,0 -11.77,12.651 h 49.8 l 10.96,-12.651 z m 51.22,0 -10.93,12.651 h 49.8 l 10.121,-12.651 z m 51.22,0 -10.085,12.651 h 49.81 l 9.278,-12.651 z m 51.205,0 -9.242,12.651 h 49.823 l 8.435,-12.651 z m -141.745,-12.789 -11.38,12.23 h 48.96 l 10.6,-12.23 z m 50.37,0 -10.57,12.23 h 48.958 l 9.785,-12.23 z"
             id="path1943" />
          <g
             id="g1953">
            <path
               style="fill:#294c22"
               d="m -1074.77,-455.085 c -11.88,-0.241 -19.18,-2.883 -17.12,-6.165 h 22.46 z"
               id="path1945" />
            <path
               style="fill:#294c22"
               d="m -1071.2,-455.085 5.32,-6.165 h 22.46 c -3.62,3.282 -15.49,5.924 -27.78,6.165 z"
               id="path1947" />
            <path
               style="fill:#294c22"
               d="m -1068.59,-462.214 h -22.44 c 3.77,-3.248 15.59,-5.826 27.69,-6.06 z"
               id="path1949" />
            <path
               style="fill:#294c22"
               d="m -1042.61,-462.214 h -22.44 l 5.23,-6.06 c 11.7,0.234 19.05,2.812 17.21,6.06 z"
               id="path1951" />
          </g>
          <path
             style="fill:#54c638"
             d="m -1002.73,-534.448 -9.95,11.534 c 122.47,0.223 207.242,26.19 188.471,60.7 h 50.161 c -0.078,0.16 -0.14,0.32 -0.222,0.481 -0.083,0.161 -0.183,0.322 -0.269,0.483 h -50.22 c -22.533,37.757 -158.467,71.059 -302.691,71.367 l -14.19,16.446 c -0.66,0.002 -1.32,0.008 -1.98,0.008 -0.65,0 -1.29,-0.006 -1.94,-0.008 l 14.26,-16.446 c -143.7,-0.306 -222.03,-33.609 -179.25,-71.367 h -50.22 c 0.19,-0.161 0.37,-0.322 0.57,-0.483 0.19,-0.161 0.41,-0.321 0.61,-0.481 h 50.16 c 40.92,-34.511 170.61,-60.478 293.47,-60.7 l 10,-11.534 c 0.54,-10e-4 1.07,-0.005 1.61,-0.005 0.54,0 1.08,0.005 1.62,0.005 z m -304.28,73.199 c -41.94,37.176 35.3,69.923 176.69,70.228 l 15.15,-17.467 c -106.07,-0.292 -165.94,-24.601 -136.3,-52.761 z m 59.09,0 c -28.91,27.591 29.84,51.378 133.69,51.669 l 13.93,-16.056 c -71.39,-0.28 -112.99,-16.468 -94.45,-35.613 z m 56.71,0 c -17.89,18.588 22.55,34.285 91.82,34.563 l 12.07,-13.928 c -41.11,-0.267 -65.72,-9.496 -56.01,-20.635 z m 51.42,0 c -9.14,10.592 14.29,19.356 53.35,19.622 l 10.81,-12.469 c -13.86,-0.244 -22.38,-3.334 -19.83,-7.153 z m 47.9,0 c -2.06,3.281 5.24,5.923 17.12,6.164 l 5.34,-6.164 z m 26.01,0 -5.32,6.164 c 12.29,-0.241 24.16,-2.883 27.78,-6.164 z m 26.03,0 c -4.06,3.819 -17.92,6.909 -32.2,7.153 l -10.76,12.469 c 39.52,-0.267 78.11,-9.031 87.289,-19.622 z m 47.874,0 c -9.554,11.138 -50.134,20.368 -91.704,20.635 l -12.02,13.928 c 69.75,-0.279 137.341,-15.975 151.599,-34.563 z m 51.42,0 c -14.575,19.145 -84.174,35.332 -156.054,35.613 l -13.85,16.056 c 104.37,-0.294 204.26,-24.079 223.074,-51.67 h -53.17 z m 56.715,0 c -19.062,28.159 -120.979,52.467 -227.559,52.761 l -15.07,17.467 c 141.922,-0.307 275.806,-33.054 298.166,-70.228 z m -2.921,-0.965 c 15.755,-25.8 -46.489,-45.58 -138.768,-45.811 l -11.3,13.104 c 65.697,0.238 109.011,14.454 96.959,32.707 z m -56.649,0 c 11.765,-17.745 -30.293,-31.58 -94.189,-31.817 l -10.53,12.21 c 39.14,0.242 64.344,8.787 56.899,19.607 z m -51.36,0 c 7.089,-10.303 -16.879,-18.445 -54.159,-18.688 l -10.07,11.673 c 13.63,0.235 22.22,3.24 19.95,7.015 z m -47.839,0 c 1.84,-3.248 -5.52,-5.826 -17.21,-6.06 l -5.23,6.06 z m -25.98,0 5.25,-6.06 c -12.1,0.234 -23.92,2.812 -27.69,6.06 z m -26.01,0 c 4.27,-3.776 18.06,-6.78 32.09,-7.015 l 10.12,-11.673 c -37.69,0.242 -75.75,8.385 -86.48,18.688 z m -47.81,0 c 11.27,-10.821 51.26,-19.365 90.82,-19.607 l 10.59,-12.21 c -64.31,0.236 -130.3,14.071 -149.23,31.817 z m -51.36,0 c 19.52,-18.254 87.43,-32.47 153.54,-32.707 l 11.36,-13.104 c -92.68,0.23 -189.14,20.01 -218.01,45.811 z m -112.12,0 h 55.47 c 29.53,-26.299 127.88,-46.44 222.29,-46.669 l 11.45,-13.203 c -121.18,0.222 -249,25.848 -289.21,59.872 z m 281.1,-46.67 c 94.021,0.231 157.532,20.371 141.568,46.67 h 55.472 c 18.638,-34.022 -64.852,-59.649 -185.65,-59.872 z"
             id="path1955" />
          <path
             style="fill:#6eed4a"
             d="m -776.558,-486.484 -292.012,24.927 288.769,-28.536 c 1.2,1.184 2.282,2.387 3.243,3.609 z"
             id="path1957" />
          <g
             style="opacity:0.6"
             id="g1961">
            <path
               style="fill:#6eed4a"
               d="m -773.596,-461.557 h -294.974 l 292.012,-24.927 c 6.017,7.652 7.301,16.024 2.962,24.927 z"
               id="path1959" />
          </g>
          <g
             id="g1967">
            <path
               id="circle1963"
               style="fill:#6eed4a"
               d="m -1167.58,-416.976 c -4.29,0 -8.87,0.49 -12.73,1.363 -3.88,0.875 -6.72,2.064 -7.91,3.308 -1.19,1.247 -0.62,2.446 1.6,3.333 2.23,0.888 5.92,1.388 10.25,1.388 4.34,0 8.97,-0.5 12.85,-1.388 3.88,-0.887 6.7,-2.086 7.85,-3.333 1.14,-1.244 0.52,-2.433 -1.72,-3.308 -2.23,-0.873 -5.89,-1.363 -10.19,-1.363 z" />
            <path
               id="circle1965"
               style="fill:#6eed4a"
               d="m -1130.85,-504.111 c -3.86,0 -7.96,0.397 -11.4,1.103 -3.45,0.708 -5.96,1.67 -6.98,2.676 -1.02,1.008 -0.46,1.978 1.57,2.694 2.04,0.718 5.37,1.122 9.27,1.122 3.9,0 8.04,-0.404 11.5,-1.122 3.45,-0.716 5.94,-1.686 6.93,-2.694 0.98,-1.006 0.38,-1.968 -1.67,-2.676 -2.04,-0.706 -5.35,-1.103 -9.22,-1.103 z" />
          </g>
          <g
             id="g1969" />
          <g
             id="g1971" />
          <g
             id="g1973" />
          <g
             id="g1975" />
          <g
             id="g1977" />
          <g
             id="g1979" />
          <g
             id="g1981" />
          <g
             id="g1983" />
          <g
             id="g1985" />
          <g
             id="g1987" />
          <g
             id="g1989" />
          <g
             id="g1991" />
          <g
             id="g1993" />
          <g
             id="g1995" />
          <g
             id="g1997" />
        </g>
      </g>
    </g>
    <path
       id="path3414"
       style="fill:#737f9c;fill-opacity:1;stroke:none;stroke-width:0.286655;stroke-linecap:round"
       d="m 41.81565,276.11477 c -0.376898,0 -0.731595,0.15531 -0.792518,0.34914 -0.06127,0.19383 0.197337,0.35171 0.577894,0.35171 0.182768,0 0.369266,-0.0372 0.518261,-0.10397 0.148717,-0.0655 0.247699,-0.15532 0.275302,-0.24774 0.02753,-0.0924 -0.01816,-0.18227 -0.126898,-0.24774 -0.108497,-0.0642 -0.271051,-0.1014 -0.452041,-0.1014 z" />
    <path
       id="path3416"
       style="fill:#737f9c;fill-opacity:1;stroke:none;stroke-width:0.286655;stroke-linecap:round"
       d="m 77.617183,276.58333 c -0.376898,0 -0.731595,0.15531 -0.792518,0.34914 -0.06127,0.19383 0.197337,0.35171 0.577894,0.35171 0.182768,0 0.369266,-0.0372 0.518261,-0.10397 0.148717,-0.0655 0.247699,-0.15532 0.275302,-0.24774 0.02753,-0.0924 -0.01816,-0.18227 -0.126898,-0.24774 -0.108497,-0.0642 -0.271051,-0.1014 -0.452041,-0.1014 z" />
  </g>
  <g
     inkscape:groupmode="layer"
     id="layer2"
     inkscape:label="Layer 2"
     style="display:inline">
    <path
       style="fill:url(#linearGradient2417);fill-opacity:1;stroke:none;stroke-width:0.264583px;stroke-linecap:butt;stroke-linejoin:miter;stroke-opacity:1"
       d="m 58.910574,160.37685 85.093056,-4.84861 60.12272,-15.03068 -56.48627,21.09144 z"
       id="path2409" />
    <path
       style="fill:#21242b;fill-opacity:1;stroke:none;stroke-width:0.26458300000000001px;stroke-linecap:butt;stroke-linejoin:miter;stroke-opacity:1"
       d="m 83.997831,276.38795 -5.999845,13.54252 50.398694,0.17142 -5.48557,-13.71394 z"
       id="path2543"
       sodipodi:nodetypes="ccccc" />
    <path
       style="fill:#4a5974;fill-opacity:1;stroke:none;stroke-width:0.264583px;stroke-linecap:butt;stroke-linejoin:miter;stroke-opacity:1"
       d="m 86.569192,277.75937 -3.599905,10.62828 41.380833,0.41048 -3.71942,-10.77377 z"
       id="path2545"
       sodipodi:nodetypes="ccccc" />
    <g
       id="g3261"
       style="display:inline;opacity:1"
       transform="translate(0,-4.2333335)">
      <path
         d="m 117.6789,283.62828 1.6356,0.032 c 0.089,0.002 0.147,-0.049 0.128,-0.113 -0.019,-0.064 -0.107,-0.118 -0.196,-0.12 l -1.6279,-0.032 c -0.089,-0.001 -0.148,0.049 -0.1316,0.113 0.0165,0.065 0.1024,0.118 0.1919,0.12 z"
         id="path2679"
         style="fill:#000000;stroke-width:0.031976" />
      <path
         d="m 117.82,284.17428 0.8267,0.016 c 0.0904,0.002 0.1488,-0.05 0.1306,-0.116 -0.0182,-0.065 -0.1059,-0.12 -0.1958,-0.122 l -0.823,-0.016 c -0.09,-0.001 -0.1494,0.05 -0.1327,0.116 0.0168,0.066 0.1038,0.121 0.1942,0.122 z"
         id="path2681"
         style="fill:#000000;stroke-width:0.031976" />
      <path
         d="m 119.5665,284.52728 -1.6636,-0.032 c -0.091,-0.002 -0.1509,0.051 -0.1338,0.118 0.0172,0.067 0.1052,0.123 0.1966,0.125 l 1.6708,0.032 c 0.092,0.002 0.149,-0.051 0.13,-0.118 -0.02,-0.067 -0.109,-0.123 -0.2,-0.125 z"
         id="path2683"
         style="fill:#000000;stroke-width:0.031976" />
      <path
         d="m 118.1131,285.30828 0.8448,0.017 c 0.0923,10e-4 0.1516,-0.053 0.1326,-0.122 -0.019,-0.068 -0.1089,-0.125 -0.2008,-0.127 l -0.8409,-0.016 c -0.0919,-0.002 -0.1523,0.052 -0.1348,0.121 0.0175,0.068 0.1067,0.126 0.1991,0.127 z"
         id="path2685"
         style="fill:#000000;stroke-width:0.031976" />
      <path
         d="m 119.8965,285.66728 -1.6991,-0.032 c -0.093,-0.002 -0.1538,0.053 -0.136,0.123 0.018,0.07 0.1082,0.129 0.2017,0.131 l 1.7074,0.032 c 0.093,0.002 0.152,-0.054 0.132,-0.124 -0.021,-0.07 -0.113,-0.128 -0.206,-0.13 z"
         id="path2687"
         style="fill:#000000;stroke-width:0.031976" />
      <path
         d="m 118.417,286.48428 0.8635,0.016 c 0.094,0.002 0.155,-0.055 0.135,-0.127 -0.02,-0.071 -0.112,-0.13 -0.206,-0.132 l -0.8596,-0.016 c -0.094,-0.002 -0.1554,0.054 -0.1371,0.126 0.0183,0.072 0.1097,0.131 0.2042,0.133 z"
         id="path2689"
         style="fill:#000000;stroke-width:0.031976" />
      <path
         d="m 120.2455,286.86928 -1.7374,-0.032 c -0.0951,-0.002 -0.157,0.056 -0.1383,0.129 0.0188,0.073 0.1114,0.134 0.2069,0.136 l 1.7458,0.033 c 0.096,10e-4 0.155,-0.057 0.134,-0.13 -0.022,-0.074 -0.116,-0.134 -0.211,-0.136 z"
         id="path2691"
         style="fill:#000000;stroke-width:0.031976" />
      <path
         d="m 119.5465,287.47028 -0.879,-0.016 c -0.0961,-0.002 -0.1585,0.057 -0.1394,0.132 0.0192,0.075 0.113,0.138 0.2096,0.139 l 0.8828,0.017 c 0.097,0.001 0.158,-0.058 0.137,-0.133 -0.02,-0.075 -0.115,-0.137 -0.211,-0.139 z"
         id="path2693"
         style="fill:#000000;stroke-width:0.031976" />
    </g>
    <path
       d="m 119.5005,285.39892 c 0.149,0.566 0.014,1.102 -0.3874,1.506 -0.3997,0.402 -1.01,0.618 -1.7178,0.606 -0.0127,-10e-4 -0.0255,-10e-4 -0.0383,-10e-4 -0.1136,-0.004 -0.2272,-0.013 -0.3408,-0.028 -0.5793,-0.076 -1.1465,-0.301 -1.6228,-0.646 -0.5622,-0.408 -0.9305,-0.934 -1.0408,-1.478 -0.1463,-0.721 0.1832,-1.372 0.8521,-1.729 l -0.8452,-4.354 c -0.0795,-0.41 0.2387,-0.743 0.7386,-0.832 0.0973,-0.018 0.202,-0.026 0.3122,-0.024 0.673,0.014 1.3153,0.416 1.4338,0.905 l 1.0559,4.354 c 0.8059,0.374 1.4165,1.021 1.6005,1.721 z"
       fill="#e9f5ff"
       id="path2697"
       style="display:inline;opacity:1;fill:#000000;stroke-width:0.031976" />
    <path
       d="m 119.5005,285.39892 c 0.149,0.566 0.014,1.102 -0.3874,1.506 -0.3997,0.402 -1.01,0.618 -1.7178,0.606 -0.4684,-0.008 -0.7519,-0.013 -0.7519,-0.013 0.1273,0.002 0.2519,-0.003 0.3728,-0.016 0.5501,-0.056 1.0222,-0.261 1.3539,-0.59 0.4067,-0.404 0.5487,-0.94 0.4068,-1.506 -0.1752,-0.699 -0.6405,-0.781 -1.4511,-1.162 l -1.1294,-4.913 c -0.0942,-0.41 -0.5567,-0.758 -1.0983,-0.868 0.0973,-0.018 0.202,-0.026 0.3122,-0.024 0.673,0.014 1.3153,0.416 1.4338,0.905 l 1.0559,4.354 c 0.8059,0.374 1.4165,1.021 1.6005,1.721 z"
       fill="#cdeaf7"
       id="path2699"
       style="display:inline;opacity:1;fill:#000000;stroke-width:0.031976" />
    <path
       d="m 118.7776,285.38892 c 0.1018,0.406 -1e-4,0.788 -0.2905,1.075 -0.2876,0.284 -0.7244,0.436 -1.229,0.427 -0.009,0 -0.0171,0 -0.0256,-10e-4 -0.0955,-0.002 -0.1912,-0.011 -0.2866,-0.025 -0.3965,-0.059 -0.784,-0.216 -1.113,-0.451 -0.4045,-0.29 -0.6725,-0.665 -0.7563,-1.054 -0.1163,-0.541 0.1385,-1.03 0.659,-1.284 0.1471,-0.072 0.2196,-0.208 0.1892,-0.355 l -0.9163,-4.431 c -0.0342,-0.166 0.0673,-0.306 0.2436,-0.372 0.0741,-0.028 0.1616,-0.043 0.2581,-0.041 0.3248,0.006 0.6325,0.201 0.6865,0.436 l 1.0188,4.432 c 0.0337,0.147 0.1664,0.287 0.3459,0.364 0.6177,0.267 1.0848,0.755 1.2162,1.28 z"
       fill="#ff6e6e"
       id="path2701"
       style="display:inline;opacity:1;stroke-width:0.031976" />
    <path
       d="m 118.7776,285.38892 c 0.1018,0.406 -1e-4,0.788 -0.2905,1.075 -0.2876,0.284 -0.7244,0.436 -1.229,0.427 -0.009,0 -0.0171,0 -0.0256,-10e-4 -0.0955,-0.002 -0.1912,-0.011 -0.2866,-0.025 0.3746,-0.046 0.6967,-0.188 0.9264,-0.412 0.2936,-0.286 0.3996,-0.669 0.3021,-1.075 -0.1259,-0.524 -0.5881,-1.012 -1.2034,-1.28 -0.1787,-0.077 -0.3099,-0.217 -0.3421,-0.364 l -0.9723,-4.431 c -0.0362,-0.166 -0.1986,-0.311 -0.4045,-0.385 0.0741,-0.028 0.1616,-0.043 0.2581,-0.041 0.3248,0.006 0.6325,0.201 0.6865,0.436 l 1.0188,4.432 c 0.0337,0.147 0.1664,0.287 0.3459,0.364 0.6177,0.267 1.0848,0.755 1.2162,1.28 z"
       fill="#f44e92"
       id="path2703"
       style="display:inline;opacity:1;stroke-width:0.031976" />
    <path
       d="m 116.1967,279.31292 0.2394,1.041 -1.2123,-0.023 -0.2152,-1.041 c -0.0342,-0.166 0.0672,-0.306 0.2435,-0.372 0.0741,-0.028 0.1616,-0.043 0.2581,-0.041 0.3248,0.006 0.6325,0.201 0.6865,0.436 z"
       fill="#4f667a"
       id="path2707"
       style="display:inline;opacity:1;stroke-width:0.031976" />
    <path
       d="m 116.1967,279.31292 0.2394,1.041 -0.551,-0.01 -0.2285,-1.041 c -0.0362,-0.166 -0.1986,-0.311 -0.4045,-0.385 0.0741,-0.028 0.1616,-0.043 0.2581,-0.041 0.3248,0.006 0.6325,0.201 0.6865,0.436 z"
       fill="#3a5366"
       id="path2709"
       style="display:inline;opacity:1;stroke-width:0.031976" />
    <g
       id="g3279"
       transform="rotate(180,116.10115,283.45213)"
       style="display:inline;opacity:1">
      <path
         d="m 117.6789,283.62828 1.6356,0.032 c 0.089,0.002 0.147,-0.049 0.128,-0.113 -0.019,-0.064 -0.107,-0.118 -0.196,-0.12 l -1.6279,-0.032 c -0.089,-0.001 -0.148,0.049 -0.1316,0.113 0.0165,0.065 0.1024,0.118 0.1919,0.12 z"
         id="path3263"
         style="fill:#000000;stroke-width:0.031976" />
      <path
         d="m 117.82,284.17428 0.8267,0.016 c 0.0904,0.002 0.1488,-0.05 0.1306,-0.116 -0.0182,-0.065 -0.1059,-0.12 -0.1958,-0.122 l -0.823,-0.016 c -0.09,-0.001 -0.1494,0.05 -0.1327,0.116 0.0168,0.066 0.1038,0.121 0.1942,0.122 z"
         id="path3265"
         style="fill:#000000;stroke-width:0.031976" />
      <path
         d="m 119.5665,284.52728 -1.6636,-0.032 c -0.091,-0.002 -0.1509,0.051 -0.1338,0.118 0.0172,0.067 0.1052,0.123 0.1966,0.125 l 1.6708,0.032 c 0.092,0.002 0.149,-0.051 0.13,-0.118 -0.02,-0.067 -0.109,-0.123 -0.2,-0.125 z"
         id="path3267"
         style="fill:#000000;stroke-width:0.031976" />
      <path
         d="m 118.1131,285.30828 0.8448,0.017 c 0.0923,10e-4 0.1516,-0.053 0.1326,-0.122 -0.019,-0.068 -0.1089,-0.125 -0.2008,-0.127 l -0.8409,-0.016 c -0.0919,-0.002 -0.1523,0.052 -0.1348,0.121 0.0175,0.068 0.1067,0.126 0.1991,0.127 z"
         id="path3269"
         style="fill:#000000;stroke-width:0.031976" />
      <path
         d="m 119.8965,285.66728 -1.6991,-0.032 c -0.093,-0.002 -0.1538,0.053 -0.136,0.123 0.018,0.07 0.1082,0.129 0.2017,0.131 l 1.7074,0.032 c 0.093,0.002 0.152,-0.054 0.132,-0.124 -0.021,-0.07 -0.113,-0.128 -0.206,-0.13 z"
         id="path3271"
         style="fill:#000000;stroke-width:0.031976" />
      <path
         d="m 118.417,286.48428 0.8635,0.016 c 0.094,0.002 0.155,-0.055 0.135,-0.127 -0.02,-0.071 -0.112,-0.13 -0.206,-0.132 l -0.8596,-0.016 c -0.094,-0.002 -0.1554,0.054 -0.1371,0.126 0.0183,0.072 0.1097,0.131 0.2042,0.133 z"
         id="path3273"
         style="fill:#000000;stroke-width:0.031976" />
      <path
         d="m 120.2455,286.86928 -1.7374,-0.032 c -0.0951,-0.002 -0.157,0.056 -0.1383,0.129 0.0188,0.073 0.1114,0.134 0.2069,0.136 l 1.7458,0.033 c 0.096,10e-4 0.155,-0.057 0.134,-0.13 -0.022,-0.074 -0.116,-0.134 -0.211,-0.136 z"
         id="path3275"
         style="fill:#000000;stroke-width:0.031976" />
      <path
         d="m 119.5465,287.47028 -0.879,-0.016 c -0.0961,-0.002 -0.1585,0.057 -0.1394,0.132 0.0192,0.075 0.113,0.138 0.2096,0.139 l 0.8828,0.017 c 0.097,0.001 0.158,-0.058 0.137,-0.133 -0.02,-0.075 -0.115,-0.137 -0.211,-0.139 z"
         id="path3277"
         style="fill:#000000;stroke-width:0.031976" />
    </g>
    <path
       id="path2551"
       style="fill:#000000;fill-opacity:1;stroke:none;stroke-width:0.264583px;stroke-linecap:butt;stroke-linejoin:miter;stroke-opacity:1"
       d="m 104.37864,283.75941 h -3.8809 l -0.0434,1.79988 3.85713,0.0858 z" />
    <path
       id="path3372"
       style="fill:#212433;fill-opacity:1;stroke:none;stroke-width:0.264583px;stroke-linecap:butt;stroke-linejoin:miter;stroke-opacity:1"
       d="m 100.6259,278.44499 -0.12816,5.31442 h 3.8809 l 0.19017,-5.31442 z" />
    <path
       id="path2553"
       style="fill:#000000;fill-opacity:1;stroke:none;stroke-width:0.264583px;stroke-linecap:butt;stroke-linejoin:miter;stroke-opacity:1"
       d="m 109.78348,283.6736 h -3.59978 l 0.0992,2.05674 h 3.59978 z" />
    <path
       id="path3377"
       style="fill:#212433;fill-opacity:1;stroke:none;stroke-width:0.264583px;stroke-linecap:butt;stroke-linejoin:miter;stroke-opacity:1"
       d="m 105.9403,278.61657 0.2434,5.05703 h 3.59978 l -0.2434,-5.05703 z" />
    <path
       id="path3316"
       style="display:inline;opacity:1;fill:#737f9c;fill-opacity:1;stroke:none;stroke-width:0.425329;stroke-linecap:round"
       d="m 80.411654,288.512 c -0.557503,0 -1.050599,0.23128 -1.101609,0.51993 -0.05152,0.28865 0.362738,0.52376 0.924877,0.52376 0.270507,0 0.538438,-0.0554 0.745569,-0.15483 0.206616,-0.0975 0.334914,-0.2313 0.35707,-0.36893 0.02216,-0.1376 -0.06338,-0.27143 -0.237016,-0.36893 -0.17364,-0.0956 -0.421476,-0.151 -0.688891,-0.151 z" />
    <path
       id="path3319"
       style="display:inline;opacity:1;fill:#737f9c;fill-opacity:1;stroke:none;stroke-width:0.425329;stroke-linecap:round"
       d="m 126.01048,288.42629 c -0.55751,0 -1.0506,0.23128 -1.10161,0.51993 -0.0515,0.28865 0.36274,0.52376 0.92487,0.52376 0.27051,0 0.53844,-0.0554 0.74557,-0.15483 0.20662,-0.0975 0.33492,-0.2313 0.35707,-0.36893 0.0222,-0.1376 -0.0634,-0.27143 -0.23701,-0.36893 -0.17364,-0.0956 -0.42148,-0.151 -0.68889,-0.151 z" />
    <path
       id="path3321"
       style="display:inline;opacity:1;fill:#737f9c;fill-opacity:1;stroke:none;stroke-width:0.389505;stroke-linecap:round"
       d="m 121.76968,276.8285 c -0.51055,0 -0.96211,0.2118 -1.00882,0.47614 -0.0472,0.26434 0.33219,0.47965 0.84697,0.47965 0.24773,0 0.49309,-0.0507 0.68277,-0.14179 0.18922,-0.0893 0.30671,-0.21182 0.327,-0.33786 0.0203,-0.12601 -0.0581,-0.24857 -0.21705,-0.33786 -0.15901,-0.0875 -0.38598,-0.13828 -0.63087,-0.13828 z" />
    <g
       id="g3393"
       transform="translate(0,-4.2333335)">
      <path
         id="path2547"
         style="display:inline;fill:#000000;fill-opacity:1;stroke:none;stroke-width:0.999999px;stroke-linecap:butt;stroke-linejoin:miter;stroke-opacity:1"
         d="m 345.125,1068.3047 -7.56836,0.086 -7.77344,27.2129 h 0.32032 l 8.42578,-4.2129 z"
         transform="scale(0.26458333)" />
      <path
         id="path3333"
         style="display:inline;fill:#212433;fill-opacity:1;stroke:none;stroke-width:0.999999px;stroke-linecap:butt;stroke-linejoin:miter;stroke-opacity:1"
         d="m 345.125,1068.3047 -6.5957,23.0859 -8.42578,4.2129 h 15.87695 l 5.99219,-27.375 z"
         transform="scale(0.26458333)" />
      <path
         id="path2549"
         style="display:inline;fill:#000000;fill-opacity:1;stroke:none;stroke-width:0.999999px;stroke-linecap:butt;stroke-linejoin:miter;stroke-opacity:1"
         d="m 367.41602,1068.7012 -9.12696,0.3379 -5.50586,26.5644 h 0.36719 l 9.99805,-5.832 z"
         transform="scale(0.26458333)" />
      <path
         id="path3344"
         style="display:inline;fill:#212433;fill-opacity:1;stroke:none;stroke-width:0.999999px;stroke-linecap:butt;stroke-linejoin:miter;stroke-opacity:1"
         d="m 367.41602,1068.7012 -4.26758,21.0703 -9.99805,5.832 h 17.77344 l 0.48633,-27.0508 z"
         transform="scale(0.26458333)" />
      <path
         id="path3323"
         style="display:inline;opacity:1;fill:#737f9c;fill-opacity:1;stroke:none;stroke-width:0.389505;stroke-linecap:round"
         d="m 85.257034,281.06186 c -0.510547,0 -0.962104,0.2118 -1.008814,0.47614 -0.0472,0.26434 0.33219,0.47965 0.846967,0.47965 0.247727,0 0.493087,-0.0507 0.682764,-0.14179 0.18922,-0.0893 0.30671,-0.21182 0.327,-0.33786 0.0203,-0.12601 -0.0581,-0.24857 -0.21705,-0.33786 -0.15901,-0.0875 -0.385977,-0.13828 -0.630867,-0.13828 z" />
      <rect
         style="display:inline;fill:#2ca089;fill-opacity:1;stroke:none;stroke-width:0.85;stroke-linecap:round"
         id="rect3197"
         width="8.8487177"
         height="2.121269"
         x="-288.61105"
         y="89.699226"
         ry="0.96971923"
         transform="rotate(-90)" />
      <rect
         style="display:inline;fill:#2ca089;fill-opacity:1;stroke:none;stroke-width:0.85;stroke-linecap:round"
         id="rect3201"
         width="8.8487177"
         height="2.121269"
         x="-288.61105"
         y="95.032692"
         ry="0.96971923"
         transform="rotate(-90)" />
      <path
         id="rect3195"
         style="display:inline;fill:#217867;fill-opacity:1;stroke:none;stroke-width:0.85;stroke-linecap:round"
         d="m 100.04867,279.95758 -13.099457,-0.0548 c 0.172251,0.32718 0.504415,0.55655 0.901237,0.55655 h 11.333675 c 0.372899,0 0.683729,-0.20664 0.864545,-0.50178 z" />
      <path
         id="path3328"
         style="display:inline;fill:#2ca089;fill-opacity:1;stroke:none;stroke-width:0.85;stroke-linecap:round"
         d="m 87.85045,278.3985 c -0.570802,0 -1.029912,0.45963 -1.029912,1.03044 0,0.17397 0.05316,0.33041 0.128675,0.47387 l 13.099457,0.0548 c 0.096,-0.15663 0.16588,-0.33073 0.16588,-0.52864 0,-0.57081 -0.459623,-1.03044 -1.030425,-1.03044 z" />
    </g>
  </g>
  <path
     style="fill:url(#linearGradient1308);fill-opacity:1;stroke:none;stroke-width:0.264583px;stroke-linecap:butt;stroke-linejoin:miter;stroke-opacity:1"
     d="M 47.758778,226.70071 63.03189,169.972 l 70.3048,-3.39402 v 3.15159 l -65.698623,6.78805 z"
     id="path1300" />
  <g
     inkscape:groupmode="layer"
     id="layer5"
     inkscape:label="Layer 3"
     style="display:inline">
    <path
       style="fill:#21242c;fill-opacity:1;stroke:none;stroke-width:0.289528px;stroke-linecap:butt;stroke-linejoin:miter;stroke-opacity:1"
       d="m 173.61914,246.13209 -5.06483,28.7007 19.69656,13.50619 7.12828,-34.70345 z"
       id="path3420" />
    <path
       style="fill:#60667c;fill-opacity:1;stroke:none;stroke-width:0.289528px;stroke-linecap:butt;stroke-linejoin:miter;stroke-opacity:1"
       d="m 180.93501,251.29979 -0.32829,0.97575 4.87725,2.06345 0.37517,-1.3131 z"
       id="path3424"
       sodipodi:nodetypes="ccccc" />
    <path
       style="fill:#60667c;fill-opacity:1;stroke:none;stroke-width:0.289528px;stroke-linecap:butt;stroke-linejoin:miter;stroke-opacity:1"
       d="m 190.68948,264.14036 1.36001,0.65654 -2.52334,11.59708 -1.74878,-0.88196 z"
       id="path3426"
       sodipodi:nodetypes="ccccc" />
    <path
       style="fill:#60667c;fill-opacity:1;stroke:none;stroke-width:0.289528px;stroke-linecap:butt;stroke-linejoin:miter;stroke-opacity:1"
       d="m 174.93224,275.19165 -0.37517,1.12551 5.81517,3.56413 0.37518,-1.50068 z"
       id="path3428"
       sodipodi:nodetypes="ccccc" />
    <path
       style="fill:#60667c;fill-opacity:1;stroke:none;stroke-width:0.289528px;stroke-linecap:butt;stroke-linejoin:miter;stroke-opacity:1"
       d="m 172.93717,255.57427 1.3131,0.37516 -2.00902,8.09967 -1.07862,-0.28138 z"
       id="path3481"
       sodipodi:nodetypes="ccccc" />
    <path
       style="fill:#787f97;fill-opacity:1;stroke:none;stroke-width:0.289528px;stroke-linecap:butt;stroke-linejoin:miter;stroke-opacity:1"
       d="m 174.74466,250.07141 17.82068,6.37792 -5.81517,26.44964 -16.69516,-10.50483 z"
       id="path3422" />
    <g
       id="g3364"
       transform="translate(0,-4.2333335)">
      <rect
         style="fill:#d06d41;fill-opacity:1;stroke:none;stroke-width:1;stroke-linecap:round"
         id="rect3348"
         width="2.1428018"
         height="2.6570742"
         x="101.48309"
         y="286.02118"
         ry="0.96971911" />
      <rect
         style="fill:#d06d41;fill-opacity:1;stroke:none;stroke-width:1;stroke-linecap:round"
         id="rect3350"
         width="2.3999381"
         height="2.4856501"
         x="106.88296"
         y="286.34915"
         ry="0.96971911" />
      <path
         id="rect3352"
         style="fill:#6e3326;fill-opacity:1;stroke:none;stroke-width:0.939395;stroke-linecap:round"
         d="M 111.29088,286.38253 H 99.04615 c 0.166844,0.54292 0.652055,0.94311 1.25109,0.94311 h 9.74255 c 0.59901,0 1.08422,-0.40024 1.25109,-0.94311 z" />
      <path
         id="path3357"
         style="fill:#d06d41;fill-opacity:1;stroke:none;stroke-width:0.939395;stroke-linecap:round"
         d="m 100.29724,284.66843 c -0.736012,0 -1.328605,0.59258 -1.328605,1.3286 0,0.13698 0.03936,0.26136 0.07751,0.3855 h 12.244735 c 0.0382,-0.12417 0.0775,-0.2485 0.0775,-0.3855 0,-0.73602 -0.59259,-1.3286 -1.3286,-1.3286 z" />
    </g>
    <path
       style="fill:none;stroke:#000000;stroke-width:0.54714;stroke-linecap:round;stroke-linejoin:miter;stroke-miterlimit:4;stroke-dasharray:none;stroke-opacity:1"
       d="m 176.29225,252.13485 -3.28276,15.56966"
       id="path3434" />
    <path
       style="fill:#ff6600;stroke:none;stroke-width:0.253815px;stroke-linecap:butt;stroke-linejoin:miter;stroke-opacity:1"
       d="m 180.40034,264.57194 -2.46671,10.60688 6.9068,4.1934 2.42561,-11.38799 z"
       id="path3440" />
    <path
       style="fill:#ffffff;stroke:none;stroke-width:0.289528px;stroke-linecap:butt;stroke-linejoin:miter;stroke-opacity:1"
       d="m 174.29199,255.27691 -0.56276,2.43862 1.68828,0.75034 0.46897,-2.5324 z"
       id="path3430" />
    <path
       style="fill:#000000;stroke:none;stroke-width:0.289528px;stroke-linecap:butt;stroke-linejoin:miter;stroke-opacity:1"
       d="m 174.1982,255.18312 0.82069,-0.0704 1.52414,0.65654 -0.56276,2.69655 -0.65655,0.0938 0.56276,-2.6731 z"
       id="path3432"
       sodipodi:nodetypes="ccccccc" />
    <path
       style="fill:none;stroke:#000000;stroke-width:0.54714;stroke-linecap:round;stroke-linejoin:miter;stroke-miterlimit:4;stroke-dasharray:none;stroke-opacity:1"
       d="m 178.47584,253.30726 -3.28275,15.56966"
       id="path3442" />
    <path
       style="fill:#57b9ba;fill-opacity:1;stroke:none;stroke-width:0.289528px;stroke-linecap:butt;stroke-linejoin:miter;stroke-opacity:1"
       d="m 175.20938,261.51415 -0.56275,2.43861 1.68827,0.75035 0.46897,-2.5324 z"
       id="path3444" />
    <path
       style="fill:#000000;stroke:none;stroke-width:0.289528px;stroke-linecap:butt;stroke-linejoin:miter;stroke-opacity:1"
       d="m 175.11559,261.42036 0.82069,-0.0704 1.52414,0.65655 -0.56276,2.69655 -0.65655,0.0938 0.56276,-2.6731 z"
       id="path3446"
       sodipodi:nodetypes="ccccccc" />
    <path
       style="fill:none;stroke:#000000;stroke-width:0.54714;stroke-linecap:round;stroke-linejoin:miter;stroke-miterlimit:4;stroke-dasharray:none;stroke-opacity:1"
       d="m 180.5107,254.01071 -3.28275,15.56966"
       id="path3448" />
    <path
       style="fill:#d76741;fill-opacity:1;stroke:none;stroke-width:0.289528px;stroke-linecap:butt;stroke-linejoin:miter;stroke-opacity:1"
       d="m 178.83873,255.02009 -0.56276,2.43862 1.68828,0.75035 0.46897,-2.53241 z"
       id="path3450" />
    <path
       style="fill:#000000;stroke:none;stroke-width:0.289528px;stroke-linecap:butt;stroke-linejoin:miter;stroke-opacity:1"
       d="m 178.74494,254.9263 0.82069,-0.0704 1.52413,0.65655 -0.56275,2.69655 -0.65655,0.0938 0.56276,-2.6731 z"
       id="path3452"
       sodipodi:nodetypes="ccccccc" />
    <path
       style="fill:#000000;stroke:none;stroke-width:0.289528px;stroke-linecap:butt;stroke-linejoin:miter;stroke-opacity:1"
       d="m 188.8393,256.45392 -1.52541,8.37578 1.92333,0.53058 1.65804,-8.0506 z"
       id="path3454"
       sodipodi:nodetypes="ccccc" />
    <g
       id="g3458"
       transform="matrix(1.0942809,0,0,1.0942809,-17.155989,-24.929923)">
      <path
         style="fill:#d76741;fill-opacity:1;stroke:none;stroke-width:0.264583px;stroke-linecap:butt;stroke-linejoin:miter;stroke-opacity:1"
         d="m 187.32373,258.25047 0.81427,-0.34284 1.54282,0.55712 -1.24283,6.34271 -1.71424,-0.34286 0.64284,-3.25706 z"
         id="path3436" />
      <path
         style="fill:#af4825;fill-opacity:1;stroke:none;stroke-width:0.264583px;stroke-linecap:butt;stroke-linejoin:miter;stroke-opacity:1"
         d="m 187.36659,258.25047 1.32854,0.47142 -0.0857,2.8285 -1.24282,-0.34285 z"
         id="path3438" />
    </g>
    <path
       style="fill:#000000;stroke:none;stroke-width:0.289528px;stroke-linecap:butt;stroke-linejoin:miter;stroke-opacity:1"
       d="m 183.06931,254.21823 -1.52541,8.15757 1.92333,0.53058 1.73078,-7.86876 z"
       id="path3460"
       sodipodi:nodetypes="ccccc" />
    <path
       style="fill:#ffffff;fill-opacity:1;stroke:none;stroke-width:0.289528px;stroke-linecap:butt;stroke-linejoin:miter;stroke-opacity:1"
       d="m 182.0588,255.21473 0.89104,-0.37516 1.68828,0.60965 -1.36,6.9407 -1.87586,-0.37518 0.70344,-3.56414 z"
       id="path3462" />
    <path
       style="fill:#cccccc;fill-opacity:1;stroke:none;stroke-width:0.289528px;stroke-linecap:butt;stroke-linejoin:miter;stroke-opacity:1"
       d="m 182.1057,255.21473 1.4538,0.51587 -0.0938,3.09517 -1.35999,-0.37517 z"
       id="path3464" />
    <path
       style="fill:#000000;stroke:none;stroke-width:0.289528px;stroke-linecap:butt;stroke-linejoin:miter;stroke-opacity:1"
       d="m 185.98746,255.3457 -1.52541,8.15757 1.92333,0.53058 1.73079,-7.90513 z"
       id="path3475"
       sodipodi:nodetypes="ccccc" />
    <path
       style="fill:#57b9ba;fill-opacity:1;stroke:none;stroke-width:0.289528px;stroke-linecap:butt;stroke-linejoin:miter;stroke-opacity:1"
       d="m 183.61425,262.46993 0.64474,0.72043 1.78675,0.49986 1.80782,-6.81608 -1.92227,-0.83092 -0.8897,3.52228 z"
       id="path3477"
       sodipodi:nodetypes="ccccccc" />
    <path
       style="fill:#3f9a9b;fill-opacity:1;stroke:none;stroke-width:0.289528px;stroke-linecap:butt;stroke-linejoin:miter;stroke-opacity:1"
       d="m 183.65664,262.48999 2.00366,0.48428 0.81792,-2.88438 -1.4366,-0.52438 z"
       id="path3479"
       sodipodi:nodetypes="ccccc" />
    <g
       id="g3523"
       style="stroke:#ffffff"
       transform="matrix(0.1370463,0,0,0.1370463,190.75126,225.97963)">
      <path
         id="path3514"
         style="fill:none;fill-opacity:1;stroke:#ffffff;stroke-width:2.12044;stroke-linecap:round;stroke-miterlimit:4;stroke-dasharray:none"
         d="m -40.0639,345.013 c 1.9129,-8.981 1.4422,-18.729 -1.2612,-27.042 -2.6583,-8.174 -7.2487,-14.258 -12.7267,-16.984 -5.3912,-2.683 -11.2358,-1.909 -16.2902,2.098 -5.0238,3.983 -8.9198,10.887 -10.8654,19.257 -1.9595,8.43 -1.8043,17.758 0.4712,25.991 2.3132,8.368 6.637,14.957 12.0588,18.248 5.5116,3.347 11.6713,2.993 17.0797,-1.045 5.4436,-4.065 9.6065,-11.474 11.5338,-20.523 z" />
      <path
         style="fill:none;stroke:#ffffff;stroke-width:1.5;stroke-linecap:butt;stroke-linejoin:miter;stroke-miterlimit:4;stroke-dasharray:none;stroke-opacity:1"
         d="m -81.4492,322.209 41.1438,22.671"
         id="path3516" />
      <path
         style="fill:none;stroke:#ffffff;stroke-width:1.5;stroke-linecap:butt;stroke-linejoin:miter;stroke-miterlimit:4;stroke-dasharray:none;stroke-opacity:1"
         d="M -68.6828,366.606 -53.963,300.589"
         id="path3518" />
    </g>
    <path
       id="path3525"
       style="fill:#ffffff;fill-opacity:1;stroke:#ffffff;stroke-width:0.0790652;stroke-linecap:round;stroke-miterlimit:4;stroke-dasharray:none"
       d="m 183.76815,270.70537 c 0.0322,-0.1465 -0.0176,-0.30548 -0.11097,-0.35481 -0.0931,-0.0494 -0.19462,0.0291 -0.22681,0.17501 -0.0322,0.14609 0.0171,0.30507 0.11028,0.35494 0.0933,0.05 0.19532,-0.0283 0.2275,-0.17514 z" />
    <path
       id="path3527"
       style="fill:none;fill-opacity:1;stroke:#ffffff;stroke-width:0.205569;stroke-linecap:round;stroke-miterlimit:4;stroke-dasharray:none"
       d="m 183.74591,272.54837 c 0.278,-1.27453 -0.15071,-2.64307 -0.94325,-3.05915 -0.77921,-0.40894 -1.62706,0.25477 -1.90743,1.48477 -0.13539,0.59395 -0.11978,1.24835 0.0449,1.82134 0.16601,0.57765 0.47031,1.02648 0.84723,1.2452 0.38006,0.22064 0.8016,0.18858 1.17035,-0.091 0.36994,-0.28053 0.65396,-0.78541 0.78823,-1.40116 z" />
    <path
       id="circle3533"
       style="fill:none;fill-opacity:1;stroke:#ffffff;stroke-width:0.305653;stroke-linecap:round;stroke-miterlimit:4;stroke-dasharray:none"
       d="m 184.46715,272.94677 c 0.19822,-0.91918 0.15433,-1.91961 -0.11843,-2.7767 -0.26934,-0.8464 -0.73908,-1.48092 -1.30315,-1.76968 -1.15303,-0.59012 -2.40144,0.39456 -2.81821,2.20466 -0.20181,0.87642 -0.18236,1.84438 0.0572,2.69516 0.24256,0.86133 0.6916,1.53519 1.25129,1.86781 0.56663,0.33672 1.19754,0.29477 1.75051,-0.12129 0.55565,-0.41813 0.98147,-1.17559 1.1808,-2.09996 z" />
    <path
       style="fill:#1e2332;fill-opacity:1;stroke:none;stroke-width:0.264583px;stroke-linecap:butt;stroke-linejoin:miter;stroke-opacity:1"
       d="m -23.497218,266.32656 35.450492,-12.41122 6.514065,32.19336 -30.959,26.19396 z"
       id="path4665"
       sodipodi:nodetypes="ccccc" />
    <path
       style="fill:#657094;fill-opacity:1;stroke:none;stroke-width:0.264583px;stroke-linecap:butt;stroke-linejoin:miter;stroke-opacity:1"
       d="m -7.1281863,263.16099 0.4364197,2.764 8.8738645,-3.78231 -0.3512034,-2.19975 z"
       id="path3503"
       sodipodi:nodetypes="ccccc" />
    <path
       style="fill:#657094;fill-opacity:1;stroke:none;stroke-width:0.264583px;stroke-linecap:butt;stroke-linejoin:miter;stroke-opacity:1"
       d="m 1.1491648,292.20999 0.4364195,3.63683 7.0825501,-5.13113 -0.2306894,-2.09689 z"
       id="path3507"
       sodipodi:nodetypes="ccccc" />
    <path
       style="fill:#677494;fill-opacity:1;stroke:none;stroke-width:0.264583px;stroke-linecap:butt;stroke-linejoin:miter;stroke-opacity:1"
       d="m 10.371205,258.25751 -29.240111,10.61954 7.812944,33.85264 27.203486,-18.91149 z"
       id="path3501"
       sodipodi:nodetypes="ccccc" />
    <path
       style="fill:#1d2333;fill-opacity:1;stroke:none;stroke-width:0.264583px;stroke-linecap:butt;stroke-linejoin:miter;stroke-opacity:1"
       d="m 11.783328,261.70626 -2.4730438,-0.87283 -8.58291823,3.49136 2.90946383,13.96542 2.8367272,0.43642 5.891664,-4.50967 z"
       id="path3497"
       sodipodi:nodetypes="ccccccc" />
    <path
       style="fill:#333949;fill-opacity:1;stroke:none;stroke-width:0.264583px;stroke-linecap:butt;stroke-linejoin:miter;stroke-opacity:1"
       d="m 11.783328,261.70626 -8.728391,3.49136 3.2004102,13.52902 8.0010248,-4.58242 z"
       id="path3499"
       sodipodi:nodetypes="ccccc" />
    <g
       id="g3495"
       transform="matrix(0.22041868,0,0,0.22041868,-8.3165121,193.31577)"
       style="display:inline">
      <path
         id="path3153"
         style="fill:#000000;stroke:none;stroke-width:0.499999;stroke-linecap:round"
         d="m 83.056695,362.23916 c -4.4435,3.078 -9.5264,4.14 -14.055,2.681 -4.8255,-1.553 -8.4036,-5.757 -9.6979,-11.615 -1.2972,-5.872 -0.1024,-12.509 3.1613,-18.159 3.0711,-5.317 7.6002,-9.097 12.4138,-10.648 4.448,-1.432 8.8072,-0.848 12.2329,1.444 3.2529,2.177 5.5343,5.81 6.4671,10.178 0.9312,4.361 0.4925,9.333 -1.2838,14.001 -1.8655,4.902 -5.1301,9.272 -9.2384,12.118 z" />
      <g
         id="g2873"
         transform="translate(6.7896577,-1.6468594)"
         style="fill:#ffffff;stroke:#ffffff">
        <g
           id="g2007"
           style="fill:#ffffff;stroke:#ffffff">
          <g
             id="g1982"
             transform="matrix(0.00119625,-0.0603696,0.0603696,0.00119625,5.04436,353.841)"
             style="fill:#ffffff;stroke:#ffffff">
            <path
               d="m 456.671,1242 c 38.37,-57 48.119,-127.88 24.502,-201.5 C 455.606,960.803 394.147,887.366 305.717,836.598 211.598,782.565 102.898,763.164 4.45744,784.708 -93.9384,806.241 -163.515,864.618 -190.126,944.974 c -24.988,75.456 -7.946,158.466 43.466,232.406 47.4954,68.3 119.2503,121.34 201.4484,152.05 78.1536,29.2 159.7816,35.94 232.8086,20.06 73.052,-15.88 132.611,-53.32 169.074,-107.49 z m -395.5109,74.92 c -77.2635,-29.23 -144.3256,-79.46 -188.2661,-143.81 -47.33,-69.31 -62.337,-146.73 -38.324,-216.795 25.46,-74.291 90.3964,-128.143 181.6666,-148.111 91.3084,-19.977 192.1834,-2.37 279.8804,47.249 82.752,46.82 140.781,114.957 165.447,189.327 22.898,69.03 14.381,135.8 -21.35,189.66 -34.053,51.34 -90.17,86.87 -159.219,101.88 -69.028,15.01 -146.163,8.47 -219.8349,-19.4 z"
               id="path1909"
               style="fill:#ffffff;stroke:#ffffff" />
            <path
               d="m 87.1653,949.686 c 5.8686,-1.282 8.367,-6.882 5.5657,-12.535 L 66.586,884.386 c -2.9652,-5.985 -10.3133,-9.784 -16.3955,-8.454 -6.0821,1.329 -8.5454,7.273 -5.5175,13.243 l 26.6986,52.643 c 2.8605,5.64 9.9252,9.15 15.7937,7.868 z"
               id="path1911"
               style="fill:#ffffff;stroke:#ffffff" />
            <path
               d="m 260.471,1295.38 c 4.867,-1.06 7.26,-5.05 5.338,-8.93 l -17.856,-36.03 c -2.015,-4.07 -7.72,-6.5 -12.733,-5.41 -5.012,1.09 -7.401,5.28 -5.343,9.34 l 18.233,35.95 c 1.964,3.87 7.494,6.14 12.361,5.08 z"
               id="path1913"
               style="fill:#ffffff;stroke:#ffffff" />
            <path
               d="m 347.175,1079.23 48.873,-10.65 c 5.388,-1.18 8.32,-6.07 6.541,-10.95 -1.788,-4.9 -7.654,-7.93 -13.092,-6.75 l -49.327,10.76 c -5.436,1.18 -8.244,6.11 -6.28,10.97 1.955,4.84 7.899,7.79 13.285,6.62 z"
               id="path1915"
               style="fill:#ffffff;stroke:#ffffff" />
            <path
               d="m 351.698,1155.87 c 1.145,2.78 3.934,5.1 7.542,5.93 l 38.672,8.86 c 5.276,1.21 10.442,-1.31 11.555,-5.65 1.117,-4.35 -2.271,-8.9 -7.582,-10.13 l -38.936,-9.07 c -5.419,-1.27 -10.642,1.32 -11.65,5.76 -0.33,1.46 -0.165,2.93 0.399,4.3 z"
               id="path1917"
               style="fill:#ffffff;stroke:#ffffff" />
            <path
               d="m 282.694,988.6 c 0.671,1.626 1.793,3.176 3.343,4.479 4.693,3.943 11.566,4.14 15.378,0.447 l 27.981,-27.099 c 3.899,-3.776 3.3,-10.153 -1.365,-14.249 -4.687,-4.116 -11.679,-4.356 -15.587,-0.528 l -28.049,27.472 c -2.564,2.511 -3.071,6.155 -1.701,9.478 z"
               id="path1919"
               style="fill:#ffffff;stroke:#ffffff" />
            <path
               d="m 180.244,935.509 c 1.59,3.518 5.027,6.514 9.258,7.649 6.295,1.688 12.009,-1.376 12.781,-6.864 l 5.716,-40.627 c 0.803,-5.71 -3.758,-11.832 -10.21,-13.65 -6.47,-1.824 -12.339,1.381 -13.089,7.137 l -5.337,40.943 c -0.237,1.823 0.098,3.681 0.881,5.412 z"
               id="path1921"
               style="fill:#ffffff;stroke:#ffffff" />
            <path
               d="m 156.494,1261.75 c 0.571,-4.06 -3.409,-8.25 -8.903,-9.34 -5.507,-1.1 -10.415,1.33 -10.948,5.41 l -3.799,29.15 c -0.169,1.3 0.148,2.61 0.843,3.82 1.413,2.46 4.385,4.49 8.001,5.18 5.38,1.02 10.18,-1.33 10.732,-5.25 z"
               id="path1923"
               style="fill:#ffffff;stroke:#ffffff" />
            <path
               d="M -0.832498,984.724 C 2.70178,980.882 1.07355,974.407 -4.49742,970.256 L -45.7488,939.509 c -5.7984,-4.321 -13.3968,-4.582 -16.9354,-0.574 -2.3673,2.683 -2.3043,6.588 -0.2518,10.155 1.0046,1.746 2.4869,3.411 4.3931,4.814 l 41.2648,30.342 c 5.5733,4.097 12.92244,4.308 16.445602,0.478 z"
               id="path1925"
               style="fill:#ffffff;stroke:#ffffff" />
            <path
               d="m 355.447,1238.53 -29.424,-21.93 c -4.123,-3.07 -10.268,-3.1 -13.702,-0.05 -2.299,2.03 -2.79,4.93 -1.615,7.53 0.576,1.27 1.552,2.47 2.909,3.47 l 29.48,21.68 c 3.994,2.93 9.974,2.93 13.377,0 3.41,-2.94 2.96,-7.73 -1.025,-10.7 z"
               id="path1927"
               style="fill:#ffffff;stroke:#ffffff" />
            <path
               d="M 20.3179,923.61 3.85556,904.384 c -4.595742,-5.366 -12.41938,-7.453 -17.44646,-4.638 -4.2038,2.355 -5.0914,7.379 -2.5428,12.078 0.4928,0.909 1.115,1.807 1.8645,2.669 l 16.59682,19.075 c 4.51748,5.191 12.16398,7.171 17.10948,4.443 4.9528,-2.732 5.3616,-9.166 0.8808,-14.401 z"
               id="path1929"
               style="fill:#ffffff;stroke:#ffffff" />
            <path
               d="m 314.871,1267.6 -11.087,-12.95 c -3.088,-3.61 -9.096,-4.85 -13.402,-2.76 -3.602,1.75 -4.853,5.26 -3.331,8.46 0.294,0.62 0.693,1.23 1.197,1.81 l 11.188,12.86 c 3.053,3.51 8.954,4.69 13.199,2.65 4.251,-2.04 5.262,-6.54 2.236,-10.07 z"
               id="path1931"
               style="fill:#ffffff;stroke:#ffffff" />
            <path
               d="m 337.075,1018.5 c 0.31,0.8 0.737,1.58 1.284,2.33 3.354,4.61 9.972,6.32 14.803,3.84 l 17.583,-9.01 c 4.86,-2.5 6.16,-8.3 2.877,-12.97 -3.299,-4.706 -9.961,-6.484 -14.859,-3.955 l -17.715,9.145 c -4.077,2.1 -5.577,6.52 -3.973,10.62 z"
               id="path1933"
               style="fill:#ffffff;stroke:#ffffff" />
            <path
               d="m 374.616,1114.52 c 1.444,3.69 5.566,6.45 10.207,6.52 l 20.046,0.3 c 5.509,0.08 9.74,-3.69 9.455,-8.43 -0.282,-4.77 -5.017,-8.73 -10.575,-8.82 l -20.225,-0.34 c -5.59,-0.09 -9.815,3.73 -9.43,8.52 0.061,0.78 0.242,1.53 0.522,2.25 z"
               id="path1935"
               style="fill:#ffffff;stroke:#ffffff" />
            <path
               d="m 113.099,880.507 4.161,21.92 c 0.184,0.971 0.503,1.917 0.933,2.821 2.209,4.647 7.394,8.19 12.793,8.392 6.437,0.241 10.788,-4.361 9.723,-10.308 l -3.917,-21.854 c -1.094,-6.096 -7.305,-11.292 -13.876,-11.57 -6.581,-0.279 -10.978,4.481 -9.817,10.599 z"
               id="path1937"
               style="fill:#ffffff;stroke:#ffffff" />
            <path
               d="m 192.354,1296.29 c 1.678,3.1 5.815,5.35 10.216,5.33 5.25,-0.03 8.919,-3.3 8.2,-7.31 l -2.638,-14.72 c -0.733,-4.09 -5.655,-7.42 -10.993,-7.41 -5.345,0.01 -9.048,3.37 -8.269,7.47 l 2.8,14.75 c 0.124,0.66 0.357,1.29 0.684,1.89 z"
               id="path1939"
               style="fill:#ffffff;stroke:#ffffff" />
            <path
               d="m 250.056,945.921 c 5.728,3.017 12.352,1.57 14.825,-3.238 l 9.056,-17.603 c 2.518,-4.895 -0.098,-11.404 -5.872,-14.533 -5.797,-3.142 -12.542,-1.667 -15.036,3.284 l -8.971,17.807 c -1.226,2.434 -1.162,5.252 -0.071,7.84 1.088,2.581 3.196,4.93 6.069,6.443 z"
               id="path1941-9"
               style="fill:#ffffff;stroke:#ffffff" />
            <path
               d="m 376.665,1213.96 c 4.752,2.16 10.495,0.92 12.847,-2.8 2.361,-3.73 0.427,-8.54 -4.34,-10.74 l -17.433,-8.06 c -4.842,-2.24 -10.674,-0.97 -13.003,2.83 -1.163,1.89 -1.231,4.06 -0.403,6.02 0.826,1.96 2.543,3.72 4.954,4.82 z"
               id="path1943-1"
               style="fill:#ffffff;stroke:#ffffff" />
            <path
               d="m 49.2873,851.814 c 74.7787,-13.561 156.6717,1.397 228.0067,40.608 68.047,37.405 118.025,92.31 141.931,152.888 22.371,56.68 19.958,113.33 -4.919,160.44 -2.045,3.87 0.23,8.53 5.062,10.42 4.817,1.87 10.378,0.29 12.443,-3.55 27.095,-50.38 30.298,-111.15 6.88,-172.21 C 413.543,974.821 360.048,915.055 286.618,874.108 209.336,831.012 120.272,814.397 38.8868,829.129 c -81.1431,14.687 -142.7748,58.268 -172.2728,120.31 -1.232,2.59 -0.739,5.749 1.031,8.639 1.456,2.378 3.778,4.573 6.717,6.121 6.482,3.415 13.552,2.405 15.824,-2.261 27.659,-56.776 84.5485,-96.605 159.1013,-110.124 z"
               id="path1945-4"
               style="fill:#ffffff;stroke:#ffffff" />
            <path
               d="m 413.873,1240.09 c 2.691,-3.45 1.277,-8.18 -3.176,-10.55 -4.47,-2.39 -10.285,-1.49 -12.968,1.99 -31.254,40.6 -80.032,68.37 -138.28,79.33 -58.637,11.03 -123.813,4.37 -185.2878,-19.48 -63.9645,-24.81 -119.8241,-66.63 -156.9289,-119.32 -39.2353,-55.71 -54.1193,-118.51 -39.4453,-176.255 1.269,-4.991 -3.117,-11.192 -9.822,-13.839 -6.73,-2.658 -13.2,-0.713 -14.425,4.331 -14.554,59.913 0.201,124.603 39.036,182.543 1.802,2.69 3.663,5.37 5.57,8.03 40.4565,56.44 100.78512,101.01 169.4884,127.33 65.8426,25.23 135.4826,32.17 198.1066,20.38 62.193,-11.72 114.419,-41.26 148.132,-84.49 z"
               id="path1947-6"
               style="fill:#ffffff;stroke:#ffffff" />
            <path
               d="m 336.709,1186.91 c 2.058,-3.41 0.631,-7.8 -3.386,-10.35 L 218.074,1103.4 c -4.346,-13.11 -15.403,-25.54 -31.342,-33.11 -28.088,-13.34 -60.005,-6.38 -70.496,15.37 -5.173,10.73 -4.076,22.96 1.787,34.01 5.794,10.92 16.242,20.68 29.939,26.76 15.621,6.94 32.265,7.66 45.613,3.2 l 131.513,40.69 c 4.649,1.43 9.569,-0.01 11.621,-3.41 z m -181.207,-55.28 c -16.536,-7.45 -25.061,-23.82 -18.781,-36.56 6.349,-12.88 25.324,-17.02 42.063,-9.17 8.301,3.89 14.45,9.99 17.683,16.67 3.21,6.64 3.547,13.85 0.28,20.07 -6.481,12.34 -24.886,16.35 -41.245,8.99 z m 56.223,6.34 c 1.713,-1.95 3.22,-4.08 4.464,-6.41 1.247,-2.32 2.173,-4.74 2.824,-7.21 l 50.897,31.89 z"
               id="path1949-6"
               style="fill:#ffffff;stroke:#ffffff" />
            <path
               d="M -63.3989,1058.87 39.684,1228.22 c 5.1506,8.46 17.6281,13.47 27.8614,11.24 l 37.1556,-8.09 c 10.234,-2.23 14.701,-10.93 9.914,-19.47 l -8.811,-15.72 c -2.456,-4.39 -8.7003,-7.03 -13.9352,-5.89 -5.2347,1.14 -7.4408,5.63 -4.9385,10 l 8.968,15.7 -37.5123,8.15 -101.2596,-169.77 41.14881,-8.96 70.20749,122.65 c 2.5814,4.51 8.9474,7.22 14.2295,6.06 5.2823,-1.15 7.5203,-5.73 4.9869,-10.25 L 18.7957,1040.93 c -5.8228,-10.39 -19.91101,-16.89 -31.3476,-14.4 l -41.5192,9.07 c -11.4351,2.49 -15.592,12.98 -9.3278,23.27 z"
               id="path1951-5"
               style="fill:#ffffff;stroke:#ffffff" />
          </g>
        </g>
      </g>
    </g>
  </g>
  <g
     inkscape:groupmode="layer"
     id="layer6"
     inkscape:label="Layer 4">
    <path
       style="fill:#21242b;fill-opacity:1;stroke:#000000;stroke-width:0.264583px;stroke-linecap:butt;stroke-linejoin:miter;stroke-opacity:1"
       d="m 126.70714,276.54453 6.40083,14.25637 52.80677,10e-6 -18.18415,-14.18363 z"
       id="path4366"
       sodipodi:nodetypes="ccccc" />
    <path
       style="fill:#000000;fill-opacity:1;stroke:#000000;stroke-width:0.289071px;stroke-linecap:butt;stroke-linejoin:miter;stroke-opacity:1"
       d="m 132.74914,278.18403 16.31669,0.19126 7.08748,9.6369 -19.12632,0.0125 z"
       id="path4865"
       sodipodi:nodetypes="ccccc" />
    <path
       style="fill:#ff6600;fill-opacity:1;stroke:#000000;stroke-width:0.264583px;stroke-linecap:butt;stroke-linejoin:miter;stroke-opacity:1"
       d="m 133.68986,278.58116 14.6928,0.14546 6.81958,8.7284 -17.22093,0.14547 z"
       id="path4863"
       sodipodi:nodetypes="ccccc" />
    <g
       id="g4539"
       transform="matrix(0.09056114,0,0,0.09056114,154.35295,265.13263)"
       style="fill:#ffffff;fill-opacity:1">
      <g
         id="g4455"
         style="fill:#ffffff;fill-opacity:1">
        <g
           id="g4453"
           style="fill:#ffffff;fill-opacity:1">
          <path
             d="m -103.644,171.789 c -0.382,0.348 -1.85,0.488 -3.275,0.312 l -0.114,-0.014 c -1.419,-0.176 -2.252,-0.599 -1.865,-0.945 0.259,-0.231 0.997,-0.37 1.88,-0.384 0.436,-0.008 0.909,0.016 1.377,0.073 l 0.114,0.014 c 1.419,0.173 2.264,0.596 1.883,0.944 z"
             id="path4451"
             style="fill:#ffffff;fill-opacity:1" />
        </g>
      </g>
      <g
         id="g4461"
         style="fill:#ffffff;fill-opacity:1">
        <g
           id="g4459"
           style="fill:#ffffff;fill-opacity:1">
          <path
             d="m -50.184,198.471 c -4.4169,5.564 -17.2204,9.691 -35.886,11.446 -18.628,1.751 -40.055,0.853 -59.714,-2.418 -18.863,-3.138 -33.37,-8.014 -41.105,-13.591 -7.34,-5.292 -7.735,-10.619 -1.564,-15.086 5.362,-3.882 15.487,-6.857 28.616,-8.464 6.215,-0.76 12.975,-1.203 20.006,-1.325 7.692,-0.134 15.766,0.115 23.857,0.76 1.434,0.115 2.466,0.503 2.3,0.869 -0.166,0.367 -1.472,0.57 -2.914,0.453 -21.4,-1.731 -41.466,-0.452 -54.685,3.059 l 4.395,3.284 1.148,0.086 c 4.358,0.327 7.513,1.581 7,2.804 l -0.309,0.738 c -0.072,0.171 0.052,0.35 0.357,0.517 1.155,0.63 1.384,1.337 0.619,1.937 -0.768,0.604 -2.462,1.041 -4.645,1.198 l -5.623,0.404 -9.71,2.7 c -0.586,0.163 -1.445,0.217 -2.298,0.145 l -6.931,-0.586 c 0.245,0.716 0.63,1.436 1.15,2.155 0.22,-0.077 0.363,-0.129 0.449,-0.164 0.094,-0.067 0.221,-0.129 0.38,-0.183 0.458,-0.156 0.909,-0.228 1.935,-0.238 0.944,-0.009 2.375,0.036 4.749,0.119 2.257,0.08 4.517,0.172 4.539,0.173 0.908,0.037 1.76,0.209 2.263,0.458 0.504,0.249 0.586,0.54 0.217,0.772 l -2.371,1.49 5.288,0.998 c 0.354,0.067 0.67,0.154 0.924,0.256 l 9.899,3.973 3.684,1.002 c 3.81,1.037 5.752,2.591 4.904,3.962 -0.505,0.815 -1.884,1.5 -3.872,1.966 2.893,0.625 5.94,1.204 9.138,1.73 11.923,1.959 24.336,2.921 36.066,2.949 l -7.052,-2.143 -20.96,-2.134 c -0.836,-0.086 -1.592,-0.273 -2.076,-0.515 l -8.071,-4.032 c -0.561,-0.281 -0.665,-0.603 -0.275,-0.853 l 5.193,-3.331 c -1.287,-0.296 -2.639,-0.728 -4.259,-1.263 -0.708,-0.233 -1.374,-0.453 -1.814,-0.575 -0.381,-0.107 -0.761,-0.211 -1.137,-0.313 -1.96,-0.536 -3.973,-1.087 -5.632,-1.826 -3.604,-1.605 -4.339,-3.468 -1.985,-4.874 2.254,-1.347 6.986,-2.065 12.699,-1.931 0.934,0.022 1.831,0.075 2.7,0.126 2.401,0.142 3.135,0.151 3.709,-0.059 0.28,-0.101 0.298,-0.12 0.032,-0.453 -0.169,-0.21 -0.378,-0.472 -0.364,-0.773 0.024,-0.48 0.784,-0.819 1.394,-1.091 0.303,-0.134 0.616,-0.274 0.673,-0.366 0.366,-0.58 -0.242,-0.891 -1.565,-1.568 -0.113,-0.058 -0.228,-0.116 -0.345,-0.177 -2.001,-1.033 -1.186,-2.085 -0.472,-3.005 0.231,-0.298 0.448,-0.578 0.54,-0.823 0.733,-1.957 2.088,-2.418 3.317,-2.614 0.644,-0.103 1.355,-0.154 2.109,-0.166 3.672,-0.056 8.361,0.844 10.685,1.43 1.468,0.37 2.093,0.754 2.552,1.036 0.228,0.141 0.409,0.252 0.627,0.323 0.334,0.109 0.688,0.193 1.136,0.298 0.903,0.213 2.03,0.479 3.058,0.977 0.786,0.379 1.188,0.47 2.522,0.771 0.233,0.053 0.481,0.109 0.749,0.171 4.568,1.05 4.444,1.907 4.311,2.82 -0.112,0.775 1.794,1.25 6.2056,2.157 1.9286,0.396 3.933,0.808 5.6698,1.314 0.7633,0.222 3.0972,0.9 2.7513,1.604 -0.3408,0.695 -2.7946,0.834 -4.7644,0.946 -0.7773,0.044 -1.9517,0.111 -2.2713,0.19 -1.4105,0.347 -1.818,1.052 -2.214,1.737 -0.08,0.137 -0.158,0.272 -0.242,0.403 -0.151,0.235 -0.257,0.519 -0.37,0.821 -0.299,0.8 -0.641,1.714 -2.054,2.364 -1.276,0.585 -4.401,0.885 -7.157,1.15 -0.927,0.089 -1.802,0.173 -2.363,0.246 -0.471,0.063 -1.026,0.077 -1.596,0.042 -1.526,-0.094 -2.518,-0.201 -3.318,-0.36 -0.211,-0.041 -0.847,-0.179 -1.338,-0.403 -0.902,0.157 -2.077,0.454 -2.801,0.637 -0.015,0.004 -0.031,0.008 -0.046,0.011 0.584,0.357 0.553,0.648 0.421,0.831 -0.748,1.035 -6.033,0.985 -7.081,0.964 -0.595,-0.012 -1.338,-0.015 -2.124,-0.019 -1.233,-0.006 -2.595,-0.013 -3.964,-0.052 l 0.113,0.059 c 1.674,0.873 4.839,1.453 7.87,1.437 l 1.608,-0.009 c 1.564,-0.008 3.15,0.381 3.54,0.87 0.391,0.491 -0.571,0.897 -2.148,0.905 l -1.621,0.007 c -4.535,0.021 -9.223,-0.705 -12.375,-1.854 l -2.859,1.862 6.476,3.187 20.392,2.047 c 0.569,0.057 1.114,0.16 1.572,0.298 l 11.443,3.434 c 21.7058,-0.702 38.9383,-4.709 44.1869,-11.122 1.3587,-1.66 1.7935,-3.38 1.4107,-5.11 l -1.6079,-0.318 c -2.0895,-0.413 -3.7032,-1.013 -4.4338,-1.645 l -0.0242,-0.02 -0.2297,1.641 c -0.0341,0.247 -0.2327,0.475 -0.5899,0.677 l -2.2572,1.281 c -0.8803,0.5 -2.625,0.795 -4.7821,0.809 l -4.4131,0.028 c -1.5629,0.01 -3.2488,-0.237 -4.3981,-0.644 -1.1446,-0.406 -1.5601,-0.9 -1.0893,-1.29 l 0.2413,-0.201 c -3.5225,-0.697 -7.31,-1.242 -11.0973,-1.598 l -2.6675,3.433 0.724,0.77 c 0.2249,0.239 0.1178,0.47 -0.298,0.639 l -3.9328,1.602 c -0.2181,0.089 -0.512,0.158 -0.862,0.202 l -4.381,0.55 c -1.363,0.171 -3.226,-0.065 -4.158,-0.526 -0.927,-0.458 -0.58,-0.966 0.772,-1.136 l 3.82,-0.479 2.9482,-1.189 -0.5562,-0.607 c -0.1274,-0.14 -0.1417,-0.277 -0.0419,-0.402 l 3.4064,-4.255 c 0.3008,-0.376 1.6218,-0.558 3.0856,-0.425 l 2.3463,0.212 c 5.4859,0.497 10.9936,1.334 15.9396,2.428 1.2741,0.281 1.8987,0.734 1.4872,1.083 l -0.0828,0.07 1.3874,-0.01 c 0.4341,-0.003 0.7861,-0.062 0.9652,-0.163 l 2.265,-1.268 c 0.0727,-0.041 0.1137,-0.086 0.122,-0.136 l 0.5242,-3.188 c 0.0444,-0.27 0.6082,-0.476 1.4941,-0.546 0.1914,-0.016 0.3916,-0.024 0.5977,-0.026 0.7503,-0.007 1.5755,0.072 2.2923,0.225 l 2.4583,0.523 c 1.5652,0.333 2.8698,0.762 3.8065,1.244 -4.596,-6.621 -20.436,-12.926 -42.1274,-16.492 -1.3794,-0.227 -2.0267,-0.672 -1.4508,-0.995 0.5741,-0.322 2.1511,-0.402 3.5287,-0.178 15.5202,2.524 28.916,6.429 37.5751,11.087 9.1691,4.934 12.3455,10.363 8.4863,15.224 z m -130.763,-12.102 9.146,-2.527 c 0.269,-0.075 0.601,-0.127 0.972,-0.154 l 6.144,-0.443 c 0.785,-0.057 1.371,-0.207 1.652,-0.424 0.28,-0.216 0.206,-0.461 -0.206,-0.69 -0.844,-0.468 -1.177,-0.968 -0.966,-1.445 l 0.324,-0.733 c 0.192,-0.436 -0.925,-0.886 -2.486,-1.005 l -2.654,-0.202 c -0.923,-0.071 -1.705,-0.275 -2.043,-0.532 l -3.873,-2.952 c -3.625,1.201 -6.623,2.615 -8.816,4.228 -2.713,1.995 -3.95,4.136 -3.835,6.327 z m 23.511,13.057 -3.942,-1.085 c -0.175,-0.048 -0.334,-0.102 -0.476,-0.159 l -9.656,-3.928 -7.135,-1.362 c -1.315,-0.251 -1.88,-0.749 -1.279,-1.122 l 1.736,-1.076 c -1.377,-0.05 -2.608,-0.091 -3.422,-0.111 -0.128,0.047 -0.263,0.094 -0.403,0.143 -0.523,0.184 -1.257,0.429 -2.356,0.789 4.417,4.141 13.272,8.171 25.77,11.344 1.916,-0.214 3.284,-0.711 3.694,-1.351 0.46,-0.716 -0.539,-1.533 -2.531,-2.082 z m 19.297,-4.854 c 1.391,0.205 4.282,0.217 6.398,0.226 0.849,0.004 1.652,0.007 2.378,0.021 0.383,0.007 0.799,0.003 1.185,-0.009 -0.284,-0.138 -0.459,-0.289 -0.501,-0.441 -0.072,-0.265 0.28,-0.498 0.949,-0.629 0.454,-0.089 1.062,-0.241 1.706,-0.403 1.816,-0.456 3.871,-0.972 6.145,-1.034 2.07,-0.057 3.549,0.297 4.183,0.449 0.051,0.012 0.099,0.024 0.149,0.035 0.343,0.068 0.689,0.16 0.984,0.272 0.415,-0.042 0.852,-0.084 1.301,-0.127 1.543,-0.148 4.415,-0.424 4.907,-0.648 0.872,-0.396 1.166,-1.137 1.424,-1.786 0.13,-0.328 0.253,-0.636 0.443,-0.921 0.081,-0.122 0.157,-0.248 0.234,-0.376 0.515,-0.856 1.095,-1.82 3.613,-2.437 1.14,-0.279 2.7689,-0.372 4.2073,-0.455 0.1739,-0.01 0.3733,-0.021 0.5752,-0.033 -1.2353,-0.354 -2.8245,-0.684 -4.4975,-1.032 -4.227,-0.879 -9.422,-1.959 -9.119,-3.753 0.141,-0.837 0.102,-0.927 -1.736,-1.354 -0.249,-0.058 -0.481,-0.111 -0.698,-0.16 -1.555,-0.356 -2.779,-0.635 -4.207,-1.336 -0.412,-0.202 -0.795,-0.293 -1.487,-0.459 -0.553,-0.131 -1.241,-0.295 -1.945,-0.528 -0.842,-0.278 -1.277,-0.55 -1.625,-0.768 -0.343,-0.214 -0.524,-0.321 -0.915,-0.421 -0.888,-0.226 -2.454,-0.55 -3.955,-0.764 -1.39,-0.197 -2.119,-0.217 -2.355,-0.209 -0.204,0.086 -0.892,0.463 -1.343,1.745 -0.112,0.319 -0.36,0.649 -0.602,0.969 -0.534,0.71 -1.089,1.448 -0.126,1.937 0.114,0.058 0.226,0.115 0.336,0.17 1.541,0.777 3.008,1.516 2.33,2.636 -0.208,0.343 -0.777,0.598 -1.279,0.825 -0.325,0.146 -0.694,0.312 -0.696,0.406 -0.003,0.114 0.105,0.244 0.23,0.395 0.337,0.41 0.85,1.031 -0.788,1.635 -2.32,0.854 -5.973,0.634 -8.38,0.489 -0.738,-0.045 -1.434,-0.087 -2.033,-0.101 -3.826,-0.093 -6.847,0.36 -8.311,1.246 -1.542,0.934 -1.002,2.176 1.438,3.248 1.191,0.523 2.735,0.94 4.532,1.426 0.394,0.107 0.792,0.214 1.193,0.325 0.667,0.184 1.438,0.435 2.256,0.701 0.979,0.319 2.812,0.916 3.502,1.028 z"
             id="path4457"
             style="fill:#ffffff;fill-opacity:1" />
        </g>
      </g>
      <g
         id="g4467"
         style="fill:#ffffff;fill-opacity:1">
        <g
           id="g4465"
           style="fill:#ffffff;fill-opacity:1">
          <path
             d="m -88.8559,180.523 0.1159,1.42 c 0.0254,0.313 -0.6642,0.551 -1.7393,0.602 -1.0768,0.05 -2.3141,-0.096 -3.1257,-0.371 -0.454,-0.154 -0.8867,-0.317 -1.3043,-0.474 -0.701,-0.265 -1.4238,-0.537 -2.0411,-0.685 -0.3462,-0.082 -1.1095,-0.167 -1.846,-0.248 -1.7566,-0.194 -4.1536,-0.458 -5.6546,-1.178 -0.925,-0.443 -1.076,-0.8 -1.186,-1.06 -0.095,-0.225 -0.141,-0.303 -0.486,-0.44 l -0.043,-0.017 c -1.368,-0.545 -3.892,-1.55 -2.533,-2.446 0.964,-0.636 2.439,-0.817 3.704,-0.836 0.246,-0.004 0.486,-0.001 0.712,0.006 2.789,0.081 5.5733,0.826 8.793,2.361 l 6.189,2.951 c 0.2798,0.134 0.434,0.277 0.4451,0.415 z m -11.3131,-2.873 c -1.629,-0.788 -2.737,-1.148 -3.326,-1.306 -0.032,0.018 -0.067,0.039 -0.102,0.063 -0.31,0.207 0.925,0.692 1.745,1.015 l 0.044,0.017 c 1.329,0.522 1.514,0.937 1.65,1.24 0.087,0.195 0.131,0.279 0.3705,0.392 0.1967,0.093 0.9135,0.176 1.9864,0.293 0.4764,0.052 1.0013,0.109 1.5441,0.179 z"
             id="path4463"
             style="fill:#ffffff;fill-opacity:1" />
        </g>
      </g>
      <g
         id="g4473"
         style="fill:#ffffff;fill-opacity:1">
        <g
           id="g4471"
           style="fill:#ffffff;fill-opacity:1">
          <path
             d="m -110.658,199.599 -0.177,0.022 c -1.364,0.171 -3.212,-0.067 -4.122,-0.531 -0.906,-0.462 -0.539,-0.972 0.816,-1.142 l 0.175,-0.021 c 0.284,-0.036 0.59,-0.054 0.904,-0.055 1.181,-0.007 2.48,0.216 3.205,0.579 0.921,0.462 0.564,0.977 -0.801,1.148 z"
             id="path4469"
             style="fill:#ffffff;fill-opacity:1" />
        </g>
      </g>
      <g
         id="g4475"
         style="fill:#ffffff;fill-opacity:1" />
      <g
         id="g4477"
         style="fill:#ffffff;fill-opacity:1" />
      <g
         id="g4479"
         style="fill:#ffffff;fill-opacity:1" />
      <g
         id="g4481"
         style="fill:#ffffff;fill-opacity:1" />
      <g
         id="g4483"
         style="fill:#ffffff;fill-opacity:1" />
      <g
         id="g4485"
         style="fill:#ffffff;fill-opacity:1" />
      <g
         id="g4487"
         style="fill:#ffffff;fill-opacity:1" />
      <g
         id="g4489"
         style="fill:#ffffff;fill-opacity:1" />
      <g
         id="g4491"
         style="fill:#ffffff;fill-opacity:1" />
      <g
         id="g4493"
         style="fill:#ffffff;fill-opacity:1" />
      <g
         id="g4495"
         style="fill:#ffffff;fill-opacity:1" />
      <g
         id="g4497"
         style="fill:#ffffff;fill-opacity:1" />
      <g
         id="g4499"
         style="fill:#ffffff;fill-opacity:1" />
      <g
         id="g4501"
         style="fill:#ffffff;fill-opacity:1" />
      <g
         id="g4503"
         style="fill:#ffffff;fill-opacity:1" />
    </g>
    <path
       id="path5605"
       style="display:inline;opacity:1;fill:#737f9c;fill-opacity:1;stroke:none;stroke-width:0.389505;stroke-linecap:round"
       d="m 167.2783,277.35767 c -0.51055,0 -0.96211,0.2118 -1.00882,0.47614 -0.0472,0.26434 0.33219,0.47965 0.84697,0.47965 0.24773,0 0.49309,-0.0507 0.68277,-0.14179 0.18922,-0.0893 0.30671,-0.21182 0.327,-0.33786 0.0203,-0.12601 -0.0581,-0.24857 -0.21705,-0.33786 -0.15901,-0.0875 -0.38598,-0.13828 -0.63087,-0.13828 z" />
    <path
       style="fill:#000000;stroke:#000000;stroke-width:0.264583px;stroke-linecap:butt;stroke-linejoin:miter;stroke-opacity:1"
       d="m 155.1876,278.66102 12.96477,-0.17927 10.55046,9.31029 -16.293,0.0249 z"
       id="path4869"
       sodipodi:nodetypes="ccccc" />
    <path
       style="fill:#57b9ba;fill-opacity:1;stroke:none;stroke-width:0.229937px;stroke-linecap:butt;stroke-linejoin:miter;stroke-opacity:1"
       d="m 156.0768,278.88198 11.61609,-0.17355 9.7904,8.60548 -14.82813,-0.0836 z"
       id="path5577"
       sodipodi:nodetypes="ccccc" />
    <g
       id="g5256"
       transform="matrix(0.02943034,6.7637165e-4,-6.7637165e-4,0.02943034,128.10467,272.30411)">
      <path
         d="M 1625.71,435.705 1416.35,257.047 c -2.15,-1.834 -8.49,-3.165 -14.16,-2.979 -5.67,0.186 -8.56,1.819 -6.45,3.653 l 205.43,178.654 c 4.95,4.299 -0.23,8.07 -11.57,8.377 l -354.15,9.586 c -11.1,0.301 -22.94,-2.968 -26.38,-7.257 l -40.79,-50.841 c -1.88,-2.344 -8.5,-4.088 -14.8,-3.906 -6.29,0.182 -9.91,2.222 -8.08,4.566 l 39.72,50.835 c 7.4,9.477 33.51,16.766 58.12,16.107 l 357.14,-9.566 c 25.16,-0.674 36.47,-9.069 25.33,-18.571 z"
         id="path5250" />
      <path
         d="M 1154.84,379.487 1026.59,219.63 c -2.21,-2.758 3.13,-5.234 11.9,-5.535 l 279.25,-9.579 c 8.92,-0.306 18.74,1.671 21.9,4.422 l 41,35.652 c 2.06,1.791 8.3,3.099 13.93,2.913 5.63,-0.186 8.49,-1.794 6.39,-3.585 l -41.77,-35.647 c -7.07,-6.03 -28.63,-10.331 -48.13,-9.659 l -277.42,9.567 c -19.16,0.66 -30.94,6.059 -26.22,12.106 l 124.9,159.862 c 1.78,2.284 8.29,3.994 14.53,3.811 6.25,-0.183 9.82,-2.188 7.99,-4.471 z"
         id="path5252" />
      <path
         d="m 1247.18,436.031 c 2.13,2.532 9.22,4.445 15.83,4.263 l 272.94,-7.494 c 6.72,-0.185 9.88,-2.398 7.07,-4.933 L 1309.06,216.641 c -1.86,-1.678 -7.74,-2.886 -13.14,-2.702 l -219.74,7.482 c -5.33,0.182 -8.51,1.688 -7.09,3.369 z m 27.93,-71.217 41.14,-1.22 61.81,64.146 -43.66,1.21 z m -40.58,-43.899 39.42,-1.221 13.29,13.792 -39.96,1.222 z m -19.08,-20.639 38.61,-1.22 12.77,13.245 -39.13,1.221 z m -18.33,-19.834 37.84,-1.218 12.26,12.729 -38.33,1.22 z m 96.54,-3.109 13.04,12.728 -38.47,1.224 -12.54,-12.729 z m -44.7,-5.606 -12.05,-12.242 37.21,-1.22 12.54,12.241 z m 89.84,91.198 41.29,-1.224 15.36,14.996 -41.88,1.224 z m -7.91,-8.031 -14.16,-14.375 40.4,-1.226 14.73,14.376 z m -21.75,-22.077 -13.59,-13.793 39.56,-1.225 14.13,13.792 z m -20.87,-21.186 -13.05,-13.245 38.75,-1.224 13.57,13.244 z m 6.39,29.557 13.85,14.375 -40.82,1.221 -13.29,-14.374 z m 107.33,85.888 -40.16,-40.775 42.21,-1.222 41.78,40.781 z m 25.19,-42.666 42.38,-1.227 17,15.662 -43,1.225 z m -8.77,-8.384 -15.69,-14.997 41.45,-1.229 16.28,14.998 z m -24.09,-23.029 -15.04,-14.376 40.56,-1.23 15.61,14.377 z m -23.1,-22.078 -14.43,-13.792 39.71,-1.23 14.97,13.792 z m -22.16,-21.185 -13.85,-13.243 38.88,-1.229 14.38,13.243 z m -21.28,-20.344 -13.32,-12.727 38.1,-1.227 13.82,12.725 z m -20.46,-19.554 -12.8,-12.239 37.34,-1.224 13.29,12.237 z m -19.67,-18.807 -12.33,-11.78 36.62,-1.221 12.79,11.778 z m -20.26,0.668 -36.96,1.218 -29.02,-29.459 35.81,-1.212 z m -85.53,-27.578 46.51,48.275 -37.57,1.218 -44.63,-48.285 z m -28.57,31.34 -36.71,1.211 -10.19,-11.79 36.25,-1.209 z m 5.94,6.572 11.05,12.246 -37.44,1.213 -10.58,-12.247 z m 17.22,19.076 68.95,76.343 -40.68,1.216 -65.98,-76.344 z m 76.2,84.373 13.54,14.993 -41.57,1.214 -12.96,-14.991 z m 21.1,23.372 14.14,15.652 -42.51,1.211 -13.52,-15.65 z m -20.8,25.613 42.85,-1.209 14.77,16.356 -43.49,1.206 z m 216.9,10.729 -17.13,-16.368 43.35,-1.223 17.78,16.37 z m -164.77,-193.488 -36.37,1.219 -11.87,-11.346 35.92,-1.216 z m -178.41,-5.718 10.26,11.355 -36.01,1.207 -9.82,-11.358 z"
         id="path5254" />
    </g>
    <path
       style="fill:#808080;fill-opacity:1;stroke:none;stroke-width:0.264583px;stroke-linecap:butt;stroke-linejoin:miter;stroke-opacity:1"
       d="m 132.74914,278.18402 4.78701,9.91339 18.68472,-0.055 -0.11951,0.74775 -19.18798,0.0551 -4.17486,-9.13004 z"
       id="path5595"
       sodipodi:nodetypes="ccccccc" />
    <path
       id="path5597"
       style="display:inline;opacity:1;fill:#737f9c;fill-opacity:1;stroke:none;stroke-width:0.425329;stroke-linecap:round"
       d="m 134.4772,288.42629 c -0.55751,0 -1.0506,0.23128 -1.10161,0.51993 -0.0515,0.28865 0.36274,0.52376 0.92487,0.52376 0.27051,0 0.53844,-0.0554 0.74557,-0.15483 0.20662,-0.0975 0.33492,-0.2313 0.35707,-0.36893 0.0222,-0.1376 -0.0634,-0.27143 -0.23701,-0.36893 -0.17364,-0.0956 -0.42148,-0.151 -0.68889,-0.151 z" />
    <path
       id="path5599"
       style="display:inline;opacity:1;fill:#737f9c;fill-opacity:1;stroke:none;stroke-width:0.389505;stroke-linecap:round"
       d="m 129.70723,277.35767 c -0.51055,0 -0.96211,0.2118 -1.00882,0.47614 -0.0472,0.26434 0.33219,0.47965 0.84697,0.47965 0.24773,0 0.49309,-0.0507 0.68277,-0.14179 0.18922,-0.0893 0.30671,-0.21182 0.327,-0.33786 0.0203,-0.12601 -0.0581,-0.24857 -0.21705,-0.33786 -0.15901,-0.0875 -0.38598,-0.13828 -0.63087,-0.13828 z" />
    <path
       id="path5603"
       style="display:inline;opacity:1;fill:#737f9c;fill-opacity:1;stroke:none;stroke-width:0.425329;stroke-linecap:round"
       d="m 182.15823,288.96789 c -0.55426,-0.06 -1.06939,0.11683 -1.15117,0.39832 -0.0823,0.28143 0.30426,0.55977 0.86311,0.62028 0.26896,0.0292 0.54128,0.003 0.7579,-0.0737 0.21592,-0.0747 0.35788,-0.1939 0.39472,-0.32835 0.0369,-0.1344 -0.0338,-0.27667 -0.19593,-0.3923 -0.16234,-0.1137 -0.40276,-0.19549 -0.66863,-0.22426 z" />
    <path
       style="fill:#808080;fill-opacity:1;stroke:none;stroke-width:0.264583px;stroke-linecap:butt;stroke-linejoin:miter;stroke-opacity:1"
       d="m 155.13617,278.50671 7.27366,9.31026 16.29299,-0.025 0.14397,1.19562 -16.78968,0.0676 -6.71672,-8.68579 z"
       id="path5607"
       sodipodi:nodetypes="ccccccc" />
    <path
       style="fill:#333949;fill-opacity:1;stroke:none;stroke-width:0.187669px;stroke-linecap:butt;stroke-linejoin:miter;stroke-opacity:1"
       d="m -5.2294244,285.66253 18.5732084,-9.18342 1.341398,5.88153 -17.8509165,11.86621 z"
       id="path5609" />
    <path
       style="fill:#ffffff;stroke:#000000;stroke-width:0.151113px;stroke-linecap:butt;stroke-linejoin:miter;stroke-opacity:1"
       d="m -4.0124004,285.91331 16.8126274,-8.42642 1.080105,4.73586 -16.4374007,10.79299 z"
       id="path6110"
       sodipodi:nodetypes="ccccc" />
    <g
       id="g5688"
       transform="matrix(0.03790739,0,0,0.03790739,30.100973,257.63738)">
      <path
         d="m -456.391,523.629 -443.512,222.287 38.391,187.361 433.615,-284.716 z m -388.54,381.33 -31.721,-154.024 30.841,-15.839 6.65,32.041 18.577,-10.045 -6.583,-31.572 28.596,-14.687 3.819,18.185 17.298,-9.161 -3.781,-17.927 26.662,-13.694 6.315,29.747 16.099,-8.705 -6.254,-29.342 24.884,-12.78 3.63,16.928 15.064,-7.978 -3.595,-16.705 23.245,-11.938 6.008,27.759 14.085,-7.616 -5.952,-27.406 21.823,-11.208 3.457,15.833 13.238,-7.01 -3.425,-15.639 20.499,-10.528 5.727,26.02 12.426,-6.719 -5.675,-25.709 19.266,-9.896 3.298,14.873 11.726,-6.21 -3.269,-14.7 18.191,-9.342 5.468,24.486 11.045,-5.973 -5.421,-24.21 17.179,-8.823 3.152,14.02 10.457,-5.537 -3.126,-13.868 16.233,-8.337 5.231,23.123 9.881,-5.343 -5.188,-22.877 15.391,-7.905 23.985,105.395 z"
         id="path5680" />
    </g>
  </g>
  <g
     inkscape:groupmode="layer"
     id="layer7"
     inkscape:label="ref" />
  <path
     style="fill:#1e2332;fill-opacity:1;stroke:none;stroke-width:0.264583px;stroke-linecap:butt;stroke-linejoin:miter;stroke-opacity:1"
     d="m 13.822964,253.26679 19.879289,-6.78805 5.212252,24.36425 -18.061061,13.69732 z"
     id="path4361" />
  <path
     style="fill:#657094;fill-opacity:1;stroke:none;stroke-width:0.264583px;stroke-linecap:butt;stroke-linejoin:miter;stroke-opacity:1"
     d="m 18.473447,262.47915 1.454582,-0.48486 2.060658,9.93963 -1.333367,0.60608 z"
     id="path4363" />
  <path
     style="fill:#657094;fill-opacity:1;stroke:none;stroke-width:0.264583px;stroke-linecap:butt;stroke-linejoin:miter;stroke-opacity:1"
     d="m 23.564484,252.05464 0.484861,1.5758 4.484961,-1.81823 -0.266689,-1.38188 z"
     id="path4365"
     sodipodi:nodetypes="ccccc" />
  <path
     style="fill:#677494;fill-opacity:1;stroke:none;stroke-width:0.264583px;stroke-linecap:butt;stroke-linejoin:miter;stroke-opacity:1"
     d="m 17.746156,255.32745 5.212253,23.75818 15.030682,-9.93965 -4.242533,-19.51564 z"
     id="path4367" />
  <path
     style="fill:#4f5a7b;fill-opacity:1;stroke:none;stroke-width:0.264583px;stroke-linecap:butt;stroke-linejoin:miter;stroke-opacity:1"
     d="m 20.146202,256.63656 7.418383,-2.76369 1.333367,5.5759 -7.515341,3.51524 z"
     id="path4369"
     sodipodi:nodetypes="ccccc" />
  <path
     style="fill:#4f5a7b;fill-opacity:1;stroke:none;stroke-width:0.264583px;stroke-linecap:butt;stroke-linejoin:miter;stroke-opacity:1"
     d="m 28.170661,253.26679 1.454583,5.93955 5.115256,-2.594 -0.993942,-5.16377 z"
     id="path4371"
     sodipodi:nodetypes="ccccc" />
  <path
     style="fill:#4f5a7b;fill-opacity:1;stroke:none;stroke-width:0.264583px;stroke-linecap:butt;stroke-linejoin:miter;stroke-opacity:1"
     d="m 21.503827,264.78223 13.333669,-6.78804 1.939443,10.4245 -12.606379,8.24264 z"
     id="path4373" />
  <g
     id="g4384"
     transform="matrix(0.81571166,0,0,0.81571166,35.15047,42.069073)">
    <path
       style="fill:none;stroke:#000000;stroke-width:1;stroke-linecap:round;stroke-linejoin:miter;stroke-miterlimit:4;stroke-dasharray:none;stroke-opacity:1"
       d="m -13.212454,272.61293 2.303088,10.78814"
       id="path4379" />
    <path
       style="fill:#ffffff;stroke:none;stroke-width:0.264583px;stroke-linecap:butt;stroke-linejoin:miter;stroke-opacity:1"
       d="m -10.666935,273.34022 -3.636456,1.21216 0.34894,2.01044 1.322488,-0.098 2.449888,-1.18516 z"
       id="path4375"
       sodipodi:nodetypes="cccccc" />
    <path
       style="fill:#cccccc;stroke:none;stroke-width:0.264583px;stroke-linecap:butt;stroke-linejoin:miter;stroke-opacity:1"
       d="m -10.54572,273.46142 -2.545519,1.4546 0.449358,1.5905 2.424303,-1.09095 z"
       id="path4377"
       sodipodi:nodetypes="ccccc" />
  </g>
  <path
     style="fill:none;stroke:#000000;stroke-width:0.815712;stroke-linecap:round;stroke-linejoin:miter;stroke-miterlimit:4;stroke-dasharray:none;stroke-opacity:1"
     d="m 29.389023,262.2097 1.878656,8.80001"
     id="path4386" />
  <path
     style="fill:#ffffff;stroke:none;stroke-width:0.215823px;stroke-linecap:butt;stroke-linejoin:miter;stroke-opacity:1"
     d="m 32.444261,267.41744 -2.9663,0.98877 0.284634,1.63994 1.07877,-0.0799 1.998402,-0.96674 z"
     id="path4388"
     sodipodi:nodetypes="cccccc" />
  <path
     style="fill:#cccccc;stroke:none;stroke-width:0.215823px;stroke-linecap:butt;stroke-linejoin:miter;stroke-opacity:1"
     d="m 32.543138,267.51631 -2.07641,1.18653 0.366547,1.29739 1.977532,-0.8899 z"
     id="path4390"
     sodipodi:nodetypes="ccccc" />
  <path
     style="fill:none;stroke:#000000;stroke-width:0.815712;stroke-linecap:round;stroke-linejoin:miter;stroke-miterlimit:4;stroke-dasharray:none;stroke-opacity:1"
     d="m 33.027001,260.47527 1.878656,8.80001"
     id="path4394" />
  <path
     style="fill:#ffffff;stroke:none;stroke-width:0.215823px;stroke-linecap:butt;stroke-linejoin:miter;stroke-opacity:1"
     d="m 35.522908,262.74652 -2.966299,0.98877 0.284634,1.63994 1.078769,-0.0799 1.998402,-0.96675 z"
     id="path4396"
     sodipodi:nodetypes="cccccc" />
  <path
     style="fill:#cccccc;stroke:none;stroke-width:0.215823px;stroke-linecap:butt;stroke-linejoin:miter;stroke-opacity:1"
     d="m 35.621785,262.84538 -2.07641,1.18654 0.366547,1.29739 1.977532,-0.8899 z"
     id="path4398"
     sodipodi:nodetypes="ccccc" />
  <g
     id="g4440"
     transform="matrix(0.07124927,-0.03094866,0.03094866,0.07124927,28.446383,243.61461)">
    <path
       id="path4415"
       style="fill:#ffffff;fill-opacity:1;stroke:none;stroke-width:1.3038;stroke-linecap:round;stroke-miterlimit:4;stroke-dasharray:none"
       d="M -123.08248,135.42507 A 35.313327,35.313327 0 0 0 -158.396,170.7386 h 70.627051 a 35.313327,35.313327 0 0 0 -35.313531,-35.31353 z" />
    <path
       style="fill:#000000;stroke:#000000;stroke-width:0.264583px;stroke-linecap:butt;stroke-linejoin:miter;stroke-opacity:1"
       d="m -126.51102,170.3956 18.85666,-22.97084 -15.42818,22.62799 z"
       id="path4418" />
    <path
       id="path4420"
       style="fill:#b3b3b3;fill-opacity:1;stroke:none;stroke-width:0.215195;stroke-linecap:round;stroke-miterlimit:4;stroke-dasharray:none"
       d="m -123.08248,164.91003 a 5.8285434,5.8285434 0 0 0 -5.82857,5.82857 h 11.65715 a 5.8285434,5.8285434 0 0 0 -5.82858,-5.82857 z" />
    <path
       style="fill:none;stroke:#000000;stroke-width:0.5;stroke-linecap:round;stroke-linejoin:miter;stroke-miterlimit:4;stroke-dasharray:none;stroke-opacity:1"
       d="m -156.68167,162.16724 8.22836,1.02854"
       id="path4422" />
    <path
       style="fill:none;stroke:#000000;stroke-width:0.5;stroke-linecap:round;stroke-linejoin:miter;stroke-miterlimit:4;stroke-dasharray:none;stroke-opacity:1"
       d="m -124.79678,135.76792 v 8.91406"
       id="path4424" />
    <path
       style="fill:none;stroke:#000000;stroke-width:0.5;stroke-linecap:round;stroke-linejoin:miter;stroke-miterlimit:4;stroke-dasharray:none;stroke-opacity:1"
       d="m -89.826252,160.11015 -7.199813,4.11418"
       id="path4426" />
    <path
       style="fill:none;stroke:#000000;stroke-width:0.5;stroke-linecap:round;stroke-linejoin:miter;stroke-miterlimit:4;stroke-dasharray:none;stroke-opacity:1"
       d="m -146.39622,144.33913 5.48557,5.48557"
       id="path4428" />
    <path
       style="fill:none;stroke:#000000;stroke-width:0.5;stroke-linecap:round;stroke-linejoin:miter;stroke-miterlimit:4;stroke-dasharray:none;stroke-opacity:1"
       d="m -98.397458,145.71052 -6.171272,6.51412"
       id="path4430" />
  </g>
  <g
     id="g4476"
     transform="matrix(0.7215389,0,0,0.7215389,10.67803,69.796618)">
    <path
       id="path4442"
       style="fill:#ffffff;fill-opacity:1;stroke:none;stroke-width:0.0919428;stroke-linecap:round;stroke-miterlimit:4;stroke-dasharray:none"
       d="m 28.576403,255.90763 a 2.4902632,2.4902632 0 0 0 -1.291952,3.27625 l 4.568203,-1.9843 a 2.4902632,2.4902632 0 0 0 -3.276251,-1.29195 z" />
    <path
       style="fill:#000000;stroke:#000000;stroke-width:0.0186581px;stroke-linecap:butt;stroke-linejoin:miter;stroke-opacity:1"
       d="m 29.697338,258.32584 -1.436011,-1.52647 1.443033,1.28359 z"
       id="path4444" />
    <path
       id="path4446"
       style="fill:#b3b3b3;fill-opacity:1;stroke:none;stroke-width:0.0151754;stroke-linecap:round;stroke-miterlimit:4;stroke-dasharray:none"
       d="m 29.404796,257.81473 a 0.4110235,0.4110235 0 0 0 -0.213239,0.54076 l 0.753992,-0.32752 a 0.4110235,0.4110235 0 0 0 -0.540753,-0.21324 z" />
    <path
       style="fill:none;stroke:#000000;stroke-width:0.0352595;stroke-linecap:round;stroke-linejoin:miter;stroke-miterlimit:4;stroke-dasharray:none;stroke-opacity:1"
       d="m 27.154519,258.58131 0.561113,-0.16465"
       id="path4448" />
    <path
       style="fill:none;stroke:#000000;stroke-width:0.0352595;stroke-linecap:round;stroke-linejoin:miter;stroke-miterlimit:4;stroke-dasharray:none;stroke-opacity:1"
       d="m 28.475154,255.97797 0.250444,0.57656"
       id="path4450" />
    <path
       style="fill:none;stroke:#000000;stroke-width:0.0352595;stroke-linecap:round;stroke-linejoin:miter;stroke-miterlimit:4;stroke-dasharray:none;stroke-opacity:1"
       d="m 31.420976,256.56993 -0.350099,0.46839"
       id="path4452" />
    <path
       style="fill:none;stroke:#000000;stroke-width:0.0352595;stroke-linecap:round;stroke-linejoin:miter;stroke-miterlimit:4;stroke-dasharray:none;stroke-opacity:1"
       d="m 27.3189,257.1392 0.508929,0.2007"
       id="path4454" />
    <path
       style="fill:none;stroke:#000000;stroke-width:0.0352595;stroke-linecap:round;stroke-linejoin:miter;stroke-miterlimit:4;stroke-dasharray:none;stroke-opacity:1"
       d="m 30.462021,255.87936 -0.216145,0.59472"
       id="path4456" />
  </g>
  <path
     style="fill:#21242c;fill-opacity:1;stroke:none;stroke-width:0.26458300000000001px;stroke-linecap:butt;stroke-linejoin:miter;stroke-opacity:1"
     d="m 198.61663,254.52964 -6.85422,35.65948 30.96491,23.49406 8.99939,-46.87746 z"
     id="path4478"
     inkscape:export-xdpi="96"
     inkscape:export-ydpi="96"
     sodipodi:nodetypes="ccccc" />
  <path
     style="fill:#565b6f;fill-opacity:1;stroke:none;stroke-width:0.264583px;stroke-linecap:butt;stroke-linejoin:miter;stroke-opacity:1"
     d="m 207.65271,260.72272 -0.85962,3.76879 7.6916,3.59976 1.27832,-4.08462 z"
     id="path4482"
     sodipodi:nodetypes="ccccc" />
  <path
     style="fill:#717d98;fill-opacity:1;stroke:none;stroke-width:0.264583px;stroke-linecap:butt;stroke-linejoin:miter;stroke-opacity:1"
     d="m 199.68921,259.44441 -5.74493,27.59313 25.97675,18.03547 7.40524,-34.35894 z"
     id="path4480"
     sodipodi:nodetypes="ccccc" />
  <path
     style="fill:#383c4a;stroke:none;stroke-width:0.26458300000000001px;stroke-linecap:butt;stroke-linejoin:miter;stroke-opacity:1;fill-opacity:1"
     d="m 224.24807,279.27977 2.66674,0.96972 -3.1516,15.03067 -2.66673,-1.45458 z"
     id="path4484" />
  <path
     style="fill:#60667c;fill-opacity:1;stroke:none;stroke-width:0.26458300000000001px;stroke-linecap:butt;stroke-linejoin:miter;stroke-opacity:1"
     d="m 198.5456,268.06748 2.66674,0.96972 -2.12295,10.19601 -2.66673,-1.45458 z"
     id="path6505"
     sodipodi:nodetypes="ccccc" />
  <path
     style="fill:#000000;fill-opacity:1;stroke:none;stroke-width:0.286633px;stroke-linecap:butt;stroke-linejoin:miter;stroke-opacity:1"
     d="m 200.67906,262.14045 -5.66417,24.31124 22.63258,15.15405 6.66874,-29.14156 z"
     id="path4867"
     sodipodi:nodetypes="ccccc" />
  <path
     style="fill:#294c22;fill-opacity:1;stroke:none;stroke-width:0.264583px;stroke-linecap:butt;stroke-linejoin:miter;stroke-opacity:1"
     d="m 201.28336,263.49232 -5.15721,22.57549 20.70945,13.67173 6.26649,-26.42492 z"
     id="path4490"
     sodipodi:nodetypes="ccccc" />
  <path
     style="fill:none;stroke:#52ac3a;stroke-width:0.264583px;stroke-linecap:butt;stroke-linejoin:miter;stroke-opacity:1"
     d="m 198.12441,278.78986 4.0625,-9.69218 -1.45458,7.75777 2.4243,-3.15159 -0.72729,4.12131 5.09104,-9.69719 -2.49027,20.33474 3.21756,-13.5467 -0.24243,5.09104 1.93944,-4.36375 -1.69701,10.66694 6.06076,-14.06096 -2.4243,14.78825 2.90916,-6.06076 v 6.06076 l 2.90916,-7.27292 v 12.36395 l 3.39403,-4.60618"
     id="path4494"
     sodipodi:nodetypes="cccccccccccccccccc" />
</svg>
