<?xml version="1.0" encoding="UTF-8" standalone="no"?>
<svg
   xmlns:dc="http://purl.org/dc/elements/1.1/"
   xmlns:cc="http://creativecommons.org/ns#"
   xmlns:rdf="http://www.w3.org/1999/02/22-rdf-syntax-ns#"
   xmlns:svg="http://www.w3.org/2000/svg"
   xmlns="http://www.w3.org/2000/svg"
   xmlns:xlink="http://www.w3.org/1999/xlink"
   xmlns:sodipodi="http://sodipodi.sourceforge.net/DTD/sodipodi-0.dtd"
   xmlns:inkscape="http://www.inkscape.org/namespaces/inkscape"
   height="400"
   viewBox="0 0 400.00001 399.99999"
   width="400"
   version="1.1"
   id="svg1088"
   sodipodi:docname="gulu.svg"
   inkscape:version="1.0.1 (c497b03c, 2020-09-10)">
  <metadata
     id="metadata1094">
    <rdf:RDF>
      <cc:Work
         rdf:about="">
        <dc:format>image/svg+xml</dc:format>
        <dc:type
           rdf:resource="http://purl.org/dc/dcmitype/StillImage" />
      </cc:Work>
    </rdf:RDF>
  </metadata>
  <defs
     id="defs1092" />
  <sodipodi:namedview
     pagecolor="#ffffff"
     bordercolor="#666666"
     borderopacity="1"
     objecttolerance="10"
     gridtolerance="10"
     guidetolerance="10"
     inkscape:pageopacity="0"
     inkscape:pageshadow="2"
     inkscape:window-width="1656"
     inkscape:window-height="824"
     id="namedview1090"
     showgrid="false"
     inkscape:zoom="2.6874603"
     inkscape:cx="310.78036"
     inkscape:cy="43.418663"
     inkscape:window-x="0"
     inkscape:window-y="23"
     inkscape:window-maximized="0"
     inkscape:current-layer="svg1088"
     inkscape:document-rotation="0" />
  <radialGradient
     id="a"
     cx="-198.0482"
     cy="106.1275"
     gradientTransform="matrix(0.63550031,-0.09603346,-0.09603346,-0.63550031,342.54509,183.50577)"
     gradientUnits="userSpaceOnUse"
     r="80.729103">
    <stop
       offset="0"
       stop-color="#ccc"
       stop-opacity="0"
       id="stop833" />
    <stop
       offset=".6112"
       stop-color="#ccc"
       stop-opacity=".014151"
       id="stop835" />
    <stop
       offset=".8843"
       stop-color="#ccc"
       stop-opacity=".2217"
       id="stop837" />
    <stop
       offset="1"
       stop-color="#ccc"
       stop-opacity=".5283"
       id="stop839" />
  </radialGradient>
  <linearGradient
     id="b"
     gradientTransform="matrix(0.63550031,-0.09603346,-0.09603346,-0.63550031,392.45017,314.79107)"
     gradientUnits="userSpaceOnUse"
     x1="-316.00409"
     x2="-259.34729"
     y1="287.24179"
     y2="318.73651">
    <stop
       offset="0"
       stop-color="#fff"
       stop-opacity=".3915"
       id="stop842" />
    <stop
       offset="1"
       stop-color="#333"
       stop-opacity="0"
       id="stop844" />
  </linearGradient>
  <linearGradient
     id="c">
    <stop
       offset="0"
       stop-color="#fff"
       id="stop847" />
    <stop
       offset="1"
       stop-color="#fff"
       stop-opacity="0"
       id="stop849" />
  </linearGradient>
  <linearGradient
     id="d"
     gradientTransform="matrix(0.63550031,-0.09603346,-0.09603346,-0.63550031,394.3932,313.95829)"
     gradientUnits="userSpaceOnUse"
     x1="-318.233"
     x2="-307.23779"
     xlink:href="#c"
     y1="341.552"
     y2="340.6821" />
  <linearGradient
     id="e"
     gradientTransform="matrix(0.64206704,-0.02875536,-0.02875536,-0.64206704,371.27159,316.29298)"
     gradientUnits="userSpaceOnUse"
     x1="-308.25369"
     x2="-300.27731"
     xlink:href="#c"
     y1="246.0191"
     y2="252.10851" />
  <path
     d="m 318.63132,106.66944 c -1.37764,1.25426 -4.60583,0.74022 -6.8265,-0.53461 -2.24124,-1.27483 -7.50505,-5.61336 -10.17807,-8.286391 -2.67303,-2.67303 -0.67854,-2.302918 -1.95337,-4.54415 -1.27484,-2.241231 -0.49349,-4.276846 0.24673,-5.01707 0.74023,-0.740222 4.42079,-1.953364 6.66202,-0.678539 2.24123,1.274831 1.29539,-0.431794 3.96842,2.241235 2.67303,2.673027 6.49751,7.792909 7.77234,10.013578 1.23371,2.241227 1.35708,5.818977 0.30843,6.805947 z"
     fill="#e6e6e6"
     stroke-width="0.205618"
     id="path856" />
  <path
     d="m 324.14188,84.154307 c -0.78135,-0.452362 -0.28786,-1.99449 0.2673,-4.174039 0.55516,-2.179548 1.25427,-3.557186 2.87865,-6.41527 1.62437,-2.858083 5.28437,-6.004033 6.84707,-7.566729 1.56269,-1.583253 3.53662,-1.603817 4.31796,-1.151459 0.78135,0.452361 2.01506,1.583258 1.45989,3.742243 -0.55516,2.179544 -2.11786,5.387182 -3.72169,8.245265 -1.62438,2.858084 -2.98144,5.592801 -4.54414,7.176055 -1.56269,1.583254 -6.72369,0.59629 -7.50504,0.143934 z"
     fill="#e6e6e6"
     stroke-width="0.205618"
     id="path858" />
  <path
     d="m 331.09176,78.211956 c 0.92527,1.562696 1.31595,6.41527 -2.36461,7.340551 -3.68056,0.925276 -10.50707,0.59629 -16.03817,0.185054 -11.0828,-0.843032 -21.15806,-2.714152 -21.01413,-6.353583 0.14394,-3.639431 9.86965,-7.998528 20.93187,-7.155492 5.53112,0.411231 6.33303,-0.123375 9.91078,1.357075 3.57774,1.43932 6.3947,0.925275 8.57426,4.626395 z"
     fill="#e6e6e6"
     stroke-width="0.205618"
     id="path860" />
  <path
     d="m 310.07763,100.48034 c -1.83,1.02809 -7.77234,-1.665499 -11.14447,-4.873132 -3.37213,-3.207637 -7.50505,-5.983475 -10.8155,-11.905263 -3.31043,-5.921788 -2.2001,-12.686606 -3.16651,-17.251314 -0.9664,-4.564714 -0.63741,-7.895721 1.19259,-8.903247 1.83,-1.028089 4.832,0.452362 8.20413,3.659995 3.37215,3.207637 7.11439,8.163018 10.40426,14.105368 3.31045,5.921789 -13.8175,-43.837678 6.18909,14.886718 1.52157,4.400217 0.96641,9.25279 -0.86359,10.280875 z"
     fill="#e6e6e6"
     stroke-width="0.205618"
     id="path862" />
  <path
     d="m 333.90871,62.564454 c 1.04865,-1.19258 3.04314,-2.858084 5.14045,-2.405728 2.09729,0.452363 6.35358,2.467415 8.51256,4.359097 2.15899,1.891683 3.68056,4.07123 4.42078,6.106842 0.74023,2.015052 0.76078,3.084266 -0.28787,4.276846 -1.04864,1.192585 -3.7628,0.760785 -5.5928,-0.390675 -3.02257,-1.891681 -2.94032,-1.850556 -5.88066,-2.652462 -2.77584,-0.740228 -6.62089,-2.590784 -7.34054,-4.605838 -0.71967,-2.035615 0,-3.516061 1.02808,-4.688082 z"
     fill="#333230"
     stroke-width="0.205618"
     id="path864" />
  <path
     d="m 321.63334,102.22809 c 0.94584,1.25427 2.17955,3.57775 1.29539,5.53112 -0.88416,1.95337 -3.72168,5.71617 -6.02459,7.44336 -2.28236,1.72718 -4.74978,2.77583 -6.86764,3.0637 -2.11786,0.30842 -3.18707,0.10281 -4.13291,-1.15146 -0.94584,-1.25427 0.0411,-3.84505 1.52158,-5.38718 2.48797,-2.57022 2.40571,-2.48797 3.80392,-5.20213 1.29538,-2.54966 3.88616,-5.94235 6.02459,-6.25077 2.11786,-0.30843 3.43382,0.67853 4.37966,1.95336 z"
     fill="#333230"
     stroke-width="0.205618"
     id="path866" />
  <path
     d="m 288.30273,54.236944 c 2.2001,1.357075 0.84303,12.830539 -4.05067,20.705692 -2.44685,3.947861 -3.12539,5.613359 -5.42831,7.751782 -2.32348,2.138424 -7.48448,3.865615 -8.59482,3.187075 -1.11033,-0.678535 -2.71414,-4.832011 -1.83,-7.875152 0.88416,-3.02258 3.41326,-6.579766 5.8601,-10.527626 4.8937,-7.875154 11.86415,-14.598852 14.0437,-13.241771 z"
     fill="#e6e6e6"
     stroke-width="0.205618"
     id="path868" />
  <path
     d="m 282.07251,44.860778 17.99154,-9.972456 26.42186,29.053769 -16.5522,12.254812 z"
     fill="#999999"
     stroke-width="0.205618"
     id="path870" />
  <path
     d="m 300.06405,34.888322 5.44886,-2.487972 25.12648,25.496583 -4.15348,6.065721 z"
     fill="#666666"
     stroke-width="0.205618"
     id="path872" />
  <path
     d="m 279.50229,60.302659 c 0,0 7.54616,-2.15898 10.87717,-4.215158 3.41325,-2.097299 8.65651,-7.875158 8.65651,-7.875158 0,0 9.41728,7.875158 14.55773,14.681102 4.42076,5.8601 4.25627,10.507057 4.25627,10.507057 0,0 -5.81897,6.703136 -10.77436,9.869649 -4.25629,2.693587 -10.71268,6.620886 -10.71268,6.620886 0,0 -4.66752,1.912245 -9.93132,-5.921789 -4.58527,-6.826501 -6.92932,-23.666589 -6.92932,-23.666589 z"
     fill="#ffffff"
     fill-opacity="0.9764"
     stroke-width="0.205618"
     id="path874" />
  <path
     d="m 323.89513,82.077566 -0.0822,-0.06168 -0.0822,-0.06169 -0.0617,0.06169 -0.0616,0.06168 h 0.16451 z"
     fill="#f2f2f2"
     stroke-width="0.205618"
     id="path876" />
  <path
     d="m 324.20356,82.098128 c -0.0411,0 -0.10275,0 -0.14394,0 -0.0411,0 -0.10275,0 -0.14392,-0.02056 l 0.0822,0.0617 0.0822,0.06168 0.0616,-0.04113 z"
     fill="#f2f2f2"
     stroke-width="0.205618"
     id="path878" />
  <path
     d="m 298.25462,42.763479 -0.16449,-1.3982 c -2.2618,8.450885 -10.69212,14.82503 -19.43087,15.051207 -1.39821,0.02056 -2.87864,0.04113 -4.25629,-0.226177 l 1.21314,0.925281 4.11237,3.74224 c 0,0 7.95739,-2.59078 11.26783,-4.626396 3.31045,-2.035615 8.59482,-7.546167 8.59482,-7.546167 z"
     fill="#f2f2f2"
     stroke-width="0.205618"
     id="path880" />
  <g
     transform="matrix(0.09358217,-0.01413997,0.01413997,0.09358217,221.52086,-51.677472)"
     id="g904">
    <g
       transform="translate(-142.66777,53.935377)"
       id="g900">
      <path
         d="m 846.3,1292.2 c 0,0 -35.6,10.8 -49.1,21.3 -8.5,6.6 -23.5,28.8 -23.5,28.8 l -1.7,-105.8 71.2,43.3 z"
         fill="#cccccc"
         id="path882" />
      <path
         d="m 585.4,1263.4 110.2,-41.5 110.2,-41.5 24.7,65.6 12.7,33.8 c 0,0 -37.4,14.9 -55.8,28 -15.9,11.4 -13.7,34.4 -13.7,34.4 l -138.9,52.3 c 0,0 -20.1,-21.1 -25.4,-30.2 -10.9,-18.6 -15.6,-34.4 -20.8,-55.3 -3.8,-15.2 -3.2,-45.6 -3.2,-45.6 z"
         fill="#999999"
         id="path884" />
      <g
         fill-opacity="0.9198"
         id="g898">
        <path
           d="m 637.59998,1260.5 h 6.6 v 113.9 h -6.6 z"
           fill="#800000"
           transform="matrix(-0.9358,0.3524,-0.3524,-0.9358,1704.9298,2324.4019)"
           id="path886" />
        <path
           d="m 642.7,1267 17.4,-6.6 31.6,-11.4 c 0,0 3,8.4 0.6,16.7 -2.4,8.3 -11.4,15.2 -11.2,19.7 0.5,9.1 6.6,17.3 6.6,17.3 l 17.4,46.1 -27.7,10.4 -17.4,-46.1 z"
           fill="#800000"
           id="path888" />
        <path
           d="m 676.29999,1346.4 h 25.6 v 4.6 h -25.6 z"
           fill="#ffffff"
           transform="matrix(-0.9358,0.3524,-0.3524,-0.9358,1809.1527,2368.0398)"
           id="path890" />
        <path
           d="m 662.5,1310.2 h 25.6 v 3.9 h -25.6 z"
           fill="#ffffff"
           transform="matrix(-0.9358,0.3524,-0.3524,-0.9358,1769.5819,2302.0601)"
           id="path892" />
        <path
           d="m 645.79999,1261.8 h 43.4 v 4.6 h -43.4 z"
           fill="#ffffff"
           transform="matrix(-0.9358,0.3524,-0.3524,-0.9358,1737.723,2211.9128)"
           id="path894" />
        <path
           d="m 805.8,1180.4 20.2,6.7 28.4,76.6 -8.2,28.2 z"
           fill="#cccccc"
           id="path896" />
      </g>
    </g>
    <path
       d="m 463.4,1409.3 28.8,39.1 -21.3,2.1 -15.3,-22.3 z"
       fill="#999999"
       id="path902" />
  </g>
  <path
     d="m 284.39599,75.456681 -0.92527,3.516061 c 0,0 -0.30843,0.80191 -0.74024,2.7964 -0.41122,2.549661 -0.43179,2.714151 -0.47292,4.194596 -0.0411,1.480451 0,2.467415 0.41124,3.454379 0.61685,1.336512 1.99449,2.54966 1.99449,2.54966 0,0 1.54213,0.71966 1.97394,0.760786 1.48043,0.102809 3.0637,-0.616853 3.49549,-1.27483 0.6991,-0.945845 0.98696,-1.83 1.41877,-2.344045 l -0.78135,-0.514039 c -0.32899,1.151454 -1.33651,3.14595 -2.15899,3.289878 -0.96641,0.185057 -1.87111,0.472923 -3.12538,-0.185054 -1.04867,-0.55517 -1.54214,-1.110334 -2.28237,-2.405726 -0.84303,-1.27483 -0.41122,-4.359093 0.329,-7.648975 1.19258,-3.413254 2.59078,-4.317971 2.59078,-4.317971 z"
     fill="#800000"
     stroke-width="0.205618"
     id="path906" />
  <path
     d="m 282.03138,67.787143 c 0,0 -3.78336,-0.328992 -4.50303,-0.637415 -0.37011,-0.164496 -0.9047,-0.328986 -1.39819,-0.781348 -0.49348,-0.452357 -1.04865,-1.747749 -1.15146,-2.385164 l -0.10275,-0.616852 c 0,0 -0.18506,-1.932808 -0.1645,-2.487973 0.0206,-0.699102 0.24674,-2.426289 0.22618,-5.078756 -0.0206,-2.631906 0.71967,-4.544151 1.11034,-5.716168 0.39068,-1.192584 2.17954,-0.514043 2.17954,-0.514043 0,0 -0.53459,0.267302 -1.04864,1.850556 -0.51405,1.583254 -1.78887,4.29741 -1.74776,5.798417 -0.20562,2.138424 -0.2673,3.803928 -0.22617,4.482463 0.0206,0.596295 0.28785,2.076741 0.5346,2.837526 0.18506,0.59629 0.47292,1.336513 1.35708,1.747749 0.65798,0.308424 3.0637,0.452356 3.41325,0.370111 0.20562,-0.04113 0.41124,-0.04113 0.67854,-0.08225 0.26731,-0.06169 0.59629,-0.164495 0.61685,-0.02056 0.0617,0.328987 0.22617,1.233704 0.22617,1.233704 z"
     fill="#800000"
     stroke-width="0.205618"
     id="path908" />
  <circle
     cx="294.80026"
     cy="77.060486"
     fill="#4d4d4d"
     r="2.282356"
     stroke-width="0.205618"
     id="circle910" />
  <circle
     cx="297.74057"
     cy="81.851379"
     fill="#808080"
     r="2.282356"
     stroke-width="0.205618"
     id="circle912" />
  <path
     d="m 315.15638,40.193257 -3.57775,1.912245 -4.68807,-5.22269 3.43382,-1.542129 z"
     fill="#800000"
     stroke-width="0.205618"
     id="path914" />
  <path
     d="m 311.57863,42.126064 -0.57573,1.562691 -4.23572,-4.4619 0.12345,-2.32348 z"
     fill="#2b0000"
     stroke-width="0.205618"
     id="path916" />
  <path
     d="m 315.15638,40.193257 -0.28786,1.562696 -3.84505,1.912245 0.57573,-1.562696 z"
     fill="#1a1a1a"
     stroke-width="0.205618"
     id="path918" />
  <path
     d="m 313.44976,41.982131 c -0.0206,0.370112 -0.0411,0.205616 0,1.850557 0.0411,2.508535 0.24674,5.675047 -0.53461,8.779871 -0.78135,3.084267 -1.91225,7.834034 -3.47493,10.383693 -1.5627,2.54966 -3.90674,6.744257 -4.85258,7.772345 -0.94584,1.048651 -1.43932,1.95337 -1.43932,1.95337 l 0.57573,0.534603 c 0,0 1.00753,-1.439322 1.35707,-1.891683 0.329,-0.452356 1.62438,-2.282351 1.89168,-2.878646 0.2673,-0.59629 1.5627,-2.755276 1.70664,-3.14595 0.14392,-0.390674 1.68606,-2.220669 1.82998,-2.940329 0.14394,-0.719664 1.37764,-3.351569 1.37764,-3.351569 0,0 0.82248,-2.097299 0.84303,-2.755277 0.0206,-0.657977 0.76079,-2.631905 0.78135,-3.228195 0,-0.59629 0.45237,-3.680556 0.47292,-4.215163 0,-0.534602 0.0411,-2.385165 0.0616,-3.228195 0.0206,-0.863594 0.0411,-1.973928 0.0411,-2.508535 0,-0.534606 -0.0411,-1.377638 -0.0411,-1.377638 z"
     fill="#550000"
     stroke-width="0.205618"
     id="path920" />
  <circle
     cx="303.92966"
     cy="71.159271"
     fill="#4d4d4d"
     r="2.282356"
     stroke-width="0.205618"
     id="circle922" />
  <path
     d="m 313.44976,41.982131 c 0,0 3.63943,6.620886 3.84505,8.96493 0.20562,2.323477 0.47292,4.996507 0.18505,6.970434 -0.39067,2.693594 -0.98696,4.605838 -1.501,6.620891 -0.51405,2.035615 -4.66753,6.271336 -5.42831,7.073243 -0.92527,0.966406 -2.24124,1.829998 -2.77584,2.344043 -0.53461,0.514045 0.2673,1.973928 0.2673,1.973928 l -0.6991,-0.390674 c 0.53461,-0.637415 3.4955,-3.289882 4.0918,-3.886173 1.04865,-1.048646 1.52157,-1.624378 2.42628,-2.734712 0.37012,-1.213143 2.11787,-2.138424 3.39269,-5.551677 0.32899,-1.562696 0.22618,-1.439325 0.71967,-3.187075 0.41124,-2.097298 0.65797,-3.248758 0.5346,-4.646958 l -0.41123,-4.544151 c -0.0822,-0.925275 -1.91225,-5.181559 -2.20012,-5.8601 -0.28785,-0.67854 -1.89167,-3.557186 -1.89167,-3.557186 z"
     fill="#2b0000"
     stroke-width="0.205618"
     id="path924" />
  <circle
     cx="306.27368"
     cy="75.888474"
     fill="#808080"
     r="2.282356"
     stroke-width="0.205618"
     id="circle926" />
  <path
     d="m 324.71761,56.169746 c -0.28787,1.192585 -1.9945,1.912245 -4.50302,2.11786 -2.50854,0.205621 -5.53113,0.370112 -9.06775,-0.514043 -3.53662,-0.863594 -6.04515,-1.686062 -8.16301,-3.043137 -2.11787,-1.357081 -3.70113,-2.960897 -3.41326,-4.996512 0.2673,-1.829995 1.27483,-2.46741 3.78337,-2.693589 2.50853,-0.205621 7.46391,-0.143932 11.00054,0.740224 3.53662,0.863594 6.76481,2.42629 8.90324,3.783365 2.13843,1.357075 1.74775,3.413252 1.45989,4.605832 z"
     fill="#e6e6e6"
     stroke-width="0.205618"
     id="path928" />
  <path
     d="m 324.94378,53.825706 c 1.06921,1.357076 -1.74775,5.901226 -5.77786,9.067739 -4.0301,3.187069 -8.16302,4.646957 -9.23221,3.289882 -1.06923,-1.357081 -0.0411,-5.366623 3.98897,-8.533136 4.0301,-3.166506 9.9519,-5.18156 11.0211,-3.824485 z"
     fill="#e6e6e6"
     stroke-width="0.205618"
     id="path930" />
  <path
     d="m 276.17129,82.242062 c 0.14393,1.007526 -0.65799,2.158986 -2.46742,3.104824 -1.80943,0.945843 -3.47494,1.254267 -6.37415,1.686067 -2.91976,0.431799 -7.19661,0.822468 -9.1911,0.452356 -1.99449,-0.370111 -2.89921,-1.028084 -3.0637,-2.056172 -0.16449,-1.028089 0,-2.816964 1.74775,-3.70112 1.74775,-0.884156 7.6284,-3.26932 10.11638,-4.852574 4.58528,-2.878646 4.93482,-2.529097 7.01157,-2.220673 2.05617,0.328991 2.07673,6.579766 2.22067,7.587292 z"
     fill="#e6e6e6"
     stroke-width="0.205618"
     id="path932" />
  <path
     d="m 318.28176,70.398486 c 0.90473,0.945844 1.8917,2.220669 1.64495,2.734713 -0.32898,0.760786 -1.21314,2.158986 -1.91225,2.837527 -2.91976,2.775837 -5.14043,4.400216 -8.75931,7.422796 -3.61886,3.022578 -7.99851,5.489989 -10.44537,7.422796 -3.86561,3.063704 -3.26932,2.097298 -4.85257,0.226178 -2.54966,-2.138424 -1.37764,-1.583253 1.62438,-3.86561 2.75527,-2.117861 2.38516,-1.891683 8.96492,-6.888189 5.46944,-4.153476 8.3892,-7.032127 10.42482,-9.376166 1.21314,-1.398201 1.5627,-2.385165 1.78887,-2.42629 0.22618,-0.04113 0.32899,0.863594 1.52156,1.912245 z"
     fill="#cccccc"
     stroke-width="0.205618"
     id="path934" />
  <g
     fill="#8c1c1c"
     transform="matrix(0.02267185,-0.01063273,0.01063273,0.02267185,199.11888,7.9420698)"
     id="g940">
    <path
       d="m 2859.4,3529.7 c -1.9,-1.5 -4.4,-1.9 -6.6,-0.9 l -105.4,45.6 c -4.6,2 -10.3,3 -16.2,3 -8.2,0 -16.7,-1.9 -22.6,-4.5 -2.1,-0.9 -3.9,-1.9 -5.1,-2.8 0.5,-0.2 1,-0.5 1.6,-0.7 l 95.9,-41.5 14.3,6.1 v -17.9 c 0,-2.7 -1.1,-5.2 -3.1,-6.7 -1.9,-1.5 -4.4,-1.9 -6.6,-0.9 l -105.5,45.6 c -3.2,1.3 -6,2.9 -8.4,5.3 -2.3,2.3 -4.3,6 -4.3,10.2 v 0.3 160.7 0.2 0.1 0.2 c 0.2,5.7 3.1,9.3 5.8,11.7 8.5,7.5 22.8,11.7 38,12 7.2,0 14.5,-1.1 21.3,-4 l 105.4,-45.7 c 2.8,-1.1 4.6,-4.2 4.6,-7.5 v -161.3 c 0,-2.6 -1.2,-5.1 -3.1,-6.6 z"
       id="path936" />
    <path
       d="m 2792.6,3499.1 c -0.2,-2.4 -1.2,-4.7 -3,-6.1 -1.9,-1.5 -4.4,-1.9 -6.6,-0.9 l -105.4,45.6 c -4.6,2 -10.3,3 -16.2,3 -8.2,0 -16.7,-1.9 -22.6,-4.5 -2.1,-0.9 -3.9,-1.9 -5.1,-2.8 0.5,-0.2 1,-0.5 1.6,-0.7 l 95.9,-41.5 14.3,6.1 v -17.9 c 0,-2.7 -1.2,-5.2 -3.1,-6.7 -1.9,-1.5 -4.4,-1.9 -6.6,-0.9 l -105.4,45.6 c -3.2,1.3 -6,2.9 -8.4,5.3 -2.3,2.3 -4.3,6 -4.3,10.2 v 0.3 160.7 0.2 0.2 0.2 c 0.2,5.7 3.1,9.3 5.8,11.7 8.5,7.5 22.8,11.6 38,12 4.1,0 8.2,-0.5 12.3,-1.3 v -147 c -0.1,-7.6 2.9,-15 8.3,-20.2 3.5,-3.4 7.7,-6.2 13,-8.2 z"
       id="path938" />
  </g>
  <g
     transform="matrix(0.51664841,0,0,0.51664841,168.82604,-38.635381)"
     id="g1086">
    <g
       transform="matrix(0.32962605,-0.17400514,0.17400514,0.32962605,-46.697791,-86.772659)"
       id="g1070">
      <circle
         cx="234.17659"
         cy="875.69238"
         fill="#333230"
         r="26.700001"
         id="circle998" />
      <circle
         cx="234.17659"
         cy="875.69238"
         fill="#f3e6e6"
         r="15.8"
         id="circle1000" />
      <circle
         cx="417.30716"
         cy="873.94385"
         fill="#333230"
         r="26.700001"
         id="circle1002" />
      <circle
         cx="417.30716"
         cy="873.94385"
         fill="#f3e6e6"
         r="15.8"
         id="circle1004" />
      <path
         d="m 324.5,819.3 c 2.8,-5.9 -4,-12.9 -7.9,-18.1 -2.9,-3.9 -6.9,-6.8 -11,-9 -5.5,-2.9 -15.8,-9.6 -17.6,-5.2 6.8,3.9 9.4,6.6 13.2,11 3.2,3.5 6,7.5 7.9,11.9 1.7,3.7 -0.1,9.7 3.1,11.9 3.5,2.3 10.4,1.6 12.3,-2.5 z"
         fill="#333230"
         stroke="#000000"
         stroke-miterlimit="10.6192"
         stroke-width="0.3004"
         id="path1006" />
      <path
         d="m 321.3,839 c -8.7,-2.6 -5.6,-15 -4.9,-23.2 0.5,-6.1 3.2,-12.3 6.7,-18 4.6,-7.6 12.4,-22.9 18.5,-20.7 -5.6,9.6 -6.6,14.4 -8,21.7 -1.1,6 -1.5,12 -0.3,17.7 1,4.8 8.3,8.4 6,13.3 -2.6,5.3 -12.2,10.9 -18,9.2 z"
         fill="#333230"
         stroke="#000000"
         stroke-miterlimit="10.6192"
         stroke-width="0.415"
         id="path1008" />
      <path
         d="m 336.2,840.6 c 10.8,-5.6 3.6,-19.8 0.6,-29.4 -2.2,-7.2 -7.4,-14 -13.5,-20 -8.1,-7.9 -22.3,-24.4 -29.9,-20.1 9.9,10.2 12.4,15.7 16.1,24.2 3,6.9 5,14.2 4.9,21.4 -0.1,6.1 -8.9,12.5 -4.6,17.8 4.9,5.7 19.1,9.9 26.4,6.1 z"
         fill="#333230"
         stroke="#000000"
         stroke-miterlimit="10.6192"
         stroke-width="0.5383"
         id="path1010" />
      <path
         d="m 353.1,800.7 c -9,-2.5 -18.3,-3.7 -27.7,-3.8 -50.5,0 -91.4,35.5 -91.4,79.3 0,40.3 35,74.2 81.2,78.7 0.6,-0.6 1.1,-1.1 1.7,-1.7 2.2,-2.3 4.4,-4.6 6.6,-7.1 2.2,-2.5 4.3,-5.1 6.5,-7.8 2.1,-2.7 4.2,-5.5 6.2,-8.4 2,-2.9 4,-5.9 5.9,-9.1 1.9,-3.2 3.7,-6.4 5.4,-9.7 1.7,-3.4 3.2,-6.9 4.5,-10.4 1.3,-3.6 2.4,-7.3 3.3,-11.1 0.9,-3.8 1.6,-7.6 2.2,-11.5 0.6,-3.9 1,-7.8 1.2,-11.7 0.3,-3.9 0.4,-7.9 0.4,-11.8 0,-3.9 -0.1,-7.8 -0.3,-11.7 -0.2,-3.9 -0.5,-7.7 -0.9,-11.4 -0.4,-3.7 -0.8,-7.4 -1.3,-11 -1.1,-7.1 -2.3,-13.8 -3.5,-19.8 z"
         fill="#333230"
         id="path1012" />
      <path
         d="m 351.6,800.7 c 1.2,6 2.5,12.7 3.4,19.8 0.5,3.6 0.9,7.2 1.3,11 0.4,3.7 0.7,7.6 0.9,11.4 0.2,3.9 0.3,7.8 0.3,11.7 0,3.9 -0.1,7.9 -0.4,11.8 -0.3,3.9 -0.7,7.9 -1.2,11.7 -0.6,3.9 -1.3,7.7 -2.2,11.5 -0.9,3.8 -2,7.5 -3.3,11.1 -1.3,3.6 -2.8,7.1 -4.5,10.4 -1.7,3.4 -3.5,6.6 -5.4,9.7 -1.9,3.1 -3.8,6.2 -5.9,9.1 -2,2.9 -4.1,5.7 -6.2,8.4 -2.1,2.7 -4.3,5.3 -6.5,7.8 -2.2,2.5 -4.4,4.8 -6.6,7.1 -0.6,0.6 -1.1,1.1 -1.7,1.7 3.4,0.3 6.8,0.5 10.2,0.5 50.5,0 91.4,-35.5 91.4,-79.3 0.1,-34.4 -25.7,-65 -63.6,-75.4 z"
         fill="#0b0b0b"
         id="path1014" />
      <path
         d="m 347.8,869.1 c -7.3,-1.5 -14.9,-2.3 -22.5,-2.3 -44.6,0 -80.8,25.7 -80.8,57.4 0,27.1 26.7,50.5 63.9,56.1 1.5,-1.6 2.9,-3.1 4.4,-4.7 2.2,-2.5 4.3,-5.1 6.5,-7.8 2.1,-2.7 4.2,-5.5 6.2,-8.4 2,-2.9 4,-5.9 5.9,-9.1 1.9,-3.1 3.7,-6.4 5.4,-9.8 1.7,-3.4 3.2,-6.9 4.5,-10.4 1.3,-3.6 2.4,-7.3 3.3,-11.1 0.9,-3.8 1.6,-7.6 2.2,-11.5 0.6,-3.9 1,-7.8 1.2,-11.7 0.3,-3.9 0.4,-7.9 0.4,-11.8 0,-3.9 -0.1,-7.8 -0.3,-11.7 -0.1,-1 -0.2,-2 -0.3,-3.2 z"
         fill="#333230"
         id="path1016" />
      <path
         d="m 347.8,869.1 c 0.1,1.1 0.2,2.2 0.3,3.3 0.2,3.9 0.3,7.8 0.3,11.7 0,3.9 -0.1,7.9 -0.4,11.8 -0.3,3.9 -0.7,7.9 -1.2,11.7 -0.6,3.9 -1.3,7.7 -2.2,11.5 -0.9,3.8 -2,7.5 -3.3,11.1 -1.3,3.6 -2.8,7.1 -4.5,10.4 -1.7,3.4 -3.5,6.6 -5.4,9.8 -1.9,3.1 -3.8,6.2 -5.9,9.1 -2,2.9 -4.1,5.7 -6.2,8.4 -2.1,2.7 -4.3,5.3 -6.5,7.8 -1.5,1.7 -2.9,3.2 -4.4,4.7 5.6,0.9 11.2,1.3 16.9,1.3 44.6,0 80.8,-25.7 80.8,-57.4 0.1,-25.6 -23.7,-48.1 -58.3,-55.2 z"
         fill="#0b0b0b"
         id="path1018" />
      <circle
         cx="297.70001"
         cy="885.09998"
         fill="#f3e6e6"
         r="36.700001"
         transform="matrix(0.8843,-0.4668,0.4668,0.8843,-378.7591,241.3603)"
         id="circle1020" />
      <path
         d="m 358,846.3 c -1.6,-0.2 -3.3,-0.3 -5,-0.4 -21.6,0 -39.2,17.5 -39.2,39.2 0,16.9 10.9,31.9 27,37.2 0.1,-0.2 0.3,-0.4 0.4,-0.7 1.9,-3.1 3.7,-6.4 5.4,-9.7 1.7,-3.4 3.2,-6.9 4.5,-10.4 1.3,-3.6 2.4,-7.3 3.3,-11.1 0.9,-3.8 1.6,-7.6 2.2,-11.5 0.6,-3.9 1,-7.8 1.2,-11.7 0.3,-3.9 0.4,-7.9 0.4,-11.8 0,-3.1 -0.1,-6.1 -0.2,-9.1 z"
         fill="#f3e6e6"
         id="path1022" />
      <path
         d="m 356.5,846.3 c 0.1,3 0.2,6 0.2,9.1 0,3.9 -0.1,7.9 -0.4,11.8 -0.3,3.9 -0.7,7.9 -1.2,11.7 -0.6,3.9 -1.3,7.7 -2.2,11.5 -0.9,3.8 -2,7.5 -3.3,11.1 -1.3,3.6 -2.8,7.1 -4.5,10.4 -1.7,3.4 -3.5,6.6 -5.4,9.7 -0.1,0.2 -0.3,0.4 -0.4,0.7 3.9,1.3 8,2 12.2,2 21.6,0 39.2,-17.5 39.2,-39.2 0,-19.7 -14.7,-36.3 -34.2,-38.8 z"
         fill="#ecd6d6"
         id="path1024" />
      <path
         d="m 356.7,903.6 c -9.4,-3.4 -20.3,-5.3 -31.3,-5.3 -33.4,0 -60.4,16.1 -60.4,36 0,18.4 23.3,33.8 53.9,35.8 1.8,-1.9 3.6,-3.8 5.4,-5.8 2.2,-2.5 4.3,-5.1 6.5,-7.8 2.1,-2.7 4.2,-5.5 6.2,-8.4 2,-2.9 4,-5.9 5.9,-9.1 1.9,-3.1 3.7,-6.4 5.4,-9.7 1.7,-3.4 3.2,-6.9 4.5,-10.4 1.3,-3.5 2.4,-7.3 3.3,-11.1 0.2,-1.4 0.3,-2.8 0.6,-4.2 z"
         fill="#f3e6e6"
         id="path1026" />
      <path
         d="m 355.2,903.6 c -0.3,1.4 -0.5,2.9 -0.8,4.3 -0.9,3.8 -2,7.5 -3.3,11.1 -1.3,3.6 -2.8,7.1 -4.5,10.4 -1.7,3.4 -3.5,6.6 -5.4,9.7 -1.9,3.1 -3.8,6.2 -5.9,9.1 -2,2.9 -4.1,5.7 -6.2,8.4 -2.1,2.7 -4.3,5.3 -6.5,7.8 -1.8,2 -3.6,3.9 -5.4,5.8 2.2,0.1 4.3,0.2 6.5,0.2 33.4,0 60.4,-16.1 60.4,-36 0.2,-12.7 -10.8,-24.3 -28.9,-30.8 z"
         fill="#ecd6d6"
         id="path1028" />
      <circle
         cx="320.5"
         cy="922.59998"
         fill="#333230"
         r="2.3"
         transform="matrix(0.8843,-0.4668,0.4668,0.8843,-393.6452,256.3129)"
         id="circle1030" />
      <circle
         cx="329.10001"
         cy="922.59998"
         fill="#333230"
         r="2.3"
         transform="matrix(0.8843,-0.4668,0.4668,0.8843,-392.6505,260.3282)"
         id="circle1032" />
      <g
         stroke-miterlimit="10.6192"
         id="g1046">
        <path
           d="m 356.4,927 5.6,-6.3"
           fill="none"
           stroke="#d40000"
           stroke-width="0.416"
           id="path1034" />
        <path
           d="m 360.1,927.6 5.6,-6.3"
           fill="none"
           stroke="#d40000"
           stroke-width="0.416"
           id="path1036" />
        <path
           d="m 363.5,928.2 5.6,-6.3"
           fill="none"
           stroke="#d40000"
           stroke-width="0.416"
           id="path1038" />
        <path
           d="m 274.7,925.8 5.6,-6.3"
           fill="none"
           stroke="#d40000"
           stroke-width="0.416"
           id="path1040" />
        <path
           d="m 278.4,926.4 5.6,-6.3"
           fill="none"
           stroke="#d40000"
           stroke-width="0.416"
           id="path1042" />
        <path
           d="m 281.8,927 5.6,-6.3"
           fill="none"
           stroke="#d40000"
           stroke-width="0.416"
           id="path1044" />
      </g>
      <g
         transform="translate(-83.76363,426.21382)"
         id="g1056">
        <path
           d="m 382.2,506.5 c -0.1,0.8 -0.2,1.7 -0.2,2.5 0,12.3 12.5,22.2 27.8,22.2 15.4,0 27.8,-10 27.8,-22.2 0,-0.8 -0.1,-1.7 -0.2,-2.5 -8.2,2.9 -17.8,4.4 -27.6,4.5 -9.8,0 -19.5,-1.6 -27.6,-4.5 z"
           fill="#333230"
           id="path1048" />
        <path
           d="m 416.5,511.2 c -2,0.2 -4,0.3 -6,0.3 -0.2,0.4 -0.4,0.9 -0.4,1.4 l -0.1,4.4 c 0,1.5 2.3,1.5 4.2,1.3 1.9,-0.2 4.5,-0.9 4,-2.3 l -1.2,-4.1 c -0.2,-0.4 -0.3,-0.7 -0.5,-1 z"
           fill="#ffffff"
           id="path1050" />
        <path
           d="m 401.2,511.3 c -0.3,0.3 -0.5,0.7 -0.6,1.2 l -1.2,4.1 c -0.4,1.5 2.1,2.1 4,2.3 1.9,0.2 4.3,0.2 4.2,-1.3 l -0.1,-4.4 c 0,-0.6 -0.2,-1.1 -0.5,-1.6 -2,0 -3.9,-0.1 -5.8,-0.3 z"
           fill="#ffffff"
           id="path1052" />
        <path
           d="m 408.7,520 c -6.5,0 -12,3.4 -12.8,7.9 4.3,2 9.2,3.1 14.2,3.1 4,0 7.9,-0.7 11.6,-2 -0.1,-5 -5.9,-9 -13,-9 z"
           fill="#d40000"
           id="path1054" />
      </g>
      <circle
         cx="357.01459"
         cy="886.76355"
         fill="#4b423e"
         r="18.895628"
         stroke-width="0.851154"
         id="circle1058" />
      <circle
         cx="354.71649"
         cy="881.82684"
         fill="#ffffff"
         r="4.0004258"
         stroke-width="0.851154"
         id="circle1060" />
      <circle
         cx="349.69467"
         cy="890.76398"
         fill="#ffffff"
         r="1.7023088"
         stroke-width="0.851154"
         id="circle1062" />
      <circle
         cx="334.5"
         cy="648"
         fill="#4b423e"
         r="17.700001"
         transform="matrix(0.85024239,-0.37439651,0.37439651,0.85024239,-228.41463,459.90883)"
         id="circle1064" />
      <circle
         cx="332.10001"
         cy="642.70001"
         fill="#ffffff"
         r="3.7"
         transform="matrix(0.82153558,-0.43366822,0.43366822,0.82153558,-255.23815,496.72259)"
         id="circle1066" />
      <circle
         cx="291.25543"
         cy="889.70312"
         fill="#ffffff"
         r="1.7023088"
         stroke-width="0.851154"
         id="circle1068" />
    </g>
    <ellipse
       cx="162.14273"
       cy="244.81714"
       fill="#333230"
       rx="9.8695097"
       ry="8.5960255"
       stroke-width="0.397964"
       transform="rotate(-2.0673698)"
       id="ellipse1072" />
    <circle
       cx="207.01617"
       cy="134.34929"
       fill="url(#a)"
       r="51.897068"
       stroke-width="0.397984"
       id="circle1074"
       style="fill:url(#a)" />
    <ellipse
       cx="90.370377"
       cy="328.64172"
       fill="#333230"
       rx="10.228503"
       ry="9.1539125"
       stroke-width="0.397996"
       transform="rotate(-38.300104)"
       id="ellipse1076" />
    <g
       stroke-width="0.397984"
       id="g1084">
      <path
         d="m 177.28679,91.924241 c -16.27753,11.262939 -24.67499,30.803939 -21.76971,50.344929 4.17883,27.34148 29.05281,46.60389 56.55348,43.81801 -0.19899,-0.199 -0.43778,-0.43779 -0.63677,-0.67658 -1.39294,-1.55213 -2.74609,-3.18387 -4.09923,-4.8952 -1.35315,-1.71133 -2.66649,-3.54205 -3.97984,-5.45237 -1.31335,-1.91032 -2.58689,-3.90024 -3.82064,-5.96976 -1.23375,-2.06951 -2.4675,-4.21862 -3.62165,-6.44733 -1.15416,-2.22871 -2.30831,-4.49722 -3.38287,-6.80552 -1.07455,-2.34811 -2.10931,-4.69621 -3.10427,-7.12391 -0.99496,-2.4277 -1.91032,-4.8952 -2.82568,-7.4025 -0.63678,-1.75112 -1.23375,-3.54205 -1.79093,-5.33298 -0.79597,-2.54709 -1.55213,-5.09419 -2.22871,-7.64128 -0.67657,-2.5471 -1.31334,-5.13399 -1.87052,-7.68109 -0.55718,-2.54709 -1.03476,-5.13399 -1.47254,-7.64128 -0.43778,-2.5471 -0.79597,-5.0544 -1.07456,-7.56169 -0.27858,-2.5073 -0.51737,-4.935 -0.67657,-7.362699 -0.11939,-2.10932 -0.19899,-4.13903 -0.19899,-6.16875 z"
         fill="url(#b)"
         id="path1078"
         style="fill:url(#b)" />
      <path
         d="m 165.10849,114.45012 c 0,0 -4.21863,3.10427 -4.8554,6.80552 -1.43274,4.49721 -1.87052,9.39241 -1.51234,11.89971 0.35819,2.5073 1.03476,7.12391 1.03476,7.12391 0,0 1.55214,-1.19395 4.09923,-1.27355 2.5471,-0.0796 5.05439,-0.1194 5.05439,-0.1194 0,0 -3.02467,-4.09923 -3.66145,-13.21305 0.1194,-1.95012 2.18891,-8.35766 2.6267,-10.62617 0.39798,-1.98992 -3.02468,-0.23879 -3.02468,-0.23879 z"
         fill="url(#d)"
         id="path1080"
         style="fill:url(#d)" />
      <path
         d="m 164.7901,156.91497 c 0,0 1.27355,5.0544 3.66145,7.56169 2.4277,2.5471 5.33298,6.08915 6.68613,6.24835 1.31334,0.15919 1.75113,-1.39295 1.75113,-1.39295 0,0 -3.90024,-3.38286 -6.84532,-7.08411 -2.98488,-3.70124 -5.25339,-5.33298 -5.25339,-5.33298 z"
         fill="url(#e)"
         id="path1082"
         style="fill:url(#e)" />
    </g>
  </g>
</svg>
