<svg xmlns="http://www.w3.org/2000/svg" version="1.1" x="0" y="0" xml:space="preserve" id="svg2322" width="400" height="400"><defs id="defs2326"><linearGradient id="SVGID_1_" gradientUnits="userSpaceOnUse" x1="-58.875" y1="884.638" x2="1338.772" y2="-222.185"><stop offset="0" style="stop-color:#4D005E" id="stop846"/><stop offset="1" style="stop-color:#200033" id="stop848"/></linearGradient><linearGradient id="SVGID_2_" gradientUnits="userSpaceOnUse" x1="390.515" y1="1452.109" x2="1788.162" y2="345.285"><stop offset="0" style="stop-color:#4D005E" id="stop853"/><stop offset="1" style="stop-color:#200033" id="stop855"/></linearGradient></defs><style type="text/css" id="style833">.st0{display:none;} .st1{display:inline;fill:none;} .st2{display:inline;} .st3{fill:#0073BC;} .st4{font-family:&apos;CeraGR-Black&apos;;} .st5{font-size:55.4641px;} .st6{font-size:134.9627px;} .st7{fill:#200033;} .st8{fill:url(#SVGID_1_);} .st9{fill:url(#SVGID_2_);} .st10{fill:#FFA664;} .st11{fill:#FF7955;} .st12{fill:#FFFFFF;} .st13{fill:#FFE36C;} .st14{fill:#CD55FF;} .st15{fill:#FFF800;} .st16{fill:#99007C;} .st17{fill:url(#SVGID_3_);} .st18{fill:url(#SVGID_4_);} .st19{fill:url(#SVGID_5_);} .st20{fill:url(#SVGID_6_);} .st21{fill:url(#SVGID_7_);} .st22{fill:url(#SVGID_8_);} .st23{fill:url(#SVGID_9_);} .st24{fill:url(#SVGID_10_);} .st25{fill:url(#SVGID_11_);} .st26{fill:url(#SVGID_12_);} .st27{fill:url(#SVGID_13_);} .st28{fill:url(#SVGID_14_);} .st29{fill:url(#SVGID_15_);} .st30{fill:url(#SVGID_16_);} .st31{fill:url(#SVGID_17_);} .st32{fill:url(#SVGID_18_);} .st33{fill:url(#SVGID_19_);} .st34{fill:url(#SVGID_20_);} .st35{fill:#FFB300;} .st36{fill:#FEB200;} .st37{fill:#FEB100;} .st38{fill:#FDB000;} .st39{fill:#FDAF00;} .st40{fill:#FCAE00;} .st41{fill:#FCAD00;} .st42{fill:#FBAC00;} .st43{fill:#FAAB00;} .st44{fill:#FAAA00;} .st45{fill:#F9A900;} .st46{fill:#F9A800;} .st47{fill:#F8A700;} .st48{fill:#F7A600;} .st49{fill:#F7A500;} .st50{fill:#F6A400;} .st51{fill:#F6A300;} .st52{fill:#F5A200;} .st53{fill:#F5A100;} .st54{fill:#F4A000;} .st55{fill:#F39F00;} .st56{fill:#F39E00;} .st57{fill:#F29D00;} .st58{fill:#F29C00;} .st59{fill:#F19B00;} .st60{fill:#F09A00;} .st61{fill:#F09900;} .st62{fill:#EF9800;} .st63{fill:#EF9700;} .st64{fill:#EE9600;} .st65{fill:#EE9500;} .st66{fill:#ED9400;} .st67{fill:#EC9300;} .st68{fill:#EC9200;} .st69{fill:#EB9100;} .st70{fill:#EB9000;} .st71{fill:#EA8F00;} .st72{fill:#EA8E00;} .st73{fill:#E98D00;} .st74{fill:#E88C00;} .st75{fill:#E88B00;} .st76{fill:#E78A00;} .st77{fill:#E78900;} .st78{fill:#E68800;} .st79{fill:#E58700;} .st80{fill:#E58600;} .st81{fill:#E48500;} .st82{fill:#E48400;} .st83{fill:#E38300;} .st84{fill:#E38200;} .st85{fill:#E28100;} .st86{fill:#E18000;} .st87{fill:#E17F00;} .st88{fill:#E07E00;} .st89{fill:#E07D00;} .st90{fill:#DF7C00;} .st91{fill:#DE7B00;} .st92{fill:#DE7A00;} .st93{fill:#DD7900;} .st94{fill:#DD7800;} .st95{fill:#DC7700;} .st96{fill:#DC7600;} .st97{fill:#DB7500;} .st98{fill:#DA7400;} .st99{fill:#DA7300;} .st100{fill:#D97200;} .st101{fill:#D97100;} .st102{fill:#D87000;} .st103{fill:#D76F00;} .st104{fill:#D76E00;} .st105{fill:#D66D00;} .st106{fill:#D66C00;} .st107{fill:#D56B00;} .st108{fill:#D56A00;} .st109{fill:#D46900;} .st110{fill:#D36800;} .st111{fill:#D36700;} .st112{fill:#D26600;} .st113{fill:#D26500;} .st114{fill:#D16400;} .st115{fill:#D16300;} .st116{fill:#D06200;} .st117{fill:#CF6100;} .st118{fill:#CF6000;} .st119{fill:#CE5F00;} .st120{fill:#CE5E00;} .st121{fill:#CD5D00;} .st122{fill:#CC5C00;} .st123{fill:#CC5B00;} .st124{fill:#CB5A00;} .st125{fill:#CB5900;} .st126{fill:#CA5800;} .st127{fill:#CA5700;} .st128{fill:#C95600;} .st129{fill:#C85500;} .st130{fill:#C85400;} .st131{fill:#C75300;} .st132{fill:#C75200;} .st133{fill:#C65100;} .st134{fill:#C55000;} .st135{fill:#C54F00;} .st136{fill:#C44E00;} .st137{fill:#C44D00;} .st138{fill:#C34C00;} .st139{fill:#C34B00;} .st140{fill:#C24A00;} .st141{fill:#C14900;} .st142{fill:#C14800;} .st143{fill:#C04700;} .st144{fill:#C04600;} .st145{fill:#BF4500;} .st146{fill:#BF4400;} .st147{fill:#BE4300;} .st148{fill:#BD4200;} .st149{fill:#BD4100;} .st150{fill:#BC4000;} .st151{fill:#BC3F00;} .st152{fill:#BB3E00;} .st153{fill:#BA3D00;} .st154{fill:#BA3C00;} .st155{fill:#B93B00;} .st156{fill:#B93A00;} .st157{fill:#B83900;} .st158{fill:#B83800;} .st159{fill:#B73700;} .st160{fill:#B63600;} .st161{fill:#B63500;} .st162{fill:#B53400;} .st163{fill:#B53300;} .st164{fill:#B43200;} .st165{fill:#B33100;} .st166{fill:#B33000;} .st167{fill:#B22F00;} .st168{fill:#B22E00;} .st169{fill:#B12D00;} .st170{fill:#B12C00;} .st171{fill:#B02B00;} .st172{fill:#AF2A00;} .st173{fill:#AF2900;} .st174{fill:#AE2800;} .st175{fill:#AE2700;} .st176{fill:#AD2600;} .st177{fill:#AC2500;} .st178{fill:#AC2400;} .st179{fill:#AB2300;} .st180{fill:#AB2200;} .st181{fill:#AA2100;} .st182{fill:#AA2000;} .st183{fill:#A91F00;} .st184{fill:#A81E00;} .st185{fill:#A81D00;} .st186{fill:#A71C00;} .st187{fill:#A71B00;} .st188{fill:#A61A00;} .st189{fill:#A61900;} .st190{fill:#A51800;} .st191{fill:#A41700;} .st192{fill:#A41600;} .st193{fill:#A31500;} .st194{fill:#A31400;} .st195{fill:#A21300;} .st196{fill:#A11200;} .st197{fill:#A11100;} .st198{fill:#A01000;} .st199{fill:#A00F00;} .st200{fill:#9F0E00;} .st201{fill:#9F0D00;} .st202{fill:#9E0C00;} .st203{fill:#9D0B00;} .st204{fill:#9D0A00;} .st205{fill:#9C0900;} .st206{fill:#9C0800;} .st207{fill:#9B0700;} .st208{fill:#9A0600;} .st209{fill:#9A0500;} .st210{fill:#990400;} .st211{fill:#990300;} .st212{fill:#980200;} .st213{fill:#980100;} .st214{fill:#970000;}</style><g id="Title" class="st0"><path class="st1" id="rect835" d="M548.29 775.13h837.93v212.74H548.29z"/><text transform="translate(818.885 814.51)" class="st2" id="text841"><tspan x="0" y="0" class="st3 st4 st5" id="tspan837">How to draw</tspan><tspan x="-16.76" y="112.78" class="st3 st4 st6" id="tspan839">MARS</tspan></text></g><g id="Layer_4" transform="matrix(.46189 0 0 .46189 -203.012 -57.076)"><radialGradient id="SVGID_5_" cx="-35.235" cy="175.823" r="1340.991" gradientUnits="userSpaceOnUse"><stop offset=".275" style="stop-color:#FFCC00" id="stop1058"/><stop offset=".527" style="stop-color:#D6001B" id="stop1060"/><stop offset=".721" style="stop-color:#AB0036" id="stop1062"/><stop offset="1" style="stop-color:#200033" id="stop1064"/></radialGradient><path class="st19" d="M1243 547c0 31.01-3.8 61.14-10.95 89.94-31.8 128.11-130.01 229.99-255.97 267.01a368.84 368.84 0 01-40.3 9.42 370.56 370.56 0 01-48.63 5.28c-5.35.23-10.74.35-16.15.35-40.92 0-80.29-6.61-117.11-18.82-30.15-9.98-58.59-23.73-84.76-40.68a373.453 373.453 0 01-87.6-78.85A370.932 370.932 0 01560 751.18a369.86 369.86 0 01-43.59-91.41C505.1 624.2 499 586.31 499 547c0-6.75.18-13.46.54-20.12 9.32-175.02 139.63-317.93 308.81-346.62 17.2-2.92 34.8-4.66 52.71-5.13 3.3-.09 6.62-.13 9.94-.13 29.88 0 58.93 3.52 86.77 10.18a369.228 369.228 0 0195.42 37.42 373.46 373.46 0 0178.34 58.87c5.43 5.32 10.69 10.81 15.78 16.47 10.78 11.95 20.8 24.6 29.97 37.88a370.88 370.88 0 0140.59 76.51c13.74 35.37 22.23 73.36 24.51 113.02.41 7.16.62 14.38.62 21.65z" id="path1067" style="fill:url(#SVGID_5_)"/><radialGradient id="SVGID_6_" cx="-765.823" cy="33.941" r="2167.14" gradientUnits="userSpaceOnUse"><stop offset=".275" style="stop-color:#FFCC00" id="stop1069"/><stop offset=".527" style="stop-color:#D6001B" id="stop1071"/><stop offset=".721" style="stop-color:#AB0036" id="stop1073"/><stop offset="1" style="stop-color:#200033" id="stop1075"/></radialGradient><path class="st20" d="M861.06 175.13C708.09 262.88 670.37 388.6 603 486c-35.16 50.84-58.12 112.08-86.59 173.77C505.1 624.2 499 586.31 499 547c0-6.75.18-13.46.54-20.12C561.41 444.1 601.78 358.39 631 316c27.81-40.35 109.14-94.68 177.35-135.74 17.2-2.92 34.8-4.66 52.71-5.13z" id="path1078" style="fill:url(#SVGID_6_)"/><radialGradient id="SVGID_7_" cx="-765.823" cy="33.941" r="2167.14" gradientUnits="userSpaceOnUse"><stop offset=".275" style="stop-color:#FFCC00" id="stop1080"/><stop offset=".527" style="stop-color:#D6001B" id="stop1082"/><stop offset=".721" style="stop-color:#AB0036" id="stop1084"/><stop offset="1" style="stop-color:#200033" id="stop1086"/></radialGradient><path class="st21" d="M1147.31 297.94c-252.76 153.29-267.66 313.62-338.2 448.68-25 47.87-39.6 99.77-55.22 153.56-30.15-9.98-58.59-23.73-84.76-40.68 73.41-113.98 109.12-230.58 138.96-287.96 45.84-88.11 296.76-277.47 296.76-277.47s10.49-4.98 26.68-12.6c5.43 5.32 10.69 10.81 15.78 16.47z" id="path1089" style="fill:url(#SVGID_7_)"/><radialGradient id="SVGID_8_" cx="-765.823" cy="33.941" r="2167.14" gradientUnits="userSpaceOnUse"><stop offset=".275" style="stop-color:#FFCC00" id="stop1091"/><stop offset=".527" style="stop-color:#D6001B" id="stop1093"/><stop offset=".721" style="stop-color:#AB0036" id="stop1095"/><stop offset="1" style="stop-color:#200033" id="stop1097"/></radialGradient><path class="st22" d="M1053.19 222.6c-3.86 11.96-8.86 25.38-15.19 40.4-51 121-206 209-276 233S649 653 606 741c-6.28 12.85-14.65 26.23-24.47 39.65A370.932 370.932 0 01560 751.18c39.3-63.49 76.53-135.41 80-152.18 6-29 124-185 162-206s130-96 140-145c4.56-22.34 10.57-44.89 15.77-62.82a369.228 369.228 0 0195.42 37.42z" id="path1100" style="fill:url(#SVGID_8_)"/><radialGradient id="SVGID_9_" cx="-765.823" cy="33.941" r="2167.14" gradientUnits="userSpaceOnUse"><stop offset=".275" style="stop-color:#FFCC00" id="stop1102"/><stop offset=".527" style="stop-color:#D6001B" id="stop1104"/><stop offset=".721" style="stop-color:#AB0036" id="stop1106"/><stop offset="1" style="stop-color:#200033" id="stop1108"/></radialGradient><path class="st23" d="M1243 547c0 31.01-3.8 61.14-10.95 89.94C1187.06 666.9 1143.16 688 1114 698c-60.23 20.65-100.47 122.01-137.92 205.95a368.84 368.84 0 01-40.3 9.42C965.22 862.36 989.25 814.31 992 801c6-29 124-185 162-206 20.74-11.46 57.58-39.02 88.38-69.65.41 7.16.62 14.38.62 21.65z" id="path1111" style="fill:url(#SVGID_9_)"/><radialGradient id="SVGID_10_" cx="-765.823" cy="33.941" r="2167.14" gradientUnits="userSpaceOnUse"><stop offset=".275" style="stop-color:#FFCC00" id="stop1113"/><stop offset=".527" style="stop-color:#D6001B" id="stop1115"/><stop offset=".721" style="stop-color:#AB0036" id="stop1117"/><stop offset="1" style="stop-color:#200033" id="stop1119"/></radialGradient><path class="st24" d="M1217.87 412.33c-46.01 52.07-97.71 92.29-130.64 111.46C1023.28 561.03 899.64 634.99 919 731c12.12 60.12-5.82 131.68-31.85 187.65-5.35.23-10.74.35-16.15.35 37.28-38.03 18.79-154.39 19-184 .21-29.61 10-188 216.3-320.05 19.07-12.2 47.81-44.21 70.98-79.13a370.88 370.88 0 0140.59 76.51z" id="path1122" style="fill:url(#SVGID_10_)"/><radialGradient id="SVGID_11_" cx="902.177" cy="527.353" r="319.923" gradientUnits="userSpaceOnUse"><stop offset=".275" style="stop-color:#FFCC00" id="stop1124"/><stop offset=".527" style="stop-color:#D6001B" id="stop1126"/><stop offset=".721" style="stop-color:#AB0036" id="stop1128"/><stop offset="1" style="stop-color:#200033" id="stop1130"/></radialGradient><path class="st25" d="M915.12 294.39c6.53 21.68-22.25 49.52-64.29 62.19-42.04 12.67-81.42 5.36-87.95-16.33-6.53-21.69 22.25-49.52 64.29-62.19 42.04-12.67 81.42-5.35 87.95 16.33z" id="path1133" style="fill:url(#SVGID_11_)"/><radialGradient id="SVGID_12_" cx="626.882" cy="756.059" r="353.663" gradientUnits="userSpaceOnUse"><stop offset=".275" style="stop-color:#FFCC00" id="stop1135"/><stop offset=".527" style="stop-color:#D6001B" id="stop1137"/><stop offset=".721" style="stop-color:#AB0036" id="stop1139"/><stop offset="1" style="stop-color:#200033" id="stop1141"/></radialGradient><path class="st26" d="M552.29 541.29c-.8 28.71-10.84 51.72-22.44 51.4-11.59-.32-20.34-23.86-19.55-52.56.8-28.71 10.84-51.72 22.44-51.4 11.59.32 20.34 23.85 19.55 52.56z" id="path1144" style="fill:url(#SVGID_12_)"/><radialGradient id="SVGID_13_" cx="780.765" cy="990.412" r="396.012" gradientUnits="userSpaceOnUse"><stop offset=".275" style="stop-color:#FFCC00" id="stop1146"/><stop offset=".527" style="stop-color:#D6001B" id="stop1148"/><stop offset=".721" style="stop-color:#AB0036" id="stop1150"/><stop offset="1" style="stop-color:#200033" id="stop1152"/></radialGradient><path class="st27" d="M659.2 750.74c12.03 23.31 10.29 48.14-3.89 55.46s-35.43-5.64-47.47-28.95c-12.03-23.31-10.29-48.14 3.89-55.46s35.44 5.64 47.47 28.95z" id="path1155" style="fill:url(#SVGID_13_)"/><radialGradient id="SVGID_14_" cx="1393.471" cy="993.235" r="710.168" gradientUnits="userSpaceOnUse"><stop offset=".275" style="stop-color:#FFCC00" id="stop1157"/><stop offset=".527" style="stop-color:#D6001B" id="stop1159"/><stop offset=".721" style="stop-color:#AB0036" id="stop1161"/><stop offset="1" style="stop-color:#200033" id="stop1163"/></radialGradient><ellipse class="st28" cx="1035.5" cy="504.5" rx="43" ry="50" id="ellipse1166" style="fill:url(#SVGID_14_)"/><radialGradient id="SVGID_15_" cx="1293.235" cy="1350.412" r="731.643" gradientUnits="userSpaceOnUse"><stop offset=".275" style="stop-color:#FFCC00" id="stop1168"/><stop offset=".527" style="stop-color:#D6001B" id="stop1170"/><stop offset=".721" style="stop-color:#AB0036" id="stop1172"/><stop offset="1" style="stop-color:#200033" id="stop1174"/></radialGradient><path class="st29" d="M975.21 806.15c-5.73-17.88-35.31-24.39-66.08-14.53-30.77 9.86-51.07 32.34-45.34 50.22 5.73 17.88 35.31 24.39 66.08 14.53 30.77-9.85 51.07-32.33 45.34-50.22z" id="path1177" style="fill:url(#SVGID_15_)"/><radialGradient id="SVGID_16_" cx="913.471" cy="874.647" r="273.788" gradientUnits="userSpaceOnUse"><stop offset=".275" style="stop-color:#FFCC00" id="stop1179"/><stop offset=".527" style="stop-color:#D6001B" id="stop1181"/><stop offset=".721" style="stop-color:#AB0036" id="stop1183"/><stop offset="1" style="stop-color:#200033" id="stop1185"/></radialGradient><circle class="st30" cx="793" cy="694" r="11" id="circle1188" style="fill:url(#SVGID_16_)"/><radialGradient id="SVGID_17_" cx="797.706" cy="525.941" r="492.056" gradientUnits="userSpaceOnUse"><stop offset=".275" style="stop-color:#FFCC00" id="stop1190"/><stop offset=".527" style="stop-color:#D6001B" id="stop1192"/><stop offset=".721" style="stop-color:#AB0036" id="stop1194"/><stop offset="1" style="stop-color:#200033" id="stop1196"/></radialGradient><path class="st31" d="M670.2 300.46c-14.49 14.41-30.81 21.49-36.46 15.81-5.65-5.68 1.52-21.96 16.01-36.37 14.49-14.41 30.81-21.49 36.46-15.81 5.64 5.68-1.53 21.96-16.01 36.37z" id="path1199" style="fill:url(#SVGID_17_)"/><radialGradient id="SVGID_18_" cx="907.823" cy="760.294" r="403.478" gradientUnits="userSpaceOnUse"><stop offset=".275" style="stop-color:#FFCC00" id="stop1201"/><stop offset=".527" style="stop-color:#D6001B" id="stop1203"/><stop offset=".721" style="stop-color:#AB0036" id="stop1205"/><stop offset="1" style="stop-color:#200033" id="stop1207"/></radialGradient><path class="st32" d="M776.44 572.45c-13.51 30.56-45.35 46.1-71.11 34.71-25.76-11.39-35.69-45.4-22.17-75.96 13.51-30.56 45.35-46.1 71.11-34.71 25.75 11.39 35.68 45.4 22.17 75.96z" id="path1210" style="fill:url(#SVGID_18_)"/><radialGradient id="SVGID_19_" cx="1867.823" cy="1046.882" r="843.495" gradientUnits="userSpaceOnUse"><stop offset=".275" style="stop-color:#FFCC00" id="stop1212"/><stop offset=".527" style="stop-color:#D6001B" id="stop1214"/><stop offset=".721" style="stop-color:#AB0036" id="stop1216"/><stop offset="1" style="stop-color:#200033" id="stop1218"/></radialGradient><path class="st33" d="M1208.62 660.81c-9.3 23.34-27.87 37.87-41.46 32.46-13.6-5.42-17.07-28.73-7.77-52.08 9.3-23.34 27.87-37.87 41.46-32.46 13.59 5.42 17.07 28.74 7.77 52.08z" id="path1221" style="fill:url(#SVGID_19_)"/><radialGradient id="SVGID_20_" cx="1622.177" cy="1179.588" r="710.763" gradientUnits="userSpaceOnUse"><stop offset=".275" style="stop-color:#FFCC00" id="stop1223"/><stop offset=".527" style="stop-color:#D6001B" id="stop1225"/><stop offset=".721" style="stop-color:#AB0036" id="stop1227"/><stop offset="1" style="stop-color:#200033" id="stop1229"/></radialGradient><path class="st34" d="M1089.36 807.17c-6.58-8.52-23.61-6.4-38.04 4.75-14.42 11.14-20.78 27.08-14.19 35.61 6.58 8.52 23.61 6.4 38.04-4.75 14.42-11.14 20.78-27.09 14.19-35.61z" id="path1232" style="fill:url(#SVGID_20_)"/></g></svg>