<svg height="512" viewBox="0 0 128 128" width="512" xmlns="http://www.w3.org/2000/svg"><text fill="#24253a" font-family="MyriadPro-Regular, Myriad Pro" font-size="40" letter-spacing=".002em" transform="translate(54.366 -54.265)">4<tspan x="-10.3" y="228">14</tspan><tspan x="-10.3" y="456">24</tspan><tspan x="-10.3" y="684">34</tspan><tspan x="-10.3" y="912">44</tspan><tspan x="-10.3" y="1140">54</tspan><tspan x="-10.3" y="1368">64</tspan><tspan x="-10.3" y="1596">74</tspan><tspan x="-10.3" y="1824">84</tspan><tspan x="-10.3" y="2052">94</tspan><tspan x="-20.599" y="2280">104</tspan><tspan x="-20.599" y="2508">114</tspan><tspan x="-20.599" y="2736">124</tspan><tspan x="-20.599" y="2964">134</tspan><tspan x="-20.599" y="3192">144</tspan><tspan x="-20.599" y="3420">154</tspan><tspan x="-20.599" y="3648">164</tspan><tspan x="-20.599" y="3876">174</tspan><tspan x="-20.599" y="4104">184</tspan><tspan x="-20.599" y="4332">194</tspan><tspan x="-20.599" y="4560">204</tspan><tspan x="-20.599" y="4788">214</tspan><tspan x="-20.599" y="5016">224</tspan><tspan x="-20.599" y="5244">234</tspan><tspan x="-20.599" y="5472">244</tspan></text><path d="m102.1 13.973c-12.632 2-25.149 4.653-36.681 10.039-14.895 6.967-28.159 19.3-32.167 35.24-1.5 5.981-1.96 12.809-6.524 16.943-3.894 3.515-9.787 3.932-14.87 2.63a26.476 26.476 0 0 1 -10.099-5.125 61.617 61.617 0 0 1 -.759-9.706 63.316 63.316 0 0 1 .759-9.723c3.211 3.944 7.953 6.829 12.641 5.36 3.7-1.163 6.158-4.742 7.384-8.421s1.492-7.612 2.478-11.355c3.013-11.392 12.445-20.205 23.054-25.326s22.406-7.081 34.038-8.99c1.4-.228 2.807-.455 4.211-.7h.013a63.264 63.264 0 0 1 16.522 9.134z" fill="#eeacb1"/><path d="m17.107 80.509a22.181 22.181 0 0 1 -5.494-.715 27.641 27.641 0 0 1 -10.483-5.312 1 1 0 0 1 -.358-.621 62.839 62.839 0 0 1 -.772-9.867 64.54 64.54 0 0 1 .771-9.876 1 1 0 0 1 1.764-.478c3.517 4.319 7.838 6.205 11.57 5.038 4.173-1.31 6.1-5.879 6.734-7.783a46.021 46.021 0 0 0 1.431-6.308c.292-1.639.594-3.334 1.029-4.985 2.807-10.626 11.4-20.092 23.583-25.972 10.79-5.216 22.747-7.179 34.31-9.078 1.4-.228 2.8-.455 4.2-.694a1.042 1.042 0 0 1 .528.048 64.189 64.189 0 0 1 16.787 9.274 1 1 0 0 1 -.452 1.781c-11.286 1.785-24.438 4.363-36.414 9.958-16.508 7.723-28.033 20.326-31.616 34.581-.308 1.224-.578 2.517-.839 3.768-1.045 5-2.126 10.179-5.983 13.673a15.191 15.191 0 0 1 -10.296 3.568zm-14.42-7.343a25.57 25.57 0 0 0 9.42 4.69c5.507 1.411 10.723.513 13.954-2.4 3.374-3.056 4.387-7.907 5.367-12.6.265-1.271.54-2.584.857-3.847 3.73-14.837 15.654-27.923 32.715-35.902 11.373-5.312 23.721-7.945 34.6-9.742a62.138 62.138 0 0 0 -14.123-7.492c-1.321.225-2.642.439-3.962.653-11.422 1.874-23.234 3.814-33.764 8.904-11.651 5.625-19.861 14.621-22.519 24.681-.414 1.572-.709 3.226-.994 4.826a47.478 47.478 0 0 1 -1.5 6.587c-1.548 4.643-4.476 7.944-8.035 9.062-4 1.253-8.469-.255-12.248-4.047a62.167 62.167 0 0 0 -.455 7.455 60.971 60.971 0 0 0 .687 9.172z" fill="#2f3a5a"/><path d="m1.759 54.27c4.741-30.017 30.978-53.27 62.235-53.27a62.4 62.4 0 0 1 21.571 3.844c-1.4.24-2.807.468-4.211.7-11.633 1.909-23.442 3.869-34.038 8.99s-20.041 13.929-23.051 25.322c-.986 3.744-1.265 7.675-2.478 11.354s-3.68 7.258-7.384 8.421c-4.691 1.469-9.433-1.416-12.644-5.361z" fill="#ff5c6c"/><path d="m11.861 61.018c-3.748 0-7.653-2.155-10.878-6.116l-.283-.346.07-.441c4.874-30.851 32.054-54.115 63.224-54.115a63.317 63.317 0 0 1 21.916 3.905l3.515 1.295-3.692.632c-1.406.241-2.812.469-4.219.7-11.421 1.868-23.233 3.808-33.763 8.898-11.651 5.625-19.861 14.621-22.519 24.681-.414 1.572-.709 3.226-.994 4.826a47.478 47.478 0 0 1 -1.5 6.587c-1.548 4.643-4.476 7.944-8.035 9.062a9.48 9.48 0 0 1 -2.842.432zm-9.043-7.037c3.464 4.077 7.656 5.832 11.286 4.7 4.173-1.31 6.1-5.879 6.734-7.783a46.021 46.021 0 0 0 1.431-6.308c.292-1.639.594-3.334 1.029-4.985 2.807-10.626 11.4-20.092 23.583-25.972 10.791-5.219 22.748-7.182 34.311-9.081l.212-.034a61.256 61.256 0 0 0 -17.41-2.518c-30.045 0-56.264 22.316-61.176 51.981z" fill="#2f3a5a"/><path d="m83.226 50.313a282.668 282.668 0 0 1 35.774-16.881 62.245 62.245 0 0 1 7.169 20.383q-20.2 2.105-40.487 3.5c-2.3.152-13.77 1.619-14.832.051-.673-.972 11.187-6.383 12.376-7.053z" fill="#ef545c"/><path d="m120.893 90.913a63.137 63.137 0 0 1 -7.207 11.633c-13.593.822-27.375 2.4-38.919 9.42-6.562 3.983-11.987 9.521-17.727 14.642a61.375 61.375 0 0 1 -15.679-3.869 61.478 61.478 0 0 0 11.2-8.13 20.539 20.539 0 0 0 5.665-7.473c1.138-2.946.986-6.562-1.075-8.952-3.262-3.781-9.243-2.933-14.1-1.758q-14.092 3.4-28.184 6.828a64.338 64.338 0 0 1 -7.511-11.8c18.549-4.64 37.882-8.725 56.292-3.958 7.991 2.074 15.552 5.778 23.67 7.27 11.258 2.077 22.574-.186 33.575-3.853z" fill="#eeacb1"/><path d="m57.04 127.608a.929.929 0 0 1 -.11-.006 62.439 62.439 0 0 1 -15.935-3.932 1 1 0 0 1 -.127-1.8 60.511 60.511 0 0 0 11.021-8c2.053-1.886 4.3-4.205 5.405-7.092 1.119-2.9.766-6.013-.9-7.942-2.918-3.381-8.537-2.544-13.106-1.438q-10.857 2.615-21.716 5.258l-6.468 1.569a1 1 0 0 1 -1.016-.346 65.391 65.391 0 0 1 -7.625-11.979 1 1 0 0 1 .654-1.412c18.545-4.64 38.205-8.768 56.783-3.957 3.441.893 6.838 2.1 10.122 3.261a89.362 89.362 0 0 0 13.478 3.995c9.493 1.75 20 .535 33.074-3.822a1 1 0 0 1 1.218 1.38 64.258 64.258 0 0 1 -7.322 11.817 1 1 0 0 1 -.727.382c-12.462.756-26.743 2.156-38.457 9.276-5.074 3.08-9.568 7.207-13.914 11.2-1.217 1.118-2.435 2.236-3.667 3.335a1 1 0 0 1 -.665.253zm-13.363-5.072a60.526 60.526 0 0 0 13.031 3.027c1.111-1 2.211-2.006 3.312-3.017 4.417-4.057 8.986-8.253 14.229-11.435 11.963-7.272 26.329-8.76 38.925-9.536a62.206 62.206 0 0 0 5.754-8.976c-12.359 3.862-22.511 4.862-31.786 3.154a90.843 90.843 0 0 1 -13.784-4.076c-3.244-1.15-6.6-2.339-9.956-3.21-17.724-4.589-36.647-.792-54.584 3.657a63.474 63.474 0 0 0 6.439 10.007l5.846-1.419q10.854-2.635 21.718-5.258c5.122-1.24 11.465-2.125 15.09 2.076 2.14 2.481 2.63 6.393 1.25 9.966-1.25 3.271-3.694 5.8-5.921 7.849a62.446 62.446 0 0 1 -9.563 7.191z" fill="#2f3a5a"/><path d="m58.228 107.136a20.539 20.539 0 0 1 -5.665 7.473 61.478 61.478 0 0 1 -11.2 8.13 63.689 63.689 0 0 1 -26.49-19.485q14.073-3.414 28.184-6.828c4.855-1.176 10.836-2.023 14.1 1.758 2.057 2.39 2.209 6.006 1.071 8.952z" fill="#ff5c6c"/><path d="m74.767 111.966c11.544-7.018 25.326-8.6 38.919-9.42a63.027 63.027 0 0 1 -49.692 24.454 60.236 60.236 0 0 1 -6.954-.392c5.74-5.121 11.16-10.659 17.727-14.642z" fill="#ef545c"/><path d="m127 64.512-.013.582a62.346 62.346 0 0 1 -6.095 25.82c-11 3.667-22.317 5.93-33.57 3.856-8.118-1.492-15.679-5.2-23.67-7.27-18.41-4.767-37.743-.683-56.292 3.958a62.831 62.831 0 0 1 -5.601-17.758 26.476 26.476 0 0 0 10.1 5.121c5.083 1.3 10.975.885 14.87-2.63 4.565-4.135 5.02-10.963 6.524-16.943 4.008-15.944 17.272-28.273 32.167-35.24 11.532-5.386 24.049-8.042 36.681-10.039h.013a64.349 64.349 0 0 1 11.256 11.08 398.971 398.971 0 0 0 -50.894 26.237 18.539 18.539 0 0 0 -5.376 4.287 6.584 6.584 0 0 0 -1.138 6.5c1.53 3.338 5.981 3.819 9.648 3.819q30.709-.04 61.39-1.38z" fill="#ff5c6c"/><g fill="#d84e5b"><path d="m110.006 55.37c.126-1.4.19-2.832.215-4.261a62.023 62.023 0 0 0 -1.264-13.529c3.313-1.454 6.651-2.832 10.04-4.147a62.245 62.245 0 0 1 7.169 20.383c-5.387.555-10.773 1.084-16.16 1.554z"/><path d="m55.244 111.89a33.971 33.971 0 0 1 -2.681 2.719 61.478 61.478 0 0 1 -11.2 8.13 63.689 63.689 0 0 1 -26.49-19.485l.645-.152a62.269 62.269 0 0 0 39.728 8.788z"/><path d="m74.767 111.966c11.544-7.018 25.326-8.6 38.919-9.42a63.027 63.027 0 0 1 -49.692 24.454 60.236 60.236 0 0 1 -6.954-.392c5.74-5.121 11.16-10.659 17.727-14.642z"/><path d="m106.225 28.185a61.491 61.491 0 0 0 -7.245-13.706c1.037-.177 2.074-.341 3.123-.506h.013a64.349 64.349 0 0 1 11.254 11.076c-2.39 1.025-4.78 2.074-7.145 3.136z"/><path d="m127 64.512-.013.582a62.346 62.346 0 0 1 -6.095 25.82c-9.863 3.287-19.978 5.45-30.093 4.362a62.018 62.018 0 0 0 17.588-30.068q9.313-.285 18.613-.696z"/></g><path d="m74.759 59.085c-2.871 0-4.211-.376-4.74-1.156a1.157 1.157 0 0 1 -.159-.963c.263-1 1.908-2.182 10.964-6.579.9-.439 1.685-.819 1.91-.945a284.362 284.362 0 0 1 35.9-16.94l.81-.315.425.757a63.14 63.14 0 0 1 7.285 20.709l.172 1.047-1.056.11c-13.27 1.383-26.908 2.563-40.522 3.505-.394.026-1.052.09-1.88.171-4.055.396-6.996.599-9.109.599zm-2.224-2.092c1.7.225 5.434.059 11.139-.5.855-.083 1.536-.149 1.939-.176 13.224-.915 26.47-2.055 39.384-3.389a61.132 61.132 0 0 0 -6.452-18.248 282.243 282.243 0 0 0 -34.83 16.5c-.279.157-.971.493-2.017 1-1.912.934-7.091 3.449-9.163 4.814z" fill="#2f3a5a"/><path d="m41.439 123.843-.439-.173a64.677 64.677 0 0 1 -26.91-19.791l-.984-1.227 8-1.94q10.854-2.634 21.718-5.258c5.122-1.24 11.465-2.125 15.09 2.076 2.14 2.481 2.63 6.393 1.25 9.966-1.251 3.273-3.695 5.8-5.921 7.849a62.464 62.464 0 0 1 -11.387 8.264zm-24.783-19.993a62.66 62.66 0 0 0 24.625 17.783 60.469 60.469 0 0 0 10.608-7.762c2.053-1.886 4.3-4.205 5.405-7.092 1.117-2.893.764-6.009-.9-7.939-2.918-3.381-8.537-2.544-13.106-1.438q-10.857 2.615-21.716 5.258z" fill="#2f3a5a"/><path d="m63.994 128a61.565 61.565 0 0 1 -7.069-.4l-2.212-.257 1.662-1.482c1.225-1.093 2.435-2.2 3.645-3.316 4.417-4.057 8.986-8.252 14.228-11.435 12.107-7.36 26.674-8.8 39.378-9.563l2.209-.134-1.36 1.746a63.659 63.659 0 0 1 -50.481 24.841zm-4.6-2.171c1.505.114 3.044.171 4.6.171a61.6 61.6 0 0 0 47.485-22.312c-11.906.8-25.181 2.438-36.193 9.132-5.074 3.079-9.568 7.207-13.914 11.2q-.987.905-1.972 1.809z" fill="#2f3a5a"/><path d="m96.136 96.557a49.441 49.441 0 0 1 -9-.8 90.843 90.843 0 0 1 -13.784-4.076c-3.244-1.15-6.6-2.339-9.956-3.21-18.125-4.693-37.5-.617-55.8 3.96l-.787.2-.348-.731a63.821 63.821 0 0 1 -5.69-18.04l-.4-2.567 2.021 1.634a25.625 25.625 0 0 0 9.719 4.929c5.507 1.411 10.723.513 13.954-2.4 3.374-3.056 4.387-7.907 5.367-12.6.265-1.271.54-2.584.857-3.847 3.726-14.837 15.65-27.923 32.711-35.902 12.2-5.7 25.525-8.315 36.949-10.122l.156-.012h.339l.282.207a65.308 65.308 0 0 1 11.428 11.249l.813 1.026-1.2.515a399.157 399.157 0 0 0 -50.767 26.17 17.831 17.831 0 0 0 -5.1 4.038 5.564 5.564 0 0 0 -1.024 5.483c1.327 2.895 5.622 3.23 8.737 3.23 20.456-.025 41.1-.488 61.344-1.377l1.067-.047-.036 1.649a63.085 63.085 0 0 1 -6.188 26.228l-.183.384-.4.134c-9.461 3.151-17.633 4.695-25.081 4.695zm-50.117-12.175a71.064 71.064 0 0 1 17.881 2.149c3.441.893 6.838 2.1 10.122 3.261a89.362 89.362 0 0 0 13.478 3.995c9.4 1.731 19.787.559 32.669-3.688a61.075 61.075 0 0 0 5.8-24.541c-19.935.86-40.237 1.308-60.364 1.333-3.667 0-8.749-.456-10.558-4.4a7.565 7.565 0 0 1 1.253-7.524 19.651 19.651 0 0 1 5.648-4.533 401.163 401.163 0 0 1 49.805-25.78 63.327 63.327 0 0 0 -9.917-9.625c-11.192 1.782-24.169 4.366-36 9.892-16.503 7.721-28.028 20.324-31.611 34.579-.308 1.224-.578 2.517-.839 3.768-1.045 5-2.126 10.179-5.983 13.673-3.73 3.367-9.632 4.436-15.789 2.857a27.271 27.271 0 0 1 -8.431-3.798 61.89 61.89 0 0 0 4.726 14.29c12.437-3.096 25.36-5.908 38.11-5.908z" fill="#2f3a5a"/><path d="m127 63.994v.518q-30.669 1.347-61.388 1.378c-3.667 0-8.118-.48-9.648-3.819a6.584 6.584 0 0 1 1.138-6.5 18.539 18.539 0 0 1 5.374-4.286 398.971 398.971 0 0 1 50.894-26.236 63.838 63.838 0 0 1 5.63 8.383 282.668 282.668 0 0 0 -35.771 16.88c-1.189.67-13.049 6.082-12.379 7.055 1.062 1.568 12.53.1 14.832-.051q20.275-1.4 40.487-3.5a62.825 62.825 0 0 1 .831 10.178z" fill="#eeacb1"/><path d="m65.613 66.89c-3.667 0-8.749-.456-10.558-4.4a7.565 7.565 0 0 1 1.253-7.524 19.651 19.651 0 0 1 5.648-4.533 401.149 401.149 0 0 1 51.02-26.3 1 1 0 0 1 1.176.3 64.947 64.947 0 0 1 5.715 8.515 1 1 0 0 1 -.508 1.422 282.5 282.5 0 0 0 -35.644 16.82c-.276.156-.969.493-2.017 1-1.913.929-7.091 3.444-9.163 4.808 1.7.225 5.434.059 11.139-.5.855-.083 1.536-.149 1.939-.176 13.588-.94 27.2-2.118 40.449-3.5a1 1 0 0 1 1.09.833 64.08 64.08 0 0 1 .848 10.339v.519a1 1 0 0 1 -.956 1c-20.277.887-40.944 1.352-61.431 1.377zm47.443-40.619a399.265 399.265 0 0 0 -50.056 25.869 17.831 17.831 0 0 0 -5.1 4.038 5.564 5.564 0 0 0 -1.024 5.483c1.327 2.895 5.622 3.23 8.737 3.23 20.134-.024 40.444-.474 60.386-1.335a62.083 62.083 0 0 0 -.674-8.647c-12.975 1.341-26.285 2.487-39.577 3.407-.394.026-1.052.09-1.88.171-9.563.933-12.931.8-13.849-.557a1.157 1.157 0 0 1 -.159-.963c.263-1 1.908-2.182 10.964-6.579.9-.439 1.685-.819 1.91-.945a284.107 284.107 0 0 1 34.817-16.517 62.962 62.962 0 0 0 -4.494-6.655z" fill="#2f3a5a"/><path d="m102.116 14.973h-.016a1 1 0 1 1 .013 0z" fill="#2f3a5a"/></svg>