<svg id="Capa_1" enable-background="new 0 0 510.141 510.141" height="512" viewBox="0 0 510.141 510.141" width="512" xmlns="http://www.w3.org/2000/svg"><g><g><path d="m494.7 192.632-14.758-8.099-20.786-44.511.313-24.678c-44.637-64.867-119.698-107.849-204.393-107.849s-159.449 42.518-204.086 107.385l.005 19.701-19.36 48-16.195 10.059c-5.182 19.946-7.935 40.857-7.935 62.425 0 2.782.044 5.555.135 8.315l11.315 22.758 14.217 56.276-5.871 9.837c15.717 36.793 40.075 68.988 70.542 94.063l40.115 16.014 98.891 23.631 126.298-14.665 49.097-24.955c30.477-25.075 54.863-57.285 70.586-94.085l-1.631-4.828 12.614-65.787 8.686-18.257c.092-2.766.146-5.528.146-8.316.001-21.568-2.763-42.489-7.945-62.434z" fill="#fedbbd"/><g><path d="m139.712 255.07c0-113.834 76.833-209.708 181.464-238.63-21.045-5.817-43.21-8.939-66.106-8.94-84.7-.002-161.132 43.855-205.188 109.005l1.108 18.082-19.36 48-16.19 10.053c-5.182 19.946-7.94 40.863-7.94 62.43 0 2.785.049 5.547.14 8.31l11.31 22.763 14.217 56.276-5.865 9.832c37.774 88.426 125.533 150.39 227.769 150.39 22.896 0 45.061-3.122 66.106-8.94-104.632-28.923-181.465-124.797-181.465-238.631z" fill="#feca9c"/><ellipse cx="255.07" cy="93.189" fill="#e8ad8c" rx="89.724" ry="33.964"/><path d="m165.347 93.189c0 7.787 6.924 14.96 18.567 20.689 14.168-20.366 31.299-38.5 50.798-53.776-39.756 3.487-69.365 16.977-69.365 33.087z" fill="#e19974"/><g id="XMLID_227_"><g><path d="m412.279 446.31c-42.76 35.19-97.509 56.33-157.209 56.33s-114.467-21.137-157.227-56.327c0 0 98.237 21.937 157.227 21.937s157.209-21.94 157.209-21.94z" fill="#e8ad8c"/><g fill="#fdb97e"><path d="m502.5 263.368c-1.03 31.46-7.943 61.467-19.673 88.897-13.22 9.69-29.857 18.445-49.217 25.995-12.65 4.93-24.29 12.3-33.71 22.08-14.66 15.23-37.06 26.01-62.88 28.35-25.34 2.29-48.9-4.02-65.99-15.93-2.34-1.63-4.9-2.91-7.59-3.77s-5.51-1.32-8.37-1.32c-97.52 0-182.599-22.31-227.769-55.42-11.729-27.43-18.631-57.41-19.661-88.87h.01c31.82 37.98 112.03 66.42 209.63 72.32 18.22 1.1 35.97-5.34 49.71-17.35 14.53-12.7 34.86-21.52 57.91-23.61 20.3-1.84 39.46 1.85 55.06 9.51 17.46 8.58 37.71 9.53 55.78 2.33 29.75-11.86 66.76-43.212 66.76-43.212z"/><path d="m494.7 192.64c3.045 14.539-126.54 65.701-239.63 70.74-115.72 5.156-244.839-57.025-239.63-70.74 7.32-28.19 19.48-54.42 35.55-77.76-5.685 14.151 98.335 79.516 204.08 75.21 105.861-4.31 210.193-59.067 204.08-75.21 16.07 23.34 28.23 49.57 35.55 77.76z"/></g></g></g><ellipse cx="330.496" cy="362.591" fill="#fedbbd" rx="50.605" ry="38.718" transform="matrix(.999 -.046 .046 .999 -16.158 15.416)"/></g><path d="m150.564 327.756c-66.531-12.132-118.716-35.494-142.914-64.376h-.01c1.03 31.46 7.931 61.44 19.661 88.87 34.714 25.446 93.005 44.51 162.391 51.974-17.201-22.748-30.566-48.556-39.128-76.468z" fill="#fea95c"/><path d="m321.203 493.708s-41.364-14.51-59.904-25.49c-2.071.02-4.146.033-6.229.033-58.99 0-157.227-21.937-157.227-21.937 42.76 35.19 97.527 56.327 157.227 56.327 22.894-.001 45.087-3.116 66.133-8.933z" fill="#e19974"/><path d="m152.832 175.317c-58.988-22.266-101.842-60.437-101.842-60.437-16.282 23.349-31.672 57.577-37.473 85.699-.789 1.562 55.787 31.521 126.243 49.652 1.171-26.014 4.477-51.596 13.072-74.914z" fill="#fea95c"/></g><g><path d="m435.432 74.708c-48.176-48.176-112.23-74.708-180.362-74.708s-132.185 26.532-180.362 74.708c-48.176 48.177-74.708 112.23-74.708 180.362s26.532 132.186 74.708 180.362c48.176 48.177 112.23 74.708 180.362 74.708s132.186-26.532 180.362-74.708c48.177-48.176 74.708-112.23 74.708-180.362s-26.531-132.185-74.708-180.362zm-350.117 10.607c45.343-45.343 105.63-70.315 169.755-70.315s124.412 24.972 169.755 70.315c9.396 9.396 17.903 19.443 25.509 30.024-6.102 10.122-16.469 19.975-30.272 28.7-3.501 2.213-4.545 6.846-2.332 10.347 1.427 2.257 3.859 3.493 6.347 3.493 1.37 0 2.756-.375 4-1.162 13.454-8.505 23.926-17.848 31.282-27.878 11.925 19.218 21.023 39.955 27.053 61.702-37.815 39.205-129.851 65.337-231.344 65.337-45.171 0-89.467-5.144-128.098-14.877-4.018-1.011-8.093 1.424-9.105 5.441s1.424 8.093 5.441 9.105c39.811 10.03 85.374 15.331 131.762 15.331 53.803 0 105.463-6.98 149.395-20.187 36.857-11.079 66.232-25.902 85.97-43.272 3.109 15.521 4.679 51.243 4.64 53.034-13.05 14.619-34.44 28.126-62.116 39.161-15.938 6.354-34.048 5.593-49.688-2.091-17.535-8.614-37.955-12.161-59.05-10.25-23.795 2.154-45.874 11.186-62.167 25.431-12.549 10.972-28.282 16.482-44.318 15.511-46.899-2.837-90.979-11.043-127.475-23.73-34.149-11.872-60.069-27.053-75.195-44.006-.039-1.8-.066-3.602-.066-5.408 0-16.195 1.598-32.144 4.71-47.671 17.141 15.05 41.704 28.317 71.987 38.778.811.28 1.637.413 2.449.413 3.109 0 6.016-1.949 7.088-5.053 1.353-3.915-.725-8.185-4.64-9.538-32.335-11.17-57.413-25.453-72.868-41.454 6.03-21.751 15.131-42.491 27.058-61.712 30.137 40.99 111.115 68.762 204.286 68.762 52.621 0 103.258-8.991 142.583-25.317 3.826-1.588 5.64-5.977 4.051-9.802-1.587-3.826-5.977-5.639-9.802-4.051-37.545 15.587-86.139 24.171-136.832 24.171-91.098 0-171.854-28.051-195.277-67.239 7.611-10.589 16.123-20.642 25.524-30.043zm51.516 378.81c36.495 7.633 76.629 11.625 118.239 11.625s81.744-3.992 118.239-11.625c-35.66 20.242-76.121 31.016-118.239 31.016s-82.579-10.774-118.239-31.016zm287.995-39.299c-5.185 5.185-10.575 10.09-16.134 14.736-44.646 13.858-97.718 21.189-153.621 21.189s-108.975-7.331-153.621-21.189c-5.559-4.646-10.949-9.55-16.134-14.736-15.83-15.83-29.168-33.487-39.837-52.487 30.804 16.38 71.781 28.948 118.436 36.096.385.059.767.087 1.145.087 3.64 0 6.836-2.656 7.404-6.365.627-4.094-2.184-7.922-6.278-8.549-55.92-8.568-102.995-24.986-132.896-46.3-8.547-20.549-14.183-42.302-16.726-64.749 39.669 32.66 113.638 55.387 200.267 60.628 1.515.092 3.028.137 4.537.137 18.398 0 36.2-6.773 50.56-19.328 13.928-12.177 32.979-19.914 53.646-21.785 18.356-1.663 36.019 1.372 51.084 8.773 19.441 9.551 41.987 10.485 61.858 2.562 22.294-8.889 40.951-19.451 55.069-31.051-2.54 22.471-8.18 44.249-16.736 64.818-12.396 8.833-27.841 16.889-45.963 23.954-14.234 5.55-26.476 13.582-36.384 23.871-13.956 14.492-35.152 23.999-58.155 26.081-22.531 2.039-44.778-3.285-61.023-14.609-6.042-4.212-13.046-6.438-20.252-6.438-19.399 0-38.748-.904-57.508-2.687-4.12-.39-7.785 2.633-8.176 6.757-.392 4.124 2.633 7.784 6.757 8.176 19.229 1.827 39.055 2.754 58.927 2.754 4.124 0 8.161 1.294 11.674 3.743 16.46 11.474 37.948 17.728 60.216 17.728 3.565 0 7.15-.16 10.738-.485 26.543-2.402 51.186-13.561 67.607-30.615 8.392-8.714 18.831-15.544 31.028-20.3 10.229-3.988 19.687-8.297 28.319-12.889-10.667 18.995-24.002 36.646-39.828 52.472z"/><path d="m188.971 124.219c17.774 6.728 41.249 10.434 66.1 10.434s48.326-3.706 66.1-10.434c20.071-7.598 31.124-18.618 31.124-31.03s-11.053-23.433-31.124-31.03c-17.774-6.728-41.249-10.434-66.1-10.434s-48.325 3.706-66.1 10.434c-20.071 7.597-31.124 18.617-31.124 31.03s11.053 23.432 31.124 31.03zm66.099-57.494c50.193 0 82.224 15.673 82.224 26.463s-32.031 26.464-82.224 26.464-82.224-15.674-82.224-26.464 32.031-26.463 82.224-26.463z"/><path d="m291.714 397.727c10.381 7.218 23.578 11.112 37.478 11.112 1.131 0 2.268-.026 3.407-.078 32.006-1.458 57.101-23.356 55.941-48.814s-28.144-44.974-60.148-43.526c-32.006 1.458-57.101 23.356-55.941 48.814.58 12.719 7.421 24.258 19.263 32.492zm37.361-66.321c.917-.042 1.829-.063 2.733-.063 22.523 0 40.995 12.755 41.748 29.287.783 17.196-17.896 32.065-41.64 33.147-11.864.54-23.103-2.43-31.639-8.366-7.919-5.506-12.48-12.914-12.842-20.858-.783-17.196 17.897-32.066 41.64-33.147z"/></g></g></svg>