<?xml version="1.0" encoding="UTF-8" standalone="no"?>
<svg
   xmlns:dc="http://purl.org/dc/elements/1.1/"
   xmlns:cc="http://creativecommons.org/ns#"
   xmlns:rdf="http://www.w3.org/1999/02/22-rdf-syntax-ns#"
   xmlns:svg="http://www.w3.org/2000/svg"
   xmlns="http://www.w3.org/2000/svg"
   xmlns:sodipodi="http://sodipodi.sourceforge.net/DTD/sodipodi-0.dtd"
   xmlns:inkscape="http://www.inkscape.org/namespaces/inkscape"
   version="1.1"
   id="Capa_1"
   x="0px"
   y="0px"
   viewBox="0 0 58 58"
   style="enable-background:new 0 0 58 58;"
   xml:space="preserve"
   sodipodi:docname="planet_earth.svg"
   inkscape:version="1.0.1 (c497b03c, 2020-09-10)"><metadata
   id="metadata2203"><rdf:RDF><cc:Work
       rdf:about=""><dc:format>image/svg+xml</dc:format><dc:type
         rdf:resource="http://purl.org/dc/dcmitype/StillImage" /></cc:Work></rdf:RDF></metadata><defs
   id="defs2201" /><sodipodi:namedview
   pagecolor="#ffffff"
   bordercolor="#666666"
   borderopacity="1"
   objecttolerance="10"
   gridtolerance="10"
   guidetolerance="10"
   inkscape:pageopacity="0"
   inkscape:pageshadow="2"
   inkscape:window-width="1312"
   inkscape:window-height="886"
   id="namedview2199"
   showgrid="false"
   inkscape:zoom="7.8994556"
   inkscape:cx="29"
   inkscape:cy="29"
   inkscape:window-x="0"
   inkscape:window-y="23"
   inkscape:window-maximized="0"
   inkscape:current-layer="g2166"
   inkscape:document-rotation="0" />
<g
   id="g2166">
	<circle
   style="fill:#285680;stroke:#000000;stroke-width:0.37795276;stroke-miterlimit:4;stroke-dasharray:none"
   cx="29"
   cy="29"
   r="29"
   id="circle2148" />
	<g
   id="g2152"
   style="stroke:#000000;stroke-width:0.37795276;stroke-miterlimit:4;stroke-dasharray:none">
		<path
   style="fill:#24AE5F;stroke:#000000;stroke-width:0.37795276;stroke-miterlimit:4;stroke-dasharray:none"
   d="M29,0c-4.03,0-7.866,0.823-11.353,2.308c-0.159,0.949-0.952,2.57-0.928,3.087    c0.112,0.022,7.373-7.4,6.472-2.39C22.61,6.23,16.675,6.211,16.93,9.458c6.236,2.445,8.411-4.642,13.708-4.613    c1.767,0.01,6.292-2.784,7.155-2.215c3.496,2.303-0.799,10.467-3.474,7.75c-2.572-2.572-6.242,0.901-6.077,4.912    c1.337,0.06,1.908-3.796,3.11-2.51c1.324,1.417,0.846,4.27-0.986,4.925c-1.844,0.659-9.077-4.89-7.3-0.684    c1.954,4.668-5.854,8.275,2.028,6.393c3.716-0.891,2.481,1.937,4.234,3.286c2.088,1.603,1.164-2.214,2.686-1.633    c2.215,0.857-0.381,3.065,3.088,1.462c4.069-1.856,2.54,1.038,3.786,2.93c2.336,3.532,8.077,6.922,11.086,2.254    c0.709-1.101,0.254-9.807,4.72-3.967c2.836,3.71,1.863-4.383,2.247-6.509C53.547,8.993,42.327,0,29,0z"
   id="path2150" />
	</g>
	<path
   style="fill:#FAC176;stroke:#000000;stroke-width:0.37795276;stroke-miterlimit:4;stroke-dasharray:none"
   d="M32.919,42.082l-5.348-4.008l-3.585,0.141l-3.719-1.17l-2.911-2.007l-6.603,1.526L8.03,37.881   L5,41.963l1.072,4.784c0.306,0.395,0.623,0.782,0.949,1.161l5.608,2.618l3.785,0.511l2.252,4.622l0.068,0.465   C21.926,57.333,25.385,58,29,58c2.494,0,4.914-0.315,7.224-0.908l0.761-4.544l3.459-2.807l1.437-4.481l-7.222-0.03L32.919,42.082z"
   id="path2154" />
	<path
   style="fill:#88C057;stroke:#000000;stroke-width:0.37795276;stroke-miterlimit:4;stroke-dasharray:none"
   d="M0.375,33.647c0.138-0.012,0.156-0.024,0.168-0.036c1.297-1.296,2.377-1.513,3.458-3.458   c1.081-1.945-0.216-1.945,0-5.187c0.216-3.242-0.216-1.729,0-5.187c0.078-1.244-0.053-1.928-1.565-2.417C0.873,20.926,0,24.86,0,29   C0,30.582,0.131,32.133,0.375,33.647z"
   id="path2156" />
	<path
   style="fill:#fac176;stroke:#000000;stroke-width:0.37795276;stroke-miterlimit:4;stroke-dasharray:none"
   d="M 30,53 C 28.917,52.917 24.917,51.667 24,50 23.083,48.333 21.083324,45.500054 21,46 20.943324,46.340054 11.889,43.257 5.669,41.062 L 5,41.963 6.072,46.747 c 0.1092548,0.48757 0.4960125,0.94953 0.949,1.161 0,0 3.6285,2.037024 5.608,2.618 1.221586,0.358531 1.993606,0.145048 3.025454,0.890773 1.389032,1.003864 2.506233,2.604603 3.011546,4.242227 0.04619,0.149685 -3.185139,-0.767157 0.068,0.465 C 21.926,57.333 25.385,58 29,58 c 2.494,0 4.914,-0.315 7.224,-0.908 l 0.577,-3.445 C 36.292,53.488 35.705097,53.277753 35,53 c -2.749903,-1.083247 -3.917,0.083 -5,0 z"
   id="path2158"
   sodipodi:nodetypes="sssccsssssssccss" />
	<path
   style="fill:#88c057;stroke:#000000;stroke-width:0.37795276;stroke-miterlimit:4;stroke-dasharray:none"
   d="M 41.651111,50.465267 C 42.628267,49.029449 42.993976,46.5933 41.881,45.26 40.688372,43.83128 38.420068,45.732861 36.348955,44.505733 35.31732,43.894492 33.705447,42.986331 32.918,42.082 31.455075,40.401926 29.69697,38.736416 27.57,38.074 26.428169,37.718392 25.291114,38.131863 24.105711,37.973578 22.817577,37.801575 21.433804,37.615183 20.266,37.045 c -1.059106,-0.51711 -1.753217,-1.78644 -2.911,-2.007 -2.219106,-0.422745 -4.472459,0.775042 -6.603,1.526 -0.9506322,0.335072 -1.9455093,0.674321 -2.722,1.317 -1.0170438,0.841778 -2.361,3.18 -2.361,3.18 6.22,2.196 15.274324,5.279054 15.331,4.939 0.08332,-0.499946 2.083,2.333 3,4 0.917,1.667 4.917,2.917 6,3 1.083,0.083 2.250097,-1.083247 5,0 0.705097,0.277753 1.712945,1.172936 1.801,0.647 0.06133,-0.366333 -0.003,-0.778054 0.184,-1.099 0.747431,-1.283054 3.707805,-0.674614 4.666111,-2.082733 z"
   id="path2160"
   sodipodi:nodetypes="sssssssssscsssssss" />
	<path
   style="fill:#88C057;stroke:#000000;stroke-width:0.37795276;stroke-miterlimit:4;stroke-dasharray:none"
   d="M39.925,2.153c-0.194,3.66-0.337,6.305-0.337,6.305L34,14.046c0,0,5.238,7.508,5.588,8.381   c0.349,0.873,4.714,1.921,5.588,1.397c0.873-0.524,4.191-3.318,5.588-1.397c0.972,1.337,0.847,2.504,1.445,3.325   c0.412,0.006,0.927,0.283,1.569,0.93c0.908,0.272,1.943,0.539,2.865,0.762c0.306-1.79,0.079-4.983,0.299-6.205   C54.532,12.549,48.172,5.516,39.925,2.153z"
   id="path2162" />
	<path
   style="fill:#FAC176;stroke:#000000;stroke-width:0.37795276;stroke-miterlimit:4;stroke-dasharray:none"
   d="M43.33,3.806C43.148,7.26,43,10,43,10l-4,4c0,0,3.75,5.375,4,6s3.375,1.375,4,1s3-2.375,4-1   s0.375,2.5,2,3c1.373,0.423,3.267,0.842,3.825,0.962c0.008-1.112,0.011-2.141,0.116-2.723C54.876,13.787,49.903,7.555,43.33,3.806z   "
   id="path2164" />
</g>
<g
   id="g2168">
</g>
<g
   id="g2170">
</g>
<g
   id="g2172">
</g>
<g
   id="g2174">
</g>
<g
   id="g2176">
</g>
<g
   id="g2178">
</g>
<g
   id="g2180">
</g>
<g
   id="g2182">
</g>
<g
   id="g2184">
</g>
<g
   id="g2186">
</g>
<g
   id="g2188">
</g>
<g
   id="g2190">
</g>
<g
   id="g2192">
</g>
<g
   id="g2194">
</g>
<g
   id="g2196">
</g>
</svg>
