<svg enable-background="new 0 0 512 512" viewBox="0 0 512 512" xmlns="http://www.w3.org/2000/svg"><path d="m479.322 148.615h-34.487v214.77h34.487c15.65-32.487 24.42-68.912 24.42-107.385 0-38.472-8.77-74.898-24.42-107.385z" fill="#fd5f6e"/><path d="m418.708 383.037-73.233 94.858 40.577-11.011c25.101-15.513 47.228-35.375 65.321-58.545z" fill="#b440a1"/><path d="m367.496 463.348-111.496 40.394c47.703 0 92.249-13.496 130.051-36.858-6.365-1.101-12.545-2.283-18.555-3.536z" fill="#fd5f6e"/><path d="m256 8.258 162.708 120.705 32.666-25.302c-45.341-58.064-115.994-95.403-195.374-95.403z" fill="#fe4382"/><path d="m444.836 162.973c-30.772 19.524-51.201 53.886-51.201 93.027s20.429 73.502 51.201 93.027c9.576-28.725 14.863-60.123 14.863-93.027s-5.287-64.302-14.863-93.027z" fill="#fb7a5b"/><path d="m451.373 103.662c-11.474.832-22.333 1.94-32.666 3.28v28.016l26.127 28.016c10.437-6.623 22.061-11.545 34.487-14.358-7.716-16.02-17.112-31.077-27.948-44.954z" fill="#ff2796"/><path d="m444.836 349.027-26.127 28.016v28.016c10.332 1.34 21.19 2.448 32.666 3.28 10.836-13.878 20.232-28.934 27.949-44.954-12.427-2.814-24.051-7.735-34.488-14.358z" fill="#ff2796"/><path d="m393.634 256c0-39.141 20.429-73.502 51.201-93.027-6.71-20.129-15.527-38.942-26.127-56.032h-110.107l-296.435 105.003c-2.566 14.297-3.908 29.02-3.908 44.056s1.342 29.759 3.908 44.056l296.434 105.002h110.108c10.601-17.09 19.417-35.903 26.127-56.032-30.771-19.524-51.201-53.885-51.201-93.026z" fill="#fe4382"/><path d="m256 8.258c-35.466 0-69.183 7.469-99.687 20.893l-127.163 127.163c-7.733 17.571-13.498 36.204-16.984 55.631 212.007-1.004 240.687-83.486 406.541-105.002-37.178-59.936-96.219-98.685-162.707-98.685z" fill="#fd5f6e"/><path d="m125.646 125.646c26.258-26.258 36.48-62.478 30.668-96.495-56.673 24.942-102.221 70.489-127.163 127.163 34.015 5.811 70.236-4.411 96.495-30.668z" fill="#fbc566"/><path d="m12.166 300.056c4.216 23.488 11.755 45.819 22.092 66.509l194.911 96.782h138.327c19.711-15.71 37.049-35.458 51.211-58.29-165.854-21.515-194.535-103.997-406.541-105.001z" fill="#ff2796"/><path d="m229.169 415.468c-54.683-24.303-102.529-45.561-194.911-48.901 40.628 81.32 124.656 137.175 221.742 137.175 41.16 0 79.461-14.862 111.496-40.394-57.627-12.019-99.546-30.645-138.327-47.88z" fill="#fb7a5b"/><path d="m437.019 74.981c-48.353-48.353-112.639-74.981-181.019-74.981s-132.667 26.628-181.019 74.981-74.981 112.639-74.981 181.019 26.628 132.667 74.981 181.019 112.639 74.981 181.019 74.981 132.666-26.628 181.019-74.981c48.352-48.352 74.981-112.639 74.981-181.019s-26.629-132.667-74.981-181.019zm37.648 278.639c-43.168-12.736-72.774-51.956-72.774-97.62s29.607-84.884 72.774-97.62c13.369 29.831 20.817 62.871 20.817 97.62s-7.448 67.789-20.817 97.62zm-27.241 46.122c-86.041-6.875-135.641-28.892-188.071-52.191-59.867-26.603-121.74-54.091-240.152-55.685-1.765-11.703-2.687-23.679-2.687-35.866 0-12.188.922-24.163 2.687-35.866 118.425-1.599 180.291-29.084 240.152-55.685 52.43-23.299 102.03-45.316 188.071-52.191 7.389 9.816 14.036 20.219 19.87 31.121-21.692 7.039-41.173 20.361-55.636 38.245-16.949 20.959-26.284 47.373-26.284 74.377s9.335 53.418 26.284 74.377c14.464 17.884 33.944 31.206 55.636 38.245-5.834 10.9-12.48 21.303-19.87 31.119zm-12.682-302.938c-82.159 8.15-132.92 30.699-182.096 52.552-60.424 26.851-117.599 52.254-230.335 54.215 2.954-13.177 7-25.942 12.033-38.205 4.448.504 8.9.777 13.335.777 31.156-.001 61.45-12.302 83.805-34.657 25.538-25.541 37.949-61.436 33.895-97.148 27.969-11.475 58.564-17.822 90.619-17.822 70.989 0 134.851 31.059 178.744 80.288zm-285.312-55.226c1.739 28.933-8.932 57.533-29.627 78.228-19.238 19.238-45.302 29.823-72.118 29.82-2.03 0-4.067-.084-6.105-.206 23.257-46.594 61.254-84.589 107.85-107.842zm234.805 416.593c-64.651-11.567-108.906-31.224-151.714-50.25-26.146-11.621-50.843-22.596-79.757-31.331-4.366-1.317-8.974 1.152-10.293 5.517s1.152 8.975 5.517 10.293c27.927 8.435 52.165 19.207 77.826 30.612 37.562 16.694 79.581 35.359 136.316 47.625-32.006 15.893-68.04 24.847-106.132 24.847-88.552 0-166.029-48.313-207.466-119.962 24.654 1.478 47.069 4.389 68.136 8.849.577.122 1.152.181 1.719.181 3.819 0 7.248-2.664 8.071-6.549.945-4.462-1.906-8.845-6.369-9.79-24.684-5.227-51.066-8.404-80.492-9.695-7.527-15.824-13.365-32.597-17.287-50.089 112.737 1.961 169.911 27.364 230.335 54.215 49.176 21.853 99.937 44.402 182.096 52.552-14.744 16.538-31.738 31.028-50.506 42.975z"/><circle cx="331.523" cy="306.969" r="8.258"/><circle cx="298.491" cy="273.936" r="8.258"/><circle cx="335.002" cy="65.261" r="8.258"/></svg>