<svg id="Filled_Outline" height="512" viewBox="0 0 128 128" width="512" xmlns="http://www.w3.org/2000/svg" data-name="Filled Outline"><path d="m123.134 48.155a61.222 61.222 0 1 1 -37.119-41.279 61.221 61.221 0 0 1 37.119 41.279z" fill="#fff2d9"/><path d="m119.233 37.574a61.738 61.738 0 0 1 5.886 22.742c-1.678 2.2-6.675 9.708-19.6 13.285-8.424 2.33-19.966-.872-34.339 9.2a58.419 58.419 0 0 1 -27.128 10.842c-14.248 1.882-26.2 1.814-34.479-1.6a61.486 61.486 0 0 1 -6.273-20.043c14.29 9.819 98.177-3.672 115.933-34.426z" fill="#f9e5c7"/><path d="m109.72 23.28a60.9 60.9 0 0 1 9.51 14.3c-17.75 30.74-101.6 44.23-115.92 34.44a60.757 60.757 0 0 1 1.31-22.94c4.45 4.06 16.03-1.33 23.35-.07 14.93 2.58 26.84 4.39 36.22 1.41 13.3-4.23 19.77-14.16 28.02-16.83 9.67-3.14 16.23-5.04 17.51-10.31z" fill="#ff7f52"/><path d="m115.5 97.1a61.223 61.223 0 0 1 -78.154 22.018c26.63 3.868 58.88-7.951 78.154-22.018z" fill="#ffd0a1"/><path d="m112.837 83.484c5-4.569 7.292-4.47 11.622-9.792a61.351 61.351 0 0 1 -8.959 23.408c-21.411 15.486-51.643 25.967-78.154 22.018l-.012-.007a61.265 61.265 0 0 1 -20.421-15.981c12.959 3.506 24.763-.506 41.344-1.45 13.808-.78 21.191 2.739 32.236-1.2 12.801-4.58 17.353-12.439 22.344-16.996z" fill="#f9e5c7"/><path d="m125.119 60.316a60.361 60.361 0 0 1 -.653 13.364c0 .01 0 .01-.007.012-4.33 5.322-6.624 5.223-11.622 9.792s-9.543 12.416-22.344 16.992c-11.045 3.943-18.428.424-32.236 1.2-16.581.944-28.385 4.956-41.344 1.45h-.009a60.1 60.1 0 0 1 -7.331-11.084c8.276 3.415 20.231 3.483 34.479 1.6a58.419 58.419 0 0 0 27.129-10.842c14.373-10.071 25.919-6.869 34.339-9.2 12.924-3.576 17.921-11.085 19.599-13.284z" fill="#ff7f52"/><path d="m109.716 23.27c-1.265 5.287-7.816 7.188-17.5 10.322-8.251 2.667-14.72 12.6-28.02 16.826-9.396 2.982-21.296 1.182-36.232-1.402-7.318-1.269-18.885 4.129-23.349.066a61.552 61.552 0 0 1 8.016-18.382c2.159 1.45 6.764-.374 13.929.75 8.269 1.3 12.993 7 31.049 2.748a56.968 56.968 0 0 0 34.691-24.481 61.232 61.232 0 0 1 17.416 13.553z" fill="#f74b4b"/><path d="m83.175 5.856a59.685 59.685 0 0 1 9.125 3.861 56.968 56.968 0 0 1 -34.691 24.483c-18.056 4.248-22.78-1.444-31.049-2.748-7.165-1.124-11.77.7-13.929-.75a61.2 61.2 0 0 1 7.76-9.678c3 1.7 17.877 3 27.831 1.363 4-.647 11.542-1.395 18.313-6.533 6.265-4.754 13.654-9.084 16.64-9.998z" fill="#fff2d9"/><path d="m83.175 5.856c-2.986.914-10.377 5.244-16.64 10-6.771 5.138-14.314 5.886-18.313 6.533-9.954 1.642-24.829.337-27.831-1.363a61.258 61.258 0 0 1 62.784-15.17z" fill="#ffd0a1"/><path d="m97.918 84.949c.916 3.419-3.669 8.44-9.852 10.1s-11.937.228-12.853-3.191 3.334-8.646 9.517-10.3c7.631-2.051 12.27-.028 13.188 3.391z" fill="#ffe2bb"/><ellipse cx="88.729" cy="88.035" fill="#ff6f48" rx="2.627" ry="1.704" transform="matrix(.943 -.332 .332 .943 -24.204 34.47)"/><g fill="#473049"><ellipse cx="88.729" cy="88.035" rx="2.627" ry="1.704" transform="matrix(.943 -.332 .332 .943 -24.204 34.47)"/><path d="m94.278 79.766a18.5 18.5 0 0 0 -9.937.337 16.751 16.751 0 0 0 -8.154 4.944c-2.125 2.395-3.007 5.018-2.423 7.2.59 2.2 2.558 3.827 5.54 4.567a15.506 15.506 0 0 0 3.72.427 21.155 21.155 0 0 0 5.431-.742c6.889-1.846 12.09-7.534 10.912-11.933a7.018 7.018 0 0 0 -5.089-4.8zm-6.6 13.834a15.745 15.745 0 0 1 -7.652.3c-1.847-.458-3.073-1.344-3.364-2.432-.309-1.152.369-2.848 1.77-4.428a13.923 13.923 0 0 1 6.686-4.04 20.317 20.317 0 0 1 5.232-.77 10.506 10.506 0 0 1 3.055.406 4.186 4.186 0 0 1 3.064 2.7c.65 2.429-3.358 6.805-8.791 8.264z"/><path d="m124.58 47.768a62.741 62.741 0 1 0 -44.348 76.812 62.787 62.787 0 0 0 44.348-76.812zm-76.035-41.45a59.243 59.243 0 0 1 30.261-.153 102.352 102.352 0 0 0 -13.176 8.491c-5.848 4.439-12.225 5.417-16.444 6.065-.432.066-.836.128-1.21.19a79.023 79.023 0 0 1 -24.75-.518 59.34 59.34 0 0 1 25.319-14.075zm-27.759 16.494c3.178 1.086 9.962 1.818 16.783 1.818a69.852 69.852 0 0 0 10.893-.759c.364-.06.758-.121 1.179-.185 4.245-.651 11.349-1.742 17.8-6.64 6.019-4.568 12.728-8.495 15.695-9.593a60.2 60.2 0 0 1 6.916 2.847c-8.385 11.74-19.402 19.3-32.788 22.442-12.6 2.962-18.27.994-23.758-.908a37.767 37.767 0 0 0 -6.712-1.865 40.248 40.248 0 0 0 -9.122-.271c-.952.056-1.839.107-2.571.088a60.074 60.074 0 0 1 5.685-6.974zm-7.51 9.757a16.333 16.333 0 0 0 4.57.124 37.549 37.549 0 0 1 8.482.24 35.413 35.413 0 0 1 6.2 1.735 36.9 36.9 0 0 0 13.261 2.583 53.124 53.124 0 0 0 12.161-1.589c14.25-3.35 25.941-11.418 34.787-23.962a60.062 60.062 0 0 1 15.28 11.977c-1.486 3.718-6.99 5.494-15.068 8.1l-1.206.389c-3.876 1.254-7.348 3.979-11.024 6.864-4.583 3.6-9.778 7.672-16.982 9.959-8.874 2.819-20.318 1.177-35.515-1.45-3.316-.573-7.269.088-11.092.728-4.158.7-8.437 1.406-10.762.207a60.1 60.1 0 0 1 6.908-15.905zm-7.633 18.876c3.144 1.253 7.461.533 11.982-.223 3.577-.6 7.276-1.216 10.085-.731 9.727 1.681 17.971 2.967 25.1 2.967a38.873 38.873 0 0 0 11.831-1.613c7.72-2.452 13.141-6.706 17.924-10.459 3.611-2.833 6.73-5.28 10.1-6.369l1.2-.389c7.8-2.514 13.748-4.447 16.264-8.529a59.2 59.2 0 0 1 7.38 11.412c-8.073 13.074-30.543 24.857-60.409 31.621-23.081 5.227-45.249 6.032-52.385 1.984a59.2 59.2 0 0 1 .928-19.671zm.675 28.011c-.431-1.611-.774-3.224-1.067-4.837 3.7 1.35 9.221 2.02 15.937 2.02a172.694 172.694 0 0 0 36.576-4.581c14.372-3.255 48.178-12.672 61.223-31.336a59.3 59.3 0 0 1 4.582 19.158c-1.876 2.514-6.806 9.051-18.447 12.274a42.67 42.67 0 0 1 -8.282 1.074c-7.214.5-16.192 1.11-26.518 8.344a57.347 57.347 0 0 1 -26.466 10.588c-15 1.972-25.86 1.541-33.2-1.3a59.775 59.775 0 0 1 -4.338-11.404zm73.137 42.226a59.354 59.354 0 0 1 -32.055-.336c.233 0 .464.011.7.011 21.651 0 44.642-8.327 60.963-18.2a59.368 59.368 0 0 1 -29.608 18.525zm34.866-25.59c-18.1 13.1-49.554 25.341-76.412 21.574a60.124 60.124 0 0 1 -16.772-12.121 47.166 47.166 0 0 0 7.04.5 121.725 121.725 0 0 0 15.423-1.345c4.627-.6 9.411-1.214 14.741-1.516a96.354 96.354 0 0 1 13.386.328c6.52.494 12.153.921 19.278-1.626 10.135-3.625 15.259-9.215 19.377-13.706 1.206-1.316 2.346-2.56 3.474-3.589a39.851 39.851 0 0 1 4.947-3.83 36.873 36.873 0 0 0 3.118-2.3 60.113 60.113 0 0 1 -7.6 17.631zm8.685-23.015a24.479 24.479 0 0 1 -5.9 5.2 43.16 43.16 0 0 0 -5.279 4.093c-1.225 1.119-2.409 2.41-3.662 3.777-3.894 4.247-8.74 9.534-18.175 12.908-6.523 2.332-11.605 1.947-18.042 1.46a98.589 98.589 0 0 0 -13.782-.332c-5.438.308-10.276.932-14.955 1.536-9.179 1.184-17.132 2.2-25.408.087a59.223 59.223 0 0 1 -5-7.1 56.6 56.6 0 0 0 14.668 1.656 130 130 0 0 0 16.778-1.234 60.182 60.182 0 0 0 27.8-11.106c9.644-6.755 17.8-7.315 25-7.809a45.366 45.366 0 0 0 8.878-1.175c9.423-2.609 14.8-7.242 17.781-10.566a59.165 59.165 0 0 1 -.702 8.605z"/></g></svg>