<?xml version="1.0" encoding="UTF-8" standalone="no"?>
<svg
   xmlns:dc="http://purl.org/dc/elements/1.1/"
   xmlns:cc="http://creativecommons.org/ns#"
   xmlns:rdf="http://www.w3.org/1999/02/22-rdf-syntax-ns#"
   xmlns:svg="http://www.w3.org/2000/svg"
   xmlns="http://www.w3.org/2000/svg"
   xmlns:sodipodi="http://sodipodi.sourceforge.net/DTD/sodipodi-0.dtd"
   xmlns:inkscape="http://www.inkscape.org/namespaces/inkscape"
   version="1.1"
   id="Layer_1"
   x="0px"
   y="0px"
   viewBox="0 0 512 512"
   style="enable-background:new 0 0 512 512;"
   xml:space="preserve"
   sodipodi:docname="biology.svg"
   inkscape:version="1.0.1 (c497b03c, 2020-09-10)"><metadata
   id="metadata910"><rdf:RDF><cc:Work
       rdf:about=""><dc:format>image/svg+xml</dc:format><dc:type
         rdf:resource="http://purl.org/dc/dcmitype/StillImage" /></cc:Work></rdf:RDF></metadata><defs
   id="defs908" /><sodipodi:namedview
   pagecolor="#ffffff"
   bordercolor="#666666"
   borderopacity="1"
   objecttolerance="10"
   gridtolerance="10"
   guidetolerance="10"
   inkscape:pageopacity="0"
   inkscape:pageshadow="2"
   inkscape:window-width="1792"
   inkscape:window-height="1120"
   id="namedview906"
   showgrid="false"
   inkscape:zoom="2.1822716"
   inkscape:cx="250.92177"
   inkscape:cy="203.85"
   inkscape:window-x="0"
   inkscape:window-y="0"
   inkscape:window-maximized="0"
   inkscape:current-layer="Layer_1"
   inkscape:document-rotation="0" />
<path
   style="fill:#0bdebe;fill-opacity:1"
   d="M264.551,277.377l7.48,52.363c1.038,7.266,2.823,14.415,5.611,21.206  c6.577,16.023,21.851,43.911,55.318,71.801c13.33,11.109,20.738,28.285,23.86,37.105c1.209,3.415,4.415,5.651,8.037,5.651h13.113  c3.676,0,6.908-2.342,8.101-5.82c3.95-11.513,15.155-38.895,40.951-71.14c26.71-33.387,54.514-97.269-22.447-131.474  l-137.887-12.827L264.551,277.377z"
   id="path833" />

<path
   style="fill:#0bdebe;fill-opacity:1"
   d="M469.779,46.496c17.102,0,34.205,6.777,34.205,25.653c0,25.653-17.102,153.921-51.307,179.574  c-24.666,18.499-188.125,0-188.125,0v-17.102C264.551,234.621,392.818,46.496,469.779,46.496z"
   id="path837" />
<path
   style="fill:#09ac93;fill-opacity:1"
   d="M265.429,242.103c21.738,53.065,57.75,132.718,85.87,193.896  c-51.808-39.844-68.175-71.466-74.191-86.122c-2.787-6.791-4.572-13.939-5.611-21.206l-7.48-52.364L265.429,242.103z"
   id="path839" />
<path
   style="fill:#463246;"
   d="M469.779,46.496c17.102,0,34.205,6.777,34.205,25.653c0,5.805-0.885,16.893-2.637,30.827  c-15.536-11.082-98.093-16.524-171.798,47.63C372.618,100.475,428.551,46.496,469.779,46.496z"
   id="path841" />
<g
   id="g849">
	
	
	
</g>
<path
   style="fill:#0bdebe;fill-opacity:1"
   d="M247.449,277.377l-7.48,52.363c-1.038,7.266-2.823,14.415-5.611,21.206  c-6.577,16.023-21.851,43.911-55.318,71.801c-13.33,11.109-20.738,28.285-23.86,37.105c-1.209,3.415-4.415,5.651-8.037,5.651H134.03  c-3.676,0-6.908-2.342-8.101-5.82c-3.95-11.513-15.155-38.895-40.951-71.14c-26.71-33.387-54.514-97.269,22.447-131.474  l137.887-12.827L247.449,277.377z"
   id="path851" />

<path
   style="fill:#0bdebe;fill-opacity:1"
   d="M42.221,46.496c-17.102,0-34.205,6.777-34.205,25.653c0,25.653,17.102,153.921,51.307,179.574  c24.666,18.499,188.125,0,188.125,0v-17.102C247.449,234.621,119.182,46.496,42.221,46.496z"
   id="path855" />
<path
   style="fill:#09ac93;fill-opacity:1"
   d="M246.571,242.103c-21.738,53.065-57.75,132.718-85.87,193.896  c51.808-39.844,68.175-71.466,74.191-86.122c2.787-6.791,4.572-13.939,5.611-21.206l7.48-52.364L246.571,242.103z"
   id="path857" />
<g
   id="g863"
   style="fill:#07816e;fill-opacity:1">
	<path
   style="fill:#07816e;fill-opacity:1"
   d="M256,277.377L256,277.377c-9.446,0-17.102-7.656-17.102-17.102v-25.653   c0-9.446,7.656-17.102,17.102-17.102l0,0c9.446,0,17.102,7.656,17.102,17.102v25.653C273.102,269.72,265.446,277.377,256,277.377z"
   id="path859" />
	<path
   style="fill:#07816e;fill-opacity:1"
   d="M42.221,46.496c-17.102,0-34.205,6.777-34.205,25.653c0,5.805,0.885,16.893,2.637,30.827   c15.536-11.082,98.093-16.524,171.798,47.63C139.382,100.475,83.449,46.496,42.221,46.496z"
   id="path861" />
</g>
<g
   id="g871">
	
	
	<g
   id="g927"
   style="fill:#09bca1;fill-opacity:1"><path
     style="enable-background:new 0 0 512 512;fill:#09bca1;fill-opacity:1"
     d="M404.576,257.068c16.12,7.165,27.592,15.641,35.493,24.857  c-42.148,5.517-116.785,5.862-175.324-3.186l-0.195-1.361l2.138-33.136L404.576,257.068z"
     id="path835" /><path
     style="enable-background:new 0 0 512 512;fill:#09bca1;fill-opacity:1"
     d="M469.779,46.496c17.102,0,34.205,6.777,34.205,25.653c0,9.302-2.261,32.112-6.757,58.61   c-26.826-10.873-83.486-9.905-198.022,56.962C342.697,132.003,417.879,46.496,469.779,46.496z"
     id="path843" /><path
     style="enable-background:new 0 0 512 512;fill:#09bca1;fill-opacity:1"
     d="M490.414,165.178c-1.301,5.685-2.688,11.35-4.174,16.921c-30.088-2.189-75.51-3.109-123.408,4.665   l-2.74-16.877C411.641,161.506,459.539,162.738,490.414,165.178z"
     id="path845" /><path
     style="enable-background:new 0 0 512 512;fill:#09bca1;fill-opacity:1"
     d="M465.185,236.865c-32.565-7.228-88.675-17.684-148.191-19.705l0.585-17.094   c63.411,2.155,123.017,13.67,155.581,21.069C470.654,226.942,467.996,232.24,465.185,236.865z"
     id="path847" /><path
     style="enable-background:new 0 0 512 512;fill:#09bca1;fill-opacity:1"
     d="M107.424,257.068c-16.12,7.165-27.592,15.641-35.493,24.857  c42.148,5.517,116.785,5.862,175.324-3.186l0.195-1.361l-2.138-33.136L107.424,257.068z"
     id="path853" /><path
     style="fill:#09bca1;fill-opacity:1"
     d="M42.221,46.496c-17.102,0-34.205,6.777-34.205,25.653c0,9.302,2.261,32.112,6.756,58.61   c26.826-10.873,83.486-9.905,198.022,56.962C169.303,132.003,94.121,46.496,42.221,46.496z"
     id="path865" /><path
     style="fill:#09bca1;fill-opacity:1"
     d="M21.586,165.178c1.301,5.685,2.688,11.35,4.174,16.921c30.088-2.189,75.51-3.109,123.408,4.665   l2.74-16.877C100.359,161.506,52.461,162.738,21.586,165.178z"
     id="path867" /><path
     style="fill:#09bca1;fill-opacity:1"
     d="M46.815,236.865c32.565-7.228,88.675-17.684,148.191-19.705l-0.585-17.094   c-63.411,2.155-123.017,13.67-155.581,21.069C41.346,226.942,44.004,232.24,46.815,236.865z"
     id="path869" /></g>
</g>
<path
   d="m 499.516,165.123 c 8.494,-38.222 13.018,-77.714 13.018,-91.526 0,-20.454 -16.573,-33.67 -42.221,-33.67 -34.32,0 -79.14,31.123 -133.213,92.504 -26.721,30.332 -49.278,60.947 -61.149,77.688 l 13.946,-48.809 c 1.216,-4.257 -1.248,-8.694 -5.506,-9.911 -4.254,-1.215 -8.693,1.248 -9.911,5.506 l -15.477,54.166 c -0.812,-0.08 -1.636,-0.123 -2.469,-0.123 -0.833,0 -1.657,0.043 -2.469,0.123 l -15.477,-54.166 c -1.216,-4.257 -5.653,-6.723 -9.911,-5.506 -4.256,1.216 -6.722,5.653 -5.506,9.911 l 13.946,48.809 C 225.247,193.377 202.689,162.763 175.968,132.431 121.895,71.05 77.075,39.927 42.755,39.927 c -25.648,0 -42.221004,13.216 -42.221004,33.67 0,13.812 4.524,53.304 13.018,91.526 C 24.759,215.558 38.721,247.339 55.048,259.584 c 3.458,2.593 9.292,5.47 21.861,7.44 -15.059,10.797 -24.526,23.864 -28.223,39.043 -7.828,32.137 12.301,66.098 30.566,88.93 25.36,31.698 36.162,58.628 39.628,68.734 2.306,6.72 8.609,11.235 15.684,11.235 h 13.075 c 0.011,0 0.022,0.002 0.034,0.002 0.017,0 0.034,-0.003 0.051,-0.004 6.981,-0.019 13.225,-4.431 15.548,-10.99 2.954,-8.348 9.668,-23.816 21.433,-33.621 33.733,-28.111 49.944,-56.255 57.603,-74.916 2.877,-7.013 4.94,-14.789 6.13,-23.116 l 6.505,-45.536 c 0.527,0.033 1.056,0.056 1.591,0.056 0.534,0 1.064,-0.022 1.591,-0.056 l 6.505,45.536 c 1.19,8.327 3.252,16.103 6.13,23.116 7.66,18.661 23.871,46.805 57.603,74.916 11.765,9.805 18.479,25.274 21.435,33.622 2.323,6.56 8.567,10.97 15.547,10.989 0.017,0 0.034,0.004 0.052,0.004 0.011,0 0.022,-0.002 0.034,-0.002 h 13.075 c 7.076,0 13.378,-4.515 15.684,-11.235 3.467,-10.106 14.27,-37.035 39.628,-68.734 18.264,-22.831 38.394,-56.792 30.566,-88.93 -3.697,-15.18 -13.166,-28.248 -28.224,-39.045 12.569,-1.971 18.405,-4.846 21.862,-7.44 16.325,-12.243 30.287,-44.024 41.494,-94.459 z m -3.015,-91.526 c 0,3.999 -0.359,9.863 -1.059,17.048 -15.965,-2.836 -56.27,-5.368 -117.577,21.787 46.326,-45.845 75.436,-56.472 92.449,-56.472 23.635,10e-4 26.187,12.334 26.187,17.637 z m -150.766,73.315 c 22.054,-12.807 52.71,-27.975 85.38,-36.089 -58.735,55.36 -112.84,90.412 -140.906,106.904 11.369,-15.961 31.566,-43.234 55.526,-70.815 z m -178.398,0.004 c 23.951,27.572 44.161,54.864 55.532,70.828 -28.053,-16.474 -82.153,-51.512 -140.982,-106.981 22.941,5.677 51.549,16.461 85.45,36.153 z M 42.755,55.961 c 17.009,0 46.118,10.624 92.448,56.472 C 73.895,85.277 33.592,87.809 17.627,90.646 16.927,83.461 16.568,77.596 16.568,73.597 16.567,68.294 19.119,55.961 42.755,55.961 Z M 19.476,106.6 c 5.78,-1.115 17.311,-2.511 34.249,-0.814 82.661,82.427 158.62,125.119 177.69,135.175 v 5.045 c -13.034,1.422 -42.347,4.406 -73.036,6.101 -74.823,4.133 -90.644,-3.051 -93.711,-5.35 C 41.685,229.521 25.71,153.882 19.476,106.6 Z m 44.788,203.263 c 4.016,-16.491 17.855,-30.141 41.11,-40.584 3.647,0.096 7.55,0.149 11.745,0.149 11.702,0 25.625,-0.397 42.218,-1.314 14.8,-0.819 29.272,-1.933 41.804,-3.03 L 65.924,339.451 c -3.775,-12.602 -3.409,-22.411 -1.66,-29.588 z m 7.613,44.581 c 0.131,-0.064 0.265,-0.114 0.394,-0.186 L 210.694,278.125 110.716,411.429 C 105.456,403.156 99.201,394.271 91.77,384.981 82.731,373.682 76.32,363.516 71.877,354.444 Z m 62.168,104.085 c -2.472,-7.208 -6.937,-18.388 -14.488,-32.165 L 220.644,291.582 142.571,458.933 h -8.007 c -0.28,0 -0.451,-0.208 -0.519,-0.404 z m 93.43,-109.179 c -5.201,12.671 -17.698,36.566 -44.746,61.428 l 55.212,-118.346 -5.374,37.622 c -1.003,7.016 -2.716,13.507 -5.092,19.296 z m 19.973,-87.627 V 236.07 c 0,-5.01 4.076,-9.086 9.086,-9.086 5.01,0 9.086,4.076 9.086,9.086 v 25.653 c 0,5.01 -4.076,9.086 -9.086,9.086 -5.01,-0.001 -9.086,-4.077 -9.086,-9.086 z m 38.145,87.627 c -2.376,-5.788 -4.089,-12.279 -5.09,-19.296 l -5.374,-37.622 55.212,118.346 C 303.29,385.916 290.793,362.021 285.593,349.35 Z m 93.43,109.178 c -0.067,0.197 -0.238,0.405 -0.518,0.405 h -8.007 L 292.424,291.582 393.51,426.364 c -7.551,13.776 -12.015,24.958 -14.487,32.164 z m 42.275,-73.547 c -7.431,9.29 -13.687,18.174 -18.946,26.448 l -99.978,-133.304 138.423,76.133 c 0.129,0.071 0.263,0.122 0.394,0.185 -4.443,9.073 -10.854,19.239 -19.893,30.538 z m 27.506,-75.118 c 1.749,7.178 2.114,16.986 -1.66,29.589 L 311.927,265.083 c 12.533,1.098 27.005,2.213 41.804,3.03 16.598,0.918 30.514,1.314 42.218,1.314 4.195,0 8.098,-0.052 11.745,-0.149 23.256,10.444 37.094,24.093 41.11,40.585 z M 448.4,246.758 c -3.067,2.299 -18.891,9.483 -93.711,5.35 -30.689,-1.694 -60.002,-4.68 -73.036,-6.101 v -5.045 c 19.067,-10.054 95,-52.733 177.643,-135.13 16.854,-1.691 28.457,-0.308 34.293,0.796 -6.237,47.284 -22.211,122.896 -45.189,140.13 z"
   id="path873"
   style="fill:#089b85;fill-opacity:1" />
<g
   id="g875">
</g>
<g
   id="g877">
</g>
<g
   id="g879">
</g>
<g
   id="g881">
</g>
<g
   id="g883">
</g>
<g
   id="g885">
</g>
<g
   id="g887">
</g>
<g
   id="g889">
</g>
<g
   id="g891">
</g>
<g
   id="g893">
</g>
<g
   id="g895">
</g>
<g
   id="g897">
</g>
<g
   id="g899">
</g>
<g
   id="g901">
</g>
<g
   id="g903">
</g>
<rect
   style="fill:#0ac2a6;fill-opacity:1;stroke-width:1.88976;stroke-linecap:round"
   id="rect912"
   width="84.849915"
   height="99.557236"
   x="-266.99442"
   y="23.757977"
   rx="14246.9" /></svg>
