<?xml version="1.0" encoding="UTF-8" standalone="no"?>
<svg
   xmlns:dc="http://purl.org/dc/elements/1.1/"
   xmlns:cc="http://creativecommons.org/ns#"
   xmlns:rdf="http://www.w3.org/1999/02/22-rdf-syntax-ns#"
   xmlns:svg="http://www.w3.org/2000/svg"
   xmlns="http://www.w3.org/2000/svg"
   xmlns:sodipodi="http://sodipodi.sourceforge.net/DTD/sodipodi-0.dtd"
   xmlns:inkscape="http://www.inkscape.org/namespaces/inkscape"
   id="Capa_1"
   enable-background="new 0 0 511.99 511.99"
   height="512"
   viewBox="0 0 511.99 511.99"
   width="512"
   version="1.1"
   sodipodi:docname="chemistry.svg"
   inkscape:version="1.0.1 (c497b03c, 2020-09-10)">
  <metadata
     id="metadata888">
    <rdf:RDF>
      <cc:Work
         rdf:about="">
        <dc:format>image/svg+xml</dc:format>
        <dc:type
           rdf:resource="http://purl.org/dc/dcmitype/StillImage" />
      </cc:Work>
    </rdf:RDF>
  </metadata>
  <defs
     id="defs886" />
  <sodipodi:namedview
     pagecolor="#ffffff"
     bordercolor="#666666"
     borderopacity="1"
     objecttolerance="10"
     gridtolerance="10"
     guidetolerance="10"
     inkscape:pageopacity="0"
     inkscape:pageshadow="2"
     inkscape:window-width="1792"
     inkscape:window-height="991"
     id="namedview884"
     showgrid="false"
     inkscape:zoom="1.3352219"
     inkscape:cx="75.254978"
     inkscape:cy="242.37431"
     inkscape:window-x="0"
     inkscape:window-y="23"
     inkscape:window-maximized="0"
     inkscape:current-layer="Capa_1"
     inkscape:document-rotation="0" />
  <path
     d="m 475.936,313.675 c -1.09,37.39 -31.58,67.44 -68.99,67.54 h -1.35 c -37.41,-0.1 -67.91,-30.15 -68.99,-67.54 -2.61,-89.55 -1.89,-179.11 2.18,-268.66 3.23,-0.86 6.47,-1.66 9.7,-2.4 7.3,-1.67 14.6,-3.02 21.89,-4.04 23.93,-3.4 47.86,-3.4 71.78,0 10.53,1.48 21.06,3.63 31.6,6.44 0.62,13.73 1.17,27.46 1.63,41.19 2.58,75.82 2.76,151.65 0.55,227.47 z"
     fill="#ecf4ff"
     id="path833"
     style="fill:#ffd9ca;fill-opacity:1" />
  <path
     d="m 366.351,313.673 c -1.162,-69.359 -1.158,-138.717 -0.023,-208.076 0.176,-10.756 8.927,-19.392 19.685,-19.392 h 89.374 c -0.46,-13.73 -1.01,-27.46 -1.63,-41.19 -10.54,-2.81 -74.364,-8.994 -67.513,-8.994 -11.959,0 -64.228,8.136 -67.463,8.999 -4.068,89.551 -4.791,179.102 -2.18,268.653 1.09,37.389 31.573,67.441 68.984,67.538 h 0.291 c -21.43,-0.096 -38.91,-30.149 -39.525,-67.538 z"
     fill="#ddeafb"
     id="path835"
     style="fill:#ffc3ad;fill-opacity:1" />
  <path
     d="m 446.814,312.823 c -0.637,21.959 -18.193,39.202 -39.947,39.256 h -1.209 c -21.743,-0.054 -39.299,-17.297 -39.936,-39.256 -1.511,-51.773 -1.888,-103.967 -1.133,-156.085 30.58,-9.107 49.486,27.354 83.605,22.369 0.379,44.672 -0.085,89.356 -1.38,133.716 z"
     fill="#d57080"
     id="path837"
     style="fill:#ffb89c;fill-opacity:1" />
  <path
     d="M 472.67,7.5 H 339.866 c -15.752,0 -28.522,12.77 -28.522,28.522 0,15.752 12.77,28.522 28.522,28.522 H 472.67 c 15.752,0 28.522,-12.77 28.522,-28.522 C 501.192,20.27 488.423,7.5 472.67,7.5 Z"
     fill="#ecf4ff"
     id="path839"
     style="fill:#ffd9ca;fill-opacity:1" />
  <path
     d="m 374.765,56.182 c 5.155,5.165 12.282,8.358 20.16,8.358 h -55.064 c -7.868,0 -15.004,-3.193 -20.16,-8.358 -5.165,-5.155 -8.358,-12.282 -8.358,-20.16 0,-15.755 12.773,-28.527 28.518,-28.527 h 55.064 c -15.745,0 -28.518,12.773 -28.518,28.527 0,7.878 3.194,15.005 8.358,20.16 z"
     fill="#ddeafb"
     id="path841"
     style="fill:#ffc3ad;fill-opacity:1" />
  <path
     d="m 423.737,427.3 c 0,34.741 -48.235,77.185 -206.472,77.185 -158.228,0 -206.472,-42.445 -206.472,-77.185 0,-31.038 39.896,-135.837 149.129,-226.776 v -75.791 l 59.488,-16.755 55.198,16.755 v 75.791 C 383.851,291.463 423.737,396.262 423.737,427.3 Z"
     fill="#ecf4ff"
     id="path847"
     style="fill:#ffd9ca;fill-opacity:1" />
  <path
     d="m 274.608,124.733 -55.198,-16.755 -59.488,16.755 v 23.978 h 0.004 v 51.817 C 50.693,291.468 10.797,396.267 10.797,427.305 c 0,28.989 33.596,63.345 136.664,73.925 -8.098,-14.581 -11.292,-31.547 -11.292,-47.09 0,-33.798 15.668,-147.889 58.574,-246.897 v -32.069 c 0,-14.615 11.847,-26.462 26.462,-26.462 h 53.402 v -23.979 z"
     fill="#ddeafb"
     id="path849"
     style="fill:#ffc3ad;fill-opacity:1" />
  <path
     d="m 211.629,289.914 c 51.057,-21.74 83.411,-18.723 117.264,15.13 l -18.141,91.215 -120.903,-45.73 z"
     fill="#78c2a4"
     id="path851"
     style="fill:#ff9b73;fill-opacity:1" />
  <path
     d="m 390.074,427.3 c 0,3.867 -6.531,12.696 -24.545,21.15 -21.727,10.205 -65.095,22.372 -148.263,22.372 -32.567,0 -59.017,-1.866 -80.465,-4.742 -33.336,-4.482 -54.564,-11.417 -67.789,-17.63 -18.015,-8.454 -24.555,-17.284 -24.555,-21.15 0,-7.521 7.137,-35.577 29.191,-74.252 10.705,-18.784 26.671,-43.06 49.341,-69.328 0.01,-0.01 0.019,-0.019 0.029,-0.019 14.62,-14.312 30.797,-16.149 47.841,-11.84 51.159,12.908 110.128,81.09 158.035,33.183 13.783,17.995 24.267,34.433 32,48.004 22.053,38.675 29.18,66.731 29.18,74.252 z"
     fill="#95d6a4"
     id="path853"
     style="fill:#ffb89c;fill-opacity:1" />
  <path
     d="m 136.165,454.135 c 0,3.914 0.202,7.916 0.635,11.946 -33.336,-4.482 -54.564,-11.417 -67.789,-17.63 -18.015,-8.454 -24.555,-17.284 -24.555,-21.15 0,-7.521 7.137,-35.577 29.191,-74.252 10.705,-18.784 26.671,-43.06 49.341,-69.328 0.01,-0.01 0.019,-0.019 0.029,-0.019 14.62,-14.312 30.797,-16.149 47.841,-11.84 -25.007,79.484 -34.693,155.698 -34.693,182.273 z"
     fill="#78c2a4"
     id="path855"
     style="fill:#ff9b73;fill-opacity:1" />
  <path
     d="M 270.183,67.69 H 164.355 c -15.752,0 -28.522,12.77 -28.522,28.522 0,15.752 12.77,28.522 28.522,28.522 h 105.828 c 15.752,0 28.522,-12.77 28.522,-28.522 0,-15.753 -12.77,-28.522 -28.522,-28.522 z"
     fill="#ecf4ff"
     id="path857"
     style="fill:#ffd9ca;fill-opacity:1" />
  <path
     d="m 199.255,116.371 c 5.155,5.165 12.282,8.358 20.16,8.358 H 164.35 c -7.868,0 -15.004,-3.193 -20.16,-8.358 -5.165,-5.155 -8.358,-12.282 -8.358,-20.16 0,-15.755 12.773,-28.527 28.518,-28.527 h 55.064 c -15.745,0 -28.518,12.773 -28.518,28.527 0,7.878 3.194,15.005 8.359,20.16 z"
     fill="#ddeafb"
     id="path859"
     style="fill:#ffc3ad;fill-opacity:1" />
  <g
     fill="#78c2a4"
     id="g865"
     style="fill:#ff9b73;fill-opacity:1">
    <circle
       cx="164.75301"
       cy="408.76501"
       r="25.096001"
       id="circle861"
       style="fill:#ff9b73;fill-opacity:1" />
    <circle
       cx="245.177"
       cy="381.21799"
       r="15.041"
       id="circle863"
       style="fill:#ff9b73;fill-opacity:1" />
  </g>
  <g
     id="g879"
     style="fill:#fb4700;fill-opacity:1">
    <path
       d="M 508.692,36.022 C 508.692,16.16 492.533,0 472.67,0 H 339.866 c -19.863,0 -36.022,16.16 -36.022,36.022 0,16.521 11.184,30.471 26.376,34.7 -2.143,56.254 -2.983,113.136 -2.498,169.487 -13.367,-14.22 -28.504,-28.761 -45.61,-43.187 v -66.827 c 14.016,-4.935 24.093,-18.301 24.093,-33.983 0,-19.863 -16.16,-36.022 -36.022,-36.022 H 164.355 c -19.863,0 -36.022,16.16 -36.022,36.022 0,15.683 10.077,29.049 24.093,33.983 v 66.827 C 93.271,246.909 57.53,298.198 37.883,332.663 c -25.528,44.78 -34.585,78.97 -34.585,94.642 0,13.356 6.263,38.704 48.211,58.406 37.125,17.437 92.895,26.279 165.761,26.279 72.865,0 128.635,-8.842 165.761,-26.279 41.947,-19.703 48.21,-45.05 48.21,-58.406 0,-8.436 -2.631,-22.246 -9.037,-40.178 15.135,-3.12 29.047,-10.789 39.904,-22.167 13.194,-13.827 20.766,-31.963 21.322,-51.07 1.628,-56.028 1.958,-112.776 0.982,-168.669 -0.073,-4.141 -3.478,-7.449 -7.63,-7.368 -4.142,0.072 -7.44,3.488 -7.368,7.63 0.972,55.661 0.643,112.175 -0.978,167.971 -0.877,30.107 -22.76,54.782 -51.773,59.453 -1.816,-4.323 -3.823,-8.823 -6.035,-13.494 24.074,-1.927 42.96,-21.617 43.681,-46.371 1.298,-44.266 1.763,-89.352 1.383,-134.004 -0.018,-2.167 -0.973,-4.221 -2.619,-5.631 -1.646,-1.411 -3.823,-2.042 -5.966,-1.726 -14.142,2.065 -25.503,-4.455 -37.527,-11.361 -13.332,-7.658 -28.44,-16.335 -47.126,-10.776 -3.142,0.935 -5.312,3.801 -5.36,7.079 -0.573,39.088 -0.487,78.655 0.236,117.94 -4.506,-5.72 -9.309,-11.565 -14.427,-17.502 -0.82,-61.4 -0.048,-123.583 2.279,-185.017 h 122.193 c 0.558,14.765 1.029,29.477 1.39,43.827 0.103,4.077 3.439,7.311 7.494,7.311 0.063,0 0.128,-0.001 0.192,-0.002 4.141,-0.104 7.413,-3.546 7.309,-7.687 -0.37,-14.659 -0.852,-29.694 -1.425,-44.776 15.182,-4.235 26.357,-18.18 26.357,-34.695 z m -365.359,60.19 c 0,-11.592 9.431,-21.022 21.022,-21.022 h 105.828 c 11.592,0 21.022,9.431 21.022,21.022 0,11.591 -9.431,21.022 -21.022,21.022 H 164.355 c -11.592,0 -21.022,-9.43 -21.022,-21.022 z m 233.319,375.922 c -35.115,16.493 -88.739,24.856 -159.383,24.856 -146.862,0 -198.972,-37.539 -198.972,-69.685 0,-20.61 16.908,-59.657 32.617,-87.213 19.33,-33.909 54.767,-84.648 113.811,-133.805 1.711,-1.425 2.701,-3.537 2.701,-5.764 v -68.288 h 99.686 v 68.289 c 0,2.227 0.99,4.339 2.701,5.764 59.044,49.156 94.48,99.895 113.811,133.804 22.41,39.311 32.617,72.766 32.617,87.213 -10e-4,16.918 -14.06,32.838 -39.589,44.829 z m -4.644,-309.236 c 10.318,-0.931 19.594,4.395 30.101,10.43 11.076,6.362 23.403,13.443 38.642,13.739 0.262,41.875 -0.22,84.068 -1.436,125.538 -0.521,17.883 -14.785,31.929 -32.453,31.978 h -1.171 c -0.862,-0.003 -1.713,-0.046 -2.553,-0.112 -2.034,-3.848 -4.19,-7.783 -6.484,-11.808 -6.251,-10.966 -14.14,-23.64 -23.885,-37.425 -1.07,-43.945 -1.328,-88.422 -0.761,-132.34 z M 472.67,57.045 H 339.866 c -11.592,0 -21.022,-9.431 -21.022,-21.022 0,-11.591 9.43,-21.023 21.022,-21.023 H 472.67 c 11.592,0 21.022,9.431 21.022,21.022 0,11.591 -9.43,21.023 -21.022,21.023 z"
       id="path871"
       style="fill:#fb4700;fill-opacity:1" />
    <path
       d="m 334.848,300.483 c -0.202,-0.264 -0.424,-0.506 -0.656,-0.738 l 0.005,-0.005 c -34.675,-34.675 -69.146,-39.878 -122.104,-18.137 -13.613,-7.461 -27.398,-14.212 -40.804,-17.358 -21.186,-4.971 -38.66,-0.394 -53.415,13.993 -0.22,0.207 -0.429,0.427 -0.625,0.66 -19.508,22.615 -36.37,46.313 -50.121,70.439 -21.983,38.552 -30.175,68.281 -30.175,77.965 0,8.873 11.063,19.578 28.881,27.943 1.82,0.852 3.562,1.62 5.323,2.348 3.828,1.582 8.214,-0.238 9.796,-4.066 1.583,-3.828 -0.238,-8.214 -4.066,-9.796 -1.549,-0.64 -3.085,-1.318 -4.688,-2.068 -14.179,-6.657 -19.311,-12.822 -20.23,-14.852 0.338,-5.425 5.777,-30.741 28.188,-70.045 13.239,-23.227 29.489,-46.07 48.304,-67.902 24.425,-23.663 54.367,-6.689 89.019,12.955 23.37,13.248 48.679,27.599 73.345,27.596 12.611,-0.001 25.06,-3.755 36.986,-13.327 9.914,13.439 18.831,27.092 26.565,40.68 22.406,39.293 27.841,64.621 28.178,70.045 -0.917,2.029 -6.042,8.195 -20.21,14.851 -21.05,9.881 -63.307,21.659 -145.083,21.659 -45.382,0 -83.372,-3.646 -112.916,-10.837 -4.03,-0.98 -8.082,1.489 -9.061,5.513 -0.98,4.025 1.489,8.082 5.513,9.061 30.704,7.474 69.888,11.263 116.464,11.263 84.541,0 129.025,-12.551 151.459,-23.082 17.796,-8.36 28.851,-19.065 28.851,-27.938 0,-9.69 -8.189,-39.426 -30.162,-77.96 -9.313,-16.364 -20.269,-32.803 -32.561,-48.86 z m -56.62,12.512 c -15.74,-3.376 -32.634,-12.521 -49.145,-21.846 37.938,-13.364 62.962,-9.372 88.708,13.698 -11.428,8.846 -24.173,11.449 -39.563,8.148 z"
       id="path873"
       style="fill:#fb4700;fill-opacity:1" />
    <path
       d="m 197.349,408.765 c 0,-17.974 -14.623,-32.596 -32.596,-32.596 -17.973,0 -32.596,14.623 -32.596,32.596 0,17.973 14.623,32.596 32.596,32.596 17.973,0 32.596,-14.623 32.596,-32.596 z m -50.192,0 c 0,-9.703 7.894,-17.596 17.596,-17.596 9.703,0 17.596,7.894 17.596,17.596 0,9.702 -7.894,17.596 -17.596,17.596 -9.703,0 -17.596,-7.894 -17.596,-17.596 z"
       id="path875"
       style="fill:#fb4700;fill-opacity:1" />
    <path
       d="m 267.717,381.218 c 0,-12.429 -10.112,-22.541 -22.541,-22.541 -12.429,0 -22.541,10.112 -22.541,22.541 0,12.429 10.112,22.541 22.541,22.541 12.429,0 22.541,-10.112 22.541,-22.541 z m -30.081,0 c 0,-4.158 3.383,-7.541 7.541,-7.541 4.158,0 7.541,3.383 7.541,7.541 0,4.158 -3.383,7.541 -7.541,7.541 -4.158,0 -7.541,-3.383 -7.541,-7.541 z"
       id="path877"
       style="fill:#fb4700;fill-opacity:1" />
  </g>
</svg>
