<?xml version="1.0" encoding="UTF-8" standalone="no"?>
<svg
   xmlns:dc="http://purl.org/dc/elements/1.1/"
   xmlns:cc="http://creativecommons.org/ns#"
   xmlns:rdf="http://www.w3.org/1999/02/22-rdf-syntax-ns#"
   xmlns:svg="http://www.w3.org/2000/svg"
   xmlns="http://www.w3.org/2000/svg"
   xmlns:sodipodi="http://sodipodi.sourceforge.net/DTD/sodipodi-0.dtd"
   xmlns:inkscape="http://www.inkscape.org/namespaces/inkscape"
   id="Capa_1"
   enable-background="new 0 0 512.002 512.002"
   height="512"
   viewBox="0 0 512.002 512.002"
   width="512"
   version="1.1"
   sodipodi:docname="civics.svg"
   inkscape:version="1.0.1 (c497b03c, 2020-09-10)">
  <metadata
     id="metadata906">
    <rdf:RDF>
      <cc:Work
         rdf:about="">
        <dc:format>image/svg+xml</dc:format>
        <dc:type
           rdf:resource="http://purl.org/dc/dcmitype/StillImage" />
      </cc:Work>
    </rdf:RDF>
  </metadata>
  <defs
     id="defs904" />
  <sodipodi:namedview
     pagecolor="#ffffff"
     bordercolor="#666666"
     borderopacity="1"
     objecttolerance="10"
     gridtolerance="10"
     guidetolerance="10"
     inkscape:pageopacity="0"
     inkscape:pageshadow="2"
     inkscape:window-width="1792"
     inkscape:window-height="991"
     id="namedview902"
     showgrid="false"
     inkscape:zoom="0.48690509"
     inkscape:cx="173.3797"
     inkscape:cy="185.99258"
     inkscape:window-x="0"
     inkscape:window-y="23"
     inkscape:window-maximized="0"
     inkscape:current-layer="Capa_1"
     inkscape:document-rotation="0" />
  <path
     d="M 218.77924,295.3971 190.88702,271.26412 25.623074,447.52522 c -10.921065,11.6481 -9.9613,30.0414 2.113387,40.4887 12.07469,10.4473 30.415943,8.7527 40.371917,-3.72944 z"
     fill="#873f30"
     id="path833"
     style="fill:#abd67f;fill-opacity:1;stroke-width:1.04939" />
  <path
     d="m 67.385667,485.15947 c -10.101611,11.67516 -27.863021,13.05114 -39.645936,2.856 -3.485825,-3.01602 -6.040836,-6.69163 -7.646206,-10.67892 9.940189,2.45706 20.854242,-0.6536 27.962095,-8.86979 0.249554,-0.28842 0.497899,-0.5936 0.738475,-0.8898 L 199.46886,278.68539 218.7823,295.39583 68.107633,484.28875 c -0.240652,0.29514 -0.480181,0.59126 -0.721966,0.87072 z"
     fill="#6c3328"
     id="path835"
     style="fill:#8cc74f;fill-opacity:1;stroke-width:1.04939" />
  <path
     d="m 238.06195,205.89901 -54.73531,75.77822 26.23683,22.70071 67.12199,-65.06098 z"
     fill="#873f30"
     id="path839"
     style="fill:#b9dd94;fill-opacity:1;stroke-width:1.04939" />
  <path
     d="m 238.06195,205.89901 -17.68754,24.48684 6.22757,5.38824 c 4.58342,3.96567 5.08424,10.89665 1.11855,15.48007 l -34.0598,39.36535 15.90282,13.75947 67.12191,-65.06202 z"
     fill="#6c3328"
     id="path841"
     style="fill:#99cd63;fill-opacity:1;stroke-width:1.04939" />
  <path
     d="m 196.0134,319.2619 -25.4692,-22.03653 c -7.36332,-6.37092 -8.16778,-17.50422 -1.79687,-24.86754 6.37092,-7.36333 17.50422,-8.16781 24.86754,-1.79688 l 25.4692,22.03652 c 7.36332,6.37092 8.16778,17.50422 1.79687,24.86755 -6.37092,7.36332 -17.50422,8.16778 -24.86754,1.79688 z"
     fill="#ba5d4f"
     id="path843"
     style="fill:#b0d987;fill-opacity:1;stroke-width:1.04939" />
  <path
     d="m 220.87361,317.46555 c -3.18788,3.68447 -7.5668,5.7232 -12.05383,6.04742 -4.50271,0.32535 -9.12932,-1.06371 -12.81372,-4.25055 l -19.30445,-16.70266 c 3.68447,3.18788 8.311,4.5759 12.80473,4.24278 4.49498,-0.31607 8.87493,-2.35519 12.06282,-6.03966 6.37577,-7.36894 5.56307,-18.49955 -1.79688,-24.86754 l 19.30445,16.70266 c 7.36894,6.37578 8.17266,17.49861 1.79688,24.86755 z"
     fill="#a34f41"
     id="path845"
     style="fill:#8cc74f;fill-opacity:1;stroke-width:1.04939" />
  <g
     id="g855"
     style="fill:#cfe8b6;fill-opacity:1"
     transform="matrix(1.0466579,-0.0756293,0.0756293,1.0466579,-23.673538,-0.00295418)">
    <path
       d="m 214.299,66.492 h 71.272 v 111.894 h -71.272 z"
       fill="#ba5d4f"
       transform="matrix(0.707,0.707,-0.707,0.707,159.782,-140.869)"
       id="path851"
       style="fill:#cfe8b6;fill-opacity:1" />
    <path
       d="m 324.644,176.838 h 71.272 v 111.894 h -71.272 z"
       fill="#a34f41"
       transform="matrix(-0.707,-0.707,0.707,-0.707,450.433,652.146)"
       id="path853"
       style="fill:#cfe8b6;fill-opacity:1" />
  </g>
  <path
     d="m 166.95721,148.38193 -1.964,-1.6993 c -7.44862,-6.44472 -8.26254,-17.70884 -1.81782,-25.15747 l 84.08136,-97.178844 c 6.44471,-7.448618 17.70885,-8.262542 25.15747,-1.817825 l 1.96401,1.699299 c 7.44861,6.444718 8.26253,17.708851 1.81782,25.15747 l -84.08138,97.17884 c -6.44463,7.44967 -17.70877,8.26359 -25.15746,1.81783 z"
     fill="#873f30"
     id="path857"
     style="fill:#b0d987;fill-opacity:1;stroke-width:1.04939" />
  <path
     d="m 343.82743,301.4141 1.96401,1.6993 c 7.44861,6.44471 18.71275,5.63079 25.15746,-1.81782 l 84.08137,-97.17885 c 6.44472,-7.44863 5.6308,-18.71277 -1.81783,-25.15748 l -1.964,-1.6993 c -7.44862,-6.44472 -18.71275,-5.6308 -25.15747,1.81783 l -84.08137,97.17885 c -6.44576,7.4487 -5.63183,18.71282 1.81783,25.15747 z"
     fill="#6c3328"
     id="path859"
     style="fill:#a9d57c;fill-opacity:1;stroke-width:1.04939" />
  <path
     d="m 335.33961,68.250937 63.50673,54.947453 -116.0166,134.0887 -63.50672,-54.94746 z"
     fill="#fcc16d"
     id="path861"
     style="fill:#c9e5ac;fill-opacity:1;stroke-width:1.04922" />
  <path
     d="M 250.65057,229.54923 366.66788,95.459737 398.81082,123.27055 282.79352,257.36004 Z"
     fill="#fca62f"
     id="path863"
     style="fill:#b2da88;fill-opacity:1;stroke-width:1.04922" />
  <path
     d="m 335.44658,65.740277 -14.93953,-4.883933 c -5.12172,-1.67419 -10.74715,-0.112477 -14.2719,3.962471 L 211.70649,174.07235 c -3.52581,4.07502 -4.26256,9.86654 -1.86951,14.69331 l 6.98097,14.0822 c 2.83041,5.71051 10.56409,6.6941 14.73362,1.87396 L 339.41925,80.051423 c 4.1696,-4.819102 2.08439,-12.331039 -3.97267,-14.311146 z"
     fill="#873f30"
     id="path865"
     style="fill:#abd67f;fill-opacity:1;stroke-width:1.04939" />
  <path
     d="m 401.38769,122.79403 6.98098,14.08219 c 2.39313,4.82783 1.65638,10.61935 -1.8695,14.69331 L 311.9705,260.82307 c -3.5258,4.07502 -9.15124,5.63674 -14.27191,3.96247 l -14.93953,-4.88394 c -6.0581,-1.98002 -8.1433,-9.49196 -3.97267,-14.31113 l 107.86769,-124.6704 c 4.1696,-4.81911 11.90328,-3.8355 14.73361,1.87396 z"
     fill="#6c3328"
     id="path867"
     style="fill:#b0d885;fill-opacity:1;stroke-width:1.04939" />
  <path
     d="m 349.76464,71.341431 c -1.50757,-5.429441 -5.60386,-9.715446 -10.95943,-11.466377 l -14.93954,-4.883933 c -8.1551,-2.665996 -17.05437,-0.19647 -22.66983,6.293718 l -3.70059,4.277037 -13.00058,-11.248396 c 7.66815,-10.669192 6.07037,-25.66117 -4.05378,-34.42082 l -1.96513,-1.70027 c -10.71993,-9.273172 -26.98499,-8.097893 -36.25937,2.620026 l -84.08136,97.178854 c -9.27325,10.71888 -8.0979,26.98499 2.62106,36.26034 l 1.96393,1.69825 c 5.19283,4.49294 11.82352,6.69464 18.67285,6.19973 6.06852,-0.43851 11.65998,-2.95098 15.9821,-7.12985 l 12.99272,11.2416 -3.70059,4.27703 c -5.61546,6.49019 -6.78,15.65101 -2.96815,23.33909 l 6.98089,14.08115 c 2.3267,4.69478 6.66942,7.99399 11.76113,9.0054 L 190.51673,261.16 c -9.37209,-2.88002 -19.99208,-0.21355 -26.80669,7.6637 -6.61756,7.64839 -7.84314,18.13403 -4.06873,26.84747 L 20.794111,443.75721 c -6.760724,7.21053 -10.198991,16.6177 -9.684607,26.48837 0.51543,9.8706 4.915339,18.86817 12.390894,25.33618 7.287012,6.30489 16.533803,9.37283 26.112741,8.67963 0.245964,-0.0178 0.493882,-0.0376 0.740475,-0.0613 9.842159,-0.90897 18.657227,-5.66499 24.820894,-13.3921 l 68.667602,-86.0857 c 2.71091,-3.39855 2.15317,-8.35058 -1.24425,-11.0605 -3.3975,-2.71096 -8.35057,-2.15315 -11.06048,1.24426 l -68.667617,86.0857 c -3.467188,4.3475 -8.426136,7.0226 -13.963312,7.53424 -5.544138,0.50265 -10.902217,-1.21023 -15.106381,-4.84874 -4.205209,-3.63844 -6.680468,-8.70021 -6.970206,-14.25342 -0.289663,-5.55217 1.645767,-10.84426 5.448519,-14.90142 L 169.82068,307.82938 188.2666,323.7892 154.70263,365.86687 c -2.71089,3.39855 -2.15317,8.35057 1.24427,11.06048 1.61,1.28509 3.5688,1.83481 5.47267,1.69723 2.11424,-0.15277 4.16186,-1.15505 5.58773,-2.94253 l 34.72358,-43.53131 c 2.75192,0.75121 5.63976,1.03915 8.56935,0.82745 6.79386,-0.49091 12.98937,-3.59834 17.44647,-8.7486 4.45703,-5.1513 6.64149,-11.72919 6.15058,-18.52304 -0.23248,-3.21743 -1.05789,-6.29732 -2.40377,-9.12497 l 39.13166,-37.92955 c 1.73293,4.89341 5.62218,8.71671 10.60172,10.34541 l 14.93954,4.88393 c 2.68422,0.87711 5.44819,1.19819 8.14961,1.00299 5.50752,-0.39796 10.75256,-2.94327 14.52023,-7.2967 l 3.70058,-4.27704 13.00057,11.2484 c -7.66813,10.66918 -6.06932,25.66109 4.05484,34.42074 l 1.96401,1.6993 c 5.36004,4.63763 12.10416,6.66174 18.67089,6.18724 6.56463,-0.47435 12.95182,-3.44834 17.58847,-8.80727 l 84.08138,-97.17885 c 9.27325,-10.71889 8.09789,-26.985 -2.62002,-36.25936 l -1.96401,-1.69931 c -10.12415,-8.75965 -25.1901,-8.1855 -34.64612,0.9358 l -13.00058,-11.2484 3.70059,-4.27704 c 5.61546,-6.49019 6.78,-15.651 2.96816,-23.33907 l -6.97993,-14.08228 c -2.50269,-5.04821 -7.33413,-8.48569 -12.92285,-9.19711 -0.36401,-0.50923 -46.09774,-40.085967 -46.66761,-40.372 z m -115.08946,155.568059 24.34801,21.06646 -37.93697,36.77217 -17.34726,-15.01025 z m 205.09745,-44.48556 c 2.65536,-0.19187 5.22532,0.66192 7.23862,2.40291 l 1.96401,1.6993 c 4.15478,3.59579 4.61037,9.90086 1.0157,14.05661 l -84.08144,97.1778 c -3.59572,4.15583 -9.90078,4.61142 -14.05662,1.0157 l -1.964,-1.6993 c -4.15479,-3.59578 -4.61038,-9.90086 -1.01571,-14.05661 l 84.08138,-97.17885 c 1.74217,-2.0113 4.16373,-3.22577 6.81806,-3.41756 z m -27.49615,3.26199 -66.53002,76.89349 -12.91081,-11.1707 66.53004,-76.89351 z m -10.81557,-37.65043 -94.52964,109.25466 c -1.45565,1.68125 -3.76186,2.32241 -5.87509,1.63025 l -14.93953,-4.88393 c -0.13252,-0.043 -0.53338,-0.17399 -0.68403,-0.71546 -0.15065,-0.54149 0.12609,-0.86134 0.2164,-0.96572 L 393.5167,127.6849 c 0.0778,-0.0887 0.28743,-0.3322 0.68934,-0.36124 0.0722,-0.005 0.15129,-0.003 0.23619,0.007 0.5564,0.0703 0.74474,0.4491 0.80637,0.57406 l 6.98106,14.08324 c 0.98773,1.99186 0.68689,4.36613 -0.76876,6.0474 z M 380.54858,118.61836 274.81327,240.82422 239.48256,210.25526 345.21786,88.04942 Z m -200.29007,27.83135 c -2.65537,0.19187 -5.22533,-0.66193 -7.23766,-2.40402 0,0 -9.7e-4,6e-5 -9.7e-4,-9e-4 l -1.96393,-1.69825 c -4.15583,-3.59572 -4.6115,-9.90184 -1.0157,-14.05662 l 84.08138,-97.177799 c 1.79835,-2.078475 4.27281,-3.230489 6.81828,-3.414418 2.54547,-0.183931 5.15993,0.60142 7.2372,2.397747 l 1.96514,1.70027 c 2.01226,1.741054 3.22673,4.162612 3.41859,6.817984 0.19188,2.65537 -0.66192,5.225324 -2.4029,7.238632 l -84.08136,97.178844 c -1.7421,2.01234 -4.16261,3.22674 -6.81799,3.41862 z m 38.31165,34.38739 51.98887,-60.08725 c 2.84414,-3.28718 2.48498,-8.25776 -0.80213,-11.10086 -3.28718,-2.84414 -8.25776,-2.48497 -11.10085,0.80212 l -37.98858,43.90613 -12.9108,-11.17071 66.53003,-76.893512 12.91079,11.170715 -4.23854,4.898782 c -2.84415,3.287182 -2.48498,8.25776 0.80213,11.100856 3.28717,2.844142 8.25776,2.484979 11.10085,-0.802125 l 18.23786,-21.0788 c 1.45557,-1.682308 3.76075,-2.323383 5.87509,-1.630253 l 14.93953,4.883932 c 0.13253,0.04303 0.53338,0.173988 0.68403,0.715466 0.15065,0.541479 -0.12609,0.861331 -0.2164,0.965704 L 226.5133,201.18776 c -0.0913,0.10445 -0.36615,0.42205 -0.92455,0.35298 -0.55639,-0.0702 -0.74369,-0.44917 -0.80534,-0.57413 l -6.98097,-14.08219 c -0.98877,-1.99176 -0.68681,-4.36508 0.76772,-6.04732 z m -42.95698,98.28637 c 1.76046,-2.0347 4.18404,-3.16305 6.67717,-3.3432 2.4921,-0.18008 5.05376,0.58806 7.08847,2.34853 l 25.46813,22.0366 c 1.97179,1.70504 3.1605,4.07586 3.34843,6.6768 0.18787,2.59991 -0.64765,5.11698 -2.35479,7.08891 -1.70505,1.97178 -4.07587,3.1605 -6.67681,3.34844 -2.5999,0.18786 -5.11706,-0.64871 -7.08884,-2.35377 l -25.46805,-22.03554 c -4.06838,-3.52103 -4.51467,-9.69735 -0.99379,-13.76676 z"
     id="path885"
     style="fill:#507a27;fill-opacity:1;stroke-width:1.04939" />
  <g
     id="g872"
     transform="matrix(0.96765102,0,0,0.96765102,8.3071839,8.3508219)">
    <g
       id="g879"
       style="fill:#bcde98;fill-opacity:1"
       transform="matrix(0.95567762,0,0,0.95567762,20.722248,44.361525)">
      <path
         d="M 446.89,418.359 H 240.477 v -28.967 c 0,-5.98 4.848,-10.828 10.828,-10.828 h 184.757 c 5.98,0 10.828,4.848 10.828,10.828 z"
         fill="#ba5d4f"
         id="path875"
         style="fill:#bcde98;fill-opacity:1" />
      <path
         d="m 446.888,389.394 v 28.965 h -22.652 v -28.965 c 0,-5.977 -4.851,-10.828 -10.828,-10.828 h 22.652 c 5.977,0 10.828,4.851 10.828,10.828 z"
         fill="#a34f41"
         id="path877"
         style="fill:#bcde98;fill-opacity:1" />
    </g>
    <path
       d="M 491.28067,498.51385 H 207.06595 c -7.53838,0 -12.54709,-7.8031 -9.40865,-14.65722 l 10.04704,-21.93854 c 8.70337,-19.00365 27.68598,-31.18854 48.58762,-31.18854 h 185.76078 c 20.90164,0 39.88522,12.18489 48.58762,31.18854 l 10.04704,21.93854 c 3.14034,6.85508 -1.86836,14.65722 -9.40673,14.65722 z"
       fill="#873f30"
       id="path881"
       style="fill:#a9d57c;fill-opacity:1;stroke-width:0.955679" />
    <path
       d="m 491.28544,498.5148 h -27.6707 c 7.53361,0 12.54136,-7.80215 9.40674,-14.65245 l -10.04799,-21.94808 c -8.7024,-18.99887 -27.69076,-31.18854 -48.58379,-31.18854 h 27.66018 c 20.90257,0 39.8919,12.18967 48.59429,31.18854 l 10.048,21.94808 c 3.13462,6.8503 -1.87313,14.65245 -9.40673,14.65245 z"
       fill="#6c3328"
       id="path883"
       style="fill:#85c446;fill-opacity:1;stroke-width:0.955679" />
    <path
       d="m 497.88157,460.46164 c -8.0105,-17.48984 -23.83078,-29.94042 -42.18552,-33.9686 v -8.47114 c 0,-9.65806 -7.85758,-17.51564 -17.51567,-17.51564 H 315.38155 c -3.95842,0 -7.16758,3.20916 -7.16758,7.16757 0,3.95842 3.20916,7.16759 7.16758,7.16759 h 122.79883 c 1.75367,0 3.18052,1.42682 3.18052,3.18048 v 7.0682 H 258.43177 v -7.0682 c 0,-1.75366 1.42682,-3.18048 3.18049,-3.18048 h 19.94308 c 3.95842,0 7.16759,-3.20917 7.16759,-7.16759 0,-3.95841 -3.20917,-7.16757 -7.16759,-7.16757 h -19.94308 c -9.65807,0 -17.51566,7.85758 -17.51566,17.51564 v 8.47114 c -18.35379,4.02818 -34.17503,16.47876 -42.18552,33.9686 l -10.04798,21.93854 c -2.49529,5.44832 -2.05185,11.71183 1.18502,16.75494 3.23689,5.0431 8.74733,8.05445 14.74037,8.05445 h 284.21472 c 5.99304,0 11.50348,-3.01039 14.74036,-8.05445 3.23687,-5.04311 3.68032,-11.30662 1.18503,-16.75494 z m -3.20056,30.94962 c -0.35074,0.5457 -1.16498,1.46219 -2.67686,1.46219 h -284.2147 c -1.51189,0 -2.32611,-0.91649 -2.67685,-1.46219 -0.35073,-0.54665 -0.84482,-1.66765 -0.21502,-3.04192 l 10.04799,-21.93853 c 7.51353,-16.40612 24.02764,-27.00553 42.07084,-27.00553 H 442.7772 c 18.04414,0 34.55826,10.60036 42.07085,27.00553 l 10.04799,21.93853 c 0.62979,1.37427 0.1357,2.49527 -0.21503,3.04192 z"
       id="path887"
       style="fill:#507a27;fill-opacity:1;stroke-width:0.955679" />
    <path
       d="m 476.93311,390.53949 c 1.82726,0 3.65548,-0.69478 5.05363,-2.08433 l 7.75629,-7.71041 c 2.80777,-2.79058 2.82115,-7.32909 0.0306,-10.13687 -2.79058,-2.80683 -7.3291,-2.82116 -10.13687,-0.0306 l -7.75629,7.7104 c -2.80778,2.79058 -2.82115,7.3291 -0.0306,10.13688 1.40102,1.40962 3.24166,2.11491 5.08324,2.11491 z"
       id="path889"
       style="fill:#507a27;fill-opacity:1;stroke-width:0.955679" />
    <path
       d="m 450.04608,354.86882 -2.69023,10.72653 c -0.96332,3.83992 1.36853,7.73239 5.20845,8.69571 0.58487,0.14717 1.17166,0.2179 1.74984,0.2179 3.20916,0 6.13068,-2.17131 6.94683,-5.42539 l 2.69023,-10.72652 c 0.96331,-3.83992 -1.36853,-7.73239 -5.20845,-8.6957 -3.83704,-0.9643 -7.73334,1.36661 -8.69667,5.20747 z"
       id="path891"
       style="fill:#507a27;fill-opacity:1;stroke-width:0.955679" />
    <path
       d="m 485.87826,407.78661 c 0.80085,3.27319 3.73097,5.46647 6.95637,5.46647 0.56385,0 1.13631,-0.067 1.70875,-0.20738 l 10.74469,-2.62812 c 3.84468,-0.94038 6.19949,-4.81947 5.25909,-8.66512 -0.94038,-3.84469 -4.81757,-6.20044 -8.66512,-5.2591 l -10.74469,2.62812 c -3.8447,0.93943 -6.19948,4.81949 -5.25909,8.66513 z"
       id="path893"
       style="fill:#507a27;fill-opacity:1;stroke-width:0.955679" />
  </g>
  <rect
     style="fill:#85c445;stroke-width:1.88977;stroke-linecap:round;fill-opacity:1"
     id="rect908"
     width="237.32175"
     height="194.72554"
     x="-551.72235"
     y="-95.334381"
     rx="1000003.9" />
</svg>
