<?xml version="1.0" encoding="UTF-8" standalone="no"?>
<svg
   xmlns:dc="http://purl.org/dc/elements/1.1/"
   xmlns:cc="http://creativecommons.org/ns#"
   xmlns:rdf="http://www.w3.org/1999/02/22-rdf-syntax-ns#"
   xmlns:svg="http://www.w3.org/2000/svg"
   xmlns="http://www.w3.org/2000/svg"
   xmlns:sodipodi="http://sodipodi.sourceforge.net/DTD/sodipodi-0.dtd"
   xmlns:inkscape="http://www.inkscape.org/namespaces/inkscape"
   height="512pt"
   viewBox="0 -58 512 512"
   width="512pt"
   version="1.1"
   id="svg869"
   sodipodi:docname="economics.svg"
   inkscape:version="1.0.1 (c497b03c, 2020-09-10)">
  <metadata
     id="metadata875">
    <rdf:RDF>
      <cc:Work
         rdf:about="">
        <dc:format>image/svg+xml</dc:format>
        <dc:type
           rdf:resource="http://purl.org/dc/dcmitype/StillImage" />
      </cc:Work>
    </rdf:RDF>
  </metadata>
  <defs
     id="defs873" />
  <sodipodi:namedview
     pagecolor="#ffffff"
     bordercolor="#666666"
     borderopacity="1"
     objecttolerance="10"
     gridtolerance="10"
     guidetolerance="10"
     inkscape:pageopacity="0"
     inkscape:pageshadow="2"
     inkscape:window-width="1792"
     inkscape:window-height="991"
     id="namedview871"
     showgrid="false"
     inkscape:zoom="0.91004276"
     inkscape:cx="120.70025"
     inkscape:cy="319.85123"
     inkscape:window-x="0"
     inkscape:window-y="23"
     inkscape:window-maximized="1"
     inkscape:current-layer="svg869"
     inkscape:document-rotation="0" />
  <path
     d="m41.171875 153.265625c0-7.851563 6.363281-14.214844 14.214844-14.214844h50.792969v-50.792969c0-7.851562 6.367187-14.21875 14.21875-14.21875h287.75v-50.527343c0-7.851563-6.363282-14.214844-14.214844-14.214844h-371.050782c-7.851562 0-14.21875 6.363281-14.21875 14.214844v222.40625c0 7.855469 6.367188 14.21875 14.21875 14.21875h18.289063zm0 0"
     fill="#9fe250"
     id="path833"
     style="fill:#f9e7cf;fill-opacity:1" />
  <path
     d="m38.667969 245.917969v-222.40625c0-7.851563 6.363281-14.214844 14.214843-14.214844h-30c-7.851562 0-14.21875 6.363281-14.21875 14.214844v222.40625c0 7.855469 6.367188 14.21875 14.21875 14.21875h18.289063v-6.167969c-1.578125-2.289062-2.503906-5.058594-2.503906-8.050781zm0 0"
     fill="#8dce3a"
     id="path835"
     style="fill:#000000;fill-opacity:0" />
  <path
     d="m336.960938 44.957031c-.179688-1.804687-1.746094-3.15625-3.558594-3.15625h-249.988282c-1.8125 0-3.378906 1.351563-3.558593 3.15625-1.890625 18.742188-16.785157 33.636719-35.527344 35.527344-1.804687.179687-3.15625 1.746094-3.15625 3.558594v69.222656c0-7.851563 6.367187-14.21875 14.21875-14.21875h50.792969v-50.792969c0-7.851562 6.363281-14.214844 14.214844-14.214844h234.117187c-9.648437-6.421874-16.328125-16.941406-17.554687-29.082031zm0 0"
     fill="#8dce3a"
     id="path837"
     style="fill:#f9e8d3;fill-opacity:1" />
  <path
     d="m71.171875 84.046875c0-1.816406 1.351563-3.382813 3.15625-3.5625 18.742187-1.890625 33.636719-16.785156 35.527344-35.523437.179687-1.808594 1.746093-3.160157 3.558593-3.160157h-30c-1.816406 0-3.378906 1.355469-3.5625 3.160157-1.890624 18.738281-16.78125 33.632812-35.523437 35.523437-1.804687.179687-3.15625 1.746094-3.15625 3.5625v69.21875c0-7.851563 6.363281-14.214844 14.214844-14.214844h15.785156zm0 0"
     fill="#85c12f"
     id="path839"
     style="fill:#f6dab6;fill-opacity:1" />
  <path
     d="m489.449219 73.039062h-371.050781c-7.851563 0-14.21875 6.363282-14.21875 14.214844v50.792969h320.257812c7.851562 0 14.21875 6.367187 14.21875 14.21875v171.613281h50.792969c7.851562 0 14.214843-6.363281 14.214843-14.214844v-222.410156c0-7.851562-6.363281-14.214844-14.214843-14.214844zm0 0"
     fill="#c0f27e"
     id="path841"
     style="fill:#f9e6cf;fill-opacity:1" />
  <path
     d="m148.398438 73.039062h-30c-7.851563 0-14.21875 6.363282-14.21875 14.214844v50.792969h30.003906v-50.792969c0-7.851562 6.363281-14.214844 14.214844-14.214844zm0 0"
     fill="#9fe250"
     id="path843"
     style="fill:#f6dcbc;fill-opacity:1" />
  <path
     d="m468 144.226562c-18.738281-1.890624-33.632812-16.785156-35.523438-35.523437-.179687-1.808594-1.746093-3.160156-3.5625-3.160156h-249.984374c-1.816407 0-3.378907 1.351562-3.5625 3.160156-1.238282 12.304687-8.085938 22.949219-17.949219 29.347656h267.019531c7.851562 0 14.21875 6.363281 14.21875 14.214844v118.375c6.394531-9.859375 17.039062-16.707031 29.347656-17.949219 1.804688-.179687 3.15625-1.746094 3.15625-3.558594v-101.347656c0-1.8125-1.351562-3.378906-3.160156-3.558594zm0 0"
     fill="#8dce3a"
     id="path845"
     style="fill:#f6dbba;fill-opacity:1" />
  <path
     d="m207.121094 108.703125c.179687-1.808594 1.746094-3.160156 3.5625-3.160156h-31.753906c-1.8125 0-3.378907 1.351562-3.558594 3.160156-1.242188 12.304687-8.089844 22.949219-17.949219 29.347656h31.75c9.859375-6.398437 16.707031-17.042969 17.949219-29.347656zm0 0"
     fill="#85c12f"
     id="path847"
     style="fill:#f5d8b4;fill-opacity:1" />
  <path
     d="m425.4375 137.046875h-371.050781c-7.851563 0-14.214844 6.367187-14.214844 14.21875v222.40625c0 7.851563 6.363281 14.214844 14.214844 14.214844h371.050781c7.851562 0 14.21875-6.363281 14.21875-14.214844v-222.40625c0-7.851563-6.367188-14.21875-14.21875-14.21875zm0 0"
     fill="#c0f27e"
     id="path849"
     style="fill:#f9e5cb;fill-opacity:1" />
  <path
     d="m70.171875 373.671875v-222.40625c0-7.851563 6.367187-14.214844 14.21875-14.214844h-30.003906c-7.851563 0-14.214844 6.363281-14.214844 14.214844v222.40625c0 7.851563 6.363281 14.21875 14.214844 14.21875h30.003906c-7.851563 0-14.21875-6.367187-14.21875-14.21875zm0 0"
     fill="#9fe250"
     id="path851"
     style="fill:#f6ddbd;fill-opacity:1" />
  <path
     d="m403.992188 208.234375c-18.742188-1.890625-33.636719-16.78125-35.523438-35.523437-.183594-1.804688-1.746094-3.15625-3.5625-3.15625h-249.984375c-1.816406 0-3.382813 1.351562-3.5625 3.15625-1.890625 18.742187-16.785156 33.636718-35.523437 35.523437-1.808594.183594-3.160157 1.746094-3.160157 3.5625v101.34375c0 1.816406 1.355469 3.378906 3.160157 3.5625 18.738281 1.890625 33.632812 16.78125 35.523437 35.523437.179687 1.804688 1.746094 3.15625 3.5625 3.15625h249.984375c1.816406 0 3.378906-1.351562 3.5625-3.15625 1.890625-18.742187 16.78125-33.636718 35.523438-35.523437 1.804687-.183594 3.15625-1.746094 3.15625-3.5625v-101.34375c0-1.8125-1.351563-3.378906-3.15625-3.5625zm0 0"
     fill="#9fe250"
     id="path853"
     style="fill:#f9e5ce;fill-opacity:1" />
  <path
     d="m141.359375 352.226562c-1.890625-18.742187-16.78125-33.632812-35.523437-35.523437-1.804688-.183594-3.15625-1.746094-3.15625-3.5625v-101.34375c0-1.8125 1.351562-3.378906 3.15625-3.558594 18.742187-1.890625 33.632812-16.785156 35.523437-35.527343.183594-1.804688 1.746094-3.15625 3.5625-3.15625h-30.003906c-1.8125 0-3.378907 1.351562-3.558594 3.15625-1.890625 18.742187-16.785156 33.636718-35.527344 35.527343-1.804687.179688-3.15625 1.746094-3.15625 3.558594v101.34375c0 1.816406 1.351563 3.378906 3.15625 3.5625 18.742188 1.890625 33.636719 16.785156 35.527344 35.523437.179687 1.808594 1.746094 3.160157 3.558594 3.160157h30.003906c-1.816406-.003907-3.378906-1.351563-3.5625-3.160157zm0 0"
     fill="#8dce3a"
     id="path855"
     style="fill:#f7d9b7;fill-opacity:1" />
  <path
     d="m308.023438 260.964844c0 37.617187-30.496094 68.109375-68.109376 68.109375-37.617187 0-68.113281-30.492188-68.113281-68.109375 0-37.617188 30.496094-68.113282 68.113281-68.113282 37.613282 0 68.109376 30.496094 68.109376 68.113282zm0 0"
     fill="#8dce3a"
     id="path857"
     style="fill:#f7dcbb;fill-opacity:1" />
  <path
     d="m 197.61779,261.06799 c 0,-36.04287 25.22134,-66.17401 58.96978,-73.76426 -5.36089,-1.20577 -10.92997,-1.86504 -16.65519,-1.86504 -41.76809,0 -75.6293,33.86121 -75.6293,75.6293 0,41.76375 33.86121,75.62497 75.6293,75.62497 5.72522,0 11.2943,-0.65493 16.65519,-1.8607 -33.74844,-7.59026 -58.96978,-37.72574 -58.96978,-73.76427 z m 0,0"
     fill="#85c12f"
     id="path859"
     style="fill:#f5d4ac;fill-opacity:1;stroke-width:1.11035" />
  <path
     d="m74.917969 200.976562c-5.648438.570313-9.90625 5.308594-9.90625 11.023438v101.34375c0 5.71875 4.257812 10.457031 9.902343 11.023438 15.167969 1.53125 27.285157 13.648437 28.816407 28.816406.570312 5.648437 5.308593 9.90625 11.023437 9.90625h249.984375c5.714844 0 10.453125-4.257813 11.027344-9.90625 1.527344-15.167969 13.644531-27.285156 28.8125-28.816406 5.648437-.566407 9.90625-5.304688 9.90625-11.023438v-101.34375c0-5.714844-4.257813-10.453125-9.90625-11.019531-15.164063-1.53125-27.285156-13.648438-28.8125-28.816407-.574219-5.648437-5.3125-9.902343-11.027344-9.902343h-249.984375c-5.714844 0-10.453125 4.253906-11.023437 9.902343-1.53125 15.167969-13.648438 27.285157-28.8125 28.8125zm43.234375-23.71875h243.191406c3.472656 19.347657 18.792969 34.667969 38.140625 38.144532v94.542968c-19.347656 3.476563-34.667969 18.796876-38.140625 38.144532h-243.191406c-3.472656-19.347656-18.792969-34.664063-38.140625-38.144532v-94.542968c19.347656-3.476563 34.667969-18.796875 38.140625-38.144532zm0 0"
     id="path861"
     style="fill:#e79c41;fill-opacity:1" />
  <path
     d="m 218.18088,342.43986 c 4.43704,1.17541 9.00421,-1.47034 10.18395,-5.91606 1.17975,-4.44572 -1.47034,-9.00421 -5.91606,-10.18395 -29.43718,-7.80712 -50.00026,-34.55518 -50.00026,-65.04632 0,-37.10984 30.19186,-67.29737 67.29737,-67.29737 37.10984,0 67.30171,30.18753 67.30171,67.29737 0,30.49114 -20.56309,57.2392 -50.00027,65.04632 -4.45006,1.17974 -7.0958,5.73823 -5.91606,10.18395 1.17974,4.45006 5.74257,7.09147 10.18395,5.91606 36.7325,-9.74155 62.38756,-43.10831 62.38756,-81.14633 0,-46.29188 -37.66067,-83.95256 -83.95255,-83.95256 -46.29189,0 -83.9569,37.66068 -83.9569,83.95256 0,38.03802 25.65506,71.40478 62.38756,81.14633 z m 0,0"
     id="path865"
     style="fill:#e79c41;fill-opacity:1;stroke-width:1.11035" />
  <path
     d="M 490.28125,64.742188 H 414.48437 V 21.71875 C 414.48437,9.742188 404.74219,0 392.76562,0 H 21.71875 C 9.742188,0 0,9.742188 0,21.71875 V 244.125 c 0,11.97656 9.742188,21.71875 21.71875,21.71875 h 10.785156 v 108.03516 c 0,11.97265 9.742188,21.71484 21.71875,21.71484 H 425.27344 c 11.97265,0 21.71484,-9.74219 21.71484,-21.71484 v -43.29297 h 43.29297 c 11.97656,0 21.71875,-9.74219 21.71875,-21.71875 v -93.57032 c 0,-4.14062 -3.35547,-7.5 -7.5,-7.5 -4.14453,0 -7.5,3.35938 -7.5,7.5 v 93.57032 c 0,3.70312 -3.01563,6.71875 -6.71875,6.71875 h -43.29297 v -43.38672 c 5.41406,-7.27735 13.53516,-11.92578 22.60156,-12.83984 5.64844,-0.57032 9.90235,-5.3086 9.90235,-11.02344 V 146.99219 c 0,-5.71485 -4.25782,-10.45703 -9.90235,-11.02344 -15.16797,-1.53125 -27.28515,-13.64844 -28.8164,-28.8125 -0.56641,-5.64844 -5.30469,-9.910156 -11.01953,-9.910156 H 179.76562 c -5.71875,0 -10.45703,4.261716 -11.02343,9.906246 -0.91797,9.06641 -5.5625,17.1875 -12.83985,22.60157 H 112.51563 V 86.460938 c 0,-3.703126 3.01171,-6.71875 6.71875,-6.71875 h 371.04687 c 3.70312,0 6.71875,3.015624 6.71875,6.71875 v 93.835942 c 0,4.14453 3.35547,7.5 7.5,7.5 4.14453,0 7.5,-3.35547 7.5,-7.5 V 86.460938 c 0,-11.976563 -9.74219,-21.71875 -21.71875,-21.71875 z m -25.78906,85.648432 v 94.54297 c -6.3125,1.125 -12.2461,3.5 -17.50391,6.94141 v -58.21248 -42.19377 c 0,-3.32813 -0.78516,-6.67969 -2.26953,-9.66406 5.73828,4.26953 12.46875,7.27343 19.77344,8.58593 z M 183.16406,112.24609 h 243.1875 c 1.3125,7.3086 4.3125,14.03907 8.58203,19.77735 -3.1289,-1.54297 -6.41406,-2.27344 -9.66015,-2.27344 H 176.22266 c 3.4414,-5.25391 5.8164,-11.1875 6.9414,-17.50391 z m 242.10938,32.50782 c 3.70312,0 6.71484,3.01171 6.71484,6.71484 v 222.41016 c 0,3.70312 -3.01172,6.71484 -6.71484,6.71484 H 54.222656 c -3.703125,0 -6.714844,-3.01172 -6.714844,-6.71484 V 151.46875 c 0,-3.70313 3.011719,-6.71484 6.714844,-6.71484 z M 119.23437,64.742188 c -11.97656,0 -21.718745,9.742187 -21.718745,21.71875 V 129.75391 H 54.222656 c -2.332031,0 -4.636718,0.39062 -6.714844,1.0625 V 85.648438 C 66.851562,82.175781 82.171875,66.855469 85.648438,47.507812 H 328.83594 c 1.10547,6.199219 3.42578,12.039063 6.78125,17.234376 z m 236.52344,0 c -7.07812,-5.414063 -11.60156,-13.4375 -12.5,-22.332032 -0.57031,-5.648437 -5.30859,-9.902344 -11.02344,-9.902344 H 82.25 c -5.71875,0 -10.457031,4.257813 -11.023438,9.902344 -1.53125,15.167969 -13.648437,27.285156 -28.816406,28.816406 -5.644531,0.566407 -9.90625,5.308594 -9.90625,11.023438 V 250.84375 H 21.71875 C 18.015625,250.84375 15,247.82812 15,244.125 V 21.71875 C 15,18.015625 18.015625,15 21.71875,15 h 371.04687 c 3.70313,0 6.71875,3.015625 6.71875,6.71875 v 43.023438 z"
     id="path867"
     style="fill:#e4922d;fill-opacity:1"
     sodipodi:nodetypes="scsssssscsssscssssssscccssccsscccsssssssssccccscccccsccssssssssssscscccccsccssccscsssssscc" />
  <g
     style="clip-rule:evenodd;fill:#e0881d;fill-opacity:1;fill-rule:evenodd;stroke-linejoin:round;stroke-miterlimit:2"
     id="g957"
     transform="matrix(6.577168,0,0,6.577168,157.9292,187.86728)">
    <path
       id="path2"
       d="M 9,6 C 8.448,6 8,5.552 8,5 8,4.735 8.105,4.48 8.293,4.293 8.48,4.105 8.735,4 9,4 h 7 c 0.552,0 1,0.448 1,1 0,0.552 -0.448,1 -1,1 H 12.999 C 13.436,6.581 13.75,7.261 13.9,8 H 16 c 0.552,0 1,0.448 1,1 0,0.552 -0.448,1 -1,1 h -2.1 c -0.375,1.842 -1.764,3.318 -3.557,3.817 l 5.297,4.415 c 0.424,0.353 0.482,0.984 0.128,1.408 -0.353,0.424 -0.984,0.482 -1.408,0.128 l -6,-5 C 8.132,14.578 8,14.297 8,14 v -1 c 0,-0.552 0.448,-1 1,-1 1.305,0 2.417,-0.835 2.829,-2 H 9 C 8.448,10 8,9.552 8,9 8,8.448 8.448,8 9,8 h 2.829 C 11.418,6.838 10.311,6.004 9.01,6 Z"
       style="fill:#e0881d;fill-opacity:1" />
  </g>
</svg>
