<?xml version="1.0" encoding="UTF-8" standalone="no"?>
<svg
   xmlns:dc="http://purl.org/dc/elements/1.1/"
   xmlns:cc="http://creativecommons.org/ns#"
   xmlns:rdf="http://www.w3.org/1999/02/22-rdf-syntax-ns#"
   xmlns:svg="http://www.w3.org/2000/svg"
   xmlns="http://www.w3.org/2000/svg"
   xmlns:sodipodi="http://sodipodi.sourceforge.net/DTD/sodipodi-0.dtd"
   xmlns:inkscape="http://www.inkscape.org/namespaces/inkscape"
   version="1.1"
   id="Capa_1"
   x="0px"
   y="0px"
   viewBox="0 0 512 512"
   style="enable-background:new 0 0 512 512;"
   xml:space="preserve"
   sodipodi:docname="english.svg"
   inkscape:version="1.0.1 (c497b03c, 2020-09-10)"><metadata
   id="metadata886"><rdf:RDF><cc:Work
       rdf:about=""><dc:format>image/svg+xml</dc:format><dc:type
         rdf:resource="http://purl.org/dc/dcmitype/StillImage" /><dc:title /></cc:Work></rdf:RDF></metadata><defs
   id="defs884" /><sodipodi:namedview
   pagecolor="#ffffff"
   bordercolor="#666666"
   borderopacity="1"
   objecttolerance="10"
   gridtolerance="10"
   guidetolerance="10"
   inkscape:pageopacity="0"
   inkscape:pageshadow="2"
   inkscape:window-width="1452"
   inkscape:window-height="994"
   id="namedview882"
   showgrid="false"
   inkscape:zoom="0.81731992"
   inkscape:cx="340.78304"
   inkscape:cy="296.95505"
   inkscape:window-x="169"
   inkscape:window-y="24"
   inkscape:window-maximized="0"
   inkscape:current-layer="Capa_1"
   inkscape:document-rotation="0" />









<g
   id="g851">
</g>
<g
   id="g853">
</g>
<g
   id="g855">
</g>
<g
   id="g857">
</g>
<g
   id="g859">
</g>
<g
   id="g861">
</g>
<g
   id="g863">
</g>
<g
   id="g865">
</g>
<g
   id="g867">
</g>
<g
   id="g869">
</g>
<g
   id="g871">
</g>
<g
   id="g873">
</g>
<g
   id="g875">
</g>
<g
   id="g877">
</g>
<g
   id="g879">
</g>
<path
   d="m 441.84841,287.93996 c 25.48369,-27.07825 41.10415,-63.54393 41.10415,-103.66266 0,-83.55901 -67.73764,-151.297553 -151.29756,-151.297553 V 335.57394 c 26.98875,0 52.32176,-7.07505 74.26016,-19.4589 13.03227,12.07425 30.47194,19.4589 49.6395,19.4589 9.68973,0 18.93651,-1.89046 27.3979,-5.31611 -18.96391,-7.67689 -33.96243,-23.0882 -41.10415,-42.31787 z"
   fill="#b8b4b3"
   id="path3403"
   style="stroke-width:0.913263;fill:#7da3d1;fill-opacity:1" /><path
   d="m 331.655,32.979747 c -83.559,0 -151.29663,67.737633 -151.29663,151.297553 0,83.55992 67.73763,151.29755 151.29663,151.29755 68.42807,0 123.89966,-67.73855 123.89966,-151.29755 0,-83.55901 -55.47159,-151.297553 -123.89966,-151.297553 z"
   fill="#d0cdcd"
   id="path3405"
   style="stroke-width:0.913263;fill:#a6bfdf;fill-opacity:1" /><path
   d="m 180.35837,184.2773 v 302.59419 c 83.559,0 151.29755,-67.73764 151.29755,-151.29755 C 331.655,252.01493 263.91737,184.2773 180.35837,184.2773 Z"
   fill="#e7e6e6"
   id="path3407"
   style="stroke-width:0.913263;fill:#8caed6;fill-opacity:1" /><path
   d="m 304.25803,335.57394 c 0,-83.55901 -55.4716,-151.29755 -123.89966,-151.29755 -83.559921,9.1e-4 -151.297555,67.73854 -151.297555,151.29755 0,40.11873 15.620451,76.58441 41.104144,103.66266 -7.142631,19.22967 -22.140237,34.64098 -41.104144,42.31878 8.461382,3.42565 17.708171,5.31611 27.397892,5.31611 19.167565,0 36.606323,-7.38465 49.639503,-19.4589 21.9384,12.38385 47.27141,19.4589 74.26016,19.4589 68.42806,0 123.89966,-67.73764 123.89966,-151.29755 z"
   fill="#ffffff"
   id="path3409"
   style="stroke-width:0.913263;fill:#c4d5ea;fill-opacity:1" /><circle
   cx="331.655"
   cy="184.88553"
   r="6.849473"
   id="circle3411"
   style="stroke-width:0.913263;fill:#7da3d1;fill-opacity:1" /><circle
   cx="359.05292"
   cy="184.88553"
   r="6.849473"
   id="circle3413"
   style="stroke-width:0.913263;fill:#7da3d1;fill-opacity:1" /><circle
   cx="304.25711"
   cy="184.88553"
   r="6.849473"
   id="circle3415"
   style="stroke-width:0.913263;fill:#8caed6;fill-opacity:1" /><path
   d="m 485.52248,323.90883 c -15.9337,-6.45038 -28.75409,-18.91094 -35.69854,-34.5387 25.81338,-28.99245 39.97809,-66.1376 39.97809,-105.09283 0,-87.202012 -70.94502,-158.147026 -158.14703,-158.147026 -76.42185,0 -141.84345,54.483448 -155.55975,129.549106 -0.67946,3.72155 1.78543,7.28875 5.50698,7.96913 3.71515,0.67764 7.28784,-1.78634 7.96913,-5.50697 C 202.09768,89.586531 261.85157,39.82922 331.655,39.82922 c 79.64933,0 144.44808,64.79967 144.44808,144.44808 0,36.93053 -13.93639,72.07837 -39.24291,98.96849 -1.7836,1.89593 -2.33978,4.63938 -1.43291,7.0787 5.70972,15.37296 16.01589,28.52943 29.27282,37.7753 -3.01194,0.41645 -6.06407,0.62467 -9.14542,0.62467 -16.73463,0 -32.71034,-6.26224 -44.98368,-17.63419 -2.18544,-2.02471 -5.42844,-2.40554 -8.0221,-0.94066 -13.93914,7.86776 -28.99702,13.31628 -44.75811,16.19306 -3.72155,0.67947 -6.18736,4.24668 -5.50789,7.96822 0.67855,3.72246 4.25032,6.18371 7.96822,5.50789 15.66611,-2.85942 30.70116,-8.03945 44.75993,-15.41405 14.24691,11.65324 32.00987,18.01777 50.54455,18.01777 10.35183,0 20.43517,-1.95713 29.96781,-5.81749 2.58636,-1.0466 4.27955,-3.55807 4.27955,-6.349 -9.1e-4,-2.7882 -1.6941,-5.29967 -4.28046,-6.34718 z"
   id="path3417"
   style="stroke-width:0.913263;fill:#6d98cb;fill-opacity:1" /><path
   d="m 195.23725,331.35192 c 1.97721,-3.04482 3.1261,-6.67413 3.1261,-10.56645 0,-10.72902 -8.72897,-19.45799 -19.45799,-19.45799 H 162.9881 c -3.78365,0 -6.84947,3.06674 -6.84947,6.84948 v 54.79578 c 0,1.82196 0.72604,3.56903 2.01648,4.85399 1.28405,1.27857 3.02199,1.99548 4.83299,1.99548 0.0301,0 14.66335,-0.0648 18.69632,-0.0648 11.90987,0 21.59868,-9.68881 21.59868,-21.59867 9.1e-4,-6.78189 -3.14163,-12.84413 -8.04585,-16.80678 z m -25.39876,-16.32549 h 9.06779 c 3.17541,0 5.75903,2.58362 5.75903,5.75904 0,3.17541 -2.58362,5.75903 -5.75903,5.75903 -0.1516,0 -0.30321,0.005 -0.45207,0.0146 h -8.61572 z m 11.84593,41.03108 c -2.18087,0 -7.4504,0.0192 -11.84684,0.0365 v -15.83598 h 11.84684 c 4.35627,0 7.89973,3.54346 7.89973,7.89973 9.1e-4,4.35626 -3.54346,7.89972 -7.89973,7.89972 z"
   id="path3419"
   style="stroke-width:0.913263;fill:#6d98cb;fill-opacity:1" /><path
   d="m 121.99172,306.51117 c -0.0192,-0.0512 -0.0393,-0.10229 -0.0603,-0.15343 -1.24661,-3.05121 -4.19279,-5.02569 -7.48967,-5.03026 -3.29688,0.004 -6.24307,1.97905 -7.48967,5.03026 -0.021,0.0511 -0.0411,0.10228 -0.0603,0.15343 l -20.575814,54.02407 c -1.347063,3.53524 0.42832,7.49241 3.962648,8.83856 3.534328,1.34433 7.492411,-0.42649 8.839474,-3.96265 l 3.449392,-9.04313 h 23.75032 l 3.4494,9.04313 c 1.34706,3.53616 5.30514,5.30789 8.83947,3.96265 3.53433,-1.34615 5.3088,-5.30423 3.96265,-8.83856 z m -14.20032,36.15699 6.64947,-17.43053 6.64946,17.43053 z"
   id="path3421"
   style="stroke-width:0.913263;fill:#6d98cb;fill-opacity:1" /><path
   d="m 272.40341,349.99162 c -2.8987,-2.43202 -7.21843,-2.05393 -9.64954,0.84386 -0.47763,0.56896 -0.99363,1.10139 -1.53337,1.58177 -2.75988,2.4585 -6.2869,3.70511 -10.48152,3.70511 -11.32994,0 -20.54841,-9.21757 -20.54841,-20.54842 0,-11.33086 9.21847,-20.54842 20.54841,-20.54842 4.11882,0 8.08969,1.2119 11.48429,3.5051 3.13523,2.11786 7.39286,1.29318 9.50981,-1.84114 2.11694,-3.13432 1.29318,-7.39286 -1.84206,-9.51072 -5.66679,-3.8284 -12.29069,-5.8531 -19.15295,-5.8531 -18.88445,0 -34.24736,15.36291 -34.24736,34.24736 0,18.88446 15.36291,34.24737 34.24736,34.24737 7.54812,0 14.32362,-2.48134 19.59315,-7.17551 1.0329,-0.91966 2.01283,-1.93155 2.91422,-3.00555 2.43384,-2.89596 2.05575,-7.2166 -0.84203,-9.64771 z"
   id="path3423"
   style="stroke-width:0.913263;fill:#6d98cb;fill-opacity:1" /><path
   d="m 180.35837,177.42783 c -87.202014,0 -158.147028,70.9441 -158.147028,158.14611 0,38.95615 14.16471,76.10129 39.97809,105.09374 -6.944452,15.62776 -19.766665,28.08832 -35.699453,34.5387 -2.585447,1.04751 -4.278637,3.55807 -4.278637,6.349 0,2.79002 1.69319,5.3015 4.279551,6.34901 9.53264,3.85945 19.615977,5.81657 29.967814,5.81657 18.534674,0 36.296727,-6.36453 50.545453,-18.01868 22.52198,11.80119 47.77827,18.01868 73.35421,18.01868 87.20201,0 158.14611,-70.94501 158.14611,-158.14702 0,-87.20201 -70.9441,-158.14611 -158.14611,-158.14611 z m 0,302.59418 c -24.85172,0 -49.36735,-6.42297 -70.89388,-18.57394 -1.05207,-0.59453 -2.21283,-0.88495 -3.36537,-0.88495 -1.6868,0 -3.35898,0.62284 -4.65673,1.82561 -12.274253,11.37104 -28.249964,17.63328 -44.983683,17.63328 -3.08135,0 -6.133475,-0.20913 -9.145417,-0.62467 13.256927,-9.24679 23.563101,-22.40325 29.272821,-37.7753 0.906871,-2.44024 0.351607,-5.18368 -1.431996,-7.0787 -25.30652,-26.89103 -39.243827,-62.03887 -39.243827,-98.9694 0,-79.64841 64.798752,-144.44808 144.448082,-144.44808 79.64841,0 144.44716,64.79875 144.44716,144.44808 0,79.64932 -64.79875,144.44807 -144.44716,144.44807 z"
   id="path3425"
   style="stroke-width:0.913263;fill:#6d98cb;fill-opacity:1" /></svg>
