<?xml version="1.0" encoding="UTF-8" standalone="no"?>
<svg
   xmlns:dc="http://purl.org/dc/elements/1.1/"
   xmlns:cc="http://creativecommons.org/ns#"
   xmlns:rdf="http://www.w3.org/1999/02/22-rdf-syntax-ns#"
   xmlns:svg="http://www.w3.org/2000/svg"
   xmlns="http://www.w3.org/2000/svg"
   xmlns:sodipodi="http://sodipodi.sourceforge.net/DTD/sodipodi-0.dtd"
   xmlns:inkscape="http://www.inkscape.org/namespaces/inkscape"
   id="Capa_1"
   enable-background="new 0 0 512.866 512.866"
   height="512"
   viewBox="0 0 512.866 512.866"
   width="512"
   version="1.1"
   sodipodi:docname="geography.svg"
   inkscape:version="1.0.1 (c497b03c, 2020-09-10)">
  <metadata
     id="metadata910">
    <rdf:RDF>
      <cc:Work
         rdf:about="">
        <dc:format>image/svg+xml</dc:format>
        <dc:type
           rdf:resource="http://purl.org/dc/dcmitype/StillImage" />
      </cc:Work>
    </rdf:RDF>
  </metadata>
  <defs
     id="defs908" />
  <sodipodi:namedview
     pagecolor="#ffffff"
     bordercolor="#666666"
     borderopacity="1"
     objecttolerance="10"
     gridtolerance="10"
     guidetolerance="10"
     inkscape:pageopacity="0"
     inkscape:pageshadow="2"
     inkscape:window-width="1699"
     inkscape:window-height="990"
     id="namedview906"
     showgrid="false"
     inkscape:zoom="1.0782756"
     inkscape:cx="208.70226"
     inkscape:cy="311.6444"
     inkscape:window-x="0"
     inkscape:window-y="23"
     inkscape:window-maximized="0"
     inkscape:current-layer="Capa_1" />
  <path
     d="m 468.784,219.851 c 0,93.915 -136.174,227.47 -190.428,276.953 -12.424,11.331 -31.423,11.331 -43.846,0 C 180.256,447.321 44.082,313.766 44.082,219.851 44.082,102.573 139.155,7.5 256.433,7.5 c 117.278,0 212.351,95.073 212.351,212.351 z"
     fill="#f47c7c"
     id="path872"
     style="fill:#ffdad0;fill-opacity:1" />
  <path
     d="M 180.057,234.101 C 180.057,132.985 250.735,48.385 345.381,26.985 318.323,14.486 288.196,7.5 256.433,7.5 139.155,7.5 44.082,102.573 44.082,219.851 c 0,93.916 136.174,227.47 190.428,276.954 12.424,11.331 31.423,11.331 43.846,0 10.473,-9.553 24.006,-22.248 39.016,-37.177 C 256.263,396.796 180.057,304.358 180.057,234.101 Z"
     fill="#ee6161"
     id="path874"
     style="fill:#ffc6b7;fill-opacity:1" />
  <path
     d="m 256.433,62.771 c -86.75,0 -157.08,70.33 -157.08,157.08 0,23.13 5,45.1 13.99,64.87 l 102.123,18.87 150.899,-5.377 44.508,-49.542 c 1.73,-9.34 2.64,-18.97 2.64,-28.82 0,-86.751 -70.33,-157.081 -157.08,-157.081 z"
     fill="#dff6fd"
     id="path876"
     style="fill:#fff1ec;fill-opacity:1" />
  <path
     d="m 256.443,62.767 c -86.75,0 -157.08,70.33 -157.08,157.08 0,23.13 5,45.1 13.99,64.87 l 84.042,15.529 c -10.783,-23.085 -17.329,-45.569 -17.329,-66.149 0,-70.146 34.007,-132.34 86.44,-171.004 -3.332,-0.211 -6.677,-0.326 -10.063,-0.326 z"
     fill="#99e6fc"
     id="path878"
     style="fill:#ffe2d8;fill-opacity:1" />
  <path
     d="m 360.083,209.311 c -4.3,-3.44 -10.43,-3.39 -14.68,0.12 l -42.05,34.83 c 0,0 -59.451,39.779 -57.86,39.314 1.591,-0.465 92.783,50.963 92.783,50.963 l 46.987,-24.798 c 12.56,-17.97 21.46,-38.68 25.61,-61.07 z"
     fill="#97da7b"
     id="path880"
     style="fill:#ffcbb9;fill-opacity:1" />
  <path
     d="m 303.353,244.261 81.91,65.48 c -28.39,40.62 -75.51,67.19 -128.83,67.19 -63.62,0 -118.4,-37.82 -143.09,-92.21 l 110.89,-91.83 c 4.25,-3.51 10.38,-3.57 14.68,-0.13 z"
     fill="#ade194"
     id="path882"
     style="fill:#ffd4c5;fill-opacity:1" />
  <path
     d="m 180.057,234.101 c 0,-1.56 0.027,-3.124 0.06,-4.677 l -66.774,55.296 c 23.203,51.115 72.99,87.595 131.705,91.804 -36.29,-47.847 -64.991,-99.314 -64.991,-142.423 z"
     fill="#97da7b"
     id="path884"
     style="fill:#ffb79e;fill-opacity:1" />
  <circle
     cx="303.35101"
     cy="152.93401"
     fill="#fef056"
     r="22.579"
     id="circle889"
     style="fill:#ffad96;fill-opacity:1" />
  <g
     id="g901"
     style="fill:#ff643a;fill-opacity:1">
    <path
       d="M 411.891,64.393 C 370.367,22.868 315.158,0 256.433,0 197.708,0 142.5,22.868 100.975,64.393 59.45,105.918 36.582,161.126 36.582,219.851 c 0,96.196 134.882,229.603 192.874,282.494 7.691,7.015 17.333,10.521 26.978,10.521 9.643,0 19.289,-3.508 26.978,-10.521 57.991,-52.892 192.874,-186.298 192.874,-282.494 -0.002,-58.725 -22.87,-113.934 -64.395,-155.458 z m -138.589,426.87 c -9.617,8.771 -24.121,8.771 -33.738,0 C 214.352,468.267 165.918,421.977 124.82,370.321 76.223,309.239 51.582,258.614 51.582,219.851 51.582,106.896 143.478,15 256.433,15 c 112.955,0 204.851,91.896 204.851,204.851 0,38.763 -24.641,89.388 -73.238,150.47 -41.098,51.656 -89.531,97.946 -114.744,120.942 z"
       id="path893"
       style="fill:#ff643a;fill-opacity:1" />
    <path
       d="m 292.613,365.019 c -11.792,2.93 -23.965,4.415 -36.18,4.415 -58.448,0 -109.166,-33.702 -133.763,-82.688 l 50.594,-41.9 c 3.19,-2.642 3.635,-7.37 0.993,-10.561 -2.643,-3.188 -7.37,-3.634 -10.56,-0.992 l -47.287,39.161 c -6.171,-16.373 -9.558,-34.099 -9.558,-52.604 0,-82.48 67.103,-149.583 149.583,-149.583 40.328,0 78.143,15.817 106.48,44.539 2.908,2.947 7.657,2.979 10.606,0.071 2.949,-2.909 2.98,-7.658 0.071,-10.606 C 342.414,72.67 300.807,55.267 256.434,55.267 c -90.751,0 -164.583,73.832 -164.583,164.583 0,90.751 73.832,164.583 164.583,164.583 13.433,0 26.822,-1.635 39.797,-4.858 4.02,-0.998 6.469,-5.066 5.471,-9.087 -1,-4.019 -5.067,-6.47 -9.089,-5.469 z"
       id="path895"
       style="fill:#ff643a;fill-opacity:1" />
    <path
       d="m 394.577,130.368 c -2.255,-3.476 -6.901,-4.462 -10.374,-2.208 -3.475,2.255 -4.463,6.899 -2.208,10.374 15.715,24.212 24.021,52.331 24.021,81.316 0,5.333 -0.284,10.637 -0.841,15.894 l -40.409,-32.295 c -7.043,-5.63 -17.198,-5.541 -24.144,0.21 l -37.356,30.937 -59.671,-47.69 c -7.044,-5.628 -17.198,-5.539 -24.143,0.211 l -31.14,25.789 c -3.19,2.642 -3.635,7.37 -0.993,10.561 2.642,3.191 7.37,3.635 10.56,0.992 l 31.14,-25.789 c 1.499,-1.242 3.691,-1.26 5.211,-0.046 l 64.395,51.465 c 0.022,0.018 0.045,0.036 0.067,0.053 l 76.26,60.948 c -14.229,18.47 -32.55,33.409 -53.627,43.574 -3.731,1.8 -5.297,6.283 -3.498,10.014 1.293,2.681 3.971,4.244 6.761,4.244 1.093,0 2.203,-0.24 3.252,-0.746 27.496,-13.261 50.752,-33.882 67.257,-59.635 16.956,-26.457 25.918,-57.126 25.918,-88.69 0.001,-31.891 -9.142,-62.833 -26.438,-89.483 z m -11.055,168.369 -68.287,-54.576 34.956,-28.949 c 1.499,-1.24 3.691,-1.262 5.211,-0.046 l 46.971,37.54 c -3.642,16.239 -9.989,31.783 -18.851,46.031 z"
       id="path897"
       style="fill:#ff643a;fill-opacity:1" />
    <path
       d="m 273.271,152.934 c 0,16.586 13.494,30.079 30.079,30.079 16.585,0 30.079,-13.493 30.079,-30.079 0,-16.586 -13.494,-30.079 -30.079,-30.079 -16.585,0 -30.079,13.493 -30.079,30.079 z m 45.159,0 c 0,8.314 -6.765,15.079 -15.079,15.079 -8.314,0 -15.079,-6.765 -15.079,-15.079 0,-8.314 6.765,-15.079 15.079,-15.079 8.314,0 15.079,6.764 15.079,15.079 z"
       id="path899"
       style="fill:#ff643a;fill-opacity:1" />
  </g>
  <rect
     style="fill:#ff7f5c;fill-opacity:1;stroke-width:1.89296;stroke-linecap:round"
     id="rect1475"
     width="449.25272"
     height="316.73932"
     x="-711.04749"
     y="-29.088305"
     rx="1001691.4" />
</svg>
