<?xml version="1.0" encoding="UTF-8" standalone="no"?>
<svg
   xmlns:dc="http://purl.org/dc/elements/1.1/"
   xmlns:cc="http://creativecommons.org/ns#"
   xmlns:rdf="http://www.w3.org/1999/02/22-rdf-syntax-ns#"
   xmlns:svg="http://www.w3.org/2000/svg"
   xmlns="http://www.w3.org/2000/svg"
   xmlns:sodipodi="http://sodipodi.sourceforge.net/DTD/sodipodi-0.dtd"
   xmlns:inkscape="http://www.inkscape.org/namespaces/inkscape"
   version="1.1"
   id="Capa_1"
   x="0px"
   y="0px"
   viewBox="0 0 512 512"
   style="enable-background:new 0 0 512 512;"
   xml:space="preserve"
   sodipodi:docname="history.svg"
   inkscape:version="1.0.1 (c497b03c, 2020-09-10)"><metadata
   id="metadata956"><rdf:RDF><cc:Work
       rdf:about=""><dc:format>image/svg+xml</dc:format><dc:type
         rdf:resource="http://purl.org/dc/dcmitype/StillImage" /></cc:Work></rdf:RDF></metadata><defs
   id="defs954" /><sodipodi:namedview
   pagecolor="#ffffff"
   bordercolor="#666666"
   borderopacity="1"
   objecttolerance="10"
   gridtolerance="10"
   guidetolerance="10"
   inkscape:pageopacity="0"
   inkscape:pageshadow="2"
   inkscape:window-width="1792"
   inkscape:window-height="1120"
   id="namedview952"
   showgrid="false"
   inkscape:zoom="1.2620272"
   inkscape:cx="192.37715"
   inkscape:cy="266.18968"
   inkscape:window-x="0"
   inkscape:window-y="0"
   inkscape:window-maximized="0"
   inkscape:current-layer="Capa_1"
   inkscape:document-rotation="0" />
<rect
   x="67.254"
   y="249.575"
   style="fill:#dadbff;fill-opacity:1"
   width="62.424"
   height="33.669"
   id="rect833" />
<rect
   x="67.253998"
   y="249.575"
   style="fill:#adafff;fill-opacity:1"
   width="19.528999"
   height="33.668999"
   id="rect835" />
<rect
   x="381.123"
   y="249.575"
   style="fill:#dadbff;fill-opacity:1"
   width="62.424"
   height="33.669"
   id="rect837" />
<rect
   x="381.123"
   y="249.575"
   style="fill:#adafff;fill-opacity:1"
   width="20.001"
   height="33.669"
   id="rect839" />
<path
   style="fill:#c5c7ff;fill-opacity:1"
   d="M412.335,187.247c0,0-68.09,20.811-31.556,65.336h31.556h31.556  C480.425,208.059,412.335,187.247,412.335,187.247z"
   id="path841" />
<path
   style="fill:#b1b3ff;fill-opacity:1"
   d="M422.894,191.422c-6.06-2.796-10.559-4.174-10.559-4.174s-68.09,20.811-31.556,65.337h21.116  C374.749,219.497,405.367,199.51,422.894,191.422z"
   id="path843" />
<path
   style="fill:#c5c7ff;fill-opacity:1"
   d="M98.467,187.247c0,0,68.09,20.811,31.556,65.336H98.467H66.911  C30.377,208.059,98.467,187.247,98.467,187.247z"
   id="path845" />
<path
   style="fill:#b1b3ff;fill-opacity:1"
   d="M108.468,191.165c-5.777-2.626-10.001-3.917-10.001-3.917s-68.09,20.811-31.556,65.337h20.001  C59.476,219.146,91.044,199.083,108.468,191.165z"
   id="path847" />
<rect
   x="175.171"
   y="203.322"
   style="fill:#a9abff;fill-opacity:1"
   width="162.29"
   height="32.252"
   id="rect849" />
<rect
   x="175.171"
   y="203.322"
   style="fill:#888bff;fill-opacity:1"
   width="21.709"
   height="32.252"
   id="rect851" />
<path
   style="fill:#d9c2e0;fill-opacity:1"
   d="M48.791,281.031H28.079h-2c-3.952,0-7.155,3.204-7.155,7.156v166.794c11.672,0,13.172,0,31.868,0  V281.031H48.791z"
   id="path853" />
<path
   style="fill:#c1c3ff;fill-opacity:1"
   d="m 56.08,281.031 h -28.001 -2 c -3.952,0 -7.155,3.204 -7.155,7.156 V 454.981 H 48.925 V 288.186 c -10e-4,-3.952 3.203,-7.155 7.155,-7.155 z"
   id="path855"
   sodipodi:nodetypes="ccsscccc" />
<rect
   x="48.791"
   y="281.027"
   style="fill:#d0d1ff;fill-opacity:1"
   width="104.746"
   height="173.951"
   id="rect857" />
<rect
   x="48.791"
   y="281.027"
   style="fill:#adaeff;fill-opacity:1"
   width="22.001"
   height="173.951"
   id="rect859" />
<rect
   x="48.791"
   y="281.027"
   style="fill:#dadbff;fill-opacity:1"
   width="104.746"
   height="86.975"
   id="rect861" />
<rect
   x="48.791"
   y="281.027"
   style="fill:#c1c3ff;fill-opacity:1"
   width="22.001"
   height="86.975"
   id="rect863" />
<path
   style="fill:#adafff;fill-opacity:1"
   d="M484.723,281.031h-2h-20.712h-2v173.951h2h27.868h2V288.186  C491.879,284.234,488.676,281.031,484.723,281.031z"
   id="path865" />
<polygon
   style="fill:#bfc1ff;fill-opacity:1"
   points="462.011,281.031 460.011,281.031 460.011,454.982 462.011,454.982 482.012,454.982   482.012,281.031 "
   id="polygon867" />
<rect
   x="356.802"
   y="281.027"
   style="fill:#d0d1ff;fill-opacity:1"
   width="105.216"
   height="173.951"
   id="rect869" />
<rect
   x="356.802"
   y="281.027"
   style="fill:#dadbff;fill-opacity:1"
   width="105.216"
   height="86.975"
   id="rect871" />
<rect
   x="356.802"
   y="281.027"
   style="fill:#adaeff;fill-opacity:1"
   width="23.211"
   height="173.951"
   id="rect873" />
<rect
   x="356.802"
   y="281.027"
   style="fill:#c1c3ff;fill-opacity:1"
   width="23.211"
   height="86.975"
   id="rect875" />
<path
   style="fill:#a9abff;fill-opacity:1"
   d="M359.701,454.982h-208.6V237.052c0-3.352,2.718-6.07,6.07-6.07h196.9c3.109,0,5.629,2.52,5.629,5.629  V454.982z"
   id="path877" />
<path
   style="fill:#888bff;fill-opacity:1"
   d="M181.238,230.982h-24.066c-3.352,0-6.07,2.718-6.07,6.07v217.929h24.066V237.052  C175.168,233.699,177.886,230.982,181.238,230.982z"
   id="path879" />
<path
   style="fill:#c7c9ff;fill-opacity:1"
   d="M332.2,253.651H180.834c-3.129,0-5.666,2.536-5.666,5.665v195.664h162.287V258.906  C337.454,256.004,335.102,253.651,332.2,253.651z"
   id="path881" />
<g
   id="g887"
   style="fill:#b3b5ff;fill-opacity:1">
	<path
   style="fill:#b3b5ff;fill-opacity:1"
   d="M202.841,253.651h-22.007c-3.129,0-5.666,2.536-5.666,5.665v195.664h22.007V259.318   C197.175,256.189,199.712,253.651,202.841,253.651z"
   id="path883" />
	<path
   style="fill:#b3b5ff;fill-opacity:1"
   d="M315.447,454.982V354.786c0-27.94-16.101-53.378-41.353-65.335l-15.377-7.28   c-1.523-0.721-3.29-0.721-4.813,0l-15.377,7.281c-25.252,11.957-41.353,37.395-41.353,65.335v100.195h118.272V454.982z"
   id="path885" />
</g>
<path
   style="fill:#888bff;fill-opacity:1"
   d="M258.036,296.921l15.377-6.952c0.332-0.15,0.677-0.261,1.026-0.346  c-0.116-0.056-0.228-0.116-0.344-0.171l-15.377-7.281c-1.523-0.721-3.29-0.721-4.813,0l-15.377,7.281  c-25.252,11.957-41.353,37.395-41.353,65.335v100.195h19.508v-95.674C216.683,332.628,232.784,308.338,258.036,296.921z"
   id="path889" />
<path
   style="fill:#bfc1ff;fill-opacity:1"
   d="M430.474,368.006v-30.733c0-8.571-4.938-16.373-12.685-20.04L413.073,315  c-0.467-0.221-1.009-0.221-1.476,0l-4.716,2.233c-7.745,3.667-12.685,11.471-12.685,20.04v30.733H430.474z"
   id="path891" />
<path
   style="fill:#888bff;fill-opacity:1"
   d="M422.336,320.122c-1.377-1.127-2.892-2.107-4.546-2.89l-4.716-2.233  c-0.467-0.221-1.009-0.221-1.476,0l-4.716,2.233c-7.745,3.667-12.685,11.471-12.685,20.04v30.733h20.001v-30.733  C414.197,330.532,417.262,324.275,422.336,320.122z"
   id="path893" />
<path
   style="fill:#bfc1ff;fill-opacity:1"
   d="M430.474,454.982v-30.733c0-8.571-4.938-16.373-12.685-20.04l-4.716-2.233  c-0.467-0.221-1.009-0.221-1.476,0l-4.716,2.233c-7.745,3.667-12.685,11.471-12.685,20.04v30.733H430.474z"
   id="path895" />
<path
   style="fill:#888bff;fill-opacity:1"
   d="M422.336,407.098c-1.377-1.127-2.893-2.108-4.546-2.89l-4.716-2.233  c-0.467-0.221-1.009-0.221-1.476,0l-4.716,2.233c-7.745,3.667-12.685,11.471-12.685,20.04v30.733h20.001v-30.733  C414.197,417.507,417.262,411.25,422.336,407.098z"
   id="path897" />
<path
   style="fill:#c5c7ff;fill-opacity:1"
   d="M256.311,40.841c0,0-175.089,53.513-81.143,168.008h81.143h81.144  C431.4,94.356,256.311,40.841,256.311,40.841z"
   id="path899" />
<path
   style="fill:#b1b3ff;fill-opacity:1"
   d="M275.632,48.105c-11.477-4.865-19.321-7.263-19.321-7.263S81.222,94.356,175.168,208.85h22.001  C110.146,106.844,253.965,55.167,275.632,48.105z"
   id="path901" />
<g
   id="g907"
   style="fill:#c7a5d1;fill-opacity:1">
	<path
   style="fill:#bfc1ff;fill-opacity:1"
   d="M80.328,368.006v-30.733c0-8.571,4.938-16.373,12.684-20.04L97.728,315   c0.467-0.221,1.009-0.221,1.476,0l4.716,2.233c7.745,3.667,12.684,11.471,12.684,20.04v30.733H80.328z"
   id="path903" />
	<path
   style="fill:#bfc1ff;fill-opacity:1"
   d="M80.328,454.982v-30.733c0-8.571,4.938-16.373,12.684-20.04l4.716-2.233   c0.467-0.221,1.009-0.221,1.476,0l4.716,2.233c7.745,3.667,12.684,11.471,12.684,20.04v30.733H80.328z"
   id="path905" />
</g>
<g
   id="g913"
   style="fill:#888bff;fill-opacity:1">
	<path
   style="fill:#888bff;fill-opacity:1"
   d="M108.468,320.122c-1.377-1.127-2.892-2.107-4.545-2.89l-4.717-2.233   c-0.467-0.221-1.009-0.221-1.476,0l-4.716,2.233c-7.745,3.667-12.684,11.471-12.684,20.04v30.733h20.001v-30.733   C100.329,330.532,103.394,324.275,108.468,320.122z"
   id="path909" />
	<path
   style="fill:#888bff;fill-opacity:1"
   d="M108.468,407.098c-1.377-1.127-2.893-2.107-4.545-2.89l-4.717-2.233   c-0.467-0.221-1.009-0.221-1.476,0l-4.716,2.233c-7.745,3.667-12.684,11.471-12.684,20.04v30.733h20.001v-30.733   C100.329,417.507,103.394,411.251,108.468,407.098z"
   id="path911" />
</g>
<path
   style="fill:#cacbff;fill-opacity:1"
   d="M491.9,488.582H18.902c-6.6,0-12.001-5.4-12.001-12.001v-11.33c0-6.6,5.4-12.001,12.001-12.001H491.9  c6.6,0,12.001,5.4,12.001,12.001v11.33C503.901,483.181,498.5,488.582,491.9,488.582z"
   id="path915" />
<path
   style="fill:#dadbff;fill-opacity:1"
   d="M491.9,471.647H18.902c-5.634,0-10.382-3.94-11.655-9.199c-0.452,1.869-0.346,1.725-0.346,14.132  c0,6.6,5.4,12.001,12.001,12.001H491.9c6.6,0,12.001-5.4,12.001-12.001v-11.33c0-0.966-0.128-1.901-0.346-2.802  C502.282,467.706,497.534,471.647,491.9,471.647z"
   id="path917" />
<path
   style="fill:#7175ff;fill-opacity:1"
   d="m 499.31502,448.47301 v -63.171 c 0,-4.142 -3.357,-7.5 -7.5,-7.5 -4.143,0 -7.5,3.358 -7.5,7.5 v 61.674 h -14.868 c 0,-6.986 0,-151.98 0,-158.95 h 14.867 v 62.274 c 0,4.142 3.357,7.5 7.5,7.5 4.143,0 7.5,-3.358 7.5,-7.5 v -62.618 c 0,-8.081 -6.574,-14.657 -14.656,-14.657 -45.258,0 -20.884,0 -33.674,0 v -17.916 c 10.075,-12.992 13.344,-25.713 9.68,-37.837 -7.764,-25.687 -44.636,-37.223 -46.201,-37.702 -1.43,-0.437 -2.955,-0.437 -4.385,0 -20.261,6.193 -46.926,22.599 -47.625,46.499 -4.505,-3.797 -8.33,-3.092 -17.563,-3.092 v -11.99 c 24.701,-30.966 32.954,-60.809 24.513,-88.736 -15.842,-52.413992 -85.579,-80.285992 -105.656,-87.320992 v -12.016 c 0,-4.142 -3.357,-7.5 -7.5,-7.5 -4.14302,0 -7.50002,3.358 -7.50002,7.5 v 12.016 c -20.077,7.035 -89.815,34.906 -105.656,87.320992 -8.441,27.928 -0.187,57.77 24.513,88.736 v 11.99 c -10.773,0 -14.666,-0.756 -19.373,3.33 -0.53,-23.998 -27.307,-40.523 -47.635,-46.737 -1.43,-0.437 -2.955,-0.437 -4.385,0 -1.565,0.479 -38.436997,12.016 -46.200997,37.702 -3.664,12.125 -0.395,24.846 9.68,37.837 v 17.916 c -12.807,0 11.601,0 -33.674,0 -8.081,0 -14.656,6.575 -14.656,14.657 v 160.79 c -7.053,2.942 -12.0230004,9.903 -12.0230004,18.006 v 9.599 c 0,10.753 8.7490004,19.501 19.5010004,19.501 H 238.747 c 4.143,0 7.5,-3.358 7.5,-7.5 0,-4.142 -3.357,-7.5 -7.5,-7.5 H 18.838003 c -2.439,0 -4.5,-2.061 -4.5,-4.5 v -9.599 c 0,-2.406 2.019,-4.5 4.521,-4.5 5.047,0 467.929017,0 472.977017,0 2.439,0 4.5,2.061 4.5,4.5 v 9.599 c 0,2.439 -2.061,4.5 -4.5,4.5 h -218.087 c -4.143,0 -7.5,3.358 -7.5,7.5 0,4.142 3.357,7.5 7.5,7.5 h 218.087 c 10.753,0 19.501,-8.749 19.501,-19.501 v -9.599 c 0,-8.104 -4.971,-15.064 -12.022,-18.005 z m -458.088017,-1.496 h -14.867 v -158.95 h 14.867 c 0,6.986 0,151.981 0,158.95 z m 23.135,-225.341 c 4.158,-13.822 24.267,-23.515 34.049997,-26.992 9.769,3.449 29.831,13.091 34.025,26.968 2.066,6.838 -0.002,14.554 -6.148,22.966 H 70.517003 c -6.14,-8.402 -8.211,-16.109 -6.155,-22.942 z m 57.753997,37.945 v 13.446 H 74.690003 v -13.446 z m -13.074,187.396 H 87.764003 v -23.232 c 0,-5.641 3.294997,-10.847 8.394997,-13.262 l 2.244,-1.063 2.245,1.063 c 5.099,2.415 8.395,7.62 8.395,13.262 z m 34.495,0 h -19.494 v -23.232 c 0,-11.409 -6.663,-21.936 -16.975,-26.819 -8.655,-4.098 -8.089,-4.376 -17.329997,0 -10.312,4.882 -16.975,15.41 -16.975,26.819 v 23.232 h -16.536 v -71.974 c 10.407,0 76.956997,0 87.309997,0 z m -55.772997,-86.975 v -23.232 c 0,-5.642 3.294997,-10.848 8.394997,-13.262 l 2.244,-1.063 2.246,1.063 c 5.098,2.414 8.394,7.619 8.394,13.261 v 23.232 z m 55.772997,0 h -19.494 v -23.232 c 0,-11.41 -6.663,-21.937 -16.975,-26.819 -9.217,-4.365 -8.638,-4.116 -17.329997,0 -10.312,4.882 -16.975,15.41 -16.975,26.82 v 23.232 h -16.536 v -71.974 c 10.653,0 77.846997,0 87.309997,0 z m 0,-86.975 h -6.419 v -17.918 c 2.593,-3.344 4.732,-6.669 6.419,-9.972 z m 13.904,-146.407 c 14.379,-47.656996 85.353,-73.818992 98.80702,-78.387992 13.454,4.568 84.428,30.730996 98.807,78.387992 6.846,22.689 -0.306,47.649 -21.255,74.226 H 178.696 c -20.95,-26.577 -28.102,-51.537 -21.255,-74.226 z m 172.44902,89.226 v 7.131 H 182.604 v -7.131 z m -22.007,231.131 H 204.611 v -92.695 c 0,-24.911 14.548,-47.895 37.063,-58.556 l 14.57302,-6.9 14.573,6.9 c 22.515,10.661 37.063,33.646 37.063,58.557 z m 22.007,0 h -7.006 v -92.695 c 0,-30.678 -17.916,-58.985 -45.644,-72.113 -24.07902,-11.401 -17.826,-11.44 -41.98702,0 -27.728,13.128 -45.644,41.435 -45.644,72.113 v 92.695 h -7.006 v -186.329 h 147.28602 v 186.329 z m 22.246,0 h -7.245 v -188.574 c 0,-7.033 -5.722,-12.755 -12.755,-12.755 H 180.769 c -7.259,0 -13.166,5.906 -13.166,13.167 v 188.163 h -9.065 c 0,-2.705 0,-205.403 0,-208.999 8.039,0 178.83402,0 193.59902,0 -0.001,3.603 -0.001,206.288 -0.001,208.998 z m 26.094,-225.341 c 4.158,-13.822 24.267,-23.515 34.05,-26.992 9.769,3.449 29.831,13.091 34.025,26.968 2.066,6.838 0,14.554 -6.148,22.966 h -55.771 c -6.14,-8.402 -8.212,-16.109 -6.156,-22.942 z m 57.754,37.945 v 13.446 h -47.427 v -13.446 z m -68.847,-14.442 c 1.687,3.302 3.826,6.626 6.418,9.97 v 17.918 h -6.418 z m 55.773,201.838 h -21.276 v -23.232 c 0,-5.642 3.294,-10.848 8.394,-13.262 l 2.245,-1.063 2.244,1.063 c 5.099,2.415 8.395,7.62 8.395,13.262 v 23.232 z m 31.537,0 h -16.536 v -23.232 c 0,-11.409 -6.663,-21.936 -16.975,-26.819 l -4.72,-2.235 c -4.682,-2.213 -7.951,0.029 -12.61,2.235 -10.312,4.882 -16.974,15.41 -16.974,26.819 v 23.232 h -19.495 v -71.974 c 10.053,0 77.19,0 87.309,0 z m -52.815,-86.975 v -23.232 c 0,-5.642 3.294,-10.848 8.394,-13.262 l 2.245,-1.063 2.244,1.063 c 5.099,2.415 8.395,7.62 8.395,13.262 v 23.232 z m 52.815,0 h -16.536 v -23.232 c 0,-11.41 -6.663,-21.937 -16.975,-26.82 -9.216,-4.363 -8.632,-4.118 -17.329,0 -10.313,4.882 -16.975,15.41 -16.975,26.82 v 23.232 h -19.495 v -71.974 c 9.437,0 76.655,0 87.309,0 z"
   id="path919" />
<g
   id="g921">
</g>
<g
   id="g923">
</g>
<g
   id="g925">
</g>
<g
   id="g927">
</g>
<g
   id="g929">
</g>
<g
   id="g931">
</g>
<g
   id="g933">
</g>
<g
   id="g935">
</g>
<g
   id="g937">
</g>
<g
   id="g939">
</g>
<g
   id="g941">
</g>
<g
   id="g943">
</g>
<g
   id="g945">
</g>
<g
   id="g947">
</g>
<g
   id="g949">
</g>
<ellipse
   style="fill:#bf9aca;stroke-width:1.88976;stroke-linecap:round;fill-opacity:1"
   id="path2149"
   cx="-506.06238"
   cy="58.707932"
   rx="132.67993"
   ry="140.89903" /></svg>
