<?xml version="1.0" encoding="UTF-8" standalone="no"?>
<svg
   xmlns:dc="http://purl.org/dc/elements/1.1/"
   xmlns:cc="http://creativecommons.org/ns#"
   xmlns:rdf="http://www.w3.org/1999/02/22-rdf-syntax-ns#"
   xmlns:svg="http://www.w3.org/2000/svg"
   xmlns="http://www.w3.org/2000/svg"
   xmlns:sodipodi="http://sodipodi.sourceforge.net/DTD/sodipodi-0.dtd"
   xmlns:inkscape="http://www.inkscape.org/namespaces/inkscape"
   height="512"
   viewBox="0 0 60 60"
   width="512"
   version="1.1"
   id="svg859"
   sodipodi:docname="literature.svg"
   inkscape:version="1.0.1 (c497b03c, 2020-09-10)">
  <metadata
     id="metadata865">
    <rdf:RDF>
      <cc:Work
         rdf:about="">
        <dc:format>image/svg+xml</dc:format>
        <dc:type
           rdf:resource="http://purl.org/dc/dcmitype/StillImage" />
      </cc:Work>
    </rdf:RDF>
  </metadata>
  <defs
     id="defs863" />
  <sodipodi:namedview
     pagecolor="#ffffff"
     bordercolor="#666666"
     borderopacity="1"
     objecttolerance="10"
     gridtolerance="10"
     guidetolerance="10"
     inkscape:pageopacity="0"
     inkscape:pageshadow="2"
     inkscape:window-width="1394"
     inkscape:window-height="925"
     id="namedview861"
     showgrid="false"
     inkscape:zoom="0.99679958"
     inkscape:cx="256"
     inkscape:cy="256"
     inkscape:window-x="0"
     inkscape:window-y="23"
     inkscape:window-maximized="0"
     inkscape:current-layer="svg859"
     inkscape:document-rotation="0" />
  <path
     id="Shape"
     d="m 50.31943,43.261524 c 0,0.190686 0,0.381372 -0.05201,0.563391 l -0.04334,0.225356 c -0.427107,2.419988 -2.27177,4.343365 -4.67181,4.871164 -0.771155,0.177927 -1.570631,0.195627 -2.348906,0.052 L 37.240095,47.924666 22.253899,45.324401 15.900584,44.206287 c -0.573973,-0.105932 -1.056107,-0.493594 -1.282798,-1.031439 -0.159645,-0.321927 -0.208401,-0.687597 -0.138681,-1.040106 0.148743,-0.837432 0.883073,-1.443253 1.733511,-1.430146 0.100939,-0.0086 0.202423,-0.0086 0.303364,0 l 5.763921,1.014104 21.417519,3.82239 c 1.242165,0.246023 2.485632,-0.417401 2.97297,-1.586162 0.300923,-0.725632 0.257675,-1.548411 -0.117664,-2.238495 -0.375339,-0.690084 -1.042531,-1.173498 -1.815199,-1.315201 L 37.274765,39.083764 17.43474,35.616744 c -0.957391,-0.08138 -1.667539,-0.923468 -1.586162,-1.880859 0.08138,-0.957392 0.923468,-1.66754 1.880859,-1.586162 0.10094,-0.0086 0.202425,-0.0086 0.303364,0 l 27.1121,4.775821 c 3.065644,0.522457 5.275036,3.227759 5.174529,6.33598 z"
     fill="#6a1b9a"
     style="fill:#ff806f;fill-opacity:1;fill-rule:nonzero;stroke-width:0.866755" />
  <path
     id="path834"
     d="m 46.67039,43.954928 c -0.487338,1.168761 -1.730805,1.832185 -2.97297,1.586162 l -21.434854,-3.779053 -5.772589,-1.014103 0.866755,-5.122523 19.840025,3.467021 7.54077,1.3088 c 0.772668,0.141703 1.43986,0.625117 1.815199,1.315201 0.375339,0.690084 0.418587,1.512863 0.117664,2.238495 z"
     fill="#ffeb3a"
     style="fill:#ffccc5;fill-opacity:1;fill-rule:nonzero;stroke-width:0.866755" />
  <path
     id="path836"
     d="m 55.138588,15.941402 c -0.01031,0.267497 -0.03927,0.533949 -0.08668,0.797415 L 50.26742,43.868252 c 0,-0.182018 0,-0.372704 0.05201,-0.563391 0.06781,-3.093831 -2.147911,-5.76747 -5.200531,-6.275307 L 17.989464,32.210396 c -0.100941,-0.0086 -0.202425,-0.0086 -0.303365,0 -0.850437,-0.01311 -1.584767,0.592714 -1.73351,1.430146 L 19.41961,14.129884 20.79775,6.3290881 C 20.87941,5.8755807 21.138277,5.4732488 21.517157,5.210974 21.881208,4.9218461 22.348716,4.7963406 22.808622,4.8642719 l 27.129435,4.8104909 c 3.053275,0.5004512 5.271522,3.1734372 5.200531,6.2666392 z"
     fill="#9d27b0"
     style="fill:#ffafa5;fill-opacity:1;fill-rule:nonzero;stroke-width:0.866755" />
  <path
     id="path838"
     d="M 49.938057,9.6747628 22.808622,4.8642719 c -0.420638,-0.077187 -0.854864,0.00966 -1.213457,0.2426915 l 25.742627,4.5677994 c 3.053275,0.5004512 5.271521,3.1734372 5.200531,6.2666392 -0.01031,0.267497 -0.03927,0.533949 -0.08668,0.797415 l -3.900398,22.05025 c 1.179292,1.181866 1.808235,2.804538 1.73351,4.472457 0,0.190686 0,0.381372 -0.05201,0.563391 l 4.810491,-27.086098 c 0.0474,-0.263466 0.07636,-0.529918 0.08667,-0.797415 0.07164,-3.090402 -2.142044,-5.762338 -5.191863,-6.2666392 z"
     fill="#6a1b9a"
     style="fill:#ff8575;fill-opacity:1;fill-rule:nonzero;stroke-width:0.866755" />
  <rect
     id="Rectangle-path"
     fill="#f5f5f5"
     height="10.403666"
     rx="0.86697221"
     transform="rotate(10.017934)"
     width="19.940361"
     x="25.913141"
     y="13.855294"
     style="fill:#ffcfca;fill-opacity:1;fill-rule:nonzero;stroke-width:0.866972" />
  <path
     id="path841"
     d="m 45.552276,48.921435 c -0.160973,0.668288 -0.701616,1.178329 -1.37814,1.300132 L 16.854014,55.040726 C 15.237978,55.32492 13.575738,54.942459 12.246409,53.980573 10.91708,53.018688 10.034019,51.559401 9.7986277,49.935538 9.7651303,49.731932 9.7448636,49.526369 9.7379548,49.320142 9.6693399,46.35957 11.7077,43.765294 14.600451,43.13151 c 0.226691,0.537845 0.708825,0.925507 1.282798,1.031439 l 6.318644,1.118114 -6.847365,1.187455 c -0.769334,0.133608 -1.437898,0.605877 -1.820957,1.286312 -0.383059,0.680434 -0.440057,1.496993 -0.155245,2.224046 0.490255,1.171112 1.735382,1.83711 2.981638,1.594829 l 20.880131,-3.683709 5.963275,1.048774 c 0.775905,0.155021 1.575373,0.149121 2.348906,-0.01733 z"
     fill="#4527a0"
     style="fill:#ff5944;fill-opacity:1;fill-rule:nonzero;stroke-width:0.866755" />
  <path
     id="path843"
     d="m 37.240095,47.924666 -20.880131,3.68371 c -1.246256,0.24228 -2.491383,-0.423718 -2.981638,-1.59483 -0.297737,-0.730966 -0.247353,-1.557597 0.136955,-2.246992 0.384308,-0.689395 1.060937,-1.166921 1.839247,-1.298036 l 6.847365,-1.187455 z"
     fill="#ffeb3a"
     style="fill:#ffdbd6;fill-opacity:1;fill-rule:nonzero;stroke-width:0.866755" />
  <path
     id="path845"
     d="m 17.391403,35.625411 -0.866756,5.122523 c -0.100939,-0.0086 -0.202424,-0.0086 -0.303364,0 -0.850437,-0.01311 -1.584767,0.592714 -1.73351,1.430146 -0.06177,0.331172 -0.01937,0.673348 0.121346,0.979433 -2.892752,0.633784 -4.9311118,3.228061 -4.8624966,6.188632 0.00691,0.206227 0.027175,0.41179 0.060673,0.615396 L 5.0141394,22.806103 C 4.96769,22.542501 4.9387352,22.276114 4.9274639,22.008688 4.8564735,18.915486 7.0747198,16.242499 10.127995,15.742049 l 9.282947,-1.638167 -3.467021,19.510657 c -0.07988,0.459296 0.0286,0.931408 0.300955,1.309769 0.272355,0.378361 0.685625,0.631076 1.146527,0.701103 z"
     fill="#673ab7"
     style="fill:#ff8473;fill-opacity:1;fill-rule:nonzero;stroke-width:0.866755" />
  <path
     id="path848"
     d="m 24.464124,10.46351 19.632004,3.46702 h 0.156016 c 0.478696,0.04069 0.89974,-0.314385 0.940429,-0.79308 0.04069,-0.478696 -0.314385,-0.899741 -0.793081,-0.94043 L 24.802159,8.76467 c -0.309662,-0.05419 -0.624711,0.060937 -0.826473,0.302017 -0.201761,0.2410795 -0.259583,0.5714847 -0.151682,0.8667551 0.1079,0.2952699 0.365128,0.5105469 0.674791,0.5647379 z"
     style="fill:#c71700;fill-opacity:1;fill-rule:nonzero;stroke-width:0.866755" />
  <path
     id="path850"
     d="m 27.402424,13.627166 c -0.309662,-0.05419 -0.624711,0.06094 -0.826473,0.302018 -0.201761,0.241079 -0.259582,0.571484 -0.151682,0.866755 0.1079,0.295269 0.365129,0.510546 0.674791,0.564737 l 12.810641,2.262231 h 0.147348 c 0.478696,0.04069 0.89974,-0.314385 0.940429,-0.793081 0.04069,-0.478695 -0.314385,-0.89974 -0.793081,-0.940429 z"
     style="fill:#c71700;fill-opacity:1;fill-rule:nonzero;stroke-width:0.866755" />
  <path
     id="path852"
     d="m 22.011207,29.393442 17.924496,3.206994 c 0.100941,0.0086 0.202424,0.0086 0.303364,0 0.850438,0.0131 1.584768,-0.592714 1.733511,-1.430146 l 1.508154,-8.537538 c 0.07156,-0.458839 -0.04397,-0.927205 -0.3207,-1.300133 -0.262275,-0.378879 -0.664607,-0.637744 -1.118114,-0.719407 L 24.117422,17.449556 c -0.454173,-0.08149 -0.922095,0.02145 -1.300132,0.286029 -0.375612,0.263899 -0.631215,0.666006 -0.71074,1.118115 l -1.499486,8.546205 c -0.162661,0.940082 0.464876,1.834903 1.404143,2.002204 z m 1.802851,-10.236378 17.924496,3.154988 -1.499487,8.554874 -17.933163,-3.180992 z"
     style="fill:#c71700;fill-opacity:1;fill-rule:nonzero;stroke-width:0.866755" />
  <path
     id="path854"
     d="m 8.9925454,50.325578 c 0.6898531,3.739467 4.2626516,6.225732 8.0088176,5.573235 l 27.320121,-4.827826 c 0.818076,-0.146054 1.517069,-0.674325 1.880859,-1.421478 2.507283,-0.737157 4.387133,-2.821412 4.862496,-5.391217 0,0 0,0 0,-0.052 L 55.883997,16.88617 c 0.04887,-0.286782 0.0807,-0.576207 0.09534,-0.866755 0.101157,-3.536334 -2.435411,-6.5994982 -5.928605,-7.159397 L 22.95597,4.0408546 c -0.6724,-0.12218 -1.365697,0.030845 -1.924196,0.42471 -0.570916,0.3936097 -0.960959,0.9989575 -1.083444,1.6815049 l -1.27413,7.2114025 -8.667551,1.525489 c -3.4967537,0.551702 -6.0414462,3.61201 -5.9459402,7.15073 0.013221,0.308303 0.047976,0.615304 0.1040106,0.91876 l 4.8104909,27.311454 c 3.269e-4,0.0214 0.00631,0.04233 0.017335,0.06067 z m 7.7141206,3.865728 c -1.476617,0.251339 -2.990299,-0.139695 -4.160425,-1.074777 -1.174359,-0.933217 -1.883337,-2.332182 -1.941531,-3.831057 -0.05955,-2.325985 1.418259,-4.413963 3.631704,-5.131191 0.386095,0.451783 0.915296,0.757679 1.499486,0.866756 l 1.534157,0.268694 -2.062877,0.372704 c -1.01722,0.187601 -1.897547,0.819594 -2.400596,1.723403 -0.503047,0.903809 -0.576269,1.985027 -0.19967,2.948407 0.52474,1.338627 1.821256,2.214465 3.259,2.201558 0.214834,-4.31e-4 0.4293,-0.01782 0.641398,-0.05201 l 20.732783,-3.675042 4.983842,0.866756 z m 15.540919,-6.26664 -16.034969,2.877627 c -0.83759,0.163846 -1.677737,-0.270589 -2.028207,-1.048773 -0.219649,-0.493174 -0.196988,-1.060526 0.0613,-1.53461 0.25828,-0.474084 0.722693,-0.800769 1.25617,-0.883637 l 6.743355,-1.187455 z m 15.25489,-0.866755 c -1.166301,0.935702 -2.678926,1.324122 -4.151757,1.066109 L 16.039265,43.304861 c -0.227635,-0.03868 -0.430425,-0.166599 -0.563391,-0.355369 -0.130779,-0.189649 -0.180679,-0.423558 -0.138681,-0.650066 0.04083,-0.224474 0.16852,-0.423795 0.35537,-0.554724 0.144925,-0.10116 0.317312,-0.155597 0.49405,-0.156016 h 0.147348 l 27.216111,4.801824 c 1.337914,0.281437 2.716294,-0.24968 3.519437,-1.356108 0.803143,-1.106427 0.881058,-2.581537 0.198942,-3.766415 -0.502709,-0.909839 -1.387128,-1.546112 -2.409579,-1.73351 L 17.538751,34.767324 c -0.226476,-0.04014 -0.427713,-0.168647 -0.559393,-0.357228 -0.131681,-0.188579 -0.183009,-0.421767 -0.142679,-0.648208 0.04083,-0.224474 0.16852,-0.423795 0.35537,-0.554724 0.190258,-0.129556 0.42254,-0.182206 0.650066,-0.147348 l 27.103433,4.784488 c 2.635224,0.411461 4.56074,2.707267 4.507126,5.373882 -0.05667,1.503673 -0.769416,2.906991 -1.950199,3.839725 z m -2.946967,-5.789924 c 0.511225,0.0937 0.953435,0.411835 1.20479,0.866755 0.258091,0.455714 0.296321,1.003682 0.10401,1.490819 -0.324124,0.789773 -1.15153,1.250243 -1.993537,1.109446 L 17.486746,40.045862 18.093474,36.630847 Z M 21.655838,6.4504338 c 0.04082,-0.2290429 0.171997,-0.4320615 0.364037,-0.5633908 0.184853,-0.1345689 0.41539,-0.1906455 0.641399,-0.1560159 l 25.603946,4.5331289 -0.78008,4.455122 c -0.03746,0.227672 0.0174,0.460885 0.152434,0.647979 0.135033,0.187094 0.339091,0.312625 0.566973,0.348789 0.04875,0.0084 0.09859,0.0084 0.147348,0 0.4266,0.0062 0.794271,-0.298965 0.866756,-0.719407 l 0.719406,-4.411783 c 2.554155,0.471242 4.389636,2.725214 4.333776,5.321876 -0.0098,0.229399 -0.03295,0.458032 -0.06934,0.684737 l -4.039078,22.847665 c -1.056523,-1.684834 -2.757656,-2.862782 -4.706481,-3.259 L 48.26522,20.19717 c 0.08138,-0.478696 -0.240711,-0.932726 -0.719407,-1.014103 -0.478696,-0.08138 -0.932725,0.24071 -1.014103,0.719406 l -2.782284,15.96563 -25.603947,-4.515795 c -0.286753,-0.05001 -0.580001,-0.05001 -0.866755,0 z M 5.794219,21.96535 c -0.062501,-2.66365 1.8574833,-4.9617 4.489792,-5.373881 l 8.06949,-1.421479 -3.224329,18.297201 c -0.18608,1.081831 0.32725,2.163986 1.282797,2.704276 l -0.658734,3.727047 c -1.081196,0.183982 -1.930711,1.026563 -2.12355,2.106215 -0.01716,0.175822 -0.01716,0.352898 0,0.52872 -1.547014,0.537468 -2.864678,1.586096 -3.7357142,2.97297 L 5.872227,22.667422 C 5.828175,22.435758 5.8020947,22.201034 5.794219,21.96535 Z"
     style="fill:#c71700;fill-opacity:1;fill-rule:nonzero;stroke-width:0.866755" />
  <rect
     style="fill:#ff4b33;stroke-width:0.221456;stroke-linecap:round"
     id="rect867"
     width="17.518284"
     height="17.755016"
     x="-47.820183"
     y="-22.489689"
     rx="117187.5" />
</svg>
