<?xml version="1.0" encoding="UTF-8" standalone="no"?>
<svg
   xmlns:dc="http://purl.org/dc/elements/1.1/"
   xmlns:cc="http://creativecommons.org/ns#"
   xmlns:rdf="http://www.w3.org/1999/02/22-rdf-syntax-ns#"
   xmlns:svg="http://www.w3.org/2000/svg"
   xmlns="http://www.w3.org/2000/svg"
   xmlns:sodipodi="http://sodipodi.sourceforge.net/DTD/sodipodi-0.dtd"
   xmlns:inkscape="http://www.inkscape.org/namespaces/inkscape"
   id="Capa_1"
   enable-background="new 0 0 511.995 511.995"
   height="512"
   viewBox="0 0 511.995 511.995"
   width="512"
   version="1.1"
   sodipodi:docname="maths.svg"
   inkscape:version="1.0.1 (c497b03c, 2020-09-10)">
  <metadata
     id="metadata2199">
    <rdf:RDF>
      <cc:Work
         rdf:about="">
        <dc:format>image/svg+xml</dc:format>
        <dc:type
           rdf:resource="http://purl.org/dc/dcmitype/StillImage" />
      </cc:Work>
    </rdf:RDF>
  </metadata>
  <defs
     id="defs2197" />
  <sodipodi:namedview
     pagecolor="#ffffff"
     bordercolor="#666666"
     borderopacity="1"
     objecttolerance="10"
     gridtolerance="10"
     guidetolerance="10"
     inkscape:pageopacity="0"
     inkscape:pageshadow="2"
     inkscape:window-width="1792"
     inkscape:window-height="991"
     id="namedview2195"
     showgrid="false"
     inkscape:zoom="1.3027686"
     inkscape:cx="256"
     inkscape:cy="256"
     inkscape:window-x="0"
     inkscape:window-y="23"
     inkscape:window-maximized="1"
     inkscape:current-layer="Capa_1"
     inkscape:document-rotation="0" />
  <g
     id="g2180"
     style="fill:#fdc898;fill-opacity:1"
     transform="matrix(0.65989195,0,0,0.65989195,87.067298,87.066811)">
    <g
       id="g2178"
       style="fill:#fdc898;fill-opacity:1">
      <path
         d="M 374.147,93.01 H 338.87 v 284.66 c 0,14.34 14.02,24.75 27.62,20.19 l 0.27,-0.09 c 19.52,-6.7 18.59,-23.34 39.48,-30.83 13.93,-5 31.71,-3.82 44.15,4.37 25.4,16.74 27.81,62.31 10.58,91.95 -19.01,32.68 -60.72,44.01 -94.35,36.45 -10.31,-2.32 -19.98,-6.44 -28.7,-12.03 -26.17,-16.8 -41.53,-46.2 -41.53,-77.31 V 93.01 H 219 v 61.16 c 0,58.09 -2.59,116.3 -10.91,173.85 -7.47,51.64 -13.82,117.73 -53.71,155.79 -16.79,16.17 -41.22,22.11 -63.81,15.59 -23.38,-6.55 -39.75,-23.89 -46.56,-44.41 -21.33,-64.3 51.86,-114.86 86.98,-156.63 16.39,-19.51 33.51,-48.93 41.55,-94.64 2.75,-15.68 3.98,-31.59 3.98,-47.51 V 93.01 H 130.48 C 92.36,91.47 42.44,110.8 19.08,127.08 9.021,62.31 60.42,12.49 124.25,10 h 369.91 v 83.01 h -30.013 z"
         fill="#00ccf2"
         id="path2176"
         style="fill:#fdc898;fill-opacity:1" />
    </g>
  </g>
  <g
     id="g2190"
     style="fill:#e47005;fill-opacity:1"
     transform="matrix(0.65989195,0,0,0.65989195,87.067298,87.066811)">
    <g
       id="g2184"
       style="fill:#e47005;fill-opacity:1">
      <path
         d="m 108.928,511.995 c -7.057,0 -14.17,-0.978 -21.13,-2.988 C 62.7,501.977 42.754,482.952 34.52,458.14 15.812,401.743 61.09,356.047 97.472,319.331 c 9.58,-9.668 18.628,-18.8 25.865,-27.407 19.753,-23.512 32.995,-53.772 39.356,-89.936 2.54,-14.484 3.829,-29.888 3.829,-45.777 v -53.2 h -36.04 c -0.135,0 -0.269,-0.003 -0.404,-0.008 -36.36,-1.489 -84.504,17.804 -105.278,32.282 -2.831,1.973 -6.477,2.346 -9.649,0.991 -3.172,-1.357 -5.421,-4.252 -5.95,-7.66 C 4.374,97.539 12.451,67.387 31.942,43.716 53.632,17.371 87.136,1.44 123.861,0.008 123.991,0.003 124.121,0 124.251,0 h 369.91 c 5.523,0 10,4.477 10,10 v 83.01 c 0,5.522 -4.477,10 -10,10 h -30.013 c -5.523,0 -10,-4.478 -10,-10 0,-5.523 4.477,-10 10,-10 h 20.013 V 20 H 124.449 C 93.494,21.258 65.412,34.528 47.38,56.428 34.593,71.957 27.951,90.291 27.804,110.119 56.118,94.94 98.26,81.771 130.677,83.01 h 45.844 c 5.523,0 10,4.477 10,10 v 63.2 c 0,17.045 -1.39,33.61 -4.13,49.237 -6.979,39.679 -21.696,73.101 -43.743,99.345 -7.765,9.235 -17.093,18.649 -26.969,28.616 -34.226,34.541 -73.019,73.69 -58.176,118.434 6.229,18.769 20.723,32.594 39.766,37.929 19.253,5.555 39.983,0.505 54.176,-13.164 34.319,-32.744 42.125,-88.528 49.013,-137.746 0.582,-4.165 1.156,-8.262 1.736,-12.273 C 205.566,275.59 209,220.803 209,154.17 V 93.01 c 0,-5.523 4.477,-10 10,-10 h 77.39 c 5.523,0 10,4.477 10,10 v 317.36 c 0,28.294 13.806,54.049 36.932,68.895 7.897,5.062 16.476,8.66 25.494,10.69 28.588,6.426 66.457,-2.407 83.51,-31.723 15.625,-26.879 11.941,-65.8 -7.439,-78.572 -9.24,-6.082 -23.745,-7.443 -35.269,-3.308 -7.951,2.85 -11.525,7.253 -16.05,12.827 -4.996,6.153 -11.214,13.811 -23.562,18.05 l -0.431,0.144 c -9.379,3.146 -19.495,1.6 -27.658,-4.274 -8.169,-5.876 -13.046,-15.382 -13.046,-25.428 V 93.01 c 0,-5.523 4.477,-10 10,-10 h 35.276 c 5.523,0 10,4.477 10,10 0,5.522 -4.477,10 -10,10 h -25.276 v 274.66 c 0,3.682 1.723,7.032 4.726,9.192 2.876,2.069 6.418,2.62 9.714,1.516 l 0.256,-0.085 c 6.874,-2.359 10.061,-6.286 14.474,-11.721 5.177,-6.376 11.619,-14.312 24.824,-19.046 17.599,-6.317 38.415,-4.187 53.024,5.431 31.019,20.443 32.829,72.469 13.727,105.328 -10.145,17.439 -26.405,30.483 -47.025,37.725 -18.508,6.5 -39.164,7.728 -58.164,3.457 -11.299,-2.543 -22.032,-7.041 -31.903,-13.368 -28.889,-18.546 -46.133,-50.592 -46.133,-85.729 V 103.01 H 229 v 51.16 c 0,67.614 -3.499,123.311 -11.013,175.28 -0.576,3.981 -1.145,8.049 -1.723,12.182 -6.977,49.853 -15.659,111.896 -54.98,149.413 -14.132,13.609 -33.029,20.95 -52.356,20.95 z"
         id="path2182"
         style="fill:#e47005;fill-opacity:1" />
    </g>
    <g
       id="g2188"
       style="fill:#e47005;fill-opacity:1">
      <circle
         cx="419.147"
         cy="93.010002"
         r="10"
         id="circle2186"
         style="fill:#e47005;fill-opacity:1" />
    </g>
  </g>
</svg>
