<?xml version="1.0" encoding="UTF-8" standalone="no"?>
<svg
   xmlns:dc="http://purl.org/dc/elements/1.1/"
   xmlns:cc="http://creativecommons.org/ns#"
   xmlns:rdf="http://www.w3.org/1999/02/22-rdf-syntax-ns#"
   xmlns:svg="http://www.w3.org/2000/svg"
   xmlns="http://www.w3.org/2000/svg"
   xmlns:sodipodi="http://sodipodi.sourceforge.net/DTD/sodipodi-0.dtd"
   xmlns:inkscape="http://www.inkscape.org/namespaces/inkscape"
   height="512pt"
   viewBox="0 -87 512 512"
   width="512pt"
   version="1.1"
   id="svg843"
   sodipodi:docname="physics.svg"
   inkscape:version="1.0.1 (c497b03c, 2020-09-10)">
  <metadata
     id="metadata849">
    <rdf:RDF>
      <cc:Work
         rdf:about="">
        <dc:format>image/svg+xml</dc:format>
        <dc:type
           rdf:resource="http://purl.org/dc/dcmitype/StillImage" />
      </cc:Work>
    </rdf:RDF>
  </metadata>
  <defs
     id="defs847" />
  <sodipodi:namedview
     pagecolor="#ffffff"
     bordercolor="#666666"
     borderopacity="1"
     objecttolerance="10"
     gridtolerance="10"
     guidetolerance="10"
     inkscape:pageopacity="0"
     inkscape:pageshadow="2"
     inkscape:window-width="1792"
     inkscape:window-height="1120"
     id="namedview845"
     showgrid="false"
     inkscape:zoom="0.65852409"
     inkscape:cx="341.33333"
     inkscape:cy="341.33333"
     inkscape:window-x="0"
     inkscape:window-y="0"
     inkscape:window-maximized="0"
     inkscape:current-layer="svg843"
     inkscape:document-rotation="0" />
  <path
     d="m499.035156 330.726562h-486.070312c-2.960938 0-5.359375-2.398437-5.359375-5.359374v-129.03125c0-3.035157 2.523437-5.464844 5.558593-5.355469l486.070313 17.972656c2.878906.105469 5.160156 2.472656 5.160156 5.355469v111.058594c0 2.960937-2.398437 5.359374-5.359375 5.359374zm0 0"
     fill="#ffec97"
     id="path833"
     style="fill:#f7c9e4;fill-opacity:1" />
  <path
     d="m504.394531 325.367188v-64.617188h-496.789062v64.617188c0 2.960937 2.398437 5.359374 5.359375 5.359374h486.070312c2.960938 0 5.359375-2.398437 5.359375-5.359374zm0 0"
     fill="#ffb74d"
     id="path835"
     style="fill:#f2a2d1;fill-opacity:1" />
  <path
     d="m251.960938 101.859375c0 52.054687-42.199219 94.253906-94.253907 94.253906-52.054687 0-94.253906-42.199219-94.253906-94.253906s42.199219-94.253906 94.253906-94.253906c52.054688 0 94.253907 42.199219 94.253907 94.253906zm0 0"
     fill="#00a5ff"
     id="path837"
     style="fill:#f9d9ed;fill-opacity:1" />
  <path
     d="m157.707031 7.605469c-11.761719 0-23.015625 2.160156-33.398437 6.097656 35.566406 13.484375 60.851562 47.863281 60.851562 88.15625s-25.285156 74.671875-60.851562 88.15625c10.382812 3.933594 21.636718 6.097656 33.398437 6.097656 52.054688 0 94.253907-42.199219 94.253907-94.253906s-42.199219-94.253906-94.253907-94.253906zm0 0"
     fill="#0c90ea"
     id="path839"
     style="fill:#f5b9dc;fill-opacity:1" />
  <path
     d="m499.515625 201.351562-291.6875-10.785156c11.007813-6.230468 20.902344-14.542968 29.109375-24.691406 2.644531-3.265625 2.136719-8.054688-1.128906-10.695312-3.265625-2.640626-8.054688-2.136719-10.695313 1.128906-16.554687 20.460937-41.121093 32.195312-67.40625 32.195312-47.777343 0-86.648437-38.867187-86.648437-86.644531s38.871094-86.648437 86.648437-86.648437c45.636719 0 83.121094 35.472656 86.386719 80.292968h-56.113281c-4.199219 0-7.605469 3.402344-7.605469 7.605469 0 4.199219 3.40625 7.605469 7.605469 7.605469h55.910156c-.691406 6.792968-2.15625 13.460937-4.417969 19.898437-1.394531 3.960938.6875 8.304688 4.648438 9.695313 3.96875 1.394531 8.304687-.6875 9.699218-4.652344 2.835938-8.0625 4.628907-16.417969 5.359376-24.941406h135.375l-17.039063 17.039062c-2.96875 2.972656-2.96875 7.789063 0 10.757813 1.484375 1.484375 3.429687 2.226562 5.378906 2.226562 1.945313 0 3.890625-.742187 5.375-2.226562l29.019531-29.019531c2.09375-1.355469 3.480469-3.707032 3.480469-6.382813 0-.039063-.003906-.078125-.007812-.117187.035156-1.992188-.703125-3.988282-2.21875-5.507813l-29.875-29.871094c-2.96875-2.96875-7.785157-2.96875-10.753907 0s-2.96875 7.785157 0 10.757813l17.132813 17.132812h-135.683594c-3.292969-53.214844-47.625-95.503906-101.65625-95.503906-56.164062 0-101.859375 45.695312-101.859375 101.859375 0 35.316406 18.070313 66.492187 45.449219 84.769531l-87.851563-3.246094c-3.496093-.136718-6.957031 1.1875-9.476562 3.617188-2.523438 2.429688-3.96875 5.835938-3.96875 9.335938v129.03125c0 7.148437 5.816406 12.964843 12.964844 12.964843h486.070312c7.148438 0 12.964844-5.816406 12.964844-12.964843v-111.058594c0-7.007813-5.484375-12.699219-12.484375-12.957032zm-484.304687 121.769532v-54.761719h19.472656c4.203125 0 7.605468-3.40625 7.605468-7.609375 0-4.199219-3.402343-7.605469-7.605468-7.605469h-19.472656v-54.476562l481.578124 17.804687v36.671875h-426.101562c-4.203125 0-7.605469 3.40625-7.605469 7.605469 0 4.203125 3.402344 7.609375 7.605469 7.609375h426.101562v54.761719zm0 0"
     id="path841"
     style="fill:#ea6fb7;fill-opacity:1" />
  <rect
     style="fill:#ed82c1;stroke-width:1.41732;stroke-linecap:round;fill-opacity:1"
     id="rect851"
     width="153.70935"
     height="162.40988"
     x="-433.57635"
     y="-175.45538"
     rx="750000" />
</svg>
