<?xml version="1.0" encoding="UTF-8" standalone="no"?>
<svg
   xmlns:dc="http://purl.org/dc/elements/1.1/"
   xmlns:cc="http://creativecommons.org/ns#"
   xmlns:rdf="http://www.w3.org/1999/02/22-rdf-syntax-ns#"
   xmlns:svg="http://www.w3.org/2000/svg"
   xmlns="http://www.w3.org/2000/svg"
   xmlns:sodipodi="http://sodipodi.sourceforge.net/DTD/sodipodi-0.dtd"
   xmlns:inkscape="http://www.inkscape.org/namespaces/inkscape"
   id="Capa_1"
   enable-background="new 0 0 512 512"
   height="512"
   viewBox="0 0 512 512"
   width="512"
   version="1.1"
   sodipodi:docname="reading.svg"
   inkscape:version="1.0.1 (c497b03c, 2020-09-10)">
  <metadata
     id="metadata900">
    <rdf:RDF>
      <cc:Work
         rdf:about="">
        <dc:format>image/svg+xml</dc:format>
        <dc:type
           rdf:resource="http://purl.org/dc/dcmitype/StillImage" />
      </cc:Work>
    </rdf:RDF>
  </metadata>
  <defs
     id="defs898" />
  <sodipodi:namedview
     pagecolor="#ffffff"
     bordercolor="#666666"
     borderopacity="1"
     objecttolerance="10"
     gridtolerance="10"
     guidetolerance="10"
     inkscape:pageopacity="0"
     inkscape:pageshadow="2"
     inkscape:window-width="1792"
     inkscape:window-height="991"
     id="namedview896"
     showgrid="false"
     inkscape:zoom="1.0786971"
     inkscape:cx="256"
     inkscape:cy="256"
     inkscape:window-x="0"
     inkscape:window-y="23"
     inkscape:window-maximized="1"
     inkscape:current-layer="Capa_1" />
  <path
     d="M 420.833,174.557 C 420.833,82.294 347.035,7.5 256,7.5 164.965,7.5 91.167,82.294 91.167,174.557 c 0,92.263 73.798,99.224 164.833,99.224 91.035,0 164.833,-6.961 164.833,-99.224 z"
     fill="#665e66"
     id="path833"
     style="fill:#ec4270;fill-opacity:1" />
  <path
     d="M 253.835,273.774 C 163.801,273.663 91.167,266.091 91.167,174.557 91.167,82.298 164.97,7.504 256.002,7.504 c -46.333,0 -83.889,74.794 -83.889,167.053 0,90.825 36.395,98.988 81.722,99.217 z"
     fill="#454045"
     id="path835"
     style="fill:#d11548;fill-opacity:1" />
  <path
     d="m 374.369,235.667 c -1.753,34.081 -29.023,61.21 -63.111,62.815 -29.237,1.383 -58.475,1.656 -87.712,0.836 h -0.052 c -7.417,-0.207 -14.826,-0.488 -22.242,-0.836 -34.08,-1.605 -61.358,-28.734 -63.103,-62.815 -1.287,-25.015 -1.39,-50.038 -0.311,-75.06 V 160.6 c 0.325,-7.794 0.776,-15.587 1.338,-23.381 5.405,-25.673 26.56,-47.62 56.116,-60.486 0.873,-0.377 1.753,-0.754 2.64,-1.117 11.957,-4.902 25.222,-8.341 39.323,-9.982 6.182,-0.739 12.526,-1.109 19.004,-1.109 14.367,0 28.135,1.849 40.876,5.243 v 0.007 c 39.885,10.604 69.692,36.306 76.206,67.533 0,0.007 0,0.015 0.007,0.022 2.359,32.779 2.699,65.558 1.021,98.337 z"
     fill="#f1d0a5"
     id="path837"
     style="fill:#fce7ed;fill-opacity:1" />
  <path
     d="m 223.546,299.317 h -0.052 c -7.417,-0.207 -14.826,-0.488 -22.242,-0.835 -34.081,-1.605 -61.358,-28.734 -63.103,-62.815 -1.686,-32.809 -1.338,-65.632 1.028,-98.448 5.405,-25.673 26.56,-47.62 56.116,-60.486 0.873,-0.377 1.752,-0.754 2.64,-1.117 -2.026,49.409 -2.507,120.987 -1.471,161.448 0.797,31.101 12.162,56.464 27.084,62.253 z"
     fill="#f1b986"
     id="path839"
     style="fill:#fad7e1;fill-opacity:1" />
  <path
     d="m 297.135,69.767 v 0.007 c -19.639,33.681 -66.726,77.959 -85.464,67.385 -6.855,-3.875 -5.96,-11.853 -2.093,-20.438 -0.555,0.969 -12.652,21.946 -29.252,35.929 -12.6,10.618 -27.788,17.214 -42.488,7.956 v -0.007 c 0.325,-7.794 0.776,-15.587 1.338,-23.381 5.405,-25.673 26.56,-47.62 56.116,-60.486 0.873,-0.377 1.753,-0.754 2.64,-1.117 11.957,-4.902 25.222,-8.341 39.323,-9.982 6.182,-0.739 12.526,-1.109 19.004,-1.109 14.367,0.001 28.135,1.849 40.876,5.243 z"
     fill="#665e66"
     id="path841"
     style="fill:#ec4270;fill-opacity:1" />
  <path
     d="m 180.326,152.65 c -12.6,10.618 -27.788,17.214 -42.488,7.956 v -0.007 c 0.325,-7.794 0.776,-15.587 1.338,-23.381 5.405,-25.673 26.56,-47.62 56.116,-60.486 0.873,-0.377 1.753,-0.754 2.64,-1.117 11.957,-4.902 25.222,-8.341 39.323,-9.982 6.182,-0.739 12.526,-1.109 19.004,-1.109 -41.157,14.36 -126.133,88.126 -75.933,88.126 z"
     fill="#454045"
     id="path843"
     style="fill:#d11548;fill-opacity:1" />
  <g
     id="g849"
     style="fill:#f6b6c8;fill-opacity:1">
    <ellipse
       cx="182.49001"
       cy="233.29401"
       fill="#df9380"
       rx="20.163"
       ry="12.786"
       id="ellipse845"
       style="fill:#f6b6c8;fill-opacity:1" />
    <ellipse
       cx="330.02499"
       cy="233.29401"
       fill="#f9a58e"
       rx="20.163"
       ry="12.786"
       id="ellipse847"
       style="fill:#f6b6c8;fill-opacity:1" />
  </g>
  <path
     d="m 374.679,126.327 c 0,4.059 -0.385,8.067 -1.139,11.979 -8.001,-41.689 -57.454,-73.781 -117.282,-73.781 -6.477,0 -12.829,0.37 -19.004,1.109 -13.206,1.531 -25.673,4.644 -37.016,9.065 -1.671,0.643 -3.32,1.324 -4.947,2.033 -29.954,13.044 -51.295,35.412 -56.33,61.536 -0.747,-3.897 -1.124,-7.89 -1.124,-11.942 0,-31.189 23.026,-58.489 57.454,-73.47 3.564,-1.553 7.254,-2.973 11.047,-4.244 9.664,-3.268 20.039,-5.605 30.916,-6.869 6.174,-0.739 12.526,-1.102 19.004,-1.102 65.404,0 118.421,38.362 118.421,85.686 z"
     fill="#da4a54"
     id="path851" />
  <path
     d="m 206.34,48.612 -6.1,26.087 c -1.671,0.643 -3.32,1.324 -4.947,2.033 -29.954,13.044 -51.295,35.412 -56.33,61.536 -0.747,-3.897 -1.124,-7.89 -1.124,-11.942 0,-31.189 23.026,-58.489 57.454,-73.47 3.563,-1.553 7.253,-2.972 11.047,-4.244 z"
     fill="#c32430"
     id="path853" />
  <path
     d="m 444.37,280.45 v 169.04 c 0,10.82 -7.55,20.18 -18.12,22.47 L 276.1,504.5 H 256.72 V 288.42 h 19.38 l 140.41,-30.43 c 14.32,-3.11 27.86,7.81 27.86,22.46 z"
     fill="#80b4fb"
     id="path857"
     style="fill:#f6abbf;fill-opacity:1" />
  <path
     d="M 256.72,288.42 V 504.5 H 235.9 L 85.75,471.96 C 75.18,469.67 67.63,460.31 67.63,449.49 V 280.45 c 0,-14.65 13.54,-25.57 27.86,-22.46 l 140.41,30.43 z"
     fill="#5490f9"
     id="path859"
     style="fill:#f28aa6;fill-opacity:1" />
  <path
     d="M 235.902,504.5 V 288.419 h 40.196 V 504.5"
     fill="#bed8fb"
     id="path861"
     style="fill:#f59eb5;fill-opacity:1" />
  <path
     d="M 63.504,362.126 H 55.64 c -11.612,0 -21.026,-9.414 -21.026,-21.026 v -18.874 c 0,-11.612 9.414,-21.026 21.026,-21.026 h 7.864 c 11.612,0 21.026,9.414 21.026,21.026 V 341.1 c 0,11.613 -9.413,21.026 -21.026,21.026 z"
     fill="#f1d0a5"
     id="path863"
     style="fill:#fce7ed;fill-opacity:1" />
  <path
     d="m 67.545,361.73 c -1.3,0.27 -2.66,0.4 -4.04,0.4 h -7.87 c -11.61,0 -21.02,-9.42 -21.02,-21.03 v -18.87 c 0,-11.62 9.41,-21.03 21.02,-21.03 h 7.87 c 1.38,0 2.74,0.13 4.04,0.4 -9.67,1.88 -16.97,10.4 -16.97,20.63 v 18.87 c 0,10.23 7.3,18.75 16.97,20.63 z"
     fill="#f1b986"
     id="path865"
     style="fill:#fad7e1;fill-opacity:1" />
  <path
     d="m 456.359,362.126 h -7.864 c -11.612,0 -21.026,-9.414 -21.026,-21.026 v -18.874 c 0,-11.612 9.414,-21.026 21.026,-21.026 h 7.864 c 11.612,0 21.026,9.414 21.026,21.026 V 341.1 c 0,11.613 -9.413,21.026 -21.026,21.026 z"
     fill="#f1d0a5"
     id="path869"
     style="fill:#fce7ed;fill-opacity:1" />
  <path
     d="m 460.4,361.73 c -1.3,0.27 -2.66,0.4 -4.04,0.4 h -7.87 c -11.61,0 -21.02,-9.42 -21.02,-21.03 v -18.87 c 0,-11.62 9.41,-21.03 21.02,-21.03 h 7.87 c 1.38,0 2.74,0.13 4.04,0.4 -9.67,1.88 -16.97,10.4 -16.97,20.63 v 18.87 c 0,10.23 7.3,18.75 16.97,20.63 z"
     fill="#f1b986"
     id="path871"
     style="fill:#fad7e1;fill-opacity:1" />
  <g
     id="g891"
     transform="translate(0.53,-0.101)"
     style="fill:#860e2e;fill-opacity:1">
    <path
       d="m 283.691,231.404 c -3.741,-1.776 -8.215,-0.182 -9.991,3.56 -3.181,6.702 -10.028,11.032 -17.443,11.032 -7.416,0 -14.262,-4.331 -17.443,-11.032 -1.775,-3.741 -6.249,-5.335 -9.991,-3.56 -3.742,1.776 -5.336,6.249 -3.56,9.991 5.651,11.907 17.817,19.601 30.994,19.601 13.177,0 25.343,-7.694 30.994,-19.601 1.776,-3.742 0.183,-8.215 -3.56,-9.991 z"
       id="path879"
       style="fill:#860e2e;fill-opacity:1" />
    <path
       d="m 331.875,203.039 c -3.915,-0.754 -7.576,-1.052 -10.943,-1.05 0.773,-2.211 1.218,-4.717 1.218,-7.378 0,-8.846 -4.835,-16.043 -10.779,-16.043 -5.944,0 -10.779,7.197 -10.779,16.043 0,3.966 0.977,7.594 2.585,10.397 -3.066,1.109 -4.842,2.126 -5.038,2.241 -3.573,2.095 -4.804,6.708 -2.709,10.282 1.399,2.386 3.898,3.722 6.469,3.722 1.278,0 2.575,-0.33 3.762,-1.026 0.377,-0.211 9.417,-5.148 23.376,-2.458 4.066,0.784 8,-1.878 8.783,-5.946 0.784,-4.068 -1.878,-8 -5.945,-8.784 z"
       id="path881"
       style="fill:#860e2e;fill-opacity:1" />
    <path
       d="m 214.375,207.249 c -0.196,-0.115 -1.972,-1.132 -5.038,-2.242 1.608,-2.803 2.585,-6.431 2.585,-10.397 0,-8.846 -4.835,-16.043 -10.779,-16.043 -5.944,0 -10.779,7.197 -10.779,16.043 0,2.661 0.444,5.167 1.218,7.378 -3.366,-0.002 -7.027,0.296 -10.942,1.05 -4.067,0.784 -6.729,4.716 -5.946,8.783 0.784,4.068 4.716,6.728 8.783,5.946 13.855,-2.67 22.864,2.174 23.366,2.452 1.177,0.677 2.463,1 3.732,1 2.574,0 5.081,-1.327 6.477,-3.708 2.095,-3.572 0.896,-8.167 -2.677,-10.262 z"
       id="path883"
       style="fill:#860e2e;fill-opacity:1" />
    <path
       d="m 408.261,312.75 -83.05,18 c -4.048,0.877 -6.618,4.87 -5.741,8.918 0.761,3.513 3.869,5.913 7.322,5.913 0.526,0 1.061,-0.056 1.596,-0.172 l 83.05,-18 c 4.048,-0.877 6.618,-4.87 5.741,-8.918 -0.876,-4.048 -4.866,-6.617 -8.918,-5.741 z"
       id="path885"
       style="fill:#860e2e;fill-opacity:1" />
    <path
       d="m 408.261,340.62 -83.05,18 c -4.048,0.877 -6.618,4.87 -5.741,8.918 0.761,3.513 3.869,5.913 7.322,5.913 0.526,0 1.061,-0.056 1.596,-0.172 l 83.05,-18 c 4.048,-0.877 6.618,-4.87 5.741,-8.918 -0.876,-4.048 -4.866,-6.618 -8.918,-5.741 z"
       id="path887"
       style="fill:#860e2e;fill-opacity:1" />
    <path
       d="M 456.359,293.701 H 451.87 V 280.45 c 0,-9.264 -4.139,-17.913 -11.355,-23.73 -7.214,-5.816 -16.542,-8.025 -25.593,-6.059 l -21.373,4.632 C 416.904,238.133 428.33,211.499 428.33,174.561 428.33,78.307 351.023,0 256,0 160.977,0 83.67,78.307 83.67,174.56 c 0,36.934 11.438,63.571 34.802,80.737 l -21.39,-4.636 C 88.03,248.695 78.7,250.903 71.484,256.72 64.268,262.537 60.13,271.186 60.13,280.45 v 13.251 h -4.489 c -15.729,0 -28.526,12.797 -28.526,28.526 V 341.1 c 0,15.729 12.797,28.526 28.526,28.526 h 4.489 v 79.864 c 0,14.25 10.107,26.783 24.032,29.8 l 150.15,32.54 c 0.522,0.113 1.054,0.17 1.588,0.17 h 40.2 c 0.534,0 1.066,-0.057 1.588,-0.17 l 150.149,-32.54 c 13.925,-3.017 24.032,-15.55 24.032,-29.8 v -79.864 h 4.489 c 15.729,0 28.526,-12.797 28.526,-28.526 v -18.874 c 10e-4,-15.729 -12.796,-28.525 -28.525,-28.525 z M 98.67,174.56 C 98.67,86.578 169.248,15 256,15 c 86.752,0 157.33,71.578 157.33,159.56 0,34.014 -10.465,57.085 -32.643,71.328 0.606,-3.236 1.002,-6.522 1.173,-9.838 0.206,-4.055 0.371,-7.758 0.504,-11.32 0.155,-4.139 -3.075,-7.62 -7.214,-7.775 -4.142,-0.154 -7.62,3.075 -7.775,7.214 -0.131,3.495 -0.293,7.132 -0.496,11.114 -0.508,9.825 -3.455,19.318 -8.543,27.641 l -83.041,17.997 h -38.593 l -82.445,-17.868 c -5.144,-8.359 -8.118,-17.895 -8.618,-27.768 -1.085,-21.075 -1.3,-42.369 -0.681,-63.629 2.48,0.575 5.007,0.874 7.579,0.874 2.988,0 6.035,-0.389 9.132,-1.167 16.508,-4.15 31.309,-19.115 41.303,-31.774 1.575,1.869 3.398,3.191 5.012,4.102 14.686,8.292 35.791,-5.153 50.912,-17.891 15.661,-13.193 31.186,-30.87 41.632,-47.223 34.012,10.521 59.538,32.781 65.382,59.878 1.323,18.624 2,37.498 2.01,56.11 0.002,4.141 3.359,7.496 7.5,7.496 h 0.004 c 4.142,-0.002 7.498,-3.362 7.496,-7.504 -0.009,-18.362 -0.662,-36.973 -1.927,-55.361 0.781,-4.211 1.188,-8.536 1.188,-12.87 0,-25.358 -13.419,-49.033 -37.787,-66.665 C 320.758,42.559 289.457,33.14 256.258,33.14 c -6.78,0 -13.474,0.39 -19.871,1.156 -15.625,1.818 -30.459,5.748 -44.089,11.681 -18.314,7.97 -33.704,19.331 -44.505,32.854 -11.421,14.3 -17.458,30.724 -17.458,47.495 0,4.337 0.408,8.688 1.195,12.942 -2.216,32.188 -2.519,64.734 -0.87,96.782 0.175,3.441 0.59,6.85 1.235,10.205 C 109.32,232.032 98.67,208.847 98.67,174.56 Z M 256.257,57.025 c -6.781,0 -13.475,0.39 -19.87,1.156 -15.627,1.817 -30.461,5.744 -44.092,11.674 -14.727,6.413 -27.277,14.797 -37.154,24.603 9.043,-14.132 23.958,-26.379 43.143,-34.728 12.275,-5.344 25.678,-8.888 39.861,-10.538 5.832,-0.698 11.926,-1.052 18.112,-1.052 45.451,0 84.605,19.37 101.722,47.011 C 352.317,89.418 345.744,84.143 338.352,79.45 315.578,64.989 286.423,57.025 256.257,57.025 Z m -57.975,26.583 c 12.274,-5.34 25.677,-8.882 39.863,-10.531 5.831,-0.698 11.925,-1.052 18.112,-1.052 9.928,0 19.595,0.944 28.822,2.709 -9.521,13.837 -22.832,28.628 -35.847,39.593 -24.893,20.97 -33.517,16.502 -33.873,16.301 -2.661,-1.502 -0.47,-7.438 1.072,-10.842 1.654,-3.651 0.144,-7.955 -3.427,-9.775 -3.571,-1.821 -7.943,-0.509 -9.925,2.974 -6.006,10.554 -25.814,39.002 -45.081,43.832 -4.408,1.106 -8.506,0.89 -12.429,-0.656 0.29,-5.955 0.628,-11.905 1.051,-17.84 4.944,-22.643 23.683,-42.528 51.662,-54.713 z M 42.115,341.1 v -18.874 c 0,-7.458 6.068,-13.526 13.526,-13.526 h 7.864 c 7.458,0 13.526,6.068 13.526,13.526 V 341.1 c 0,7.458 -6.068,13.526 -13.526,13.526 h -7.864 c -7.458,0 -13.526,-6.067 -13.526,-13.526 z M 75.13,449.49 v -82.35 c 9.949,-4.46 16.9,-14.45 16.9,-26.039 v -18.874 c 0,-11.59 -6.951,-21.58 -16.9,-26.039 V 280.45 c 0,-4.704 2.103,-9.097 5.769,-12.052 3.666,-2.955 8.404,-4.076 13.003,-3.078 L 228.4,294.469 v 47.481 c 0,4.142 3.358,7.5 7.5,7.5 4.142,0 7.5,-3.358 7.5,-7.5 v -46.03 h 25.198 V 497 H 243.4 V 371.95 c 0,-4.142 -3.358,-7.5 -7.5,-7.5 -4.142,0 -7.5,3.358 -7.5,7.5 V 495.201 L 87.338,464.63 C 80.264,463.097 75.13,456.73 75.13,449.49 Z m 349.532,15.14 -141.063,30.571 V 294.469 l 134.504,-29.15 c 4.596,-0.997 9.334,0.124 13,3.079 3.666,2.955 5.769,7.348 5.769,12.052 v 15.737 c -9.949,4.46 -16.9,14.45 -16.9,26.039 V 341.1 c 0,11.59 6.951,21.58 16.9,26.039 v 82.35 c -0.002,7.241 -5.136,13.608 -12.21,15.141 z M 469.885,341.1 c 0,7.458 -6.068,13.526 -13.526,13.526 h -7.864 c -7.458,0 -13.526,-6.068 -13.526,-13.526 v -18.874 c 0,-7.458 6.068,-13.526 13.526,-13.526 h 7.864 c 7.458,0 13.526,6.068 13.526,13.526 z"
       id="path889"
       style="fill:#860e2e;fill-opacity:1" />
  </g>
  <rect
     style="fill:#e9275b;stroke-width:1.88976;stroke-linecap:round;fill-opacity:1"
     id="rect932"
     width="72.309456"
     height="101.04783"
     x="613.70337"
     y="191.89818"
     rx="1000000" />
</svg>
