<?xml version="1.0" encoding="UTF-8" standalone="no"?>
<svg
   xmlns:dc="http://purl.org/dc/elements/1.1/"
   xmlns:cc="http://creativecommons.org/ns#"
   xmlns:rdf="http://www.w3.org/1999/02/22-rdf-syntax-ns#"
   xmlns:svg="http://www.w3.org/2000/svg"
   xmlns="http://www.w3.org/2000/svg"
   xmlns:sodipodi="http://sodipodi.sourceforge.net/DTD/sodipodi-0.dtd"
   xmlns:inkscape="http://www.inkscape.org/namespaces/inkscape"
   id="Capa_1"
   enable-background="new 0 0 510.807 510.807"
   height="512"
   viewBox="0 0 510.807 510.807"
   width="512"
   version="1.1"
   sodipodi:docname="writing.svg"
   inkscape:version="1.0.1 (c497b03c, 2020-09-10)">
  <metadata
     id="metadata1073">
    <rdf:RDF>
      <cc:Work
         rdf:about="">
        <dc:format>image/svg+xml</dc:format>
        <dc:type
           rdf:resource="http://purl.org/dc/dcmitype/StillImage" />
      </cc:Work>
    </rdf:RDF>
  </metadata>
  <defs
     id="defs1071" />
  <sodipodi:namedview
     pagecolor="#ffffff"
     bordercolor="#666666"
     borderopacity="1"
     objecttolerance="10"
     gridtolerance="10"
     guidetolerance="10"
     inkscape:pageopacity="0"
     inkscape:pageshadow="2"
     inkscape:window-width="1387"
     inkscape:window-height="973"
     id="namedview1069"
     showgrid="false"
     inkscape:zoom="1.0554194"
     inkscape:cx="256"
     inkscape:cy="256"
     inkscape:window-x="0"
     inkscape:window-y="23"
     inkscape:window-maximized="0"
     inkscape:current-layer="Capa_1" />
  <path
     d="m 97.558564,56.286107 c -1.287451,-0.162643 -2.595836,-0.256041 -3.927571,-0.256041 -8.558852,0 -16.304493,3.47024 -21.916459,9.074155 C 66.11062,70.716187 62.64038,78.461827 62.64038,87.02068 v 22.3754 c 0,1.65058 1.344617,2.9952 3.003247,2.9952 H 123.54269 195.086 V 62.650898 Z"
     fill="#efe2dd"
     id="path1002"
     style="fill:#70edd9;fill-opacity:1;stroke-width:0.80516" />
  <path
     d="m 359.26137,65.103415 c -5.61196,-5.603914 -13.3576,-9.074154 -21.91646,-9.074154 H 93.630993 c 17.117707,0 30.990617,13.872909 30.990617,30.990613 v 25.370596 312.78861 c 0,8.29315 3.36557,15.81334 8.8004,21.24818 5.43483,5.43483 12.95502,8.8004 21.24817,8.8004 1.17795,0 2.33819,-0.0749 3.48071,-0.20693 L 368.33553,442.52787 V 403.10159 87.019874 c 0,-8.558852 -3.47024,-16.304492 -9.07416,-21.916459 z"
     fill="#f9f3f1"
     id="path1004"
     style="fill:#bafaef;fill-opacity:1;stroke-width:0.80516" />
  <path
     d="m 190.64876,386.99839 c -0.0185,0 -0.0378,0 -0.0564,0 -2.96218,0.007 -5.40262,-2.30437 -5.40262,-5.26656 V 112.39047 87.019874 c 0,-17.115289 -13.87452,-30.990613 -30.99062,-30.990613 H 93.630993 c 17.117707,0 30.990617,13.872909 30.990617,30.990613 v 25.370596 312.78861 c 0,8.29315 3.36557,15.81334 8.8004,21.24818 5.43483,5.43483 12.95502,8.8004 21.24817,8.8004 1.17795,0 2.33819,-0.0749 3.48071,-0.20693 l 44.33051,-2.63448 c -3.17233,-1.48955 -6.04434,-3.51211 -8.49122,-5.95899 -5.43483,-5.43484 -8.8004,-12.95503 -8.8004,-21.24818 v -7.42519 h 183.14575 v -14.6523 -16.1032 z"
     fill="#efe2dd"
     id="path1006"
     style="fill:#86f0df;fill-opacity:1;stroke-width:0.80516" />
  <g
     id="g1017"
     style="fill:#9df8e9;fill-opacity:1"
     transform="matrix(0.80516014,0,0,0.80516014,49.839944,49.988144)">
    <g
       id="g1010"
       style="fill:#9df8e9;fill-opacity:1">
      <path
         d="m 289.177,401.124 c -0.295,-1.117 -0.586,-2.254 -0.874,-3.407 l 0.143,3.626 c 0.249,-0.071 0.484,-0.147 0.731,-0.219 z"
         fill="#fae2c0"
         id="path1008"
         style="fill:#9df8e9;fill-opacity:1" />
    </g>
    <g
       id="XMLID_287_"
       style="fill:#9df8e9;fill-opacity:1">
      <g
         id="g1014"
         style="fill:#9df8e9;fill-opacity:1">
        <path
           d="m 465.258,438.563 c 2.734,0 4.951,2.216 4.951,4.951 v 22.469 c 0,10.3 -4.18,19.64 -10.93,26.39 -6.76,6.75 -16.08,10.93 -26.39,10.93 h -302.69 c 20.62,0 37.33,-16.71 37.33,-37.32 v -20.066 c 0,-4.062 3.293,-7.354 7.354,-7.354 h 220.686 z"
           fill="#f9f3f1"
           id="path1012"
           style="fill:#9df8e9;fill-opacity:1" />
      </g>
    </g>
  </g>
  <path
     d="m 336.59612,319.81582 c 11.89221,-9.24323 22.25462,-29.22731 28.89719,-44.50925 l -53.1921,-26.97528 -31.27725,2.1683 -4.57894,-1.81081 c -2.41387,-0.95411 -5.15947,0.0596 -6.37848,2.35107 -22.89312,43.0342 -3.92999,99.7682 3.22628,117.9149 1.34381,3.40744 5.04996,5.25286 8.57415,4.25527 40.28779,-11.39865 55.96829,-35.03413 59.22274,-40.69763 0.43479,-0.75685 0.47505,-1.66668 0.11273,-2.46379 z"
     fill="#fee97d"
     id="path1019"
     style="fill:#7cf4e0;fill-opacity:1;stroke-width:0.80516" />
  <path
     d="m 285.94671,329.74989 c -4.44609,-24.01149 -5.29232,-53.67681 8.02423,-78.70923 0.31965,-0.60146 0.74638,-1.11193 1.24317,-1.52498 l -14.18934,0.98391 -4.57895,-1.81081 c -2.41387,-0.95411 -5.15946,0.0596 -6.37848,2.35107 -22.89311,43.0342 -3.92998,99.7682 3.22548,117.9149 0.74557,1.88971 2.21902,3.29632 3.98393,4.00728 z"
     fill="#fee45a"
     id="path1021"
     style="fill:#4be7cd;fill-opacity:1;stroke-width:0.80516" />
  <path
     d="m 387.32765,132.92849 -22.76027,-12.09914 c -20.57184,17.48003 -37.02932,38.80067 -49.72669,59.0585 v 0.008 l -9.52505,41.58491 30.88997,34.83445 55.18165,-30.75068 c 19.74253,-23.28523 33.13234,-51.56245 36.2,-58.3419 z"
     fill="#fee97d"
     id="path1023"
     style="fill:#78eeda;fill-opacity:1;stroke-width:0.80516" />
  <path
     d="m 372.31946,124.94936 -7.75128,-4.12081 c -20.57184,17.48002 -37.02931,38.80067 -49.72669,59.05849 v 0.008 l -9.52504,41.58491 7.65707,8.63534 6.91794,-30.20236 v -0.008 c 12.69737,-20.25783 29.15485,-41.57847 49.72669,-59.0585 l 2.70131,1.4356 z"
     fill="#fee45a"
     id="path1025"
     style="fill:#4be7cd;fill-opacity:1;stroke-width:0.80516" />
  <path
     d="m 326.81342,225.56378 h 64.57384 c -7.45578,8.8004 -15.82945,16.90031 -24.89555,22.85044 -1.08696,0.7166 -1.04671,2.31081 0.0644,2.9791 l 4.28748,2.55799 c 1.41789,0.84622 2.04108,2.57088 1.48552,4.12645 -1.2174,3.40743 -3.58054,9.7529 -6.82776,17.22881 h -0.008 L 295.96778,292.35181 281.024,250.49959 c 0,0 10.58786,-33.52687 33.81673,-70.60449 z"
     fill="#fff9e2"
     id="path1027"
     style="fill:#bafaef;fill-opacity:1;stroke-width:0.80516" />
  <g
     id="g1031"
     style="fill:#00e2bc;fill-opacity:1"
     transform="matrix(0.80516014,0,0,0.80516014,49.839944,49.988144)">
    <path
       d="m 335.573,185.927 -6.445,-24.583 c -28.85,46.05 -42,87.69 -42,87.69 l 7.698,21.559 c 3.074,-9.034 16.117,-45.133 40.747,-84.666 z"
       fill="#fef0ae"
       id="path1029"
       style="fill:#4be7cd;fill-opacity:1" />
  </g>
  <path
     d="m 427.58726,164.97548 c 0.41385,0.44606 0.52255,1.09421 0.27134,1.64816 -0.0797,0.17553 -0.16747,0.37521 -0.27134,0.59824 l -59.77509,-0.4831 -3.24479,-45.91023 c 1.59422,-1.36394 3.21581,-2.70131 4.86236,-4.01131 1.57973,-1.25685 3.78345,-1.37038 5.46301,-0.2496 l 2.38086,1.58858 c 0,0 30.91251,-27.238565 66.17692,-31.13071 2.53464,-0.27939 4.67395,1.875218 4.36316,4.406642 -1.63608,13.319768 -7.83823,50.832978 -26.99702,66.250188 z"
     fill="#fef1da"
     id="path1033"
     style="stroke-width:0.80516" />
  <path
     d="m 427.58726,164.97548 c 0.41385,0.44606 0.52255,1.09421 0.27134,1.64816 -0.0797,0.17553 -0.16747,0.37521 -0.27134,0.59824 l -59.77509,-0.4831 -3.24479,-45.91023 c 1.59422,-1.36394 3.21581,-2.70131 4.86236,-4.01131 1.57973,-1.25685 3.78345,-1.37038 5.46301,-0.2496 l 2.38086,1.58858 c 0,0 30.91251,-27.238565 66.17692,-31.13071 2.53464,-0.27939 4.67395,1.875218 4.36316,4.406642 -1.63608,13.319768 -7.83823,50.832978 -26.99702,66.250188 z"
     fill="#fff9e2"
     id="path1035"
     style="fill:#bafaef;fill-opacity:1;stroke-width:0.80516" />
  <g
     id="g1039"
     style="fill:#00e2bc;fill-opacity:1"
     transform="matrix(0.80516014,0,0,0.80516014,49.839944,49.988144)">
    <path
       d="m 488.86,45.999 c -43.798,4.834 -82.191,38.664 -82.191,38.664 l -2.957,-1.973 c -2.086,-1.392 -4.823,-1.251 -6.785,0.31 -2.045,1.627 -4.059,3.288 -6.039,4.982 l 2.02,28.578 c 0.471,-0.414 38.642,-33.841 82.169,-38.645 3.148,-0.347 5.805,2.329 5.419,5.473 -0.93,7.569 -3.054,21.432 -7.356,36.075 14.241,-22.261 19.512,-54.75 21.139,-67.993 0.386,-3.142 -2.272,-5.819 -5.419,-5.471 z"
       fill="#fef0ae"
       id="path1037"
       style="fill:#00e2bc;fill-opacity:1" />
  </g>
  <g
     id="g1064"
     style="fill:#006352;fill-opacity:1"
     transform="matrix(0.80516014,0,0,0.80516014,50.158746,50.919833)">
    <path
       d="m 500.29,40.302 c -1.497,-1.543 -3.581,-2.367 -5.729,-2.271 C 454.658,39.873 418.58,65.543 406.2,75.33 l -1.771,-1.181 c -2.67,-1.778 -6.175,-1.663 -8.719,0.286 -41.871,32.063 -71.101,77.207 -88.249,109.432 -12.93,24.298 -21.025,44.774 -24.856,55.31 l -3.523,-1.393 c -3.4,-1.345 -7.273,-0.038 -9.169,3.087 -17.031,28.083 -21.721,65.737 -13.561,108.893 5.134,27.151 13.701,48.282 16.506,54.767 -1.185,8.8 -2.149,17.646 -2.882,26.535 h -102.45 c -4.143,0 -7.5,3.357 -7.5,7.5 v 27.418 c 0,16.444 -13.379,29.823 -29.823,29.823 -16.444,0 -29.823,-13.379 -29.823,-29.823 V 45.989 C 100.38,34.061 95.813,23.181 88.339,15 h 211.282 c 4.143,0 7.5,-3.357 7.5,-7.5 0,-4.143 -3.357,-7.5 -7.5,-7.5 H 54.389 C 29.03,0 8.401,20.631 8.401,45.989 v 27.79 c 0,6.188 5.034,11.223 11.223,11.223 h 65.755 v 380.981 c 0,24.716 20.107,44.823 44.823,44.823 H 432.89 c 24.716,0 44.823,-20.108 44.823,-44.824 v -27.417 c 0,-4.143 -3.357,-7.5 -7.5,-7.5 h -24.281 c -4.143,0 -7.5,3.357 -7.5,7.5 0,4.143 3.357,7.5 7.5,7.5 h 16.781 v 19.917 c 0,16.445 -13.379,29.824 -29.823,29.824 H 163.626 c 7.083,-7.929 11.399,-18.38 11.399,-29.823 V 446.065 H 413.97 c 4.143,0 7.5,-3.357 7.5,-7.5 0,-4.143 -3.357,-7.5 -7.5,-7.5 h -10.903 v -85.433 c 0,-4.143 -3.357,-7.5 -7.5,-7.5 -4.143,0 -7.5,3.357 -7.5,7.5 v 85.433 H 285.031 c 0.615,-7.237 1.39,-14.446 2.313,-21.623 53.949,-14.32 75.468,-45.396 80.881,-54.807 1.731,-3.009 1.914,-6.7 0.486,-9.876 l -3.436,-7.634 c 24.79,-23.74 42.739,-77.25 43.535,-79.648 1.106,-3.338 -0.254,-6.996 -3.273,-8.799 l -1.338,-0.8 c 14.604,-11.158 29.071,-27.274 43.101,-48.032 2.319,-3.433 1.418,-8.095 -2.014,-10.414 -3.434,-2.318 -8.095,-1.417 -10.414,2.014 -4.699,6.953 -9.427,13.33 -14.17,19.119 h -63.444 c 12.352,-20.262 26.134,-39.672 41.261,-58.068 l 59.09,-0.123 c -1.169,2.336 -2.504,4.944 -4.016,7.792 -1.942,3.658 -0.552,8.199 3.106,10.142 3.659,1.94 8.198,0.551 10.142,-3.106 5.035,-9.482 8.325,-16.646 9.51,-19.292 1.532,-3.435 0.867,-7.438 -1.696,-10.202 l -3.336,-3.592 c 26.162,-28.104 30.866,-85.424 31.065,-88.017 0.165,-2.143 -0.598,-4.254 -2.094,-5.797 z M 85.378,70.002 H 23.401 V 45.989 C 23.401,28.901 37.302,15 54.389,15 71.477,15 85.378,28.901 85.378,45.989 Z m 315.25,19.642 1.886,1.257 c 2.823,1.882 6.563,1.63 9.114,-0.611 0.35,-0.308 31.151,-27.048 67.618,-35.094 l -12.421,9.55 c -23.631,18.6 -45.436,39.102 -65.264,61.201 l -1.632,-35.729 c 0.234,-0.191 0.464,-0.385 0.699,-0.574 z m -15.133,13.298 1.808,39.591 c -14.781,17.937 -28.32,36.811 -40.541,56.48 l -9.522,-36.319 c 12.956,-20.342 28.983,-41.373 48.255,-59.752 z m -59.053,77.718 9.562,36.47 c -11.375,20.071 -21.421,40.885 -30.054,62.303 l -10.882,-30.478 c 2.771,-8.028 12.955,-35.837 31.374,-68.295 z m -55.416,165.977 c -4.846,-25.832 -7.025,-62.18 8.634,-92.495 l 1.552,0.613 16.557,46.375 c -8.375,23.774 -15.047,48.204 -19.915,73.109 -2.437,-7.978 -4.908,-17.365 -6.828,-27.602 z m 80.522,-17.429 c -2.731,2.124 -3.655,5.842 -2.235,8.997 l 4.828,10.729 c -5.142,8.057 -23.123,31.51 -64.428,44.224 4.753,-29.328 12.067,-58.049 21.78,-85.848 l 67.125,-16.45 c -7.688,15.356 -17.201,30.672 -27.07,38.348 z m 55.483,-103.643 c -5.961,5.819 -11.927,10.707 -17.872,14.609 -2.805,1.841 -4.437,4.942 -4.365,8.296 0.072,3.356 1.836,6.388 4.718,8.106 l 3.081,1.841 c -1.552,4.249 -3.568,9.417 -5.954,15.033 l -68.875,16.879 c 8.696,-22.297 18.957,-43.942 30.692,-64.765 h 58.575 z m 49.018,-97.651 c -1.622,1.305 -2.628,3.225 -2.778,5.301 -0.106,1.462 0.228,2.906 0.925,4.167 l -42.819,0.089 c 19.597,-22.017 41.2,-42.421 64.659,-60.886 l 7.355,-5.655 c -4.164,19.5 -12.252,44.839 -27.342,56.984 z"
       id="path1046"
       style="fill:#006352;fill-opacity:1" />
    <path
       d="m 331.582,15 h 25.495 c 17.088,0 30.989,13.901 30.989,30.988 0,4.143 3.357,7.5 7.5,7.5 4.143,0 7.5,-3.357 7.5,-7.5 C 403.067,20.63 382.436,0 357.077,0 h -25.495 c -4.143,0 -7.5,3.357 -7.5,7.5 0,4.143 3.358,7.5 7.5,7.5 z"
       id="path1048"
       style="fill:#006352;fill-opacity:1" />
    <path
       d="m 154.979,118.011 c 4.143,0 7.5,-3.357 7.5,-7.5 0,-4.143 -3.357,-7.5 -7.5,-7.5 h -9.247 c -4.143,0 -7.5,3.357 -7.5,7.5 0,4.143 3.357,7.5 7.5,7.5 z"
       id="path1050"
       style="fill:#006352;fill-opacity:1" />
    <path
       d="m 178.69,110.511 c 0,4.143 3.357,7.5 7.5,7.5 h 134.666 c 4.143,0 7.5,-3.357 7.5,-7.5 0,-4.143 -3.357,-7.5 -7.5,-7.5 H 186.19 c -4.143,0 -7.5,3.357 -7.5,7.5 z"
       id="path1052"
       style="fill:#006352;fill-opacity:1" />
    <path
       d="m 284.42,163.684 c 0,-4.143 -3.357,-7.5 -7.5,-7.5 H 148.043 c -4.143,0 -7.5,3.357 -7.5,7.5 0,4.143 3.357,7.5 7.5,7.5 H 276.92 c 4.143,0 7.5,-3.358 7.5,-7.5 z"
       id="path1054"
       style="fill:#006352;fill-opacity:1" />
    <path
       d="m 253.22,216.856 c 0,-4.143 -3.357,-7.5 -7.5,-7.5 h -97.677 c -4.143,0 -7.5,3.357 -7.5,7.5 0,4.143 3.357,7.5 7.5,7.5 h 97.677 c 4.142,0 7.5,-3.357 7.5,-7.5 z"
       id="path1056"
       style="fill:#006352;fill-opacity:1" />
    <path
       d="m 230.114,262.529 h -82.071 c -4.143,0 -7.5,3.357 -7.5,7.5 0,4.143 3.357,7.5 7.5,7.5 h 82.071 c 4.143,0 7.5,-3.357 7.5,-7.5 0,-4.143 -3.357,-7.5 -7.5,-7.5 z"
       id="path1058"
       style="fill:#006352;fill-opacity:1" />
    <path
       d="m 230.114,315.702 h -82.071 c -4.143,0 -7.5,3.357 -7.5,7.5 0,4.143 3.357,7.5 7.5,7.5 h 82.071 c 4.143,0 7.5,-3.357 7.5,-7.5 0,-4.143 -3.357,-7.5 -7.5,-7.5 z"
       id="path1060"
       style="fill:#006352;fill-opacity:1" />
    <path
       d="m 230.114,368.875 h -82.071 c -4.143,0 -7.5,3.357 -7.5,7.5 0,4.143 3.357,7.5 7.5,7.5 h 82.071 c 4.143,0 7.5,-3.357 7.5,-7.5 0,-4.143 -3.357,-7.5 -7.5,-7.5 z"
       id="path1062"
       style="fill:#006352;fill-opacity:1" />
  </g>
  <rect
     style="fill:#00b899;stroke-width:1.88536;stroke-linecap:round;fill-opacity:1"
     id="rect1636"
     width="168.44081"
     height="189.83012"
     x="-524.03815"
     y="-355.59729"
     rx="997669.94" />
</svg>
