<?xml version="1.0" encoding="UTF-8" standalone="no"?>
<svg
   xmlns:dc="http://purl.org/dc/elements/1.1/"
   xmlns:cc="http://creativecommons.org/ns#"
   xmlns:rdf="http://www.w3.org/1999/02/22-rdf-syntax-ns#"
   xmlns:svg="http://www.w3.org/2000/svg"
   xmlns="http://www.w3.org/2000/svg"
   xmlns:sodipodi="http://sodipodi.sourceforge.net/DTD/sodipodi-0.dtd"
   xmlns:inkscape="http://www.inkscape.org/namespaces/inkscape"
   height="512"
   viewBox="0 0 64 64"
   width="512"
   version="1.1"
   id="svg880"
   sodipodi:docname="video_call.svg"
   inkscape:version="1.0.1 (c497b03c, 2020-09-10)">
  <metadata
     id="metadata886">
    <rdf:RDF>
      <cc:Work
         rdf:about="">
        <dc:format>image/svg+xml</dc:format>
        <dc:type
           rdf:resource="http://purl.org/dc/dcmitype/StillImage" />
      </cc:Work>
    </rdf:RDF>
  </metadata>
  <defs
     id="defs884" />
  <sodipodi:namedview
     pagecolor="#ffffff"
     bordercolor="#666666"
     borderopacity="1"
     objecttolerance="10"
     gridtolerance="10"
     guidetolerance="10"
     inkscape:pageopacity="0"
     inkscape:pageshadow="2"
     inkscape:window-width="1322"
     inkscape:window-height="942"
     id="namedview882"
     showgrid="false"
     inkscape:zoom="0.50643686"
     inkscape:cx="256"
     inkscape:cy="256"
     inkscape:window-x="0"
     inkscape:window-y="23"
     inkscape:window-maximized="0"
     inkscape:current-layer="svg880" />
  <rect
     fill="#686868"
     height="60.955441"
     rx="4.0636959"
     width="38.60511"
     x="15.808911"
     y="1.522279"
     id="rect833"
     style="stroke-width:1.01592" />
  <path
     d="m 50.350327,58.414023 h -30.47772 v -50.7962 a 2.031848,2.031848 0 0 1 2.031848,-2.031848 h 5.07962 a 2.031848,2.031848 0 0 1 2.031848,2.031848 2.031848,2.031848 0 0 0 2.031848,2.031848 h 8.127392 a 2.031848,2.031848 0 0 0 2.031848,-2.031848 2.031848,2.031848 0 0 1 2.031848,-2.031848 h 5.07962 a 2.031848,2.031848 0 0 1 2.031848,2.031848 z"
     fill="#e2e7f6"
     id="path835"
     style="stroke-width:1.01592" />
  <path
     d="M 46.286631,52.318479 V 5.585975 H 43.238859 A 2.031848,2.031848 0 0 0 41.207011,7.617823 2.031848,2.031848 0 0 1 39.175163,9.649671 H 31.047771 A 2.031848,2.031848 0 0 1 29.015923,7.617823 2.031848,2.031848 0 0 0 26.984075,5.585975 h -5.07962 a 2.031848,2.031848 0 0 0 -2.031848,2.031848 v 44.700656 z"
     fill="#f2f2f2"
     id="path837"
     style="stroke-width:1.01592" />
  <path
     d="m 19.872607,40.127391 v 6.095544 L 13.777063,40.127391 H 3.617823 A 2.031848,2.031848 0 0 1 1.585975,38.095543 v -4.063696 a 2.031848,2.031848 0 0 1 2.031848,-2.031848 h 19.302556 a 2.031848,2.031848 0 0 1 2.031848,2.031848 v 4.063696 a 2.031848,2.031848 0 0 1 -2.031848,2.031848 z"
     fill="#f0ae42"
     id="path839"
     style="stroke-width:1.01592" />
  <path
     d="m 21.912582,37.079619 v -5.07962 H 3.617823 a 2.031848,2.031848 0 0 0 -2.031848,2.031848 v 3.047772 z"
     fill="#f6b940"
     id="path841"
     style="stroke-width:1.01592" />
  <path
     d="M 23.936303,58.414023 H 46.286631 V 52.318479 A 4.063696,4.063696 0 0 0 42.222935,48.254783 H 27.999999 a 4.063696,4.063696 0 0 0 -4.063696,4.063696 z"
     fill="#5e87ca"
     id="path843"
     style="stroke-width:1.01592" />
  <path
     d="m 32.063695,43.175163 h 6.095544 v 5.07962 h -6.095544 z"
     fill="#f2b9a1"
     id="path845"
     style="stroke-width:1.01592" />
  <rect
     fill="#fbe1ca"
     height="14.222936"
     rx="4.0636959"
     transform="scale(-1)"
     width="12.191088"
     x="-41.207012"
     y="-44.191086"
     id="rect847"
     style="stroke-width:1.01592" />
  <path
     d="m 41.207011,36.063695 h -0.400274 a 12.099655,12.099655 0 0 1 -6.711194,-2.031848 2.031848,2.031848 0 0 1 -2.031848,2.031848 h -3.047772 v -2.031848 a 4.063696,4.063696 0 0 1 4.063696,-4.063696 h 4.063696 a 4.063696,4.063696 0 0 1 4.063696,4.063696 z"
     fill="#c18e59"
     id="path849"
     style="stroke-width:1.01592" />
  <path
     d="M 50.350327,25.904455 H 36.127391 V 13.713367 h 14.222936"
     fill="#b5b5b5"
     id="path851"
     style="stroke-width:1.01592" />
  <circle
     cx="43.238857"
     cy="18.792988"
     fill="#fbe1ca"
     r="2.031848"
     id="circle853"
     style="stroke-width:1.01592" />
  <path
     d="m 40.191087,25.904455 v -2.031848 a 3.047772,3.047772 0 0 1 3.047772,-3.047772 3.047772,3.047772 0 0 1 3.047772,3.047772 v 2.031848"
     fill="#559b2d"
     id="path855"
     style="stroke-width:1.01592" />
  <path
     d="m 24.952227,14.729291 a 2.031848,2.031848 0 1 1 2.031848,-2.031848 2.031848,2.031848 0 0 1 -2.031848,2.031848 z"
     fill="#d23f34"
     id="path857"
     style="stroke-width:1.01592" />
  <g
     fill="#f2f2f2"
     id="g865"
     transform="matrix(1.015924,0,0,1.015924,-4.509569,-0.50956899)">
    <path
       d="m 12,35 h 2 v 2 h -2 z"
       id="path859" />
    <path
       d="m 16,35 h 2 v 2 h -2 z"
       id="path861" />
    <path
       d="m 20,35 h 2 v 2 h -2 z"
       id="path863" />
  </g>
  <path
     d="M 42.222935,52.318479 V 48.254783 H 27.999999 a 4.063696,4.063696 0 0 0 -4.063696,4.063696 v 2.031848 h 16.254784 a 2.031848,2.031848 0 0 0 2.031848,-2.031848 z"
     fill="#78a0d4"
     id="path867"
     style="stroke-width:1.01592" />
  <path
     d="M 50.350327,0.50635501 H 19.872607 A 5.0857155,5.0857155 0 0 0 14.792987,5.585975 v 25.3981 H 3.617823 a 3.047772,3.047772 0 0 0 -3.047772,3.047772 v 4.063696 a 3.047772,3.047772 0 0 0 3.047772,3.047772 h 9.738647 l 1.436517,1.436517 v 15.834191 a 5.0857155,5.0857155 0 0 0 5.07962,5.07962 h 30.47772 a 5.0857155,5.0857155 0 0 0 5.07962,-5.07962 V 5.585975 A 5.0857155,5.0857155 0 0 0 50.350327,0.50635501 Z M 13.777063,39.111467 H 3.617823 A 1.015924,1.015924 0 0 1 2.601899,38.095543 v -4.063696 a 1.015924,1.015924 0 0 1 1.015924,-1.015924 h 19.302556 a 1.015924,1.015924 0 0 1 1.015924,1.015924 v 4.063696 a 1.015924,1.015924 0 0 1 -1.015924,1.015924 h -3.047772 a 1.015924,1.015924 0 0 0 -1.015924,1.015924 v 3.643103 l -4.361362,-4.361361 a 1.015924,1.015924 0 0 0 -0.718258,-0.297666 z m 35.55734,-14.222936 h -2.031848 v -1.015924 a 4.0474412,4.0474412 0 0 0 -1.644781,-3.245877 3.0193261,3.0193261 0 0 0 0.628857,-1.833743 3.047772,3.047772 0 0 0 -6.095544,0 3.0193261,3.0193261 0 0 0 0.628857,1.828663 4.0474412,4.0474412 0 0 0 -1.644781,3.250957 v 1.015924 h -2.031848 v -10.15924 h 12.191088 z m -7.111468,-6.095544 a 1.015924,1.015924 0 1 1 1.015924,1.015924 1.015924,1.015924 0 0 1 -1.015924,-1.015924 z m -1.015924,5.07962 a 2.031848,2.031848 0 0 1 4.063696,0 v 1.015924 H 41.207011 Z M 49.334403,12.697443 H 36.127391 a 1.015924,1.015924 0 0 0 -1.015924,1.015924 v 12.191088 a 1.015924,1.015924 0 0 0 1.015924,1.015924 h 13.207012 v 30.47772 h -2.031848 v -5.07962 a 5.0857155,5.0857155 0 0 0 -5.07962,-5.07962 h -3.047772 v -2.4626 a 5.07962,5.07962 0 0 0 3.047772,-4.648868 v -6.095544 a 5.0857155,5.0857155 0 0 0 -5.07962,-5.07962 h -4.063696 a 5.0857155,5.0857155 0 0 0 -5.07962,5.07962 v 6.095544 a 5.07962,5.07962 0 0 0 3.047772,4.648868 v 2.4626 h -3.047772 a 5.0857155,5.0857155 0 0 0 -5.07962,5.07962 v 5.07962 H 20.888531 V 41.143315 h 2.031848 a 3.047772,3.047772 0 0 0 3.047772,-3.047772 V 34.031847 A 3.047772,3.047772 0 0 0 22.920379,30.984075 H 20.888531 V 7.617823 a 1.015924,1.015924 0 0 1 1.015924,-1.015924 h 5.07962 a 1.015924,1.015924 0 0 1 1.015924,1.015924 3.047772,3.047772 0 0 0 3.047772,3.047772 h 8.127392 a 3.047772,3.047772 0 0 0 3.047772,-3.047772 1.015924,1.015924 0 0 1 1.015924,-1.015924 h 5.07962 a 1.015924,1.015924 0 0 1 1.015924,1.015924 z m -9.143316,22.327978 a 11.038014,11.038014 0 0 1 -5.531706,-1.838823 1.015924,1.015924 0 0 0 -1.579762,0.845249 1.015924,1.015924 0 0 1 -1.015924,1.015924 h -2.031848 v -1.015924 a 3.047772,3.047772 0 0 1 3.047772,-3.047772 h 4.063696 a 3.047772,3.047772 0 0 1 3.047772,3.047772 z m -10.15924,2.054198 h 2.031848 a 3.047772,3.047772 0 0 0 2.631243,-1.510679 13.031257,13.031257 0 0 0 5.496149,1.47309 v 3.085361 a 3.047772,3.047772 0 0 1 -3.047772,3.047772 h -4.063696 a 3.047772,3.047772 0 0 1 -3.047772,-3.047772 z m 7.111468,8.127392 v 2.031848 h -4.063696 v -2.031848 z m 5.07962,4.063696 a 3.047772,3.047772 0 0 1 3.047772,3.047772 v 5.07962 h -20.31848 v -5.07962 a 3.047772,3.047772 0 0 1 3.047772,-3.047772 z m 11.175164,9.143316 a 3.047772,3.047772 0 0 1 -3.047772,3.047772 H 19.872607 A 3.047772,3.047772 0 0 1 16.824835,58.414023 V 44.61168 l 2.031848,2.031848 v 11.770495 a 1.015924,1.015924 0 0 0 1.015924,1.015924 h 30.47772 a 1.015924,1.015924 0 0 0 1.015924,-1.015924 V 7.617823 A 3.047772,3.047772 0 0 0 48.318479,4.570051 h -5.07962 A 3.047772,3.047772 0 0 0 40.191087,7.617823 1.015924,1.015924 0 0 1 39.175163,8.633747 H 31.047771 A 1.015924,1.015924 0 0 1 30.031847,7.617823 3.047772,3.047772 0 0 0 26.984075,4.570051 h -5.07962 a 3.047772,3.047772 0 0 0 -3.047772,3.047772 v 23.366252 h -2.031848 v -25.3981 a 3.047772,3.047772 0 0 1 3.047772,-3.047772 h 30.47772 a 3.047772,3.047772 0 0 1 3.047772,3.047772 z"
     id="path869"
     style="stroke-width:1.01592" />
  <circle
     cx="24.952227"
     cy="12.697443"
     r="2.031848"
     id="circle871"
     style="stroke-width:1.01592" />
  <path
     d="m 7.681519,35.047771 h 2.031848 v 2.031848 H 7.681519 Z"
     id="path873"
     style="stroke-width:1.01592" />
  <path
     d="m 11.745215,35.047771 h 2.031848 v 2.031848 h -2.031848 z"
     id="path875"
     style="stroke-width:1.01592" />
  <path
     d="m 15.808911,35.047771 h 2.031848 v 2.031848 h -2.031848 z"
     id="path877"
     style="stroke-width:1.01592" />
</svg>
