<?xml version="1.0" encoding="UTF-8" standalone="no"?>
<svg
   xmlns:dc="http://purl.org/dc/elements/1.1/"
   xmlns:cc="http://creativecommons.org/ns#"
   xmlns:rdf="http://www.w3.org/1999/02/22-rdf-syntax-ns#"
   xmlns:svg="http://www.w3.org/2000/svg"
   xmlns="http://www.w3.org/2000/svg"
   xmlns:sodipodi="http://sodipodi.sourceforge.net/DTD/sodipodi-0.dtd"
   xmlns:inkscape="http://www.inkscape.org/namespaces/inkscape"
   height="384"
   viewBox="0 0 450 384"
   width="450"
   version="1.1"
   id="svg959"
   sodipodi:docname="30.svg"
   inkscape:version="1.0.1 (c497b03c, 2020-09-10)">
  <metadata
     id="metadata965">
    <rdf:RDF>
      <cc:Work
         rdf:about="">
        <dc:format>image/svg+xml</dc:format>
        <dc:type
           rdf:resource="http://purl.org/dc/dcmitype/StillImage" />
      </cc:Work>
    </rdf:RDF>
  </metadata>
  <defs
     id="defs963" />
  <sodipodi:namedview
     pagecolor="#ffffff"
     bordercolor="#666666"
     borderopacity="1"
     objecttolerance="10"
     gridtolerance="10"
     guidetolerance="10"
     inkscape:pageopacity="0"
     inkscape:pageshadow="2"
     inkscape:window-width="1792"
     inkscape:window-height="987"
     id="namedview961"
     showgrid="false"
     inkscape:zoom="1.5735911"
     inkscape:cx="225"
     inkscape:cy="192"
     inkscape:window-x="0"
     inkscape:window-y="23"
     inkscape:window-maximized="1"
     inkscape:current-layer="svg959"
     inkscape:document-rotation="0" />
  <clipPath
     id="a">
    <path
       d="m939.66 716.711 237.06 237.059 95.71-95.711c-13.22-14.508-27.82-28-43.8-40.457-42.15-32.832-92.98-58.262-152.5-76.25-42.08-12.692-87.571-20.911-136.47-24.641m339.55 149.019-95.26 95.27 174.92 174.92c1.2-13.09 1.81-26.53 1.81-40.3 0-58.28-11.48-110.929-34.41-158.061-12.73-26.137-28.42-50.079-47.06-71.829m-658.71 828.74-115.754 129.54 206.074 206.08c19.403 5.75 39.504 10.73 60.313 14.95 45.859 9.3 92.988 13.94 141.347 13.94 43.282 0 83.946-3.78 122-11.34l-209.507-209.5c-33.676-6.01-64.95-17.33-93.821-33.94-45.273-26.04-82.148-62.62-110.652-109.73m-122.574 137.17-33.649 37.66c18.594 28.49 43.391 54.22 74.395 77.16 30.976 22.93 66.016 42.78 105.07 59.52 14.84 6.36 30.168 12.18 45.985 17.47z"
       id="path912" />
  </clipPath>
  <path
     d="m 405.18704,217.6369 c 0.18621,-10.82708 -0.55485,-20.80272 -2.24352,-29.91133 -1.67514,-9.11724 -4.1507,-16.95423 -7.413,-23.52751 -3.25537,-6.58291 -7.15388,-11.66952 -11.688,-15.30136 -4.54131,-3.60804 -9.5686,-5.48939 -15.08239,-5.61387 -5.71502,-0.12903 -10.96406,1.52035 -15.71979,4.91848 -4.76284,3.42195 -8.88016,8.32759 -12.36611,14.75831 -3.47905,6.42109 -6.21546,14.14042 -8.2162,23.17466 -1.98715,9.02562 -3.08402,18.95978 -3.27024,29.78685 -0.1864,10.83681 0.56942,20.73276 2.24697,29.70866 1.69096,8.9762 4.16088,16.75077 7.41629,23.33369 3.26247,6.56263 7.20742,11.67783 11.84931,15.28811 4.6348,3.63326 9.82335,5.50138 15.53837,5.63041 5.51379,0.12449 10.6016,-1.51165 15.26383,-4.93502 4.65506,-3.40039 8.72592,-8.33462 12.20478,-14.74505 3.48596,-6.43074 6.228,-14.08764 8.21289,-22.98087 1.99829,-8.89291 3.08041,-18.74735 3.26681,-29.58416 z m 41.37362,0.93405 c -0.30732,17.86819 -2.58248,34.27537 -6.81863,49.21012 -4.24265,14.92485 -9.98683,27.80424 -17.22537,38.61436 -7.23838,10.79944 -15.7631,19.13864 -25.56744,25.01676 -9.81084,5.8682 -20.33414,8.67993 -31.5697,8.42627 -11.44347,-0.25833 -21.96255,-3.54511 -31.5573,-9.85142 -9.60802,-6.31638 -17.83265,-15.03371 -24.68733,-26.15133 -6.86125,-11.12843 -12.15809,-24.25709 -15.87755,-39.36169 -3.73275,-15.11466 -5.44199,-31.61179 -5.13467,-49.47999 0.30728,-17.86555 2.58249,-34.27627 6.83201,-49.20718 4.23624,-14.94182 9.98012,-27.80436 17.21869,-38.61449 7.2317,-10.80317 15.7507,-19.20113 25.57089,-25.2212 9.80666,-6.014183 20.43149,-8.87605 31.87496,-8.617701 11.23556,0.253664 21.6531,3.590575 31.25205,10.042851 9.59215,6.45833 17.82251,15.23443 24.68387,26.35576 6.86121,11.12844 12.15836,24.24024 15.88424,39.36183 3.71938,15.1108 5.42856,31.6115 5.12128,49.47705"
     fill="#1b1918"
     id="path951"
     style="stroke-width:2.00662" />
  <path
     d="m 218.98512,209.17677 c 14.48639,2.53154 26.15562,9.36949 35.00769,20.52127 8.85022,11.15549 13.27904,24.77761 13.27904,40.87192 0,10.81053 -2.12724,20.57506 -6.37987,29.31751 -4.25634,8.73559 -10.29311,16.15181 -18.10845,22.24588 -7.81906,6.09054 -17.24606,10.80533 -28.28286,14.14141 -11.03681,3.33106 -23.34032,5.00021 -36.90496,5.00021 -17.70823,0 -33.28402,-2.81659 -46.73497,-8.44923 -13.45189,-5.63858 -24.54841,-13.85599 -33.28383,-24.66132 l 26.21311,-32.76505 c 5.97668,7.58536 13.04739,13.4515 21.21215,17.58913 8.15881,4.13764 18.45192,6.20924 30.86875,6.20924 14.02458,0 24.77578,-2.76151 32.24987,-8.27898 7.46853,-5.51933 11.20929,-14.02272 11.20929,-25.52316 0,-11.95297 -4.25634,-21.15184 -12.7616,-27.59291 -8.50897,-6.4355 -21.38369,-9.65696 -38.62975,-9.65696 h -9.65734 v -34.49206 h 10.69036 c 14.02459,0 24.94827,-3.1584 32.76732,-9.48448 7.81534,-6.32237 11.72858,-14.42702 11.72858,-24.31581 0,-9.42513 -3.16398,-16.43742 -9.48635,-21.04056 -6.32609,-4.59573 -14.65887,-6.89915 -25.00576,-6.89915 -10.57872,0 -20.06377,2.4147 -28.45534,7.24596 -8.39639,4.82755 -15.23528,11.61172 -20.52167,20.34694 l -28.97334,-32.42046 c 3.44847,-5.28749 8.04736,-10.0557 13.7974,-14.31389 5.74504,-4.25262 12.24342,-7.93217 19.48643,-11.03679 7.24468,-3.104617 15.11733,-5.517466 23.62611,-7.242255 8.50507,-1.724788 17.24587,-2.587182 26.21478,-2.587182 11.72672,0 22.41857,1.498526 32.07555,4.482595 9.65883,2.991488 17.93597,7.130982 24.83513,12.416622 6.89731,5.29306 12.24416,11.67478 16.03685,19.1433 3.79454,7.47593 5.69181,15.81241 5.69181,25.00572 0,6.89915 -1.03488,13.45149 -3.10463,19.66073 -2.06975,6.20739 -5.05938,11.84355 -8.96706,16.90107 -3.91323,5.06124 -8.57017,9.31201 -13.96895,12.76158 -5.4062,3.44773 -11.32798,5.7493 -17.76349,6.89916"
     fill="#1b1918"
     id="path955"
     style="stroke-width:1.85461" />
</svg>
