<?xml version="1.0" encoding="UTF-8" standalone="no"?>
<svg
   xmlns:dc="http://purl.org/dc/elements/1.1/"
   xmlns:cc="http://creativecommons.org/ns#"
   xmlns:rdf="http://www.w3.org/1999/02/22-rdf-syntax-ns#"
   xmlns:svg="http://www.w3.org/2000/svg"
   xmlns="http://www.w3.org/2000/svg"
   xmlns:sodipodi="http://sodipodi.sourceforge.net/DTD/sodipodi-0.dtd"
   xmlns:inkscape="http://www.inkscape.org/namespaces/inkscape"
   height="384"
   viewBox="0 0 450 384"
   width="450"
   version="1.1"
   id="svg880"
   sodipodi:docname="30_back.svg"
   inkscape:version="1.0.1 (c497b03c, 2020-09-10)">
  <metadata
     id="metadata886">
    <rdf:RDF>
      <cc:Work
         rdf:about="">
        <dc:format>image/svg+xml</dc:format>
        <dc:type
           rdf:resource="http://purl.org/dc/dcmitype/StillImage" />
      </cc:Work>
    </rdf:RDF>
  </metadata>
  <defs
     id="defs884" />
  <sodipodi:namedview
     pagecolor="#ffffff"
     bordercolor="#666666"
     borderopacity="1"
     objecttolerance="10"
     gridtolerance="10"
     guidetolerance="10"
     inkscape:pageopacity="0"
     inkscape:pageshadow="2"
     inkscape:window-width="1215"
     inkscape:window-height="783"
     id="namedview882"
     showgrid="false"
     inkscape:zoom="0.60085564"
     inkscape:cx="195.04272"
     inkscape:cy="192"
     inkscape:window-x="0"
     inkscape:window-y="23"
     inkscape:window-maximized="0"
     inkscape:current-layer="svg880"
     inkscape:document-rotation="0" />
  <clipPath
     id="a">
    <path
       d="m939.66 716.711 237.06 237.059 95.71-95.711c-13.22-14.508-27.82-28-43.8-40.457-42.15-32.832-92.98-58.262-152.5-76.25-42.08-12.692-87.571-20.911-136.47-24.641m339.55 149.019-95.26 95.27 174.92 174.92c1.2-13.09 1.81-26.53 1.81-40.3 0-58.28-11.48-110.929-34.41-158.061-12.73-26.137-28.42-50.079-47.06-71.829m-658.71 828.74-115.754 129.54 206.074 206.08c19.403 5.75 39.504 10.73 60.313 14.95 45.859 9.3 92.988 13.94 141.347 13.94 43.282 0 83.946-3.78 122-11.34l-209.507-209.5c-33.676-6.01-64.95-17.33-93.821-33.94-45.273-26.04-82.148-62.62-110.652-109.73m-122.574 137.17-33.649 37.66c18.594 28.49 43.391 54.22 74.395 77.16 30.976 22.93 66.016 42.78 105.07 59.52 14.84 6.36 30.168 12.18 45.985 17.47z"
       id="path833" />
  </clipPath>
  <path
     d="M 301.18677,205.60108 123.4085,383.37836 8.7918797,268.76357 186.56978,90.984251 Z"
     fill="#ee2637"
     id="path836"
     style="stroke-width:1.85461;fill:#ff0000" />
  <path
     d="M 316.42427,190.34505 138.64526,368.1227 24.028645,253.50569 201.80729,75.730074 Z"
     fill="#fad008"
     id="path838"
     style="stroke-width:1.85461;fill:#ffcc00" />
  <path
     d="m 156.52485,350.24239 43.97864,-43.97673 0.009,0.009 -43.96548,43.96523 c -0.007,0 -0.0148,0.002 -0.0224,0.002 m -37.65218,-1.89152 c -7.36634,-1.40616 -14.25234,-3.44772 -20.655208,-6.12819 -13.451699,-5.64006 -24.548224,-13.85969 -33.283641,-24.66429 l 10.287914,-12.85987 z m 82.98098,-43.41682 -0.0111,-0.009 32.45018,-32.44995 c 0.002,0.007 0.002,0.0111 0.002,0.0185 z"
     fill="#ed1d24"
     id="path846"
     style="stroke-width:1.85461" />
  <path
     d="m 144.95243,350.67044 c -9.279,0 -17.97102,-0.77505 -26.07976,-2.31957 L 75.221735,304.69852 91.146747,284.79483 c 5.976864,7.58536 13.047583,13.44964 21.212143,17.58913 8.15901,4.13746 18.45211,6.20924 30.86931,6.20924 14.02329,0 24.77504,-2.75929 32.24914,-8.28121 3.76486,-2.77969 6.58202,-6.32014 8.45147,-10.62099 l 16.57468,16.57466 -43.97864,43.97673 c -3.7491,0.28543 -7.60744,0.42805 -11.57242,0.42805 m 56.89009,-45.74584 -17.15888,-17.15868 c 1.33532,-3.79083 2.00298,-8.11578 2.00298,-12.97672 0,-11.95297 -4.25634,-21.14998 -12.7616,-27.58919 -8.50896,-6.43736 -21.38388,-9.65882 -38.62975,-9.65882 h -0.83587 l -8.8211,-8.82053 v -25.66967 h 10.69092 c 14.02403,0 24.9466,-3.15841 32.76824,-9.48634 7.81349,-6.32237 11.72673,-14.42887 11.72673,-24.31766 0,-9.42514 -3.16397,-16.43742 -9.4845,-21.03686 -6.32701,-4.59758 -14.66053,-6.901 -25.00724,-6.901 -3.82811,0 -7.51341,0.31528 -11.05517,0.94956 l 38.85546,-38.85411 c 3.25299,0.64541 6.40213,1.43918 9.44926,2.38132 9.65883,2.99149 17.93597,7.12727 24.83513,12.41663 6.89731,5.2912 12.24416,11.67106 16.03685,19.13958 3.79454,7.47594 5.69366,15.81427 5.69366,25.00943 0,6.89545 -1.03673,13.44779 -3.10462,19.65703 -2.06975,6.20924 -5.06124,11.8454 -8.96892,16.90107 -3.91323,5.06123 -8.56831,9.31386 -13.96895,12.76158 -5.4062,3.44958 -11.32798,5.753 -17.76349,6.90101 14.48639,2.53154 26.15562,9.37135 35.00769,20.51942 7.44257,9.38247 11.75825,20.51014 12.94335,33.383 z m -70.06304,-67.38341 h -6.14118 v -6.14062 z"
     fill="#f89a0f"
     id="path848"
     style="stroke-width:1.85461;fill:#ff6600;fill-opacity:1" />
  <path
     d="m 314.8249,351.41466 c -11.85526,-0.60717 -22.64187,-4.08854 -32.3681,-10.41901 -9.73346,-6.32659 -17.95765,-14.92089 -24.68817,-25.75223 -6.72923,-10.85511 -11.76341,-23.55136 -15.10816,-38.11627 -1.87005,-8.12928 -3.071,-16.65245 -3.61002,-25.56475 l 31.70086,-34.80731 10.82136,14.75119 c -0.007,0.12654 -0.0133,0.24537 -0.0199,0.365 -0.56281,10.34801 -0.12424,19.82719 1.31438,28.4621 1.43949,8.61881 3.73983,16.13515 6.88889,22.51689 3.15632,6.37618 7.06238,11.388 11.74859,14.98935 4.68565,3.61153 9.99074,5.56518 15.9149,5.86859 5.17409,0.26499 10.03445,-0.87267 14.58073,-3.40621 l 27.09428,36.95794 c -3.58102,2.7132 -7.33792,5.07435 -11.27759,7.08312 -10.35893,5.30181 -21.36601,7.66703 -32.9921,7.0716 m 45.78204,-15.32681 -26.95817,-36.77137 c 4.84271,-3.11758 9.14189,-7.63851 12.9042,-13.55737 3.82384,-6.02462 6.92675,-13.26424 9.29319,-21.68813 2.36729,-8.43998 3.83166,-17.82171 4.39447,-28.16972 0.56193,-10.33188 0.12749,-19.88657 -1.30462,-28.6412 -1.43157,-8.76478 -3.72888,-16.33717 -6.87828,-22.71298 -3.14904,-6.38177 -7.014,-11.38127 -11.59542,-14.98745 -4.5751,-3.59565 -9.71975,-5.55472 -15.4286,-5.8471 -2.1599,-0.11062 -4.25551,0.004 -6.29411,0.35266 l 36.55239,-40.13583 c 1.47342,0.82365 2.9292,1.71621 4.36787,2.66744 9.71852,6.47307 17.95389,15.11736 24.67653,25.96531 6.73017,10.83812 11.77096,23.54151 15.11568,38.1064 3.34527,14.5547 4.55333,30.37378 3.62585,47.42665 -0.92803,17.06305 -3.84567,32.67678 -8.75066,46.79957 -4.90605,14.14235 -11.29647,26.25349 -19.16584,36.36093 -4.4473,5.70756 -9.29863,10.64881 -14.55448,14.83219 m -78.83798,-107.55065 -9.69915,-13.23138 15.47272,-16.98889 c -0.55768,1.6738 -1.09133,3.41865 -1.58548,5.20553 -2.11476,7.63837 -3.51541,15.97552 -4.18809,25.01474"
     fill="#f89a0f"
     id="path868"
     style="stroke-width:1.99761;fill:#ff6600" />
</svg>
