<svg enable-background="new 0 0 512 512" height="512" viewBox="0 0 512 512" width="512" xmlns="http://www.w3.org/2000/svg"><path d="m366.018 256c0 64.565-1.932 129.756-5.759 194.71-1.52 25.801-21.889 46.463-47.647 48.594-83.639 6.92-167.685 6.93-251.156.018-25.754-2.133-46.119-22.794-47.64-48.591-3.822-64.858-5.754-130.16-5.754-194.731s1.932-129.873 5.754-194.73c1.52-25.798 21.885-46.459 47.64-48.591 83.472-6.912 167.517-6.902 251.156.018 25.758 2.131 46.126 22.793 47.647 48.594 3.827 64.953 5.759 130.144 5.759 194.709z" fill="#617881"/><path d="m37.382 55.39c-3.3 66.82-4.97 134.09-4.97 200.61s1.67 133.79 4.97 200.61c.89 17.99 9.25 33.57 21.46 42.43-24.51-3.27-43.55-23.39-45.02-48.31-3.83-64.86-5.76-130.16-5.76-194.73s1.93-129.87 5.76-194.73c1.47-24.92 20.51-45.04 45.02-48.31-12.21 8.86-20.57 24.44-21.46 42.43z" fill="#404a4a"/><path d="m186.842 446.048c-40.885 0-82.238-1.485-122.91-4.415-10.863-.783-19.534-8.432-20.167-17.794-3.785-55.845-5.703-112.314-5.703-167.839 0-55.524 1.918-111.993 5.702-167.838.634-9.362 9.305-17.012 20.168-17.795 40.673-2.929 82.026-4.415 122.912-4.415 40.959 0 82.442 1.491 123.294 4.431 10.866.782 19.538 8.432 20.172 17.796 3.787 55.905 5.708 112.368 5.708 167.821s-1.92 111.916-5.708 167.821c-.634 9.364-9.306 17.014-20.172 17.796-40.853 2.94-82.336 4.431-123.296 4.431z" fill="#da4a54"/><path d="m102.967 305.096c-.048 0-.088 0-.135 0-11.613 0-21.023-9.418-21.023-21.023 0-11.613 9.41-21.031 21.023-21.031.151 0 .302 0 .453.008h167.51c.151-.008.302-.008.453-.008 11.613 0 21.023 9.418 21.023 21.031 0 11.605-9.41 21.023-21.023 21.023-.048 0-.087 0-.135 0" fill="#f1b986"/><path d="m279.293 264.939-124.249.532-61.699.259c-4.704-42.944-18.355-98.715 31.801-108.655 12.042-2.388 22.886-3.805 32.632-4.471 65.285-4.431 81.524 25.048 81.524 25.048s11.816-10.378 24.662-9.321c4.644.379 9.427 2.262 13.831 6.666 23.233 23.233 1.498 89.942 1.498 89.942z" fill="#617881"/><path d="m263.965 168.332c-15.262 10.485-25.248 41.86-29.871 59.743-4.524-18.216 1.005-38.267 5.209-50.422 0 0 11.815-10.378 24.662-9.321z" fill="#404a4a"/><path d="m148.165 219.187 6.879 46.284-61.699.259c-4.704-42.944-18.355-98.715 31.801-108.655 12.042-2.388 22.886-3.805 32.632-4.471 0 .007-.007.007-.007.007-25.114 15.449-17.356 42.965-9.606 66.576z" fill="#404a4a"/><path d="m271.25 285.629c0 9.633-.246 19.273-.738 28.907-1.231 24.083-20.504 43.257-44.601 44.395-16.845.798-33.697 1.071-50.542.832h-.007c-9.068-.126-18.129-.406-27.197-.832-24.09-1.138-43.364-20.311-44.601-44.395-.878-17.164-.971-34.322-.286-51.487h.007c9.394-3.479 14.982-14.297 18.302-26.325 3.406-12.341 15.228-19.087 26.578-17.537 4.424.605 8.782 2.475 12.534 5.761 7.538 6.6 16.938 9.899 26.339 9.899s18.808-3.3 26.345-9.899c4.67-4.092 10.265-5.981 15.774-5.981 10.279 0 20.251 6.586 23.338 17.757 3.313 12.028 8.902 22.846 18.302 26.325.307 7.531.453 15.056.453 22.58z" fill="#f1d0a5"/><path d="m175.362 359.762c-9.068-.126-18.129-.406-27.197-.832-24.09-1.138-43.364-20.311-44.601-44.395-.878-17.164-.971-34.322-.286-51.487h.007c9.394-3.479 14.982-14.297 18.302-26.325 3.406-12.341 15.228-19.087 26.578-17.537-8.615 76.928 0 139.731 27.197 140.576z" fill="#f1b986"/><path d="m503.935 81.99c0 28.38-15.87 53.05-39.22 65.62-10.5 5.66-22.51 8.87-35.27 8.87s-24.77-3.21-35.27-8.87c-23.35-12.57-39.22-37.24-39.22-65.62 0-41.14 33.35-74.49 74.49-74.49s74.49 33.35 74.49 74.49z" fill="#86f1a7"/><path d="m410.165 147.61c8.28 4.46 17.49 7.4 27.28 8.44-2.63.29-5.3.43-8 .43-12.76 0-24.77-3.21-35.27-8.87-23.35-12.57-39.22-37.24-39.22-65.62 0-41.14 33.35-74.49 74.49-74.49 2.7 0 5.37.14 8 .42-37.38 3.99-66.5 35.63-66.5 74.07 0 28.38 15.87 53.05 39.22 65.62z" fill="#66b49d"/><path d="m464.715 147.61c-10.5 5.66-22.51 8.87-35.27 8.87s-24.77-3.21-35.27-8.87c2.81-16.94 17.53-29.86 35.27-29.86s32.46 12.92 35.27 29.86z" fill="#fff"/><circle cx="429.446" cy="81.989" fill="#f1d0a5" r="35.763"/><path d="m429.446 46.227c-9.448 0-18.034 3.67-24.427 9.654 0 0 21.464 26.108 60.19 26.108 0-19.751-16.012-35.762-35.763-35.762z" fill="#404a4a"/><path d="m503.935 256c0 28.38-15.87 53.05-39.22 65.62-10.5 5.66-22.51 8.87-35.27 8.87s-24.77-3.21-35.27-8.87c-23.35-12.57-39.22-37.24-39.22-65.62 0-41.14 33.35-74.49 74.49-74.49s74.49 33.35 74.49 74.49z" fill="#f4dd45"/><path d="m410.165 321.62c8.28 4.46 17.49 7.4 27.28 8.44-2.63.29-5.3.43-8 .43-12.76 0-24.77-3.21-35.27-8.87-23.35-12.57-39.22-37.24-39.22-65.62 0-41.14 33.35-74.49 74.49-74.49 2.7 0 5.37.14 8 .42-37.38 3.99-66.5 35.63-66.5 74.07 0 28.38 15.87 53.05 39.22 65.62z" fill="#eab14d"/><path d="m464.715 321.62c-10.5 5.66-22.51 8.87-35.27 8.87s-24.77-3.21-35.27-8.87c2.81-16.94 17.53-29.86 35.27-29.86s32.46 12.92 35.27 29.86z" fill="#fff"/><circle cx="429.446" cy="255.999" fill="#f1d0a5" r="35.763"/><path d="m429.446 220.237c-9.448 0-18.034 3.67-24.427 9.654 0 0 21.464 26.108 60.19 26.108 0-19.751-16.012-35.762-35.763-35.762z" fill="#be694f"/><path d="m503.935 430.01c0 28.38-15.87 53.05-39.22 65.62-10.5 5.66-22.51 8.87-35.27 8.87s-24.77-3.21-35.27-8.87c-23.35-12.57-39.22-37.24-39.22-65.62 0-41.14 33.35-74.49 74.49-74.49s74.49 33.35 74.49 74.49z" fill="#6bbef6"/><path d="m410.165 495.63c8.28 4.46 17.49 7.4 27.28 8.44-2.63.29-5.3.43-8 .43-12.76 0-24.77-3.21-35.27-8.87-23.35-12.57-39.22-37.24-39.22-65.62 0-41.14 33.35-74.49 74.49-74.49 2.7 0 5.37.14 8 .42-37.38 3.99-66.5 35.63-66.5 74.07 0 28.38 15.87 53.05 39.22 65.62z" fill="#528ecb"/><path d="m464.715 495.63c-10.5 5.66-22.51 8.87-35.27 8.87s-24.77-3.21-35.27-8.87c2.81-16.94 17.53-29.86 35.27-29.86s32.46 12.92 35.27 29.86z" fill="#fff"/><circle cx="429.446" cy="430.009" fill="#f1d0a5" r="35.763"/><path d="m429.446 394.247c-9.448 0-18.034 3.67-24.427 9.654 0 0 21.464 26.108 60.19 26.108 0-19.751-16.012-35.762-35.763-35.762z" fill="#f4dd45"/><path d="m141.104 45.657h91.873c4.142 0 7.5-3.358 7.5-7.5s-3.358-7.5-7.5-7.5h-91.873c-4.142 0-7.5 3.358-7.5 7.5s3.357 7.5 7.5 7.5z"/><path d="m250.039 41.03c1.179 2.951 4.317 4.847 7.471 4.606 3.126-.239 5.843-2.457 6.671-5.481 1.756-6.409-5.37-11.803-11.058-8.439-3.166 1.873-4.488 5.921-3.084 9.314z"/><path d="m207.372 300.727c-3.741-1.776-8.215-.182-9.991 3.561-1.885 3.973-5.944 6.54-10.34 6.54s-8.455-2.567-10.341-6.541c-1.775-3.742-6.248-5.336-9.991-3.56-3.742 1.776-5.336 6.25-3.56 9.991 4.356 9.178 13.734 15.109 23.892 15.109s19.536-5.931 23.892-15.11c1.775-3.741.181-8.214-3.561-9.99z"/><path d="m148.089 263.505c-4.241 0-7.691 5.119-7.691 11.412s3.45 11.412 7.691 11.412 7.691-5.119 7.691-11.412-3.45-11.412-7.691-11.412z"/><path d="m225.992 263.505c-4.241 0-7.691 5.119-7.691 11.412s3.45 11.412 7.691 11.412 7.691-5.119 7.691-11.412-3.45-11.412-7.691-11.412z"/><path d="m84.096 251.868c.43 3.343.841 6.558 1.221 9.712-6.693 5.226-11.009 13.363-11.009 22.494 0 13.348 9.218 24.58 21.622 27.674.048 1.058.09 2.118.144 3.174 1.44 28.036 23.683 50.177 51.737 51.501 13.016.615 26.124.922 39.23.922s26.211-.307 39.224-.922c28.063-1.325 50.305-23.467 51.738-51.503.054-1.056.096-2.114.144-3.171 12.405-3.093 21.626-14.326 21.626-27.675 0-9.373-4.543-17.703-11.542-22.908 1.881-6.773 4.78-18.473 6.466-31.526 3.671-28.412-.229-48.58-11.594-59.944-13.959-13.96-31.422-9.048-42.459-2.274-11.242-11.477-42.877-32.374-116.954-17.699-22.871 4.531-36.779 18.357-41.337 41.095-3.722 18.558-.944 40.16 1.743 61.05zm5.213 32.205c0-4.56 2.273-8.593 5.738-11.045.146-.034.289-.073.432-.115-.165 7.474-.194 14.97-.068 22.453-3.671-2.421-6.102-6.576-6.102-11.293zm173.712 30.08c-1.038 20.297-17.144 36.326-37.465 37.286-25.556 1.208-51.475 1.208-77.038 0-20.315-.959-36.421-16.99-37.464-37.286-.786-15.363-.934-30.944-.441-46.379 8.156-5.039 14.266-14.783 18.203-29.057 1.536-5.568 5.748-9.88 11.269-11.535 5.575-1.671 11.288-.43 15.672 3.408 17.834 15.611 44.731 15.611 62.564 0 4.384-3.837 10.097-5.08 15.672-3.408 5.521 1.655 9.733 5.968 11.269 11.535 3.937 14.273 10.047 24.017 18.202 29.056.495 15.375.347 30.954-.443 46.38zm15.645-18.786c.128-7.558.099-15.115-.071-22.638 3.711 2.415 6.176 6.593 6.176 11.344 0 4.718-2.432 8.874-6.105 11.294zm-152.062-130.931c44.878-8.891 71.512-3.652 85.951 2.308 14.552 6.006 19.781 13.906 20.208 14.583 1.059 2.03 2.937 3.366 5.19 3.796 2.275.434 4.564-.308 6.302-1.835.679-.597 16.752-14.474 28.241-2.985 7.656 7.656 10.266 24.42 7.351 47.204-1.444 11.288-3.927 21.682-5.679 28.185-.58-.059-1.166-.095-1.756-.119-6.581-3.203-10.523-12.986-12.69-20.843-2.917-10.575-10.924-18.768-21.42-21.915-10.471-3.14-21.633-.713-29.861 6.49-12.202 10.681-30.603 10.68-42.804 0-8.228-7.202-19.39-9.628-29.86-6.489-10.496 3.147-18.504 11.34-21.42 21.915-2.167 7.858-6.109 17.641-12.692 20.843-.658.027-1.311.074-1.957.145-.243-1.93-.489-3.859-.734-5.763-6.065-47.152-7.418-78.578 27.63-85.52z"/><path d="m429.446 337.989c45.209 0 81.989-36.78 81.989-81.989s-36.78-81.989-81.989-81.989c-21.879 0-41.767 8.631-56.485 22.646-.342-18.915-.836-37.883-1.501-56.758 14.849 14.869 35.362 24.081 57.986 24.081 45.209 0 81.989-36.78 81.989-81.989s-36.78-81.991-81.989-81.991c-28.526 0-53.684 14.652-68.376 36.816-9.243-17.627-27.04-29.87-47.837-31.591-83.844-6.937-168.763-6.943-252.396-.019-29.35 2.427-52.784 26.34-54.509 55.623-3.824 64.931-5.763 130.596-5.763 195.171 0 64.574 1.939 130.24 5.763 195.171 1.725 29.283 25.159 53.196 54.508 55.623 41.782 3.459 83.87 5.188 125.999 5.188 42.2 0 84.441-1.736 126.399-5.208 20.795-1.721 38.592-13.963 47.836-31.59 14.692 22.165 39.85 36.816 68.375 36.816 45.209 0 81.99-36.781 81.99-81.99s-36.78-81.99-81.99-81.99c-1.274 0-2.437.026-3.554.078-4.138.195-7.333 3.708-7.138 7.845.195 4.138 3.703 7.329 7.845 7.138.88-.042 1.811-.062 2.847-.062 36.938 0 66.99 30.052 66.99 66.99 0 22.143-10.806 41.802-27.414 54.005-3.29-7.493-8.6-13.789-15.21-18.28 11.4-7.799 18.898-20.902 18.898-35.726 0-23.855-19.408-43.262-43.263-43.262s-43.262 19.407-43.262 43.262c0 14.824 7.498 27.927 18.897 35.726-6.611 4.491-11.921 10.787-15.211 18.28-16.608-12.203-27.414-31.862-27.414-54.005 0-25.792 15.078-49.578 38.413-60.598 3.746-1.769 5.348-6.239 3.579-9.985s-6.24-5.347-9.984-3.579c-8.682 4.1-16.423 9.652-23.003 16.271.665-18.881 1.159-37.855 1.502-56.777 14.715 14.017 34.604 22.648 56.483 22.648zm27.105 84.029c-19.24-2.166-32.759-11.136-39.897-17.197 3.844-1.96 8.189-3.073 12.792-3.073 12.808-.001 23.648 8.566 27.105 20.27zm-55.367 7.991c0-5.518 1.596-10.668 4.341-15.023 8.666 7.677 26.085 19.834 51.278 22.131-3.157 12.142-14.204 21.135-27.316 21.154-.014 0-.027-.001-.041-.001s-.027.001-.041.001c-15.565-.023-28.221-12.691-28.221-28.262zm28.221 43.262c.014 0 .027.001.041.001s.027-.001.041-.001c11.991.017 22.359 7.438 26.408 18.276-8.119 3.503-17.059 5.453-26.449 5.453s-18.33-1.95-26.449-5.453c4.048-10.839 14.416-18.259 26.408-18.276zm-81.591-224.772h-4.331c-.112-36.172-1.036-72.742-2.755-109.302l15.306-9.976c1.107 28.618 1.863 57.524 2.22 86.187-5.681 9.926-9.35 21.138-10.44 33.091zm0 15c1.09 11.953 4.759 23.165 10.44 33.09-.357 28.663-1.113 57.57-2.22 86.188l-15.306-9.976c1.719-36.559 2.643-73.13 2.755-109.303h4.331zm55.183 54.036c4.05-10.838 14.417-18.257 26.408-18.274.014 0 .027.001.041.001s.027-.001.041-.001c11.991.017 22.358 7.437 26.407 18.275-8.119 3.503-17.059 5.453-26.448 5.453-9.39 0-18.33-1.95-26.449-5.454zm-1.813-61.536c0-5.518 1.595-10.668 4.341-15.023 8.666 7.677 26.085 19.834 51.278 22.131-3.157 12.142-14.204 21.135-27.316 21.154-.014 0-.027-.001-.041-.001s-.027.001-.041.001c-15.565-.023-28.221-12.691-28.221-28.262zm15.469-25.189c3.844-1.96 8.189-3.074 12.792-3.074 12.809 0 23.648 8.568 27.105 20.271-19.24-2.165-32.759-11.135-39.897-17.197zm12.793-41.8c36.938 0 66.989 30.051 66.989 66.989 0 22.143-10.806 41.802-27.414 54.005-3.29-7.492-8.6-13.788-15.21-18.279 11.4-7.799 18.898-20.902 18.898-35.726 0-23.855-19.408-43.263-43.263-43.263s-43.262 19.407-43.262 43.263c0 14.824 7.498 27.927 18.897 35.726-6.61 4.491-11.92 10.786-15.21 18.279-16.608-12.203-27.413-31.862-27.413-54.005-.001-36.938 30.05-66.989 66.988-66.989zm-26.449-45.485c4.05-10.839 14.42-18.26 26.413-18.274.012 0 .024.001.036.001s.024-.001.036-.001c11.993.015 22.363 7.436 26.413 18.275-8.119 3.503-17.059 5.453-26.448 5.453-9.391 0-18.331-1.95-26.45-5.454zm-1.813-61.536c0-5.518 1.595-10.668 4.341-15.023 8.666 7.677 26.085 19.834 51.278 22.131-3.157 12.143-14.207 21.137-27.321 21.154-.012 0-.024-.001-.036-.001s-.024.001-.036.001c-15.568-.02-28.226-12.69-28.226-28.262zm15.469-25.189c3.844-1.96 8.189-3.074 12.792-3.074 12.809 0 23.648 8.568 27.105 20.271-19.24-2.165-32.759-11.135-39.897-17.197zm12.793-41.8c36.938 0 66.989 30.051 66.989 66.989 0 22.143-10.806 41.802-27.414 54.005-3.29-7.492-8.6-13.788-15.21-18.279 11.4-7.799 18.898-20.902 18.898-35.726 0-23.855-19.408-43.263-43.263-43.263s-43.262 19.407-43.262 43.263c0 14.824 7.498 27.927 18.897 35.726-6.61 4.491-11.92 10.786-15.211 18.279-16.608-12.203-27.413-31.862-27.413-54.005 0-36.938 30.051-66.989 66.989-66.989zm-117.449 476.826c-83.023 6.869-167.109 6.875-249.924.02-21.955-1.816-39.482-19.682-40.771-41.557-3.807-64.639-5.737-130.008-5.737-194.289 0-64.282 1.93-129.65 5.737-194.289 1.289-21.875 18.817-39.74 40.772-41.557 82.814-6.856 166.9-6.849 249.923.02 19.798 1.638 35.969 15.993 39.927 35.176-2.88 8.359-4.467 17.314-4.467 26.639 0 10.949 2.174 21.395 6.086 30.952l-13.688 8.921c-.615-11.41-1.287-22.814-2.057-34.194-.894-13.075-12.555-23.724-27.124-24.77-41.022-2.952-82.684-4.449-123.829-4.449-25.254 0-51.095.578-76.802 1.717-4.138.183-7.344 3.687-7.161 7.825s3.685 7.339 7.825 7.161c25.488-1.13 51.104-1.703 76.138-1.703 40.787 0 82.086 1.484 122.753 4.411 7.04.505 12.854 5.263 13.233 10.825.959 14.185 1.795 28.405 2.513 42.633l-15.723 10.247c-3.47 2.261-4.45 6.908-2.188 10.378 1.438 2.206 3.839 3.406 6.29 3.406 1.404 0 2.824-.394 4.088-1.218l8.342-5.437c1.453 33.393 2.226 66.764 2.329 99.803h-14.766c-4.142 0-7.5 3.358-7.5 7.5s3.358 7.5 7.5 7.5h14.766c-.103 33.039-.876 66.412-2.329 99.805l-8.342-5.437c-3.471-2.261-8.118-1.282-10.378 2.188-2.262 3.47-1.282 8.117 2.188 10.378l15.723 10.247c-.718 14.227-1.554 28.444-2.513 42.628-.38 5.568-6.194 10.325-13.236 10.83-40.664 2.927-81.964 4.411-122.751 4.411-40.669 0-81.84-1.481-122.374-4.401-7.041-.505-12.85-5.255-13.224-10.815-3.771-55.721-5.683-112.02-5.683-167.334s1.912-111.613 5.683-167.336c.374-5.558 6.183-10.308 13.232-10.813 5.417-.395 10.943-.766 16.427-1.104 4.135-.255 7.279-3.813 7.024-7.948-.255-4.134-3.817-7.276-7.948-7.024-5.539.342-11.122.717-16.585 1.115-14.579 1.046-26.237 11.694-27.116 24.764-3.792 56.059-5.715 112.699-5.715 168.349s1.923 112.29 5.717 168.344c.879 13.073 12.537 23.721 27.114 24.767 40.888 2.946 82.422 4.44 123.449 4.44 41.146 0 82.808-1.497 123.827-4.449 14.571-1.045 26.232-11.694 27.126-24.774.769-11.378 1.441-22.78 2.056-34.189l13.718 8.941c-3.965 9.676-6.117 20.16-6.117 30.932 0 9.326 1.587 18.283 4.468 26.642-3.958 19.18-20.13 33.534-39.926 35.172z"/></svg>