<svg enable-background="new 0 0 481.456 481.456" height="512" viewBox="0 0 481.456 481.456" width="512" xmlns="http://www.w3.org/2000/svg"><path d="m424.74 281.455h-368v-96l184-64 184 64z" fill="#52b788"/><path d="m240.74 281.455h-184v-96l184-64z" fill="#40916c"/><g fill="#ffea00"><path d="m240.74 7.639 22.248 45.08 49.752 7.224-36 35.096 8.496 49.552-44.496-23.4-44.496 23.4 8.496-49.552-36-35.096 49.752-7.224z"/><path d="m384.74 23.639 12.36 25.04 27.64 4.016-20 19.496 4.72 27.528-24.72-13-24.72 13 4.72-27.528-20-19.496 27.64-4.016z"/><path d="m48.74 63.639 12.36 25.04 27.64 4.016-20 19.496 4.72 27.528-24.72-13-24.72 13 4.72-27.528-20-19.496 27.64-4.016z"/><path d="m119.372 9.455 9.888 20.04 22.112 3.208-16 15.6 3.776 22.024-19.776-10.4-19.776 10.4 3.776-22.024-16-15.6 22.112-3.208z"/></g><path d="m56.74 409.455 184 64v-224l-184-64z" fill="#40916c"/><path d="m424.74 409.455-184 64v-224l184-64z" fill="#95d5b2"/><path d="m424.74 303.135-120 42.32c.026 31.814 25.786 57.609 57.6 57.68 6.224-.018 12.407-1.017 18.32-2.96l44.08-14.72v24l-184 64v-224l184-64z" fill="#52b788"/><path d="m472.74 257.455-184 72-48-80 184-64z" fill="#d8f3dc"/><path d="m8.74 257.455 184 72 48-80-184-64z" fill="#d8f3dc"/><path d="m240.74 425.455-184-64v-40l184 64z" fill="#c62828"/><path d="m240.74 425.455 184-64v-40l-184 64z" fill="#ef5350"/><path d="m331.3 393.935-90.56 31.52v-40l66.56-23.12c3.948 13.073 12.467 24.288 24 31.6z" fill="#e53935"/><g fill="#ffd000"><path d="m240.74 7.639-3.672 35.08c-1.858 17.575 10.884 33.329 28.459 35.186 6.065.641 12.187-.464 17.645-3.186l29.568-14.776-36 35.112 8.496 49.552-44.496-23.416-44.496 23.4 8.496-49.536-36-35.112 49.752-7.2z"/><path d="m384.74 23.639-1.6 22.04c-.652 8.813 5.964 16.485 14.777 17.136 2.69.199 5.387-.286 7.839-1.408l18.984-8.752-20 19.496 4.72 27.528-24.72-12.96-24.72 13 4.72-27.528-20-19.536 27.64-4z"/><path d="m48.74 63.639-1.6 25.488c-.561 8.819 6.133 16.423 14.951 16.984 3.4.216 6.78-.658 9.649-2.496l17-10.92-20 19.496 4.72 27.528-24.72-13-24.72 13 4.72-27.528-20-19.496 27.64-4z"/><path d="m119.372 9.455-1.752 12.584c-1.198 8.755 4.929 16.823 13.684 18.021 3.385.463 6.829-.169 9.828-1.805l10.24-5.6-16 15.6 3.776 22.024-19.776-10.4-19.776 10.4 3.776-22.024-16-15.6 22.112-3.2z"/></g><path d="m472.74 257.455-184 72-48-80 33.12-11.52c18.236 29.661 55.085 42.023 87.52 29.36l93.52-36.56z" fill="#95d5b2"/><path d="m208.1 303.855-15.36 25.6-184-72 48-72 25.04 8.72c-11.281 28.829 2.936 61.346 31.76 72.64z" fill="#95d5b2"/><g><path d="m356.14 74.983-4 23.384c-.746 4.355 2.179 8.49 6.534 9.236 1.734.297 3.517.014 5.074-.804l20.992-11.032 21 11.032c3.911 2.056 8.748.553 10.804-3.358.819-1.557 1.101-3.34.804-5.074l-4-23.384 16.992-16.552c3.165-3.083 3.232-8.148.149-11.313-1.229-1.261-2.839-2.082-4.581-2.335l-23.48-3.416-10.488-21.272c-2.343-3.963-7.455-5.277-11.418-2.934-1.21.715-2.219 1.724-2.934 2.934l-10.52 21.272-23.48 3.416c-4.374.627-7.41 4.681-6.783 9.055.251 1.747 1.072 3.362 2.335 4.593zm17.392-18.4c2.606-.378 4.859-2.015 6.024-4.376l5.184-10.496 5.184 10.512c1.165 2.361 3.418 3.998 6.024 4.376l11.6 1.688-8.408 8.176c-1.886 1.837-2.748 4.485-2.304 7.08l1.984 11.552-10.4-5.456c-2.331-1.216-5.109-1.216-7.44 0l-10.4 5.456 1.984-11.552c.444-2.595-.418-5.243-2.304-7.08l-8.328-8.208z"/><path d="m20.14 114.983-4 23.384c-.746 4.355 2.179 8.49 6.534 9.236 1.734.297 3.517.014 5.074-.804l20.992-11.032 21 11.032c3.911 2.056 8.748.553 10.804-3.358.819-1.557 1.101-3.34.804-5.074l-4-23.384 16.992-16.552c3.165-3.083 3.232-8.148.149-11.313-1.229-1.261-2.839-2.082-4.581-2.335l-23.48-3.416-10.488-21.272c-2.343-3.963-7.455-5.277-11.418-2.934-1.21.715-2.219 1.724-2.934 2.934l-10.52 21.272-23.48 3.416c-4.374.627-7.41 4.681-6.783 9.055.251 1.747 1.072 3.362 2.335 4.593zm17.392-18.4c2.606-.378 4.859-2.015 6.024-4.376l5.184-10.496 5.184 10.512c1.165 2.361 3.418 3.998 6.024 4.376l11.6 1.688-8.408 8.176c-1.886 1.837-2.748 4.485-2.304 7.08l1.984 11.552-10.4-5.456c-2.331-1.216-5.109-1.216-7.44 0l-10.4 5.456 1.984-11.552c.444-2.595-.418-5.243-2.304-7.08l-8.328-8.208z"/><path d="m94.772 51.095-3.064 17.88c-.746 4.355 2.179 8.49 6.534 9.236 1.734.297 3.517.014 5.074-.804l16.056-8.44 16.048 8.44c1.152.598 2.43.91 3.728.912 4.418.001 8.001-3.58 8.002-7.998 0-.451-.038-.901-.114-1.346l-3.096-17.88 12.984-12.656c3.166-3.082 3.234-8.147.151-11.313-1.227-1.26-2.835-2.081-4.575-2.335l-17.928-2.616-8-16.264c-2.338-3.961-7.444-5.277-11.405-2.939-1.212.716-2.224 1.727-2.939 2.939l-8 16.256-17.952 2.616c-4.372.635-7.402 4.694-6.767 9.067.253 1.743 1.074 3.353 2.335 4.581zm15.864-13.688c2.606-.378 4.859-2.015 6.024-4.376l2.712-5.504 2.712 5.504c1.165 2.361 3.418 3.998 6.024 4.376l6.072.888-4.392 4.272c-1.886 1.837-2.748 4.485-2.304 7.08l1.04 6.048-5.432-2.856c-2.334-1.217-5.114-1.217-7.448 0l-5.424 2.856 1.04-6.048c.442-2.597-.423-5.245-2.312-7.08l-4.392-4.272z"/><path d="m216.74 208.087v1.368c0 4.418 3.582 8 8 8s8-3.582 8-8v-1.368c.045-16.62-6.56-32.568-18.344-44.288-3.178-3.069-8.243-2.981-11.312.197-2.994 3.1-2.994 8.015 0 11.115 8.775 8.726 13.692 20.601 13.656 32.976z"/><circle cx="336.73999" cy="89.455002" r="8"/><circle cx="184.74001" cy="25.455" r="8"/><circle cx="296.73999" cy="25.455" r="8"/><circle cx="464.73999" cy="89.455002" r="8"/><circle cx="160.74001" cy="105.455" r="8"/><circle cx="24.74" cy="25.455" r="8"/><path d="m479.396 253.015-16.992-25.488c-2.45-3.678-7.418-4.674-11.096-2.224s-4.674 7.418-2.224 11.096l11.488 17.224-168.448 65.92-39.464-65.76 168.88-58.728 9.816 14.72c2.514 3.633 7.498 4.54 11.131 2.026 3.544-2.452 4.508-7.271 2.181-10.898l-13.248-19.88c-.962-1.44-2.366-2.53-4-3.104l-24.8-8.648 44.216-50.536c2.723-3.479 2.111-8.507-1.369-11.231-3.203-2.507-7.778-2.212-10.631.687l-48.488 55.408-8.616-2.944c7.846-11.36 12.956-24.383 14.928-38.048.627-4.374-2.41-8.429-6.784-9.056s-8.429 2.41-9.056 6.784c-1.896 12.692-7.09 24.665-15.064 34.72l-42.56-14.8 8.488-14.8c2.101-3.887.653-8.741-3.234-10.842-3.758-2.031-8.448-.752-10.654 2.906l-9.968 17.44-12.896-4.48-5.6-32.616 33.008-32.184c3.165-3.083 3.232-8.148.149-11.313-1.229-1.261-2.839-2.082-4.581-2.335l-45.6-6.624-20.368-41.312c-2.343-3.963-7.455-5.277-11.418-2.934-1.21.715-2.219 1.724-2.934 2.934l-22.272 45.08c-1.955 3.963-.327 8.761 3.636 10.716s8.761.327 10.716-3.636l15.072-30.544 15.072 30.544c1.163 2.364 3.417 4.004 6.024 4.384l33.712 4.896-24.408 23.768c-1.889 1.839-2.751 4.49-2.304 7.088l5.76 33.6-30.152-15.856c-2.329-1.223-5.111-1.223-7.44 0l-30.152 15.856 5.76-33.6c.447-2.598-.415-5.249-2.304-7.088l-24.376-23.768 5.952-.864c4.374-.636 7.404-4.698 6.768-9.072s-4.698-7.404-9.072-6.768l-21.992 3.2c-4.372.635-7.402 4.694-6.767 9.067.253 1.743 1.074 3.353 2.335 4.581l32.984 32.152-5.6 32.616-46.4 16.128c-10.088-17.346-15.402-37.054-15.4-57.12 0-4.418-3.582-8-8-8s-8 3.582-8 8c.045 21.831 5.609 43.297 16.176 62.4l-11.744 4.088-13.6-22.632c-2.207-3.828-7.099-5.141-10.927-2.934s-5.141 7.099-2.934 10.927c.048.083.098.166.149.248l11.856 19.76-47.6 16.6c-1.634.574-3.038 1.664-4 3.104l-48 72c-2.451 3.676-1.457 8.643 2.22 11.094.478.319.989.585 1.524.794l42.88 16.792v127.76c.001 3.403 2.155 6.432 5.368 7.552l63.432 22.048c4.126 1.58 8.752-.484 10.332-4.61s-.484-8.752-4.61-10.332c-.154-.059-.309-.113-.466-.162l-58.056-20.185v-31.064l168 58.44v31.064l-79.656-27.712c-4.169-1.463-8.735.731-10.198 4.9s.731 8.735 4.9 10.198c.014.005.028.01.042.015l90.28 31.4c1.704.598 3.56.598 5.264 0l184-64c3.213-1.12 5.367-4.149 5.368-7.552v-101.217c0-4.418-3.582-8-8-8s-8 3.582-8 8v7.528l-168 58.44v-95.872l33.144 55.24c1.446 2.407 4.048 3.879 6.856 3.88.994.001 1.979-.187 2.904-.552l184-72c4.115-1.609 6.147-6.249 4.538-10.364-.209-.535-.475-1.046-.794-1.524zm-365.512-71.44c2.344 3.745 7.28 4.882 11.025 2.538 3.65-2.284 4.838-7.048 2.687-10.778l-2.016-3.36 12.08-4.2c5.914 8.165 12.758 15.615 20.392 22.2l13.48 11.552c3.245 2.998 8.307 2.798 11.305-.447s2.798-8.307-.447-11.305c-.148-.136-.3-.267-.458-.392l-13.464-11.528c-5.44-4.711-10.42-9.929-14.872-15.584l35.416-12.32c1.776 3.988 6.448 5.781 10.436 4.005.175-.078.347-.162.516-.253l40.776-21.448 40.8 21.44c3.848 2.061 8.638.612 10.699-3.236.09-.169.175-.341.253-.516l3.288 1.144-13.984 24.368c-2.19 3.835-.858 8.72 2.976 10.912 1.203.707 2.572 1.082 3.968 1.088 2.867.009 5.519-1.517 6.952-4l15.44-27.016 38.304 13.32c-8.683 6.91-18.82 11.763-29.648 14.192l-16.8 3.728c-4.295 1.036-6.937 5.358-5.901 9.653.856 3.548 4.004 6.067 7.653 6.123.587-.001 1.171-.065 1.744-.192l16.8-3.728c16.429-3.694 31.484-11.942 43.44-23.8l10.16 3.528c-.105 2.357.856 4.637 2.616 6.208 3.323 2.911 8.376 2.578 11.288-.744l.416-.48 9.216 3.2-146.08 50.824c16.632-23.679 17.066-55.126 1.096-79.256-2.452-3.676-7.42-4.668-11.096-2.216s-4.668 7.42-2.216 11.096c12.503 18.867 11.999 43.508-1.264 61.848l-6.552 9.008c-.336.536-.605 1.111-.8 1.712l-152.416-53.008 29.056-10.104zm-19.2 118.096c4.157 1.496 8.74-.661 10.236-4.819 1.439-3.998-.499-8.423-4.412-10.077l-40.648-15.904-38.952-15.248 39.032-58.568 168.88 58.728-39.464 65.76-59.016-23.104c-4.082-1.691-8.762.248-10.452 4.33-1.691 4.082.248 8.762 4.33 10.452.096.04.193.078.29.114l65.352 25.6c.919.351 1.896.528 2.88.52 2.811.002 5.416-1.471 6.864-3.88l33.136-55.24v95.872l-168-58.4v-27.848zm-29.944 56.096v-23.064l168 58.44v23.064zm184 106.44v-31.064l168-58.4v31.064zm168-129.504v23.064l-168 58.44v-23.064z"/></g></svg>