<svg height="512" viewBox="0 0 64 64" width="512" xmlns="http://www.w3.org/2000/svg"><circle cx="32" cy="32" fill="#bce4f8" r="12"/><path d="m32 20a11.986 11.986 0 0 0 -9.733 19h11.733a6 6 0 0 0 6-6v-9.926a11.94 11.94 0 0 0 -8-3.074z" fill="#e4f5fd"/><circle cx="11" cy="11" fill="#2763bb" r="9"/><circle cx="11" cy="9" fill="#fddfb1" r="3"/><path d="m11 12a5 5 0 0 0 -5 5v1.482a8.994 8.994 0 0 0 10 0v-1.482a5 5 0 0 0 -5-5z" fill="#f3a845"/><path d="m14 15v-1.977a4.977 4.977 0 0 0 -8 3.977h6a2 2 0 0 0 2-2z" fill="#eecc61"/><circle cx="53" cy="11" fill="#2763bb" r="9"/><circle cx="53" cy="9" fill="#fddfb1" r="3"/><path d="m53 12a5 5 0 0 0 -5 5v1.482a8.994 8.994 0 0 0 10 0v-1.482a5 5 0 0 0 -5-5z" fill="#aa2b24"/><path d="m56 15v-1.977a4.977 4.977 0 0 0 -8 3.977h6a2 2 0 0 0 2-2z" fill="#d24034"/><circle cx="53" cy="53" fill="#2763bb" r="9"/><circle cx="53" cy="51" fill="#fddfb1" r="3"/><path d="m53 54a5 5 0 0 0 -5 5v1.482a8.994 8.994 0 0 0 10 0v-1.482a5 5 0 0 0 -5-5z" fill="#559b38"/><path d="m56 57v-1.977a4.977 4.977 0 0 0 -8 3.977h6a2 2 0 0 0 2-2z" fill="#6bc148"/><circle cx="11" cy="53" fill="#2763bb" r="9"/><circle cx="11" cy="51" fill="#fddfb1" r="3"/><path d="m11 54a5 5 0 0 0 -5 5v1.482a8.994 8.994 0 0 0 10 0v-1.482a5 5 0 0 0 -5-5z" fill="#686868"/><path d="m14 57v-1.977a4.977 4.977 0 0 0 -8 3.977h6a2 2 0 0 0 2-2z" fill="#939393"/><g fill="#3079e6"><circle cx="27" cy="32" r="2"/><circle cx="35" cy="27" r="2"/><circle cx="35" cy="37" r="2"/></g><path d="m53 43a9.949 9.949 0 0 0 -6.324 2.262l-4.815-4.815a12.935 12.935 0 0 0 0-16.894l4.815-4.815a10.016 10.016 0 1 0 -1.414-1.414l-4.815 4.815a12.935 12.935 0 0 0 -16.894 0l-4.815-4.815a10.016 10.016 0 1 0 -1.414 1.414l4.815 4.815a12.935 12.935 0 0 0 0 16.894l-4.815 4.815a10.016 10.016 0 1 0 1.414 1.414l4.815-4.815a12.935 12.935 0 0 0 16.894 0l4.815 4.815a9.994 9.994 0 1 0 7.738-3.676zm-4-25.082v-.918a4 4 0 0 1 8 0v.918a7.935 7.935 0 0 1 -8 0zm2-8.918a2 2 0 1 1 2 2 2 2 0 0 1 -2-2zm2-6a7.987 7.987 0 0 1 5.959 13.319 6.009 6.009 0 0 0 -3.066-4.572 4 4 0 1 0 -5.786 0 6.009 6.009 0 0 0 -3.066 4.572 7.987 7.987 0 0 1 5.959-13.319zm-50 8a8 8 0 1 1 13.959 5.319 6.009 6.009 0 0 0 -3.066-4.572 4 4 0 1 0 -5.786 0 6.009 6.009 0 0 0 -3.066 4.572 7.956 7.956 0 0 1 -2.041-5.319zm6-2a2 2 0 1 1 2 2 2 2 0 0 1 -2-2zm-2 8.918v-.918a4 4 0 0 1 8 0v.918a7.935 7.935 0 0 1 -8 0zm0 42v-.918a4 4 0 0 1 8 0v.918a7.935 7.935 0 0 1 -8 0zm2-8.918a2 2 0 1 1 2 2 2 2 0 0 1 -2-2zm7.959 7.319a6.009 6.009 0 0 0 -3.066-4.572 4 4 0 1 0 -5.786 0 6.009 6.009 0 0 0 -3.066 4.572 8 8 0 1 1 11.918 0zm15.041-15.319a11 11 0 1 1 11-11 11.013 11.013 0 0 1 -11 11zm17 16.918v-.918a4 4 0 0 1 8 0v.918a7.935 7.935 0 0 1 -8 0zm2-8.918a2 2 0 1 1 2 2 2 2 0 0 1 -2-2zm7.959 7.319a6.009 6.009 0 0 0 -3.066-4.572 4 4 0 1 0 -5.786 0 6.009 6.009 0 0 0 -3.066 4.572 8 8 0 1 1 11.918 0z"/><path d="m5.2 28.729 1.987.241c.08-.668.189-1.343.324-2l-1.959-.4c-.152.71-.269 1.439-.352 2.159z"/><path d="m5 32q0 .555.022 1.106l2-.082c-.015-.339-.022-.681-.022-1.024s.007-.673.02-1.007l-2-.078q-.02.539-.02 1.085z"/><path d="m6.074 24.435 1.92.56c.191-.652.408-1.3.648-1.925l-1.868-.715c-.258.675-.494 1.375-.7 2.08z"/><path d="m5.2 35.292c.089.729.207 1.456.353 2.164l1.959-.4c-.135-.656-.244-1.329-.327-2z"/><path d="m8.647 40.946c-.242-.633-.46-1.279-.648-1.923l-1.92.561c.2.7.439 1.395.7 2.079z"/><path d="m35.05 56.816.242 1.985c.729-.089 1.456-.207 2.164-.353l-.4-1.959c-.656.135-1.331.244-2.006.327z"/><path d="m39.023 56 .561 1.92c.7-.2 1.395-.439 2.079-.7l-.717-1.867c-.633.247-1.279.46-1.923.647z"/><path d="m22.355 57.226c.675.258 1.375.494 2.08.7l.56-1.92c-.652-.191-1.3-.408-1.925-.648z"/><path d="m30.993 56.98-.078 2q.539.02 1.085.02t1.106-.022l-.082-2c-.673.029-1.357.028-2.031.002z"/><path d="m26.565 58.453c.715.147 1.444.264 2.164.352l.241-1.987c-.668-.08-1.343-.189-2-.324z"/><path d="m55.353 23.054c.242.633.46 1.279.648 1.923l1.92-.561c-.2-.7-.439-1.395-.7-2.079z"/><path d="m58.8 28.708c-.089-.729-.207-1.456-.353-2.164l-1.959.4c.135.656.244 1.329.327 2z"/><path d="m57.926 39.565-1.92-.56c-.191.652-.408 1.3-.648 1.925l1.868.715c.258-.675.494-1.375.7-2.08z"/><path d="m58.805 35.271-1.987-.241c-.08.668-.189 1.343-.324 2l1.959.4c.147-.71.264-1.439.352-2.159z"/><path d="m59 32q0-.555-.022-1.106l-2 .082c.014.339.021.681.021 1.024s-.007.673-.02 1.007l2 .078q.021-.539.021-1.085z"/><path d="m37.435 5.547c-.715-.147-1.444-.264-2.164-.352l-.241 1.987c.668.08 1.343.189 2 .324z"/><path d="m41.645 6.774c-.675-.258-1.375-.494-2.08-.7l-.56 1.92c.652.191 1.3.408 1.925.648z"/><path d="m33.007 7.02.078-2c-.724-.029-1.462-.03-2.191 0l.082 2c.673-.028 1.357-.027 2.031 0z"/><path d="m24.977 8-.561-1.92c-.7.2-1.395.439-2.079.7l.717 1.867c.633-.247 1.279-.46 1.923-.647z"/><path d="m28.95 7.184-.242-1.984c-.729.089-1.456.207-2.164.353l.4 1.959c.656-.136 1.331-.245 2.006-.328z"/><path d="m35 30a3 3 0 1 0 -3-3 3.063 3.063 0 0 0 .041.409l-3.441 2.064a2.972 2.972 0 0 0 -1.6-.473 3 3 0 0 0 0 6 2.972 2.972 0 0 0 1.6-.473l3.439 2.064a3.063 3.063 0 0 0 -.039.409 3.022 3.022 0 1 0 .962-2.189l-3.126-1.876a2.747 2.747 0 0 0 0-1.87l3.126-1.876a2.982 2.982 0 0 0 2.038.811zm0-4a1 1 0 1 1 -1 1 1 1 0 0 1 1-1zm-9 6a1 1 0 1 1 1 1 1 1 0 0 1 -1-1zm9 4a1 1 0 1 1 -1 1 1 1 0 0 1 1-1z"/></svg>