<svg xmlns="http://www.w3.org/2000/svg" xmlns:xlink="http://www.w3.org/1999/xlink" width="312" height="437" viewBox="0 0 312 437"><defs><clipPath id="b"><rect width="312" height="437"/></clipPath></defs><g id="a" clip-path="url(#b)"><g transform="translate(7.961 4.5)"><g transform="translate(59.795 0)"><g transform="translate(0.484 0.483)"><path d="M116.711,194.15h.013a1.965,1.965,0,0,0,0-3.929H98.651a1.965,1.965,0,0,0,0,3.929h.013" transform="translate(-94.792 -178.442)" fill="#f1b986"/><path d="M144.667,104.618a88.621,88.621,0,0,0-17.143,0,60.769,60.769,0,0,0-.392,10.659,5.029,5.029,0,0,0,4.789,4.767q4.174.2,8.349,0a5.029,5.029,0,0,0,4.789-4.767A60.773,60.773,0,0,0,144.667,104.618Z" transform="translate(-123.2 -97.969)" fill="#f1d0a5"/><path d="M127.529,104.614q4.285-.416,8.572-.415a22.824,22.824,0,0,0-4.34.419q-.338,5.381-.2,10.761c.061,2.361.923,4.286,2.055,4.725q-.845-.023-1.691-.063a5.029,5.029,0,0,1-4.789-4.767,60.849,60.849,0,0,1,.392-10.66Z" transform="translate(-123.205 -97.965)" fill="#f1b986"/><path d="M145.472,350.686v3.77a1.528,1.528,0,0,1-1.528,1.528H127.436v-5.3c0-.052,0-.1,0-.156a5.269,5.269,0,0,1,3.43-4.78,5.057,5.057,0,0,0,1.412.271q4.174.2,8.349,0a5.039,5.039,0,0,0,1.412-.271h0a5.265,5.265,0,0,1,3.431,4.936Z" transform="translate(-123.559 -323.945)" fill="#9700fd"/><path d="M216.153,351.47a3.148,3.148,0,0,1,.648,3.726,7.266,7.266,0,0,1-3.378-1.62,7.267,7.267,0,0,1-3.378,1.62,3.148,3.148,0,0,1,.648-3.726" transform="translate(-200.52 -329.296)" fill="#1c00fd"/><path d="M74.6,205.054,71.2,206.1l-1.144-3.744-2.678-8.763a1.781,1.781,0,1,1,3.406-1.041l.032.1.695-.293a.285.285,0,0,1,.389.322l-.438,2.083,2.019,6.606Z" transform="translate(-67.296 -179.438)" fill="#f1d0a5"/><path d="M68.195,193.527l3.852,12.587-.84.257-3.823-12.507a1.78,1.78,0,0,1,1.183-2.224,1.763,1.763,0,0,1,.265-.059,1.78,1.78,0,0,0-.637,1.947Z" transform="translate(-67.305 -179.713)" fill="#f1b986"/><path d="M230.452,350.817c0,.014,0,.028,0,.042,0,1.163-1.222,2.106-2.729,2.106s-2.73-.943-2.73-2.106c0-.014,0-.028,0-.042" transform="translate(-214.829 -328.685)" fill="#f1b986"/><path d="M273.249,436.119v1.489h-2.778a2.62,2.62,0,0,0-2.62,2.62v.3h7.457A1.528,1.528,0,0,0,276.836,439v-2.88Z" transform="translate(-254.922 -408.488)" fill="#f1d0a5"/><path d="M114.617,351.366l-2.566.785-.841.257-.022-.072-1.122-3.672.843-.242,2.581-.741.117.381Z" transform="translate(-107.309 -325.751)" fill="#9700fd"/><path d="M111.186,363.25c0-.052,0-.1,0-.156l-1.122-3.672.843-.242.649,2.122.493,1.608h0a15.517,15.517,0,0,1,.874,5.638h-1.739Z" transform="translate(-107.309 -336.509)" fill="#1c00fd"/><path d="M351.588,435.824H353.1v1.508h-1.508Z" transform="translate(-333.261 -408.212)" fill="#f1b986"/><path d="M351.588,421.015H353.1v.955h-1.508Z" transform="translate(-333.261 -394.358)" fill="#1c00fd"/><path d="M270.47,459.21h1.213a2.62,2.62,0,0,0-2.62,2.62v.3H267.85v-.3A2.62,2.62,0,0,1,270.47,459.21Z" transform="translate(-254.921 -430.091)" fill="#f1b986"/><path d="M110.226,17.1c-3.285,1.269-7.95.709-10.3-1.642,0,0-.558,3.818-3.451,3.818l-1.261.424c-3.369-13.225,3.817-9.691,3.817-9.691a3.418,3.418,0,0,1,2.7-1.99c.091-.011.182-.02.273-.025h.022a5.992,5.992,0,0,1,2.118.319c.228.073.446.154.65.238a9.959,9.959,0,0,1,1.547.795l.025.017c.74-.979,1.445-1.864,2.221-1.864a.809.809,0,0,1,.686.317c.559.733.1,2.5.063,2.636l0,.006,0-.006,0-.01c.1-.25,1.21-2.942,3.2-2.942a1.557,1.557,0,0,1,.339.034c1.485.328.323,2.927.195,3.2l0,.008-.007.014c.063-.081,2.551-3.239,3.657-1.79v0C117.836,10.439,113.509,15.836,110.226,17.1Z" transform="translate(-92.571 -7.5)" fill="#665e66"/><g transform="translate(1.741 0)"><path d="M388.812,24.752h0c-.559-.558-2.495,2.077-3.658,1.792l.008-.016-.007.014C385.219,26.462,387.707,23.3,388.812,24.752Z" transform="translate(-366.405 -23.285)" fill="#454045"/><path d="M330.805,7.534c-.84-.191-1.618,1.408-2.058,2.542a.94.94,0,0,1-1.372.459l-.12-.074v0l0-.006h0l0-.01c.1-.25,1.21-2.942,3.2-2.942A1.557,1.557,0,0,1,330.805,7.534Z" transform="translate(-312.239 -7.5)" fill="#454045"/><path d="M101.725,15.6c-2.4.424-3.311,5.933-1.8,7.44,0,0-.558,3.818-3.451,3.818l-1.262.424c-3.369-13.225,3.817-9.692,3.817-9.692A3.418,3.418,0,0,1,101.725,15.6Z" transform="translate(-94.31 -15.074)" fill="#454045"/><path d="M248.133,7.817c-.845-.845-1.407,3.487-3.309,4.18s-2.079-.193-2.079-.193h0a6.889,6.889,0,0,0,2.481-2.439h0l.069-.091.088-.116c.684-.893,1.343-1.657,2.064-1.657A.809.809,0,0,1,248.133,7.817Z" transform="translate(-233.176 -7.5)" fill="#454045"/></g></g><path d="M235.686,253.84a.483.483,0,0,0-.644.23,1.551,1.551,0,0,1-2.8,0,.483.483,0,0,0-.874.415,2.518,2.518,0,0,0,4.55,0A.484.484,0,0,0,235.686,253.84Z" transform="translate(-220.262 -237.432)"/><path d="M190.618,191.159c-.45,0-.815.545-.815,1.215s.366,1.215.815,1.215.815-.545.815-1.215S191.068,191.159,190.618,191.159Z" transform="translate(-181.422 -178.836)"/><path d="M320.387,191.159c-.45,0-.815.545-.815,1.215s.366,1.215.815,1.215.815-.545.815-1.215S320.837,191.159,320.387,191.159Z" transform="translate(-302.826 -178.836)"/><path d="M82.631,11.816q-.1-2.18-.359-4.346a15.929,15.929,0,0,0,1.76-2.209c.74-1.139,1.476-2.689.779-3.6a1.372,1.372,0,0,0-1.114-.57,3.272,3.272,0,0,0-1.9.9A2.1,2.1,0,0,0,81.565.638,1.451,1.451,0,0,0,80.247,0,3.369,3.369,0,0,0,77.7,1.38,1.881,1.881,0,0,0,77.36.506,1.293,1.293,0,0,0,76.29,0c-.9,0-1.618.777-2.34,1.708a10.846,10.846,0,0,0-1.267-.62C72.46,1,72.229.913,72,.838A6.437,6.437,0,0,0,69.706.5h-.028c-.106.007-.205.016-.3.029a3.8,3.8,0,0,0-2.849,1.862,3.751,3.751,0,0,0-3.583.333C61.361,4,61.119,7.072,62.22,11.854a2.262,2.262,0,0,0-2.325,2.92l1.343,4.394a.483.483,0,0,0,.925-.283l-1.343-4.4a1.295,1.295,0,0,1,.861-1.619,1.3,1.3,0,0,1,1.621.862l.032.1a.484.484,0,0,0,.65.3L64.328,14l-.36,1.713a.484.484,0,0,0,.011.241l1.875,6.135-2.5.717-.632-2.069a.483.483,0,1,0-.925.283l1.876,6.138a.48.48,0,0,0-.005.072v5.3a.483.483,0,0,0,.483.483H80.664a2.014,2.014,0,0,0,2.012-2.011v-3.77A5.776,5.776,0,0,0,79.891,22.3a5.49,5.49,0,0,0,2.73-4.483q.03-.592.048-1.185a2.448,2.448,0,0,0-.037-4.816ZM73.7,32.039a2.139,2.139,0,0,1,2.128-1.952h2.778a.483.483,0,0,0,.483-.483V28.6h2.62v2.4a1.046,1.046,0,0,1-1.045,1.045Zm8.011-4.814v.406h-2.62v-.49a.483.483,0,0,0-.967,0v1.979H75.827a3.107,3.107,0,0,0-3.1,2.919H64.64V27.292l.005-.019a.483.483,0,0,0,0-.274l-1-3.274,2.5-.717.988,3.231a.483.483,0,0,0,.925-.283l-1.031-3.374q.2.089.411.161a5.54,5.54,0,0,0,1.547.3c.176.008.353.015.529.022a3.6,3.6,0,0,0-.13,3.557.484.484,0,0,0,.518.236,8.3,8.3,0,0,0,2.8-1.126V28.1a.483.483,0,1,0,.967,0V25.731a8.3,8.3,0,0,0,2.8,1.125.483.483,0,0,0,.518-.236,3.6,3.6,0,0,0-.13-3.557c.176-.007.353-.013.529-.022a5.531,5.531,0,0,0,1.373-.24,4.8,4.8,0,0,1,2.965,4.423ZM70.243,23.716a3.022,3.022,0,0,0,1.707,1.335,7.348,7.348,0,0,1-1.87.77A2.617,2.617,0,0,1,70.243,23.716Zm5.861,0a2.617,2.617,0,0,1,.163,2.1A7.372,7.372,0,0,1,74.4,25.05a3.02,3.02,0,0,0,1.7-1.334Zm-2.93.563h0a2.273,2.273,0,0,1-2.154-1.165q1.076.026,2.154.026t2.155-.026A2.272,2.272,0,0,1,73.174,24.279Zm8.481-6.512a4.529,4.529,0,0,1-3.04,4.06l-.013,0a4.559,4.559,0,0,1-1.277.245c-2.755.13-5.548.13-8.3,0a4.524,4.524,0,0,1-2.413-.83l-1.67-5.462.413-1.961a.766.766,0,0,0-.711-.925c0-.061,0-.121.005-.182a3.674,3.674,0,0,0,2.772-2.137,6.971,6.971,0,0,0,.5-1.241A9.576,9.576,0,0,0,72.362,11.1a11.542,11.542,0,0,0,5.745-.564,6.71,6.71,0,0,0,.657-.3.483.483,0,0,0-.444-.859,5.756,5.756,0,0,1-.561.254,10.711,10.711,0,0,1-5.256.509A8.063,8.063,0,0,1,67.973,8.1a.484.484,0,0,0-.82.272c0,.034-.526,3.4-2.974,3.4a.483.483,0,0,0-.483.465q-.006.147-.011.293a2.271,2.271,0,0,0-.385-.317c-1.447-5.878-.668-8,.248-8.744,1.136-.923,2.958-.054,2.975-.046a.483.483,0,0,0,.643-.212A2.934,2.934,0,0,1,69.5,1.485c.074-.009.15-.017.23-.022h.034a5.485,5.485,0,0,1,1.939.3c.208.067.415.143.616.225a9.9,9.9,0,0,1,1.044.5A5.358,5.358,0,0,1,71.42,4.334a.484.484,0,1,0,.335.907,6.716,6.716,0,0,0,2.589-2.454c.675-.9,1.373-1.821,1.947-1.821a.332.332,0,0,1,.3.126,3.462,3.462,0,0,1-.02,2.217.49.49,0,0,0-.019.134.484.484,0,0,0,.935.172c.029-.074,1.065-2.649,2.758-2.649.382,0,.469.138.5.19.258.406-.015,1.511-.407,2.358a.484.484,0,0,0,.77.568.488.488,0,0,0,.04-.045c.5-.648,1.786-1.983,2.538-1.983h0a.407.407,0,0,1,.35.19c.214.281.043,1.159-.821,2.49a15.9,15.9,0,0,1-3.364,3.642.483.483,0,1,0,.6.762c.317-.248.633-.518.943-.8a60.534,60.534,0,0,1,.259,9.432Zm1.037-2.14q.021-1.4-.022-2.808a1.481,1.481,0,0,1,.022,2.808Z" transform="translate(-59.795 0)"/></g></g><g transform="translate(139.5 131.5)"><g transform="translate(0)"><circle cx="17.958" cy="17.958" r="17.958" transform="translate(0.542 0.542)" fill="red"/><path d="M243.733,7.5q-.481,0-.956.025a17.958,17.958,0,0,1,0,35.865q.475.025.956.025a17.958,17.958,0,1,0,0-35.916Z" transform="translate(-225.233 -6.958)" fill="#aa0909"/><circle cx="13.994" cy="13.994" r="13.994" transform="translate(4.506 4.506)" fill="#f4fbff"/><path d="M241.227,62.357c-.388,0-.771.016-1.151.047a13.994,13.994,0,0,1,0,27.893c.38.031.763.047,1.151.047a13.994,13.994,0,1,0,0-27.987Z" transform="translate(-222.727 -57.851)" fill="#daf1f4"/><circle cx="1.447" cy="1.447" r="1.447" transform="translate(17.053 17.053)" fill="red"/><g transform="translate(0)"><path d="M249.042,97.828a.542.542,0,0,0,.542-.542v-.8a.542.542,0,0,0-1.084,0v.8A.542.542,0,0,0,249.042,97.828Z" transform="translate(-230.542 -89.015)"/><path d="M349.667,140.958a.542.542,0,0,0-.766,0l-.562.562a.542.542,0,0,0,.766.767l.563-.563A.542.542,0,0,0,349.667,140.958Z" transform="translate(-323.018 -130.624)"/><path d="M389.77,248.5a.542.542,0,0,0,0,1.084h.8a.542.542,0,1,0,0-1.084Z" transform="translate(-361.1 -230.543)"/><path d="M348.527,348.339a.542.542,0,1,0-.767.767l.562.562a.542.542,0,1,0,.767-.767Z" transform="translate(-322.482 -323.019)"/><path d="M247.683,389.771v.8a.542.542,0,0,0,1.084,0v-.8a.542.542,0,0,0-1.084,0Z" transform="translate(-229.784 -361.101)"/><path d="M140.942,347.761l-.563.562a.542.542,0,0,0,.766.767l.563-.562a.542.542,0,0,0-.766-.767Z" transform="translate(-130.087 -322.483)"/><path d="M96.49,247.684a.542.542,0,0,0,0,1.084h.8a.542.542,0,1,0,0-1.084Z" transform="translate(-89.014 -229.785)"/><path d="M142.286,140.943l-.563-.562a.542.542,0,1,0-.767.767l.563.562a.542.542,0,0,0,.767-.766Z" transform="translate(-130.624 -130.088)"/><path d="M191.4,154.918l3.861,1.985a.542.542,0,1,0,.5-.964l-3.859-1.984a1.988,1.988,0,0,0-1.407-2.306v-5.524a.542.542,0,0,0-1.084,0v5.524a2,2,0,0,0-1.371,1.371h-2.69a.542.542,0,0,0,0,1.084h2.69a1.987,1.987,0,0,0,3.365.814Zm-1.452-.452a.9.9,0,1,1,.9-.9A.906.906,0,0,1,189.949,154.466Z" transform="translate(-171.449 -135.061)"/><path d="M83.386,68.85a.542.542,0,0,0,.5-.582,14.536,14.536,0,1,0,0,2.25.542.542,0,1,0-1.081-.083,13.451,13.451,0,1,1,0-2.084A.541.541,0,0,0,83.386,68.85Z" transform="translate(-50.893 -50.893)"/><path d="M137.8,5.419a18.506,18.506,0,0,0-23.059-2.5.542.542,0,1,0,.585.912,17.413,17.413,0,1,1,4.335,31.339.542.542,0,0,0-.314,1.037A18.5,18.5,0,0,0,137.8,5.419Z" transform="translate(-106.215 0)"/><path d="M11.473,87.21A17.42,17.42,0,0,1,7.411,57.841a.542.542,0,0,0-.691-.835,18.5,18.5,0,0,0,4.315,31.2.542.542,0,0,0,.438-.992Z" transform="translate(0 -52.771)"/></g></g></g><line x2="50" transform="translate(176.5 273.5)" fill="none" stroke="#6400a7" stroke-width="4" stroke-dasharray="12 5"/><g transform="translate(122.053 239.198)"><g transform="translate(16 16)"><path d="M165.321,43.658l-.209,1.88-.141,1.267H147.238l-.141-1.267-.209-1.88a9.745,9.745,0,0,1,.728-4.914,9.754,9.754,0,0,0,.776-4.325l-.11-2.191a7.832,7.832,0,1,1,15.645,0l-.11,2.191a9.754,9.754,0,0,0,.776,4.325A9.74,9.74,0,0,1,165.321,43.658Z" transform="translate(-136.471 -23.371)" fill="#6e2f2f"/><path d="M250.435,43.652l-.209,1.88h-7.108V38.566l1.267-2.533V30.966a6.974,6.974,0,0,0-5.125-6.72,7.841,7.841,0,0,1,9.781,7.977l-.11,2.191a9.754,9.754,0,0,0,.776,4.325A9.74,9.74,0,0,1,250.435,43.652Z" transform="translate(-221.585 -23.366)" fill="#582020"/><path d="M215.853,221.067a.886.886,0,0,1-.887-.887V216H209.9v4.18a.886.886,0,0,1-.887.887H208v3.8h8.867v-3.8Z" transform="translate(-192.8 -200.167)" fill="#fec9a3"/><path d="M234.915,219.167a3.475,3.475,0,0,0,2.151-.776V216H232v2.39a3.475,3.475,0,0,0,2.151.777Z" transform="translate(-214.9 -200.167)" fill="#feb784"/><path d="M203.4,83.8v3.167a5.7,5.7,0,1,1-11.4,0V83.8a8.592,8.592,0,0,0,2.921-3.309l.245-.491.359.3a15.813,15.813,0,0,0,7.874,3.5Z" transform="translate(-178.067 -74.933)" fill="#fec9a3"/><path d="M282.366,121.269v3.167a5.7,5.7,0,0,1-4.611,5.6,6.941,6.941,0,0,0,2.078-4.963V120.69A15.794,15.794,0,0,0,282.366,121.269Z" transform="translate(-257.033 -112.402)" fill="#fec093"/><path d="M224,312h6.333v4.433H224Z" transform="translate(-207.533 -288.567)" fill="#fff"/><path d="M107.409,296.441a1.922,1.922,0,0,1-2.135-1.275l-4.183-7.848a4.932,4.932,0,0,1-.883,4.716V297.1h-11.4v-5.067a4.94,4.94,0,0,1-.874-4.775l-4.251,7.906a1.922,1.922,0,1,1-3.649-1.207l4.65-11.575A3.8,3.8,0,0,1,88.21,280h2.5l3.8,6.967,3.8-6.967H100.8a3.8,3.8,0,0,1,3.531,2.4l4.6,11.562a1.923,1.923,0,0,1-1.514,2.482Z" transform="translate(-74.874 -259.1)" fill="#4fa20f"/><path d="M74.157,389.938,74.614,384h3.8v6.1a2.132,2.132,0,1,1-4.257-.164Z" transform="translate(-69.547 -354.867)" fill="#fec9a3"/><path d="M29.923,266.87a1.232,1.232,0,0,0-.8,1.746l.58,1.159H27.43a3.8,3.8,0,0,1-1.7-.4l-.631-.316a.76.76,0,0,0-1.1.68v1.787a1.267,1.267,0,0,0,.7,1.133l1.031.515a3.8,3.8,0,0,0,1.7.4h4.8v-3.8l-.867-2.168a1.232,1.232,0,0,0-1.443-.737Z" transform="translate(-23.367 -246.975)" fill="#fec9a3"/><path d="M80,352h3.8v2.533H80Z" transform="translate(-74.933 -325.4)" fill="#fff"/><path d="M213.024,300.345a1.922,1.922,0,0,1-2.135-1.275l-4.183-7.848a4.932,4.932,0,0,1-.883,4.716V301H194.63c5.227-3.414,9.638-7.746,13.34-16.764a3.794,3.794,0,0,1,1.971,2.061l4.6,11.562a1.923,1.923,0,0,1-1.514,2.482Z" transform="translate(-180.488 -263.004)" fill="#418c06"/><path d="M302.333,346.133,296,344.867V336l6.333,1.267Z" transform="translate(-273.833 -310.667)" fill="#a36548"/><path d="M408,346.133l6.333-1.267V336L408,337.267Z" transform="translate(-376.967 -310.667)" fill="#6e2f2f"/><path d="M376,352h2.533v8.867H376Z" transform="translate(-347.5 -325.4)" fill="#95573a"/><path d="M303.6,315.167a2.243,2.243,0,0,0-1.874-2.212L296,312v1.9l6.333,1.267H303.6a2.243,2.243,0,0,1,1.874-2.212L311.2,312v1.9l-6.333,1.267Z" transform="translate(-273.833 -288.567)" fill="#d4bd81"/><path d="M435.271,419.741l-2.533.422a.633.633,0,0,1-.737-.625v-2.354a.824.824,0,0,1,.689-.813l2.151-.359a.824.824,0,0,1,.96.813v2.29A.633.633,0,0,1,435.271,419.741Z" transform="translate(-399.067 -384.335)" fill="#fec9a3"/><path d="M216.95,136a.95.95,0,1,0,.95.95A.95.95,0,0,0,216.95,136Z" transform="translate(-200.167 -126.5)"/><path d="M288.95,136a.95.95,0,1,0,.95.95A.95.95,0,0,0,288.95,136Z" transform="translate(-266.467 -126.5)"/><path d="M241.9,176.633a.634.634,0,0,1-.633-.633H240a1.9,1.9,0,1,0,3.8,0h-1.267A.634.634,0,0,1,241.9,176.633Z" transform="translate(-222.267 -163.333)"/></g></g><line x2="64" transform="translate(70.5 272.5)" fill="none" stroke="#4ea609" stroke-width="4" stroke-dasharray="12 5"/><g transform="translate(-17 -577)"><rect width="70" height="70" rx="35" transform="translate(40 633)" opacity="0.3"/><rect width="54" height="58" rx="27" transform="translate(48 639)" fill="#444"/><text transform="translate(70 679)" fill="#fff" font-size="26" font-family="SegoeUI-Semibold, Segoe UI" font-weight="600"><tspan x="0" y="0">1</tspan></text><text transform="translate(127 675)" fill="#444" font-size="18" font-family="Poppins-SemiBold, Poppins" font-weight="600"><tspan x="0" y="0" fill="#000">Choose </tspan><tspan y="0" fill="#444">Subject</tspan></text><text transform="translate(60 795)" fill="#6400a7" font-size="18" font-family="Poppins-SemiBold, Poppins" font-weight="600"><tspan x="0" y="0" fill="#000">Pick </tspan><tspan y="0" fill="#6400a7">Date &amp; Time</tspan></text><path d="M3962,1160c-65.41,7.54-61.817,61.9-61.817,61.9s.16,55.233,61.817,62.087" transform="translate(-3883 -557)" fill="none" stroke="#555" stroke-width="4" stroke-dasharray="12 5"/><line x2="63" y2="1" transform="translate(81.5 726.5)" fill="none" stroke="#555" stroke-width="4" stroke-dasharray="12 5"/><path d="M3962.005,1160c-65.415,7.54-61.822,61.907-61.822,61.907s.16,55.238,61.822,62.093" transform="translate(4206.148 2010.024) rotate(180)" fill="none" stroke="#6400a7" stroke-width="4" stroke-dasharray="12 5"/><rect width="70" height="70" rx="35" transform="translate(226 753)" fill="#6400a7" opacity="0.3"/><rect width="54" height="58" rx="27" transform="translate(234 759)" fill="#6400a7"/><text transform="translate(255.697 798.889)" fill="#fff" font-size="26" font-family="SegoeUI-Semibold, Segoe UI" font-weight="600"><tspan x="0" y="0">2</tspan></text><line x2="38" y2="1" transform="translate(203.5 725.5)" fill="none" stroke="#6400a7" stroke-width="4" stroke-dasharray="12 5"/><rect width="70" height="70" rx="35" transform="translate(40 877)" fill="#b10000" opacity="0.3"/><rect width="54" height="58" rx="27" transform="translate(48 883)" fill="#b10000"/><text transform="translate(69.697 922.889)" fill="#fff" font-size="26" font-family="SegoeUI-Semibold, Segoe UI" font-weight="600"><tspan x="0" y="0">3</tspan></text><path d="M3962.005,1160c-65.415,7.54-61.822,61.907-61.822,61.907s.16,55.238,61.822,62.093" transform="translate(-3879 -310)" fill="none" stroke="#b10000" stroke-width="4" stroke-dasharray="12 5"/><text transform="translate(131 905)" fill="#4ea609" font-size="18" font-family="Poppins-SemiBold, Poppins" font-weight="600"><tspan fill="#000"><tspan x="0" y="0">Connect with</tspan></tspan><tspan x="0" y="27">Teacher</tspan></text><path d="M53.776,38.95a.634.634,0,0,0-.513-.142l-5.726.954a2.882,2.882,0,0,0-1.061.4l-.436-1.1a4.218,4.218,0,0,0-.727-1.213l.165-1.5a10.973,10.973,0,0,0,.067-1.149,10.336,10.336,0,0,0-.843-4.081,9.148,9.148,0,0,1-.722-4.045l.108-2.192c.007-.138.013-.281.013-.423a8.466,8.466,0,1,0-16.922.423l.107,2.185c.006.163.012.317.012.47a9.029,9.029,0,0,1-.734,3.582,10.349,10.349,0,0,0-.776,5.234l.165,1.477a4.3,4.3,0,0,0-.5.725L24.587,36.4a1.865,1.865,0,1,0-3.4,1.527l.122.242H20.064a3.182,3.182,0,0,1-1.416-.334l-.631-.316A1.393,1.393,0,0,0,16,38.763V40.55a1.89,1.89,0,0,0,1.05,1.7l1.031.515a4.456,4.456,0,0,0,1.983.468h.37v1.876l-.455,5.914A2.765,2.765,0,0,0,22.735,54q.07,0,.14,0c.04,0,.081,0,.121,0a2.549,2.549,0,0,0,2.395-1.675l2.891-5.375a5.54,5.54,0,0,0,1.018,2.2V54h1.267V48.933a.633.633,0,0,0-.147-.405,4.318,4.318,0,0,1,.552-6.075l-.811-.973a5.583,5.583,0,0,0-.787.8.651.651,0,0,0-.065.079h0l-.011.02-.008.014a5.546,5.546,0,0,0-.823,1.539L25.5,49.448V41.753l.9-2.241a3.035,3.035,0,0,1,.667-1.022,3.205,3.205,0,0,1,2.272-.957h2.119l3.62,6.637a.633.633,0,0,0,1.112,0l1.344-2.464V50.2a.633.633,0,0,0,.509.621l2.658.532V54h1.267V51.606l2.423.484c.016,0,.089.01.11.01h1.2l.122.227A2.566,2.566,0,0,0,48.224,54a2.385,2.385,0,0,0,.417-.035,2.567,2.567,0,0,0,1.982-1.654l1.684-.281a1.261,1.261,0,0,0,1.056-1.185l.127-.025A.633.633,0,0,0,54,50.2V39.433a.633.633,0,0,0-.224-.483ZM32.828,37.4a1.521,1.521,0,0,0,.9-1.389V34.075a6.336,6.336,0,0,0,3.8,0v1.938a1.521,1.521,0,0,0,.9,1.389l-.762,1.4H33.591Zm2.8-4.3a5.072,5.072,0,0,1-5.067-5.067V25.2a9.252,9.252,0,0,0,2.741-3.138A16.405,16.405,0,0,0,40.7,25.407v2.627A5.072,5.072,0,0,1,35.633,33.1Zm8.559,5.4.012.012a2.935,2.935,0,0,1,.657,1.014l.272.687A2.881,2.881,0,0,0,44,39.763l-4.953-.826.766-1.4h2.113A3.138,3.138,0,0,1,44.192,38.5Zm.37,3.466-2.882-.576L38.8,40.814v-.633l4.988.831A1.6,1.6,0,0,1,45,41.967Zm3.182-.954,4.988-.831v.633l-2.979.6-2.784.557h-.442a1.6,1.6,0,0,1,1.216-.954Zm-29.1.62-1.031-.515a.63.63,0,0,1-.35-.567V38.763a.127.127,0,0,1,.183-.113l.631.316a4.456,4.456,0,0,0,1.983.468h2.27a.633.633,0,0,0,.566-.917l-.58-1.16a.6.6,0,1,1,1.091-.49l.822,2.055v3.045h-4.17a3.182,3.182,0,0,1-1.416-.334Zm5.586,1.6V44.5H21.7V43.233ZM21.241,51.12l.412-5.354h2.58v5.468a1.5,1.5,0,0,1-1.39,1.493.647.647,0,0,0-.071,0l-.037,0a1.5,1.5,0,0,1-1.494-1.613Zm8.069-8.757a.633.633,0,0,1,.04-.049l-.038.05Zm-2.19-5.5-.073-.651a9.08,9.08,0,0,1,.681-4.593,10.288,10.288,0,0,0,.837-4.082c0-.177-.007-.35-.013-.525l-.108-2.192a7.2,7.2,0,1,1,14.39-.361c0,.112-.006.233-.012.362l-.108,2.19a10.419,10.419,0,0,0,.823,4.607,9.077,9.077,0,0,1,.741,3.583,9.7,9.7,0,0,1-.06,1.013l-.072.653a4.429,4.429,0,0,0-2.225-.6H39.053a.257.257,0,0,1-.253-.253v-2.5a6.335,6.335,0,0,0,3.167-5.481V24.867a.633.633,0,0,0-.544-.627,15.142,15.142,0,0,1-7.558-3.36l-.36-.3a.633.633,0,0,0-.972.2l-.245.491a7.979,7.979,0,0,1-2.706,3.065.633.633,0,0,0-.282.527v3.167a6.335,6.335,0,0,0,3.167,5.481v2.5a.257.257,0,0,1-.253.253H29.338a4.462,4.462,0,0,0-2.218.6Zm8.513,5.679-1.351-2.477h2.7Zm3.167-.438,5.067,1.013v7.575L38.8,49.681Zm6.333,1.127H46.4v7.6H45.133Zm3.291,9.484a1.133,1.133,0,0,1-.2.016,1.3,1.3,0,0,1-1.116-.638l.036-.005.014,0h.005l1.3-.26a1.25,1.25,0,0,0,.638.555A1.32,1.32,0,0,1,48.424,52.717ZM52.1,50.782l-2.533.422V48.85a.191.191,0,0,1,.16-.188l2.151-.359.032,0a.191.191,0,0,1,.19.191v2.29Zm-.431-3.728-2.151.358A1.453,1.453,0,0,0,48.3,48.85v1.718l-.633.127V43.119l5.067-1.013V47.29a1.454,1.454,0,0,0-1.064-.236Z" transform="translate(139.053 816.198)"/><g transform="translate(245.004 947.109)"><g transform="translate(21.826 0.784)"><path d="M233.187,363.056h-9.693a6.8,6.8,0,0,0-6.8,6.8v4.866a1.973,1.973,0,0,0,1.973,1.973H238.01a1.973,1.973,0,0,0,1.973-1.973v-4.866A6.8,6.8,0,0,0,233.187,363.056Z" transform="translate(-204.456 -328.696)" fill="#80b4fb"/><path d="M218.814,369.856v4.866a1.973,1.973,0,0,0,1.973,1.972h-2.115a1.972,1.972,0,0,1-1.973-1.972v-4.866a6.8,6.8,0,0,1,6.8-6.794h2.115A6.794,6.794,0,0,0,218.814,369.856Z" transform="translate(-204.456 -328.701)" fill="#5490f9"/><path d="M295.747,372.343a4.064,4.064,0,0,1,.837,4.809,9.38,9.38,0,0,1-4.36-2.091,9.379,9.379,0,0,1-4.36,2.091,4.064,4.064,0,0,1,.837-4.809" transform="translate(-268.327 -337.084)" fill="#5490f9"/><path d="M307.61,371.781c0,.018,0,.036,0,.054,0,1.5-1.577,2.718-3.523,2.718s-3.523-1.217-3.523-2.718c0-.018,0-.036,0-.054" transform="translate(-280.204 -336.576)" fill="#f1b986"/><path d="M221.329,445.11v1.922h3.587a3.382,3.382,0,0,1,3.382,3.382v.387h-9.626a1.973,1.973,0,0,1-1.973-1.973V445.11h4.63Z" transform="translate(-204.456 -402.807)" fill="#f1d0a5"/><path d="M218.666,450.8h2.115a1.973,1.973,0,0,1-1.967-1.972v-3.718H216.7v3.718A1.972,1.972,0,0,0,218.666,450.8Z" transform="translate(-204.456 -402.809)" fill="#f1b986"/><path d="M344.373,445.11v1.922h-3.587a3.382,3.382,0,0,0-3.382,3.382v.387h9.626A1.973,1.973,0,0,0,349,448.828V445.11h-4.63Z" transform="translate(-313.478 -402.807)" fill="#f1d0a5"/><path d="M409.39,444.858h1.946V446.8H409.39Z" transform="translate(-378.494 -402.579)" fill="#f1b986"/><path d="M409.39,432.127h1.946v1.232H409.39Z" transform="translate(-378.494 -391.081)" fill="#5490f9"/><path d="M340.787,464.961h1.566a3.382,3.382,0,0,0-3.382,3.382v.387h-1.566v-.387A3.382,3.382,0,0,1,340.787,464.961Z" transform="translate(-313.478 -420.736)" fill="#f1b986"/><path d="M216.114,238.8h.016a2.536,2.536,0,0,0,0-5.072H192.8a2.536,2.536,0,0,0,0,5.072h.016" transform="translate(-180.581 -211.885)" fill="#f1b986"/><path d="M239.106,160.316a114.4,114.4,0,0,0-22.13,0,78.452,78.452,0,0,0-.506,13.76,6.491,6.491,0,0,0,6.182,6.154q5.388.254,10.777,0a6.491,6.491,0,0,0,6.182-6.154A78.431,78.431,0,0,0,239.106,160.316Z" transform="translate(-204.157 -145.097)" fill="#f1d0a5"/><path d="M216.982,160.313q5.532-.536,11.065-.536a29.459,29.459,0,0,0-5.6.541q-.436,6.946-.256,13.891c.078,3.047,1.192,5.532,2.653,6.1q-1.091-.03-2.183-.081a6.492,6.492,0,0,1-6.182-6.154A78.555,78.555,0,0,1,216.982,160.313Z" transform="translate(-204.162 -145.095)" fill="#f1b986"/><path d="M208.765,89.046c-4.24,1.638-10.263.916-13.3-2.12,0,0-.721,4.928-4.455,4.928l-1.628.548c-4.349-17.072,4.927-12.511,4.927-12.511a4.413,4.413,0,0,1,3.484-2.57q.176-.022.353-.033h.028a7.735,7.735,0,0,1,2.734.412c.294.095.576.2.84.307a12.857,12.857,0,0,1,2,1.026l.032.022c.955-1.263,1.865-2.406,2.867-2.406a1.044,1.044,0,0,1,.885.409c.722.947.129,3.224.081,3.4l0,.008,0-.008.005-.013c.128-.323,1.563-3.8,4.135-3.8a2.012,2.012,0,0,1,.438.044c1.918.424.417,3.778.251,4.133l0,.01-.009.018c.082-.1,3.293-4.181,4.72-2.311v0C218.589,80.442,213,87.408,208.765,89.046Z" transform="translate(-178.737 -70.013)" fill="#665e66"/><g transform="translate(9.486 6.635)"><path d="M442.967,91.644h0c-.721-.721-3.221,2.682-4.722,2.313l.011-.02-.009.018C438.329,93.851,441.54,89.774,442.967,91.644Z" transform="translate(-414.042 -89.75)" fill="#454045"/><path d="M393.055,76.693c-1.084-.246-2.089,1.817-2.656,3.282a1.213,1.213,0,0,1-1.771.592l-.155-.1v0l0-.008h0l.005-.013c.128-.323,1.563-3.8,4.135-3.8A2.011,2.011,0,0,1,393.055,76.693Z" transform="translate(-369.088 -76.649)" fill="#454045"/><path d="M197.793,83.609c-3.1.547-4.274,7.658-2.328,9.6,0,0-.721,4.928-4.455,4.928l-1.629.548c-4.349-17.072,4.927-12.511,4.927-12.511A4.413,4.413,0,0,1,197.793,83.609Z" transform="translate(-188.22 -82.935)" fill="#454045"/><path d="M322.779,77.057c-1.09-1.09-1.817,4.5-4.271,5.4s-2.684-.249-2.684-.249h0c1.208-.447,2.228-1.86,3.2-3.149h0l.089-.118c.037-.05.075-.1.113-.149.882-1.153,1.734-2.139,2.664-2.139a1.044,1.044,0,0,1,.885.409Z" transform="translate(-303.472 -76.648)" fill="#454045"/></g><path d="M290.782,83.259h0Z" transform="translate(-271.341 -75.983)" fill="#ecc32e"/><path d="M104.49,15.237a7.127,7.127,0,0,1-3.336,6.04H93.561a7.135,7.135,0,0,1,5.342-13l.154.035A7.135,7.135,0,0,1,104.49,15.237Z" transform="translate(-90.225 -8.104)" fill="#f4dd45"/><path d="M96.957,21.278h-3.4a7.134,7.134,0,0,1,5.342-13c.052.011.1.022.154.036a7.135,7.135,0,0,0-2.1,12.969Z" transform="translate(-90.225 -8.104)" fill="#eab14d"/><path d="M123.037,144.394a1.87,1.87,0,0,1-1.87,1.87H115.1a1.87,1.87,0,1,1,0-3.74h6.072A1.87,1.87,0,0,1,123.037,144.394Z" transform="translate(-110.999 -129.512)" fill="#dfeaef"/><path d="M118.327,146.263h-3.233a1.87,1.87,0,0,1,0-3.74h3.233a1.87,1.87,0,1,0,0,3.74Z" transform="translate(-110.998 -129.511)" fill="#b4d0d5"/><path d="M133.86,183.033a1.87,1.87,0,0,1-1.87,1.87h-3.473a1.87,1.87,0,1,1,0-3.74h3.473A1.87,1.87,0,0,1,133.86,183.033Z" transform="translate(-123.12 -164.411)" fill="#dfeaef"/><path d="M130.806,184.9h-2.29a1.87,1.87,0,0,1,0-3.74h2.29a1.87,1.87,0,0,0,0,3.74Z" transform="translate(-123.119 -164.41)" fill="#b4d0d5"/></g><g transform="translate(14.496 0)"><path d="M310.861,287.466a.728.728,0,0,0-.969.346,1.9,1.9,0,0,1-3.442,0,.728.728,0,1,0-1.315.624,3.36,3.36,0,0,0,6.071,0A.728.728,0,0,0,310.861,287.466Z" transform="translate(-276.937 -259.576)"/><path d="M271.369,234.446c-.584,0-1.058.707-1.058,1.575s.475,1.575,1.058,1.575,1.058-.707,1.058-1.575S271.953,234.446,271.369,234.446Z" transform="translate(-245.548 -211.751)"/><path d="M383.189,234.446c-.583,0-1.058.707-1.058,1.575s.475,1.575,1.058,1.575,1.058-.707,1.058-1.575S383.773,234.446,383.189,234.446Z" transform="translate(-346.543 -211.751)"/><path d="M122.35,11.093a2.482,2.482,0,0,0-.226-2.256,1.874,1.874,0,0,0-1.521-.778h-.01a4.066,4.066,0,0,0-2.329,1.025,2.605,2.605,0,0,0-.329-1.552,1.972,1.972,0,0,0-1.8-.881A4.358,4.358,0,0,0,112.9,8.314a2.417,2.417,0,0,0-.416-.965,1.771,1.771,0,0,0-1.468-.7c-1.186,0-2.123.986-3.055,2.181a14.2,14.2,0,0,0-1.576-.765c-.3-.122-.6-.232-.893-.327a8.417,8.417,0,0,0-3-.447l-.024,0h-.007c-.134.008-.269.02-.4.037a5.005,5.005,0,0,0-3.716,2.389c-.134-.046-.287-.094-.453-.139a7.956,7.956,0,0,0,.184-1.7A7.858,7.858,0,0,0,92.06.222L91.9.186a7.893,7.893,0,0,0-5.689.894.728.728,0,0,0,.737,1.255,6.437,6.437,0,0,1,4.634-.729l.143.032a6.424,6.424,0,0,1,2.17,11.489,2.6,2.6,0,0,0-.657-.084H90.921V10.972A2.816,2.816,0,0,0,93,8.257a.728.728,0,0,0-1.456,0,1.356,1.356,0,1,1-2.712,0,.728.728,0,0,0-1.456,0,2.816,2.816,0,0,0,2.083,2.715v2.071H87.15a2.619,2.619,0,0,0-.658.084,6.423,6.423,0,0,1-1.43-9.112A.728.728,0,0,0,83.9,3.138a7.881,7.881,0,0,0,1.274,10.814,2.6,2.6,0,0,0,1.036,4.12A2.6,2.6,0,0,0,88.452,22h3.482a2.612,2.612,0,0,0,.727-.1q.115.511.245,1.037A3.267,3.267,0,0,0,94.6,28.358q.024.729.06,1.454a7.211,7.211,0,0,0,3.435,5.8,7.576,7.576,0,0,0-3.507,6.368v4.879s0,0,0,0a2.708,2.708,0,0,0,2.7,2.7h19.384a2.708,2.708,0,0,0,2.7-2.7V41.98a7.542,7.542,0,0,0-.267-1.993.728.728,0,0,0-1.4.385,6.086,6.086,0,0,1,.215,1.608V42.4H114.74v-.532a.728.728,0,0,0-1.456,0V44.33h-2.867a4.1,4.1,0,0,0-2.7,1.017V40.231a10.872,10.872,0,0,0,3.5,1.373.727.727,0,0,0,.78-.355,4.77,4.77,0,0,0-.083-4.558c.171-.007.343-.013.514-.021a7.321,7.321,0,0,0,1.769-.3,6.1,6.1,0,0,1,2.32,1.711.728.728,0,1,0,1.116-.934,7.568,7.568,0,0,0-1.749-1.532,7.212,7.212,0,0,0,3.435-5.8q.037-.726.06-1.454a3.27,3.27,0,0,0-.05-6.4q-.132-2.756-.456-5.5a15.085,15.085,0,0,0,3.486-5.366Zm-24.907-.123a5.4,5.4,0,0,1,.891.313.727.727,0,0,0,.968-.319,3.7,3.7,0,0,1,2.935-2.187c.1-.012.2-.021.3-.027l.047,0a7,7,0,0,1,2.465.38c.259.083.525.181.789.288a12.688,12.688,0,0,1,1.236.588,6.618,6.618,0,0,1-2.392,2.264.728.728,0,0,0,.5,1.365c1.352-.5,2.39-1.876,3.395-3.208.819-1.086,1.746-2.316,2.438-2.316.2,0,.264.063.309.123.362.475.187,1.943-.045,2.786a.728.728,0,0,0,1.382.452c.013-.034,1.331-3.36,3.473-3.36.439,0,.534.151.565.2.341.541-.124,2.095-.545,2.974a.728.728,0,0,0,1.23.763,13.258,13.258,0,0,1,1.221-1.325c1.158-1.09,1.774-1.206,1.988-1.2a.426.426,0,0,1,.371.205,1.3,1.3,0,0,1-.017.978c-.72,2.548-4.841,7.182-8.07,8.43-4.212,1.628-9.844.748-12.552-1.961a.728.728,0,0,0-1.235.409,7.9,7.9,0,0,1-.754,2.237,3.333,3.333,0,0,1-2.993,2.081h-.055a3.255,3.255,0,0,0-1.094.189q-.127-.537-.237-1.055a2.6,2.6,0,0,0,.214-2.954,2.6,2.6,0,0,0,1.036-4.12,7.827,7.827,0,0,0,2.233-2.983Zm-11.1,3.865a1.14,1.14,0,0,1,.811-.336h6.086a1.147,1.147,0,1,1,0,2.294H87.15a1.147,1.147,0,0,1-.811-1.958Zm2.113,5.707a1.147,1.147,0,1,1,0-2.294h3.482a1.147,1.147,0,1,1,0,2.294Zm5.026,4.622a1.818,1.818,0,0,1,1.11-1.673c-.032,1.108-.039,2.222-.024,3.333A1.816,1.816,0,0,1,93.478,25.163Zm6.3,11.2a7.316,7.316,0,0,0,1.769.3c.171.008.343.014.515.021a4.77,4.77,0,0,0-.083,4.558.728.728,0,0,0,.78.355,10.869,10.869,0,0,0,3.5-1.373v5.116a4.1,4.1,0,0,0-2.705-1.017h-2.867V41.871a.728.728,0,1,0-1.456,0V42.4H96.043V41.98a6.11,6.11,0,0,1,3.736-5.613Zm3.422,1.287a4.017,4.017,0,0,0,1.953,1.533,9.454,9.454,0,0,1-2.1.852A3.3,3.3,0,0,1,103.2,37.654Zm3.783.413a2.98,2.98,0,0,1-2.62-1.3q1.308.029,2.619.03t2.62-.03A2.979,2.979,0,0,1,106.985,38.067Zm-9.692,10.04a1.251,1.251,0,0,1-1.249-1.249v-3h3.186v1.2a.728.728,0,0,0,.728.728h3.6a2.666,2.666,0,0,1,2.64,2.322Zm13.125-2.322h3.6a.728.728,0,0,0,.728-.728v-1.2h3.185v3a1.251,1.251,0,0,1-1.249,1.246h-8.9A2.666,2.666,0,0,1,110.417,45.785Zm.651-6.563a3.614,3.614,0,0,1-.151.817,9.461,9.461,0,0,1-2.1-.852,4.014,4.014,0,0,0,1.956-1.538A3.126,3.126,0,0,1,111.068,39.222Zm6.788-9.484a5.764,5.764,0,0,1-5.505,5.479c-3.561.168-7.173.168-10.734,0a5.763,5.763,0,0,1-5.5-5.479c-.11-2.134-.13-4.3-.062-6.441a4.869,4.869,0,0,0,3.577-2.807,9.025,9.025,0,0,0,.61-1.484,12.586,12.586,0,0,0,5.681,2.215,15.038,15.038,0,0,0,7.486-.735,14.169,14.169,0,0,0,4.139-2.728A78.155,78.155,0,0,1,117.856,29.737Zm2.635-4.574a1.816,1.816,0,0,1-1.086,1.66q.022-1.665-.026-3.334A1.818,1.818,0,0,1,120.491,25.163Z" transform="translate(-75.751 0)"/><path d="M38.052,98.48l-2.064,2.064a.728.728,0,1,0,1.029,1.029l2.064-2.064a.728.728,0,1,0-1.029-1.029Z" transform="translate(-33.715 -88.754)"/><path d="M38.05,20.121a.728.728,0,0,0,1.029-1.029l-2.063-2.063a.728.728,0,0,0-1.029,1.029Z" transform="translate(-33.714 -15.188)"/><path d="M18.869,68.924a.728.728,0,0,0-.728-.728h-2.89a.728.728,0,1,0-.027,1.455h2.917A.728.728,0,0,0,18.869,68.924Z" transform="translate(-14.496 -61.595)"/></g></g><line x2="170" y2="1" transform="translate(86.5 974.5)" fill="none" stroke="#b10000" stroke-width="4" stroke-dasharray="12 5"/></g></g></svg>