<svg height="512" viewBox="0 0 512 512" width="512" xmlns="http://www.w3.org/2000/svg"><g id="Flat"><rect fill="#a87c50" height="16" rx="8" width="464" x="24" y="472"/><path d="m375.78 327.06982h-31.78v-55.06982h-58.49c-.5.00977-1 .00977-1.51 0a36 36 0 1 1 16.4-68.06006c11.27-9.65994 34.92-24.61987 55.6-3.93994 20.5-6.87988 28 24 36 48 23.76 63.37012-23.07 48.31006-16.22 79.06982z" fill="#f57a08"/><path d="m348 323.07031v-55.07031h-62.49023c-.30225.00488-.52588.00781-.75147.00781s-.45264-.00293-.68164-.00683a32.00054 32.00054 0 1 1 -.07666-64.00098 31.67656 31.67656 0 0 1 14.57666 3.5l2.38867 1.22266 2.0376-1.7461c5.82519-4.99218 17.43408-13.36816 29.73486-13.36816 7.44092 0 14.31592 3.10254 20.4336 9.21972l1.75244 1.752 2.34863-.78809a13.67666 13.67666 0 0 1 4.31787-.76855c11.68506 0 18.36865 20.7373 24.26563 39.0332.78662 2.44043 1.56543 4.85742 2.34912 7.208l.04931.13965c13.32373 35.53515 3.709 43.82812-5.58935 51.84863-5.79639 5-12.27393 10.58789-11.5127 21.81738z" fill="#f57a08"/><path d="m432 456h-183.23c7.34-75.22021 65.53-111.62988 94.16-118.7002a8.527 8.527 0 0 0 2.08-.7998 9.25991 9.25991 0 0 0 4.95-8.53027c-35.83-.32959-46.03-4.4795-64.45-55.96973 25.08-.7002 42.81-32 58.49-32 16 0 16 24 32 16 0 0-9.25-10.62012 0-16s24 16 8 32c7.92 23.77-15.53 24-8.22 55.06982.07.31006.13995.62012.22.93018a13.17245 13.17245 0 0 0 3.85 6.06982c16.57 15 72.87-3.06982 92.15 73.93018 8 32-24 48-40 48z" fill="#f5a971"/><path d="m432 456v16h-183.23v-16c5.49-56.23 39.39-90.77 68.12-107.58008a118.714 118.714 0 0 1 13.58-6.85986 83.88021 83.88021 0 0 1 12.46-4.26026 8.527 8.527 0 0 0 2.08-.7998l14.99 7.5 19.85-9.93018c2.65 2.39991 6.33 3.9502 10.7 5.19 3.28.92041 6.95 1.66015 10.88 2.45019 23.62 4.68994 56.69 10.8501 70.57 66.29 8 31.99999-24 47.99999-40 47.99999z" fill="#0a4b69"/><path d="m390.55 339.25977-4.95 11.14013-25.6 57.6001-25.6-57.6001-3.93-8.83984a83.88021 83.88021 0 0 1 12.46-4.26026 8.527 8.527 0 0 0 2.08-.7998l14.99 7.5 19.85-9.93018c2.65 2.39991 6.33 3.95018 10.7 5.18995z" fill="#b1cdb4"/><path d="m345.01 336.5 14.99 7.5-16 16-9.6-9.6001-3.93-8.83984a83.88021 83.88021 0 0 1 12.46-4.26026 8.527 8.527 0 0 0 2.08-.7998z" fill="#e7f2da"/><path d="m390.55 339.25977-4.95 11.14013-9.6 9.6001-16-16 19.85-9.93018c2.65 2.39991 6.33 3.95018 10.7 5.18995z" fill="#e7f2da"/><path d="m352 352 4 8h8l4-8-8-8z" fill="#537ec2"/><path d="m376 408-12-48h-8l-12 48z" fill="#435e99"/><path d="m408 368-16 8v16l-32 32-32-32v-16l-16-8 4.89-19.58008a118.714 118.714 0 0 1 13.58-6.85986l29.53 66.43994 30.55-68.74023c3.28.92041 6.95 1.66015 10.88 2.45019z" fill="#0e638b"/><path d="m356 408h8v48h-8z" fill="#0e638b"/><path d="m408 416a4 4 0 0 1 0-8c4.17041 0 4.76172-1.42676 4.95605-1.89551.8252-1.99316-.02783-5.86328-2.61279-8.44726a4.00027 4.00027 0 0 1 5.65625-5.65821c4.69483 4.69434 6.523 11.91309 4.34766 17.166-1.29151 3.11818-4.48194 6.83498-12.34717 6.83498z" fill="#133852"/><path d="m418.5 456c19.66667 0 21.5-8 21.5-16s-8-24-24-24h-12a20 20 0 0 0 -20 20 20 20 0 0 0 20 20z" fill="#133852"/><path d="m256 432h-32c-8 0-17.3663 5.26169-19.99689 12.37582-6.20274 11.2192 5.83022 16.12418 11.83022 12.95751h40.29167v-25.33333" fill="#f5a971"/><path d="m236.35352 444.207a4.00545 4.00545 0 0 1 -3.88721-4.956 17.95489 17.95489 0 0 1 6.89941-10.47364 3.99987 3.99987 0 1 1 4.74121 6.44336 10.025 10.025 0 0 0 -3.87207 5.94043 4.00224 4.00224 0 0 1 -3.88134 3.04585z" fill="#e37066"/><path d="m240 440a32 32 0 0 1 32 32 0 0 0 0 1 0 0h-64a0 0 0 0 1 0 0 32 32 0 0 1 32-32z" fill="#537ec2"/><path d="m232.12158 472.00684c-.07959 0-.15918-.002-.23926-.00684a4.00014 4.00014 0 0 1 -3.75781-4.22852 71.519 71.519 0 0 1 6.25244-25.34765 4 4 0 1 1 7.28907 3.29687 63.53908 63.53908 0 0 0 -5.55518 22.52149 4.00057 4.00057 0 0 1 -3.98926 3.76465z" fill="#435e99"/><path d="m280 456c0 8-7.58 10.5498-15.67 10.66992-8.08.10987-6.5-8.5-3.66-10.66992a12.95482 12.95482 0 0 1 5.4-2.5498h.01a31.90906 31.90906 0 0 0 -7.1-7.2002l-.73 1.25c-7.25 11.5-20.08 6.33008-18.25-5.16992s16-10.33008 20-10.33008c12 0 20 12 20 24z" fill="#f5a971"/><rect fill="#537ec2" height="16" rx="8" width="184" x="272" y="456"/><rect fill="#435e99" height="16" rx="8" width="64" x="392" y="456"/><path d="m440 440c-16 0-16.38 3-21.75 13.37988-3.04 5.86035-10.62 5.1001-12.53-.52-6.33 4.97022-13.15 3.62012-14.09-1.90966-.33.35986-.67.71-1.01 1.0498-4.68 4.68018-11.15 3.14014-11.77-2.53027-3.8 9.11035-26.05 3.37011-1.83-22.31983 10.9-11.14992 22.98-11.14992 38.98-11.14992s24 16 24 24z" fill="#f5a971"/><path d="m391.86914 450.97559a4.0031 4.0031 0 0 1 -3.88476-4.9668c.99267-3.98926 3.53173-8.26074 7.54589-12.69434a4 4 0 0 1 5.93067 5.36914c-3.88623 4.292-5.252 7.40332-5.71289 9.25684a4.0022 4.0022 0 0 1 -3.87891 3.03516z" fill="#e37066"/><path d="m379.271 449.46484a4.00339 4.00339 0 0 1 -3.84375-5.11425 29.509 29.509 0 0 1 6.60644-11.00684 4 4 0 0 1 5.98145 5.3125c-3.2002 3.60254-4.43311 6.2959-4.9043 7.9209a4.00131 4.00131 0 0 1 -3.83984 2.88769z" fill="#e37066"/><path d="m405.3501 452.62109a4.077 4.077 0 0 1 -.49707-.03027 4.00021 4.00021 0 0 1 -3.47754-4.46191c.57324-4.62207 3.17383-9.59082 7.72949-14.77051a3.99982 3.99982 0 1 1 6.00684 5.2832c-4.32813 4.9209-5.54151 8.41113-5.79688 10.47168a4.00066 4.00066 0 0 1 -3.96484 3.50781z" fill="#e37066"/><path d="m296.04834 456.04492a3.99971 3.99971 0 0 1 -2.96289-6.68554c10.03613-11.07911 14.91455-27.22461 14.91455-49.35938a4 4 0 0 1 8 0c0 24.21094-5.55615 42.11328-16.98584 54.73047a3.99129 3.99129 0 0 1 -2.96582 1.31445z" fill="#133852"/><circle cx="344" cy="272.002" fill="#0a4b69" r="4"/><circle cx="310" cy="286" fill="#0a4b69" r="4"/><path d="m330.43457 301.15039a12.43983 12.43983 0 0 1 -11.8833-7.6123c-2.332-5.73829-.36035-13.72461 7.88769-17.22071a3.99982 3.99982 0 1 1 3.12208 7.36524c-3.57276 1.51465-4.51465 4.58984-3.59815 6.84375 1.10059 2.709 4.39014 3.37793 8.58691 1.74609a3.9997 3.9997 0 1 1 2.9004 7.45508 19.36308 19.36308 0 0 1 -7.01563 1.42285z" fill="#e37066"/><path d="m349.96866 293.01894c11.198-10.35227 21.03134 1.08509 11.698 9.64773-15.99999 16-27.698 6.35227-11.698-9.64773z" fill="#e34e03"/><path d="m299.79631 278.62706 13.73427-5.40916a2.41051 2.41051 0 0 0 1.3595-3.12616 2.41052 2.41052 0 0 0 -2.17124-1.52612l-8.22217-.2443a8 8 0 0 0 -7.57389 4.80606l-.75671 1.74a2.82841 2.82841 0 0 0 -.0379 2.16445 2.82842 2.82842 0 0 0 3.66814 1.59523z" fill="#f57a08"/><path d="m346.63752 260.17892-13.73426 5.40916a2.41051 2.41051 0 0 1 -3.12616-1.35951 2.41051 2.41051 0 0 1 .54743-2.59686l5.84737-5.7855a8 8 0 0 1 8.81711-1.64944l1.74.7567a2.82845 2.82845 0 0 1 1.5037 1.5573 2.82842 2.82842 0 0 1 -1.59519 3.66815z" fill="#f57a08"/><path d="m272.00293 224.00977a3.99984 3.99984 0 0 1 -2.40772-7.19629 23.775 23.775 0 0 1 14.40479-4.81348 24.14921 24.14921 0 0 1 4.79639.48145 4 4 0 1 1 -1.59278 7.83984 16.14526 16.14526 0 0 0 -3.20361-.32129 15.83738 15.83738 0 0 0 -9.59521 3.20605 3.9817 3.9817 0 0 1 -2.40186.80372z" fill="#f3b73f"/><path d="m264.39746 244.001a4.00168 4.00168 0 0 1 -3.915-3.20215 24.10918 24.10918 0 0 1 0-9.59766 4 4 0 0 1 7.83887 1.59766 16.10806 16.10806 0 0 0 0 6.40234 4.00608 4.00608 0 0 1 -3.92383 4.79981z" fill="#f3b73f"/><path d="m318.63574 220.001a3.99717 3.99717 0 0 1 -3.46435-1.99512 36.543 36.543 0 0 0 -10.17188-11.22852 4.00014 4.00014 0 0 1 4.67774-6.49023 44.60033 44.60033 0 0 1 12.415 13.707 4.00077 4.00077 0 0 1 -3.45655 6.00684z" fill="#e34e03"/><rect fill="#537ec2" height="176" rx="16" width="240" x="32" y="256"/><circle cx="152" cy="344" fill="#e7f2da" r="16"/><path d="m141.76607 376h21.694a10.96027 10.96027 0 0 1 7.75007 3.21018 10.96026 10.96026 0 0 1 2.64774 11.216l-18.348 55.044a8 8 0 0 0 7.58953 10.52982h12.90059a8 8 0 0 1 8 8 8 8 0 0 1 -8 8h-43.35091a20.64909 20.64909 0 0 1 -20.64909-20.64909 20.64908 20.64908 0 0 1 1.05964-6.52982l21.117-63.35089a8 8 0 0 1 7.58943-5.4702z" fill="#435e99"/><path d="m144 468a3.98727 3.98727 0 0 1 -2.82861-1.17188 22.18649 22.18649 0 0 1 -5.38868-22.82617l20.42237-61.2666a4.00009 4.00009 0 1 1 7.58984 2.5293l-20.42236 61.2666a14.22923 14.22923 0 0 0 3.45605 14.64063 4.00025 4.00025 0 0 1 -2.82861 6.82812z" fill="#2a447d"/><path d="m24 151.398v6.50834a119.99988 119.99988 0 0 0 26.29572 74.96334 10.67528 10.67528 0 0 0 13.6324 2.59994l37.5724-21.46994a10.67528 10.67528 0 0 0 3.2438-15.6739 83.72158 83.72158 0 0 1 -16.74432-50.23298v-12.68838a10.67527 10.67527 0 0 0 -14.42361-9.99557l-42.64946 15.99355a10.67526 10.67526 0 0 0 -6.92693 9.9956z" fill="#b1cdb4"/><g fill="#03999c"><path d="m64.00146 149.98633a4.0009 4.0009 0 0 1 -1.50048-7.71l8-3.2334a4.00045 4.00045 0 0 1 2.998 7.418l-8 3.2334a3.99353 3.99353 0 0 1 -1.49752.292z"/><path d="m40.002 177.68262a4.00052 4.00052 0 0 1 -1.59716-7.66895l13.352-5.80566a3.99984 3.99984 0 1 1 3.19043 7.33594l-13.35206 5.80566a3.97722 3.97722 0 0 1 -1.59321.33301z"/><path d="m66.27979 166.25684a4.00041 4.00041 0 0 1 -1.59668-7.669l11.09765-4.82519a3.99964 3.99964 0 1 1 3.18945 7.33593l-11.09765 4.8252a3.97325 3.97325 0 0 1 -1.59277.33306z"/><path d="m41.34229 195.37109a4.00071 4.00071 0 0 1 -1.69385-7.626l6.66015-3.10742a4.00019 4.00019 0 0 1 3.38282 7.25l-6.66016 3.10742a3.99216 3.99216 0 0 1 -1.68896.376z"/><path d="m60.67627 186.35059a4.00072 4.00072 0 0 1 -1.69385-7.626l18.81641-8.7793a4.00018 4.00018 0 0 1 3.38281 7.25l-18.81641 8.7793a3.99214 3.99214 0 0 1 -1.68896.376z"/><path d="m47.73291 210.80078a4.00082 4.00082 0 0 1 -1.7915-7.5791l13.60351-6.7998a4.00024 4.00024 0 0 1 3.57715 7.15624l-13.60352 6.79981a3.983 3.983 0 0 1 -1.78564.42285z"/><path d="m72.00293 198.669a4.00083 4.00083 0 0 1 -1.7915-7.57911l12.85986-6.42773a4.00025 4.00025 0 0 1 3.57715 7.15625l-12.85987 6.42773a3.983 3.983 0 0 1 -1.78564.42286z"/><path d="m80.00342 212.30762a4.0005 4.0005 0 0 1 -1.89112-7.52735l12.39991-6.63672a3.99983 3.99983 0 1 1 3.77539 7.05274l-12.3999 6.63671a3.97608 3.97608 0 0 1 -1.88428.47462z"/></g><path d="m480 135.3458v6.56051a119.99983 119.99983 0 0 1 -26.29572 74.96333l-.04025.05032a10.6 10.6 0 0 1 -13.53628 2.58161l-37.70233-21.54419a10.6 10.6 0 0 1 -3.22093-15.56337 83.97741 83.97741 0 0 0 16.79551-50.38648v-12.71173a10.6 10.6 0 0 1 14.32191-9.92508l42.8 16.05a10.6 10.6 0 0 1 6.87809 9.92508z" fill="#b1cdb4"/><path d="m467.99854 145.30078a3.9887 3.9887 0 0 1 -1.49659-.292l-12-4.84766a4.00009 4.00009 0 0 1 2.9961-7.418l12 4.84766a4.00066 4.00066 0 0 1 -1.49951 7.71z" fill="#03999c"/><path d="m435.99805 149.50293a3.99434 3.99434 0 0 1 -1.59375-.333l-8.50977-3.70215a4 4 0 0 1 3.19141-7.33593l8.50976 3.70214a4.00066 4.00066 0 0 1 -1.59765 7.66895z" fill="#03999c"/><path d="m466.63818 162.83105a3.97952 3.97952 0 0 1 -1.59375-.333l-18.64013-8.1084a4 4 0 1 1 3.1914-7.33594l18.64014 8.1084a4.00065 4.00065 0 0 1 -1.59766 7.66894z" fill="#03999c"/><path d="m439.98145 168.794a3.98842 3.98842 0 0 1 -1.68848-.376l-15.48389-7.22266a4 4 0 1 1 3.38184-7.25l15.48388 7.22266a4.00059 4.00059 0 0 1 -1.69335 7.626z" fill="#03999c"/><path d="m462.65771 179.37109a3.9884 3.9884 0 0 1 -1.68847-.376l-11.33838-5.28907a4 4 0 1 1 3.38184-7.25l11.33837 5.28907a4.00059 4.00059 0 0 1 -1.69336 7.626z" fill="#03999c"/><path d="m425.39893 179.37109a3.983 3.983 0 0 1 -1.78565-.42285l-6.26172-3.12988a4.00025 4.00025 0 0 1 3.57715-7.15625l6.26172 3.12988a4.00082 4.00082 0 0 1 -1.7915 7.5791z" fill="#03999c"/><path d="m456.26709 194.80078a3.983 3.983 0 0 1 -1.78564-.42285l-18.57032-9.28223a4.00025 4.00025 0 0 1 3.57715-7.15625l18.57031 9.28223a4.00082 4.00082 0 0 1 -1.7915 7.5791z" fill="#03999c"/><path d="m447.67676 208.98145a3.97414 3.97414 0 0 1 -1.88379-.47461l-15.78272-8.44532a3.9996 3.9996 0 1 1 3.77442-7.05273l15.78271 8.44531a4.00051 4.00051 0 0 1 -1.89062 7.52735z" fill="#03999c"/><circle cx="200" cy="112" fill="#f3b73f" r="88"/><circle cx="200" cy="112" fill="#f57a08" r="72"/><path d="m205.07179 136.78461-11.99999-20.78461 13.8564-8 12 20.78461a4.28146 4.28146 0 0 1 6.41332 3.98341l-.9282 14.39231a4.28148 4.28148 0 0 1 -6.17026 3.5624l-12.92821-6.39231a4.28147 4.28147 0 0 1 -.24306-7.54581z" fill="#72baaa"/><path d="m216 112a16 16 0 1 1 -24-13.85986v-26.14014a4.27186 4.27186 0 0 1 -3.56-6.66016l8-12a4.2791 4.2791 0 0 1 7.12 0l8 12a4.28148 4.28148 0 0 1 -3.56 6.66016v26.14014a15.99387 15.99387 0 0 1 8 13.85986z" fill="#b1cdb4"/><circle cx="200" cy="112" fill="#72baaa" r="8"/></g></svg>