<?xml version="1.0" encoding="UTF-8" standalone="no"?>
<svg
   xmlns:dc="http://purl.org/dc/elements/1.1/"
   xmlns:cc="http://creativecommons.org/ns#"
   xmlns:rdf="http://www.w3.org/1999/02/22-rdf-syntax-ns#"
   xmlns:svg="http://www.w3.org/2000/svg"
   xmlns="http://www.w3.org/2000/svg"
   xmlns:sodipodi="http://sodipodi.sourceforge.net/DTD/sodipodi-0.dtd"
   xmlns:inkscape="http://www.inkscape.org/namespaces/inkscape"
   id="Layer_2"
   height="512"
   viewBox="0 0 24 24"
   width="512"
   data-name="Layer 2"
   version="1.1"
   sodipodi:docname="clock.svg"
   inkscape:version="1.0.1 (c497b03c, 2020-09-10)">
  <metadata
     id="metadata842">
    <rdf:RDF>
      <cc:Work
         rdf:about="">
        <dc:format>image/svg+xml</dc:format>
        <dc:type
           rdf:resource="http://purl.org/dc/dcmitype/StillImage" />
      </cc:Work>
    </rdf:RDF>
  </metadata>
  <defs
     id="defs840" />
  <sodipodi:namedview
     pagecolor="#ffffff"
     bordercolor="#666666"
     borderopacity="1"
     objecttolerance="10"
     gridtolerance="10"
     guidetolerance="10"
     inkscape:pageopacity="0"
     inkscape:pageshadow="2"
     inkscape:window-width="1651"
     inkscape:window-height="994"
     id="namedview838"
     showgrid="false"
     inkscape:zoom="1.390625"
     inkscape:cx="256"
     inkscape:cy="256"
     inkscape:window-x="0"
     inkscape:window-y="23"
     inkscape:window-maximized="0"
     inkscape:current-layer="Layer_2" />
  <path
     d="M 12,2.247191 A 9.752809,9.752809 0 1 0 21.752809,12 9.764335,9.764335 0 0 0 12,2.247191 Z m 0,17.73238 A 7.979571,7.979571 0 1 1 19.979571,12 7.9893238,7.9893238 0 0 1 12,19.979571 Z"
     id="path833"
     style="stroke-width:0.886619" />
  <path
     d="M 12.886619,11.63294 V 6.680286 a 0.886619,0.886619 0 0 0 -1.773238,0 V 12 a 0.886619,0.886619 0 0 0 0.259779,0.62684 l 2.659857,2.659857 a 0.886619,0.886619 0 0 0 1.25368,-1.25368 z"
     id="path835"
     style="stroke-width:0.886619" />
</svg>
