<svg height="511pt" viewBox="-2 0 511 511.99989" width="511pt" xmlns="http://www.w3.org/2000/svg"><path d="m507.867188 14.847656c-.246094-3.410156-1.640626-6.605468-3.914063-9.078125-4.207031-5.394531-11.714844-7.371093-18.167969-4.359375l-.296875.140625c-.222656.101563-.4375.210938-.652343.324219l-373.0625 182.859375c-4.734376 2.320313-7.90625 6.960937-8.34375 12.21875s1.914062 10.359375 6.203124 13.4375l103.65625 74.378906-208.21875 201.449219c-5.394531 5.21875-6.101562 13.625-1.652343 19.667969 2.914062 3.964843 7.453125 6.113281 12.089843 6.113281 2.441407 0 4.910157-.597656 7.179688-1.835938l393.339844-214.753906c4.527344-2.46875 7.46875-7.09375 7.78125-12.242187.316406-5.152344-2.035156-10.101563-6.226563-13.109375l-96.050781-68.917969 181.757812-174.402344c3.214844-3.085937 4.894532-7.445312 4.578126-11.890625zm0 0" fill="#ffd74a"/><path d="m507.867188 14.847656c-.246094-3.410156-1.640626-6.605468-3.914063-9.078125-4.207031-5.394531-11.714844-7.371093-18.167969-4.359375l-.296875.140625c-.222656.101563-.4375.210938-.652343.324219l-230.632813 113.046875v268.839844l161.824219-88.351563c4.527344-2.472656 7.46875-7.097656 7.78125-12.246094.316406-5.148437-2.035156-10.097656-6.226563-13.105468l-96.050781-68.921875 181.757812-174.398438c3.214844-3.085937 4.894532-7.445312 4.578126-11.890625zm0 0" fill="#fdbf00"/></svg>