<svg xmlns="http://www.w3.org/2000/svg" viewBox="0 0 191.667 191.667"><defs/><path d="M95.833 24.2277c-39.483 0-71.6054 32.1217-71.6054 71.6054 0 39.4838 32.1224 71.6062 71.6054 71.6062 39.483 0 71.6054-32.1224 71.6054-71.6062 0-39.4837-32.1217-71.6054-71.6054-71.6054zm41.1171 59.5107l-44.986 44.986c-1.9129 1.9128-4.4555 2.9656-7.1604 2.9656-2.7048 0-5.2475-1.0528-7.1603-2.9656L54.716 105.797c-1.9128-1.9128-2.9663-4.4555-2.9663-7.1603 0-2.7056 1.0535-5.2483 2.9663-7.161 1.912-1.9129 4.4547-2.9664 7.1603-2.9664 2.7048 0 5.2483 1.0535 7.1603 2.967L84.803 107.242l37.825-37.825c1.9128-1.9128 4.4555-2.9656 7.1603-2.9656 2.7048 0 5.2475 1.0528 7.1603 2.9656 3.9497 3.9496 3.9497 10.3732.001 14.3214z"/></svg>