<?xml version="1.0" encoding="UTF-8" standalone="no"?>
<svg
   xmlns:dc="http://purl.org/dc/elements/1.1/"
   xmlns:cc="http://creativecommons.org/ns#"
   xmlns:rdf="http://www.w3.org/1999/02/22-rdf-syntax-ns#"
   xmlns:svg="http://www.w3.org/2000/svg"
   xmlns="http://www.w3.org/2000/svg"
   xmlns:sodipodi="http://sodipodi.sourceforge.net/DTD/sodipodi-0.dtd"
   xmlns:inkscape="http://www.inkscape.org/namespaces/inkscape"
   width="200"
   height="200"
   viewBox="0 0 52.916665 52.916668"
   version="1.1"
   id="svg8"
   sodipodi:docname="info.svg"
   inkscape:version="1.0.1 (c497b03c, 2020-09-10)">
  <defs
     id="defs2" />
  <sodipodi:namedview
     id="base"
     pagecolor="#ffffff"
     bordercolor="#666666"
     borderopacity="1.0"
     inkscape:pageopacity="0.0"
     inkscape:pageshadow="2"
     inkscape:zoom="1.0913787"
     inkscape:cx="244.43651"
     inkscape:cy="160.98974"
     inkscape:document-units="mm"
     inkscape:current-layer="layer1"
     inkscape:document-rotation="0"
     showgrid="false"
     inkscape:snap-global="false"
     units="px"
     inkscape:window-width="1792"
     inkscape:window-height="995"
     inkscape:window-x="182"
     inkscape:window-y="23"
     inkscape:window-maximized="0" />
  <metadata
     id="metadata5">
    <rdf:RDF>
      <cc:Work
         rdf:about="">
        <dc:format>image/svg+xml</dc:format>
        <dc:type
           rdf:resource="http://purl.org/dc/dcmitype/StillImage" />
        <dc:title></dc:title>
      </cc:Work>
    </rdf:RDF>
  </metadata>
  <g
     inkscape:label="Layer 1"
     inkscape:groupmode="layer"
     id="layer1">
    <path
       id="path859"
       style="fill:#000000;stroke-width:1.92553;stroke-linecap:round"
       d="m -515.04688,768.57227 c -21.73878,0 -39.23828,16.85633 -39.23828,37.79492 v 555.83791 c 0,20.9386 17.4995,37.7949 39.23828,37.7949 h 387.23633 c 20.48957,0 37.018544,-15.0317 38.87305,-34.2852 h -414.8418 c -1.30866,0 -2.584,-0.1357 -3.8164,-0.3945 -1.23241,-0.2588 -2.42154,-0.6409 -3.55274,-1.1328 -1.1312,-0.4919 -2.20589,-1.0938 -3.21094,-1.793 -1.00504,-0.6991 -1.94098,-1.4962 -2.79492,-2.3769 -0.85393,-0.8808 -1.62485,-1.8462 -2.30273,-2.8828 -0.67788,-1.0367 -1.26141,-2.1438 -1.73828,-3.3106 -0.47687,-1.1667 -0.84675,-2.3929 -1.09766,-3.664 -0.25091,-1.2712 -0.38281,-2.5878 -0.38281,-3.9375 V 822.34766 c 0,-1.34978 0.1319,-2.66638 0.38281,-3.9375 0.25091,-1.27113 0.62079,-2.49538 1.09766,-3.66211 0.47687,-1.16674 1.0604,-2.27589 1.73828,-3.3125 0.67788,-1.03662 1.4488,-2.00205 2.30273,-2.88282 0.85394,-0.88076 1.78988,-1.67582 2.79492,-2.375 1.00505,-0.69917 2.07974,-1.30111 3.21094,-1.79296 1.1312,-0.49185 2.32033,-0.87402 3.55274,-1.13282 1.2324,-0.25879 2.50774,-0.39453 3.8164,-0.39453 h 414.8418 c -1.854075,-19.25385 -18.38316,-34.28515 -38.87305,-34.28515 z"
       transform="scale(0.26458333)" />
    <path
       id="path862"
       style="fill:#000000;stroke-width:0.509463;stroke-linecap:round"
       d="m -117.12257,301.60255 6.9262,7.76284 73.498866,-16.19591 c 5.294191,-1.16658 8.709559,-5.99127 8.09253,-11.07168 z" />
    <path
       id="path868"
       style="fill:#000000;stroke-width:0.509463;stroke-linecap:round"
       d="m -139.37119,17.041778 -0.0698,9.304343 82.569114,-18.1942398 C -58.447126,3.2825425 -63.573721,0.33969321 -68.868002,1.506294 Z" />
    <path
       id="rect898"
       style="fill:#000000;stroke-width:0.436478;stroke-linecap:round"
       d="m 22.242086,2.4213037 c -2.418094,0 -4.36498,1.9464366 -4.36498,4.3645277 V 43.133888 c 0,2.418093 1.946886,4.364528 4.36498,4.364528 h 24.496389 c 2.41809,0 4.36498,-1.946435 4.36498,-4.364528 V 6.7858314 c 0,-2.4180911 -1.94689,-4.3645277 -4.36498,-4.3645277 z m 4.196713,6.348526 h 16.102963 c 0.739653,0 1.334845,0.5956455 1.334845,1.3352983 v 0.0812 c 0,0.739653 -0.595192,1.334846 -1.334845,1.334846 H 26.438799 c -0.739653,0 -1.334847,-0.595193 -1.334847,-1.334846 v -0.0812 c 0,-0.7396528 0.595194,-1.3352983 1.334847,-1.3352983 z m 0,7.6220223 h 16.102963 c 0.739653,0 1.334845,0.595644 1.334845,1.335298 v 0.08121 c 0,0.739652 -0.595192,1.334845 -1.334845,1.334845 H 26.438799 c -0.739653,0 -1.334847,-0.595193 -1.334847,-1.334845 v -0.08121 c 0,-0.739654 0.595194,-1.335298 1.334847,-1.335298 z m 0,7.622021 h 11.658587 c 0.739653,0 1.335298,0.566423 1.335298,1.269887 v 0.211572 c 0,0.703463 -0.595645,1.269886 -1.335298,1.269886 H 26.438799 c -0.739653,0 -1.334847,-0.566423 -1.334847,-1.269886 V 25.28376 c 0,-0.703464 0.595194,-1.269887 1.334847,-1.269887 z" />
    <path
       id="rect906"
       style="fill:#000000;stroke-width:0.499999;stroke-linecap:round"
       d="M 40.097122,63.899598 H 7.0831176 c -0.1416315,0 -0.2760028,0.0297 -0.3984255,0.0832 -0.1224253,0.0535 -0.2326269,0.130545 -0.3250459,0.226343 -0.092416,0.0958 -0.1669812,0.210026 -0.2185908,0.336931 -0.05161,0.126902 -0.080097,0.266599 -0.080097,0.413411 v 40.024427 c 0,0.14681 0.028488,0.28651 0.080097,0.41341 0.05161,0.12691 0.1261745,0.24113 0.2185908,0.33693 0.092419,0.0958 0.2026206,0.17336 0.3250459,0.22686 0.1224227,0.0535 0.256794,0.0832 0.3984255,0.0832 H 40.097122 c 0.0043,-0.0858 0.02532,-0.16677 0.02532,-0.25373 V 64.152812 c 0,-0.08683 -0.02099,-0.167503 -0.02532,-0.253214 z" />
    <path
       id="path919"
       style="fill:#000000;stroke-width:0.499999;stroke-linecap:round"
       d="m 59.352319,57.21873 5.23689,3.431315 18.828307,-5.423442 c 2.578213,-0.742641 4.070791,-3.355943 3.466457,-5.938139 z" />
    <path
       id="path929"
       style="fill:#000000;stroke-width:0.412139;stroke-linecap:round"
       d="m 88.582756,49.52661 1.423169,3.711401 3.417362,-0.649574 -4.036962,-3.21479 z" />
    <path
       id="path934"
       style="fill:#000000;stroke-width:0.446733;stroke-linecap:round"
       d="M 12.422036,5.711255 5.0808362,7.1071247 C 2.649511,7.5695124 1.064358,9.8991076 1.5267454,12.330434 l 6.9502223,36.546922 c 0.4623891,2.431325 2.7919833,4.016478 5.2233083,3.554091 l 3.728295,-0.709138 -1.542627,-4.022928 -2.958101,0.56238 c -0.124316,0.02364 -0.247146,0.01984 -0.363531,-0.0067 -0.116392,-0.0265 -0.22609,-0.07587 -0.323201,-0.144518 -0.09711,-0.06866 -0.181659,-0.157128 -0.248143,-0.259905 -0.06648,-0.102768 -0.114967,-0.220107 -0.139475,-0.348968 L 5.1726992,12.370764 c -0.024507,-0.128861 -0.022996,-0.256412 0.00112,-0.376414 0.024159,-0.119993 0.070439,-0.232648 0.1355539,-0.332163 0.065125,-0.09952 0.1490552,-0.185789 0.2475819,-0.253184 0.098523,-0.06739 0.2117689,-0.115832 0.3360843,-0.139475 L 11.8815,10.130762 Z" />
    <path
       id="path924"
       style="fill:#000000;stroke-width:0.499999;stroke-linecap:round"
       d="m -38.048359,-26.518465 -0.145211,4.981608 25.167971,-7.249687 c -0.861729,-2.508245 -3.516378,-3.926459 -6.094717,-3.183785 z" />
  </g>
</svg>
