<svg width="191.667" height="191.667" xmlns="http://www.w3.org/2000/svg">
 <metadata id="metadata870">image/svg+xml</metadata>

 <g>
  <title>Layer 1</title>
  <path fill="#7fff00" stroke-width="0.66292" id="path833" d="m95.833,32.3036c-35.03,0 -63.52957,28.49891 -63.52957,63.52957c0,35.03066 28.49957,63.53023 63.52957,63.53023c35.03,0 63.52957,-28.49957 63.52957,-63.53023c0,-35.03066 -28.49891,-63.52957 -63.52957,-63.52957zm36.4798,52.79889l-39.9124,39.9124c-1.69707,1.69707 -3.95299,2.63112 -6.35276,2.63112c-2.39977,0 -4.65568,-0.93405 -6.35276,-2.63112l-20.34168,-20.34169c-1.69708,-1.69707 -2.63179,-3.95299 -2.63179,-6.35276c0,-2.40043 0.93471,-4.65634 2.63179,-6.35342c1.69641,-1.69707 3.95232,-2.63179 6.35276,-2.63179c2.39977,0 4.65634,0.93472 6.35276,2.63245l13.98826,13.98761l33.55898,-33.55898c1.69708,-1.69707 3.95299,-2.63113 6.35276,-2.63113c2.39977,0 4.65568,0.93406 6.35276,2.63113c3.50419,3.50419 3.50419,9.20331 0.00089,12.70618l0.00043,0z"/>
  <g id="g835"/>
  <g id="g837"/>
  <g id="g839"/>
  <g id="g841"/>
  <g id="g843"/>
  <g id="g845"/>
  <g id="g847"/>
  <g id="g849"/>
  <g id="g851"/>
  <g id="g853"/>
  <g id="g855"/>
  <g id="g857"/>
  <g id="g859"/>
  <g id="g861"/>
  <g id="g863"/>
 </g>
</svg>