<svg height='100px' width='100px'  fill="#000000" xmlns:x="http://ns.adobe.com/Extensibility/1.0/" xmlns:i="http://ns.adobe.com/AdobeIllustrator/10.0/" xmlns:graph="http://ns.adobe.com/Graphs/1.0/" xmlns="http://www.w3.org/2000/svg" xmlns:xlink="http://www.w3.org/1999/xlink" version="1.1" x="0px" y="0px" viewBox="0 0 100 100" style="enable-background:new 0 0 100 100;" xml:space="preserve"><g><g i:extraneous="self"><g><g><path d="M55.1,2.5C36.7,2.5,21.6,16.6,20,34.7c-0.1,0.9-0.3,1.8-0.8,2.7l-9,13.7c-1.7,2.6,0.2,6.1,3.3,6.1h5.2      c0.6,0,1.2,0.5,1.2,1.2v14.2c0,3.3,2.6,5.9,5.9,5.9h10.6c0.9,0,1.7,0.8,1.7,1.7v14.3c0,1.8,1.5,3.2,3.3,3.1l30.3-2.7      c1.6-0.1,2.8-1.5,2.8-3.1l0-20.2c0-1.4,0.6-2.6,1.7-3.5c8.6-7.4,14.2-18.7,14.2-30.3C90.4,18.3,74.6,2.5,55.1,2.5z M54.8,70.4      c-2.9,0-5.3-2.4-5.3-5.3s2.4-5.3,5.3-5.3c2.9,0,5.3,2.4,5.3,5.3S57.7,70.4,54.8,70.4z M67.5,43.1c-2.1,2.8-4.1,4.3-5.7,5.3      c-1.7,1.2-2.5,1.7-2.7,4.6c-0.1,1.2-1.2,2.2-2.4,2.2h-3.8c-1.4,0-2.5-1.2-2.4-2.6c0.5-6.6,3.1-8.9,6.3-11.2      c1.3-0.9,2.4-1.7,3.7-3.4c1.2-1.7,1.4-3.9,0.4-5.9c-0.7-1.3-2.4-3.6-6.6-3.6c-5.5,0-7.2,3.5-7.7,6.2c-0.2,1.2-1.2,2-2.4,2h-3.8      c-1.5,0-2.6-1.3-2.4-2.8c1-7.2,6.2-14.1,16.3-14.1c6.4,0,11.7,3.1,14.4,8.3C71.1,33.1,70.6,38.8,67.5,43.1z"></path></g></g></g></g></svg>