<svg id="Capa_1" enable-background="new 0 0 497 497" height="512" viewBox="0 0 497 497" width="512" xmlns="http://www.w3.org/2000/svg"><g><path d="m450.76 173.61v289.86l-28.14 2.33-174.12 14.43-202.26-16.76v-289.86l202.26-16.14 174.12 13.89z" fill="#f3f1f4"/><path d="m450.76 173.61v289.86l-28.14 2.33v-294.44z" fill="#e1dee2"/><path d="m165.009 96.522h-79.899v-56.625c0-22.034 17.863-39.897 39.898-39.897h.104c22.035 0 39.897 17.863 39.897 39.897z" fill="#d4f2f6"/><path d="m125.112 0h-.104c-4.934 0-9.657.902-14.019 2.539 15.118 5.676 25.879 20.258 25.879 37.358v56.625h28.142v-56.625c-.001-22.034-17.863-39.897-39.898-39.897z" fill="#a6e7f0"/><path d="m411.89 96.522h-79.899v-56.625c0-22.034 17.862-39.897 39.897-39.897h.104c22.035 0 39.897 17.863 39.897 39.897v56.625z" fill="#d4f2f6"/><path d="m371.992 0h-.104c-4.934 0-9.657.902-14.019 2.539 15.117 5.676 25.879 20.258 25.879 37.358v56.625h28.142v-56.625c0-22.034-17.863-39.897-39.898-39.897z" fill="#a6e7f0"/><path d="m436.546 497h-376.092c-7.852 0-14.218-6.366-14.218-14.218v-19.313h404.529v19.313c-.001 7.852-6.366 14.218-14.219 14.218z" fill="#e1dee2"/><path d="m422.623 463.469v19.313c0 7.852-6.366 14.218-14.218 14.218h28.142c7.852 0 14.218-6.366 14.218-14.218v-19.313z" fill="#cbc4cc"/><path d="m453.731 68.793h-410.462c-7.373 0-13.351 5.977-13.351 13.351v78.12c0 7.373 5.977 13.351 13.351 13.351h410.463c7.373 0 13.351-5.977 13.351-13.351v-78.12c-.001-7.374-5.978-13.351-13.352-13.351z" fill="#fd4755"/><path d="m453.731 68.793h-28.141c7.373 0 13.351 5.977 13.351 13.351v78.12c0 7.373-5.977 13.351-13.351 13.351h28.142c7.373 0 13.351-5.977 13.351-13.351v-78.12c-.001-7.374-5.978-13.351-13.352-13.351z" fill="#fb2b3a"/><path d="m181.338 420.147 6.533 3.434c4.403 2.315 9.55-1.424 8.709-6.327l-1.248-7.274c-.334-1.947.312-3.934 1.726-5.313l5.285-5.152c3.562-3.472 1.597-9.522-3.326-10.238l-7.304-1.061c-1.955-.284-3.645-1.512-4.519-3.283l-3.266-6.618c-2.202-4.461-8.563-4.461-10.765 0l-3.266 6.618c-.874 1.772-2.564 2.999-4.519 3.283l-7.304 1.061c-4.923.715-6.889 6.765-3.326 10.238l5.285 5.152c1.415 1.379 2.06 3.366 1.726 5.313l-1.248 7.274c-.841 4.903 4.305 8.642 8.709 6.327l6.533-3.434c1.748-.919 3.837-.919 5.585 0z" fill="#ffe177"/><path d="m290.785 137.132h-84.57c-9.5 0-17.201-7.701-17.201-17.201 0-9.5 7.701-17.201 17.201-17.201h84.57c9.5 0 17.201 7.701 17.201 17.201 0 9.5-7.701 17.201-17.201 17.201z" fill="#a6e7f0"/><path d="m290.785 102.731h-28.142c9.5 0 17.201 7.701 17.201 17.201s-7.701 17.201-17.201 17.201h28.142c9.5 0 17.201-7.701 17.201-17.201s-7.701-17.201-17.201-17.201z" fill="#6bd9e7"/><circle cx="124.845" cy="36.624" fill="#8379c1" r="7.629"/><circle cx="371.94" cy="36.624" fill="#8379c1" r="7.629"/><g fill="#fd4755"><path d="m319.944 334.285c-4.142 0-7.5-3.358-7.5-7.5v-103.687c0-3.282 2.134-6.183 5.268-7.16s6.539.197 8.403 2.898l58.938 85.346-.786-81.206c-.04-4.142 3.285-7.532 7.427-7.572h.074c4.108 0 7.458 3.31 7.498 7.427l.971 100.381c0 4.622-2.468 8.333-6.288 9.526-3.695 1.155-7.648-.36-10.07-3.858l-56.436-81.723v79.628c.001 4.142-3.357 7.5-7.499 7.5z"/><path d="m140.462 334.285c-16.011 0-31.622-6.678-41.758-17.862-2.781-3.069-2.548-7.813.521-10.594s7.813-2.548 10.594.521c7.34 8.1 18.795 12.935 30.643 12.935 13.4 0 22.133-8.415 23.546-16.333 1.484-8.311-4.757-15.692-17.122-20.253-15.942-5.881-30.087-12.177-30.681-12.442-.361-.161-.709-.351-1.041-.566-9.146-5.962-13.856-16.427-12.294-27.311 1.686-11.74 10.357-21.33 22.632-25.027 25.573-7.705 46.724 9.741 47.611 10.487 3.171 2.666 3.581 7.396.916 10.567-2.659 3.164-7.375 3.578-10.545.934-.275-.226-16.027-12.936-33.655-7.625-6.724 2.025-11.25 6.809-12.11 12.796-.708 4.935 1.227 9.496 5.19 12.309 2.844 1.251 15.5 6.763 29.169 11.805 9.889 3.647 17.262 8.9 21.914 15.611 4.471 6.45 6.125 13.833 4.783 21.352-2.921 16.36-19.392 28.696-38.313 28.696z"/><path d="m244.212 334.285c-.024 0-.048 0-.073 0-8.482-.011-16.28-2.25-23.175-6.656-13.295-8.495-19.759-19.369-19.759-33.244v-71.482c0-4.142 3.358-7.5 7.5-7.5s7.5 3.358 7.5 7.5v71.482c0 8.693 3.838 14.855 12.835 20.603 4.451 2.844 9.538 4.289 15.12 4.296h.051c4.992 0 9.609-1.051 13.726-3.125 10.542-5.31 15.451-12.252 15.451-21.85v-71.407c0-4.142 3.358-7.5 7.5-7.5s7.5 3.358 7.5 7.5v71.407c0 10.633-4.112 25.379-23.704 35.247-6.229 3.138-13.117 4.729-20.472 4.729z"/></g><path d="m319.944 407.126h-79.368c-4.142 0-7.5-3.358-7.5-7.5s3.358-7.5 7.5-7.5h79.368c4.142 0 7.5 3.358 7.5 7.5s-3.358 7.5-7.5 7.5z" fill="#cbc4cc"/></g></svg>