<?xml version="1.0" encoding="UTF-8" standalone="no"?>
<svg
   xmlns:dc="http://purl.org/dc/elements/1.1/"
   xmlns:cc="http://creativecommons.org/ns#"
   xmlns:rdf="http://www.w3.org/1999/02/22-rdf-syntax-ns#"
   xmlns:svg="http://www.w3.org/2000/svg"
   xmlns="http://www.w3.org/2000/svg"
   xmlns:sodipodi="http://sodipodi.sourceforge.net/DTD/sodipodi-0.dtd"
   xmlns:inkscape="http://www.inkscape.org/namespaces/inkscape"
   height="100px"
   width="100px"
   fill="#ffc371"
   version="1.1"
   x="0px"
   y="0px"
   viewBox="0 0 100 100"
   style="enable-background:new 0 0 100 100;"
   xml:space="preserve"
   id="svg835"
   sodipodi:docname="flash_selected.svg"
   inkscape:version="1.0.1 (c497b03c, 2020-09-10)"><metadata
     id="metadata841"><rdf:RDF><cc:Work
         rdf:about=""><dc:format>image/svg+xml</dc:format><dc:type
           rdf:resource="http://purl.org/dc/dcmitype/StillImage" /></cc:Work></rdf:RDF></metadata><defs
     id="defs839" /><sodipodi:namedview
     pagecolor="#ffffff"
     bordercolor="#666666"
     borderopacity="1"
     objecttolerance="10"
     gridtolerance="10"
     guidetolerance="10"
     inkscape:pageopacity="0"
     inkscape:pageshadow="2"
     inkscape:window-width="1532"
     inkscape:window-height="962"
     id="namedview837"
     showgrid="false"
     inkscape:zoom="7.12"
     inkscape:cx="50"
     inkscape:cy="50"
     inkscape:window-x="0"
     inkscape:window-y="23"
     inkscape:window-maximized="0"
     inkscape:current-layer="svg835"
     inkscape:document-rotation="0" /><path
     d="M 79.85181,50.412877 C 79.685818,50.141558 79.519827,49.87024 79.181291,49.772072 l -19.74791,-5.726457 -2.256904,-0.654453 24.320684,-31.558483 0.982117,-1.277501 c 0.202393,-0.276087 0.291941,-0.584897 0.125949,-0.8562156 l -0.083,-0.1356594 C 82.303094,9.0533887 81.543027,8.7213938 80.942399,9.1051864 L 20.355454,48.448397 c -0.428083,0.210641 -0.434636,0.655111 -0.411339,0.996643 v 0 c 0.165991,0.271319 0.331984,0.542638 0.67052,0.640806 l 1.128452,0.327226 20.989207,6.086406 -1.327205,1.623802 -24.005446,31.315119 c -0.202392,0.276087 -0.29194,0.584897 -0.125949,0.856216 0.219139,0.509914 0.949356,0.944846 1.692678,0.490839 l 0.457933,-0.313579 59.671078,-38.716052 0.457933,-0.313579 c 0.398236,-0.107705 0.547483,-0.622389 0.298494,-1.029367 z"
     id="path833"
     style="stroke-width:1.12217" /></svg>
