<svg height="512" viewBox="0 0 58 58" width="512" xmlns="http://www.w3.org/2000/svg"><g id="Page-1" fill="none" fill-rule="evenodd"><g id="004---Bell" fill-rule="nonzero"><path id="Shape" d="m53.86 26c-.9208263 9.3386627-6.0155215 17.7599806-13.86 22.91l-2-2.91 2-2.05c5.5136293-4.4545292 9.046246-10.9052383 9.83-17.95l2.17-2z" fill="#bdc3c7"/><path id="Shape" d="m40 38.48v13.52c0 3.3137085-2.6862915 6-6 6h-22c-3.3137085 0-6-2.6862915-6-6v-13.52z" fill="#c03a2b"/><path id="Shape" d="m46 23c0 12.7025492-10.2974508 23-23 23s-23-10.2974508-23-23 10.2974508-23 23-23c6.1103457-.03402231 11.9802741 2.37825819 16.301008 6.69899204 4.3207338 4.32073386 6.7330143 10.19066226 6.698992 16.30100796z" fill="#e64c3c"/><path id="Shape" d="m15 6.768c-.4695451.00087953-.8764638-.32504302-.9781445-.78344724-.1016806-.45840422.1292655-.92581436.5551445-1.12355276.7060045-.32888496 1.4305646-.61637173 2.17-.861.5246705-.17314127 1.0903587.11182949 1.2635.6365s-.1118295 1.09035873-.6365 1.2635c-.6649703.21945824-1.3164325.47790608-1.951.774-.1324351.06187287-.2768244.0939594-.423.094z" fill="#fff"/><path id="Shape" d="m4 24c-.55228475 0-1-.4477153-1-1-.01393942-6.1792277 2.84469313-12.0140012 7.736-15.79.2820612-.21953972.6598195-.27192493.9909771-.13742264.3311575.1345023.5654036.43545801.6145.78950002s-.0944159.70738292-.3764771.92692262c-4.40338479 3.3976775-6.97721515 8.6491783-6.965 14.211 0 .2652165-.10535684.5195704-.29289322.7071068s-.44189029.2928932-.70710678.2928932z" fill="#fff"/><path id="Shape" d="m58 23c0 1.6568542-1.3431458 3-3 3h-6c-1.6568542 0-3-1.3431458-3-3s1.3431458-3 3-3h6c1.6568542 0 3 1.3431458 3 3z" fill="#f0c419"/><circle id="Oval" cx="23" cy="23" fill="#bdc3c7" r="8"/><circle id="Oval" cx="23" cy="23" fill="#7f8c8d" r="3"/><g fill="#bdc3c7"><circle id="Oval" cx="13" cy="51" r="3"/><circle id="Oval" cx="33" cy="51" r="3"/></g></g></g></svg>