<svg width="585.354" height="585.354" xmlns="http://www.w3.org/2000/svg">
 <metadata id="metadata874">image/svg+xml</metadata>

 <g>
  <title>Layer 1</title>
  <g transform="matrix(0.75833079,0,0,0.75833079,70.730898,70.731019) " id="g837">
   <g id="g835">
    <path fill="#c9c9c9" id="path833" d="m292.679,0c-94.389,0 -171.183,76.791 -171.183,171.183l0,97.767c0,1.111 -1.371,2.983 -2.448,3.341c-9.257,3.087 -16.775,5.762 -23.657,8.415c-8.207,3.164 -14.397,12.259 -14.397,21.157l0,224.641c0,8.837 6.15,17.94 14.305,21.172c63.097,25.003 129.505,37.678 197.379,37.678c67.874,0 134.282,-12.678 197.382,-37.681c8.152,-3.231 14.299,-12.332 14.299,-21.169l0,-224.641c0,-8.898 -6.189,-17.993 -14.4,-21.16c-6.885,-2.653 -14.402,-5.328 -23.652,-8.415c-1.074,-0.358 -2.445,-2.231 -2.445,-3.342l0,-97.766c-0.005,-94.389 -76.794,-171.18 -171.183,-171.18zm-46.626,370.281c0,-25.769 20.875,-46.622 46.623,-46.622c25.746,0 46.621,20.851 46.621,46.622c0,17.075 -9.629,31.371 -23.311,39.475l0,77.081c0,12.886 -10.426,23.311 -23.311,23.311c-12.886,0 -23.311,-10.425 -23.311,-23.311l0,-77.081c-13.681,-8.104 -23.311,-22.4 -23.311,-39.475zm158.947,-199.101l0,84.355c-36.834,-7.926 -74.623,-11.94 -112.306,-11.943c-37.666,0 -75.447,4.015 -112.338,11.934l0,-84.346c0,-61.935 50.386,-112.32 112.32,-112.32c61.933,-0.001 112.324,50.385 112.324,112.32z"/>
   </g>
  </g>
  <g id="g839"/>
  <g id="g841"/>
  <g id="g843"/>
  <g id="g845"/>
  <g id="g847"/>
  <g id="g849"/>
  <g id="g851"/>
  <g id="g853"/>
  <g id="g855"/>
  <g id="g857"/>
  <g id="g859"/>
  <g id="g861"/>
  <g id="g863"/>
  <g id="g865"/>
  <g id="g867"/>
 </g>
</svg>