<?xml version="1.0" encoding="UTF-8" standalone="no"?>
<svg
   xmlns:dc="http://purl.org/dc/elements/1.1/"
   xmlns:cc="http://creativecommons.org/ns#"
   xmlns:rdf="http://www.w3.org/1999/02/22-rdf-syntax-ns#"
   xmlns:svg="http://www.w3.org/2000/svg"
   xmlns="http://www.w3.org/2000/svg"
   xmlns:sodipodi="http://sodipodi.sourceforge.net/DTD/sodipodi-0.dtd"
   xmlns:inkscape="http://www.inkscape.org/namespaces/inkscape"
   version="1.1"
   id="Capa_1"
   x="0px"
   y="0px"
   fill="#764BA2"
   viewBox="0 0 409.6 409.6"
   style="enable-background:new 0 0 409.6 409.6;"
   xml:space="preserve"
   sodipodi:docname="newspaper.svg"
   inkscape:version="1.0.1 (c497b03c, 2020-09-10)"><metadata
   id="metadata953"><rdf:RDF><cc:Work
       rdf:about=""><dc:format>image/svg+xml</dc:format><dc:type
         rdf:resource="http://purl.org/dc/dcmitype/StillImage" /></cc:Work></rdf:RDF></metadata><defs
   id="defs951"  /><sodipodi:namedview
   pagecolor="#ffffff"
   bordercolor="#666666"
   borderopacity="1"
   objecttolerance="10"
   gridtolerance="10"
   guidetolerance="10"
   inkscape:pageopacity="0"
   inkscape:pageshadow="2"
   inkscape:window-width="1792"
   inkscape:window-height="989"
   id="namedview949"
   showgrid="false"
   inkscape:zoom="0.89721678"
   inkscape:cx="204.8"
   inkscape:cy="204.8"
   inkscape:window-x="0"
   inkscape:window-y="23"
   inkscape:window-maximized="0"
   inkscape:current-layer="Capa_1"
   inkscape:document-rotation="0"
   />
<g
   id="g898"
   transform="matrix(0.80408163,0,0,0.80408163,40.124082,40.124082)">
	<g
   id="g896">
		<path
   d="M 170.665,0 H 17.065 C 7.685,0 0,7.685 0,17.065 V 204.8 c 0,9.385 7.685,17.065 17.065,17.065 h 153.6 c 9.385,0 17.07,-7.68 17.07,-17.065 V 17.065 C 187.735,7.685 180.05,0 170.665,0 Z"
   id="path894" />
	</g>
</g>
<g
   id="g904"
   transform="matrix(0.80408163,0,0,0.80408163,40.124082,40.124082)">
	<g
   id="g902">
		<path
   d="m 392.535,187.735 h -153.6 c -9.385,0 -17.07,7.68 -17.07,17.065 v 187.735 c 0,9.38 7.685,17.065 17.07,17.065 h 153.6 c 9.38,0 17.065,-7.685 17.065,-17.065 V 204.8 c 0,-9.385 -7.685,-17.065 -17.065,-17.065 z"
   id="path900" />
	</g>
</g>
<g
   id="g910"
   transform="matrix(0.80408163,0,0,0.80408163,40.124082,40.124082)">
	<g
   id="g908">
		<path
   d="M 170.665,256 H 17.065 C 7.685,256 0,263.685 0,273.065 v 119.47 c 0,9.38 7.685,17.065 17.065,17.065 h 153.6 c 9.385,0 17.07,-7.685 17.07,-17.065 v -119.47 c 0,-9.38 -7.685,-17.065 -17.07,-17.065 z"
   id="path906" />
	</g>
</g>
<g
   id="g916"
   transform="matrix(0.80408163,0,0,0.80408163,40.124082,40.124082)">
	<g
   id="g914">
		<path
   d="m 392.535,0 h -153.6 c -9.385,0 -17.07,7.685 -17.07,17.065 v 119.47 c 0,9.38 7.685,17.065 17.07,17.065 h 153.6 c 9.38,0 17.065,-7.685 17.065,-17.065 V 17.065 C 409.6,7.685 401.915,0 392.535,0 Z"
   id="path912" />
	</g>
</g>
<g
   id="g918">
</g>
<g
   id="g920">
</g>
<g
   id="g922">
</g>
<g
   id="g924">
</g>
<g
   id="g926">
</g>
<g
   id="g928">
</g>
<g
   id="g930">
</g>
<g
   id="g932">
</g>
<g
   id="g934">
</g>
<g
   id="g936">
</g>
<g
   id="g938">
</g>
<g
   id="g940">
</g>
<g
   id="g942">
</g>
<g
   id="g944">
</g>
<g
   id="g946">
</g>
</svg>
