<?xml version="1.0" encoding="UTF-8" standalone="no"?>
<svg
   xmlns:dc="http://purl.org/dc/elements/1.1/"
   xmlns:cc="http://creativecommons.org/ns#"
   xmlns:rdf="http://www.w3.org/1999/02/22-rdf-syntax-ns#"
   xmlns:svg="http://www.w3.org/2000/svg"
   xmlns="http://www.w3.org/2000/svg"
   xmlns:xlink="http://www.w3.org/1999/xlink"
   xmlns:sodipodi="http://sodipodi.sourceforge.net/DTD/sodipodi-0.dtd"
   xmlns:inkscape="http://www.inkscape.org/namespaces/inkscape"
   height="100px"
   width="100px"
   fill="#891010"
   version="1.1"
   x="0px"
   y="0px"
   viewBox="0 0 86.381 100"
   enable-background="new 0 0 86.381 100"
   xml:space="preserve"
   id="svg3808"
   sodipodi:docname="pustack_logo.svg"
   inkscape:export-filename="/Users/mlu/Desktop/pustack_logo.png"
   inkscape:export-xdpi="491.51999"
   inkscape:export-ydpi="491.51999"
   inkscape:version="1.0.1 (c497b03c, 2020-09-10)"><metadata
     id="metadata3814"><rdf:RDF><cc:Work
         rdf:about=""><dc:format>image/svg+xml</dc:format><dc:type
           rdf:resource="http://purl.org/dc/dcmitype/StillImage" /></cc:Work></rdf:RDF></metadata><defs
     id="defs3812"><linearGradient
       inkscape:collect="always"
       id="linearGradient845"><stop
         style="stop-color:#891010;stop-opacity:1"
         offset="0"
         id="stop841" /><stop
         style="stop-color:#ff0000;stop-opacity:1"
         offset="1"
         id="stop843" /></linearGradient><linearGradient
       inkscape:collect="always"
       xlink:href="#linearGradient845"
       id="linearGradient849"
       gradientUnits="userSpaceOnUse"
       x1="98.178497"
       y1="107.82552"
       x2="-10.782019"
       y2="-1.4187567"
       gradientTransform="matrix(0.91776358,0,0,0.91537974,3.0858442,1.298701)" /></defs><sodipodi:namedview
     pagecolor="#ffffff"
     bordercolor="#666666"
     borderopacity="1"
     objecttolerance="10"
     gridtolerance="10"
     guidetolerance="10"
     inkscape:pageopacity="0"
     inkscape:pageshadow="2"
     inkscape:window-width="1792"
     inkscape:window-height="1120"
     id="namedview3810"
     showgrid="false"
     inkscape:zoom="4.5117664"
     inkscape:cx="50"
     inkscape:cy="50"
     inkscape:window-x="0"
     inkscape:window-y="0"
     inkscape:window-maximized="0"
     inkscape:current-layer="svg3808"
     inkscape:document-rotation="0" /><rect
     style="fill:url(#linearGradient849);fill-opacity:1;stroke-width:5.1963;stroke-linecap:round"
     id="rect839"
     height="100"
     x="-6.8095002"
     y="0"
     width="100" /><path
     fill="#891010"
     d="m 70.442614,30.953412 c -0.442671,-0.3443 -1.007012,-0.423256 -1.505341,-0.20645 L 44.879,41.16462 c -1.045843,0.454967 -2.355089,0.674361 -3.699929,0.674361 -1.874881,0.0052 -3.815127,-0.431669 -5.167086,-1.026427 -0.484091,-0.206451 -0.887931,-0.438788 -1.173338,-0.645886 0.104844,-0.05113 0.223925,-0.104843 0.363716,-0.159206 l 21.886337,-9.472775 3.266318,1.397261 v -4.082412 c 0,-0.607702 -0.257578,-1.183692 -0.700249,-1.523462 -0.443319,-0.3443 -1.009601,-0.423255 -1.502752,-0.20645 L 34.071739,36.535988 c -0.741668,0.301586 -1.379141,0.667242 -1.920183,1.203755 -0.530041,0.518391 -0.988244,1.37461 -0.981125,2.325318 0,0.02589 0.0071,0.06795 0.0071,0.06795 V 76.81583 c 0,0.01424 -0.0045,0.03171 -0.0045,0.04854 0,0.0123 0.0045,0.01683 0.0045,0.02912 v 0.03948 h 0.0052 c 0.05372,1.298891 0.69766,2.127928 1.315717,2.675443 1.944129,1.713733 5.207211,2.672853 8.676744,2.750515 1.643837,0 3.313562,-0.260166 4.855145,-0.911877 l 24.063451,-10.42866 c 0.636825,-0.260166 1.050373,-0.953296 1.050373,-1.71438 V 32.479463 c -0.0013,-0.607055 -0.263402,-1.181751 -0.701543,-1.526051 z"
     id="path3804"
     style="stroke-width:0.64718;fill:#ffffff" /><path
     fill="#891010"
     d="m 55.184049,23.979399 c -0.04336,-0.549456 -0.267286,-1.067847 -0.676304,-1.383671 -0.440082,-0.3443 -1.007012,-0.423256 -1.507929,-0.20645 L 28.943484,32.806289 c -1.045843,0.452379 -2.357677,0.675009 -3.700576,0.675009 -1.874881,0.0026 -3.815774,-0.434258 -5.167733,-1.02837 -0.480208,-0.204509 -0.886637,-0.436846 -1.172691,-0.643297 0.104844,-0.05242 0.226514,-0.104843 0.363716,-0.159206 l 21.883748,-9.473422 3.261788,1.397261 v -4.082412 c 0,-0.607702 -0.26405,-1.183045 -0.706721,-1.523462 -0.438788,-0.344299 -1.014131,-0.42455 -1.509224,-0.20645 L 18.137518,28.178304 c -0.741669,0.298997 -1.376552,0.665301 -1.917595,1.203755 -0.532629,0.518391 -0.988244,1.37461 -0.981125,2.326612 0,0.02654 0.0071,0.06666 0.0071,0.06666 v 36.68411 c 0,0.01424 -0.0026,0.0343 -0.0026,0.04854 0,0.0097 0.0026,0.01424 0.0026,0.05307 v 0.04854 h 0.0045 c 0.05242,1.29889 0.698307,2.127928 1.315717,2.668323 1.944129,1.71438 5.207211,2.643731 8.678686,2.7311 0.936469,0 1.877469,-0.12167 2.804231,-0.296408 v -33.56988 c -0.02459,-1.743503 0.67242,-3.417111 1.898179,-4.62216 0.79409,-0.784382 1.762919,-1.404381 2.963438,-1.882647 z"
     id="path3806"
     style="stroke-width:0.64718;fill:#ffffff" /></svg>
