<?xml version="1.0" encoding="UTF-8" standalone="no"?>
<svg
   xmlns:dc="http://purl.org/dc/elements/1.1/"
   xmlns:cc="http://creativecommons.org/ns#"
   xmlns:rdf="http://www.w3.org/1999/02/22-rdf-syntax-ns#"
   xmlns:svg="http://www.w3.org/2000/svg"
   xmlns="http://www.w3.org/2000/svg"
   xmlns:sodipodi="http://sodipodi.sourceforge.net/DTD/sodipodi-0.dtd"
   xmlns:inkscape="http://www.inkscape.org/namespaces/inkscape"
   version="1.1"
   id="Capa_1"
   x="0px"
   y="0px"
   width="292.362px"
   height="292.362px"
   viewBox="0 0 292.362 292.362"
   style="enable-background:new 0 0 292.362 292.362;"
   xml:space="preserve"
   sodipodi:docname="triangle.svg"
   inkscape:version="1.0.1 (c497b03c, 2020-09-10)"><metadata
   id="metadata872"><rdf:RDF><cc:Work
       rdf:about=""><dc:format>image/svg+xml</dc:format><dc:type
         rdf:resource="http://purl.org/dc/dcmitype/StillImage" /></cc:Work></rdf:RDF></metadata><defs
   id="defs870" /><sodipodi:namedview
   pagecolor="#ffffff"
   bordercolor="#666666"
   borderopacity="1"
   objecttolerance="10"
   gridtolerance="10"
   guidetolerance="10"
   inkscape:pageopacity="0"
   inkscape:pageshadow="2"
   inkscape:window-width="1570"
   inkscape:window-height="993"
   id="namedview868"
   showgrid="false"
   inkscape:zoom="2.435337"
   inkscape:cx="146.181"
   inkscape:cy="146.181"
   inkscape:window-x="0"
   inkscape:window-y="23"
   inkscape:window-maximized="0"
   inkscape:current-layer="Capa_1" />
<g
   id="g835"
   transform="rotate(-90,146.181,146.1815)">
	<path
   d="m 286.935,69.377 c -3.614,-3.617 -7.898,-5.424 -12.848,-5.424 H 18.274 c -4.952,0 -9.233,1.807 -12.85,5.424 C 1.807,72.998 0,77.279 0,82.228 c 0,4.948 1.807,9.229 5.424,12.847 l 127.907,127.907 c 3.621,3.617 7.902,5.428 12.85,5.428 4.948,0 9.233,-1.811 12.847,-5.428 L 286.935,95.074 c 3.613,-3.617 5.427,-7.898 5.427,-12.847 0,-4.948 -1.814,-9.229 -5.427,-12.85 z"
   id="path833" />
</g>
<g
   id="g837">
</g>
<g
   id="g839">
</g>
<g
   id="g841">
</g>
<g
   id="g843">
</g>
<g
   id="g845">
</g>
<g
   id="g847">
</g>
<g
   id="g849">
</g>
<g
   id="g851">
</g>
<g
   id="g853">
</g>
<g
   id="g855">
</g>
<g
   id="g857">
</g>
<g
   id="g859">
</g>
<g
   id="g861">
</g>
<g
   id="g863">
</g>
<g
   id="g865">
</g>
</svg>
