<svg id="Capa_1" enable-background="new 0 0 512 512" height="512" viewBox="0 0 512 512" width="512" xmlns="http://www.w3.org/2000/svg"><g><g><path d="m431 395h40c11.046 0 20-8.954 20-20v-26c0-11.046-8.954-20-20-20h-40c-8.284 0-15 6.716-15 15v36c0 8.284 6.716 15 15 15z" fill="#00cb75"/><path d="m431 461h40c11.046 0 20-8.954 20-20v-26c0-11.046-8.954-20-20-20h-40c-8.284 0-15 6.716-15 15v36c0 8.284 6.716 15 15 15z" fill="#ff6378"/><path d="m416 278v36c0 8.284 6.716 15 15 15h40c11.046 0 20-8.954 20-20v-26c0-11.046-8.954-20-20-20h-40c-8.284 0-15 6.716-15 15z" fill="#51489a"/><path d="m471 131h-40c-8.284 0-15 6.716-15 15v36c0 8.284 6.716 15 15 15h40c11.046 0 20-8.954 20-20v-26c0-11.046-8.954-20-20-20z" fill="#8bb9ff"/><path d="m471 197h-40c-8.284 0-15 6.716-15 15v36c0 8.284 6.716 15 15 15h40c11.046 0 20-8.954 20-20v-26c0-11.046-8.954-20-20-20z" fill="#ffc178"/></g><g><g><g><g><path d="m21 55v402c0 30.376 24.624 55 55 55h20c8.284 0 15-6.716 15-15v-402h-59.998v-40z" fill="#ffe278"/><g><path d="m431 95c-16.569-22.091-16.569-57.909 0-80h-355c-22.091 0-40 17.909-40 40 0 22.091 17.909 40 40 40z" fill="#f9f1f1"/></g><g><path d="m431 15h-167.5v80h167.5c-16.569-22.091-16.569-57.909 0-80z" fill="#e2dff4"/></g><g><path d="m431 110c0-8.284-6.716-15-15-15h-305c-8.284 0-15 6.716-15 15v402h320c8.284 0 15-6.716 15-15z" fill="#ff6378"/><path d="m431 110c0-8.284-6.716-15-15-15h-152.5v417h152.5c8.284 0 15-6.716 15-15z" fill="#d0004f"/></g><g><g><path d="m431 110h-355c-30.327 0-55-24.673-55-55s24.673-55 55-55h340c8.284 0 15 6.716 15 15s-6.716 15-15 15h-340c-13.785 0-25 11.215-25 25s11.215 25 25 25h340c8.284 0 15 6.716 15 15z" fill="#ff936b"/></g></g><g fill="#ff6378"><path d="m416 30c8.284 0 15-6.716 15-15s-6.716-15-15-15h-152.5v30z"/><path d="m416 80h-152.5v30h167.5v-15c0-8.284-6.716-15-15-15z"/></g></g></g></g></g><g><path d="m238.914 257.674-33.488-88.736c-.035-.091-.07-.183-.107-.273-1.865-4.533-6.234-7.46-11.135-7.46-.004 0-.008 0-.012 0-4.906.005-9.275 2.942-11.132 7.483-.031.075-.061.15-.089.226l-33.795 88.732c-1.966 5.161.625 10.938 5.786 12.904 5.162 1.967 10.938-.625 12.904-5.786l5.964-15.658h40.494l5.899 15.63c1.511 4.005 5.316 6.472 9.357 6.472 1.173 0 2.367-.208 3.529-.647 5.167-1.95 7.776-7.72 5.825-12.887zm-57.487-28.568 12.722-33.404 12.606 33.404z" fill="#f9f1f1"/><g><path d="m368.501 271h-60.04c-3.669 0-7.043-2.009-8.792-5.235-1.748-3.226-1.589-7.15.414-10.224l48.569-74.541h-38.345c-5.523 0-10-4.477-10-10s4.477-10 10-10h56.796c3.669 0 7.043 2.009 8.792 5.235 1.748 3.226 1.589 7.15-.414 10.224l-48.568 74.541h41.589c5.523 0 10 4.477 10 10s-4.478 10-10.001 10z" fill="#e2dff4"/></g><g><path d="m283.501 231.103h-20c-8.284 0-15-6.716-15-15s6.716-15 15-15h20c8.284 0 15 6.716 15 15s-6.715 15-15 15z" fill="#f9f1f1"/></g><path d="m283.501 201.103h-20-.001v30h.001 20c8.284 0 15-6.716 15-15s-6.715-15-15-15z" fill="#e2dff4"/><path d="m363.5 401h-200c-8.284 0-15-6.716-15-15v-60c0-8.284 6.716-15 15-15h200c8.284 0 15 6.716 15 15v60c0 8.284-6.716 15-15 15z" fill="#9ddff6"/><path d="m363.5 311h-100v90h100c8.284 0 15-6.716 15-15v-60c0-8.284-6.716-15-15-15z" fill="#8bb9ff"/><path d="m178.5 341h170v30h-170z" fill="#f9f1f1"/><path d="m263.5 341h85v30h-85z" fill="#e2dff4"/><g><path d="m363.5 461h-200c-8.284 0-15-6.716-15-15s6.716-15 15-15h200c8.284 0 15 6.716 15 15s-6.716 15-15 15z" fill="#f9f1f1"/></g><path d="m363.5 431h-100v30h100c8.284 0 15-6.716 15-15s-6.716-15-15-15z" fill="#e2dff4"/></g></g></svg>