<svg id="Capa_1" enable-background="new 0 0 498.358 498.358" height="512" viewBox="0 0 498.358 498.358" width="512" xmlns="http://www.w3.org/2000/svg"><g><path d="m116.958 369.548c-3.1 0-5.999-1.936-7.08-5.026l-67.459-192.93c-1.367-3.91.694-8.188 4.604-9.556s8.188.694 9.556 4.604l67.459 192.93c1.367 3.91-.694 8.188-4.604 9.556-.82.286-1.655.422-2.476.422z" fill="#bed9fd"/><path d="m49.504 176.617c-2.223 0-4.424-.983-5.903-2.867-2.559-3.258-1.991-7.973 1.266-10.531l134.916-105.964c3.258-2.556 7.974-1.991 10.531 1.266 2.559 3.258 1.991 7.973-1.266 10.531l-134.916 105.963c-1.374 1.078-3.007 1.602-4.628 1.602z" fill="#bed9fd"/><path d="m151.226 343.688h-81.375c-10.815 0-19.583 8.767-19.583 19.583v27.539h120.54v-27.539c.001-10.816-8.767-19.583-19.582-19.583z" fill="#8c818f"/><path d="m151.226 343.688h-27.185c10.815 0 19.583 8.768 19.583 19.583v27.539h27.185v-27.539c0-10.816-8.768-19.583-19.583-19.583z" fill="#766d78"/><path d="m415.004 426.81v66.548c0 2.761 2.239 5 5 5h23.787c2.761 0 5-2.239 5-5v-66.548z" fill="#c77e67"/><path d="m415.004 426.81h33.787v28.702h-33.787z" fill="#be694e"/><path d="m49.567 426.81v66.548c0 2.761 2.239 5 5 5h23.787c2.761 0 5-2.239 5-5v-66.548z" fill="#c77e67"/><path d="m49.567 426.81h33.787v28.702h-33.787z" fill="#be694e"/><path d="m.679 395.81v26c0 2.761 2.239 5 5 5h487c2.761 0 5-2.239 5-5v-26c0-2.761-2.239-5-5-5h-487c-2.762 0-5 2.238-5 5z" fill="#c77e67"/><path d="m273.752 126.308c-11.445 13.64-31.781 15.419-45.421 3.974l-8.715-7.313 41.447-49.394 8.715 7.313c13.64 11.444 15.419 31.78 3.974 45.42z" fill="#eec06b"/><path d="m237.84 43.296-52.074 62.06-40.303-33.818c-17.137-14.38-19.373-39.93-4.993-57.067s39.93-19.373 57.067-4.993z" fill="#766d78"/><path d="m165.545 47.605c-13.245-11.113-18.22-28.133-13.772-42.477-4.19 2.335-8.036 5.45-11.303 9.343-14.38 17.137-12.145 42.687 4.993 57.067l40.303 33.818 20.082-23.933z" fill="#655e67"/><path d="m361.056 182.766h-149.098c-2.881 0-5.217 2.336-5.217 5.217v197.609c0 2.881 2.336 5.217 5.217 5.217h149.097c2.881 0 5.217-2.336 5.217-5.217v-197.608c.001-2.882-2.335-5.218-5.216-5.218z" fill="#77d1b3"/><path d="m361.056 182.766h-28.769c2.881 0 5.217 2.336 5.217 5.217v197.609c0 2.881-2.336 5.217-5.217 5.217h28.769c2.881 0 5.217-2.336 5.217-5.217v-197.608c0-2.882-2.336-5.218-5.217-5.218z" fill="#67b59f"/><path d="m315.055 218.624h-57.096c-3.203 0-5.799 2.596-5.799 5.799v30.589c0 3.203 2.596 5.799 5.799 5.799h57.096c3.203 0 5.799-2.596 5.799-5.799v-30.589c0-3.202-2.596-5.799-5.799-5.799z" fill="#ddebfd"/><path d="m415.001 250.391h-48.728v-53.065h48.728c1.883 0 3.028 2.075 2.023 3.668l-13.622 21.588c-.492.78-.492 1.773 0 2.553l13.622 21.588c1.004 1.592-.14 3.668-2.023 3.668z" fill="#df646e"/><path d="m244.172 35.749-64.739 77.153c-2.93 3.492-2.474 8.697 1.017 11.627l18.924 15.879c3.492 2.93 8.697 2.474 11.627-1.017l64.739-77.153c2.93-3.492 2.474-8.697-1.017-11.627l-18.924-15.879c-3.491-2.93-8.697-2.474-11.627 1.017z" fill="#8c818f"/><path d="m220.526 115.201-18.924-15.879c-3.491-2.93-4.165-7.875-1.505-11.046l-20.664 24.626c-2.93 3.491-2.474 8.697 1.017 11.627l18.924 15.879c3.491 2.93 8.697 2.475 11.627-1.017l20.663-24.626c-2.66 3.17-7.647 3.365-11.138.436z" fill="#766d78"/><path d="m49.499 146.317c-13.621 0-24.664 11.043-24.664 24.665s11.043 24.664 24.664 24.664c13.622 0 24.664-11.042 24.664-24.664.001-13.622-11.042-24.665-24.664-24.665z" fill="#77d1b3"/><g><path d="m476.306 372.42c-10.786 14.787-36.376 12.742-47.483 4.42-7.67-5.749-14.179-17.308-14.071-33.535.029-4.406 3.219-8.162 7.554-8.95 14.895-2.707 35.459-5.684 54.17-2.347 4.115.734 7.148 4.245 7.307 8.422.443 11.597-.904 22.982-7.477 31.99z" fill="#9ec8fc"/><path d="m375.844 376.84c-11.099 8.322-36.697 10.367-47.483-4.42-6.573-9.008-7.92-20.395-7.477-31.991.159-4.176 3.191-7.687 7.305-8.422 18.712-3.342 39.277-.36 54.173 2.348 4.335.788 7.524 4.544 7.553 8.95.108 16.226-6.401 27.786-14.071 33.535z" fill="#9ec8fc"/><g fill="#766d78"><path d="m451.35 390.81c-10.059 0-20.29-2.922-27.023-7.968-10.802-8.097-17.185-22.895-17.074-39.586.054-7.998 5.82-14.845 13.712-16.279 16.146-2.934 37.196-5.851 56.829-2.352 7.522 1.343 13.193 7.869 13.484 15.521.382 9.986-.129 24.655-8.912 36.694-5.293 7.256-13.52 11.904-23.79 13.443-2.363.355-4.791.527-7.226.527zm7.037-52.786c-12.268 0-24.538 1.856-34.74 3.71-.803.146-1.39.828-1.395 1.621-.079 11.954 4.059 22.229 11.069 27.483 4.456 3.338 13.798 5.995 23.031 4.61 4.333-.649 10.261-2.469 13.894-7.449.001 0 .001-.001.001-.001 4.592-6.293 6.512-14.962 6.042-27.282-.025-.666-.49-1.21-1.131-1.324-5.453-.973-11.113-1.368-16.771-1.368z"/><path d="m353.321 390.81c-2.435 0-4.857-.171-7.22-.524-10.276-1.538-18.506-6.188-23.801-13.445-8.783-12.038-9.293-26.709-8.911-36.697.291-7.648 5.961-14.175 13.48-15.519 19.628-3.508 40.683-.584 56.833 2.353 7.892 1.435 13.658 8.28 13.712 16.278.11 16.69-6.272 31.489-17.072 39.585-6.729 5.046-16.961 7.969-27.021 7.969zm-7.044-52.79c-5.659 0-11.316.396-16.77 1.369-.639.114-1.104.659-1.13 1.325-.47 12.322 1.45 20.992 6.041 27.284 3.635 4.982 9.566 6.802 13.903 7.451 9.232 1.379 18.571-1.274 23.022-4.61 0-.001 0-.001.001-.001 7.011-5.255 11.148-15.529 11.069-27.484-.005-.793-.592-1.474-1.396-1.62-10.2-1.855-22.474-3.714-34.74-3.714z"/><path d="m403.208 345.015h-1.749c-3.097 0-7.417-.822-13.957-2.066-17.514-3.333-46.827-8.908-69.049-.595-3.881 1.454-8.201-.517-9.652-4.396s.517-8.201 4.396-9.652c26.153-9.787 58.051-3.718 77.107-.092 4.657.886 9.472 1.802 11.154 1.802h1.749c1.686 0 6.504-.917 11.163-1.803 19.056-3.625 50.949-9.692 77.1.093 3.879 1.452 5.847 5.773 4.396 9.653-1.452 3.879-5.772 5.849-9.653 4.396-22.216-8.315-51.527-2.736-69.038.594-6.544 1.243-10.867 2.066-13.967 2.066z"/></g></g></g></svg>